<svg xmlns="http://www.w3.org/2000/svg" viewBox="0 0 640 465.1"><path fill="#E8E8E8" d="M0 0h637.8v463.5H0z"/><path fill="#FFF" d="M23.9 45.8h588.6v388.8H23.9z"/><path fill="#E30613" d="M0 0h10v29.9H0z"/><path fill="#E30613" d="M0 0h637.8v1H0z"/><path d="M33.8 29.9h-2c-.3 0-.3 0-.4-.3l-.8-2.9h-3l-.8 2.9c-.1.3-.1.3-.4.3h-1.8c-.3 0-.4-.1-.4-.2s0-.1.1-.2l3.5-11.6c.1-.3.1-.3.4-.3h1.9c.3 0 .3 0 .4.3L34 29.5c0 .1.1.2.1.2 0 .1-.1.2-.3.2zM30.2 25l-.7-3.1c-.2-.7-.2-1.1-.4-2.4-.2 1-.2 1.5-.5 2.4l-.7 3.1h2.3zm10.2 4.4c-.5.6-1.3.8-2.2.8-1 0-2.1-.3-3.1-.8-.3-.2-.4-.2-.4-.3 0-.1 0-.1.1-.2l.4-1.1c.1-.1.1-.2.2-.2 0 0 .1 0 .2.1 1 .5 1.8.8 2.4.8.6 0 1-.4 1-.9s-.2-.7-1.4-1.1c-1.1-.4-1.5-.7-1.9-1-.5-.4-.7-1.1-.7-1.8 0-1.7 1.3-2.9 3.2-2.9 1.1 0 2.7.5 2.7.8 0 .1 0 .1-.1.2l-.4 1c-.1.1-.1.2-.2.2h-.1c-.7-.3-1.3-.5-1.8-.5-.7 0-1.1.3-1.1.9 0 .5.2.7 1.2 1 1.3.5 1.7.7 2.1 1.1.5.5.7 1.1.7 1.8 0 .8-.3 1.5-.8 2.1zm5.4.2c0 .3 0 .3-.3.3h-1.7c-.3 0-.3 0-.3-.3v-6.9h-1.4c-.3 0-.3 0-.3-.3v-1.1c0-.3 0-.3.3-.3h3.3c.3 0 .3 0 .3.3v8.3zm-1.2-9.8c-.8 0-1.5-.6-1.5-1.5 0-.8.7-1.4 1.5-1.4s1.4.7 1.4 1.5c.1.8-.6 1.4-1.4 1.4zm10.3 9.8l-1.4.6c-.1 0-.2.1-.2.1-.2 0-.3-.3-.5-1.1-.7.7-1.4 1-2.3 1-1.7 0-2.7-1.1-2.7-2.7s.9-2.5 2.7-2.9c.5-.1 1-.1 2-.2v-.6c0-1-.3-1.3-1.2-1.3-.5 0-1.2.2-2 .5H49c-.1 0-.1-.1-.2-.2l-.4-1.1v-.2c0-.4 1.6-.8 3.1-.8 1.4 0 2.4.5 2.8 1.4.2.4.3.8.3 1.5v3.7c0 .8.1 1.3.4 1.9 0 .1.1.1.1.2l-.2.2zm-2.5-3.7c-1.8 0-2.5.4-2.5 1.4 0 .7.5 1.2 1.1 1.2.5 0 .9-.2 1.4-.7v-1.9zm11.9 3.7c0 .3 0 .3-.3.3h-1.7c-.3 0-.3 0-.3-.3v-5.5c0-1.1-.3-1.5-1-1.5-.5 0-.9.2-1.6.7v6.3c0 .3 0 .3-.3.3h-1.7c-.3 0-.3 0-.3-.3v-6c0-.8-.1-1.4-.4-2 0-.1-.1-.1-.1-.2s.1-.1.1-.2l1.6-.6h.2c.2 0 .4.4.6 1.2.9-.8 1.7-1.1 2.7-1.1 1.6 0 2.3.9 2.3 2.8v6.1zm10.8.3c-.6.2-1.2.3-1.8.3-.9 0-1.6-.3-2-.9-.3-.4-.4-.9-.4-1.9v-4.7h-1.2c-.3 0-.3 0-.3-.3v-1.1c0-.3 0-.3.3-.3h1.2v-2.3c0-.3 0-.3.3-.3l1.7-.2h.1c.1 0 .2.1.2.3V21h2c.2 0 .3 0 .3.2v.2l-.2 1.1c-.1.2-.1.3-.3.3h-1.8v4.4c0 1 .1 1.1.7 1.1.4 0 .5 0 1.2-.3h.2c.1 0 .1.1.2.2l.3 1.3v.2c-.1 0-.2.1-.7.2zm8.4-.3l-1.4.6c-.1 0-.2.1-.2.1-.2 0-.3-.3-.5-1.1-.7.7-1.4 1-2.3 1-1.7 0-2.7-1.1-2.7-2.7s.9-2.5 2.7-2.9c.5-.1 1-.1 2-.2v-.6c0-1-.3-1.3-1.2-1.3-.5 0-1.2.2-2 .5-.1 0-.1.1-.2.1s-.1-.1-.2-.2l-.4-1.1v-.2c0-.4 1.6-.8 3.1-.8 1.4 0 2.4.5 2.8 1.4.2.4.3.8.3 1.5v3.7c0 .8.1 1.3.4 1.9 0 .1.1.1.1.2-.1 0-.2 0-.3.1zm-2.4-3.7c-1.8 0-2.5.4-2.5 1.4 0 .7.5 1.2 1.1 1.2.5 0 .9-.2 1.4-.7v-1.9zm9.9-4.6l-.6 1.5c0 .1-.1.2-.1.2h-.1c-.3-.1-.5-.1-.7-.1-.4 0-.8.3-1.4.9v6c0 .3 0 .3-.3.3h-1.7c-.3 0-.3 0-.3-.3v-5.5c0-1-.1-1.5-.5-2.5v-.2c0-.1.1-.1.2-.2l1.5-.5c.1-.1.1-.1.2-.1.2 0 .5.5.7 1.4.4-.4.4-.5.6-.7.4-.4 1-.7 1.6-.7.5 0 1 .2 1 .4-.1 0-.1 0-.1.1zm7.9.4c-.3.7-.4 1.2-.4 2v2.7c0 1 0 2 .1 2.9v1.1c0 2-1.2 3.2-3.4 3.2-1.5 0-3.6-.6-3.6-1v-.2l.4-1.2c0-.1.1-.2.2-.2 0 0 .1 0 .2.1 1 .4 1.9.7 2.7.7 1 0 1.4-.4 1.4-1.5 0-.3 0-.7-.1-1.2-.7.5-1.3.7-2.1.7-1.8 0-2.9-1.7-2.9-4.4 0-2.9 1.3-4.7 3.3-4.7.8 0 1.3.2 2.1.8.2-.5.5-.9.6-.9h.2l1.4.5c.1.1.2.1.2.2-.2.1-.2.1-.3.4zm-2.6 1.4c-.5-.4-.8-.5-1.3-.5-1 0-1.5 1-1.5 2.7 0 1.7.5 2.6 1.3 2.6.6 0 1-.2 1.4-.6v-4.2zm10.9 3h-4.8c0 1.5.7 2.3 2 2.3.7 0 1.4-.2 2-.6.1-.1.2-.1.2-.1.1 0 .1.1.2.2l.4 1.1c.1.1.1.1.1.2 0 .2-.1.3-.7.6-.8.3-1.6.5-2.5.5-1.1 0-2-.3-2.7-.9-.9-.8-1.3-2.2-1.3-3.8 0-2.9 1.6-4.8 3.9-4.8 2.4 0 3.6 1.6 3.6 4.9 0 .3-.1.4-.4.4zm-2-1.7c0-1.5-.4-2-1.3-2s-1.3.6-1.5 2h2.8zm8.9 5.5c-.6.2-1.2.3-1.8.3-.9 0-1.6-.3-2-.9-.3-.4-.4-.9-.4-1.9v-4.7h-1.2c-.3 0-.3 0-.3-.3v-1.1c0-.3 0-.3.3-.3h1.2v-2.3c0-.3 0-.3.3-.3l1.7-.2h.2c.1 0 .2.1.2.3V21h2c.2 0 .3 0 .3.2v.2l-.2 1.1c-.1.2-.1.3-.3.3h-1.8v4.4c0 1 .1 1.1.7 1.1.4 0 .5 0 1.2-.3h.2c.1 0 .1.1.2.2l.3 1.3v.2c-.2 0-.3.1-.8.2zm6.9-.5c-.5.6-1.3.8-2.2.8-1 0-2.1-.3-3.1-.8-.3-.2-.4-.2-.4-.3 0-.1 0-.1.1-.2l.4-1.1c.1-.1.1-.2.2-.2 0 0 .1 0 .2.1 1 .5 1.8.8 2.4.8.6 0 1-.4 1-.9s-.2-.7-1.4-1.1c-1.1-.4-1.5-.7-1.9-1-.5-.4-.7-1.1-.7-1.8 0-1.7 1.3-2.9 3.2-2.9 1.1 0 2.7.5 2.7.8 0 .1 0 .1-.1.2l-.4 1c-.1.1-.1.2-.2.2h-.1c-.7-.3-1.3-.5-1.8-.5-.7 0-1.1.3-1.1.9 0 .5.2.7 1.2 1 1.3.5 1.7.7 2.1 1.1.5.5.7 1.1.7 1.8 0 .8-.3 1.5-.8 2.1zm11.9-11.7l-.3 1.3c0 .1-.1.2-.2.2s-.1 0-.2-.1c-.4-.2-.7-.3-1.1-.3-.4 0-.7.1-.9.4-.1.2-.1.4-.1 1.1v.7h2c.2 0 .3.1.3.2v.2l-.3 1c-.1.2-.1.3-.3.3h-1.7v6.9c0 .3 0 .3-.3.3h-1.7c-.3 0-.3 0-.3-.3v-6.9h-1.4c-.3 0-.3 0-.3-.4v-1c0-.2.1-.3.3-.3h1.4v-.8c0-1.2.2-1.8.6-2.4.5-.7 1.3-1 2.3-1 1.1 0 2.2.3 2.2.6v.3zm3.9 12.5c-2.5 0-3.9-1.8-3.9-4.7 0-1.5.3-2.6 1-3.4.8-.9 1.7-1.3 2.9-1.3 2.4 0 3.8 1.8 3.8 4.7.1 2.9-1.4 4.7-3.8 4.7zm0-7.7c-1 0-1.5.9-1.5 2.9 0 2.1.4 2.9 1.5 2.9s1.5-.9 1.5-2.9-.5-2.9-1.5-2.9zm11-1.2l-.6 1.5c0 .1-.1.2-.1.2h-.1c-.3-.1-.5-.1-.7-.1-.4 0-.8.3-1.4.9v6c0 .3 0 .3-.3.3h-1.7c-.3 0-.3 0-.3-.3v-5.5c0-1-.1-1.5-.5-2.5v-.2c0-.1.1-.1.2-.2l1.5-.5c.1-.1.1-.1.2-.1.2 0 .5.5.7 1.4.4-.4.4-.5.6-.7.4-.4 1-.7 1.6-.7.5 0 1 .2 1 .4-.1 0-.1 0-.1.1zm13 8.6h-2c-.3 0-.3 0-.4-.3l-.8-2.9h-3l-.8 2.9c-.1.3-.1.3-.4.3h-1.8c-.3 0-.4-.1-.4-.2s0-.1.1-.2l3.5-11.6c.1-.3.1-.3.4-.3h1.9c.3 0 .3 0 .4.3l3.5 11.6c0 .1.1.2.1.2.1.1 0 .2-.3.2zm-3.6-4.9l-.7-3.1c-.2-.7-.2-1.1-.4-2.4-.2 1-.2 1.5-.5 2.4l-.7 3.1h2.3zm10.8-7.3l-.3 1.3c0 .1-.1.2-.2.2s-.1 0-.2-.1c-.4-.2-.7-.3-1.1-.3-.4 0-.7.1-.9.4-.1.2-.1.4-.1 1.1v.7h2c.2 0 .3.1.3.2v.2l-.3 1c-.1.2-.1.3-.3.3h-1.7v6.9c0 .3 0 .3-.3.3h-1.7c-.3 0-.3 0-.3-.3v-6.9h-1.4c-.3 0-.3 0-.3-.4v-1c0-.2.1-.3.3-.3h1.4v-.8c0-1.2.2-1.8.6-2.4.5-.7 1.3-1 2.3-1 1.1 0 2.2.3 2.2.6.1.2.1.2 0 .3zm6.1 3.6l-.6 1.5c0 .1-.1.2-.1.2h-.1c-.3-.1-.5-.1-.7-.1-.4 0-.8.3-1.4.9v6c0 .3 0 .3-.3.3h-1.7c-.3 0-.3 0-.3-.3v-5.5c0-1-.1-1.5-.5-2.5v-.2c0-.1.1-.1.2-.2l1.5-.5c.1-.1.1-.1.2-.1.2 0 .5.5.7 1.4.4-.4.4-.5.6-.7.4-.4 1-.7 1.6-.7.5 0 1 .2 1 .4-.1 0-.1 0-.1.1zm4.4 8.3c0 .3 0 .3-.3.3h-1.7c-.3 0-.3 0-.3-.3v-6.9h-1.4c-.3 0-.3 0-.3-.3v-1.1c0-.3 0-.3.3-.3h3.3c.3 0 .3 0 .3.3v8.3zm-1.2-9.8c-.8 0-1.5-.6-1.5-1.5 0-.8.7-1.4 1.5-1.4s1.4.7 1.4 1.5c.1.8-.6 1.4-1.4 1.4zm9.8 2.1l-.6 1.1c0 .1-.1.1-.2.1s-.1 0-.2-.1c-.7-.5-1-.6-1.5-.6-1.2 0-1.8.9-1.8 3 0 2 .6 2.8 1.8 2.8.5 0 1-.2 1.5-.5.1-.1.1-.1.2-.1s.1.1.1.1l.4 1.1c.1.1.1.1.1.2 0 .4-1.4 1-2.6 1-2.4 0-3.9-1.7-3.9-4.6 0-3.1 1.6-4.9 4.1-4.9 1.1 0 2.5.6 2.5 1 .2.3.1.4.1.4zm7.8 7.7l-1.4.6c-.1 0-.2.1-.2.1-.2 0-.3-.3-.5-1.1-.7.7-1.4 1-2.3 1-1.7 0-2.7-1.1-2.7-2.7s.9-2.5 2.7-2.9c.5-.1 1-.1 2-.2v-.6c0-1-.3-1.3-1.2-1.3-.5 0-1.2.2-2 .5-.1 0-.1.1-.2.1s-.1-.1-.2-.2l-.4-1.1v-.2c0-.4 1.6-.8 3.1-.8 1.4 0 2.4.5 2.8 1.4.2.4.3.8.3 1.5v3.7c0 .8.1 1.3.4 1.9 0 .1.1.1.1.2-.2 0-.2 0-.3.1zm-2.5-3.7c-1.8 0-2.5.4-2.5 1.4 0 .7.5 1.2 1.1 1.2.5 0 .9-.2 1.4-.7v-1.9zM26.2 453.7c-.9 0-2.3-.4-2.3-.7v-.1l.2-.6s0-.1.1-.1l.2.1c.6.3 1.2.5 1.7.5.9 0 1.5-.5 1.5-1.4 0-.7-.3-1.1-1.5-1.8-1-.6-1.2-.7-1.5-1.1-.3-.4-.5-.8-.5-1.3 0-1.3 1-2.2 2.4-2.2.8 0 2 .4 2 .6v.1l-.2.5s0 .1-.1.1l-.5-.2c-.3-.2-.8-.3-1.2-.3-.8 0-1.3.4-1.3 1.2 0 .4.2.8.5 1 .3.2.3.2 1.4.9.7.4.9.6 1.2 1 .3.4.4.8.4 1.3 0 1.5-1 2.5-2.5 2.5zm5.9 0c-1.5 0-2.3-1.1-2.3-3s.9-3.1 2.5-3.1c1.4 0 2.3 1.1 2.3 3 0 2-.9 3.1-2.5 3.1zm.1-5.3c-.9 0-1.4.8-1.4 2.2 0 .8.1 1.5.4 1.9.2.3.6.5 1.1.5.4 0 .8-.2 1-.5.2-.4.4-1.1.4-1.8-.1-1.6-.6-2.3-1.5-2.3zm8.3 4.9l-.5.3h-.1c-.1 0-.3-.3-.4-.7-.7.5-1.2.7-1.8.7-1.1 0-1.6-.6-1.6-1.6v-4c0-.1 0-.1.1-.2l.6-.2h.1c.1 0 .1 0 .1.1v3.7c0 1.1.2 1.4.9 1.4.5 0 1.1-.2 1.5-.6V448c0-.1 0-.1.1-.2l.6-.2h.1c.1 0 .1 0 .1.1v4.2c0 .6.1.9.3 1.2 0 .1 0 .1-.1.2.1 0 .1 0 0 0zm4.6-5.4l-.3.7h-.1l-.2-.1h-.2c-.3 0-.6.2-1.2.9v4c0 .1 0 .1-.1.1h-.6c-.1 0-.1 0-.1-.1v-3.6c0-.9 0-1.1-.3-1.6v-.1s0-.1.1-.1l.5-.3h.1c.1 0 .4.5.5 1 .8-.8 1-1 1.5-1 .1-.1.5 0 .4.2.1-.1 0 0 0 0zm4.7.5l-.3.5c0 .1-.1.1-.1.1h-.1c-.6-.4-.8-.5-1.2-.5-1 0-1.4.8-1.4 2.2 0 1.5.4 2.2 1.3 2.2.5 0 .7-.1 1.4-.6h.1s.1 0 .1.1l.2.5v.1c0 .1-.1.1-.2.2-.5.4-1.1.6-1.7.6-1.4 0-2.3-1.1-2.3-2.9 0-2 .9-3.2 2.4-3.2.5 0 1 .2 1.5.5.3 0 .4.1.3.2zm5.2 2.5h-3.4c.1 1.3.6 2 1.6 2 .4 0 .9-.1 1.4-.4h.1s.1 0 .1.1l.2.5v.1c0 .1-.1.2-.4.3-.5.2-1 .3-1.5.3-1.5 0-2.5-1.2-2.5-3 0-1.9.9-3.1 2.4-3.1 1 0 1.7.5 2 1.4.1.4.2.8.2 1.6-.1.1-.1.2-.2.2zm-.8-.8c0-1.1-.5-1.8-1.3-1.8s-1.3.6-1.3 1.8h2.6zm3.1-.6c-.5 0-.8-.4-.8-.8 0-.5.4-.8.9-.8.4 0 .8.4.8.8-.1.5-.4.8-.9.8zm0 4.2c-.5 0-.8-.4-.8-.8 0-.5.4-.8.9-.8.4 0 .8.4.8.8-.1.4-.4.8-.9.8zm9.3-8.2l-.2.5c0 .1-.1.1-.2.1h-1.7v7.2c0 .1 0 .2-.2.2h-.6c-.1 0-.2 0-.2-.2v-7.2h-1.7c-.1 0-.2 0-.2-.2v-.5c0-.1 0-.2.2-.2h4.7c0 .1.1.1.1.3 0-.1 0-.1 0 0zm5 7.9c0 .1 0 .1-.1.1h-.6c-.1 0-.1 0-.1-.1v-4c0-.8-.2-1-.8-1-.5 0-.9.2-1.6.8v4.2c0 .1 0 .1-.1.1h-.6c-.1 0-.1 0-.1-.1v-8.2c0-.1 0-.1.1-.2l.6-.1h.1s.1 0 .1.1v3.4c.6-.6 1.1-.8 1.9-.8.5 0 .9.2 1.1.5.2.3.3.6.3 1.3v4zm6-2.5h-3.4c.1 1.3.6 2 1.6 2 .4 0 .9-.1 1.4-.4h.1s.1 0 .1.1l.2.5v.1c0 .1-.1.2-.4.3-.5.2-1 .3-1.5.3-1.5 0-2.5-1.2-2.5-3 0-1.9.9-3.1 2.4-3.1 1 0 1.7.5 2 1.4.1.4.2.8.2 1.6-.1.1-.1.2-.2.2zm-.8-.8c0-1.1-.5-1.8-1.3-1.8s-1.3.6-1.3 1.8h2.6zm8.9-4.6l-.2.5c0 .1-.1.1-.2.1h-2.7v2.7h2.3c.1 0 .2 0 .2.2v.5c0 .1 0 .2-.2.2h-2.3v3h2.9c.1 0 .2 0 .2.2v.5c0 .1 0 .2-.2.2h-3.7c-.2 0-.2 0-.2-.2v-7.9c0-.1 0-.2.2-.2h3.7c.1 0 .2 0 .2.1.1 0 .1 0 0 .1zm5.2 2.9l-.3.5c0 .1-.1.1-.1.1h-.1c-.6-.4-.8-.5-1.2-.5-1 0-1.4.8-1.4 2.2 0 1.5.4 2.2 1.3 2.2.5 0 .7-.1 1.4-.6h.1s.1 0 .1.1l.2.5v.1c0 .1-.1.1-.2.2-.5.4-1.1.6-1.7.6-1.4 0-2.3-1.1-2.3-2.9 0-2 .9-3.2 2.4-3.2.5 0 1 .2 1.5.5.2 0 .3.1.3.2zm3 5.3c-1.5 0-2.3-1.1-2.3-3s.9-3.1 2.5-3.1c1.4 0 2.3 1.1 2.3 3 0 2-.9 3.1-2.5 3.1zm.1-5.3c-.9 0-1.4.8-1.4 2.2 0 .8.1 1.5.4 1.9.2.3.6.5 1.1.5.4 0 .8-.2 1-.5.2-.4.4-1.1.4-1.8-.1-1.6-.6-2.3-1.5-2.3zm8.2 5c0 .1 0 .1-.1.1h-.6c-.1 0-.1 0-.1-.1v-4c0-.7-.2-1-.8-1-.6 0-1 .2-1.6.8v4.2c0 .1 0 .1-.1.1h-.6c-.1 0-.1 0-.1-.1v-4.1c0-.5 0-.8-.2-1.1v-.1s0-.1.1-.1l.5-.3h.1c.1 0 .3.3.4.8.7-.6 1.3-.8 1.9-.8.6 0 1 .2 1.2.6.2.3.2.5.2 1.2v3.9zm3.9.3c-1.5 0-2.3-1.1-2.3-3s.9-3.1 2.5-3.1c1.4 0 2.3 1.1 2.3 3 0 2-.9 3.1-2.5 3.1zm.1-5.3c-.9 0-1.4.8-1.4 2.2 0 .8.1 1.5.4 1.9.2.3.6.5 1.1.5.4 0 .8-.2 1-.5.2-.4.4-1.1.4-1.8-.1-1.6-.6-2.3-1.5-2.3zm10.6 5c0 .1 0 .1-.1.1h-.6c-.1 0-.1 0-.1-.1v-4.1c0-.6-.2-.9-.8-.9-.4 0-.7.1-1.2.5v4.5c0 .1 0 .1-.1.1h-.6c-.1 0-.1 0-.1-.1v-4.1c0-.6-.3-.9-.8-.9-.4 0-.7.1-1.2.5v4.5c0 .1 0 .1-.1.1h-.6c-.1 0-.1 0-.1-.1v-4.3c0-.4 0-.6-.2-1v-.1s0-.1.1-.1l.5-.3h.1c.1 0 .3.3.3.7.7-.5 1.1-.7 1.7-.7.6 0 .9.2 1.1.7.7-.5 1.2-.7 1.7-.7s.9.2 1.1.5c.2.3.2.6.2 1.2v4.1zm3.1 0c0 .1 0 .1-.1.1h-.6c-.1 0-.1 0-.1-.1v-4.9h-1c-.1 0-.1 0-.1-.1v-.5c0-.1 0-.1.1-.1h1.7c.1 0 .1 0 .1.1v5.5zm-.5-7c-.4 0-.7-.3-.7-.7 0-.4.3-.7.7-.7.4 0 .7.3.7.7 0 .4-.3.7-.7.7zm3.8 7.3c-.6 0-1.3-.2-1.8-.5-.1 0-.1-.1-.1-.1l.2-.5h.2c.5.3 1.1.4 1.5.4.6 0 1-.3 1-.9 0-.4-.2-.6-.8-.9-.8-.4-1.1-.5-1.3-.7-.4-.3-.6-.7-.6-1.1 0-1 .8-1.7 1.8-1.7.6 0 1.5.3 1.5.5v.1l-.2.4-.1.1h-.1c-.5-.2-.8-.3-1.1-.3-.6 0-.9.3-.9.8 0 .2.1.4.2.6.2.2.2.2 1.3.7.9.4 1.2.8 1.2 1.5 0 .9-.8 1.6-1.9 1.6zm5.1-.1c-.6 0-1.1-.3-1.3-.7-.1-.2-.2-.5-.2-1.1v-3.4h-.8c-.1 0-.1 0-.1-.1v-.5c0-.1 0-.1.1-.1h.8v-1.6c0-.1 0-.1.1-.2l.6-.2h.1c.1 0 .1 0 .1.1v1.8h1.8c.1 0 .1 0 .1.1v.1l-.1.5c0 .1-.1.1-.2.1h-1.6v3.4c0 .5 0 .6.1.7.1.2.3.2.6.2s.6-.1 1.1-.3h.1s.1 0 .1.1l.1.5v.1c.1.3-.9.5-1.5.5zm7.6-.2c0 .1 0 .2-.2.2h-3.1c-.1 0-.2 0-.2-.2v-.4c0-.1 0-.2.2-.2h1.1v-6.7h-1.1c-.1 0-.2 0-.2-.2v-.4c0-.1 0-.2.2-.2h3.1c.1 0 .2 0 .2.2v.4c0 .1 0 .2-.2.2h-1.1v6.7h1.1c.1 0 .2 0 .2.2v.4zm5.5 0c0 .1 0 .1-.1.1h-.6c-.1 0-.1 0-.1-.1v-4c0-.7-.2-1-.8-1-.6 0-1 .2-1.6.8v4.2c0 .1 0 .1-.1.1h-.6c-.1 0-.1 0-.1-.1v-4.1c0-.5 0-.8-.2-1.1v-.1s0-.1.1-.1l.5-.3h.1c.1 0 .3.3.4.8.7-.6 1.3-.8 1.9-.8.6 0 1 .2 1.2.6.2.3.2.5.2 1.2v3.9zm3.5.2c-.6 0-1.1-.3-1.3-.7-.1-.2-.2-.5-.2-1.1v-3.4h-.8c-.1 0-.1 0-.1-.1v-.5c0-.1 0-.1.1-.1h.8v-1.6c0-.1 0-.1.1-.2l.6-.2h.1c.1 0 .1 0 .1.1v1.8h1.8c.1 0 .1 0 .1.1v.1l-.1.5c0 .1-.1.1-.2.1h-1.6v3.4c0 .5 0 .6.1.7.1.2.3.2.6.2s.5-.1 1.1-.3h.1s.1 0 .1.1l.1.5v.1c.1.3-.8.5-1.5.5zm6.5-2.7H148c.1 1.3.6 2 1.6 2 .4 0 .9-.1 1.4-.4h.1s.1 0 .1.1l.2.5v.1c0 .1-.1.2-.4.3-.5.2-1 .3-1.5.3-1.5 0-2.5-1.2-2.5-3 0-1.9.9-3.1 2.4-3.1 1 0 1.7.5 2 1.4.1.4.2.8.2 1.6 0 .1 0 .2-.2.2zm-.8-.8c0-1.1-.5-1.8-1.3-1.8s-1.3.6-1.3 1.8h2.6zm3.6 3.5c-.6 0-1.1-.3-1.2-.8-.1-.3-.1-.3-.1-1.5v-6.2c0-.1 0-.1.1-.1l.6-.1h.1c.1 0 .1 0 .1.1v7.5c0 .3.2.5.5.5.2 0 .3 0 .5-.1h.1s.1 0 .1.1l.1.4v.1c.1 0-.4.1-.9.1zm3.1 0c-.6 0-1.1-.3-1.2-.8-.1-.3-.1-.3-.1-1.5v-6.2c0-.1 0-.1.1-.1l.6-.1h.1c.1 0 .1 0 .1.1v7.5c0 .3.2.5.5.5.2 0 .3 0 .5-.1h.1s.1 0 .1.1l.1.4v.1c.1 0-.4.1-.9.1zm2.9-.2c0 .1 0 .1-.1.1h-.6c-.1 0-.1 0-.1-.1v-4.9h-1c-.1 0-.1 0-.1-.1v-.5c0-.1 0-.1.1-.1h1.7c.1 0 .1 0 .1.1v5.5zm-.5-7c-.4 0-.7-.3-.7-.7 0-.4.3-.7.7-.7.4 0 .7.3.7.7 0 .4-.3.7-.7.7zm6.8 1.8c-.2.3-.3.7-.3 1.2v1.8c0 .9 0 .9.1 2v.7c0 1.4-.7 2.1-2.1 2.1-.6 0-1.3-.2-1.8-.4-.2-.1-.2-.1-.2-.2v-.1l.2-.5s0-.1.1-.1h.1c.5.3 1.1.4 1.6.4s.9-.2 1.1-.4c.1-.2.2-.4.2-.9v-1.2c-.6.5-1.1.7-1.7.7-1.1 0-1.9-1-1.9-2.7 0-2 .8-3.1 2.3-3.1.5 0 .9.1 1.4.5.1-.3.3-.5.3-.5h.1l.6.3v.1c0 .1 0 .2-.1.3zm-1.2.5c-.5-.2-.8-.3-1.1-.3-.9 0-1.4.7-1.4 2.1 0 1.5.3 2.1 1.1 2.1.4 0 .8-.2 1.4-.6v-3.3zm6.9 2.2h-3.4c.1 1.3.6 2 1.6 2 .4 0 .9-.1 1.4-.4h.1s.1 0 .1.1l.2.5v.1c0 .1-.1.2-.4.3-.5.2-1 .3-1.5.3-1.5 0-2.5-1.2-2.5-3 0-1.9.9-3.1 2.4-3.1 1 0 1.7.5 2 1.4.1.4.2.8.2 1.6-.1.1-.1.2-.2.2zm-.8-.8c0-1.1-.5-1.8-1.3-1.8s-1.3.6-1.3 1.8h2.6zm6.5 3.3c0 .1 0 .1-.1.1h-.6c-.1 0-.1 0-.1-.1v-4c0-.7-.2-1-.8-1-.6 0-1 .2-1.6.8v4.2c0 .1 0 .1-.1.1h-.6c-.1 0-.1 0-.1-.1v-4.1c0-.5 0-.8-.2-1.1v-.1s0-.1.1-.1l.5-.3h.1c.1 0 .3.3.4.8.7-.6 1.3-.8 1.9-.8.6 0 1 .2 1.2.6.2.3.2.5.2 1.2v3.9zm5.8-5l-.3.5c0 .1-.1.1-.1.1h-.1c-.6-.4-.8-.5-1.2-.5-1 0-1.4.8-1.4 2.2 0 1.5.4 2.2 1.3 2.2.5 0 .7-.1 1.4-.6h.1s.1 0 .1.1l.2.5v.1c0 .1-.1.1-.2.2-.5.4-1.1.6-1.7.6-1.4 0-2.3-1.1-2.3-2.9 0-2 .9-3.2 2.4-3.2.5 0 1 .2 1.5.5.2 0 .3.1.3.2zm5.1 2.5h-3.4c.1 1.3.6 2 1.6 2 .4 0 .9-.1 1.4-.4h.1s.1 0 .1.1l.2.5v.1c0 .1-.1.2-.4.3-.5.2-1 .3-1.5.3-1.5 0-2.5-1.2-2.5-3 0-1.9.9-3.1 2.4-3.1 1 0 1.7.5 2 1.4.1.4.2.8.2 1.6 0 .1-.1.2-.2.2zm-.8-.8c0-1.1-.5-1.8-1.3-1.8s-1.3.6-1.3 1.8h2.6zm9.9 1.2c0 .8-.2 1.3-.6 1.7-.5.5-1.1.7-2 .7-1.7 0-2.5-.8-2.5-2.4v-5.8c0-.1 0-.2.2-.2h.6c.1 0 .2 0 .2.2v5.8c0 1.2.4 1.6 1.5 1.6s1.6-.5 1.6-1.6v-5.8c0-.1 0-.2.2-.2h.6c.1 0 .2 0 .2.2v5.8zm6 2.1c0 .1 0 .1-.1.1h-.6c-.1 0-.1 0-.1-.1v-4c0-.7-.2-1-.8-1-.6 0-1 .2-1.6.8v4.2c0 .1 0 .1-.1.1h-.6c-.1 0-.1 0-.1-.1v-4.1c0-.5 0-.8-.2-1.1v-.1s0-.1.1-.1l.5-.3h.1c.1 0 .3.3.4.8.7-.6 1.3-.8 1.9-.8.6 0 1 .2 1.2.6.2.3.2.5.2 1.2v3.9zm3.1 0c0 .1 0 .1-.1.1h-.6c-.1 0-.1 0-.1-.1v-4.9h-1c-.1 0-.1 0-.1-.1v-.5c0-.1 0-.1.1-.1h1.7c.1 0 .1 0 .1.1v5.5zm-.5-7c-.4 0-.7-.3-.7-.7 0-.4.3-.7.7-.7.4 0 .7.3.7.7 0 .4-.3.7-.7.7zm4.1 7.2c-.6 0-1.1-.3-1.3-.7-.1-.2-.2-.5-.2-1.1v-3.4h-.8c-.1 0-.1 0-.1-.1v-.5c0-.1 0-.1.1-.1h.8v-1.6c0-.1 0-.1.1-.2l.6-.2h.1c.1 0 .1 0 .1.1v1.8h1.8c.1 0 .1 0 .1.1v.1l-.1.5c0 .1-.1.1-.2.1H210v3.4c0 .5 0 .6.1.7.1.2.3.2.6.2s.6-.1 1.1-.3h.1s.1 0 .1.1l.1.5v.1c0 .3-.9.5-1.5.5zm228.7-6.5l-1.4.3.9 1.1.1.1s0 .1-.1.1l-.4.3c-.1 0-.1.1-.1.1s-.1 0-.1-.1l-.7-1.2-.7 1.2c0 .1-.1.1-.1.1s-.1 0-.1-.1l-.4-.3-.1-.1.1-.1.9-1.1-1.4-.3c-.1 0-.1 0-.1-.1v-.1l.2-.5c0-.1.1-.1.1-.1h.1l1.3.5-.1-1.4v-.1c0-.1 0-.1.2-.1h.5c.1 0 .2 0 .2.1v.1l-.1 1.4 1.3-.5h.1s.1 0 .1.1l.2.5v.1c-.3.1-.3.1-.4.1zm5.5 2.7c-.4.2-.8.3-1.4.3h-.9v3.3c0 .1 0 .2-.2.2h-.6c-.1 0-.2 0-.2-.2v-7.9c0-.1 0-.2.2-.2h1.8c.8 0 1.2.1 1.5.3.6.3.9 1 .9 1.9.1 1.1-.3 1.9-1.1 2.3zm-.5-3.6c-.2-.1-.4-.1-.8-.1h-.9v3.1h.8c.6 0 .8-.1 1.1-.3.3-.3.5-.8.5-1.4 0-.6-.2-1.1-.7-1.3zm7.3 7.1l-.5.3h-.1c-.1 0-.3-.3-.4-.7-.7.5-1.2.7-1.8.7-1.1 0-1.6-.6-1.6-1.6v-4c0-.1 0-.1.1-.2l.6-.2h.1c.1 0 .1 0 .1.1v3.7c0 1.1.2 1.4.9 1.4.5 0 1.1-.2 1.5-.6V448c0-.1 0-.1.1-.2l.6-.2h.1c.1 0 .1 0 .1.1v4.2c0 .6.1.9.3 1.2-.1.1-.1.1-.1.2zm4.5-5.4l-.3.7h-.1l-.2-.1h-.2c-.3 0-.6.2-1.2.9v4c0 .1 0 .1-.1.1h-.6c-.1 0-.1 0-.1-.1v-3.6c0-.9 0-1.1-.3-1.6v-.1s0-.1.1-.1l.5-.3h.1c.1 0 .4.5.5 1 .8-.8 1-1 1.5-1 .1-.1.5 0 .4.2.1-.1.1 0 0 0zm4.8.5l-.3.5c0 .1-.1.1-.1.1h-.1c-.6-.4-.8-.5-1.2-.5-1 0-1.4.8-1.4 2.2 0 1.5.4 2.2 1.3 2.2.5 0 .7-.1 1.4-.6h.1s.1 0 .1.1l.2.5v.1c0 .1-.1.1-.2.2-.5.4-1.1.6-1.7.6-1.4 0-2.3-1.1-2.3-2.9 0-2 .9-3.2 2.4-3.2.5 0 1 .2 1.5.5.2 0 .3.1.3.2zm5.3 5c0 .1 0 .1-.1.1h-.6c-.1 0-.1 0-.1-.1v-4c0-.8-.2-1-.8-1-.5 0-.9.2-1.6.8v4.2c0 .1 0 .1-.1.1h-.6c-.1 0-.1 0-.1-.1v-8.2c0-.1 0-.1.1-.2l.6-.1h.1s.1 0 .1.1v3.4c.6-.6 1.1-.8 1.9-.8.5 0 .9.2 1.1.5.2.3.3.6.3 1.3v4zm5.8-.1l-.5.3h-.1c-.1 0-.3-.4-.5-.8-.5.5-1.1.8-1.7.8-1 0-1.6-.6-1.6-1.6 0-1.4 1-2 3.2-2.1v-.4c0-.8-.3-1.1-1.1-1.1-.5 0-.8.1-1.4.3h-.1s-.1 0-.1-.1l-.2-.5v-.1c0-.1.1-.1.3-.2.5-.2 1-.3 1.6-.3 1.3 0 1.9.5 1.9 1.7v2.3c0 .8.1 1.1.3 1.6.1.1.1.1 0 .2.1-.1.1 0 0 0zm-1.2-2.6c-1.5 0-2.2.4-2.2 1.3 0 .6.4 1 .9 1 .4 0 .8-.2 1.4-.7v-1.6zm4.2 3c-.6 0-1.3-.2-1.8-.5-.1 0-.1-.1-.1-.1l.2-.5h.2c.5.3 1.1.4 1.5.4.6 0 1-.3 1-.9 0-.4-.2-.6-.8-.9-.8-.4-1.1-.5-1.3-.7-.4-.3-.6-.7-.6-1.1 0-1 .8-1.7 1.8-1.7.6 0 1.5.3 1.5.5v.1l-.2.4-.1.1h-.1c-.5-.2-.8-.3-1.1-.3-.6 0-.9.3-.9.8 0 .2.1.4.2.6.2.2.2.2 1.3.7.9.4 1.2.8 1.2 1.5 0 .9-.7 1.6-1.9 1.6zm4.5-.3c0 .1 0 .1-.1.1h-.6c-.1 0-.1 0-.1-.1v-4.9h-1c-.1 0-.1 0-.1-.1v-.5c0-.1 0-.1.1-.1h1.7c.1 0 .1 0 .1.1v5.5zm-.5-7c-.4 0-.7-.3-.7-.7 0-.4.3-.7.7-.7.4 0 .7.3.7.7 0 .4-.3.7-.7.7zm6.7 7c0 .1 0 .1-.1.1h-.6c-.1 0-.1 0-.1-.1v-4c0-.7-.2-1-.8-1-.6 0-1 .2-1.6.8v4.2c0 .1 0 .1-.1.1h-.6c-.1 0-.1 0-.1-.1v-4.1c0-.5 0-.8-.2-1.1v-.1s0-.1.1-.1l.5-.3h.1c.1 0 .3.3.4.8.7-.6 1.3-.8 1.9-.8.6 0 1 .2 1.2.6.2.3.2.5.2 1.2v3.9zm6.3-5.2c-.2.3-.3.7-.3 1.2v1.8c0 .9 0 .9.1 2v.7c0 1.4-.7 2.1-2.1 2.1-.6 0-1.3-.2-1.8-.4-.2-.1-.2-.1-.2-.2v-.1l.2-.5s0-.1.1-.1h.1c.5.3 1.1.4 1.6.4s.9-.2 1.1-.4c.1-.2.2-.4.2-.9v-1.2c-.5.5-1.1.7-1.7.7-1.1 0-1.9-1-1.9-2.7 0-2 .8-3.1 2.3-3.1.5 0 .9.1 1.4.5.1-.3.3-.5.3-.5h.1l.5.3v.1c.1.1.1.2 0 .3zm-1.2.5c-.5-.2-.8-.3-1.1-.3-.9 0-1.4.7-1.4 2.1 0 1.5.3 2.1 1.1 2.1.4 0 .8-.2 1.4-.6v-3.3zm5.7 2c0 .1 0 .2-.2.2h-3c-.1 0-.2 0-.2-.2v-.6c0-.1 0-.2.2-.2h3c.1 0 .2 0 .2.2v.6zm3.8 3c-.5 0-.9-.1-1.4-.5v2.6c0 .1 0 .1-.1.2l-.6.2h-.1c-.1 0-.1 0-.1-.1v-6.5c0-.6 0-.8-.2-1.2l-.1-.2v-.1l.5-.4h.1c.1 0 .3.3.4.7.7-.5 1.1-.7 1.7-.7.7 0 1.2.3 1.4.8.3.5.4 1.3.4 2.1.1 1.9-.7 3.1-1.9 3.1zm.8-4.7c-.1-.4-.5-.6-.9-.6s-.7.1-1.4.6v3.4c.6.4.9.5 1.3.5.8 0 1.1-.6 1.1-2.3.1-.8.1-1.2-.1-1.6zm4.7 4.7c-1.5 0-2.3-1.1-2.3-3s.9-3.1 2.5-3.1c1.4 0 2.3 1.1 2.3 3 0 2-.9 3.1-2.5 3.1zm.1-5.3c-.9 0-1.4.8-1.4 2.2 0 .8.1 1.5.4 1.9.2.3.6.5 1.1.5.4 0 .8-.2 1-.5.2-.4.4-1.1.4-1.8-.1-1.6-.6-2.3-1.5-2.3zm10.1-.4l-1.6 5.5c0 .1 0 .1-.1.1h-.5c-.1 0-.1 0-.1-.1l-.9-3.6c0-.1-.1-.3-.1-.5v-.5c0 .3-.1.6-.2.9l-1.1 3.6c0 .1 0 .1-.2.1h-.4c-.1 0-.1 0-.1-.1l-1.4-5.5v-.1c0-.1 0-.1.1-.1l.6-.2h.1s.1 0 .1.1l.8 4v.2c0 .1 0 .1.1.5 0-.2 0-.2.2-.7l1.1-3.9c0-.1 0-.1.1-.1h.5c.1 0 .1 0 .1.1l1 4v.4-.2l.1-.3 1-4.1c0-.1 0-.1.1-.1h.1l.6.1v.5c0-.1 0-.1 0 0zm5.1 2.9h-3.4c.1 1.3.6 2 1.6 2 .4 0 .9-.1 1.4-.4h.1s.1 0 .1.1l.2.5v.1c0 .1-.1.2-.4.3-.5.2-1 .3-1.5.3-1.5 0-2.5-1.2-2.5-3 0-1.9.9-3.1 2.4-3.1 1 0 1.7.5 2 1.4.1.4.2.8.2 1.6 0 .1-.1.2-.2.2zm-.8-.8c0-1.1-.5-1.8-1.3-1.8s-1.3.6-1.3 1.8h2.6zm5.3-2.2l-.3.7h-.1l-.2-.1h-.2c-.3 0-.6.2-1.2.9v4c0 .1 0 .1-.1.1h-.6c-.1 0-.1 0-.1-.1v-3.6c0-.9 0-1.1-.3-1.6v-.1s0-.1.1-.1l.5-.3h.1c.1 0 .4.5.5 1 .8-.8 1-1 1.5-1 .1-.1.4 0 .4.2 0-.1 0 0 0 0zm5.9 5.8c-.5 0-.9-.1-1.4-.5v2.6c0 .1 0 .1-.1.2l-.6.2h-.1c-.1 0-.1 0-.1-.1v-6.5c0-.6 0-.8-.2-1.2l-.1-.2v-.1l.5-.4h.1c.1 0 .3.3.4.7.7-.5 1.1-.7 1.7-.7.7 0 1.2.3 1.4.8.3.5.4 1.3.4 2.1.1 1.9-.7 3.1-1.9 3.1zm.8-4.7c-.1-.4-.5-.6-.9-.6s-.7.1-1.4.6v3.4c.6.4.9.5 1.3.5.8 0 1.1-.6 1.1-2.3.1-.8 0-1.2-.1-1.6zm6.6 4.3l-.5.3h-.1c-.1 0-.3-.4-.5-.8-.5.5-1.1.8-1.7.8-1 0-1.6-.6-1.6-1.6 0-1.4 1-2 3.2-2.1v-.4c0-.8-.3-1.1-1.1-1.1-.5 0-.8.1-1.4.3h-.1s-.1 0-.1-.1l-.2-.5v-.1c0-.1.1-.1.3-.2.5-.2 1-.3 1.6-.3 1.3 0 1.9.5 1.9 1.7v2.3c0 .8.1 1.1.3 1.6v.2c0-.1 0 0 0 0zm-1.2-2.6c-1.5 0-2.2.4-2.2 1.3 0 .6.4 1 .9 1 .4 0 .8-.2 1.4-.7v-1.6zm5.9-2.8l-.3.7h-.1l-.2-.1h-.2c-.3 0-.6.2-1.2.9v4c0 .1 0 .1-.1.1h-.6c-.1 0-.1 0-.1-.1v-3.6c0-.9 0-1.1-.3-1.6v-.1s0-.1.1-.1l.5-.3h.1c.1 0 .4.5.5 1 .8-.8 1-1 1.5-1 .1-.1.4 0 .4.2 0-.1 0 0 0 0zm2.6 5.5c0 .1 0 .1-.1.1h-.6c-.1 0-.1 0-.1-.1v-4.9h-1c-.1 0-.1 0-.1-.1v-.5c0-.1 0-.1.1-.1h1.7c.1 0 .1 0 .1.1v5.5zm-.5-7c-.4 0-.7-.3-.7-.7 0-.4.3-.7.7-.7.4 0 .7.3.7.7 0 .4-.3.7-.7.7zm4.1 7.2c-.6 0-1.1-.3-1.3-.7-.1-.2-.2-.5-.2-1.1v-3.4h-.8c-.1 0-.1 0-.1-.1v-.5c0-.1 0-.1.1-.1h.8v-1.6c0-.1 0-.1.1-.2l.6-.2h.1c.1 0 .1 0 .1.1v1.8h1.8c.1 0 .1 0 .1.1v.1l-.1.5c0 .1-.1.1-.2.1h-1.6v3.4c0 .5 0 .6.1.7.1.2.3.2.6.2s.6-.1 1.1-.3h.1s.1 0 .1.1l.1.5v.1c0 .3-.9.5-1.5.5z"/><path d="M556.2 448.1l-1.4 4.7c-.3.9-.6 1.9-.8 2.3-.3.6-.8 1-1.4 1-.6 0-1.5-.4-1.5-.6v-.1l.2-.5.1-.1h.1c.4.3.8.4 1.1.4.4 0 .7-.3.9-1l.3-.8h-.5c-.1 0-.1 0-.1-.1l-1.9-5.3v-.1s0-.1.1-.1l.6-.2h.1s.1 0 .1.1l1.5 4.5c.1.3.1.3.2.9.1-.3.1-.6.2-.8l1.2-4.6.1-.1h.1l.6.2c.1.1.1.2.1.3 0-.1 0-.1 0 0zm16.6-2.6c0 .1 0 .1-.1.1h-1.2v5.8c0 .1 0 .1-.1.1h-.5c-.1 0-.1 0-.1-.1v-5.8h-1.2c-.1 0-.1 0-.1-.1v-.4c0-.1 0-.1.1-.1h1.2v-2.1c0-.1 0-.1.1-.1h.5c.1 0 .1 0 .1.1v2.1h1.2c.1 0 .1 0 .1.1v.4zm6 0l-.2.6c0 .1-.1.1-.2.1h-2.7v2.8h2.3c.1 0 .2 0 .2.2v.5c0 .1 0 .2-.2.2h-2.3v3.6c0 .1 0 .2-.2.2h-.6c-.1 0-.2 0-.2-.2v-7.9c0-.1 0-.2.2-.2h3.7c.1-.1.2-.1.2.1 0-.1 0-.1 0 0zm2.9 8.2c-1.5 0-2.3-1.1-2.3-3s.9-3.1 2.5-3.1c1.4 0 2.3 1.1 2.3 3-.1 2-1 3.1-2.5 3.1zm0-5.3c-.9 0-1.4.8-1.4 2.2 0 .8.1 1.5.4 1.9.2.3.6.5 1.1.5.4 0 .8-.2 1-.5.2-.4.4-1.1.4-1.8-.1-1.6-.6-2.3-1.5-2.3zm7-.5l-.3.7h-.1l-.2-.1h-.2c-.3 0-.6.2-1.2.9v4c0 .1 0 .1-.1.1h-.6c-.1 0-.1 0-.1-.1v-3.6c0-.9 0-1.1-.3-1.6v-.1s0-.1.1-.1l.5-.3h.1c.1 0 .4.5.5 1 .8-.8 1-1 1.5-1 .1-.1.4 0 .4.2 0-.1 0 0 0 0zm5 3h-3.4c.1 1.3.6 2 1.6 2 .4 0 .9-.1 1.4-.4h.1s.1 0 .1.1l.2.5v.1c0 .1-.1.2-.4.3-.5.2-1 .3-1.5.3-1.5 0-2.5-1.2-2.5-3 0-1.9.9-3.1 2.4-3.1 1 0 1.7.5 2 1.4.1.4.2.8.2 1.6-.1.1-.1.2-.2.2zm-.9-.8c0-1.1-.5-1.8-1.3-1.8s-1.3.6-1.3 1.8h2.6zm6.1-1.7l-.3.5c0 .1-.1.1-.1.1h-.1c-.6-.4-.8-.5-1.2-.5-1 0-1.4.8-1.4 2.2 0 1.5.4 2.2 1.3 2.2.5 0 .7-.1 1.4-.6h.1s.1 0 .1.1l.2.5v.1c0 .1-.1.1-.2.2-.5.4-1.1.6-1.7.6-1.4 0-2.3-1.1-2.3-2.9 0-2 .9-3.2 2.4-3.2.5 0 1 .2 1.5.5.3 0 .3.1.3.2zm4.9 4.9l-.5.3h-.1c-.1 0-.3-.4-.5-.8-.5.5-1.1.8-1.7.8-1 0-1.6-.6-1.6-1.6 0-1.4 1-2 3.2-2.1v-.4c0-.8-.3-1.1-1.1-1.1-.5 0-.8.1-1.4.3h-.1s-.1 0-.1-.1l-.2-.5v-.1c0-.1.1-.1.3-.2.5-.2 1-.3 1.6-.3 1.3 0 1.9.5 1.9 1.7v2.3c0 .8.1 1.1.3 1.6.1.1.1.1 0 .2.1-.1.1 0 0 0zm-1.1-2.6c-1.5 0-2.2.4-2.2 1.3 0 .6.4 1 .9 1 .4 0 .8-.2 1.4-.7v-1.6zm4.1 3c-.6 0-1.3-.2-1.8-.5-.1 0-.1-.1-.1-.1l.2-.5h.2c.5.3 1.1.4 1.5.4.6 0 1-.3 1-.9 0-.4-.2-.6-.8-.9-.8-.4-1.1-.5-1.3-.7-.4-.3-.6-.7-.6-1.1 0-1 .8-1.7 1.8-1.7.6 0 1.5.3 1.5.5v.1l-.2.4-.1.1h-.1c-.5-.2-.8-.3-1.1-.3-.6 0-.9.3-.9.8 0 .2.1.4.2.6.2.2.2.2 1.3.7.9.4 1.2.8 1.2 1.5.1.9-.7 1.6-1.9 1.6zm5.2-.1c-.6 0-1.1-.3-1.3-.7-.1-.2-.2-.5-.2-1.1v-3.4h-.8c-.1 0-.1 0-.1-.1v-.5c0-.1 0-.1.1-.1h.8v-1.6c0-.1 0-.1.1-.2l.6-.2h.1c.1 0 .1 0 .1.1v1.8h1.8c.1 0 .1 0 .1.1v.1l-.1.5c0 .1-.1.1-.2.1h-1.6v3.4c0 .5 0 .6.1.7.1.2.3.2.6.2s.6-.1 1.1-.3h.1s.1 0 .1.1l.1.5v.1c0 .3-.9.5-1.5.5zM30 54.9c0 .1 0 .2-.2.3-.6.4-1.5.6-2.4.6-2.3 0-3.5-1.7-3.5-4.9 0-3.3 1.2-5.1 3.6-5.1.9 0 1.7.3 2.3.7.1.1.1.2.1.3l-.4.7c-.1.2-.2.1-.3.1-.8-.4-1.2-.6-1.8-.6-1.4 0-2 1.2-2 3.7 0 1.6.1 3.9 2.1 3.9.4 0 .7-.1 1.1-.3v-2.4h-1.1c-.2 0-.2 0-.2-.2v-.8c0-.2 0-.3.2-.3h2.3c.2 0 .3 0 .3.3v4zm4.5.7h-2.2c-.2 0-.2 0-.2-.2v-9.1c0-.2 0-.2.2-.2h2c2.9 0 3.9 1.7 3.9 4.6 0 2.6-.7 4.9-3.7 4.9zm-.2-8.3h-.7v7h.8c2 0 2.2-1.7 2.2-3.5-.1-1.9-.3-3.5-2.3-3.5zm8.2 4.4h-.9v3.7c0 .2-.1.2-.3.2h-1.1c-.2 0-.2 0-.2-.2v-9.1c0-.2 0-.2.2-.2h2.2c1.2 0 1.8.1 2.3.5.5.4.8 1.2.8 2 0 2-1.2 3.1-3 3.1zm-.1-4.5h-.8v3.2h.7c1.1 0 1.7-.4 1.7-1.7 0-1.1-.4-1.5-1.6-1.5zm10.3 8.6c-.6 0-1-.1-1.5-.5v2.8c0 .1 0 .2-.2.2l-1 .3c-.2 0-.2 0-.2-.2v-7.6c0-.6-.1-.8-.2-1.2-.1-.2-.2-.3 0-.4l.9-.5c.2-.1.3.1.4.3.1.1.2.3.2.5.7-.6 1.2-.8 1.9-.8 1.5 0 2.3 1.2 2.3 3.5-.2 2.3-1.1 3.6-2.6 3.6zm-.2-6c-.4 0-.8.2-1.4.6v3.9c.5.3.8.4 1.3.4.9 0 1.3-.7 1.3-2.5-.1-1.7-.4-2.4-1.2-2.4zm9.1 2.8h-3.9c.1 1.4.6 2 1.7 2 .8 0 1.3-.3 1.7-.5.1 0 .1 0 .2.1l.3.7c.1.2 0 .3-.1.3-.6.3-1.5.6-2.2.6-1.9 0-3-1.3-3-3.6 0-2.2 1.1-3.6 2.9-3.6 1.7 0 2.6 1.2 2.6 3.5 0 .3 0 .5-.2.5zm-1.3-1.1c0-1.2-.4-1.8-1.2-1.8-.8 0-1.3.6-1.4 1.8h2.6zm6.4-1.6c-.1.1-.1.1-.2.1-.2-.1-.3-.1-.5-.1-.3 0-.7.2-1.2.9v4.6c0 .2 0 .2-.2.2h-1c-.2 0-.2 0-.2-.2v-4.2c0-.9-.1-1.3-.3-1.7-.1-.1-.2-.3 0-.4l.9-.4c.3-.1.3.2.5.4.1.3.2.6.2.7.5-.6.9-1.1 1.7-1.1.3 0 .5.1.7.2.1.1.1.1.1.3l-.5.7zm7.2 5.9c-.6 0-1-.1-1.5-.5v2.8c0 .1 0 .2-.2.2l-1 .3c-.2 0-.2 0-.2-.2v-7.6c0-.6-.1-.8-.2-1.2-.1-.2-.2-.3 0-.4l.9-.5c.2-.1.3.1.4.3.1.1.2.3.2.5.7-.6 1.2-.8 1.9-.8 1.5 0 2.3 1.2 2.3 3.5-.2 2.3-1 3.6-2.6 3.6zm-.2-6c-.4 0-.8.2-1.4.6v3.9c.5.3.8.4 1.3.4.9 0 1.3-.7 1.3-2.5 0-1.7-.4-2.4-1.2-2.4zm9.1 2.8h-3.9c.1 1.4.6 2 1.7 2 .8 0 1.3-.3 1.7-.5.1 0 .1 0 .2.1l.3.7c.1.2 0 .3-.1.3-.6.3-1.5.6-2.2.6-1.9 0-3-1.3-3-3.6 0-2.2 1.1-3.6 2.9-3.6 1.7 0 2.6 1.2 2.6 3.5 0 .3 0 .5-.2.5zm-1.3-1.1c0-1.2-.4-1.8-1.2-1.8-.8 0-1.3.6-1.4 1.8h2.6zm6.4-1.6c0 .1-.1.1-.1.1-.2-.1-.3-.1-.5-.1-.3 0-.7.2-1.2.9v4.6c0 .2 0 .2-.2.2h-1c-.2 0-.2 0-.2-.2v-4.2c0-.9-.1-1.3-.3-1.7-.1-.1-.2-.3 0-.4l.9-.4c.3-.1.3.2.5.4.1.3.2.6.2.7.5-.6.9-1.1 1.7-1.1.3 0 .5.1.7.2.1.1.1.1.1.3l-.6.7zm3.3 5.9c-.8 0-1.6-.2-2.3-.6-.2-.1-.2-.1-.1-.3l.3-.7c.1-.2.2-.1.3 0 .7.3 1.3.5 1.8.5.6 0 1-.3 1-.9 0-.4-.2-.6-1-.9-.3-.2-1-.5-1.3-.7-.6-.4-.8-.9-.8-1.5 0-1.2 1-2.1 2.3-2.1.6 0 1.3.2 1.8.5.1.1.2.2.1.3l-.3.6c-.1.2-.2.1-.3.1-.5-.2-.9-.3-1.3-.3-.6 0-1 .3-1 .8 0 .4.2.6.9.9.3.2 1.2.6 1.4.7.7.4.9.9.9 1.5-.1 1.3-1 2.1-2.4 2.1zm6.2 0c-1.8 0-2.9-1.3-2.9-3.6s1.1-3.6 2.9-3.6c1.8 0 2.9 1.3 2.9 3.6.1 2.2-1 3.6-2.9 3.6zm.1-6.1c-.9 0-1.4.8-1.4 2.4 0 1.7.4 2.5 1.4 2.5 1 0 1.4-.8 1.4-2.5 0-1.6-.5-2.4-1.4-2.4zm9.8 5.7c0 .2 0 .2-.2.2h-1c-.2 0-.2 0-.2-.2v-4.5c0-.8-.3-1.2-.9-1.2-.5 0-.9.2-1.5.7v4.9c0 .2 0 .2-.2.2h-1c-.2 0-.2 0-.2-.2v-4.8c0-.6-.1-1-.3-1.4-.1-.1-.1-.2.1-.3l.9-.4c.2-.1.2.1.3.2.1.2.2.3.3.7.7-.5 1.2-.9 2.1-.9 1.3 0 1.8.6 1.8 2.1v4.9zm9.6-.1l-.9.4c-.2.1-.3 0-.4-.2-.1-.2-.2-.4-.2-.6-.6.6-1.1.8-1.9.8-1.2 0-2-.8-2-2 0-2.1 2-2.4 3.7-2.4v-.4c0-.9-.3-1.2-1.1-1.2-.5 0-.9.1-1.6.4-.1 0-.2.1-.3-.1l-.2-.7c-.1-.3.1-.3.3-.4.7-.3 1.3-.4 2-.4 1.5 0 2.3.6 2.3 2.1v2.7c0 .8.1 1.2.3 1.6.1.3.1.4 0 .4zm-1.6-2.9c-.9 0-2.3.1-2.3 1.3 0 .6.4 1 .9 1 .4 0 .9-.2 1.3-.7v-1.6zm7.3 2.7c0 .2.1.2-.1.3-.5.2-1.1.4-1.7.4-1.5 0-1.8-.9-1.8-2.1v-3.8h-1c-.2 0-.2 0-.2-.2V49c0-.2 0-.2.2-.2h1V47c0-.1 0-.2.2-.2l.9-.2c.2 0 .3-.1.3.2v2.1h1.8c.2 0 .2.1.2.3l-.2.7c0 .1-.1.2-.2.2h-1.6v3.7c0 .8.1 1 .7 1 .4 0 .7-.1 1.1-.3.2-.1.2 0 .3.1l.1.5zm6.5-3.4h-.9v3.7c0 .2-.1.2-.3.2h-1.1c-.2 0-.2 0-.2-.2v-9.1c0-.2 0-.2.2-.2h2.2c1.2 0 1.8.1 2.3.5.5.4.8 1.2.8 2 .1 2-1.2 3.1-3 3.1zm-.1-4.5h-.8v3.2h.7c1.1 0 1.7-.4 1.7-1.7 0-1.1-.4-1.5-1.6-1.5zm7.1 4.5h-.9v3.7c0 .2-.1.2-.3.2h-1.1c-.2 0-.2 0-.2-.2v-9.1c0-.2 0-.2.2-.2h2.2c1.2 0 1.8.1 2.3.5.5.4.8 1.2.8 2 0 2-1.3 3.1-3 3.1zm-.1-4.5h-.8v3.2h.7c1.1 0 1.7-.4 1.7-1.7 0-1.1-.4-1.5-1.6-1.5zm7 4.5h-.9v3.7c0 .2-.1.2-.3.2h-1.1c-.2 0-.2 0-.2-.2v-9.1c0-.2 0-.2.2-.2h2.2c1.2 0 1.8.1 2.3.5.5.4.8 1.2.8 2 .1 2-1.2 3.1-3 3.1zm-.1-4.5h-.8v3.2h.7c1.1 0 1.7-.4 1.7-1.7 0-1.1-.4-1.5-1.6-1.5zm9.4.8c.1.2.1.3-.1.3l-1.7.3 1.2 1.2c.1.1.2.2 0 .3l-.5.4c-.2.1-.3.2-.4 0L150 49l-.8 1.5c-.1.2-.2.2-.4 0l-.5-.4c-.2-.1-.2-.2 0-.3l1.2-1.2-1.6-.3c-.2 0-.2-.2-.2-.3l.2-.7c.1-.3.2-.2.4-.1l1.5.7-.2-1.7c0-.2 0-.3.2-.3h.8c.3 0 .2.1.2.3l-.2 1.6 1.5-.7c.2-.1.3-.1.4.1l-.2.8zm2.5 9.3c-.1.2-.1.2-.3.1l-.4-.2c-.2-.1-.2-.1-.1-.3l.8-2.8c0-.2.1-.2.3-.2h1.2c.3 0 .3.1.2.3l-1.7 3.1zm9.8-5.6c-.4.3-1 .8-1.1.9-.2.2-.4.4-.5.7-.2.3-.3.6-.3 1h3.4c.2 0 .3 0 .3.3v.8c0 .2 0 .2-.3.2h-4.8c-.2 0-.2 0-.2-.2V55c0-.8.2-1.4.4-1.9.4-.9 1.2-1.5 2.1-2.2 1.1-.8 1.4-1.2 1.4-2.1 0-.8-.5-1.3-1.3-1.3-.7 0-1.1.3-1.5 1.3-.1.2-.1.2-.3.2l-.8-.3c-.1 0-.1-.1-.1-.2s.1-.5.3-.8c.5-1 1.4-1.5 2.5-1.5 1.6 0 2.6 1 2.6 2.6 0 1.2-.5 2-1.8 2.9zm8.6 3c-.5.8-1.3 1.1-2.3 1.1-2 0-3.1-1.7-3.1-4.7 0-1.7.3-3 1-3.8.5-.7 1.3-1 2.2-1 .9 0 1.6.3 2.1 1 .6.8.9 2 .9 3.7.1 1.7-.2 2.9-.8 3.7zm-1-6.5c-.3-.5-.6-.8-1.1-.8-1.1 0-1.7 1.2-1.7 3.6 0 2.4.5 3.5 1.6 3.5.6 0 1-.3 1.3-.9.3-.6.3-1.4.3-2.6 0-1.4-.1-2.2-.4-2.8zm8.7 6.5c-.5.8-1.3 1.1-2.3 1.1-2 0-3.1-1.7-3.1-4.7 0-1.7.3-3 1-3.8.5-.7 1.3-1 2.2-1 .9 0 1.6.3 2.1 1 .6.8.9 2 .9 3.7 0 1.7-.2 2.9-.8 3.7zm-1.1-6.5c-.3-.5-.6-.8-1.1-.8-1.1 0-1.7 1.2-1.7 3.6 0 2.4.5 3.5 1.6 3.5.6 0 1-.3 1.3-.9.3-.6.3-1.4.3-2.6 0-1.4-.1-2.2-.4-2.8zm5.4 7.7c-.6 0-1.3-.1-1.9-.3-.2-.1-.2-.1-.2-.3l.2-.9c0-.2.2-.1.3-.1.5.2 1.1.3 1.6.3 1.3 0 2.1-.8 2.1-2.1 0-1.1-.5-1.7-1.5-1.7-.6 0-1.1.2-1.5.7-.1.1-.2.1-.3.1l-.7-.2c-.1 0-.1-.1-.1-.3l.4-4.5c0-.2 0-.2.2-.2h3.9c.2 0 .2 0 .2.3v.8c0 .2 0 .2-.2.2h-2.9l-.3 2.5c.1-.1.2-.1.3-.2.4-.2.8-.3 1.3-.3 1.5 0 2.5 1.1 2.5 2.8 0 2.1-1.3 3.4-3.4 3.4zm11-.1v.8c0 .2 0 .2-.2.2h-.3c-.2 0-.2 0-.2-.2v-.7c-.8 0-1.6-.3-2.2-.6-.2-.1-.2-.2-.2-.3l.3-.8c.1-.2.2-.2.3-.1.6.3 1.3.5 1.7.6v-3.1c-1.2-.6-2.3-1.1-2.3-2.7 0-1.3.9-2.3 2.3-2.4v-.8c0-.2 0-.2.2-.2h.3c.2 0 .2 0 .2.2v.7c.7 0 1.3.2 1.9.5.2.1.2.2.1.4l-.3.7c-.1.2-.2.1-.4 0-.5-.3-.8-.4-1.3-.4v2.9c1.2.6 2.3 1.2 2.3 2.7.1 1.3-.9 2.3-2.2 2.6zm-.8-8.3c-.6.1-1 .5-1 1.2 0 .6.3 1 1 1.4v-2.6zm.7 4.2v2.8c.6-.2 1-.6 1-1.3 0-.6-.3-1-1-1.5zm4.7-2.7c-.1.2-.1.2-.3.1l-.5-.1c-.2-.1-.2-.1-.1-.3l.8-2.8c0-.1.1-.2.3-.2h1.3c.3 0 .3.1.2.3l-1.7 3zm7.5 5.7c-.5.8-1.3 1.1-2.3 1.1-2 0-3.1-1.7-3.1-4.7 0-1.7.3-3 1-3.8.5-.7 1.3-1 2.2-1 .9 0 1.6.3 2.1 1 .6.8.9 2 .9 3.7.1 1.7-.2 2.9-.8 3.7zm-1-6.5c-.3-.5-.6-.8-1.1-.8-1.1 0-1.7 1.2-1.7 3.6 0 2.4.5 3.5 1.6 3.5.6 0 1-.3 1.3-.9.3-.6.3-1.4.3-2.6 0-1.4-.1-2.2-.4-2.8zm8.7 6.5c-.5.8-1.3 1.1-2.3 1.1-2 0-3.1-1.7-3.1-4.7 0-1.7.3-3 1-3.8.5-.7 1.3-1 2.2-1 .9 0 1.6.3 2.1 1 .6.8.9 2 .9 3.7 0 1.7-.2 2.9-.8 3.7zm-1.1-6.5c-.3-.5-.6-.8-1.1-.8-1.1 0-1.7 1.2-1.7 3.6 0 2.4.5 3.5 1.6 3.5.6 0 1-.3 1.3-.9.3-.6.3-1.4.3-2.6 0-1.4-.1-2.2-.4-2.8zm8.7 6.5c-.5.8-1.3 1.1-2.3 1.1-2 0-3.1-1.7-3.1-4.7 0-1.7.3-3 1-3.8.5-.7 1.3-1 2.2-1 .9 0 1.6.3 2.1 1 .6.8.9 2 .9 3.7.1 1.7-.2 2.9-.8 3.7zm-1-6.5c-.3-.5-.6-.8-1.1-.8-1.1 0-1.7 1.2-1.7 3.6 0 2.4.5 3.5 1.6 3.5.6 0 1-.3 1.3-.9.3-.6.3-1.4.3-2.6 0-1.4-.1-2.2-.4-2.8zM103.1 98.3c-.8 0-1.4-.3-1.9-.9-.7-.9-1-2.1-1-3.7 0-3 1.1-4.8 3-4.8 1.8 0 2.7 1.6 2.7 4.6.1 3.1-.9 4.8-2.8 4.8zm.1-8.4c-1.1 0-1.8 1.4-1.8 3.7 0 1.2.2 2.2.5 2.9.3.5.7.8 1.2.8.6 0 1.1-.3 1.3-.9.3-.7.4-1.7.4-2.8.1-2.5-.5-3.7-1.6-3.7zm143.2 8c0 .2 0 .2-.2.2h-3.7c-.2 0-.2 0-.2-.2v-.5c0-.2 0-.2.2-.2h1.4v-6.8l-2 1.1c-.1 0-.1.1-.1.1s-.1 0-.1-.1l-.2-.3v-.1s0-.1.1-.1l2.5-1.7h.7c.2 0 .2 0 .2.2v7.9h1.2c.2 0 .2 0 .2.2v.3zm4 .4c-.8 0-1.4-.3-1.9-.9-.7-.9-1-2.1-1-3.7 0-3 1.1-4.8 3-4.8 1.8 0 2.7 1.6 2.7 4.6.1 3.1-.9 4.8-2.8 4.8zm.1-8.4c-1.1 0-1.8 1.4-1.8 3.7 0 1.2.2 2.2.5 2.9.3.5.7.8 1.2.8.6 0 1.1-.3 1.3-.9.3-.7.4-1.7.4-2.8.1-2.5-.5-3.7-1.6-3.7zm139.8 8c0 .2 0 .2-.2.2h-4.7c-.1 0-.2 0-.2-.2 0-2 .7-3.3 2.4-4.4.9-.6 1-.7 1.2-1 .2-.3.3-.7.3-1.1 0-.9-.5-1.5-1.4-1.5-.8 0-1.2.4-1.6 1.4 0 .1-.1.1-.1.1h-.1l-.6-.2c-.1 0-.1-.1-.1-.1 0-.2.3-.9.6-1.2.5-.6 1.2-1 2-1 1.5 0 2.4 1 2.4 2.5 0 1.1-.4 1.7-1.6 2.6-1.5 1-2 1.8-2.2 3h3.6c.2 0 .2 0 .2.2v.7zm4.4.4c-.8 0-1.4-.3-1.9-.9-.7-.9-1-2.1-1-3.7 0-3 1.1-4.8 3-4.8 1.8 0 2.7 1.6 2.7 4.6.1 3.1-.9 4.8-2.8 4.8zm.1-8.4c-1.1 0-1.8 1.4-1.8 3.7 0 1.2.2 2.2.5 2.9.3.5.7.8 1.2.8.6 0 1.1-.3 1.3-.9.3-.7.4-1.7.4-2.8.1-2.5-.5-3.7-1.6-3.7zm136.6 8.4c-.9 0-2.3-.4-2.3-.6v-.1l.3-.6.1-.1h.1c.7.3 1.2.4 1.8.4 1.2 0 1.8-.6 1.8-1.7s-.7-1.7-2-1.7h-.5c-.2 0-.2 0-.2-.2v-.6c0-.2 0-.2.2-.2h.5c1.1 0 1.8-.7 1.8-1.7 0-.8-.5-1.4-1.4-1.4-.5 0-.9.2-1.4.6l-.3.3h-.1l-.5-.4-.1-.1c0-.1.3-.5.7-.7.5-.4 1.1-.5 1.7-.5 1.4 0 2.4.9 2.4 2.3 0 1-.5 1.7-1.4 2 .4.1.7.2.9.4.5.4.9 1.1.9 1.9-.1 1.6-1.2 2.7-3 2.7zm7.4 0c-.8 0-1.4-.3-1.9-.9-.7-.9-1-2.1-1-3.7 0-3 1.1-4.8 3-4.8 1.8 0 2.7 1.6 2.7 4.6.1 3.1-1 4.8-2.8 4.8zm0-8.4c-1.1 0-1.8 1.4-1.8 3.7 0 1.2.2 2.2.5 2.9.3.5.7.8 1.2.8.6 0 1.1-.3 1.3-.9.3-.7.4-1.7.4-2.8.1-2.5-.4-3.7-1.6-3.7z"/><path fill="none" stroke="#000" stroke-width=".598" stroke-miterlimit="6" d="M103.1 102.1v332.6"/><path fill="none" stroke="#C6C6C6" stroke-width="1.395" stroke-miterlimit="6" d="M247.2 102.1v332.6m144-332.6v332.6m144.1-332.6v332.6"/><path d="M174.3 98.3c-.6 0-1.2-.1-1.7-.2-.1 0-.2-.1-.2-.2v-.1l.1-.6c0-.1.1-.1.1-.1h.1c.4.2.9.2 1.4.2.8 0 1.3-.2 1.7-.6.3-.4.5-1 .5-1.6 0-1.1-.5-1.8-1.5-1.8-.6 0-1.1.3-1.6.8l-.1.1h-.1l-.5-.2c-.1 0-.2-.1-.2-.1v-.1l.4-4.5c0-.2 0-.2.2-.2h3.6c.2 0 .2 0 .2.2v.6c0 .2 0 .2-.2.2h-2.9l-.3 2.8c.6-.4 1.1-.6 1.7-.6 1.4 0 2.4 1.1 2.4 2.7 0 2-1.2 3.3-3.1 3.3zm143.7-.4c0 .2 0 .2-.2.2h-3.7c-.2 0-.2 0-.2-.2v-.5c0-.2 0-.2.2-.2h1.4v-6.8l-2 1.1c-.1 0-.1.1-.1.1s-.1 0-.1-.1l-.2-.3v-.1s0-.1.1-.1l2.5-1.7h.7c.2 0 .2 0 .2.2v7.9h1.2c.2 0 .2 0 .2.2v.3zm3.7.4c-.6 0-1.2-.1-1.7-.2-.1 0-.2-.1-.2-.2v-.1l.1-.6c0-.1.1-.1.1-.1h.1c.4.2.9.2 1.4.2.8 0 1.3-.2 1.7-.6.3-.4.5-1 .5-1.6 0-1.1-.5-1.8-1.5-1.8-.6 0-1.1.3-1.6.8l-.1.1h-.1l-.5-.2c-.1 0-.2-.1-.2-.1v-.1l.4-4.5c0-.2 0-.2.2-.2h3.6c.2 0 .2 0 .2.2v.6c0 .2 0 .2-.2.2H321l-.3 2.8c.6-.4 1.1-.6 1.7-.6 1.4 0 2.4 1.1 2.4 2.7 0 2-1.2 3.3-3.1 3.3zm140.3-.4c0 .2 0 .2-.2.2h-4.7c-.1 0-.2 0-.2-.2 0-2 .7-3.3 2.4-4.4.9-.6 1-.7 1.2-1 .2-.3.3-.7.3-1.1 0-.9-.5-1.5-1.4-1.5-.8 0-1.2.4-1.6 1.4 0 .1-.1.1-.1.1h-.1l-.6-.2c-.1 0-.1-.1-.1-.1 0-.2.3-.9.6-1.2.5-.6 1.2-1 2-1 1.5 0 2.4 1 2.4 2.5 0 1.1-.4 1.7-1.6 2.6-1.5 1-2 1.8-2.2 3h3.6c.2 0 .2 0 .2.2v.7zm3.8.4c-.6 0-1.2-.1-1.7-.2-.1 0-.2-.1-.2-.2v-.1l.1-.6c0-.1.1-.1.1-.1h.1c.4.2.9.2 1.4.2.8 0 1.3-.2 1.7-.6.3-.4.5-1 .5-1.6 0-1.1-.5-1.8-1.5-1.8-.6 0-1.1.3-1.6.8l-.1.1h-.1l-.5-.2c-.1 0-.2-.1-.2-.1v-.1l.4-4.5c0-.2 0-.2.2-.2h3.6c.2 0 .2 0 .2.2v.6c0 .2 0 .2-.2.2h-2.9l-.3 2.8c.6-.4 1.1-.6 1.7-.6 1.4 0 2.4 1.1 2.4 2.7.1 2-1.1 3.3-3.1 3.3zm137.3 0c-.9 0-2.3-.4-2.3-.6v-.1l.3-.6.1-.1h.1c.7.3 1.2.4 1.8.4 1.2 0 1.8-.6 1.8-1.7s-.7-1.7-2-1.7h-.5c-.2 0-.2 0-.2-.2v-.6c0-.2 0-.2.2-.2h.5c1.1 0 1.8-.7 1.8-1.7 0-.8-.5-1.4-1.4-1.4-.5 0-.9.2-1.4.6l-.3.3h-.1l-.5-.4-.1-.1c0-.1.3-.5.7-.7.5-.4 1.1-.5 1.7-.5 1.4 0 2.4.9 2.4 2.3 0 1-.5 1.7-1.4 2 .4.1.7.2.9.4.5.4.9 1.1.9 1.9 0 1.6-1.2 2.7-3 2.7zm6.8 0c-.6 0-1.2-.1-1.7-.2-.1 0-.2-.1-.2-.2v-.1l.1-.6c0-.1.1-.1.1-.1h.1c.4.2.9.2 1.4.2.8 0 1.3-.2 1.7-.6.3-.4.5-1 .5-1.6 0-1.1-.5-1.8-1.5-1.8-.6 0-1.1.3-1.6.8l-.1.1h-.1l-.5-.2c-.1 0-.2-.1-.2-.1v-.1l.4-4.5c0-.2 0-.2.2-.2h3.6c.2 0 .2 0 .2.2v.6c0 .2 0 .2-.2.2h-2.9l-.3 2.8c.6-.4 1.1-.6 1.7-.6 1.4 0 2.4 1.1 2.4 2.7.1 2-1.2 3.3-3.1 3.3z"/><path fill="none" stroke="#C6C6C6" stroke-width="1.395" stroke-miterlimit="6" d="M174.9 102.1v332.6m144-332.6v332.6M463 102.1v332.6m144-332.6v332.6"/><path fill="#7AC6BC" d="M103.1 153.2h163.7v14H103.1zm0 42.3h135.2v14H103.1zm0 42h112.8v14H103.1zm0 85.1h96.4v14h-96.4zm0 41.9h38.3v14h-38.3z"/><path d="M27.3 172.4c-1.2 0-3-.6-3-.9v-.2l.5-1.3c0-.1.1-.1.1-.1h.1c.9.5 1.6.7 2.2.7.8 0 1.3-.4 1.3-1.2 0-.3-.1-.7-.3-.9-.2-.3-.4-.4-1.7-1-1.7-.9-2.3-1.6-2.3-2.9 0-1.8 1.2-2.9 3.2-2.9 1.1 0 2.8.6 2.8.9v.1l-.5 1.1c0 .1-.1.1-.1.1l-.6-.3c-.5-.3-1-.4-1.4-.4-.8 0-1.3.4-1.3 1.1 0 .4.2.7.6.9.2.1.2.2 1.5.8 1.5.8 2.1 1.7 2.1 3.1-.1 2.1-1.3 3.3-3.2 3.3zm7.2.1c-2 0-3.2-1.5-3.2-3.9 0-1.2.3-2.2.8-2.9.6-.8 1.3-1.1 2.4-1.1 1.9 0 3.1 1.5 3.1 3.9 0 2.5-1.2 4-3.1 4zm-.1-6.4c-.8 0-1.2.7-1.2 2.4s.3 2.4 1.2 2.4c.9 0 1.2-.7 1.2-2.4s-.3-2.4-1.2-2.4zm10.5 6l-1.2.3h-.2c-.2 0-.3-.3-.4-.8-.7.6-1.2.9-2 .9-.7 0-1.3-.2-1.6-.6-.4-.5-.5-.9-.5-2.3v-4.4c0-.2 0-.2.2-.3l1.3-.3h.1c.1 0 .2.1.2.2v4.6c0 .7 0 .9.1 1.1.1.3.4.4.8.4s.8-.2 1.2-.5v-5.2c0-.2 0-.2.2-.3l1.3-.3h.1c.1 0 .1.1.1.2v5.5c0 .7.1 1.1.3 1.5v.1c.1.2.1.2 0 .2zm5.7.1c-.5.2-1 .3-1.5.3-.8 0-1.3-.3-1.6-.8-.2-.4-.3-.7-.3-1.6v-3.9h-1c-.2 0-.2 0-.2-.3v-.9c0-.2 0-.3.2-.3h1V163c0-.2 0-.2.2-.3l1.3-.2h.1c.1 0 .1.1.1.2v2.1h1.7c.2 0 .2 0 .2.1v.1l-.2.9c0 .2-.1.2-.3.2H49v3.6c0 .8.1 1 .5 1 .3 0 .4 0 1-.3h.1c.1 0 .1.1.1.1l.2 1v.2c.1.4 0 .4-.3.5zm7.1-.2c0 .2 0 .3-.2.3h-1.3c-.2 0-.2 0-.2-.3v-4.6c0-.9-.2-1.3-.8-1.3-.4 0-.8.2-1.2.6v5.2c0 .2 0 .3-.2.3h-1.3c-.2 0-.2 0-.2-.3v-10c0-.2 0-.2.2-.3l1.3-.3h.1c.1 0 .1.1.1.3v3.8c.6-.6 1.2-.9 2-.9.7 0 1.3.3 1.6.8.2.4.3.8.3 1.5v5.2zm11.5.2h-1.6c-.2 0-.3 0-.3-.3l-.6-2.5h-2.4l-.6 2.5c-.1.2-.1.3-.3.3H62c-.2 0-.3 0-.3-.2v-.2l2.9-9.6c.1-.2.1-.3.3-.3h1.5c.2 0 .2 0 .3.3l2.9 9.6v.2c-.1.2-.2.2-.4.2zm-2.9-4.1l-.5-2.6c-.1-.6-.2-.9-.4-2-.1.9-.2 1.2-.4 2l-.6 2.6h1.9zm8.7-6l-.3 1.1c0 .1-.1.1-.1.1h-.1c-.3-.2-.6-.2-.9-.2-.3 0-.6.1-.7.3-.1.2-.1.3-.1.9v.6h1.7c.2 0 .2 0 .2.1v.1l-.2.9c0 .2-.1.2-.3.2h-1.4v5.7c0 .2 0 .3-.2.3h-1.3c-.2 0-.2 0-.2-.3v-5.7H70c-.2 0-.2 0-.2-.4v-.8c0-.2.1-.2.2-.2h1.1v-.6c0-1 .1-1.5.5-2 .4-.6 1-.8 1.8-.8.9 0 1.8.3 1.8.5-.2.1-.2.1-.2.2zm4.8 3l-.4 1.2c0 .1-.1.1-.1.1h-.1c-.2-.1-.4-.1-.6-.1-.3 0-.7.2-1.1.7v5c0 .2 0 .3-.2.3H76c-.2 0-.2 0-.2-.3v-4.5c0-.9-.1-1.3-.4-2.1v-.1c0-.1.1-.1.1-.1l1.2-.4h.2c.2 0 .4.4.6 1.2.3-.4.3-.4.5-.6.4-.4.8-.6 1.3-.6.4 0 .8.2.8.3-.3-.1-.3-.1-.3 0zm3.5 6.9c0 .2 0 .3-.2.3h-1.3c-.2 0-.2 0-.2-.3v-5.7h-1.1c-.2 0-.2 0-.2-.3v-.9c0-.2 0-.3.2-.3h2.7c.2 0 .2 0 .2.3v6.9zm-1-8.1c-.7 0-1.2-.5-1.2-1.2s.5-1.2 1.2-1.2c.6 0 1.2.6 1.2 1.2s-.5 1.2-1.2 1.2zm7.9 1.7l-.5 1c0 .1-.1.1-.1.1s-.1 0-.1-.1c-.5-.4-.8-.5-1.2-.5-1 0-1.4.8-1.4 2.5 0 1.6.4 2.4 1.5 2.4.4 0 .8-.1 1.2-.4.1 0 .1-.1.2-.1 0 0 .1 0 .1.1l.3.9v.2c0 .4-1.1.8-2.1.8-2 0-3.1-1.4-3.1-3.8 0-2.5 1.3-4.1 3.3-4.1.9 0 2.1.5 2.1.9-.2 0-.2.1-.2.1zm6.2 6.4l-1.1.5h-.2c-.1 0-.3-.3-.4-.9-.6.6-1.1.9-1.9.9-1.3 0-2.2-.9-2.2-2.3 0-1.3.7-2.1 2.2-2.4.4-.1.8-.1 1.6-.1v-.5c0-.9-.2-1.1-1-1.1-.4 0-1 .1-1.6.4h-.2c-.1 0-.1 0-.1-.1l-.3-.9v-.2c0-.3 1.3-.7 2.5-.7 1.1 0 1.9.4 2.3 1.2.1.3.2.7.2 1.2v3.1c0 .7.1 1.1.3 1.6v.2l-.1.1zm-2-3.1c-1.4 0-2 .3-2 1.2 0 .6.4 1 .9 1 .4 0 .8-.2 1.1-.6v-1.6zm-65.8 45.4c0 .2 0 .2-.2.2h-3.8c-.2 0-.2 0-.2-.2v-.6c0-.2 0-.2.2-.2h1.3v-8.3h-1.3c-.2 0-.2 0-.2-.2v-.6c0-.2 0-.2.2-.2h3.8c.2 0 .2 0 .2.2v.6c0 .2 0 .2-.2.2h-1.3v8.3h1.3c.2 0 .2 0 .2.2v.6zm6.6.1c0 .1 0 .2-.2.2h-.8c-.1 0-.2 0-.2-.2v-5c0-.9-.3-1.2-1-1.2s-1.2.3-1.9.9v5.3c0 .1 0 .2-.2.2h-.8c-.1 0-.2 0-.2-.2v-5.1c0-.7-.1-.9-.3-1.4v-.1s0-.1.1-.1l.7-.4h.1c.1 0 .3.4.5 1 .9-.7 1.5-1 2.3-1 .7 0 1.2.3 1.5.7.2.4.2.7.2 1.5v4.9zm7.6-.1l-.7.4H42c-.1 0-.4-.4-.5-.9-.9.7-1.5 1-2.2 1-1.4 0-2.3-1.5-2.3-3.9 0-2.3 1-3.7 2.6-3.7.5 0 1 .1 1.6.5v-3.5c0-.1.1-.2.1-.2l.8-.2h.1c.1 0 .1 0 .1.2v8.3c0 .9.1 1.3.4 1.8.1 0 .1 0 .1.2 0-.1 0-.1 0 0zm-1.5-5.7c-.6-.4-1-.5-1.5-.5-1.1 0-1.5.8-1.5 2.7 0 2.1.4 2.9 1.3 2.9.6 0 1-.3 1.7-.9v-4.2zm5.7 6.2c-1.8 0-2.8-1.4-2.8-3.8s1.1-3.8 3-3.8c1.8 0 2.8 1.4 2.8 3.8 0 2.3-1.1 3.8-3 3.8zm.1-6.7c-1.1 0-1.7 1-1.7 2.7 0 1 .2 1.8.5 2.3.2.4.7.7 1.3.7.5 0 1-.2 1.2-.6.3-.5.5-1.3.5-2.3-.1-1.8-.6-2.8-1.8-2.8zm9.9 6.3c0 .1 0 .2-.2.2H56c-.1 0-.2 0-.2-.2v-5c0-.9-.3-1.2-1-1.2s-1.2.3-1.9.9v5.3c0 .1 0 .2-.2.2h-.8c-.1 0-.2 0-.2-.2v-5.1c0-.7-.1-.9-.3-1.4v-.1s0-.1.1-.1l.7-.4h.1c.1 0 .3.4.5 1 .9-.7 1.5-1 2.3-1 .7 0 1.2.3 1.5.7.2.4.2.7.2 1.5v4.9zm7.2-3.2H60c.1 1.6.7 2.5 1.9 2.5.5 0 1-.2 1.7-.5h.1s.1 0 .1.1l.3.6v.1c0 .1-.1.2-.5.4-.6.3-1.2.4-1.8.4-1.8 0-3-1.5-3-3.8s1.1-3.8 2.9-3.8c1.2 0 2 .7 2.4 1.8.2.5.2 1 .2 2 .1.1.1.2-.1.2zm-1-.9c0-1.4-.6-2.2-1.6-2.2s-1.5.8-1.6 2.2h3.2zm4.3 4.5c-.7 0-1.6-.2-2.1-.6-.1 0-.1-.1-.1-.1v-.1l.3-.7.1-.1h.1c.6.3 1.3.5 1.8.5.7 0 1.2-.4 1.2-1.1 0-.5-.2-.8-.9-1.1-1-.5-1.3-.6-1.6-.9-.4-.4-.7-.8-.7-1.4 0-1.2.9-2.1 2.2-2.1.8 0 1.9.4 1.9.6v.1l-.3.6-.1.1h-.1c-.6-.3-1-.4-1.4-.4-.7 0-1.1.4-1.1 1 0 .3.1.6.3.7.2.2.2.2 1.5.9 1.1.5 1.5 1 1.5 1.9-.2 1.3-1.1 2.2-2.5 2.2zm5.4-.4c0 .1 0 .2-.2.2H72c-.1 0-.2 0-.2-.2v-6.1h-1.2c-.1 0-.2 0-.2-.2v-.6c0-.1 0-.2.2-.2h2.1c.1 0 .2 0 .2.2v6.9zm-.7-8.8c-.5 0-.9-.4-.9-.9s.4-.9.9-.9.9.4.9.9-.4.9-.9.9zm7.6 8.6l-.6.4h-.1c-.1 0-.4-.4-.6-.9-.7.7-1.3.9-2.1.9-1.2 0-1.9-.8-1.9-2 0-1.7 1.3-2.6 3.8-2.6v-.5c0-1-.4-1.3-1.3-1.3-.6 0-1 .1-1.7.4h-.1s-.1 0-.1-.1l-.2-.6v-.1c0-.1.1-.1.4-.3.6-.3 1.2-.4 1.9-.4 1.5 0 2.3.7 2.3 2.1v2.8c0 1 .1 1.4.4 2 0 .1 0 .1-.1.2.1 0 .1 0 0 0zm-1.4-3.2c-1.8 0-2.7.5-2.7 1.6 0 .7.4 1.2 1.1 1.2.5 0 1-.3 1.7-.9V211zM31 256.2c0 .3 0 .3-.3.3h-.9c-.3 0-.3 0-.4-.3l-2.5-4.8c-.5-.9-.7-1.4-.9-2.1v6.9c0 .3 0 .3-.3.3h-1.1c-.3 0-.3 0-.3-.3v-9.6c0-.3 0-.3.3-.3h1.1c.3 0 .3 0 .4.3l2.3 4.4c.3.7.7 1.5.9 2.3v-6.7c0-.3 0-.3.3-.3h1.1c.3 0 .3 0 .3.3v9.6zm4.2 0c0 .2 0 .3-.2.3h-1.3c-.2 0-.2 0-.2-.3v-5.7h-1.1c-.2 0-.2 0-.2-.3v-.9c0-.2 0-.3.2-.3H35c.2 0 .2 0 .2.3v6.9zm-.9-8.1c-.7 0-1.2-.5-1.2-1.2s.5-1.2 1.2-1.2c.6 0 1.2.6 1.2 1.2-.1.7-.6 1.2-1.2 1.2zm8.6 1.6c-.2.6-.3 1-.3 1.7v5.5c0 1.7-1 2.7-2.7 2.7-1.2 0-2.9-.5-2.9-.8v-.1l.3-1c0-.1.1-.1.2-.1h.1c.8.4 1.5.6 2.1.6.8 0 1.1-.3 1.1-1.2 0-.2 0-.6-.1-1-.5.4-1.1.6-1.7.6-1.5 0-2.4-1.4-2.4-3.6 0-2.4 1-3.9 2.7-3.9.7 0 1.1.2 1.7.7.2-.4.4-.7.5-.7h.1l1.1.4c.1 0 .1.1.1.1.2-.1.2-.1.1.1zm-2.1 1.2c-.4-.3-.7-.4-1-.4-.8 0-1.2.8-1.2 2.3 0 1.4.4 2.2 1.1 2.2.5 0 .8-.2 1.1-.5v-3.6zm8.7 2.4h-3.9c0 1.3.5 1.9 1.6 1.9.5 0 1.1-.2 1.7-.5.1 0 .1-.1.2-.1s.1 0 .2.1l.4.9v.2c0 .2-.1.3-.6.5-.6.3-1.3.4-2 .4-.9 0-1.7-.3-2.2-.7-.7-.7-1.1-1.8-1.1-3.2 0-2.4 1.3-4 3.2-4 1.9 0 2.9 1.4 2.9 4.1 0 .3-.1.4-.4.4zm-1.6-1.4c0-1.2-.3-1.7-1.1-1.7s-1.1.5-1.2 1.7h2.3zm7.6-2.6l-.4 1.2c0 .1-.1.1-.1.1h-.1c-.2-.1-.4-.1-.6-.1-.3 0-.7.2-1.1.7v5c0 .2 0 .3-.2.3h-1.3c-.2 0-.2 0-.2-.3v-4.5c0-.9-.1-1.3-.4-2.1v-.1c0-.1.1-.1.1-.1l1.2-.4h.2c.2 0 .4.4.6 1.2.3-.4.3-.4.5-.6.4-.4.8-.6 1.3-.6.4 0 .8.2.8.3-.3-.1-.3 0-.3 0zm3.5 6.9c0 .2 0 .3-.2.3h-1.3c-.2 0-.2 0-.2-.3v-5.7h-1.1c-.2 0-.2 0-.2-.3v-.9c0-.2 0-.3.2-.3h2.7c.2 0 .2 0 .2.3v6.9zm-.9-8.1c-.7 0-1.2-.5-1.2-1.2s.5-1.2 1.2-1.2c.6 0 1.2.6 1.2 1.2-.1.7-.6 1.2-1.2 1.2zm8.2 8.1l-1.1.5H65c-.1 0-.3-.3-.4-.9-.6.6-1.1.9-1.9.9-1.3 0-2.2-.9-2.2-2.3 0-1.3.7-2.1 2.2-2.4.4-.1.8-.1 1.6-.1v-.5c0-.9-.2-1.1-1-1.1-.4 0-1 .1-1.6.4h-.2c-.1 0-.1 0-.1-.1l-.3-.9v-.2c0-.3 1.3-.7 2.5-.7 1.1 0 1.9.4 2.3 1.2.1.3.2.7.2 1.2v3.1c0 .7.1 1.1.3 1.6v.2s0 .1-.1.1zm-2-3.1c-1.4 0-2 .3-2 1.2 0 .6.4 1 .9 1 .4 0 .8-.2 1.1-.6v-1.6zm-32.4 88.6h-1.6c-.2 0-.3 0-.3-.3l-.6-2.5H27l-.6 2.5c-.1.2-.1.3-.3.3h-1.4c-.2 0-.3 0-.3-.2v-.2l2.9-9.6c.1-.2.1-.3.3-.3h1.5c.2 0 .2 0 .3.3l2.9 9.6v.2c-.1.1-.2.2-.4.2zm-2.9-4.2l-.5-2.6c-.1-.6-.2-.9-.4-2-.1.9-.2 1.2-.4 2l-.6 2.6H29zm10 3.9c0 .2 0 .3-.2.3h-1.3c-.2 0-.2 0-.2-.3v-4.6c0-.9-.2-1.3-.8-1.3-.4 0-.8.2-1.3.6v5.2c0 .2 0 .3-.2.3h-1.3c-.2 0-.2 0-.2-.3v-5c0-.6-.1-1.2-.3-1.6v-.2s0-.1.1-.1l1.3-.5h.1c.2 0 .4.4.5 1 .7-.7 1.3-1 2.2-1 1.3 0 1.9.7 1.9 2.4v5.1zm7.5-6.6c-.2.6-.3 1-.3 1.7v5.5c0 1.7-1 2.7-2.7 2.7-1.2 0-2.9-.5-2.9-.8v-.1l.3-1c0-.1.1-.1.2-.1h.1c.8.4 1.5.6 2.1.6.8 0 1.1-.3 1.1-1.2 0-.2 0-.6-.1-1-.5.4-1.1.6-1.7.6-1.5 0-2.4-1.4-2.4-3.6 0-2.4 1-3.9 2.7-3.9.7 0 1.1.2 1.7.7.2-.4.4-.7.5-.7h.1l1.1.4c.1 0 .1.1.1.1.2-.1.2-.1.1.1zm-2.1 1.2c-.4-.3-.7-.4-1-.4-.8 0-1.2.8-1.2 2.3 0 1.4.4 2.2 1.1 2.2.5 0 .8-.2 1.1-.5V336zm6.3 5.9c-2 0-3.2-1.5-3.2-3.9 0-1.2.3-2.2.8-2.9.6-.8 1.3-1.1 2.4-1.1 1.9 0 3.1 1.5 3.1 3.9 0 2.5-1.2 4-3.1 4zm-.1-6.4c-.8 0-1.2.7-1.2 2.4s.3 2.4 1.2 2.4c.9 0 1.2-.7 1.2-2.4.1-1.7-.3-2.4-1.2-2.4zm6.3 6.4c-.8 0-1.4-.4-1.7-1.1-.1-.3-.1-.5-.1-1.8v-7.6c0-.2.1-.3.2-.3l1.3-.3h.2c.1 0 .1.1.1.3v8.8c.1.2.2.3.4.3s.3 0 .5-.1h.1c.1 0 .1 0 .1.1l.3 1.2v.2c.1.1-.7.3-1.4.3zm7.5-.5l-1.1.5h-.2c-.1 0-.3-.3-.4-.9-.6.6-1.1.9-1.9.9-1.3 0-2.2-.9-2.2-2.3 0-1.3.7-2.1 2.2-2.4.4-.1.8-.1 1.6-.1v-.5c0-.9-.2-1.1-1-1.1-.4 0-1 .1-1.6.4h-.2c-.1 0-.1 0-.1-.1l-.3-.9v-.2c0-.3 1.3-.7 2.5-.7 1.1 0 1.9.4 2.3 1.2.1.3.2.7.2 1.2v3.1c0 .7.1 1.1.3 1.6v.2s0 .1-.1.1zm-2-3.1c-1.4 0-2 .3-2 1.2 0 .6.4 1 .9 1 .4 0 .8-.2 1.1-.6v-1.6zm-33.7 45c-.4.2-.9.2-1.9.2h-2.1c-.2 0-.2 0-.2-.2v-9.8c0-.2 0-.2.2-.2h2.4c1 0 1.5.1 2 .4.6.4.9 1.2.9 2 0 1.1-.5 2-1.4 2.4.5.1.8.3 1 .5.5.5.8 1.2.8 2 0 1.3-.7 2.3-1.7 2.7zm-1.7-9.1h-1.3v3.5h1c.7 0 .9 0 1.2-.3.5-.3.7-.9.7-1.7.1-1-.4-1.5-1.6-1.5zm1.2 4.8c-.3-.2-.7-.2-1.2-.2h-1.4v3.7H27c.7 0 1-.1 1.3-.4.4-.3.6-.9.6-1.5.2-.7-.1-1.3-.7-1.6zm8.7 4.2l-.6.4h-.1c-.1 0-.4-.4-.6-.9-.7.7-1.3.9-2.1.9-1.2 0-1.9-.8-1.9-2 0-1.7 1.3-2.6 3.8-2.6v-.5c0-1-.4-1.3-1.3-1.3-.6 0-1 .1-1.7.4h-.1s-.1 0-.1-.1l-.2-.5v-.1c0-.1.1-.1.4-.3.6-.3 1.2-.4 1.9-.4 1.5 0 2.3.7 2.3 2.1v2.8c0 1 .1 1.4.4 2-.1 0 0 0-.1.1.1 0 0 0 0 0zm-1.4-3.3c-1.8 0-2.7.5-2.7 1.6 0 .7.4 1.2 1.1 1.2.5 0 1-.3 1.7-.9v-1.9zm8.6 3.4c0 .1 0 .2-.2.2h-.8c-.1 0-.2 0-.2-.2v-5c0-.9-.3-1.2-1-1.2s-1.2.3-1.9.9v5.3c0 .1 0 .2-.2.2H39c-.1 0-.2 0-.2-.2v-5.1c0-.7-.1-.9-.3-1.4v-.1s0-.1.1-.1l.7-.4h.1c.1 0 .3.4.5 1 .9-.7 1.5-1 2.3-1 .7 0 1.2.3 1.5.7.2.4.2.7.2 1.5v4.9zm7.5-6.5c-.3.4-.4.9-.4 1.5v2.3c0 1.1 0 1.1.1 2.6v.9c0 1.7-.9 2.6-2.6 2.6-.7 0-1.5-.2-2.2-.6-.2-.1-.3-.1-.3-.3v-.1l.3-.6c0-.1.1-.1.1-.1h.1c.6.3 1.4.6 1.9.6.6 0 1.1-.2 1.3-.5.2-.2.2-.5.2-1.1v-1.6c-.7.6-1.3.8-2 .8-1.4 0-2.2-1.3-2.2-3.3 0-2.5 1-3.9 2.7-3.9.7 0 1.1.2 1.8.6.2-.4.3-.7.4-.7h.1l.7.4v.1c.1.2.1.3 0 .4zm-1.5.7c-.6-.3-.9-.4-1.4-.4-1.1 0-1.7.9-1.7 2.6 0 1.8.4 2.6 1.3 2.6.5 0 1-.2 1.7-.7v-4.1zm4.9 6.1c-.8 0-1.3-.4-1.5-1-.1-.3-.1-.3-.1-1.8V373c0-.1.1-.2.2-.2l.7-.2h.1c.1 0 .1 0 .1.2v9.3c0 .4.3.6.6.6.2 0 .4-.1.7-.2h.1s.1 0 .1.1l.2.6v.1c0 .1-.6.3-1.2.3zm6.8-.4l-.6.4h-.1c-.1 0-.4-.4-.6-.9-.7.7-1.3.9-2.1.9-1.2 0-1.9-.8-1.9-2 0-1.7 1.3-2.6 3.8-2.6v-.5c0-1-.4-1.3-1.3-1.3-.6 0-1 .1-1.7.4h-.1s-.1 0-.1-.1l-.2-.6v-.1c0-.1.1-.1.4-.3.6-.3 1.2-.4 1.9-.4 1.5 0 2.3.7 2.3 2.1v2.8c0 1 .1 1.4.4 2-.1.1-.1.1-.1.2zm-1.5-3.3c-1.8 0-2.7.5-2.7 1.6 0 .7.4 1.2 1.1 1.2.5 0 1-.3 1.7-.9v-1.9zm8.7 3.3l-.7.4h-.1c-.1 0-.4-.4-.5-.9-.9.7-1.5 1-2.2 1-1.4 0-2.3-1.5-2.3-3.9 0-2.3 1-3.7 2.6-3.7.5 0 1 .1 1.6.5v-3.5c0-.1.1-.2.1-.2l.8-.2h.1c.1 0 .1 0 .1.2v8.3c0 .9.1 1.3.4 1.8.2.1.2.1.1.2.1 0 .1 0 0 0zm-1.5-5.6c-.6-.4-1-.5-1.5-.5-1.1 0-1.5.8-1.5 2.7 0 2.1.4 2.9 1.3 2.9.6 0 1-.3 1.7-.9v-4.2zm8.4 2.6h-4.2c.1 1.6.7 2.5 1.9 2.5.5 0 1-.2 1.7-.5h.1s.1 0 .1.1l.3.6v.1c0 .1-.1.2-.5.4-.6.3-1.2.4-1.8.4-1.8 0-3-1.5-3-3.8s1.1-3.8 2.9-3.8c1.2 0 2 .7 2.4 1.8.2.5.2 1 .2 2 0 .1 0 .2-.1.2zm-1-1c0-1.4-.6-2.2-1.6-2.2s-1.5.8-1.6 2.2h3.2zm4.3 4.5c-.7 0-1.6-.2-2.1-.6-.1 0-.1-.1-.1-.1v-.1l.3-.7.1-.1h.1c.6.3 1.3.5 1.8.5.7 0 1.2-.4 1.2-1.1 0-.5-.2-.8-.9-1.1-1-.5-1.3-.6-1.6-.9-.4-.4-.7-.8-.7-1.4 0-1.2.9-2.1 2.2-2.1.8 0 1.9.4 1.9.6v.1l-.3.6-.1.1h-.1c-.6-.3-1-.4-1.4-.4-.7 0-1.1.4-1.1 1 0 .3.1.6.3.7.2.2.2.2 1.5.9 1.1.5 1.5 1 1.5 1.9-.2 1.4-1.1 2.2-2.5 2.2zm9.1-.4c0 .1 0 .2-.2.2h-.8c-.1 0-.2 0-.2-.2v-5c0-.9-.2-1.3-1-1.3-.6 0-1.1.3-1.9.9v5.3c0 .1 0 .2-.2.2h-.8c-.1 0-.2 0-.2-.2v-10.3c0-.1.1-.2.1-.2l.8-.2h.1c.1 0 .1 0 .1.2v4.3c.8-.7 1.4-1 2.2-1 .6 0 1.1.2 1.4.6.3.4.4.7.4 1.7v5z"/><path fill="#009A9B" d="M103.1 167.2h403.4v14H103.1zm0 42.3H584v14H103.1z"/><path fill="#7AC6BC" d="M103.1 110.1h196.7v14H103.1z"/><path d="M30 119.1l-.2.7c0 .1-.1.2-.2.2h-2.1v9c0 .2 0 .2-.2.2h-.8c-.2 0-.2 0-.2-.2v-9h-2.1c-.2 0-.2 0-.2-.2v-.6c0-.2 0-.2.2-.2h5.7c.1-.1.1-.1.1.1 0-.1 0 0 0 0zm6 9.9c0 .1 0 .2-.2.2H35c-.1 0-.2 0-.2-.2v-5c0-.9-.2-1.3-1-1.3-.6 0-1.1.3-1.9.9v5.3c0 .1 0 .2-.2.2h-.8c-.1 0-.2 0-.2-.2v-10.3c0-.1.1-.2.1-.2l.8-.2h.1c.1 0 .1 0 .1.2v4.3c.8-.7 1.4-1 2.2-1 .6 0 1.1.2 1.4.6.3.4.4.7.4 1.7v5zm7-.1l-.6.4h-.1c-.1 0-.4-.4-.6-.9-.7.7-1.3.9-2.1.9-1.2 0-1.9-.8-1.9-2 0-1.7 1.3-2.6 3.8-2.6v-.5c0-1-.4-1.3-1.3-1.3-.6 0-1 .1-1.7.4h-.1s-.1 0-.1-.1l-.2-.6v-.1c0-.1.1-.1.4-.3.6-.3 1.2-.4 1.9-.4 1.5 0 2.3.7 2.3 2.1v2.8c0 1 .1 1.4.4 2-.1 0 0 0-.1.2.1-.1 0-.1 0 0zm-1.5-3.3c-1.8 0-2.7.5-2.7 1.6 0 .7.4 1.2 1.1 1.2.5 0 1-.3 1.7-.9v-1.9zm4.9 3.4c0 .1 0 .2-.2.2h-.8c-.1 0-.2 0-.2-.2v-6.1H44c-.1 0-.2 0-.2-.2v-.6c0-.1 0-.2.2-.2h2.1c.1 0 .2 0 .2.2v6.9zm-.7-8.8c-.5 0-.9-.4-.9-.9s.4-.9.9-.9.9.4.9.9-.4.9-.9.9zm4.5 9.1c-.8 0-1.3-.4-1.5-1-.1-.3-.1-.3-.1-1.8v-7.7c0-.1.1-.2.2-.2l.7-.2h.1c.1 0 .1 0 .1.2v9.3c0 .4.3.6.6.6.2 0 .4-.1.7-.2h.1s.1 0 .1.1l.2.6v.1c.1 0-.6.2-1.2.2zm6.8-.4l-.6.4h-.1c-.1 0-.4-.4-.6-.9-.7.7-1.3.9-2.1.9-1.2 0-1.9-.8-1.9-2 0-1.7 1.3-2.6 3.8-2.6v-.5c0-1-.4-1.3-1.3-1.3-.6 0-1 .1-1.7.4h-.1s-.1 0-.1-.1l-.2-.6v-.1c0-.1.1-.1.4-.3.6-.3 1.2-.4 1.9-.4 1.5 0 2.3.7 2.3 2.1v2.8c0 1 .1 1.4.4 2-.1 0 0 0-.1.2.1-.1 0-.1 0 0zm-1.4-3.3c-1.8 0-2.7.5-2.7 1.6 0 .7.4 1.2 1.1 1.2.5 0 1-.3 1.7-.9v-1.9zm8.6 3.4c0 .1 0 .2-.2.2h-.8c-.1 0-.2 0-.2-.2v-5c0-.9-.3-1.2-1-1.2s-1.2.3-1.9.9v5.3c0 .1 0 .2-.2.2h-.8c-.1 0-.2 0-.2-.2v-5.1c0-.7-.1-.9-.3-1.4v-.1s0-.1.1-.1l.7-.4h.1c.1 0 .3.4.5 1 .9-.7 1.5-1 2.3-1 .7 0 1.2.3 1.5.7.2.4.2.7.2 1.5v4.9zm7.5-.1l-.7.4h-.1c-.1 0-.4-.4-.5-.9-.9.7-1.5 1-2.2 1-1.4 0-2.3-1.5-2.3-3.9 0-2.3 1-3.7 2.6-3.7.5 0 1 .1 1.6.5v-3.5c0-.1.1-.2.1-.2l.8-.2h.1c.1 0 .1 0 .1.2v8.3c0 .9.1 1.3.4 1.8.2 0 .2 0 .1.2.1-.1.1 0 0 0zm-1.5-5.7c-.6-.4-1-.5-1.5-.5-1.1 0-1.5.8-1.5 2.7 0 2.1.4 2.9 1.3 2.9.6 0 1-.3 1.7-.9v-4.2z"/><path fill="#009A9B" d="M103.1 124.1h500.2v14H103.1zm0 127.4h264.3v14H103.1zm0 85.1h185.5v14H103.1z"/><path fill="#7AC6BC" d="M103.1 279.2h67.5v14h-67.5z"/><path d="M31 288.3l-2.6 9.8c0 .1-.1.2-.2.2h-1c-.2 0-.2 0-.2-.2l-2.5-9.8v-.1c0-.1 0-.1.2-.1l.8-.2h.1c.1 0 .1.1.1.2l1.8 7.9c.1.3.1.5.2.8l.1.3c.1-.4.2-.9.2-1.2l1.9-7.9c0-.1.1-.2.1-.2h.1l.8.2c.1 0 .2.1.2.1l-.1.2zm2.9 9.8c0 .1 0 .2-.2.2H33c-.1 0-.2 0-.2-.2V292h-1.2c-.1 0-.2 0-.2-.2v-.6c0-.1 0-.2.2-.2h2.1c.1 0 .2 0 .2.2v6.9zm-.6-8.8c-.5 0-.9-.4-.9-.9s.4-.9.9-.9.9.4.9.9c-.1.5-.5.9-.9.9zm7.9 5.6H37c.1 1.6.7 2.5 1.9 2.5.5 0 1-.2 1.7-.5h.1s.1 0 .1.1l.3.6v.1c0 .1-.1.2-.5.4-.6.3-1.2.4-1.8.4-1.8 0-3-1.5-3-3.8s1.1-3.8 2.9-3.8c1.2 0 2 .7 2.4 1.8.2.5.2 1 .2 2 0 .2 0 .2-.1.2zm-1.1-.9c0-1.4-.6-2.2-1.6-2.2s-1.5.8-1.6 2.2h3.2zm4.9 4.4c-.7 0-1.3-.3-1.6-.8-.1-.3-.2-.6-.2-1.3V292h-1c-.2 0-.2 0-.2-.2v-.6c0-.1 0-.2.2-.2h1v-2c0-.1.1-.2.1-.2l.8-.2h.1c.1 0 .1 0 .1.2v2.3h2.2c.1 0 .1 0 .1.1v.1l-.2.6c0 .1-.1.1-.2.1h-1.9v4.2c0 .6 0 .7.1.9.1.2.4.3.7.3.4 0 .7-.1 1.3-.4h.1s.1 0 .1.1l.2.6v.1c.1.2-1.1.6-1.8.6zm8-.3c0 .1 0 .2-.2.2H52c-.1 0-.2 0-.2-.2v-5c0-.9-.3-1.2-1-1.2s-1.2.3-1.9.9v5.3c0 .1 0 .2-.2.2h-.8c-.1 0-.2 0-.2-.2V293c0-.7-.1-.9-.3-1.4v-.1s0-.1.1-.1l.7-.4h.1c.1 0 .3.4.5 1 .9-.7 1.5-1 2.3-1 .7 0 1.2.3 1.5.7.2.4.2.7.2 1.5v4.9zm6.9-.1l-.6.4h-.1c-.1 0-.4-.4-.6-.9-.7.7-1.3.9-2.1.9-1.2 0-1.9-.8-1.9-2 0-1.7 1.3-2.6 3.8-2.6v-.5c0-1-.4-1.3-1.3-1.3-.6 0-1 .1-1.7.4h-.1s-.1 0-.1-.1l-.2-.6v-.1c0-.1.1-.1.4-.3.6-.3 1.2-.4 1.9-.4 1.5 0 2.3.7 2.3 2.1v2.8c0 1 .1 1.4.4 2-.1 0 0 0-.1.2.1-.1 0-.1 0 0zm-1.4-3.3c-1.8 0-2.7.5-2.7 1.6 0 .7.4 1.2 1.1 1.2.5 0 1-.3 1.7-.9v-1.9zm11.5 3.4c0 .1 0 .2-.2.2h-.7c-.1 0-.2 0-.2-.2V293c0-.7-.3-1.1-.9-1.1-.5 0-.8.1-1.5.6v5.6c0 .1 0 .2-.2.2h-.8c-.1 0-.2 0-.2-.2V293c0-.7-.3-1.1-.9-1.1-.5 0-.9.2-1.4.6v5.6c0 .1 0 .2-.2.2h-.7c-.1 0-.2 0-.2-.2v-5.4c0-.6 0-.7-.3-1.3v-.1s0-.1.1-.1l.6-.3h.1c.1 0 .3.4.4.9.8-.6 1.3-.9 2-.9s1.1.3 1.4.9c.9-.6 1.4-.9 2.1-.9.6 0 1.1.3 1.3.7.2.3.3.7.3 1.5v5z"/><path fill="#009A9B" d="M103.1 293.2h269.5v14H103.1zm0 85.3h154.3v14H103.1z"/><path fill="#0F6967" d="M506.2 167.2h67.4v14h-67.4zm-138.8 84.3h159v14h-159zm-78.6 85.1h85.9v14h-85.9z"/><path fill="#7AC6BC" d="M103.1 406.8h41.8v14h-41.8z"/><path d="M31.3 424.8l-1.2.7-.2.1c-.1 0-.1 0-.2-.1l-3.4-4.6v4.2c0 .3 0 .3-.3.3h-1.4c-.3 0-.3 0-.3-.3v-9.6c0-.3 0-.3.3-.3H26c.3 0 .3 0 .3.3v4.2l3.1-4.5c.1-.1.1-.2.2-.2 0 0 .1 0 .2.1l1.1.6c.2.1.2.1.2.2 0 0 0 .1-.1.2l-3 4.1 3.4 4.4c.1.1.1.2.1.2 0-.1 0-.1-.2 0zm6.3-2.7h-3.9c0 1.3.5 1.9 1.6 1.9.5 0 1.1-.2 1.7-.5.1 0 .1-.1.2-.1s.1 0 .2.1l.4.9v.2c0 .2-.1.3-.6.5-.6.3-1.3.4-2 .4-.9 0-1.7-.3-2.2-.7-.7-.7-1.1-1.8-1.1-3.2 0-2.4 1.3-4 3.2-4 1.9 0 2.9 1.4 2.9 4.1-.1.3-.2.4-.4.4zm-1.7-1.4c0-1.2-.3-1.7-1.1-1.7s-1.1.5-1.2 1.7h2.3zm9.2 4.3c0 .2 0 .3-.2.3h-1.3c-.2 0-.2 0-.2-.3v-4.6c0-.9-.2-1.3-.8-1.3-.4 0-.8.2-1.3.6v5.2c0 .2 0 .3-.2.3h-1.3c-.2 0-.2 0-.2-.3v-5c0-.6-.1-1.2-.3-1.6v-.2s0-.1.1-.1l1.3-.5h.1c.2 0 .4.4.5 1 .7-.7 1.3-1 2.2-1 1.3 0 1.9.7 1.9 2.4v5.1zm7.2-6.8l-1.4 5.5c-.1.3-.2.6-.2 1-.5 2.1-.7 2.6-1.1 3.1-.4.5-1 .8-1.8.8s-2-.4-2-.7l.1-.2.4-1c0-.1.1-.1.1-.1h.1c.4.2.8.3 1.1.3.6 0 .9-.3 1.1-1.1l.2-.6h-.6c-.2 0-.2 0-.3-.2l-2.3-6.8v-.2c0-.1.1-.1.2-.1l1.5-.2h.1c.1 0 .1 0 .2.2l1 3.7c.3 1 .4 1.7.6 2.6.1-.7.1-.8.2-1.3 0-.3.1-.5.1-.7l.1-.6.8-3.7c0-.2.1-.2.2-.2h.1l1.3.1c.2 0 .2.1.2.1v.3zm6.1 6.8l-1.1.5h-.2c-.1 0-.3-.3-.4-.9-.6.6-1.1.9-1.9.9-1.3 0-2.2-.9-2.2-2.3 0-1.3.7-2.1 2.2-2.4.4-.1.8-.1 1.6-.1v-.5c0-.9-.2-1.1-1-1.1-.4 0-1 .1-1.6.4h-.2c-.1 0-.1 0-.1-.1l-.3-.9v-.2c0-.3 1.3-.7 2.5-.7 1.1 0 1.9.4 2.3 1.2.1.3.2.7.2 1.2v3.1c0 .7.1 1.1.3 1.6v.2s0 .1-.1.1zm-2-3.1c-1.4 0-2 .3-2 1.2 0 .6.4 1 .9 1 .4 0 .8-.2 1.1-.6v-1.6z"/><path fill="#009A9B" d="M103.1 420.8h114v14h-114z"/><path fill="#0F6967" d="M217.3 420.8h45v14h-45z"/><path fill="#7AC6BC" d="M56.1 68.5H76v10H56.1z"/><path fill="#009A9B" d="M138.4 68.5h19.9v10h-19.9z"/><path d="M29.5 78.2c0 .2 0 .2-.2.2h-4.7c-.1 0-.2 0-.2-.2 0-2 .7-3.3 2.4-4.4.9-.6 1-.7 1.2-1 .2-.3.3-.7.3-1.1 0-.9-.5-1.5-1.4-1.5-.8 0-1.2.4-1.6 1.4 0 .1-.1.1-.1.1h-.1l-.6-.2c-.1 0-.1-.1-.1-.1 0-.2.3-.9.6-1.2.5-.6 1.2-1 2-1 1.5 0 2.4 1 2.4 2.5 0 1.1-.4 1.7-1.6 2.6-1.5 1-2 1.8-2.2 3h3.6c.2 0 .2 0 .2.2v.7zm4.5.4c-.8 0-1.4-.3-1.9-.9-.7-.9-1-2.1-1-3.7 0-3 1.1-4.8 3-4.8 1.8 0 2.7 1.6 2.7 4.6.1 3.1-.9 4.8-2.8 4.8zm0-8.4c-1.1 0-1.8 1.4-1.8 3.7 0 1.2.2 2.2.5 2.9.3.5.7.8 1.2.8.6 0 1.1-.3 1.3-.9.3-.7.4-1.7.4-2.8.1-2.5-.4-3.7-1.6-3.7zm9.2 8c0 .2 0 .2-.2.2h-3.7c-.2 0-.2 0-.2-.2v-.5c0-.2 0-.2.2-.2h1.4v-6.8l-2 1.1c-.1 0-.1.1-.1.1s-.1 0-.1-.1l-.2-.3v-.1s0-.1.1-.1l2.5-1.7h.7c.2 0 .2 0 .2.2v7.9H43c.2 0 .2 0 .2.2v.3zm7.1-2c0 .2 0 .2-.2.2H49v2c0 .2 0 .2-.2.2h-.7c-.2 0-.2 0-.2-.2v-2h-3.6c-.2 0-.2 0-.2-.2v-.8l3.6-6c.1-.1.1-.1.2-.1h.1l.7.1c.1 0 .2.1.2.1s0 .1-.1.1l-3.6 5.8h2.7l.2-2.2c0-.2 0-.2.2-.2h.5c.2 0 .2 0 .2.2v2.2h1.1c.2 0 .2 0 .2.2v.6zm55.5 2c0 .2 0 .2-.2.2h-4.7c-.1 0-.2 0-.2-.2 0-2 .7-3.3 2.4-4.4.9-.6 1-.7 1.2-1 .2-.3.3-.7.3-1.1 0-.9-.5-1.5-1.4-1.5-.8 0-1.2.4-1.6 1.4 0 .1-.1.1-.1.1h-.1l-.6-.2c-.1 0-.1-.1-.1-.1 0-.2.3-.9.6-1.2.5-.6 1.2-1 2-1 1.5 0 2.4 1 2.4 2.5 0 1.1-.4 1.7-1.6 2.6-1.5 1-2 1.8-2.2 3h3.6c.2 0 .2 0 .2.2v.7zm4.4.4c-.8 0-1.4-.3-1.9-.9-.7-.9-1-2.1-1-3.7 0-3 1.1-4.8 3-4.8 1.8 0 2.7 1.6 2.7 4.6.1 3.1-.9 4.8-2.8 4.8zm.1-8.4c-1.1 0-1.8 1.4-1.8 3.7 0 1.2.2 2.2.5 2.9.3.5.7.8 1.2.8.6 0 1.1-.3 1.3-.9.3-.7.4-1.7.4-2.8.1-2.5-.5-3.7-1.6-3.7zm6.3 8.4c-.6 0-1.2-.1-1.7-.2-.1 0-.2-.1-.2-.2v-.1l.1-.6c0-.1.1-.1.1-.1h.1c.4.2.9.2 1.4.2.8 0 1.3-.2 1.7-.6.3-.4.5-1 .5-1.6 0-1.1-.5-1.8-1.5-1.8-.6 0-1.1.3-1.6.8l-.1.1h-.1l-.5-.2c-.1 0-.2-.1-.2-.1v-.1l.4-4.5c0-.2 0-.2.2-.2h3.6c.2 0 .2 0 .2.2v.6c0 .2 0 .2-.2.2H116l-.3 2.8c.6-.4 1.1-.6 1.7-.6 1.4 0 2.4 1.1 2.4 2.7 0 2-1.3 3.3-3.2 3.3zm7.6 0c-.8 0-1.4-.3-1.9-.9-.7-.9-1-2.1-1-3.7 0-3 1.1-4.8 3-4.8 1.8 0 2.7 1.6 2.7 4.6.1 3.1-.9 4.8-2.8 4.8zm.1-8.4c-1.1 0-1.8 1.4-1.8 3.7 0 1.2.2 2.2.5 2.9.3.5.7.8 1.2.8.6 0 1.1-.3 1.3-.9.3-.7.4-1.7.4-2.8.1-2.5-.5-3.7-1.6-3.7zm8-.2c0 .1 0 .2-.2.2h-1.3v6.4c0 .1 0 .2-.2.2h-.5c-.1 0-.2 0-.2-.2v-6.4h-1.3c-.1 0-.2 0-.2-.2v-.5c0-.1 0-.2.2-.2h1.3V67c0-.1 0-.2.2-.2h.5c.1 0 .2 0 .2.2v2.3h1.3c.1 0 .2 0 .2.2v.5z"/><path fill="none" stroke="#7AC6BC" stroke-width="1.395" stroke-miterlimit="10" d="M506.2 181.2v-14m-138.8 98.3v-14m-78.6 99.2v-14.1m-71.6 98.2v-14"/><path fill="none" stroke="#000" stroke-width=".598" stroke-miterlimit="6" d="M103.1 102.1v332.6"/><path d="M182.7 68.9L179 78c0 .1-.1.1-.2.1h-.8c-.1 0-.2 0-.2-.1v-.1l.4-7.4-2.9 7.4c0 .1-.1.1-.2.1h-.8c-.2 0-.2 0-.2-.2l.2-9.1c0-.1 0-.2.2-.2l.7-.1h.1c.1 0 .1.1.1.1v.1l-.3 7c0 .4-.1.8-.1 1.5.3-.9.3-1.1.5-1.5l2.8-6.9c0-.1.1-.1.2-.1h.6c.1 0 .1 0 .2.1v.1l-.3 7c0 .4-.1.9-.1 1.4.2-.7.3-1 .4-1.4l2.7-7.1c0-.1.1-.1.1-.1h.1l.6.1c.1 0 .1.1.1.1-.1 0-.1 0-.2.1zm2.1 2.8l-1.3 6.4c0 .1-.1.1-.2.1h-.7c-.1 0-.1 0-.1-.1V78l1.2-5.7h-1.1c-.1 0-.1 0-.1-.1v-.1l.1-.5c0-.1.1-.1.2-.1h1.9s.1 0 .1.2c0-.1 0-.1 0 0zm0-1.9c-.4 0-.8-.3-.8-.8 0-.4.3-.8.8-.8.4 0 .7.4.7.8 0 .5-.3.8-.7.8zm5.1 1.9l-.2.5c0 .1-.1.1-.2.1h-1.7l-.8 3.9c0 .2-.1.5-.1.7 0 .4.2.6.6.6.3 0 .7-.1 1.2-.4h.1s.1 0 .1.1l.1.5v.1c0 .3-1.1.7-1.8.7-.9 0-1.3-.5-1.3-1.4 0-.2 0-.5.1-.9l.8-3.9h-1c-.1 0-.1 0-.1-.1v-.1l.1-.5c0-.1 0-.1.2-.1h1l.4-1.9c0-.1 0-.1.1-.1l.7-.2h.1c.1 0 .1 0 .1.1v.1l-.4 2.1h1.8c.1 0 .1 0 .1.1.1-.1.1-.1 0 0zm5.5 1.7l-1 4.7c0 .1-.1.1-.2.1h-.7c-.1 0-.1 0-.1-.1V78l.9-4.6c.1-.2.1-.4.1-.6 0-.4-.2-.6-.6-.6-1.1 0-2.1 1.2-2.5 2.8l-.6 3.1c0 .1-.1.1-.2.1h-.5c-.1 0-.1 0-.1-.1V78l2-9.6c0-.1.1-.1.1-.2l.7-.2h.1s.1 0 .1.1v.1l-.8 3.6c-.1.2-.2.7-.3.9.8-1 1.5-1.5 2.5-1.5.8 0 1.2.4 1.2 1.2.1.3 0 .5-.1 1zm6.5-1.7l-1.3 6.4c0 .1-.1.1-.2.1h-.7c-.1 0-.1 0-.1-.1V78l1.2-5.7h-1.1c-.1 0-.1 0-.1-.1v-.1l.1-.5c0-.1.1-.1.2-.1h1.9c.1 0 .1 0 .1.2 0-.1 0-.1 0 0zm0-1.9c-.4 0-.8-.3-.8-.8 0-.4.3-.8.8-.8.4 0 .7.4.7.8 0 .5-.3.8-.7.8zm6.4 3.6l-1 4.7c0 .1-.1.1-.2.1h-.7c-.1 0-.1 0-.1-.1V78l.9-4.6c.1-.3.1-.4.1-.6 0-.4-.2-.6-.6-.6-1.1 0-2.1 1.2-2.5 2.8l-.6 3.1c0 .1-.1.1-.2.1h-.7c-.1 0-.1 0-.1-.1V78l1-4.7c.1-.5.1-.5.1-.7 0-.3 0-.5-.1-.7v-.1s0-.1.1-.1l.6-.3h.1c.1 0 .3.4.3.9v.5c.7-1 1.5-1.5 2.5-1.5.8 0 1.2.4 1.2 1.1 0 .3 0 .5-.1 1zm6.2-1.7l-3.6 6.4c0 .1-.1.1-.2.1h-.5c-.1 0-.1 0-.2-.2l-.8-6.4v-.1c0-.1 0-.1.1-.1l.8-.2h.1c.1 0 .1 0 .1.1l.4 4.4c0 .5.1.7.1.9l.1-.1.1-.3c.1-.1.1-.3.2-.4l.2-.3 2.2-4.3.1-.1h.1l.7.2c0 .3.1.3 0 .4.1 0 0 0 0 0zm3.7 3.4c-.7.3-1.4.4-2.8.4v.3c0 1.1.4 1.6 1.3 1.6.6 0 1.1-.2 1.8-.6.1-.1.1-.1.2-.1 0 0 .1 0 .1.1l.3.5v.1c0 .1 0 .1-.1.2-.8.6-1.5.8-2.4.8-1.4 0-2.2-.9-2.2-2.5 0-1.4.5-2.7 1.3-3.6.6-.6 1.3-.9 2.1-.9 1.1 0 1.8.7 1.8 1.8-.1.8-.6 1.6-1.4 1.9zm-.6-2.9c-1.1 0-1.8.9-2.1 2.5 2.1 0 3.1-.5 3.1-1.5 0-.7-.4-1-1-1zm7-.2l-.2.5c0 .1-.1.1-.1.1-.1 0-.1 0-.2-.1-.4-.2-.7-.3-1-.3-.7 0-1.2.4-1.2 1 0 .3.1.4.3.6.2.2.2.2.9.6.7.5 1 .9 1 1.6s-.3 1.4-.8 1.8c-.4.3-.9.5-1.5.5-.7 0-1.6-.3-1.9-.6v-.2l.3-.6c0-.1.1-.1.1-.1.1 0 .1 0 .2.1.4.3 1 .4 1.5.4.7 0 1.2-.5 1.2-1.1 0-.3-.1-.6-.3-.8-.1-.1-.1-.1-.9-.7-.6-.4-.9-.9-.9-1.5 0-1.2.9-2 2.2-2 .7 0 1.6.3 1.6.5-.3.2-.3.2-.3.3zm5-.3l-.2.5c0 .1-.1.1-.2.1h-1.7l-.8 3.9c0 .2-.1.5-.1.7 0 .4.2.6.6.6.3 0 .7-.1 1.2-.4h.1s.1 0 .1.1l.1.5v.1c0 .3-1.1.7-1.8.7-.9 0-1.3-.5-1.3-1.4 0-.2 0-.5.1-.9l.8-3.9h-1c-.1 0-.1 0-.1-.1v-.1l.1-.5c0-.1 0-.1.2-.1h1l.4-1.9c0-.1 0-.1.1-.1l.7-.2h.1c.1 0 .1 0 .1.1v.1l-.4 2.1h1.8c.1 0 .1 0 .1.1 0-.1 0-.1 0 0zm8.4 1.7l-1 4.7c0 .1-.1.1-.2.1h-.7c-.1 0-.1 0-.1-.1V78l1-4.7c0-.2.1-.4.1-.5 0-.4-.2-.6-.6-.6-.6 0-1.2.4-1.5.9-.3.4-.4.9-.6 1.8l-.6 3.1c0 .1-.1.1-.2.1h-.7c-.1 0-.1 0-.1-.1v-.1l1-4.7c.1-.3.1-.4.1-.5 0-.4-.2-.6-.6-.6-.5 0-1.1.3-1.4.8-.3.4-.5.9-.7 1.9l-.7 3.2c0 .1-.1.1-.2.1h-.7c-.1 0-.1 0-.1-.1v-.1l1-4.7c.1-.3.1-.5.1-.7 0-.3 0-.4-.1-.8v-.1c0-.1 0-.1.1-.2l.5-.2h.1c.1 0 .3.4.3.9v.3c.5-.9 1.3-1.3 2.2-1.3.7 0 1.1.4 1.1 1.3.3-.5.5-.7.8-.9.4-.3 1-.5 1.5-.5.7 0 1.2.4 1.2 1.1-.2.6-.2.9-.3 1.3zm5 1.7c-.7.3-1.4.4-2.8.4v.3c0 1.1.4 1.6 1.3 1.6.6 0 1.1-.2 1.8-.6.1-.1.1-.1.2-.1 0 0 .1 0 .1.1l.3.5v.1c0 .1 0 .1-.1.2-.8.6-1.5.8-2.4.8-1.4 0-2.2-.9-2.2-2.5 0-1.4.5-2.7 1.3-3.6.6-.6 1.3-.9 2.1-.9 1.1 0 1.8.7 1.8 1.8 0 .8-.5 1.6-1.4 1.9zm-.5-2.9c-1.1 0-1.8.9-2.1 2.5 2.1 0 3.1-.5 3.1-1.5-.1-.7-.4-1-1-1zm8.1 1.2l-1 4.7c0 .1-.1.1-.2.1h-.7c-.1 0-.1 0-.1-.1V78l.9-4.6c.1-.3.1-.4.1-.6 0-.4-.2-.6-.6-.6-1.1 0-2.1 1.2-2.5 2.8l-.6 3.1c0 .1-.1.1-.2.1h-.7c-.1 0-.1 0-.1-.1V78l1-4.7c.1-.5.1-.5.1-.7 0-.3 0-.5-.1-.7v-.1s0-.1.1-.1l.6-.3h.1c.1 0 .3.4.3.9v.5c.7-1 1.5-1.5 2.5-1.5.8 0 1.2.4 1.2 1.1.1.3 0 .5-.1 1zm5.5-1.7l-.2.5c0 .1-.1.1-.2.1H254l-.8 3.9c0 .2-.1.5-.1.7 0 .4.2.6.6.6.3 0 .7-.1 1.2-.4h.1s.1 0 .1.1l.1.5v.1c0 .3-1.1.7-1.8.7-.9 0-1.3-.5-1.3-1.4 0-.2 0-.5.1-.9l.8-3.9h-1c-.1 0-.1 0-.1-.1v-.1l.1-.5c0-.1 0-.1.2-.1h1l.4-1.9c0-.1 0-.1.1-.1l.7-.2h.1c.1 0 .1 0 .1.1v.1l-.4 2.1h1.8c.1 0 .1 0 .1.1 0-.1 0-.1 0 0zm8.2 0l-.9 4.6c0 .2-.1.5-.1.8 0 .3 0 .5.1.7v.2s0 .1-.1.1l-.6.3h-.1c-.1 0-.3-.4-.3-.9V77c-.6 1-1.4 1.5-2.2 1.5-.9 0-1.4-.8-1.4-2s.4-2.7 1-3.7 1.2-1.4 2.1-1.4c.6 0 1 .2 1.5.8l.2-.4c0-.1.1-.1.2-.1h.6c0-.2 0-.2 0 0zm-1.2 1.1c-.5-.4-.8-.6-1.3-.6-.6 0-1.1.4-1.5 1.4-.3.8-.6 1.9-.6 2.7 0 .8.2 1.2.7 1.2.5 0 1-.4 1.5-.9.3-.4.6-1.1.7-1.8l.5-2zm7.6.6l-1 4.7c0 .1-.1.1-.2.1h-.7c-.1 0-.1 0-.1-.1V78l.9-4.6c.1-.3.1-.4.1-.6 0-.4-.2-.6-.6-.6-1.1 0-2.1 1.2-2.5 2.8l-.6 3.1c0 .1-.1.1-.2.1h-.7c-.1 0-.1 0-.1-.1V78l1-4.7c.1-.5.1-.5.1-.7 0-.3 0-.5-.1-.7v-.1s0-.1.1-.1l.6-.3h.1c.1 0 .3.4.3.9v.5c.7-1 1.5-1.5 2.5-1.5.8 0 1.2.4 1.2 1.1 0 .3 0 .5-.1 1zm7.5-5.1l-1.6 7.8c0 .2-.1.5-.1.8 0 .3 0 .6.1.9v.1c0 .1 0 .1-.1.1l-.6.4h-.1c-.1 0-.3-.5-.3-1.1V77c-.6.9-1.3 1.4-2.1 1.4-1 0-1.5-.7-1.5-2 0-1.4.4-3 1.1-3.9.5-.8 1.2-1.1 2.1-1.1.6 0 .9.1 1.4.5l.7-3.3c0-.1 0-.1.1-.2l.7-.2h.1c.1-.1.1-.1.1.1 0-.1 0-.1 0 0zm-1.9 4.4c-.5-.4-.8-.4-1.2-.4-.8 0-1.2.3-1.6 1.2-.3.8-.6 2-.6 2.9 0 .7.2 1.1.7 1.1.5 0 1.1-.3 1.5-.8.4-.4.5-.8.7-1.7l.5-2.3zm9.2 4.6c-.5.8-1.1 1.1-1.9 1.1-.6 0-1-.2-1.5-.6l-.6 3c0 .1-.1.1-.1.1l-.7.2h-.1c-.1 0-.1 0-.1-.1v-.1l1.5-7.3c.1-.3.1-.6.1-.8 0-.3-.1-.6-.1-.9 0-.1-.1-.1-.1-.2s0-.1.1-.1l.6-.3h.1c.1 0 .3.4.4 1 .7-.7 1.2-1 1.9-1 1 0 1.5.8 1.5 2.3 0 1.3-.4 2.7-1 3.7zm-.9-5.1c-.4 0-.9.3-1.3.7-.3.4-.4.7-.6 1.7l-.5 2.3c.5.4.9.6 1.3.6.6 0 1-.4 1.4-1.4.3-.8.5-1.8.5-2.6.1-.9-.2-1.3-.8-1.3zm7.2-.7l-.3.8c0 .1 0 .1-.1.1h-.4c-.3 0-.6.2-1 .6-.5.6-.7 1-.9 2.1l-.6 3.1c0 .1-.1.1-.2.1h-.7c-.1 0-.1 0-.1-.1v-.1l.9-4.2c.1-.7.1-.7.1-1.1 0-.2 0-.4-.1-.8v-.1c0-.1 0-.1.1-.2l.6-.3h.1c.1 0 .3.5.3 1v.3c.3-.4.4-.5.6-.7.4-.4.9-.6 1.3-.6.2-.1.4 0 .4.1zm4.1 5.6c-.6.8-1.5 1.3-2.5 1.3-1.4 0-2-.8-2-2.3 0-1.3.4-2.5 1-3.5.6-.8 1.4-1.3 2.4-1.3 1.3 0 2.1.8 2.1 2.3 0 1.3-.4 2.6-1 3.5zm-1.2-4.9c-.7 0-1.3.4-1.7 1.3-.3.7-.5 1.7-.5 2.5 0 1 .4 1.4 1.2 1.4.8 0 1.3-.4 1.7-1.3.3-.7.6-1.8.6-2.6-.1-.8-.5-1.3-1.3-1.3zm9.4-3.9l-1.6 7.8c0 .2-.1.5-.1.8 0 .3 0 .6.1.9v.1c0 .1 0 .1-.1.1l-.6.4h-.1c-.1 0-.3-.5-.3-1.1V77c-.6.9-1.3 1.4-2.1 1.4-1 0-1.5-.7-1.5-2 0-1.4.4-3 1.1-3.9.5-.8 1.2-1.1 2.1-1.1.6 0 .9.1 1.4.5l.7-3.3c0-.1 0-.1.1-.2l.7-.2h.1c.1-.1.2-.1.1.1.1-.1.1-.1 0 0zm-1.8 4.4c-.5-.4-.8-.4-1.2-.4-.8 0-1.2.3-1.6 1.2-.3.8-.6 2-.6 2.9 0 .7.2 1.1.7 1.1.5 0 1.1-.3 1.5-.8.4-.4.5-.8.7-1.7l.5-2.3zm7.8-1.2l-1 4.9c0 .2-.1.5-.1.7 0 .3 0 .4.1.7v.1s0 .1-.1.1l-.6.3h-.1c-.1 0-.2-.4-.2-.9V77c-.8.9-1.5 1.3-2.3 1.3-.9 0-1.4-.5-1.4-1.3 0-.2.1-.7.1-1l.9-4.4c0-.1 0-.1.1-.2l.7-.2h.1c.1 0 .1 0 .1.1v.1l-.9 4.3c-.1.3-.1.7-.1.9 0 .4.2.7.6.7.5 0 1.2-.3 1.6-.8.4-.4.5-.7.7-1.5l.7-3.4c0-.1.1-.1.1-.2l.7-.2h.1c.2.1.2.2.2.3 0-.1 0 0 0 0zm6 .5l-.3.6-.1.1s-.1 0-.2-.1c-.4-.2-.7-.3-1.1-.3-.7 0-1.3.4-1.7 1.1-.4.7-.7 1.9-.7 2.8 0 .9.4 1.4 1.2 1.4.4 0 .9-.2 1.4-.5.1-.1.1-.1.2-.1s.1 0 .1.1l.2.6v.1c0 .1-.1.1-.3.3-.6.4-1.2.6-1.9.6-1.3 0-1.9-.8-1.9-2.3 0-1.3.4-2.6 1.1-3.6.6-.8 1.4-1.2 2.5-1.2.6 0 1 .1 1.4.4.1-.2.1-.2.1 0 0-.1 0-.1 0 0zm4.4-.3l-.2.5c0 .1-.1.1-.2.1h-1.7l-.8 3.9c0 .2-.1.5-.1.7 0 .4.2.6.6.6.3 0 .7-.1 1.2-.4h.1s.1 0 .1.1l.1.5v.1c0 .3-1.1.7-1.8.7-.9 0-1.3-.5-1.3-1.4 0-.2 0-.5.1-.9l.8-3.9h-1c-.1 0-.1 0-.1-.1v-.1l.1-.5c0-.1 0-.1.2-.1h1l.4-1.9c0-.1 0-.1.1-.1l.7-.2h.1c.1 0 .1 0 .1.1v.1l-.4 2.1h1.8c.1 0 .1 0 .1.1 0-.1 0-.1 0 0zm2.4 0l-1.3 6.4c0 .1-.1.1-.2.1h-.7c-.1 0-.1 0-.1-.1V78l1.2-5.7h-1.1c-.1 0-.1 0-.1-.1v-.1l.1-.5c0-.1.1-.1.2-.1h1.9c.1 0 .1 0 .1.2 0-.1 0-.1 0 0zm0-1.9c-.4 0-.8-.3-.8-.8 0-.4.3-.8.8-.8.4 0 .7.4.7.8.1.5-.3.8-.7.8zm6.1 1.9l-3.6 6.4c0 .1-.1.1-.2.1h-.5c-.1 0-.1 0-.2-.2l-.8-6.4v-.1c0-.1 0-.1.1-.1l.8-.2h.1c.1 0 .1 0 .1.1l.4 4.4c0 .5.1.7.1.9l.1-.1.1-.3c.1-.1.1-.3.2-.4l.2-.3 2.2-4.3.1-.1h.1l.7.2c0 .3.1.3 0 .4.1 0 .1 0 0 0zm2.6 0l-1.3 6.4c0 .1-.1.1-.2.1h-.7c-.1 0-.1 0-.1-.1V78l1.2-5.7h-1.1c-.1 0-.1 0-.1-.1v-.1l.1-.5c0-.1.1-.1.2-.1h1.9s.1 0 .1.2c0-.1 0-.1 0 0zm0-1.9c-.4 0-.8-.3-.8-.8 0-.4.3-.8.8-.8.4 0 .7.4.7.8 0 .5-.3.8-.7.8zm5.1 1.9l-.2.5c0 .1-.1.1-.2.1h-1.7l-.8 3.9c0 .2-.1.5-.1.7 0 .4.2.6.6.6.3 0 .7-.1 1.2-.4h.1s.1 0 .1.1l.1.5v.1c0 .3-1.1.7-1.8.7-.9 0-1.3-.5-1.3-1.4 0-.2 0-.5.1-.9l.8-3.9h-1c-.1 0-.1 0-.1-.1v-.1l.1-.5c0-.1 0-.1.2-.1h1l.4-1.9c0-.1 0-.1.1-.1l.7-.2h.1c.1 0 .1 0 .1.1v.1l-.4 2.1h1.8c.1 0 .1 0 .1.1.1-.1.1-.1 0 0z"/><path d="M342.1 71.9l-2.4 5.5c-.4 1-1 2.1-1.3 2.6-.5.8-1.2 1.2-2 1.2-.6 0-1.5-.3-1.5-.6l.1-.1.3-.5.1-.1c.1 0 .1 0 .2.1.3.2.6.3.8.3.5 0 1-.4 1.4-1.2l.5-.9h-.5c-.1 0-.1 0-.2-.1l-.9-6.2v-.1s0-.1.1-.1l.8-.3h.1c.1 0 .1 0 .1.1l.8 6.2 2.6-6.2c0-.1.1-.1.1-.1h.1l.6.3c.1 0 .1 0 .1.1v.1zm6.8 5.6c-.5.6-1 .9-1.8.9-.7 0-1.2-.2-2-.6-.2-.1-.3-.2-.3-.3v-.1l1.8-9c0-.1.1-.1.1-.2l.7-.2h.1s.1 0 .1.1v.1l-.7 3.4c-.1.3-.1.6-.2.7.5-.7 1.2-1.1 2-1.1 1 0 1.5.6 1.5 1.8.2 1.6-.5 3.6-1.3 4.5zm-.4-5.3c-.9 0-1.7.9-2 2.1l-.6 2.8c.6.3.9.4 1.3.4.6 0 .9-.3 1.3-1.2.4-1 .8-2.2.8-3.1 0-.6-.3-1-.8-1zm7.3 4.9c-.6.8-1.5 1.3-2.5 1.3-1.4 0-2-.8-2-2.3 0-1.3.4-2.5 1-3.5.6-.8 1.4-1.3 2.4-1.3 1.3 0 2.1.8 2.1 2.3 0 1.3-.4 2.6-1 3.5zm-1.3-4.9c-.7 0-1.3.4-1.7 1.3-.3.7-.5 1.7-.5 2.5 0 1 .4 1.4 1.2 1.4.8 0 1.3-.4 1.7-1.3.3-.7.6-1.8.6-2.6s-.5-1.3-1.3-1.3zm7.7 4.9c-.6.8-1.5 1.3-2.5 1.3-1.4 0-2-.8-2-2.3 0-1.3.4-2.5 1-3.5.6-.8 1.4-1.3 2.4-1.3 1.3 0 2.1.8 2.1 2.3.1 1.3-.3 2.6-1 3.5zm-1.2-4.9c-.7 0-1.3.4-1.7 1.3-.3.7-.5 1.7-.5 2.5 0 1 .4 1.4 1.2 1.4.8 0 1.3-.4 1.7-1.3.3-.7.6-1.8.6-2.6-.1-.8-.5-1.3-1.3-1.3zm7.5-.2l-.2.5c0 .1-.1.1-.1.1-.1 0-.1 0-.2-.1-.4-.2-.7-.3-1-.3-.7 0-1.2.4-1.2 1 0 .3.1.4.3.6.2.2.2.2.9.6.7.5 1 .9 1 1.6s-.3 1.4-.8 1.8c-.4.3-.9.5-1.5.5-.7 0-1.6-.3-1.9-.6v-.2l.3-.6c0-.1.1-.1.1-.1.1 0 .1 0 .2.1.4.3 1 .4 1.5.4.7 0 1.2-.5 1.2-1.1 0-.3-.1-.6-.3-.8-.1-.1-.1-.1-.9-.7-.6-.4-.9-.9-.9-1.5 0-1.2.9-2 2.2-2 .7 0 1.6.3 1.6.5-.3.2-.3.2-.3.3zm5-.3l-.2.5c0 .1-.1.1-.2.1h-1.7l-.8 3.9c0 .2-.1.5-.1.7 0 .4.2.6.6.6.3 0 .7-.1 1.2-.4h.1s.1 0 .1.1l.1.5v.1c0 .3-1.1.7-1.8.7-.9 0-1.3-.5-1.3-1.4 0-.2 0-.5.1-.9l.8-3.9h-1c-.1 0-.1 0-.1-.1v-.1l.1-.5c0-.1 0-.1.2-.1h1l.4-1.9c0-.1 0-.1.1-.1l.7-.2h.1c.1 0 .1 0 .1.1v.1l-.4 2.1h1.8c.1 0 .1 0 .1.1 0-.1 0-.1 0 0z"/><path fill="#0F6967" d="M148.4 68.5h10v10h-10z"/><path fill="none" stroke="#000" stroke-width=".598" d="M158.3 73.8h12.4"/><circle cx="158.4" cy="73.8" r="1.3"/><path fill="none" stroke="#7AC6BC" stroke-width="1.395" stroke-miterlimit="10" d="M148.4 78.5v-10"/></svg>
