<svg xmlns="http://www.w3.org/2000/svg" viewBox="0 0 4000 4125"><path fill="#E8E8E8" d="M0-4.1h4004V4125H0z"/><path fill="#FFF" d="M300.3 571.5h3403.4v3203.2H300.3z"/><path fill="#E30613" d="M0-4.1h125.1v375.4H0z"/><path fill="#E30613" d="M0-4.1h4004V8.4H0z"/><path d="M376.2 366.5c0 4.1-.7 4.7-4.7 4.7h-55.2c-4.3 0-4.7-.5-4.7-4.7v-12.8c0-4.1.7-4.7 4.7-4.7h12.2V239h-12.2c-4.1 0-4.7-.7-4.7-4.7v-12.8c0-4.3.5-4.7 4.7-4.7h55.2c4.1 0 4.7.7 4.7 4.7v12.8c0 4.1-.7 4.7-4.7 4.7h-12.2v110h12.2c4.1 0 4.7.7 4.7 4.7v12.8zm71.2 8.6c-36.7 0-55-27.3-55-81.8 0-32.9 6.1-52.9 19.8-66.4 9.7-9.2 22.1-14 36.9-14s29.5 6.1 38.1 16c11.3 12.8 16.7 33.8 16.7 63.3 0 55-19.1 82.9-56.5 82.9zm.4-137.9c-14.9 0-23 20-23 57 0 37.8 7.7 56.5 23.2 56.5s23.4-18.7 23.4-56.1c.1-39.3-7.4-57.4-23.6-57.4zM636.1 319c0 19.8-3.2 30-12.4 39.6-10.8 11.3-24.8 16.4-44.6 16.4-20.9 0-35.4-6.3-43.9-19.6-5.4-8.6-7.7-18.9-7.7-36.5v-97.5c0-4.3.5-4.7 4.7-4.7h21.4c4.1 0 4.7.7 4.7 4.7V319c0 14.9.9 19.1 4.5 23.9 4.1 5.4 10.1 7.9 18.5 7.9 17.8 0 25-9 25-31.3v-98c0-4.1.7-4.7 4.7-4.7h20.3c4.3 0 4.7.5 4.7 4.7V319zm88.7 3.6c0 4.1-.5 4.5-4.7 4.5h-56.3c-4.1 0-4.7-.5-4.7-4.5v-17.8c0-4.1.5-4.5 4.7-4.5h56.3c4.1 0 4.7.7 4.7 4.5v17.8zm84.3 48.7c-7.7 2.5-15.3 3.8-22.7 3.8-11.7 0-20.3-3.8-25.4-11.5-3.8-5.6-5-11.3-5-23.9v-58.8h-15.5c-3.4 0-3.8-.5-3.8-3.8v-13.3c0-3.4.5-3.8 3.8-3.8H756v-28.4c0-3.2.5-3.6 3.6-4.1l20.7-2.9h2c1.6 0 2.3.9 2.3 3.6V260h25.7c2.9 0 3.8.5 3.8 2.3 0 .7 0 1.4-.2 2l-2.9 13.3c-.7 2.7-1.4 3.4-4.1 3.4h-22.3v54.7c0 11.9 1.6 14.4 8.3 14.4 4.5 0 6.5-.5 14.9-3.8.7-.2 1.4-.5 2-.5 1.1 0 1.8.9 2.3 2.3l3.6 15.8c.5 1.6.5 1.8.5 2.5-.1 2.2-1.5 3.1-7.1 4.9zm114.8-1.6L905 374c-1.8.5-1.8.5-2.5.5-2.5 0-5-4.5-6.8-12.4-10.1 9.7-18.2 13.1-31.1 13.1-11.3 0-20-3.4-25.4-9.7-6.3-7-7.7-13.5-7.7-34.2v-66c0-3.2.2-3.4 3.4-4.1l20.9-4.5c.5-.2 1.4-.2 1.8-.2 1.8 0 2.5.9 2.5 3.6v69.8c0 10.1.5 13.5 2 16.4 2 3.8 6.5 6.1 11.7 6.1 6.3 0 11.9-2.5 18.7-8.1v-79.1c0-3.2.2-3.4 3.4-4.1l20.9-4.5 2.3-.2c1.4 0 2 1.1 2 3.6v82.9c0 11 .9 16.2 4.3 23 .5.7.7 1.6.7 2 .1.9-.6 1.3-2.2 1.8zm95.8-106.1l-7 18.2c-.5 1.4-1.1 2-1.8 2-.5 0-.9-.2-1.6-.5-3.2-1.1-6.3-1.8-9-1.8-4.7 0-10.4 3.4-17.1 10.8v75c0 3.4-.5 3.8-3.8 3.8h-20.9c-3.4 0-3.8-.5-3.8-3.8V299c0-12.8-1.4-19.1-6.8-31.3-.2-.7-.5-1.4-.5-2 0-.9.9-1.8 2.3-2.3l18.2-6.5c1.8-.7 1.8-.7 2.7-.7 2.7 0 6.1 6.8 8.6 17.6 4.7-5.4 5.4-6.5 7.7-8.8 5.6-5.6 12.8-8.8 20.5-8.8 6.8 0 12.8 2.5 12.8 5-.1.6-.3 1.5-.5 2.4zm106.5 103.8c0 3.4-.5 3.8-3.8 3.8h-20.9c-3.4 0-3.8-.5-3.8-3.8V298c0-13.3-3.8-18.9-12.8-18.9-6.5 0-11.7 2.5-19.6 9.2v79.1c0 3.4-.5 3.8-3.8 3.8h-20.9c-3.4 0-3.8-.5-3.8-3.8v-75.7c0-9.7-1.6-17.8-4.7-24.5-.5-.9-.7-1.6-.7-2.3s.7-1.6 1.8-2l20-7.4c.7-.2 1.8-.5 2.3-.5 2.7 0 5.6 5.6 8.1 15.5 11.3-10.4 20.9-14.4 33.8-14.4 20 0 29.1 11 29.1 35.6v75.7zM328.7 4002c-11.3 0-28.4-5.4-28.4-9 0-.3.2-.9.3-1.2l2.9-7.2c.2-.5.6-.8 1.1-.8.5 0 .6 0 2.6 1.1 7.4 4.1 15.3 6.3 21.8 6.3 11.1 0 18.3-6.8 18.3-17 0-9.2-3.9-13.8-18.8-22.4-12.6-7.2-15.3-9.2-18.9-13.2-3.9-4.5-6-10.5-6-16.7 0-15.9 12.2-27.2 29.6-27.2 10.1 0 25.1 5 25.1 8.1 0 .3 0 .3-.3 1.2l-2.7 6.8c-.3.6-.6.9-1.2.9-.5 0-.5 0-6.5-3-4.2-2-9.8-3.3-14.6-3.3-10.4 0-16.5 5.6-16.5 14.9 0 5.3 2.1 9.8 6 12.8 3.3 2.6 3.3 2.6 18 11.3 8.9 5.3 11.7 7.5 14.9 12 3.3 4.5 5 10.2 5 16.2-.2 17.5-12.9 29.4-31.7 29.4zm74.8 0c-18.3 0-29-14-29-37.8 0-24.3 11.4-38.4 30.8-38.4 18.2 0 29 14.1 29 37.7-.1 24.2-11.5 38.5-30.8 38.5zm.7-66.8c-11.4 0-17.6 9.6-17.6 27.5 0 9.6 1.7 18.3 4.7 23.3 2.4 4.1 7.7 6.6 13.2 6.6 5.4 0 10.4-2.4 12.8-6.3 3-4.8 4.8-13.4 4.8-23 0-18.5-6.2-28.1-17.9-28.1zm104.8 62l-6.8 4.4c-.5.3-.8.5-1.1.5-1.2 0-3.8-4.2-5.3-9-8.6 6.6-14.6 9-22.5 9-13.4 0-20.6-6.9-20.6-20.1v-51.8c0-1.1.6-1.7 1.5-2l7.8-2.1c.6-.2.6-.2.9-.2.8 0 1.1.5 1.1 1.7v46.8c0 13.2 2.7 17.4 10.8 17.4 6.2 0 13.2-2.9 18.9-7.7V3930c0-1.1.6-1.7 1.5-2l8-2.1c.6-.2.6-.2.9-.2.8 0 1.1.5 1.1 1.7v52.4c0 7.8.9 11.1 3.9 15.5.3.5.5.8.5 1.1 0 .2-.3.5-.6.8zm57.7-68l-3.6 8.4c-.1.3-.5.5-.8.5-.1 0-.1 0-2.6-.8-.8-.2-1.7-.3-2.6-.3-3.9 0-7.2 2.6-14.9 11.4v49.7c0 1.5-.3 1.8-1.7 1.8h-8c-1.4 0-1.7-.3-1.7-1.8v-45c0-11.9-.5-14.4-3.6-20.1-.5-.8-.6-1.2-.6-1.5 0-.6.3-1.1.8-1.4l6.3-3.9c.5-.3.8-.5 1.2-.5 1.8 0 4.7 6.3 5.7 12.5 9.5-10.7 12.3-12.5 18.6-12.5 3.5 0 7.5 1.4 7.5 2.4.3.3.1.8 0 1.1zm59.1 7l-3.3 5.9c-.5.8-.8 1.1-1.2 1.1-.3 0-.8-.1-1.2-.6-7.4-5.4-10.4-6.8-15.5-6.8-12 0-18.2 9.5-18.2 27.9 0 18.8 5.6 28.1 16.7 28.1 6 0 9.2-1.4 17.7-7.4.5-.3.8-.5 1.1-.5.5 0 .8.3 1.1.9l2.3 5.7c.2.5.5 1.4.5 1.5 0 .8-.8 1.7-2.4 2.9-6.2 4.5-13.7 7.1-21 7.1-17.9 0-28.4-13.7-28.4-36.5 0-24.6 11.6-39.8 30.5-39.8 6.5 0 12.8 2 18.3 5.9 2.4 1.7 3.3 2.7 3.3 3.8l-.3.8zm64.8 30.2h-43.1c.8 16.4 7.7 25.4 19.8 25.4 5.4 0 10.8-1.7 17.4-5.4.5-.3 1.1-.5 1.5-.5.3 0 .8.3 1.1.8l2.7 5.9c.3.8.3.8.3 1.1 0 1.2-1.4 2.3-5.4 4.2-5.9 2.7-12.2 4.2-18.5 4.2-19.1 0-31.2-14.7-31.2-38 0-23.4 11.6-38.3 29.6-38.3 12.2 0 21.2 6.6 25.2 18 1.7 4.8 2.3 10.4 2.3 20-.1 2-.4 2.6-1.7 2.6zm-10.6-9.3c-.3-14.4-6-22.2-16.1-22.2-10.1 0-15.8 7.7-16.4 22.2H680zm39.4-7.2c-6 0-10.7-4.7-10.7-10.7 0-5.9 4.8-10.5 10.8-10.5 5.6 0 10.4 4.8 10.4 10.7 0 5.8-4.7 10.5-10.5 10.5zm0 52.1c-6 0-10.7-4.7-10.7-10.7 0-5.9 4.8-10.5 10.8-10.5 5.6 0 10.4 4.8 10.4 10.5 0 5.9-4.8 10.7-10.5 10.7zm115-6.9c-5.7 4.5-12.9 6.9-20.3 6.9-22.1 0-33.9-19.1-33.9-54.7 0-17.7 2.7-30.5 8.6-39.8 5.1-8 14.3-12.8 24.3-12.8 8 0 16.1 3.2 22.4 8.4 1.8 1.7 2.4 2.1 2.4 3 0 .5-.2.9-.3 1.2l-4.4 5.7c-.2.3-.8.6-1.2.6-.6 0-.6 0-5.1-3.6-4.8-3.6-9-5.3-13.7-5.3-13.7 0-19.7 12.5-19.7 41.1 0 30.2 7.2 45.9 21.2 45.9 5.1 0 10.8-2.7 16.8-8 .6-.6 1.2-.9 1.7-.9.3 0 .8.3 1.2 1.1l3.8 5c.3.3.5.8.5 1.2-.1 1.2-1.5 2.9-4.3 5zm67.7 1.8l-6.5 4.1c-.5.3-1.1.5-1.2.5-1.5 0-4.2-4.5-5.7-9.5-6.8 6.6-13.2 9.5-21.5 9.5-12.2 0-19.8-8-19.8-20.6 0-17.1 13.1-25.7 39.6-26.1v-5c0-9.6-3.9-13.4-13.8-13.4-5.9 0-10.1 1.1-17.9 4.4-.5.2-.9.3-1.1.3-.5 0-.9-.3-1.1-.8l-2.3-6-.1-1.2c0-.9.8-1.5 4.1-2.9 6-2.7 12.8-4.1 20-4.1 15.9 0 23.4 6.8 23.4 21v28.4c0 10.4.8 13.8 4.1 19.7.1.3.3.6.3.9.1.3-.2.6-.5.8zm-15-32.9c-18.8.2-28.1 5.4-28.1 15.9 0 7.1 4.5 12 11 12 5.3 0 10.5-2.7 17.1-8.6V3964zm74-34.8l-3.6 8.4c-.1.3-.5.5-.8.5-.1 0-.1 0-2.6-.8-.8-.2-1.7-.3-2.6-.3-3.9 0-7.2 2.6-14.9 11.4v49.7c0 1.5-.3 1.8-1.7 1.8h-8c-1.4 0-1.7-.3-1.7-1.8v-45c0-11.9-.5-14.4-3.6-20.1-.5-.8-.6-1.2-.6-1.5 0-.6.3-1.1.8-1.4l6.3-3.9c.5-.3.8-.5 1.2-.5 1.8 0 4.7 6.3 5.7 12.5 9.5-10.7 12.3-12.5 18.6-12.5 3.5 0 7.5 1.4 7.5 2.4.3.3.2.8 0 1.1zm98.8 68.9c0 1.5-.3 1.8-1.8 1.8h-7.7c-1.5 0-1.8-.3-1.8-1.8v-51.7c0-7.5-3-11-9.6-11-5 0-8.4 1.4-15.3 6v56.6c0 1.5-.3 1.8-1.7 1.8h-7.8c-1.4 0-1.7-.3-1.7-1.8v-51.5c0-7.4-3.2-11.1-9.6-11.1-5 0-8.9 1.7-15 6.5v56.2c0 1.5-.3 1.8-1.8 1.8h-7.7c-1.5 0-1.8-.3-1.8-1.8v-53.9c0-5.6-.5-7.4-2.7-12.6-.2-.2-.2-.5-.2-.8s.3-.8.8-.9l6-3.5c.5-.3 1.1-.5 1.4-.5 1.2 0 3.2 3.6 4.4 8.6 8.3-6.5 14-8.9 21-8.9 7.2 0 11.7 2.9 14.3 8.9 8.9-6.3 15-8.9 21.9-8.9 6.2 0 11.3 2.6 13.7 6.6 2 3.3 2.7 7.4 2.7 14.6v51.3zm75.4-31.7h-43.1c.8 16.4 7.7 25.4 19.8 25.4 5.4 0 10.8-1.7 17.4-5.4.5-.3 1.1-.5 1.5-.5.3 0 .8.3 1.1.8l2.7 5.9c.3.8.3.8.3 1.1 0 1.2-1.4 2.3-5.4 4.2-5.9 2.7-12.2 4.2-18.5 4.2-19.1 0-31.2-14.7-31.2-38 0-23.4 11.6-38.3 29.6-38.3 12.2 0 21.2 6.6 25.2 18 1.7 4.8 2.3 10.4 2.3 20-.1 2-.4 2.6-1.7 2.6zm-10.5-9.3c-.3-14.4-6-22.2-16.1-22.2-10.1 0-15.8 7.7-16.4 22.2h32.5zm82.4 41c0 1.5-.3 1.8-1.7 1.8h-8c-1.4 0-1.7-.3-1.7-1.8V3948c0-8.9-2.9-12.5-9.9-12.5-6.9 0-12.3 2.6-19.8 9.5v53.2c0 1.5-.3 1.8-1.7 1.8h-8c-1.4 0-1.7-.3-1.7-1.8v-51.5c0-6.9-.6-9.5-2.9-14.4-.1-.3-.3-.8-.3-.9 0-.3.3-.8.8-.9l6.8-3.9c.6-.3.9-.5 1.2-.5 1.5 0 3.6 4.2 4.7 9.9 9.2-7.4 15.9-10.2 24.2-10.2 7.1 0 12.6 2.6 15.3 7.2 2.1 3.6 2.6 6.6 2.6 15.2v49.9zm117.4 1.5l-9.2 1.8h-.8c-.8 0-1.2-.3-1.7-1.2l-24.3-47h-11.4v44.6c0 1.8-.3 2.1-2.1 2.1h-8.1c-1.8 0-2.1-.3-2.1-2.1V3899c0-1.8.3-2.1 2.1-2.1h23c9.6 0 14.6.9 18.9 3.2 7.2 3.8 11.3 12 11.3 22.5 0 14.6-7.1 25.4-19.5 29.6l25.1 44.7c.5.8.6 1.4.6 1.7 0 .4-.6.7-1.8 1zm-24.3-91.3c-2.6-1.4-5-1.7-11-1.7h-12v37.1h11.6c6 0 9.2-.9 12.3-3.5 4.4-3.6 6.5-9.2 6.5-16.8s-2.4-12.7-7.4-15.1zm89.3 58.1h-43.1c.8 16.4 7.7 25.4 19.8 25.4 5.4 0 10.8-1.7 17.4-5.4.5-.3 1.1-.5 1.5-.5.3 0 .8.3 1.1.8l2.7 5.9c.3.8.3.8.3 1.1 0 1.2-1.4 2.3-5.4 4.2-5.9 2.7-12.2 4.2-18.5 4.2-19.1 0-31.2-14.7-31.2-38 0-23.4 11.6-38.3 29.6-38.3 12.2 0 21.2 6.6 25.2 18 1.7 4.8 2.3 10.4 2.3 20 0 2-.3 2.6-1.7 2.6zm-10.5-9.3c-.3-14.4-6-22.2-16.1-22.2-10.1 0-15.8 7.7-16.4 22.2h32.5zm43.3 41c0 1.5-.3 1.8-1.7 1.8h-8c-1.4 0-1.7-.3-1.7-1.8v-61h-12c-1.5 0-1.8-.3-1.8-1.7v-5.9c0-1.5.3-1.8 1.8-1.8h21.6c1.4 0 1.7.3 1.7 1.8v68.6zm-6.8-87.9c-5.1 0-9.2-4.1-9.2-9.2 0-5 4.1-9 9.3-9 4.8 0 8.9 4.1 8.9 9 0 5.2-4 9.2-9 9.2zm84.8 87.9c0 1.5-.3 1.8-1.7 1.8h-8c-1.4 0-1.7-.3-1.7-1.8V3948c0-8.9-2.9-12.5-9.9-12.5-6.9 0-12.3 2.6-19.8 9.5v53.2c0 1.5-.3 1.8-1.7 1.8h-8c-1.4 0-1.7-.3-1.7-1.8v-51.5c0-6.9-.6-9.5-2.9-14.4-.1-.3-.3-.8-.3-.9 0-.3.3-.8.8-.9l6.8-3.9c.6-.3.9-.5 1.2-.5 1.5 0 3.6 4.2 4.7 9.9 9.2-7.4 15.9-10.2 24.2-10.2 7.1 0 12.6 2.6 15.3 7.2 2.1 3.6 2.6 6.6 2.6 15.2v49.9zm78 0c0 1.5-.3 1.8-1.7 1.8h-8c-1.4 0-1.7-.3-1.7-1.8v-50c0-9.5-2.6-12.6-10.4-12.6-6 0-11.4 2.6-19.8 9.5v53.2c0 1.5-.3 1.8-1.7 1.8h-8c-1.4 0-1.7-.3-1.7-1.8v-103c0-1.1.6-1.7 1.5-2l7.8-1.8c.2-.2.9-.2 1.1-.2.6 0 .9.5.9 1.7v42.8c8.1-7.4 14.3-9.9 23.3-9.9 6.5 0 11.4 2 14.4 5.9 2.9 3.8 3.8 7.4 3.8 16.8v49.6zm72.6-1.2l-6.5 4.1c-.5.3-1.1.5-1.2.5-1.5 0-4.2-4.5-5.7-9.5-6.8 6.6-13.2 9.5-21.5 9.5-12.2 0-19.8-8-19.8-20.6 0-17.1 13.1-25.7 39.6-26.1v-5c0-9.6-3.9-13.4-13.8-13.4-5.9 0-10.1 1.1-17.9 4.4-.5.2-.9.3-1.1.3-.5 0-.9-.3-1.1-.8l-2.3-6-.2-1.2c0-.9.8-1.5 4.1-2.9 6-2.7 12.8-4.1 20-4.1 15.9 0 23.4 6.8 23.4 21v28.4c0 10.4.8 13.8 4.1 19.7.2.3.3.6.3.9.2.3-.1.6-.4.8zm-15-32.9c-18.8.2-28.1 5.4-28.1 15.9 0 7.1 4.5 12 11 12 5.3 0 10.5-2.7 17.1-8.6V3964zm74.1-34.8l-3.6 8.4c-.2.3-.5.5-.8.5-.2 0-.2 0-2.6-.8-.8-.2-1.7-.3-2.6-.3-3.9 0-7.2 2.6-14.9 11.4v49.7c0 1.5-.3 1.8-1.7 1.8h-8c-1.4 0-1.7-.3-1.7-1.8v-45c0-11.9-.5-14.4-3.6-20.1-.5-.8-.6-1.2-.6-1.5 0-.6.3-1.1.8-1.4l6.3-3.9c.5-.3.8-.5 1.2-.5 1.8 0 4.7 6.3 5.7 12.5 9.5-10.7 12.3-12.5 18.6-12.5 3.5 0 7.5 1.4 7.5 2.4.3.3.1.8 0 1.1zm39.1 72.2c-7.5 0-13.7-3.2-16.4-8.4-1.5-3-2-5.7-2-13.5v-42.3h-10.7c-1.7 0-1.8-.1-1.8-1.7v-5.9c0-1.5.3-1.8 1.8-1.8h10.7v-20.6c0-.9.6-1.7 1.5-2l7.8-2.1c.8-.3.8-.3.9-.3.9 0 1.1.3 1.1 1.8v23.1h22.5c.9 0 1.4.3 1.4 1.1 0 .3 0 .3-.2.9l-1.7 5.9c-.3 1.1-.9 1.5-2.1 1.5h-20v42.3c0 6 .1 7.4 1.5 9.2 1.5 2 4.1 3 7.5 3 3.8 0 6.9-.9 13.5-3.8.3-.2.8-.3 1.1-.3.5 0 .9.3 1.1.9l1.7 6.2c.3.6.3.6.3.8.1 2.4-11.8 6-19.5 6zm109.2-4.5l-6.5 4.1c-.5.3-1.1.5-1.2.5-1.5 0-4.2-4.5-5.7-9.5-6.8 6.6-13.2 9.5-21.5 9.5-12.2 0-19.8-8-19.8-20.6 0-17.1 13.1-25.7 39.6-26.1v-5c0-9.6-3.9-13.4-13.8-13.4-5.9 0-10.1 1.1-17.9 4.4-.5.2-.9.3-1.1.3-.5 0-.9-.3-1.1-.8l-2.3-6-.2-1.2c0-.9.8-1.5 4.1-2.9 6-2.7 12.8-4.1 20-4.1 15.9 0 23.4 6.8 23.4 21v28.4c0 10.4.8 13.8 4.1 19.7.2.3.3.6.3.9.2.3-.1.6-.4.8zm-15-32.9c-18.8.2-28.1 5.4-28.1 15.9 0 7.1 4.5 12 11 12 5.3 0 10.5-2.7 17.1-8.6V3964zm89.8 34.1c0 1.5-.3 1.8-1.7 1.8h-8c-1.4 0-1.7-.3-1.7-1.8V3948c0-8.9-2.9-12.5-9.9-12.5-6.9 0-12.3 2.6-19.8 9.5v53.2c0 1.5-.3 1.8-1.7 1.8h-8c-1.4 0-1.7-.3-1.7-1.8v-51.5c0-6.9-.6-9.5-2.9-14.4-.2-.3-.3-.8-.3-.9 0-.3.3-.8.8-.9l6.8-3.9c.6-.3.9-.5 1.2-.5 1.5 0 3.6 4.2 4.7 9.9 9.2-7.4 15.9-10.2 24.2-10.2 7.1 0 12.6 2.6 15.3 7.2 2.1 3.6 2.6 6.6 2.6 15.2v49.9zm78.9-.9l-6.8 3.8c-.3.3-.9.5-1.2.5-1.4 0-3.8-4.2-5-9-9.8 7.4-15.2 9.6-22.4 9.6-14.7 0-23.6-14.6-23.6-38.9 0-23.1 10.2-37.4 26.9-37.4 5.6 0 10.2 1.4 16.5 4.8v-35.4c0-.9.6-1.7 1.5-2l7.8-1.8c.3-.2.6-.2.9-.2.8 0 1.1.5 1.1 1.7v83.3c0 9.3.8 12.9 3.8 17.7 1.2 2 1.2 2 1.2 2.4.1.3 0 .6-.7.9zm-15.4-56.6c-6.3-3.6-10.2-4.8-15.3-4.8-11.3 0-15.9 7.8-15.9 26.7 0 20.7 4.1 29.3 14 29.3 5.7 0 10.7-2.6 17.3-8.7v-42.5zm129.6 55.2l-6.9 4.8c-.9.6-.9.6-1.4.6-.6 0-.8-.2-1.5-1.1l-38.1-49.1v46.7c0 1.8-.3 2.1-2.1 2.1h-8.1c-1.8 0-2.1-.3-2.1-2.1V3899c0-1.8.3-2.1 2.1-2.1h8.1c1.8 0 2.1.3 2.1 2.1v48.8l38.6-51c.9-1.1.9-1.2 1.5-1.2.5 0 .5 0 1.4.8l5.6 3.8c1.1.8 1.2 1.1 1.2 1.5 0 .5-.2.6-.8 1.5l-35.3 45.6 36 44.3c.6.6.8 1.1.8 1.4-.1.4-.4.7-1.1 1.3zm64.5-29.4h-43.1c.8 16.4 7.7 25.4 19.8 25.4 5.4 0 10.8-1.7 17.4-5.4.5-.3 1.1-.5 1.5-.5.3 0 .8.3 1.1.8l2.7 5.9c.3.8.3.8.3 1.1 0 1.2-1.4 2.3-5.4 4.2-5.9 2.7-12.2 4.2-18.5 4.2-19.1 0-31.2-14.7-31.2-38 0-23.4 11.6-38.3 29.6-38.3 12.2 0 21.2 6.6 25.2 18 1.7 4.8 2.3 10.4 2.3 20 0 2-.3 2.6-1.7 2.6zm-10.5-9.3c-.3-14.4-6-22.2-16.1-22.2s-15.8 7.7-16.4 22.2h32.5zm82.4 41c0 1.5-.3 1.8-1.7 1.8h-8c-1.4 0-1.7-.3-1.7-1.8V3948c0-8.9-2.9-12.5-9.9-12.5-6.9 0-12.3 2.6-19.8 9.5v53.2c0 1.5-.3 1.8-1.7 1.8h-8c-1.4 0-1.7-.3-1.7-1.8v-51.5c0-6.9-.6-9.5-2.9-14.4-.2-.3-.3-.8-.3-.9 0-.3.3-.8.8-.9l6.8-3.9c.6-.3.9-.5 1.2-.5 1.5 0 3.6 4.2 4.7 9.9 9.2-7.4 15.9-10.2 24.2-10.2 7.1 0 12.6 2.6 15.3 7.2 2.1 3.6 2.6 6.6 2.6 15.2v49.9zm78 0c0 1.5-.3 1.8-1.7 1.8h-8c-1.4 0-1.7-.3-1.7-1.8V3948c0-8.9-2.9-12.5-9.9-12.5-6.9 0-12.3 2.6-19.8 9.5v53.2c0 1.5-.3 1.8-1.7 1.8h-8c-1.4 0-1.7-.3-1.7-1.8v-51.5c0-6.9-.6-9.5-2.9-14.4-.2-.3-.3-.8-.3-.9 0-.3.3-.8.8-.9l6.8-3.9c.6-.3.9-.5 1.2-.5 1.5 0 3.6 4.2 4.7 9.9 9.2-7.4 15.9-10.2 24.2-10.2 7.1 0 12.6 2.6 15.3 7.2 2.1 3.6 2.6 6.6 2.6 15.2v49.9zm75.5-31.7h-43.1c.8 16.4 7.7 25.4 19.8 25.4 5.4 0 10.8-1.7 17.4-5.4.5-.3 1.1-.5 1.5-.5.3 0 .8.3 1.1.8l2.7 5.9c.3.8.3.8.3 1.1 0 1.2-1.4 2.3-5.4 4.2-5.9 2.7-12.2 4.2-18.5 4.2-19.1 0-31.2-14.7-31.2-38 0-23.4 11.6-38.3 29.6-38.3 12.2 0 21.2 6.6 25.2 18 1.7 4.8 2.3 10.4 2.3 20 0 2-.3 2.6-1.7 2.6zm-10.5-9.3c-.3-14.4-6-22.2-16.1-22.2s-15.8 7.7-16.4 22.2h32.5zm50.7 44.3c-7.5 0-13.7-3.2-16.4-8.4-1.5-3-2-5.7-2-13.5v-42.3h-10.7c-1.7 0-1.8-.1-1.8-1.7v-5.9c0-1.5.3-1.8 1.8-1.8h10.7v-20.6c0-.9.6-1.7 1.5-2l7.8-2.1c.8-.3.8-.3.9-.3.9 0 1.1.3 1.1 1.8v23.1h22.5c.9 0 1.4.3 1.4 1.1 0 .3 0 .3-.2.9l-1.7 5.9c-.3 1.1-.9 1.5-2.1 1.5h-20v42.3c0 6 .2 7.4 1.5 9.2 1.5 2 4.1 3 7.5 3 3.8 0 6.9-.9 13.5-3.8.3-.2.8-.3 1.1-.3.5 0 .9.3 1.1.9l1.7 6.2c.3.6.3.6.3.8.1 2.4-11.8 6-19.5 6zm85.5-3.3c0 1.5-.3 1.8-1.7 1.8h-8c-1.4 0-1.7-.3-1.7-1.8v-50c0-9.5-2.6-12.6-10.4-12.6-6 0-11.4 2.6-19.8 9.5v53.2c0 1.5-.3 1.8-1.7 1.8h-8c-1.4 0-1.7-.3-1.7-1.8v-103c0-1.1.6-1.7 1.5-2l7.8-1.8c.2-.2.9-.2 1.1-.2.6 0 .9.5.9 1.7v42.8c8.1-7.4 14.3-9.9 23.3-9.9 6.5 0 11.4 2 14.4 5.9 2.9 3.8 3.8 7.4 3.8 16.8v49.6zm117.4 1.5l-9.2 1.8h-.8c-.8 0-1.2-.3-1.7-1.2l-24.3-47H2612v44.6c0 1.8-.3 2.1-2.1 2.1h-8.1c-1.8 0-2.1-.3-2.1-2.1V3899c0-1.8.3-2.1 2.1-2.1h23c9.6 0 14.6.9 18.9 3.2 7.2 3.8 11.3 12 11.3 22.5 0 14.6-7.1 25.4-19.5 29.6l25.1 44.7c.5.8.6 1.4.6 1.7-.1.4-.7.7-1.9 1zm-24.3-91.3c-2.6-1.4-5-1.7-11-1.7h-12v37.1h11.6c6 0 9.2-.9 12.3-3.5 4.4-3.6 6.5-9.2 6.5-16.8s-2.5-12.7-7.4-15.1zm63.2 93.7c-18.3 0-29-14-29-37.8 0-24.3 11.4-38.4 30.8-38.4 18.2 0 29 14.1 29 37.7 0 24.2-11.5 38.5-30.8 38.5zm.7-66.8c-11.4 0-17.6 9.6-17.6 27.5 0 9.6 1.7 18.3 4.7 23.3 2.4 4.1 7.7 6.6 13.2 6.6 5.4 0 10.4-2.4 12.8-6.3 3-4.8 4.8-13.4 4.8-23 0-18.5-6.2-28.1-17.9-28.1zm103.9-2.7c-2.7 4.2-3.8 8.7-3.8 15.2v23.1c0 11 0 11 .8 25.7.1 3.3.3 6.2.3 8.6 0 17.4-9.3 26.6-26.7 26.6-7.5 0-15.9-2.1-22.5-5.6-2.4-1.4-2.7-1.5-2.7-2.6 0-.3.1-.6.3-1.1l2.7-6c.2-.6.6-.9.9-.9.3 0 .8.2 1.2.5 6.3 3.3 14.1 5.6 19.7 5.6 6 0 11.3-2.1 13.7-5.4 1.7-2.4 2.3-5.3 2.3-11 0-2.6-.2-5.1-.2-7.7l-.1-6.2v-1.7c-6.9 5.7-13.5 8.3-20.9 8.3-14.4 0-23.3-12.8-23.3-33.3 0-24.9 10.2-38.9 28.4-38.9 6.8 0 11.6 1.7 18.2 6.3 1.7-4.2 3.3-6.9 4.2-6.9.3 0 .9.2 1.2.3l6.9 4.2c.3.2.5.5.5.9-.2.3-.3.8-1.1 2zm-15 7.3c-6-3-9.8-4.2-14.1-4.2-11.1 0-17.1 9.2-17.1 26.1 0 18.3 3.9 26 13.4 26 5.6 0 10.4-2 17.9-7.4v-40.5zm60.5 62.2c-18.3 0-29-14-29-37.8 0-24.3 11.4-38.4 30.8-38.4 18.2 0 29 14.1 29 37.7 0 24.2-11.4 38.5-30.8 38.5zm.8-66.8c-11.4 0-17.6 9.6-17.6 27.5 0 9.6 1.7 18.3 4.7 23.3 2.4 4.1 7.7 6.6 13.2 6.6 5.4 0 10.4-2.4 12.8-6.3 3-4.8 4.8-13.4 4.8-23-.1-18.5-6.2-28.1-17.9-28.1zm88.7-37.9l-2.6 6.2c-.1.6-.6.9-1.1.9s-.9-.2-1.5-.5c-4.1-2-8.3-3.2-11.6-3.2-3 0-5.6 1.1-6.9 3-1.7 2.3-2.1 4.7-2.1 12.5v11.6h21.6c1.2 0 1.7.3 1.7 1.1 0 .3 0 .6-.2.9l-2 6c-.3.9-1.1 1.4-2 1.4h-19.2v61c0 1.5-.3 1.8-1.7 1.8h-8c-1.4 0-1.7-.3-1.7-1.8v-61h-9.9c-1.5 0-1.8-.3-1.8-1.7v-5.9c0-1.5.3-1.8 1.8-1.8h9.9v-11.7c0-9.5.9-13.4 3.9-17.4 3.8-5 9.5-7.5 16.8-7.5 7.1 0 16.5 3 16.5 5.3.4.2.4.2.1.8zm52.9 0l-2.6 6.2c-.1.6-.6.9-1.1.9s-.9-.2-1.5-.5c-4.1-2-8.3-3.2-11.6-3.2-3 0-5.6 1.1-6.9 3-1.7 2.3-2.1 4.7-2.1 12.5v11.6h21.6c1.2 0 1.7.3 1.7 1.1 0 .3 0 .6-.2.9l-2 6c-.3.9-1.1 1.4-2 1.4h-19v61c0 1.5-.3 1.8-1.7 1.8h-8c-1.4 0-1.7-.3-1.7-1.8v-61h-9.9c-1.5 0-1.8-.3-1.8-1.7v-5.9c0-1.5.3-1.8 1.8-1.8h9.9v-11.7c0-9.5.9-13.4 3.9-17.4 3.8-5 9.5-7.5 16.8-7.5 7.1 0 16.5 3 16.5 5.3.2.2.2.2-.1.8zM330.1 688.2h-28c-2.6 0-2.8-.4-2.8-3V571.1c0-2.6.4-3 2.8-3h24.5c35.9 0 49.2 21.2 49.2 58.3 0 32.8-8.9 61.8-45.7 61.8zm-2.7-104.4h-8.9v88.5h9.8c25.4 0 27.2-21.9 27.2-44.3 0-24.4-3.4-44.2-28.1-44.2zm130.4 66.3h-48.7c.7 17 7.7 25.8 21.2 25.8 10.3 0 15.9-3.9 21.4-6.3 1.1-.5 1.6-.4 2.3 1.1l4 8.8c1.1 2.1.4 3.2-1.8 4.4-7 4.4-18.6 7.2-27.7 7.2-23.8 0-37.7-16.6-37.7-45 0-27.7 14.4-45.7 36.4-45.7 21.5 0 33.3 15.4 33.3 43.4.1 3.8.2 6.3-2.7 6.3zm-16-13.5c-.4-15.6-5.3-23.1-15.6-23.1-10.5 0-15.8 7.4-17 23.1h32.6zm97.2 41.5c-6 8.4-14.2 12.8-24.5 12.8-8.1 0-13.3-2.1-20.1-8.1-.7 1.8-1.6 3.3-2.3 4.4-1.6 2.6-2.5 3.7-5.3 2.6l-10-3.7c-2.3-.9-1.8-2.5-1.1-3.5 2.8-4.7 3.9-9.6 3.9-17.9V567c0-1.8.5-2.5 2.5-2.8l12.6-2.6c2.1-.5 2.6-.4 2.6 2.1v44.5c8.6-5.8 14.7-8.1 22.2-8.1 18.2 0 28.2 14.7 28.2 41.3.1 16.7-2.7 28.1-8.7 36.7zm-24.5-63.2c-5.3 0-9.5 1.6-17.2 7v49.4c4.4 3.5 8.9 5.1 14.2 5.1 11.7 0 18-11.2 18-33.1.1-19.2-4.8-28.4-15-28.4zm102 67.4c.5 2.1.7 2.6-1.6 3.7-6.5 3-14.2 4.6-21 4.6-18.4 0-22.6-10.7-22.6-26.5v-47.6h-12.1c-2.3 0-2.8-.5-2.8-2.6v-8.4c0-2.1.5-2.6 2.8-2.6h12.1V580c0-1.8.5-2.3 2.3-2.6l11.9-2.3c2.3-.4 3.5-.9 3.5 2.1V603h23.1c2.6 0 2.5 1.2 1.9 3.2l-1.9 8.2c-.4 1.8-.9 2.3-2.6 2.3H589v45.9c0 10.3 1.6 12.8 8.6 12.8 5.1 0 8.8-1.6 13.3-3.5 2.5-1.1 2.6 0 3.2 1.8l2.4 8.6zm108.2 2.4L714 690c-2.5 1.2-3.5 0-4.7-2.3-1.1-1.9-2.1-4.6-3-7.9-7.5 7.5-14.4 10.5-23.6 10.5-15.1 0-24.9-9.8-24.9-25.2 0-26.3 25.2-30 45.9-30.1v-5.6c0-10.7-3.5-14.5-13.8-14.5-6 0-11.9 1.6-20.1 5.1-1.2.5-2.6.7-3.2-.9l-2.8-8.6c-1.2-3.5 1.6-4.4 3.2-5.1 8.4-3.5 16.8-5.1 25-5.1 19.3 0 28.9 7.9 28.9 26.5v34.3c0 9.8 1.1 14.7 4.2 20.7.5 1 .9 2.4-.4 2.9zm-21-36.9c-11 .2-28.6.9-28.6 16.1 0 7.5 5.1 13.1 11.9 13.1 5.4 0 10.7-2.6 16.6-8.4v-20.8zm66.4 43.1c-9.6 0-20.7-2.6-28.7-7.5-2.1-1.2-1.9-1.2-1.1-3.5l3.7-9.1c.7-1.9 2.1-1.1 3.3-.4 8.2 4 15.9 6.3 22.1 6.3 7.4 0 12.1-4.4 12.1-11 0-5.4-2.8-7-12.3-11.9-4.2-2.1-12.4-6.3-16.8-8.9-7.4-4.6-9.8-11.7-9.8-18.2 0-15.4 12.1-26.5 29.1-26.5 7.5 0 16.8 2.3 22.9 5.8 1.8 1.1 1.9 2.3 1.1 4l-3.7 7.7c-.9 1.9-1.9 1.6-3.5.9-6.1-2.8-11.9-4.4-16.5-4.4-7.9 0-12.3 3.9-12.3 10.3 0 5.3 2.8 7.4 10.7 11.6 4.2 2.3 14.5 7.5 17.3 9.1 8.9 5.1 11.2 10.9 11.2 19.1.1 15.9-11.5 26.6-28.8 26.6zm101.9-57c-15.8 0-24.5-10.9-24.5-29.6 0-19.4 9.8-31.4 25.4-31.4 15.2 0 24.5 11.2 24.5 29.4 0 19.6-9.2 31.6-25.4 31.6zm.7-49.7c-7 0-11.2 7.2-11.2 19.4 0 12.4 3.7 19.1 10.5 19.1 7.5 0 11.4-6.7 11.4-19.3 0-12.4-3.8-19.2-10.7-19.2zm20 106.7c-.7 1.8-1.6 2.6-3.5 2.6h-7.9c-3.3 0-3.5-1.2-2.5-3.9l48.5-116.3c.5-1.4 1.2-2.3 3.3-2.3h8.2c3.5 0 3.5.9 2.5 3.3l-48.6 116.6zm55.4-.6c-15.8 0-24.7-10.9-24.7-29.4 0-19.4 10-31.4 25.6-31.4 15.2 0 24.5 11 24.5 29.4 0 19.4-9.3 31.4-25.4 31.4zm.7-49.7c-7.2 0-11.2 7.2-11.2 19.4 0 12.4 3.7 19.1 10.5 19.1 7.4 0 11.4-6.7 11.4-19.4 0-12.4-3.9-19.1-10.7-19.1zm110.2 50.3c-22.8 0-36.1-16.6-36.1-45.2 0-28.4 13.8-45.5 37-45.5 22.6 0 36.1 16.6 36.1 45.2-.1 28.1-14.1 45.5-37 45.5zm.5-76.4c-11.9 0-17.7 9.6-17.7 30.5 0 21.7 5.6 31.5 17.7 31.5s17.5-9.8 17.5-31.5c0-20.9-5.6-30.5-17.5-30.5zm103-35.7c-.5 1.8-2.5 1.1-3.7.5-4-1.9-7.9-3-11.2-3-8.2 0-10.3 3.3-10.3 16.1v10.3h22.9c1.6 0 2.1.5 1.8 1.9l-2.8 9.8c-.5 1.8-1.1 1.9-1.8 1.9h-20.1V686c0 1.9-.2 2.3-2.5 2.3h-12.6c-2.3 0-2.5-.4-2.5-2.5v-69.4h-12.4c-1.9 0-2.6-.4-2.6-1.9V605c0-2.1.9-2.3 3-2.3h12.1v-10.3c0-13.3 1.6-19.1 7.5-24.5 4.7-4.4 10.7-6.5 18.6-6.5 6.8 0 15.2 1.9 18.9 4.4 1.8 1.2 1.4 1.9.9 3.3l-3.2 9.7zm113.1 100.7c0 1.8-.5 2.5-2.8 3.9-7.7 4.7-19.1 7.5-30.3 7.5-29.4 0-44.5-21-44.5-61.8 0-41.9 15.4-63.8 44.8-63.8 10.7 0 21.5 3.3 29.3 8.9 1.8 1.2 1.6 2.5.7 4.2l-4.6 8.9c-1.1 1.9-2.5 1.2-3.5.7-9.8-5.8-14.4-7.4-21.5-7.4-17.3 0-25.2 14.5-25.2 46.1 0 19.8 1.2 48.5 26.1 48.5 4.6 0 8.9-1.1 13.5-3.2v-30.3h-13.5c-2.6 0-3-.4-3-3v-9.5c0-2.6.4-3.2 3-3.2h28.4c2.5 0 3.2.5 3.2 3.2v50.3zm56.4 8.7h-28c-2.6 0-2.8-.4-2.8-3V571.1c0-2.6.4-3 2.8-3h24.5c35.9 0 49.2 21.2 49.2 58.3.1 32.8-8.9 61.8-45.7 61.8zm-2.6-104.4h-8.9v88.5h9.8c25.4 0 27.2-21.9 27.2-44.3-.1-24.4-3.4-44.2-28.1-44.2zm102.7 55h-11.4v46.4c0 2.6-.7 3-3.2 3h-13.3c-2.6 0-2.8-.4-2.8-3V571.1c0-2.6.2-3 2.8-3h27.7c15.1 0 22.8 1.8 28.6 6.8 6.3 5.6 9.8 14.9 9.8 25.8 0 25-16 38.1-38.2 38.1zm-1.4-55.8h-10v39.8h8.9c13.8 0 21.7-5.4 21.7-21.2 0-14.1-5.2-18.6-20.6-18.6z"/><path fill="#B2B2B2" d="M3645.3 98.8h250.2V349h-250.2z"/><path fill="#FFF" d="M3796.1 223.8c-5.3 5.8-5.8 6-22.9 19.3-9.1 7-12.3 12.4-12.4 19.8h41c3.2 0 3.7.5 3.7 3.7v12.3c0 3.2-.5 3.7-3.7 3.7h-63.1c-1.8 0-2.5-.7-2.5-2.5v-1.4c0-14.5 1.1-21.2 5.4-29.1 5.1-9.3 9.5-13.5 28-27.9 11.9-9.1 15.8-15.4 15.8-25.2 0-9.5-5.3-14.7-14.4-14.7-8.6 0-13 3.9-17.7 14.9-.7 1.8-1.6 2.6-2.6 2.6-.5 0-1.4-.2-1.9-.4l-11.2-4.2c-1.4-.5-2.1-1.4-2.1-2.6 0-4 4.6-13.1 9.3-18.4 6.7-7.5 16.1-11.4 28.4-11.4 21 0 33.3 12.3 33.3 33.5-.1 11.2-3.4 20.3-10.4 28z"/><path d="M3496.4 3536.8c-10.3 0-17.9-3.7-23.6-11.6-8.2-11.2-12.1-26.1-12.1-46.1 0-37.7 13.8-59.9 37.5-59.9 22.2 0 34.5 20.5 34.5 57.6 0 38.9-12.8 60-36.3 60zm.7-105.1c-14 0-22.2 17.2-22.2 46.4 0 15.1 2.1 27.5 6.3 36.1 3.3 6.8 8.4 10.2 15.4 10.2 8.1 0 13.5-3.9 16.6-11.7 3.5-8.4 5.3-20.8 5.3-35.4 0-30.4-7.2-45.6-21.4-45.6zM3485 3039c-7.2 0-15.1-1.1-21.9-2.8-1.8-.5-2.5-1.2-2.5-2.3 0-.3 0-1.1.2-1.4l1.8-7.9c.2-.7.7-1.2 1.6-1.2.3 0 1.1.2 1.8.4 5.1 1.9 10.7 2.8 17.2 2.8 9.8 0 16.8-2.5 20.8-7.4 4.2-4.9 6.7-12.4 6.7-20.5 0-14-6.8-22.2-18.2-22.2-7.2 0-13.8 3.2-20.3 9.6-.7.7-1.2 1.1-1.8 1.1l-1.4-.2-6.1-1.9c-1.6-.5-1.9-.9-1.9-1.8 0-.2 0-.5.2-1.1l5.4-56.2c.2-1.9.5-2.3 2.5-2.3h45.5c2.1 0 2.5.3 2.5 2.5v7.4c0 2.1-.3 2.5-2.5 2.5H3478l-3.9 35.6c7.4-5.4 13.3-7.5 21-7.5 17.7 0 29.8 13.8 29.8 34.3-.1 24.4-15.9 40.5-39.9 40.5zm95.1 0c-10.3 0-17.9-3.7-23.6-11.6-8.2-11.2-12.1-26.1-12.1-46.1 0-37.7 13.8-59.9 37.5-59.9 22.2 0 34.5 20.5 34.5 57.6 0 39-12.8 60-36.3 60zm.7-105.1c-14 0-22.2 17.2-22.2 46.4 0 15.1 2.1 27.5 6.3 36.1 3.3 6.8 8.4 10.2 15.4 10.2 8.1 0 13.5-3.9 16.6-11.7 3.5-8.4 5.3-20.8 5.3-35.4 0-30.4-7.2-45.6-21.4-45.6zm-58.8-397.6c0 2.1-.3 2.5-2.5 2.5h-46.4c-2.1 0-2.5-.4-2.5-2.5v-6.7c0-2.1.4-2.5 2.5-2.5h17.9v-85.7l-24.5 14.2c-.7.5-1.4.7-1.8.7-.5 0-.9-.4-1.4-1.6l-2.1-3.9c-.3-.5-.5-1.2-.5-1.8 0-.3.4-.9 1.4-1.4l31-21.9h8.8c2.1 0 2.5.3 2.5 2.5v98.8h15.2c2.1 0 2.5.4 2.5 2.5v6.8zm50.1 4.9c-10.3 0-17.9-3.7-23.6-11.6-8.2-11.2-12.1-26.1-12.1-46.1 0-37.7 13.8-59.9 37.5-59.9 22.2 0 34.5 20.5 34.5 57.6-.1 38.9-12.9 60-36.3 60zm.7-105.1c-14 0-22.2 17.2-22.2 46.4 0 15.1 2.1 27.5 6.3 36.1 3.3 6.8 8.4 10.2 15.4 10.2 8.1 0 13.5-3.9 16.6-11.7 3.5-8.4 5.3-20.8 5.3-35.4-.1-30.4-7.2-45.6-21.4-45.6zm86.9 105.1c-10.3 0-17.9-3.7-23.6-11.6-8.2-11.2-12.1-26.1-12.1-46.1 0-37.7 13.8-59.9 37.5-59.9 22.2 0 34.5 20.5 34.5 57.6-.1 38.9-12.9 60-36.3 60zm.7-105.1c-14 0-22.2 17.2-22.2 46.4 0 15.1 2.1 27.5 6.3 36.1 3.3 6.8 8.4 10.2 15.4 10.2 8.1 0 13.5-3.9 16.6-11.7 3.5-8.4 5.3-20.8 5.3-35.4-.1-30.4-7.3-45.6-21.4-45.6zM3522 2038.5c0 2.1-.3 2.5-2.5 2.5h-46.4c-2.1 0-2.5-.4-2.5-2.5v-6.7c0-2.1.4-2.5 2.5-2.5h17.9v-85.7l-24.5 14.2c-.7.5-1.4.7-1.8.7-.5 0-.9-.4-1.4-1.6l-2.1-3.9c-.3-.5-.5-1.2-.5-1.8 0-.4.4-.9 1.4-1.4l31-21.9h8.8c2.1 0 2.5.4 2.5 2.5v98.8h15.2c2.1 0 2.5.4 2.5 2.5v6.8zm46 4.9c-7.2 0-15.1-1.1-21.9-2.8-1.8-.5-2.5-1.2-2.5-2.3 0-.4 0-1.1.2-1.4l1.8-7.9c.2-.7.7-1.2 1.6-1.2.3 0 1.1.2 1.8.4 5.1 1.9 10.7 2.8 17.2 2.8 9.8 0 16.8-2.5 20.8-7.4 4.2-4.9 6.7-12.4 6.7-20.5 0-14-6.8-22.2-18.2-22.2-7.2 0-13.8 3.2-20.3 9.6-.7.7-1.2 1.1-1.8 1.1l-1.4-.2-6.1-1.9c-1.6-.5-1.9-.9-1.9-1.8 0-.2 0-.5.2-1.1l5.4-56.2c.2-1.9.5-2.3 2.5-2.3h45.5c2.1 0 2.5.4 2.5 2.5v7.4c0 2.1-.3 2.5-2.5 2.5H3561l-3.9 35.6c7.4-5.4 13.3-7.5 21-7.5 17.7 0 29.8 13.8 29.8 34.3-.1 24.4-15.9 40.5-39.9 40.5zm95.2 0c-10.3 0-17.9-3.7-23.6-11.6-8.2-11.2-12.1-26.1-12.1-46.1 0-37.7 13.8-59.9 37.5-59.9 22.2 0 34.5 20.5 34.5 57.6-.1 39-12.9 60-36.3 60zm.7-105.1c-14 0-22.2 17.2-22.2 46.4 0 15.1 2.1 27.5 6.3 36.1 3.3 6.8 8.4 10.2 15.4 10.2 8.1 0 13.5-3.9 16.6-11.7 3.5-8.4 5.3-20.8 5.3-35.4-.1-30.4-7.2-45.6-21.4-45.6zm-140-397.6c0 2.1-.3 2.5-2.5 2.5h-58.7c-1.8 0-2.1-.4-2.1-2.5 0-25 8.6-41.2 29.8-55.7 11.6-7.9 12.3-8.6 14.9-12.1 2.8-3.7 4.4-8.6 4.4-13.8 0-11.4-6.7-18.6-17.2-18.6-9.6 0-15.2 4.9-19.8 17.5-.4 1.1-.7 1.4-1.4 1.4-.4 0-.5 0-1.4-.4l-7.7-2.3c-.9-.4-1.4-.9-1.4-1.6 0-2.8 3.7-10.9 7-15.1 6-7.9 14.7-12.1 25.6-12.1 18.7 0 30.5 12.3 30.5 31.7 0 13.3-4.9 21.5-20.7 32.6-18.2 12.6-25.2 22.1-27.2 38h45.4c2.1 0 2.5.4 2.5 2.5v8zm55.9 4.9c-10.3 0-17.9-3.7-23.6-11.6-8.2-11.2-12.1-26.1-12.1-46.1 0-37.7 13.8-59.9 37.5-59.9 22.2 0 34.5 20.5 34.5 57.6-.1 39-12.8 60-36.3 60zm.7-105.1c-14 0-22.2 17.2-22.2 46.4 0 15.1 2.1 27.5 6.3 36.1 3.3 6.8 8.4 10.2 15.4 10.2 8.1 0 13.5-3.9 16.6-11.7 3.5-8.4 5.3-20.8 5.3-35.4 0-30.4-7.2-45.6-21.4-45.6zm86.9 105.1c-10.3 0-17.9-3.7-23.6-11.6-8.2-11.2-12.1-26.1-12.1-46.1 0-37.7 13.8-59.9 37.5-59.9 22.2 0 34.5 20.5 34.5 57.6-.1 39-12.9 60-36.3 60zm.7-105.1c-14 0-22.2 17.2-22.2 46.4 0 15.1 2.1 27.5 6.3 36.1 3.3 6.8 8.4 10.2 15.4 10.2 8.1 0 13.5-3.9 16.6-11.7 3.5-8.4 5.3-20.8 5.3-35.4-.1-30.4-7.2-45.6-21.4-45.6zm-144.2-397.6c0 2.1-.3 2.5-2.5 2.5h-58.7c-1.8 0-2.1-.4-2.1-2.5 0-25 8.6-41.2 29.8-55.7 11.6-7.9 12.3-8.6 14.9-12.1 2.8-3.7 4.4-8.6 4.4-13.8 0-11.4-6.7-18.6-17.2-18.6-9.6 0-15.2 4.9-19.8 17.5-.4 1.1-.7 1.4-1.4 1.4-.4 0-.5 0-1.4-.4l-7.7-2.3c-.9-.4-1.4-.9-1.4-1.6 0-2.8 3.7-10.9 7-15.1 6-7.9 14.7-12.1 25.6-12.1 18.7 0 30.5 12.3 30.5 31.7 0 13.3-4.9 21.5-20.7 32.6-18.2 12.6-25.2 22.1-27.2 38h45.4c2.1 0 2.5.4 2.5 2.5v8zm48.3 4.9c-7.2 0-15.1-1.1-21.9-2.8-1.8-.5-2.5-1.2-2.5-2.3 0-.4 0-1.1.2-1.4l1.8-7.9c.2-.7.7-1.2 1.6-1.2.3 0 1.1.2 1.8.4 5.1 1.9 10.7 2.8 17.2 2.8 9.8 0 16.8-2.5 20.8-7.4 4.2-4.9 6.7-12.4 6.7-20.5 0-14-6.8-22.2-18.2-22.2-7.2 0-13.8 3.2-20.3 9.6-.7.7-1.2 1.1-1.8 1.1l-1.4-.2-6.1-1.9c-1.6-.5-1.9-.9-1.9-1.8 0-.2 0-.5.2-1.1l5.4-56.2c.2-1.9.5-2.3 2.5-2.3h45.5c2.1 0 2.5.4 2.5 2.5v7.4c0 2.1-.4 2.5-2.5 2.5h-36.6l-3.9 35.6c7.4-5.4 13.3-7.5 21-7.5 17.7 0 29.8 13.8 29.8 34.3-.1 24.4-15.9 40.5-39.9 40.5zm95.2 0c-10.3 0-17.9-3.7-23.6-11.6-8.2-11.2-12.1-26.1-12.1-46.1 0-37.7 13.8-59.9 37.5-59.9 22.2 0 34.5 20.5 34.5 57.6-.1 39-12.9 60-36.3 60zm.7-105.1c-14 0-22.2 17.2-22.2 46.4 0 15.1 2.1 27.5 6.3 36.1 3.3 6.8 8.4 10.2 15.4 10.2 8.1 0 13.5-3.9 16.6-11.7 3.5-8.4 5.3-20.8 5.3-35.4-.1-30.4-7.2-45.6-21.4-45.6z"/><g fill="none" stroke-miterlimit="6"><path stroke="#000" stroke-width="7.508" d="M300.3 3470h3110.3"/><path stroke="#C6C6C6" stroke-width="17.517" d="M300.3 2972.2h3110.3M300.3 2474.4h3110.3M300.3 1976.6h3110.3M300.3 1478.8h3110.3M300.3 981.1h3110.3"/></g><path fill="none" stroke="#000" stroke-width="7.508" stroke-miterlimit="6" d="M440.2 3470.5v117.6m265.2-113.7v75m265.3-78.9v117.6m265.2-113.7v75m265.3-78.9v117.6m265.3-113.7v75m265.2-78.9v117.6m265.3-113.7v75m265.2-78.9v117.6m265.3-113.7v75m265.2-78.9v117.6m265.3-117.6v117.6"/><path d="M358.1 3771c0 2.1-.4 2.5-2.5 2.5h-46.4c-2.1 0-2.5-.4-2.5-2.5v-6.7c0-2.1.4-2.5 2.5-2.5h17.9v-85.7l-24.5 14.2c-.7.5-1.4.7-1.8.7-.5 0-.9-.4-1.4-1.6l-2.1-3.9c-.4-.5-.5-1.2-.5-1.8 0-.3.4-.9 1.4-1.4l31-21.9h8.8c2.1 0 2.5.4 2.5 2.5v98.8h15.2c2.1 0 2.5.4 2.5 2.5v6.8zm40 4.9c-9.6 0-16.6-1.8-16.6-4.2v-1.2l.9-6.8c0-.9.5-1.4 1.4-1.4.4 0 .9.2 1.4.4 3.2.9 6.8 1.4 10.7 1.4 18.4 0 28-11.7 32.2-39.6-5.6 9.3-12.8 13.5-22.8 13.5-17.7 0-29.6-15.6-29.6-38.9 0-24.2 13.8-40.6 34.2-40.6 21.5 0 32.4 16.1 32.4 48-.1 43.1-16.7 69.4-44.2 69.4zm11.2-105.1c-11.9 0-19.4 10.7-19.4 27.5 0 17.3 7 27.7 18.9 27.7 12.4 0 19.3-10 19.3-28.2-.1-17.6-6.6-27-18.8-27zm88.3 105.1c-10.3 0-17.9-3.7-23.6-11.6-8.2-11.2-12.1-26.1-12.1-46.1 0-37.7 13.8-59.9 37.5-59.9 22.2 0 34.5 20.5 34.5 57.6-.1 39-12.9 60-36.3 60zm.7-105.1c-14 0-22.2 17.2-22.2 46.4 0 15.1 2.1 27.5 6.3 36.1 3.3 6.8 8.4 10.2 15.4 10.2 8.1 0 13.5-3.9 16.6-11.7 3.5-8.4 5.3-20.8 5.3-35.4-.1-30.4-7.2-45.6-21.4-45.6zm86.8 105.1c-10.3 0-17.9-3.7-23.6-11.6-8.2-11.2-12.1-26.1-12.1-46.1 0-37.7 13.8-59.9 37.5-59.9 22.2 0 34.5 20.5 34.5 57.6 0 39-12.8 60-36.3 60zm.7-105.1c-14 0-22.2 17.2-22.2 46.4 0 15.1 2.1 27.5 6.3 36.1 3.3 6.8 8.4 10.2 15.4 10.2 8.1 0 13.5-3.9 16.6-11.7 3.5-8.4 5.3-20.8 5.3-35.4 0-30.4-7.2-45.6-21.4-45.6zm372.6 97.6c0 2.1-.4 2.5-2.5 2.5h-58.7c-1.8 0-2.1-.4-2.1-2.5 0-25 8.6-41.2 29.8-55.7 11.6-7.9 12.3-8.6 14.9-12.1 2.8-3.7 4.4-8.6 4.4-13.8 0-11.4-6.7-18.6-17.2-18.6-9.6 0-15.2 4.9-19.8 17.5-.4 1.1-.7 1.4-1.4 1.4-.4 0-.5 0-1.4-.4l-7.7-2.3c-.9-.4-1.4-.9-1.4-1.6 0-2.8 3.7-10.9 7-15.1 6-7.9 14.7-12.1 25.6-12.1 18.7 0 30.5 12.3 30.5 31.7 0 13.3-4.9 21.5-20.7 32.6-18.2 12.6-25.2 22.1-27.2 38H956c2.1 0 2.5.3 2.5 2.5v8zm55.9 4.9c-10.3 0-17.9-3.7-23.6-11.6-8.2-11.2-12.1-26.1-12.1-46.1 0-37.7 13.8-59.9 37.5-59.9 22.2 0 34.5 20.5 34.5 57.6-.1 39-12.8 60-36.3 60zm.7-105.1c-14 0-22.2 17.2-22.2 46.4 0 15.1 2.1 27.5 6.3 36.1 3.3 6.8 8.4 10.2 15.4 10.2 8.1 0 13.5-3.9 16.6-11.7 3.5-8.4 5.3-20.8 5.3-35.4 0-30.3-7.2-45.6-21.4-45.6zm480.7 75.4c0 2.1-.4 2.5-2.5 2.5h-13.8v24.9c0 2.1-.4 2.5-2.5 2.5h-8.2c-2.1 0-2.5-.4-2.5-2.5v-25h-44.8c-2.1 0-2.5-.4-2.5-2.5v-9.8l45.4-75.1c.7-1.1 1.2-1.4 1.9-1.4h1.1l8.8 1.4c1.6.2 2.1.7 2.1 1.6 0 .4-.2.9-.7 1.6l-44.7 72.9h33.5l1.9-28.2c.2-1.9.5-2.3 2.5-2.3h6.3c2.1 0 2.5.4 2.5 2.5v28h13.8c2.1 0 2.5.4 2.5 2.5v6.4zm49.1 29.7c-10.3 0-17.9-3.7-23.6-11.6-8.2-11.2-12.1-26.1-12.1-46.1 0-37.7 13.8-59.9 37.5-59.9 22.2 0 34.5 20.5 34.5 57.6 0 39-12.8 60-36.3 60zm.7-105.1c-14 0-22.2 17.2-22.2 46.4 0 15.1 2.1 27.5 6.3 36.1 3.3 6.8 8.4 10.2 15.4 10.2 8.1 0 13.5-3.9 16.6-11.7 3.5-8.4 5.3-20.8 5.3-35.4 0-30.3-7.2-45.6-21.4-45.6zm442.2 105.1c-11.2 0-21-6-26.6-16.1-4.6-8.4-6.7-18-6.7-31.9 0-42.4 18.9-69.5 48.3-69.5 7.4 0 15.1 1.9 15.1 3.7 0 .3 0 .3-.2 1.1l-2.1 8.1c-.2.5-.5.9-1.1.9-.4 0-.9-.2-1.4-.4-3.5-1.2-7.2-1.9-11-1.9-9.6 0-16.8 3.9-22.9 12.4-5.3 7.4-7.7 14.5-9.3 25.9 7.2-8.2 13.3-11.4 22.2-11.4 17.9 0 29.4 14.9 29.4 37.5.1 24.5-13.7 41.6-33.7 41.6zm0-67c-12.1 0-19.1 9.1-19.1 25.2 0 18.9 6.8 29.4 19.3 29.4 12.4 0 19.4-10.3 19.4-29.1 0-16.6-6.8-25.5-19.6-25.5zm87.6 67c-10.3 0-17.9-3.7-23.6-11.6-8.2-11.2-12.1-26.1-12.1-46.1 0-37.7 13.8-59.9 37.5-59.9 22.2 0 34.5 20.5 34.5 57.6 0 39-12.8 60-36.3 60zm.7-105.1c-14 0-22.2 17.2-22.2 46.4 0 15.1 2.1 27.5 6.3 36.1 3.3 6.8 8.4 10.2 15.4 10.2 8.1 0 13.5-3.9 16.6-11.7 3.5-8.4 5.3-20.8 5.3-35.4 0-30.3-7.2-45.6-21.4-45.6zm471.3 93.4c-7 8.1-15.9 11.7-28.9 11.7-22.2 0-36.8-12.4-36.8-31.5 0-8.6 3.7-16.8 10-22.2 3.9-3.3 7.9-5.4 15.6-8.4-14-5.8-20.7-14.5-20.7-27.2 0-7.4 2.8-14.2 8.1-19.4 6.1-6 13.5-8.8 24.2-8.8 18.6 0 31.4 10.9 31.4 26.6 0 13-6 21.5-19.8 28.6 16.3 6.3 24.9 17 24.9 30.7-.1 7.1-2.7 14.1-8 19.9zm-29.2-43.6c-6.1 2.6-8.2 3.7-11.2 5.4-6.7 4-10.9 11.6-10.9 19.1 0 11.6 9.1 19.3 22.8 19.3 13 0 22.1-8.1 22.1-19.3 0-10.7-6.7-17.9-22.8-24.5zm.2-51c-10.7 0-17.9 6.7-17.9 16.5 0 8.9 5.8 15.8 18.6 22.1 12.6-5.6 17.9-12.1 17.9-21.7-.1-10.4-7.2-16.9-18.6-16.9zm87.6 106.3c-10.3 0-17.9-3.7-23.6-11.6-8.2-11.2-12.1-26.1-12.1-46.1 0-37.7 13.8-59.9 37.5-59.9 22.2 0 34.5 20.5 34.5 57.6-.1 39-12.9 60-36.3 60zm.7-105.1c-14 0-22.2 17.2-22.2 46.4 0 15.1 2.1 27.5 6.3 36.1 3.3 6.8 8.4 10.2 15.4 10.2 8.1 0 13.5-3.9 16.6-11.7 3.5-8.4 5.3-20.8 5.3-35.4-.1-30.3-7.3-45.6-21.4-45.6zm373.8 100.2c0 2.1-.4 2.5-2.5 2.5h-58.7c-1.8 0-2.1-.4-2.1-2.5 0-25 8.6-41.2 29.8-55.7 11.6-7.9 12.3-8.6 14.9-12.1 2.8-3.7 4.4-8.6 4.4-13.8 0-11.4-6.7-18.6-17.2-18.6-9.6 0-15.2 4.9-19.8 17.5-.4 1.1-.7 1.4-1.4 1.4-.4 0-.5 0-1.4-.4l-7.7-2.3c-.9-.4-1.4-.9-1.4-1.6 0-2.8 3.7-10.9 7-15.1 6-7.9 14.7-12.1 25.6-12.1 18.7 0 30.5 12.3 30.5 31.7 0 13.3-4.9 21.5-20.7 32.6-18.2 12.6-25.2 22.1-27.2 38h45.4c2.1 0 2.5.3 2.5 2.5v8zm55.9 4.9c-10.3 0-17.9-3.7-23.6-11.6-8.2-11.2-12.1-26.1-12.1-46.1 0-37.7 13.8-59.9 37.5-59.9 22.2 0 34.5 20.5 34.5 57.6-.1 39-12.9 60-36.3 60zm.7-105.1c-14 0-22.2 17.2-22.2 46.4 0 15.1 2.1 27.5 6.3 36.1 3.3 6.8 8.4 10.2 15.4 10.2 8.1 0 13.5-3.9 16.6-11.7 3.5-8.4 5.3-20.8 5.3-35.4-.1-30.3-7.2-45.6-21.4-45.6zm86.9 105.1c-10.3 0-17.9-3.7-23.6-11.6-8.2-11.2-12.1-26.1-12.1-46.1 0-37.7 13.8-59.9 37.5-59.9 22.2 0 34.5 20.5 34.5 57.6-.1 39-12.9 60-36.3 60zm.7-105.1c-14 0-22.2 17.2-22.2 46.4 0 15.1 2.1 27.5 6.3 36.1 3.3 6.8 8.4 10.2 15.4 10.2 8.1 0 13.5-3.9 16.6-11.7 3.5-8.4 5.3-20.8 5.3-35.4-.1-30.3-7.3-45.6-21.4-45.6zm86.8 105.1c-10.3 0-17.9-3.7-23.6-11.6-8.2-11.2-12.1-26.1-12.1-46.1 0-37.7 13.8-59.9 37.5-59.9 22.2 0 34.5 20.5 34.5 57.6 0 39-12.8 60-36.3 60zm.7-105.1c-14 0-22.2 17.2-22.2 46.4 0 15.1 2.1 27.5 6.3 36.1 3.3 6.8 8.4 10.2 15.4 10.2 8.1 0 13.5-3.9 16.6-11.7 3.5-8.4 5.3-20.8 5.3-35.4 0-30.3-7.2-45.6-21.4-45.6zm148.6 100.2c0 2.1-.3 2.5-2.5 2.5h-46.4c-2.1 0-2.5-.4-2.5-2.5v-6.7c0-2.1.3-2.5 2.5-2.5h17.9v-85.7l-24.5 14.2c-.7.5-1.4.7-1.8.7-.5 0-.9-.4-1.4-1.6l-2.1-3.9c-.4-.5-.5-1.2-.5-1.8 0-.3.4-.9 1.4-1.4l31-21.9h8.8c2.1 0 2.5.4 2.5 2.5v98.8h15.2c2.1 0 2.5.4 2.5 2.5v6.8zm50.1 4.9c-10.3 0-17.9-3.7-23.6-11.6-8.2-11.2-12.1-26.1-12.1-46.1 0-37.7 13.8-59.9 37.5-59.9 22.2 0 34.5 20.5 34.5 57.6 0 39-12.8 60-36.3 60zm.7-105.1c-14 0-22.2 17.2-22.2 46.4 0 15.1 2.1 27.5 6.3 36.1 3.3 6.8 8.4 10.2 15.4 10.2 8.1 0 13.5-3.9 16.6-11.7 3.5-8.4 5.3-20.8 5.3-35.4 0-30.3-7.2-45.6-21.4-45.6z"/><path fill="none" stroke="#0F6967" stroke-width="43.794" stroke-miterlimit="10" d="M440.2 3366.8l26.5 7.5 26.5 6.6 26.5 4.5 26.6-3.1 26.5 9.1 26.5 3.6 26.5 2.9 26.6-14.7 26.5 5.2 26.5 2.6 26.5-1.2 26.6 3.9 26.5 2.1 26.5-5.2 26.6.8 26.5 6.2 26.5-22.9 26.5-96.3 26.6-156.6 26.5 56 26.5-32.1 26.5 12.9 26.6 50.9 26.5 17.1 26.5 18 26.5 23.6 26.6 8.9 26.5 13 26.5 17.2 26.5-13.9 26.6-42 26.5-111.9 26.5-67.3 26.5-10.3 26.6 18.3 26.5-11.5 26.5 6.7 26.5-35.1 26.6-6.9 26.5 14.8 26.5 37.1 26.5-60.6 26.6-239.9 26.5-225.2 26.5-244.5 26.6-52.2 26.5 153.7 26.5 120 26.5-8.4 26.6 69.4 26.5 123.6 26.5 28.9 26.5 21.5 26.6-11.5 26.5 51.2 26.5 37.9 26.5 36.7 26.6-4.7 26.5 29.3 26.5 18 26.5 13.5 26.6 21.1 26.5 14 26.5 25.3 26.5 28.4 26.6 34.9 26.5 14.2 26.5 9.8 26.5 22.6 26.6 2.1 26.5 3.9 26.5 8.1 26.5 13.7 26.6 14.5 26.5-8.7 26.5-14.4 26.6-4.2 26.5 7.9 26.5 13.7 26.5-3 26.6 6.4 26.5-31.8 26.5-38.4 26.5-10.3 26.6-32.1 26.5-44.1 26.5-19.6 26.5-13.9 26.6-11 26.5-36 26.5-54.1 26.5-29 26.6-20.7 26.5-.7 26.5-8.4 26.5 4.2 26.6 16.9 26.5 21.1 26.5 23.6 26.5 34.4 26.6 5.5 26.5-20.5 26.5-23.5 26.5-12.9 26.6-5.9 26.5-7.2 26.5-4.9 26.5-100.6 26.6-94.1 26.5-63.1" stroke-linejoin="bevel"/><path fill="none" stroke="#43B7AC" stroke-width="43.794" stroke-miterlimit="10" d="M440.2 3169.7l26.5-30.6 26.5-26.7 26.5-20.9 26.6 2.1 26.5 15.1 26.5 18.7 26.5 20.6 26.6-9.5 26.5 9.1 26.5 7.3 26.5 24.2 26.6 19.1 26.5 14.7 26.5 5.3 26.6-112.4 26.5-246.7 26.5-317.5 26.5-211.7 26.6-205.9 26.5 44.8 26.5-232 26.5-172.5 26.6-103.1 26.5 69.5 26.5 64.2 26.5-52.3 26.6 94.7 26.5 5.8 26.5 38.1 26.5-19.8 26.6-98.7 26.5-42.5 26.5-18 26.5 46.4 26.6 78.6 26.5 88.9 26.5 100.9 26.5 3 26.6 79 26.5 276.2 26.5-97.8 26.5-176.7 26.6-191.5 26.5-254.5 26.5-331.6 26.6-213.8 26.5-8.2 26.5 241.2 26.5 159.7 26.6 34.4 26.5 189.1 26.5 135.9 26.5 96 26.6 54.3 26.5 83.5 26.5 90.8 26.5 67.9 26.6 39.9 26.5 56.8 26.5 56.4 26.5 36.7 26.6 31.3 26.5 16.5 26.5 71.1 26.5 61 26.6 27.5 26.5 26.6 26.5 10.3 26.5 60.3 26.6 82.6 26.5 59.8 26.5 24.8 26.5 58.4 26.6 15.5 26.5 44.3 26.5-13.6 26.6-9.1 26.5-10.5 26.5 31.4 26.5 27 26.6 24.9 26.5-22.5 26.5-2.6 26.5 4.9 26.6 4 26.5-6.9 26.5 25.5 26.5 28.9 26.6 32.7 26.5 49.4 26.5 16.4 26.5 11.9 26.6-11.2 26.5-149.3 26.5-26.7 26.5-12.1 26.6 8.2 26.5 28.7 26.5 20.2 26.5 55 26.6 12.6 26.5-10 26.5-9.4 26.5-16.1 26.6-17.7 26.5-10.1 26.5-63.6 26.5 15.5 26.6-119 26.5-166.8" stroke-linejoin="bevel"/><path fill="#0F6967" d="M1418.5 3314c0 11.4-2.6 18.7-8.8 24.7-7.2 7-15.9 10-29.6 10-24.2 0-35.9-11.4-35.9-34.7v-85.5c0-2.1.4-2.5 2.5-2.5h9.5c2.1 0 2.5.4 2.5 2.5v85c0 17 6.1 23.5 22.2 23.5 16.3 0 23.8-7.4 23.8-23.5v-85c0-2.1.4-2.5 2.5-2.5h8.9c2.1 0 2.5.4 2.5 2.5v85.5zm88.8 30.2c0 1.8-.4 2.1-1.9 2.1h-9.3c-1.6 0-1.9-.4-1.9-2.1v-58.5c0-10.3-3.3-14.5-11.6-14.5-8.1 0-14.4 3-23.1 11v62c0 1.8-.4 2.1-1.9 2.1h-9.3c-1.6 0-1.9-.4-1.9-2.1v-60.1c0-8.1-.7-11-3.3-16.8-.2-.4-.4-.9-.4-1.1 0-.4.4-.9.9-1.1l7.9-4.6c.7-.4 1.1-.5 1.4-.5 1.8 0 4.2 4.9 5.4 11.6 10.7-8.6 18.6-11.9 28.2-11.9 8.2 0 14.7 3 17.9 8.4 2.5 4.2 3 7.7 3 17.7v58.4zm45.2 0c0 1.8-.4 2.1-1.9 2.1h-9.3c-1.6 0-1.9-.4-1.9-2.1V3273h-14c-1.8 0-2.1-.4-2.1-1.9v-6.8c0-1.8.4-2.1 2.1-2.1h25.2c1.6 0 1.9.4 1.9 2.1v79.9zm-7.9-102.5c-6 0-10.7-4.7-10.7-10.7 0-5.8 4.7-10.5 10.9-10.5 5.6 0 10.3 4.7 10.3 10.5 0 6-4.7 10.7-10.5 10.7zm59.9 106.3c-8.8 0-15.9-3.7-19.1-9.8-1.8-3.5-2.3-6.7-2.3-15.8V3273h-12.4c-1.9 0-2.1-.2-2.1-1.9v-6.8c0-1.8.4-2.1 2.1-2.1h12.4v-24c0-1.1.7-1.9 1.8-2.3l9.1-2.5c.9-.3.9-.3 1.1-.3 1.1 0 1.2.3 1.2 2.1v27h26.3c1.1 0 1.6.4 1.6 1.2 0 .3 0 .3-.2 1.1l-1.9 6.8c-.4 1.2-1.1 1.8-2.5 1.8h-23.3v49.4c0 7 .2 8.6 1.8 10.7 1.8 2.3 4.7 3.5 8.8 3.5 4.4 0 8.1-1.1 15.8-4.4.4-.2.9-.4 1.2-.4.5 0 1.1.4 1.2 1.1l1.9 7.2c.4.7.4.7.4.9-.1 2.7-13.9 6.9-22.9 6.9zm95.3-40.8h-50.3c.9 19.1 8.9 29.6 23.1 29.6 6.3 0 12.6-1.9 20.3-6.3.5-.3 1.2-.5 1.8-.5.4 0 .9.4 1.2.9l3.2 6.8c.4.9.4.9.4 1.2 0 1.4-1.6 2.6-6.3 4.9-6.8 3.2-14.2 4.9-21.5 4.9-22.2 0-36.4-17.2-36.4-44.3 0-27.3 13.5-44.7 34.5-44.7 14.2 0 24.7 7.7 29.4 21 1.9 5.6 2.6 12.1 2.6 23.3 0 2.5-.4 3.2-2 3.2zm-12.2-10.9c-.4-16.8-7-25.9-18.7-25.9s-18.4 8.9-19.1 25.9h37.8zm97.4 46.8l-7.9 4.4c-.4.3-1.1.5-1.4.5-1.6 0-4.4-4.9-5.8-10.5-11.4 8.6-17.7 11.2-26.1 11.2-17.2 0-27.5-17-27.5-45.4 0-27 11.9-43.6 31.4-43.6 6.5 0 11.9 1.6 19.3 5.6V3224c0-1.1.7-1.9 1.8-2.3l9.1-2.1c.4-.2.7-.2 1.1-.2.9 0 1.2.5 1.2 1.9v97.2c0 10.9.9 15.1 4.4 20.7 1.4 2.3 1.4 2.3 1.4 2.8-.2.4-.3.8-1 1.1zm-18.1-66c-7.4-4.2-11.9-5.6-17.9-5.6-13.1 0-18.6 9.1-18.6 31.2 0 24.2 4.7 34.2 16.3 34.2 6.7 0 12.4-3 20.1-10.2v-49.6zm104.1 71.6c-13.1 0-33.1-6.3-33.1-10.5 0-.4.2-1.1.4-1.4l3.3-8.4c.2-.5.7-.9 1.2-.9s.7 0 3 1.2c8.6 4.7 17.9 7.4 25.4 7.4 13 0 21.4-7.9 21.4-19.8 0-10.7-4.6-16.1-21.9-26.1-14.7-8.4-17.9-10.7-22.1-15.4-4.6-5.3-7-12.3-7-19.4 0-18.6 14.2-31.7 34.5-31.7 11.7 0 29.3 5.8 29.3 9.5 0 .3 0 .3-.4 1.4l-3.2 7.9c-.4.7-.7 1.1-1.4 1.1-.5 0-.5 0-7.5-3.5-4.9-2.3-11.4-3.9-17-3.9-12.1 0-19.3 6.5-19.3 17.3 0 6.1 2.5 11.4 7 14.9 3.9 3 3.9 3 21 13.1 10.3 6.1 13.7 8.8 17.3 14 3.9 5.3 5.8 11.9 5.8 18.9.1 20.5-14.8 34.3-36.7 34.3zm79.2-.7c-8.8 0-15.9-3.7-19.1-9.8-1.8-3.5-2.3-6.7-2.3-15.8V3273h-12.4c-1.9 0-2.1-.2-2.1-1.9v-6.8c0-1.8.4-2.1 2.1-2.1h12.4v-24c0-1.1.7-1.9 1.8-2.3l9.1-2.5c.9-.3.9-.3 1.1-.3 1.1 0 1.2.3 1.2 2.1v27h26.3c1.1 0 1.6.4 1.6 1.2 0 .3 0 .3-.2 1.1l-1.9 6.8c-.4 1.2-1.1 1.8-2.5 1.8H1942v49.4c0 7 .2 8.6 1.8 10.7 1.8 2.3 4.7 3.5 8.8 3.5 4.4 0 8.1-1.1 15.8-4.4.4-.2.9-.4 1.2-.4.5 0 1.1.4 1.2 1.1l1.9 7.2c.4.7.4.7.4.9-.2 2.7-14 6.9-22.9 6.9zm96.1-5.2l-7.5 4.7c-.5.3-1.2.5-1.4.5-1.8 0-4.9-5.3-6.7-11-7.9 7.7-15.4 11-25 11-14.2 0-23.1-9.3-23.1-24 0-20 15.2-30 46.2-30.5v-5.8c0-11.2-4.6-15.6-16.1-15.6-6.8 0-11.7 1.2-20.8 5.1-.5.2-1.1.4-1.2.4-.5 0-1.1-.4-1.2-.9l-2.6-7-.2-1.4c0-1.1.9-1.8 4.7-3.3 7-3.2 14.9-4.7 23.3-4.7 18.6 0 27.3 7.9 27.3 24.5v33.1c0 12.1.9 16.1 4.7 22.9.2.4.4.7.4 1.1-.1.3-.4.7-.8.9zm-17.5-38.4c-21.9.2-32.8 6.3-32.8 18.6 0 8.2 5.3 14 12.8 14 6.1 0 12.3-3.2 20-10v-22.6zm65.7 43.6c-8.8 0-15.9-3.7-19.1-9.8-1.8-3.5-2.3-6.7-2.3-15.8V3273h-12.4c-1.9 0-2.1-.2-2.1-1.9v-6.8c0-1.8.4-2.1 2.1-2.1h12.4v-24c0-1.1.7-1.9 1.8-2.3l9.1-2.5c.9-.3.9-.3 1.1-.3 1.1 0 1.2.3 1.2 2.1v27h26.3c1.1 0 1.6.4 1.6 1.2 0 .3 0 .3-.2 1.1l-1.9 6.8c-.4 1.2-1.1 1.8-2.5 1.8h-23.3v49.4c0 7 .2 8.6 1.8 10.7 1.8 2.3 4.7 3.5 8.8 3.5 4.4 0 8.1-1.1 15.8-4.4.4-.2.9-.4 1.2-.4.5 0 1.1.4 1.2 1.1l1.9 7.2c.4.7.4.7.4.9-.1 2.7-14 6.9-22.9 6.9zm95.3-40.8h-50.3c.9 19.1 8.9 29.6 23.1 29.6 6.3 0 12.6-1.9 20.3-6.3.5-.3 1.2-.5 1.8-.5.4 0 .9.4 1.2.9l3.2 6.8c.3.9.3.9.3 1.2 0 1.4-1.6 2.6-6.3 4.9-6.8 3.2-14.2 4.9-21.5 4.9-22.2 0-36.4-17.2-36.4-44.3 0-27.3 13.5-44.7 34.5-44.7 14.2 0 24.7 7.7 29.4 21 1.9 5.6 2.6 12.1 2.6 23.3 0 2.5-.3 3.2-1.9 3.2zm-12.3-10.9c-.4-16.8-7-25.9-18.7-25.9s-18.4 8.9-19.1 25.9h37.8zm52.9 52.4c-8.8 0-18.7-2.6-25.9-6.8-.9-.5-1.1-.9-1.1-1.6 0-.4 0-.4.2-.7l3.3-7.7c.2-.4.7-.7 1.1-.7s.9.2 1.4.3c7.7 3.9 15.4 6 21.4 6 8.4 0 14-5.1 14-12.6 0-6-3-9.5-11.2-13.3-11.7-5.4-15.4-7.4-19.6-10.9-5.4-4.4-8.1-9.8-8.1-16.6 0-14.2 11-24.3 26.6-24.3 9.1 0 22.6 4.4 22.6 7.4 0 .4 0 .4-.4 1.2l-3.2 6.5c-.4.5-1.1 1.1-1.6 1.1-.4 0-.7-.2-1.4-.4-6.7-3.2-11.7-4.6-16.5-4.6-8.4 0-13.3 4.4-13.3 11.7 0 3.3 1.2 6.5 3.5 8.6 2.5 2.3 2.5 2.3 18.4 10 13 6.3 17.5 12.1 17.5 22.6.2 14.8-11 24.8-27.7 24.8z"/><path fill="#18B1A5" d="M1829.6 1259.9c-5.4 1.9-10.3 2.3-22.8 2.3h-25.4c-2.1 0-2.5-.4-2.5-2.5v-115.3c0-2.1.4-2.5 2.5-2.5h28.6c12.4 0 18.4 1.2 23.8 4.7 7 4.6 11.2 13.5 11.2 24 0 13.1-6 23.1-17.2 28.6 6.3 1.8 9.3 3.2 12.6 6.1 5.8 5.4 9.3 14 9.3 23.6 0 14.8-7.7 26.8-20.1 31zm-20-106.2h-16.3v41.3h12.6c8.4 0 11-.5 14.9-3.2 5.6-3.9 8.6-10.5 8.6-19.6 0-13.4-5.4-18.5-19.8-18.5zm14.6 55.9c-3.5-1.9-8.2-2.8-14.4-2.8h-16.5v43.6h17.2c8.1 0 12.1-1.1 16.1-4.2 4.7-3.7 7.5-10 7.5-17.7.1-8.6-3.6-15.4-9.9-18.9zm93.3-30l-4.2 9.8c-.2.4-.5.5-.9.5-.2 0-.2 0-3-.9-.9-.2-1.9-.4-3-.4-4.6 0-8.4 3-17.3 13.3v58c0 1.8-.4 2.1-1.9 2.1h-9.3c-1.6 0-1.9-.4-1.9-2.1v-52.6c0-13.8-.5-16.8-4.2-23.5-.5-.9-.7-1.4-.7-1.8 0-.7.4-1.2.9-1.6l7.4-4.6c.5-.4.9-.5 1.4-.5 2.1 0 5.4 7.4 6.7 14.5 11-12.4 14.4-14.5 21.7-14.5 4 0 8.8 1.6 8.8 2.8-.1.7-.3 1.2-.5 1.5zm39.1 80.4c0 1.8-.4 2.1-1.9 2.1h-9.3c-1.6 0-1.9-.4-1.9-2.1v-71.1h-14c-1.8 0-2.1-.4-2.1-1.9v-6.8c0-1.8.4-2.1 2.1-2.1h25.2c1.6 0 1.9.4 1.9 2.1v79.8zm-7.9-102.4c-6 0-10.7-4.7-10.7-10.7 0-5.8 4.7-10.5 10.9-10.5 5.6 0 10.3 4.7 10.3 10.5 0 5.9-4.7 10.7-10.5 10.7zm59.9 106.3c-8.8 0-15.9-3.7-19.1-9.8-1.8-3.5-2.3-6.7-2.3-15.8v-49.4h-12.4c-1.9 0-2.1-.2-2.1-1.9v-6.8c0-1.8.4-2.1 2.1-2.1h12.4v-24c0-1.1.7-1.9 1.8-2.3l9.1-2.5c.9-.4.9-.4 1.1-.4 1.1 0 1.2.4 1.2 2.1v27h26.3c1.1 0 1.6.4 1.6 1.2 0 .4 0 .4-.2 1.1l-1.9 6.8c-.4 1.2-1.1 1.8-2.5 1.8h-23.3v49.4c0 7 .2 8.6 1.8 10.7 1.8 2.3 4.7 3.5 8.8 3.5 4.4 0 8.1-1.1 15.8-4.4.4-.2.9-.4 1.2-.4.5 0 1.1.4 1.2 1.1l1.9 7.2c.4.7.4.7.4.9-.1 2.8-13.9 7-22.9 7zm96.2-5.3l-7.5 4.7c-.5.4-1.2.5-1.4.5-1.8 0-4.9-5.3-6.7-11-7.9 7.7-15.4 11-25 11-14.2 0-23.1-9.3-23.1-24 0-20 15.2-30 46.2-30.5v-5.8c0-11.2-4.6-15.6-16.1-15.6-6.8 0-11.7 1.2-20.8 5.1-.5.2-1.1.4-1.2.4-.5 0-1.1-.4-1.2-.9l-2.6-7-.2-1.4c0-1.1.9-1.8 4.7-3.3 7-3.2 14.9-4.7 23.3-4.7 18.6 0 27.3 7.9 27.3 24.5v33.1c0 12.1.9 16.1 4.7 22.9.2.4.4.7.4 1.1-.1.4-.5.8-.8.9zm-17.5-38.3c-21.9.2-32.8 6.3-32.8 18.6 0 8.2 5.3 14 12.8 14 6.1 0 12.3-3.2 20-10v-22.6zm59 39.7c0 1.8-.4 2.1-1.9 2.1h-9.3c-1.6 0-1.9-.4-1.9-2.1v-71.1h-14c-1.8 0-2.1-.4-2.1-1.9v-6.8c0-1.8.4-2.1 2.1-2.1h25.2c1.6 0 1.9.4 1.9 2.1v79.8zm-7.9-102.4c-6 0-10.7-4.7-10.7-10.7 0-5.8 4.7-10.5 10.9-10.5 5.6 0 10.3 4.7 10.3 10.5 0 5.9-4.7 10.7-10.5 10.7zm99 102.4c0 1.8-.3 2.1-1.9 2.1h-9.3c-1.6 0-1.9-.4-1.9-2.1v-58.5c0-10.3-3.3-14.5-11.6-14.5-8.1 0-14.4 3-23.1 11v62c0 1.8-.4 2.1-1.9 2.1h-9.3c-1.6 0-1.9-.4-1.9-2.1v-60c0-8.1-.7-11-3.3-16.8-.2-.4-.4-.9-.4-1.1 0-.4.4-.9.9-1.1l7.9-4.6c.7-.4 1.1-.5 1.4-.5 1.8 0 4.2 4.9 5.4 11.6 10.7-8.6 18.6-11.9 28.2-11.9 8.2 0 14.7 3 17.9 8.4 2.5 4.2 3 7.7 3 17.7v58.3z"/></svg>
