<svg xmlns="http://www.w3.org/2000/svg" viewBox="0 0 320 460"><path fill="#3C3C3B" d="M6.4 438h307.1v22.1H6.4z"/><path fill="#575756" d="M6.4 229h307.1v210.3H6.4z"/><path fill="#FFF" d="M25.5 453.6c-.9 0-2.2-.4-2.2-.7v-.1l.2-.6s0-.1.1-.1 0 0 .2.1c.6.3 1.2.5 1.7.5.9 0 1.4-.5 1.4-1.3 0-.7-.3-1.1-1.4-1.7-1-.6-1.2-.7-1.5-1-.3-.3-.5-.8-.5-1.3 0-1.2.9-2.1 2.3-2.1.8 0 1.9.4 1.9.6v.1l-.2.5s0 .1-.1.1l-.5-.2c-.3-.1-.7-.3-1.1-.3-.8 0-1.3.4-1.3 1.1 0 .4.2.7.5 1 .3.2.3.2 1.4.9.7.4.9.6 1.1.9.3.3.4.8.4 1.2 0 1.5-1 2.4-2.4 2.4zm5.7 0c-1.4 0-2.2-1.1-2.2-2.9 0-1.9.9-2.9 2.4-2.9 1.4 0 2.2 1.1 2.2 2.9 0 1.8-.9 2.9-2.4 2.9zm.1-5.1c-.9 0-1.3.7-1.3 2.1 0 .7.1 1.4.4 1.8.2.3.6.5 1 .5s.8-.2 1-.5c.2-.4.4-1 .4-1.8-.2-1.4-.6-2.1-1.5-2.1zm8 4.7l-.5.3h-.1c-.1 0-.3-.3-.4-.7-.7.5-1.1.7-1.7.7-1 0-1.6-.5-1.6-1.5v-4c0-.1 0-.1.1-.1l.6-.2h.1c.1 0 .1 0 .1.1v3.6c0 1 .2 1.3.8 1.3.5 0 1-.2 1.5-.6V448c0-.1 0-.1.1-.1l.6-.2h.1c.1 0 .1 0 .1.1v4c0 .6.1.9.3 1.2-.1.1 0 .2-.1.2.1 0 0 0 0 0zm4.4-5.2l-.3.6h-.1l-.2-.1h-.2c-.3 0-.6.2-1.1.9v3.8c0 .1 0 .1-.1.1h-.6c-.1 0-.1 0-.1-.1v-3.5c0-.9 0-1.1-.3-1.5v-.1s0-.1.1-.1l.5-.3h.1c.1 0 .4.5.4 1 .7-.8.9-1 1.4-1 .2.1.6.2.5.3.1 0 0 0 0 0zm4.6.6l-.3.4c0 .1-.1.1-.1.1h-.1c-.6-.4-.8-.5-1.2-.5-.9 0-1.4.7-1.4 2.1 0 1.4.4 2.2 1.3 2.2.5 0 .7-.1 1.4-.6h.1s.1 0 .1.1l.2.4v.1c0 .1-.1.1-.2.2-.5.3-1 .5-1.6.5-1.4 0-2.2-1-2.2-2.8 0-1.9.9-3.1 2.3-3.1.5 0 1 .2 1.4.4.2.2.3.3.3.5zm4.9 2.3h-3.3c.1 1.3.6 1.9 1.5 1.9.4 0 .8-.1 1.3-.4h.1s.1 0 .1.1l.2.4v.1c0 .1-.1.2-.4.3-.4.2-.9.3-1.4.3-1.5 0-2.4-1.1-2.4-2.9 0-1.8.9-2.9 2.3-2.9.9 0 1.6.5 1.9 1.4.1.4.2.8.2 1.5.1.1 0 .2-.1.2zm-.8-.7c0-1.1-.5-1.7-1.2-1.7-.8 0-1.2.6-1.3 1.7h2.5zm3-.6c-.5 0-.8-.4-.8-.8s.4-.8.8-.8.8.4.8.8-.3.8-.8.8zm0 4c-.5 0-.8-.4-.8-.8s.4-.8.8-.8.8.4.8.8c.1.4-.3.8-.8.8zm10-2.3c0 .7-.2 1.2-.6 1.6-.5.5-1 .7-1.9.7-1.6 0-2.4-.7-2.4-2.3v-5.6c0-.1 0-.2.2-.2h.6c.1 0 .2 0 .2.2v5.6c0 1.1.4 1.5 1.5 1.5s1.6-.5 1.6-1.5v-5.6c0-.1 0-.2.2-.2h.6c.1 0 .2 0 .2.2v5.6zm6.6 2c0 .1 0 .2-.2.2h-.6c-.1 0-.1 0-.2-.1l-2.6-5.7c-.1-.3-.2-.6-.3-1.1.1.6.1.8.1 1.1v5.6c0 .1 0 .2-.2.2h-.5c-.1 0-.2 0-.2-.2v-7.6c0-.1 0-.2.2-.2h.7c.1 0 .1 0 .2.1l2.5 5.4c.1.3.2.6.3 1-.1-.4-.1-.7-.1-1v-5.3c0-.1 0-.2.2-.2h.5c.1 0 .2 0 .2.2v7.6z"/><path fill="#DB7123" d="M9.7 59.3h303.6v163.3H9.7z" opacity=".4"/><g stroke="#72706F" stroke-width=".606" stroke-miterlimit="10"><path fill="#F1A375" d="M167.9 127.3c13.1 0 23.7 10.7 23.7 23.7 0 13.1-10.7 23.7-23.7 23.7S144.2 164 144.2 151c0-13.1 10.3-23.5 23.3-23.7h.4z"/><path fill="#DB7123" d="M167.9 137.5c10.3 0 18.6 8.3 18.6 18.6s-8.3 18.6-18.6 18.6-18.6-8.3-18.6-18.6c0-10.2 8.3-18.6 18.6-18.6z"/></g><g stroke="#72706F" stroke-width=".606" stroke-miterlimit="10"><path fill="#F1A375" d="M47.9 95.5c4.2 0 7.7 3.5 7.7 7.7s-3.5 7.7-7.7 7.7-7.7-3.5-7.7-7.7c0-4.3 3.5-7.7 7.7-7.7z"/><path fill="#DB7123" d="M47.9 96.6c3.9 0 7.1 3.2 7.1 7.1s-3.2 7.1-7.1 7.1-7.1-3.2-7.1-7.1 3.2-7.1 7.1-7.1z"/></g><g stroke="#72706F" stroke-width=".606" stroke-miterlimit="10"><path fill="#DB7123" d="M84.1 162.5c4.8 0 8.7 3.9 8.7 8.7s-3.9 8.7-8.7 8.7c-4.8 0-8.7-3.9-8.7-8.7 0-4.8 3.9-8.7 8.7-8.7z"/><path fill="#F1A375" d="M84.1 164c4.4 0 8 3.6 8 8s-3.6 8-8 8-8-3.6-8-8 3.6-8 8-8z"/></g><g stroke="#72706F" stroke-width=".606" stroke-miterlimit="10"><path fill="#DB7123" d="M254.7 97.6c7.6 0 13.6 6.1 13.6 13.6s-6.1 13.6-13.6 13.6-13.6-6.1-13.6-13.6 6-13.6 13.6-13.6z"/><path fill="#F1A375" d="M254.7 100.5c6.7 0 12.2 5.5 12.2 12.2 0 6.7-5.5 12.2-12.2 12.2-6.7 0-12.2-5.5-12.2-12.2 0-6.7 5.5-12.2 12.2-12.2z"/></g><g stroke="#72706F" stroke-width=".606" stroke-miterlimit="10"><path fill="#DB7123" d="M226.4 123.1c9 0 16.3 7.3 16.3 16.3s-7.3 16.3-16.3 16.3-16.3-7.3-16.3-16.3 7.3-16.3 16.3-16.3z"/><path fill="#F1A375" d="M226.4 125.3c8.4 0 15.3 6.8 15.3 15.3s-6.8 15.3-15.3 15.3c-8.4 0-15.3-6.8-15.3-15.3s6.9-15.3 15.3-15.3z"/></g><g stroke="#72706F" stroke-width=".606" stroke-miterlimit="10"><path fill="#DB7123" d="M155.9 83.4c5.1 0 9.2 4.1 9.2 9.2s-4.1 9.2-9.2 9.2-9.2-4.1-9.2-9.2 4.1-9.2 9.2-9.2z"/><path fill="#F1A375" d="M155.9 84c4.9 0 8.9 4 8.9 8.9s-4 8.9-8.9 8.9-8.9-4-8.9-8.9 4-8.9 8.9-8.9z"/></g><path fill="none" stroke="#F1A375" stroke-width=".606" stroke-miterlimit="1" d="M81.6 98.9v-2.7h-2l-1.3 2.2-1.3.7h-3.3l-2.3 1.4h-1.8l-3.8 2.2H65l1.6-2.8v-1.7l-1.1-.7v-.8l-2.3-1.3h-3.4l-2.4-1.3H31.2m-1.7-6.4l.6-.9-1.4-2.3-1.2-2.3 11.3-11.3m5.1 51.7l-2.3-1.4v-1.9l-1.1-1.8h-1l-1 .5-1.4-.9v-1.2l-1.4-.7h-5l-2.6-1.5h-2.3m23.7 23v-1.3l2.1-1.1"/><path fill="none" stroke="#F1A375" stroke-width=".606" stroke-miterlimit="1" d="M50.1 135.1l.9 1.5h.6l.6 1-.5.3m-.1-6.4h-.7l-.3.5v2.3h.3m2.3 5.8H55l.6.4m1 1.6v1.6m12.6-12.4v-2M61.8 145l.9-1.4m6.2-3.3l1.3-.7h1.9v1.3h3.5l1.3-.7 2.9 1.7v1.2h.6v2.4h-.8l-.7 1.1.8.3v1.3l-1.5.8h-2.4v1.7h1.1l-.7 1.1h-.8l-1.4.9-1.3-.8v-.6h-.4v-5.1h-1.8l-.8-1.4h-2.1v-1.5l-1.2-.8 1.7-2.9v-.6m1.4 36.5h2.1v-7.4l-.7-1.2h-1.3v-2.1l-1.5.8-2.3-1.3v-3l1-1.9 2.1-1.2h.7v-2h-3.2l-1.2-2.2-1.7-1m15.8 24h3l.4.7h.8l.7 1.2v1.4h2l.7 1v1.2h1.2v2.6l-.9 1.7h-3.1l.8-1.3v-1.4H83l-2.4-1.5-1.3-2.4z"/><path fill="none" stroke="#F1A375" stroke-width=".606" stroke-miterlimit="1" d="M83.6 146.5v.8l-.7.4v1.7l1.1 1.9h-1l-1.4.8-1.3-.8v-1.9l.7-.4v-.5l-1.3-.8m-19.3 4.2l1.4 1.1h1.7v1.1h.4v1.4l-3.2 1.9v1.7h-1.9l-.4-.7h-.6m14.5-7.1H70v3.1l.3.6v3.2h-.7m-.1 17.3h2.3l.7 1.2v1.3l1.2 2.3v1h1.1v1.2l-1.4.9v1l.5.8v1.3l-.8 1.3v4.7l.9 1.6v4.8l.4.6v3.5l1.1.7v1.9l.7 1.1 1.3.7v5.9l.9 1.7h.6l1.1 1.8h2.3v1.1h.9l1.2.4m3.6-33.5h.9v2.1l-1.9 1.1-1.3 2.1m-2.3-12.4l.5-.9v-1.7l-.9-.6v-1h-2.5v-3.2h-.9l-4.6-2.7v-1.9H74l-2.1 1.2h-1m8.4 13.3h-1.7v1l-.6-1h-1.6l-.6 1.1m104.7-6.9v3.7l-1.4 2.5h-2.6l-1.7-.9v-1.1l-1.7-1.1v-1.4l-1.1-.7h2.6l2.2-2.3h1.2z"/><path fill="none" stroke="#F1A375" stroke-width=".606" stroke-miterlimit="1" d="M170 167v2.3h-1.9v4.8l1.3 1.3h4.2l2.2-2.3h1.2v-1.3l2.5-.9v-1.1l.8-1v-3.3l-2.8-1.6h-2.1v4.1l.8.7v1.3h-.8l-2.1-2h-1.2l-1-1zm-42.9-39.6h3.8v-1.6l1.7-.9v-2.7h3.6v-2.1h-4.9m45.7 29h4.4l.7 1.2v1.7l-.9 1.6v1.2h-5v-.5l2-3.4h-.7v-.8zm-23.2-40.3l.4-.4h1.7v1.8h.5v.8l-1.1.7v.8l1.7.9-.6 1.1-.9.5v1.7h-.8v-2.2l-1.6-1v-1.4l.7-.4zm-7.3 37v-3l-1-1.6V140h-.7v2l.4.8v3l.8.5"/><path fill="none" stroke="#F1A375" stroke-width=".606" stroke-miterlimit="1" d="M187.9 166.8l-2.6.9h-3.7v-2.2h-1.3l-2.8-1.6-1.3-2.1V159l1.7-.8v-3.4h3.3l3.8 2.2v1.3l1.4.7m-8.3 26.2h-1.2v1.2l.4.7h.8v-.9zm5.9-57.8h-13.3v2h-.5v5.2h-1.3l-.8 1.4v2.5l.6 1.1v1l1 .6v1.8l.5.3 1.1-1.9h.9l.5.8h2.6l.5-.9h.8l1.1.5 1.5-2.7h.7v1.6l1.3.8-.1-1 1.4-2.3.9-.5v-3h.3v-1.9l1.3-.6"/><path fill="none" stroke="#F1A375" stroke-width=".606" stroke-miterlimit="1" d="M170.2 143.3l1.1-1.9h.9l.5.8h2.6l.5-.9h.8l1.1.5 1.5-2.7h.7v1.6l1.3.8v2H180v.7l2.1 1.2.1 2-1.1 1.7H177l-.6-.9h-2l-.5-.8v-.7l-2.3-1.3v-1.3zm-9 44.9h1.3l1.2.7h1.1l1.1-.6v-4l.7.4v1.5h1.2l1.2-1.9h.7l1.2.7h1.2v-1l1.3-.8v-1.1l2.5-1.4h2.6v4.6H177v1.2l.4.7h.9v-1h.7m-3.8 2.4h-1.1l-1.1.7v1.2l.3.6h.9l.9-.5.1-2zm13.9-33l-.4-.8v-5.5l.4-.7 1.7-1h1.8l2.2-3.8-1.2-.7h-1.5l-1.9-1.1v-1.8m-60 2.6l1-.5v-.8h1.6l.9 1.4v1.1l-1.1.6-.6 1.2m-5.1-8.3h3.2v-.8h-3.2"/><path fill="none" stroke="#F1A375" stroke-width=".606" stroke-miterlimit="1" d="M127.7 133.4h2.6l1.5 2.5-.1 1 .9.4v1.2h-4.2l-1.1.7m50.6 15.6h-1.7l-.5 1v1.3h2.2zm-24.1-6.8l.2-.6v-1.5l1.3-.8h.9l.2.7h.7v-1.6l2.6-4.4v-1.5l-.9-1.4-1 .6h-5.7l-1.1-.6h-1.8v.9l-.7 1.3v2.8l-1 .5v3.4"/><path fill="none" stroke="#F1A375" stroke-width=".606" stroke-miterlimit="1" d="M160.5 125.8h-1.6l-1.6-.9-8 5.9v3.2l-1.6.9h-2.9v1.9l1 1.5h1.4l1.3.8.7-1.3v-.9h1.8l1.1.6h5.7l1-.6v-1.8l2.1-1.1v-4.1h.3v-1.3l-.7-1.2zm.7 62.4h1.4l1.1.6h1.1l1.1-.6v-7.8h1v-4.2h2.9l1.2-.8h-6.4l-.6-.6h-7.1m22 11.4h-.8v-5.6l1.4-2.5v-3.7l-2.5-1.3v-1.3l2.5-.9h1.8v3.4l1.3-1.3v-1.7l-1-.9v-2.7h3.7l2.6-.9m-56.6-46.7h4.9v-1.7l1.2-.6h1.8l2.2-1.3v-.6l2.2-1.3v-3.8m-15.9 22.6h2.6l1.5 2.5 1.3-.9h5.6v-11.8h1.3l-3.8-3.1v2.1h-3.6v2.7l-1.7.9v1.6h-3.8"/><path fill="none" stroke="#F1A375" stroke-width=".606" stroke-miterlimit="1" d="M138.7 135v-11.8h1.3l9.3 7.6v3.2l-1.6.9h-2.9v.5h-.9l-3.9 2.2v.9l-1 .6-.1 1.8h-2.7l-.6-.4v-2h-3v-1.2l-.9-.4v-1l1.4-.9zm42.6 35.9h-1.8v-1.1l.8-1v-3.3h1.3v4.9l1 .9v1.7l-1.3 1.3zm-10.6-41.5h-.5v.6l-8-4.6h-1.7v.4h-1.6l-1.6-.9-.3.2v-.9h-1.9v-2.5h.3V118h-.7v-1.3h.8V115l.9-.5.6-1.1h2.6l1.5.8v1.5h2l1.4.9h1v-1.9l1.5-.9h1.1l2.6 1.5zM132 145.8l.6-1.2 1.8-.9h.5v.9h.8v1.4l1.1.6v1.4m38.4 40.6h-1.1l-1 .6v1.1l.2.6h1l.9-.5zm11.2-29.6l-1.4-.7V157l-3.8-2.2v-1.2l.9-1.6v-1.7l-.7-1.2h-.3l1.1-1.7 3.3 1.9h1.7l.3-.7h1.6l-.4.7v5.5l.4.8m-61.8-16.4l1.1-.7h1.8v.7l-1.4.8"/><path fill="none" stroke="#F1A375" stroke-width=".606" stroke-miterlimit="1" d="M128.8 140l1.4-.8v-.7h5.4v2l.6.4v2.7l-.5.8v.2h-.8v-.9h-.5l-.7.3v-1.1l-.9-1.4h-1.6v.8l-1 .5m15.8 3.5l-.8-.5v-3l-.4-.8v-2h-3.1v2.6l.4.9-.8 1.6v2m-14.4-10.4h3.2v.8h-3.2m28.4 14.9h1.3V151h2.3v1h1v.8l-.3.6v3.1h-.9l-.8-.4-1.5 2.4m24.8-17v2H180v.7l2.1 1.2.1 2 3.3 1.9h1.7l.3-.7h1.6l1.7-1h1.8l2.2-3.8-1.2-.7h-1.5l-1.9-1.1v-1.8h-.8v-1l.4-.7-1-1.6-1.1-.7h-4.3v1.5l-.9.5-1.4 2.3z"/><path fill="none" stroke="#F1A375" stroke-width=".606" stroke-miterlimit="1" d="M185 132.2l-1.3.6v1.9h-.3v1.5h4.3l1.1.7 1 1.6h.7M155.3 151h1.3v1.4h-1.3m28.7-25h-13.3v-12.1m19.8 24.7l-.3.2h-.8v-1l.4-.7h.7m-49.2 8.5v-1.9l.8-1.6-.4-.9v-.9h-2.3l-.5-.8h-2.7v2.7l-.5.8v1.6l1.1.6v1.4m19.6 10.5l1.5-2.4.8.4h.9v-3.1l.3-.6v-.8h-1v-1h3v-.7l.6-1h2v.4l-.7 1.2v1.8l-2.2 3.8v1.8l-1 1h-2.8"/><path fill="none" stroke="#F1A375" stroke-width=".606" stroke-miterlimit="1" d="M157.8 159.3h2.8l1-1v-1.8l2.2-3.8v-1.8l.7-1.2v-1.3l1.2-.7 1.6 1h1.4v-.7h2l1.1-.6h2.1l.5.8h2l1.1 1.9v.8h.7l-2 3.4v.5l-.5 1v3.2h.5v2.8l1.3 2.1h-2.1v4.1l.8.7v1.3h-.8l-2.1-2h-1.2l-1-1h-2.7v-1.3l-.6-.6v-2.7h-2.4v1.2h-2.2l-1-2.8h-4.4m12.4-30.8l-8-4.6h-1.7v2l.7 1.2v1.3h-.3v4.1l-2.1 1.1v1.8l.9 1.4h.8v2.3l.6.9h-1v.7l1 1.8h3.2l.9-1.4h1.6l1.2-2h.7v-1l-.6-1.1V136l.8-1.4h1.3z"/><path fill="none" stroke="#F1A375" stroke-width=".606" stroke-miterlimit="1" d="M173.9 147.4v-.7l-2.3-1.3v-1.3l-1.9-1.1v-1.8l-1.1-.6h-.6l-1.2 2h-1.6l-.9 1.4h-3.2v1l-.8.5v1.9l1.6 2.8.6-.9h2v-.9l1.2-.7 1.6 1h1.4v-.7h2l1.1-.6z"/><path fill="none" stroke="#F1A375" stroke-width=".606" stroke-miterlimit="1" d="M155.3 151h6.6v-.8l-1.6-2.8v-1.9l.8-.5v-1l-1-1.8v-.7h1l-.6-.9v-2.3h-.8v1.5l-2.6 4.4v1.6h-.7l-.2-.7h-.9l-1.3.8v1.5l-.2.6m21.9 9.1v1.9h.5l1.7-.8v-1.1zm-30.9-21.7h-.9l-3.9 2.2v.9l-1 .6-.1 1.8.5.8h2.3V140h3.8l.9-.5h.8v-1.2h-1.4l-1-1.5zm30.7 45.2l-2.5 1.5v1l-1.3.8v1h-1.1l-1.2-.6h-.7l-1.1 1.9h-1.1v-1.5l-.6-.4v-3.9h1v-4.2h2.9l1.2-.8 1.1.7v1.4l1.7 1.1v1.1z"/><path fill="none" stroke="#F1A375" stroke-width=".606" stroke-miterlimit="1" d="M147.5 145.8v-3.4l1-.5v-2.8l-1.3-.8v1.2h-.8l-.9.5v1.2l1 1.6v3m11.3 15h4.4l1 2.8h2.2v-1.2h2.4v2.7l.6.6v1.3h1.6v2.3h-1.9v4.8l1.2 1.3h-4.7l-.6-.6h-7.1m-13.3-64v3.8l-2.2 1.3v.6l-2.2 1.3h-1.8l-1.2.6v1.7l13.1 10.7 7.7-5.7v-.9h-1.9v-2.5h.3V118h-.7v-3.5l-1.6-1v-1.4l.7-.4v-2.9h-7.4l-2.8 1.6zm50.5 26.2h1.5l4.4-2.6v-.7l1.1-.5-1.3-2.3H197l-1.4.9-.8 1.3-.6-.4h-3.5l-.5 1v2.4m12.5-10.2h-2.8l-1-.6v-1.1h2.9l1.5-2.5.7 1.1v1zm-21.3-16l1.8-1.1h2.7l1.1-.5h.5l-.4.8v2.6l-4.3 2.5h-1.1v-.8l.6-.9v-1.1h-.8"/><path fill="none" stroke="#F1A375" stroke-width=".606" stroke-miterlimit="1" d="M190.2 133.8l-2.1-3.8-1.6-.9-.8-1.3v-2.5l-1.7-.9-2.8-4.9v-1.1h.9l1.7-1v-1.3l-.5-.7 2.1-1.2 6.1 4h2.4l.4.9h.7l.4.7 1.6.9v1l1.4 2.4.5.1v1.1l1 .6h2.8l.6 1.1-1.6 2.8-2 1.1H197l-1.4.9-.8 1.3-.5-.4h-3.6z"/><path fill="none" stroke="#F1A375" stroke-width=".606" stroke-miterlimit="1" d="M198.4 124.1l.5-.3v-1.6h-.7v1.4zm-16.7-9.1v1.3l-.5-.4v-.9zm18 15.9l1.4 2.3.6-.4h1.2l1.8-1 .9-1.6 2.1-3.6-1-1.7h-.9l-1.8-1.1-1.3 2.1.6 1.1-1.6 2.8zm-18.2-19.5h.8v1.1l-.6.9h-1m14.3 5.7l-.6-1.1.5-.9h-1.5l-.8 1.1h1.3l.4.9z"/><path fill="none" stroke="#F1A375" stroke-width=".606" stroke-miterlimit="1" d="M181.7 114.2h1.1l2-1.1.6 1.1-2.1 1.2.5.7v1.3l-1.7 1h-.9l.5-.9z"/><path fill="none" stroke="#F1A375" stroke-width=".606" stroke-miterlimit="1" d="M180.7 113.4h1v1.6h-.5v.9l.5.4v1.2l-.5.9m14.1-1.3h-1.9l-.8 1.1h-1.1l-6.1-4-.6-1.1 2.3-1.4v-2.6l.4-.8h2.2l1 1.8h1v3l.5.9 2 1.1z"/><path fill="none" stroke="#F1A375" stroke-width=".606" stroke-miterlimit="1" d="M189.8 105.1l-.5.9.4.6v1.7l1 1.8h1v3l.5.9 2 1.1 1.1 2h1.6l1.7 3h1.1v.9h3.4l.8-.5 1.4 2.5h3.9v-1l1.3-.8v-.8h-.7v-.9l-1.6-1.1v-1.1l-.5-.3.5-.9v-.7l-1.2-.7v-5.5h-.9l-2.2-1.3h-.8l-1.1-.6h-1.4l-.9 1.5h-3.4l-2.1-1.1v-.8l-.7-.5-.6-.9-1.3.6h-1.2zm7.8 16.7h.4v.6h-.4zm58.8 19l1.2-.7v-1.2h1.1v-3.8l-4.2-5.1.6-.6-.5-.6v-.6h-1l-2-2h2.2l1.5-1 1.2.7v1l1 .6m-42.4-23.2l-2.3 1.4.9 1.6-.5 1H212l-.8-1.4-8.3-4.8h-.9l-.7 1.4h-1v-2.7l-1-1.8 1.2-.7h2.1l3.9 2.3h2.4l1.5 2.6h6.6v1.1z"/><path fill="none" stroke="#F1A375" stroke-width=".606" stroke-miterlimit="1" d="M197 102.2v2.6h1.5l.6 1v3h.6l.9-1.5h1.4l1.1.6h.8l2.2 1.3h.9v1.3h1.9l1.3-.8v-1.4h1.8l-.8-1.4-8.3-4.8h-.9l-.7 1.4h-1.7l-.6-1.3zm80.9 63.4v-.3l1-1.7m-29.4-21.9l.5-1v-4.1l-.8-.5v-2.7l-1.5-2.4v-1.2h1.3l1.3-.9v.9h1.1v2.5l1.6-.9h1.6l1.9 3.3v1.7h-2.2l-.7.4v1.3m.3 8l-1.1.5-.5-.9h-.6m-31.2-37.2v-1.4l-2.1-1.2v-.3h-4.3v-.8l-1.3.9.9 1.6-.5 1 .9.5 1.3-.7v-1.2h.8l1.2 2 .7-.4zm9.4 33.4v3.5l.5 1h.8l.9-.5v-1.7l-1.4-2.3z"/><path fill="none" stroke="#F1A375" stroke-width=".606" stroke-miterlimit="1" d="M209.2 123v-1l1.3-.8v-.8h-.7v-.9l-1.6-1.1v-1.1h5.1v-1.4l2.5-1.5v-.9l.6-.3v-1h1v-2.7l1-.6h1.8l.2-.4h.1l3.8 2.3h-.9l-.5.9h-2.2v1.7l1.4.9-.5 1v1.1l-1.2 2.1-2 1.2h-1.2v1.2l1.5 2.5v.8H217l-1.2.8-.2-.1-1.5-2.5-1.2.6h-3.7m59.2-18.2l1.4-.8v-1h1l.9-1.5h1.5m-.6 4.8l-.8 1.5M228 118.6v-1.8h1.5l5.5 3.1h1.2v1.6h-1.5l-2.2-1.3h-1.7zm18.2.4h-.5l-1.3 2.3h-.6v3.1h-1.4v3l-.6 1.1 1.8 1 .9 1.6v3.1h1.5l1-1.7 1.4 2.5v1.6l1.1 1.9v3.2l.5-1v-4.1l-.8-.5v-2.7l-1.5-2.4v-1.2h1.3l1.3-.9 1-1.5h-.4l-1-.6h-1.2v-1.1l-.7-1.2h-1.2v-1l.5-1v-1.6zm-18-24.9v.7l4.5 2.5v1.6h2.1l1.7.9h2.1l1.1 1.9h4.9l1.5.9h1.5l.7.3 1.3-.8h3.5l1-1.7-.8-.5v-1.4h3.6l.8-1.4h1.7l-.8-1.3h-3.7v-2.4l-.8-.1-.7-.4h-.9l-1.6 1H247l-.5-1h-4.2l-4.1-2.4h-1.5v1.2l.8 1.6h-2.4l-1.8-1h-2zm38.7 54h.8m3.2.6l-.5-.3h-1.8v1.4l-1.1 1.9h-2.2l-.4.8H263l-.5-.9m-8.6-5.5l-1.1.6-.6-1h-.6"/><path fill="none" stroke="#F1A375" stroke-width=".606" stroke-miterlimit="1" d="M251.6 126.2v1.2h-.3l-1 1.5v.9h1.1v2.5l1.6-.9h1.6l1.9 3.3v1.7h1.2l1-.6v-.7l-4.2-5.1.6-.6-.5-.6v-.6h-1zm-34.6-23v1.1h-1.9l-1 .5v.8h4.3l.6-1h2.1v-.9h.6l2.2-1.2v-1h-1.4l-.5-.2h-5v.5h-1.2l-2.2 1.4z"/><path fill="none" stroke="#F1A375" stroke-width=".606" stroke-miterlimit="1" d="M223.9 101.5l-1.1-1.9v-.9h1.8v-2h2v-1.2l.8-1.4-3.3-2h-2.6L216 89l-.6-1.1-1.5.8h-1.6l-3.4-1.9h-1.3v.4h-1.5l-1.8 1.1h-2.5v2.9h.8v.9h-5.9l-1.1-.5h-4v1.7h-.8l-.4-.7h-.6v2.2l1.6 1 1 1.8 1.5-.8h2.6v1.7h-1.2l-.7 1.4.9 1.6h1.5v.7h2l.6 1.3h.7v-2.7l-1-1.8 1.2-.7h2.1l3.9 2.3h2.4l1.5 2.6h3.2l2.2-1.4h1.2v-.5h5l.5.2zm47 47.2l-.5-.3h-1.8v1.4l-1.1 1.9h-2.2l-.4.8H263l-.5-.9m15.4 13.7l1-1.6m17 1V157m-73.8-42.7l-.5 1v1.1l-1.2 2.1-2 1.2h-1.2v1.2l1.5 2.5v.8H217l-1.2.8 1.4.7h1.2l-1.3.8.8 1.1.9.6h1.4l.6-1 .7 1.1v3.3l.7 1.2v1l1.8 3.1v1.5l1.6 1v2.3l.8.3v1.3l1 .6 2-3.6V139l.8-1.4-.6-1v-2.2h.9l1.2-.7v-1l2-1.1v-1.1l2.7-1.4v-1.6h1.9v-1l-.8-1.4v-2.2l-.7-.3v-.5h1.8v.8h2.6v1l-1 .5v1.3h.7v2.2l.9.6.6-1.1v-3h1.4v-3.1h.6l1.3-2.3h-1.2v-1h-1.3l-2.3 1.4h-1.1l.6 1.1v.7h-3.2v-1.8h-1v2.1h-1.5l-2.2-1.3h-1.7l-2.8-1.6v-1.8h-.5l-1.3-.8-1-1.7h.9v-.5l-1.8-3h-.9l-.5.9h-2.2v1.7zm-35.9-10.9h5.5l-.1-.1-1-.6-.6-1h-2.4l-.4-.9h-2.5"/><path fill="none" stroke="#F1A375" stroke-width=".606" stroke-miterlimit="1" d="M256.5 126.9v-1l-1.2-.7-1.5.9h-2.3v1.2h-.5l-1-.6h-1.2v-1.1l-.7-1.2h-1.3v-1l.6-1.1v-1.6l-1.2-1.9h-1.7v-1h-1.2l-2.3 1.3h-4.7v.6H235l-5.5-3.2h-2.1l-1.2-.7-1-1.7h.9v-.5l-1.8-3.2-3.7-2.2v-1.4l-2.2-1.2.8-1.2h2.1v-.9h.6l2.2-1.2v-1l-1.1-1.9v-1h1.7v-1.9h2v-1.2l.9-1.4h.8v.7l4.4 2.6v1.4h2.1l1.7 1h2.1l1.1 1.9h5l1.4.9h1.5l.6.4 1.4-.9h3.5l1-1.7-.8-.5v-1.4h3.6l.8-1.3h1.7l-.8-1.4H255v-2.4h2.1v-1.4l-1-1.6v-.9h4l2.9 1.6.9 1.5 5.9 3.4h1.3l.6-1h1.7v4h-2.5l2.3 1.1v1.4h-1.4l-.8 1.3h-1.2v1.2l-1.2.8m-12.2 36.2l1.2-.7v-1.2h1.1v-3.1l-1 .6h-3.4l-.7.4v1.3m13.4 10h.7l.2-.4"/><path fill="none" stroke="#F1A375" stroke-width=".606" stroke-miterlimit="1" d="M237.2 119.4v1.8h3.2v-.7l-.6-1.1zm1.1 8.1v-1l-.8-1.4v-2.2l-.7-.3v-.5h1.8v.8h2.6v1l-1 .5v1.3zm-48.4-24.1h1.7l.1.1h1.2v-.2l2.1 1.2v.3h-1v2.1l-.8-.4-.6-1.1-1.2.8-1.5-2.8zm.5 2.7h.5l-.7-1.2h-.5l.7 1.2z"/><path fill="none" stroke="#F1A375" stroke-width=".606" stroke-miterlimit="1" d="M191.6 106.1h-.7l-.7-1h-1.9v-1.4l-.5-.3h2.1l1.7 2.7m15.4 4.4v4.2l1.2.7v.7l-.5.9.5.3h5.1v-1.4l2.5-1.5v-.9l.6-.3v-1h1v-2.7l1-.6h1.8l.2-.4h-2.3l-.7.4-1.2-2h-.8v1.2l-1.3.7-.9-.5h-3v1.4l-1.3.8zM28.4 95.2l-5.5 9.5v2l.3.5v3.6l.8 1.3m27.7 25.8l.5-.3.6-1 1.6-1h2m-9.8.3l.6-.4v-1.4H49l-.6-.9V132h2.2m41.2 61.5h-1.2v-1.2l-3.7-2.2h-1.1v5.8h.4m-.2 15.5l-1-1.7m88.3-110v-.8h-.1l1.1-2-.8-.4v-.7l-1.7-1-1.1.7h-3.8l.2-.5-.3-.3v-1l1.1-.7.4-1-.5-1h6.8l.4-.7h2.4v1.2h1.2l.7 1.1h1.8l2.3 1.3v.9l-1 1.8"/><path fill="none" stroke="#F1A375" stroke-width=".606" stroke-miterlimit="1" d="M186.4 103.4h1.4l.6.3v1.4h1.4l-.5.9.4.7v1.6H187l-1.1.7h-2.7l-1.8 1.1m-8.5-7.9l-1.6 1v.8m-16.4-8.2h-1.8l-1.3.7v.9l.7.3h2.4zm12.2-20.3l-1.3-2.3v-.7h-1.1l-1.1-.6-.9.5h-.9l-1.8 1.1-2 3.6-1.2.7V82h-.3v.8m-12.4 18l.8 1.3h4.1m-11.1 6.3l.7-1.2v-3.1l.7-.4v-1.1h-2.1m21.6-4h1.9v-.8l.4-.7h-2.3zm3.1-3h1.8l1.6-.9h1.5v-1h-3.4l-1.5.7zm4.6 6.4h.9v-2.6h-1.1l-1.1-1.8h-.5l-.9.5v.9l.7 1.1v.9l.3.6 1.2-.6zm-1.4-15.1h.9l.6 1.1h-2.4m109 13.5v-1.4l-2.3-1.1h2.5v-4h-1.7l-.6 1h-1.3l-5.9-3.4-.9-1.5-2.9-1.6h-4v.8l1 1.6v1.4h-3l-.8-.4h-.9l-1.6 1h-3.9l-.5-.9h-4.1l-4.1-2.4h-1.5v1.1l1 1.6h-2.5l-1.7-1h-2l-3.1 1.8h-.8l-3.4-1.9h-2.6l-5.5-3.2-.7-1.2-1.4.9h-1.6l-3.4-1.9h-1.3v.5h-1.5l-1.7 1H202v2.9h.8v1h-6l-1.1-.6h-4v1.7h-.8l-.4-.7h-.7v2.3l1.6 1 1.1 1.8-1.4.9v1.2l2 3.5v.2h-1.2l-1.2-.7-.6-1h-2.4l-.5-.9h-2.4M171.4 81l1.4-2.4v-.7h-.6l-1-1.6v-1.2l-.7-1.2.4-.6-1.2-.7 1-1.7m11.8 25.6l1-1.6V94l-2.3-1.3h-1.9l-.7-1.2h-1.2v-1.2h-2.5v-.8l.5-.3v-1l-1.2-.8v-1.3H172l-1.2-2.1v-2"/><path fill="none" stroke="#F1A375" stroke-width=".606" stroke-miterlimit="1" d="M173.3 100.5h-5.9v-1.1h-1.1l-1.1-1.8h.5l1.2-2.1h4.4l1.4 2.2v1.2h.6m-36.2 3.8h2.2v1l-.7.4v3.1l-.7 1.2m20.9-20v1.1l.9 1.8.7 1 .9.7h2.1v.7h3.4l1.1-.7.4-1-.5-1v-1.6l-1-1.5h-2.7m4.6-17.8v1h-1.3v1.1h-1.5v.5h-1.1l-1.1-.6-.9.5h-1l-1.8 1.1-2 3.6-1.2.7v4h-.3v.8m-3.8 6v1.8l-.9.5v.6l-1.7-1.1m15 11.4l-.6-1-1.1.6"/><path fill="none" stroke="#F1A375" stroke-width=".606" stroke-miterlimit="1" d="M170.7 95.5l1.1-.7 1.7 1v.7l.8.4-1.1 2h-.5v-1.2l-1.4-2.2zm-3.3 6.5h-.9l-.8.5v2.3l2.8-1.6-1.1-.9zm-16-8.5V93l.4-.5v1zm13.7-7.8h3.6l1.7 1-1 1.6h-2.3l-.3-.4h-.3l-.5-1h-.9"/><path fill="none" stroke="#F1A375" stroke-width=".606" stroke-miterlimit="1" d="M165.1 85.7h3.6l1.7 1 1.3-.9-1-1.7-2.9-.4m-3 17.9l.7 1.1 1-.7-.5-1-1.2.6m-6-3v-1.4h-1.2l-.3-.5h-2.5v1.2h-2.4v2.1h.4v.6m14-5.9h-1.5l-1.6.9h-1.8l-.8 1.5 1.4 1h1.3l.9-.5h1l1.4-2.6zm4.5 9.2v-.8h-2.7l-3.7 2.1m-9.5-17.9l-1 .1m-1.7 1.4v1.8l-.9.5v2.4h.3l1 .5v1.8h1.8v.3h2.4l1.4-.8v-.9l-1-.7v-1.3l2-1.1-.9-1.8v-1.1"/><path fill="none" stroke="#F1A375" stroke-width=".606" stroke-miterlimit="1" d="M148.7 91.9l2.7 1.5h.9l1 .5v1.8l-1.2.7v1l.6.4v2.1h.4v.6m-4.1 1.6h-4.1l-.8-1.3M171.4 81l1.5-2.4v-.7h-.6l-1-1.6v-1.2l-.6-1.2.3-.7-1.1-.5 1-1.8v-.8h-2.2v.9h-1.3v1.1h-1.5v1l1.2 2.4m.7 8.2l2.9.4V82m-16.3 5.4l1-.1m8 5.7h-2.1l-.9-.7-.7-1-2 1.1v1.3l1 .7h3.2l1.5-.7zm-4.3 5.6h1.5v-.7l.4-.7 1.4 1h1.3v.8H161l1.2 1.9-.8.5m2 .2l-.7-.4-.8.4m11.4-1.1h-5.9v1.8l1.1.9h2.8l1.6-1M139.1 87v1.4h1.5"/><path fill="none" stroke="#F1A375" stroke-width=".606" stroke-miterlimit="1" d="M161.9 101.6l.8-.3.7.3 1.1-.6v-.9l-.7-1.1h-2.6l1 2-.7.3m-12.8-9.4l2.7 1.6V93l.4-.5v-.8l-1.7-1.1m24.9-.3v-.8l.5-.1v-1.1l-1.4-.8v-1.2h-2.2l-.2-.5-1.3.9-1 1.6h-2.3l.7 1.1V91h6.8l.3-.4zm-20.1 5.8v.5h2.5l.3.5h3.4l.4-.7.4-.8v-1.2h-3.2v.9l-1.4.8zm9.9 9.3l.9-.6v-2.3l-.2.2-.4-.7-.8.5M87 146.9l-.5.7v3.3h-1.9v.4H84m2.5-.4H88l1.3-2.1h.8"/><g fill="none" stroke="#488CAA" stroke-width=".606" stroke-miterlimit="2"><path d="M194.6 140.9h-2.8l-.6-1.1h-.5l-.1.1-.1.1v-1.5l-1.3-2.3-2.9-1.6-1.3-2.4-1-1.6v-3.3l-.8-1.4h-.9v-1.6l-3.6-6.3.4-.3 1.2 2h.4v-1.3l.1-2.2-.5-.9h-4.4l-.4.6h-.9l-1.2-.7h-2.8l-2.6-1.5h-1l-1.5.9v1.9h-1l-1.4-.9h-2v-1.2l-1.3-.8h-2.6l-1.7-1v-.8l1.2-.7v-1h-.5v-1.6h-1.9l-.6.3h-7.4l-2.8 1.6v.4h-2.4l-1.2-.7h-1l-1.6 2.9H136l-1 1.7v1.9l-1 1.7-2.8 1.6-.9 1.5-.9.5v1.4l-1.2.8v1.5l-1.2.7v.8l.6 1v5.2l-1.2 2.2.6 1v1.9l.4.7 1.5.9 1.4 2.8 1.7 3 3.7 2.2h2l1.5-.9h2.1l1 .8 2.5-1.2h.8l.5-.5.5-.5h3l1.2.7v2h2.7l.6-.5 1.6 1v3.5l-1 1.7v1.6l1.3 2.3.9.5 1.2.8v1.5l1.2 3v2.2l.4.7v1.9l-1.8 2.2v2.6l-.6 1.3v1.2l3 5.1v3l1.2 4.2 2.3 4v2.3l.6 1 1.1.6h.8l1.6-1h3.5l3.9-2.3 1.9-3.3 2-1.2v-2l1-1.6 1.9-1v-5.1l6.2-6.2v-6.2l-.9-.5v-1.8h-.7V159l.6-1h.6l1.4-2.5 1.3-2.4 3.4-1.9 5.3-9.2v-2.9h-1.4l-3.3 1.8zm9.8 17.2h.7v.7h-.7z"/><path d="M151.7 153.2h.8v.8h-.8zm.2-1.1h.6v.5h-.6zm53.2 26h.6v.6h-.6zm-9.2-6.9l-2 2h-2.4v5.7l-1.1 1v3l1.3 1.7h2.2l3.2-10.3v-1.1l1-.9v-4.2l-2.2 2.2zm-42.3-22.1h.8v.8h-.8zm36.9 18.6h.5v.8h-.5zM119.1 133h.6v.4h-.6zm-1-.3h.6v.8h-.6zm1 2h1.2v.7h-1.2zm1.5-1.7h.3v.9h-.3z"/></g><path fill="none" stroke="#488CAA" stroke-width=".606" stroke-miterlimit="2" d="M201.2 138.1h1.2v.6h-1.2zm-2.3-15.9h-.7v1.4l.2.5.5-.3zm-1.3-.4h.4v.6h-.4zm73 2.3v1.9l.5 1h.9v-4.1h-.8zm-40.7 17.8v3.5l.5 1h.8l.9-.5v-1.7l-1.4-2.3zm44.7-1.2h1.1v-1.3h-.5zm.7.8h1.4v1h-1.4zm-2.7-4.2l.7 1.4h.8v-.7l-.4-.8h-1.1zm4.5 1.4l.7 1.2h.7v-.7l-.5-.8h-.9zm-6.9 4.8l1.9-3.4-.6-.3-1.9 3.4zm4.1-11.4v-.2l-.6-1h-1.9v3l-.6.9 1.1 1.8h2.1l1 .4.7 1.1h.8l-.9-1.5-1.4-.9h-1.1v-.7l.8-1.3zm5.7 11.4l-1-1.7h-.8l-1 1.7h-.5l-.6-.3-.9.6-.6.9h1.2l1.1-.6.4.5-.1.8.8 1.2h1v-1.3h1zm-1.2-24.7h.6v.7h-.6zm-1.9-5.4l1.4.9v1.4h1.6v-2.1l-1.9-1h-.6zm.7 7.4h.7v1.4h-.7zm5.8-8v-1.7h1.8l1.8-.9v-1.6l-.7-1.2v-1.7l-1.7-2.7h-.4l-.7 1.1 1 1.8v1.6l-1.9 1.1v1.5h-3l-1.3 2.1.9.6 1.9-1.2h1.3v1.2zm2.8-12.8h-1.8l-2-1.1h-.7l.9 1.3v.9h-.5v1.1h3.5l.5-.8h1z"/><path fill="none" stroke="#488CAA" stroke-width=".606" stroke-miterlimit="2" d="M281.9 112.1h-.6l-1.4.8.9.5 1.1-.5zm-23.2 44.3h.5v.6h-.5zm5.7 5.2h-1.1l-.8.5h-.7l-2.2-1.3h-1.5l-.6 1 2.3 1.4h2.1l1.1.5h2.6l.5.3h.9v-1.2h-2zm3.1 2h.6v.5h-.6zm-7.6-6.6h.9v.5h-.9zm8.7 6.9h.8v.6h-.8zm-10.9-4.7l.4-.7v-2.2h-1.2l-1.8-2.9v-1.3l-4.9-2.8-1-1.9h-.9l-1.3-.8h-.7v.6l1.1 2 1.9 1v.7l1.3.8v1.4l1.1.6v.7l1 .6v1.1l1.4 2.4 1.7 1 .5.9h1.4zm-7.4-4.3h.4v.6h-.4z"/><path fill="none" stroke="#488CAA" stroke-width=".606" stroke-miterlimit="2" d="M248.7 152.1h.9v.7h-.9zm3.2 5.1h.2v.5h-.2zm18.8-4.6h1.6l-1.4-2.4v-1.5h.7v-1.2h.7l-.5-.9h-1.2v-1.2h-1.4l-1.3 2.3h-.7l-.2.4h-.1l-1 1.9H264v1.5h-2.6v1.6l1.4 2.4v1.7h1.5v.6h3l.5.7 1.8-1v-2.3l1.1-.6zm-19.4 3.5h.3v.6h-.3zm24.3-1.8l-1.4.9-.5-.9v-1h4.3l1-1.8h-.9l-.4.9h-4.5v2.1l-1.3 2.1v1.2l1.1.6-.2.7-.7 1.3h1.4v-3.6h.9v1.4l.9 1.5.7-1.2v-1.4l-.8-1.6.8-.5zm4.3 3.1h.9v.8h-.9zm-3.2 7.5l-.5.8v1h.6l1.1-.7v-.4l2.2-1.3.4-.7h-1.6zm5.9-11.3v-1.9h-.7v-.5h.8v-.8h-.8l-.6.9v1.8l.8.5zm-9.8 10h2.5v.8h-2.5zm-1.2 1.5v.5l1.3.5h.8v-.5l-.8-.5zm-1.8-1.2h1.6v.6h-1.6zm8.4-8.3h1.7v.6h-1.7zm3.1-1.6h.7v.6h-.7zm6.9 6.7h.5v.9h-.5zm-6.4-3.3l1.7.1.3.6h.9v-1.2h-2zm-22.7-27.6v1.6h2.2v-2l-1.1-.3zM163.5 84h-.7l-.6 1v.4h.5zm-14.2 20.7h.6v.5h-.6zm-2.7 1.4h.9v.6h-.9zm1.3-.9h.9v.6h-.9zM185 71.4h1.1v.9H185z"/><path fill="none" stroke="#488CAA" stroke-width=".606" stroke-miterlimit="2" d="M201.1 133.2l.7-.4h1.2l1.8-1.1 1-1.6 2.1-3.6-1-1.7h-.9l-1.8-1.1v-1l-.7-1.2-1.4 2.5h-3l-.5-.1-1.3-2.3v-1l-1.6-1-.5-.8-.7-1.1.6-1h1.9l1.7 3h1.2v1h3.4l.8-.4 1.4 2.5h7.5l1.2-.8 1.4 2.5.2.1 1.4.8h1.2l-1.2.7.7 1.2 1 .6h1.3l.7-1.1.7 1.2v3.3l.8 1.3v.9l1.8 3.2v1.5l1.6 1v2.2l.8.4v1.2l1 .6 2.1-3.6v-1.3l.8-1.3-.6-1.1v-2.1h1l1.2-.7v-1l2-1.2v-1l2.6-1.5v-1.5h1.9l1.9-1.8h.7v2.2l1 .6 1.7 1 .9 1.5v3.2h1.5l1-1.6 1.4 2.5v1.5l1.2 1.9v5.1l1.4.8.8 1.3.5.9v2.7l4 2.3h-.6v.9h.9v-.8h-.6v-.8l-1.1-1.8v-2.2l-1.3-.8-1.9-.9v-1.2l-.8-1.2h-.6v-2.8l.5-.8v-2h.8v1.2h1.5l1.2 2.2.8.5h.8l.4.6v1.7h.7l1.2-2.2h.8l1.2-2.2v-2.4l-1.9-3.4-1.7-1.1-.9-1.5v-.8l1.3-2.3.4.2h1.9v.8l.9-.3v-.8h1.6l2.7-1.5h1.7l.4-.3.4-.2 1.8-3.1v-1.3l1.2-2.2v-1.9l-.8-.5v-1.5l-1.4-.9-1.3-2.4-1.2-.7 1.2-2.2 1.3-.8v-.4h-2.8l-.7.4-2.2-1.2v-.8h1.2l1.2-2.2.9.5v2l2.5-1.4 1.4.9v2.1h1.9l1.1 1.8v2.2h1l1.9-1.2v-1.1l-1.1-1.8-2.1-1.2-.7-.4v-1.2l1.2-.7v-2.5l.5-.9 1.7 1 1.2-.7 1.2-1.9v-5.6l-2.6-4.4-1.9-1.2h-.9v.9h-1.1l-2.2-1.3h-1.2l2-3.5v-1.7h5l1.3-.8h1.5l1.3.8h.9v-2.6h2.6l1.5.9.6-1.1-.6-1.2h1.5v5.1h-1v2l1 1.7 3.4 1.9 1.2 2.2h1.4v-2.8l-.6-.3 1.1-.6v-.5l-1.2-.7V85l-3-1.7v-2.1h1.7l1.2-.7h.7l1.2.7 1.1-1.9 1.3-.8h2.2l-3.9-2.3h1.2l-1.9-1.2.5-.8 2.1 1.2h2.4l1.6 1h1.8l-.9-.7v-1.3l-1.2-.8H295l-1.8-1.1h-1.7l-1.3-.8h-2.8l-1.9-1.1h-6l.6 1-1.6-1h-4.6l-1.2.7-3-1.7h-5.9l-1-.6H261l-1.2-.7h-3.5l-1.1-.7H253l.7 1.2h-5.5V70h-1.1l-1.2-.7h-1l-1.2-2.1h-4.6v.6h-3.6v-.6h-4.4l-1-.6-3 1.7-.5-.9 3.3-1.8-1.9-1.1h-4.3l-1.7-1h-1.8l-.5.9v.6h-5v.5h-2.9l-1.1.7.6 1h-3.5v.8l.6 1-2-1.2-1.2 2.1-.9-1.5-1 .6 1.6 2.8h2.4v.5H206v1.6l-1.2.7-.8-.4.8-.5v-1.2l-1.7-3h-.9V68h-1.1l-1.2-.8-1.7 3 3.3 1.9-.4.7-2.1-1.2h-1.1l-1-.6h-2.5l.7.4v.8l-1.1.6-.7-1.1-1.1.6h-1.7l-1.8 1.1v-1.1h-.7l-3.3 1.9h-1l-.5-.8v-1.2H182v1.7l.7.6v.7h-.7l-.4-.7h-.8l-1.5.9.8 1.2h-.9l-1.2-.7h-1v.6h.8v.7h-1.1l-1.3-1v-.8l-1.9-1.2.4-.7 2.2 1.2h2.7l1.3-.8v-.7l-3.5-2h-3.4l-1-.6h-1.6v-.8H166l-1 .6h-1.2l-.9.5h-1.3l-2.4 1.3-1.8 3.2-2 1.2v.7l-1.2.7H153l-1.6 1v1.8l.6 1V83l1.2.7h.6l2.3-1.2h.5v1.2l1.1 1.7v.9h1.4l2-1.2v-1.8l1.3-.8v-1.3h-1v-2.4l3-1.7v-1.5h2.8v1l-2.6 1.5v3.1l1.1.7h1.5l1.2-.7h3v1.1H168l-.9.5v.8l.7.4v1.2h-.7l-.7-1.2h-.4l-.8 1.3V87l-1 .6v.5h-1l-.8-.4h-.4l-1.6 1h-1.5l-1-.6-1 .6h-.9l-.6-1.1v-1.2l.6-.4v-.4l-1-.6-1.1.6V87l.4.8v1.3h-1.7l-.5.3h-1.2l-.9 1.5-.4.7-1.1.6h-.7l-.7 1.2-1.2.7h-1.6v.7h-2.9V96l1.3.8h1.1l.8 1.3v2.7l-.8.4h-6l-.9.5v3l-.7 1.2v3.1h1.7l1.5 1 1.2-.7h2.5l1.5-.9.7-1.2V105l3.4-1.9v-1.6h3.1l1-.6h.8l.5-.9h.9l1.7 3 1.6 1h.8l1.8 1.1v1l.4.7-.4.7.4.7 1.1-1.8-.5-.9.4-.6 1.1.6.3-.5-4.3-2.5v-1l-1.4-.9v-1.5h1.5l1.1 1.8h.7l.6 1.1.5.3h1.4l.6 1.1.2-.2h.2v2.1l.5.8 1 1.7.1.1h1.2v.5h-1.2l.9 1.2h1.3v-1l1.2-.7-.5-.9-.9-1.5h1.2l.5-.9h2.7l1.2-.7-.6-1-.2-.4v-1.1l.7-.4v-.7h.5l1.5-2.7h1.3v.9h1.6l-.8.5.8 1.2 1.3-.8-.5-.8.8-1.4h2.3l-1.2 2.1 3.6 2 1.4 2.5h-5.3l-1.4-.9h-2.4l-1.9 1.1h-1.6v1.1h-2.5v1.3h.6v2l2.6 1.5h1.2v-.7h1.4l1.2.8h1l1.2-.7h.8v3.2l-.7 1.2v2h-.5l.5.9-.1 2.2h.6v1.1l2.9 5 1.7 1v2.5l.8 1.2 1.6 1 2.1 3.7v2.4l1.2 1.9h.7l2-1.2h1.5l4.4-2.6v-.7l1-.9m-4.8-24.4l-2.1-1.2v-2.9h1v-.3l-2.1-1.2-2-3.5v-1.2l1.4-.9 1.4-.8h2.6v1.6h-1.2l-.8 1.3 1 1.6h1.5v3.3h1.4l.6 1v3.1l-2.7.1z"/><path fill="none" stroke="#488CAA" stroke-width=".606" stroke-miterlimit="2" d="M191.3 70v-.6h-1.5l-.7-1.7 3.7-2.2h2.9l1.9-1.1h-2.5l-.6.4H191l-4.1 2.4v1.6l2 1.2zM281 94l-.6-1.2-1.9-1-1.7-2.9h-1.3l2.7 4.8 1 .5 2.2 3.9 1.3-.7-1-1.5-1.4-.9v-1zm-27.4-28.5h3.4v.6h-3.4zm-1.3.4l-1.8-1h-4l.7 1zm31 3.5h3v1h-3zm-124 40.5h.7v.5h-.7zm-1.6-2l2.6 1.4v-2.1h-2.6zm-3.8-3.5v1.7h1.2v-2.4h-.9zM139.1 87l-1.5.9v1l-.7 1.3v.9h1.5l1.3-.8h.9v-1.9l.6-.4v-1h-2.1zm-5.4-12.4l-.9.5h-2.6l-.4-.8-2 1v.7h1.2v1.1l1.2.6h2.2l1.6-.9h1.5l.7-1.1-.7-1.1zm36.5 30.3h.3v.3h-.3zm-.4 5.3h-1.1v.6h.9l.3.4h2.1v-.6h-1.9zm1.1-1.7h.4v.4h-.4zm-.2-1.8h.6v.5h-.6zm-1.3.9l1 .6.2-.3-.9-.5zm.9.8h.4v.3h-.4zm2.2 1.5h.7v.6h-.7zm.1-1.1h.4v.5h-.4zm-18.4-6.4v.7h.9v-1.2l-.3-.5zm-46.4-31.5v-1h-1.4l-.6 1.1.9.6z"/><path fill="none" stroke="#488CAA" stroke-width=".606" stroke-miterlimit="2" d="M129.4 70.7h-1.6v-1.5h1.1l.6 1h1.6v-1.1l-1.3-.8v-1h3.2v-1.7h1.3l-.9-1.5h1.4v-.9l.8-1.3 1.5-.9h2.8l.6-.9H135l-1.8-1.1-1 .7h-2.1l-1-.6h-9.4l-1.2.6h-7.4l-1.1.7h-1.6l-2.3 1.3h-2l-1.6 1h-3.7v.7h3.6v.6h-2.9v1h6.8l.9 1.6v2.6h1.6v1.5l-1.2 2.1H106v1.7h-.8v1.8h1.2l-1.2.8v1.8l.9 1.6h2.4l.4.7 2.6-1.4v-1l2.4-1.4v-1.2l2.5-1.4h1.9l3.9-2.2h5.1l2.1-1.2zm26.4 16.4l.3.5h.5l.6-.9-.2-.4h-1.2zm22 23.7v.7h1.4l.9-1.4-1.2.7zM90.5 215.7h.7v.7h-.7zm1 .1h1v.6h-1zm48.7-131l1-1.6-.3-.2-1 1.6zm2.1 2.5h1v2h-.9v1l-.7.5 1.2.7-1.7 1h2l1.1-.6h2.7l.5-.5.4-.6v-1.2h-1.4v-1.7l-1.3-.9v-.9h-1.4l1.1-2h-1.7l.7-1.2h-1.6l-.9 1.7v2.1h.6zm-68.4 43.4h1.7v.8h-1.7zM15.7 82.3h4.6l1.4-.8v-.8h-3.2zm57.2-11.1h-1.5l-.6 1.1h2.1zm-.3-1.7h1.8l1.8-1.1-.7-1.1h-2l-1.6.9zm2.1-4.9h.8v.8h-.8zm3.6 4V68h1.4l2.7-1.5h-4.3l-1.2 2.1h1.2zm-20.5 2.1v.7l1.5 1H63l2-1.2 1.3.8h1.9v-1.1H70l-1.7-.9 1.4-2.2h-1.5l-.8 1.2h-.9v-1h-3.1v-.5l-1.6.8h-1.9l-1.5 1v.7h3v.7zm15.3-4.5l-1.9-1.1h-2.4l-.6-1.1h-4.1l-1.5 1 2.2 1.2zm-3 1h1v.6h-1z"/><path fill="none" stroke="#488CAA" stroke-width=".606" stroke-miterlimit="2" d="M59.9 67.8h1.9l1.5-.9-1.1-.5h-4.7l-3.4 1.9v1.4h2.4zm34.3 23.9H94l-2.1 1.2-2 3.3h6.2v-2.1l-2-1.1.7-1.3zM83.4 75.5h2.1v1.2h-2.1zm-.2-7l2-1.1h-2.6l-2.3 1.2-.4.9h3.3zm5.8-1.3h2.4v.8H89z"/><path fill="none" stroke="#488CAA" stroke-width=".606" stroke-miterlimit="2" d="M94.3 72.1l.6-.4v-1.3h-1.5l-1.8-.9v-1.2h-1.9v.4h-1.3v-1.4h-1.7l-2.8 1.5v1.1h-3.2l.4.7h6.3l2.8 1.7v.9l-2.3 1.4v1h-1.7v1.2h.9l.7 1.3 1.1.6h1.2l1.5.9.3-.6-1.4-.9.4-.6 2.2 1.4.8-1.3v-1.5h-1.2v-1.5h1.9v1.3h.7l2.8-1.6zM77 64.4h1.5v1.1H77zm2.1.9h1.7v.7h-1.7zm11.2.6l.7-1.1h-7.3l-.5-.8-1.1 1.9z"/><path fill="none" stroke="#488CAA" stroke-width=".606" stroke-miterlimit="2" d="M86.3 72.7h1.8v1h-1.8zM75.5 85.4h1v.8h-1zm6.1 14.5l.6.9 3.2-1.9h1.8l1.6-.9v-1.6h-1.1l-.1 1.2h-2.1zm-3-22.8l.9.4h1.6l-.9-1.3-.9-.6h-.4l-3.4 1.9 1.2.6zM26.1 90.7l1.5-2.6h-1.5zM86.5 93h1.6v.9h-1.6zm-55.9 1.2L29 91.5h-1.9l1.6 2.7zM80 139.6h.5v.4H80zm-1.1.5h.9v1.1h-.9zm.6-2.6h.6v.6h-.6zm.1-1.1h.6v.8h-.6zm-1.6-4.1h.4v.4H78zM62.3 131h1.9v.9h-1.9zm16.6 7.8h.6v.5h-.6zm-6.3-7.5v-.9l-1.9-1.1h-2.6v1.3h-1.6v.7h2.7zm6.7 3.1h.5v.8h-.5zm-23.1-7.5v-.1h-.1zm10.3 1.6l-5.4-3.1h-2.5l-2.4 1.4h4.3l2.3 1.4.7 1.1h3zm14.6 8.7h.5v.5h-.5zM63 120.9h1v.5h-1zm.3 2.2h.5v1.3h-.5zm1.8-.3h.7v.8h-.7zm-.6-1.6h.4v.9h-.4zm1.1 3.9h1v.6h-1zm2.7 1h.5v.3h-.5zm-1.3-.4h.6v.9H67zm12.3 6.2h.7v.7h-.7zm-30.9 22.4h1.1v.6h-1.1zm-1.8-.4h.9v.9h-.9zM74 207.4h1v3h-1zm11 4h2.9l-2.9-1.6zm-10.5-.1h.8v.8h-.8zm-1.7-6.8H74v2.2h-1.2zm240-42.1h-.5v-.8h.5v.8zm.6 1h-.6v.6h.6v-.6zm-15.6 1.3l1.2-1.9h1.2l2 3.3h3l-.9-1.4h-.9l-1.6-2.9h1v-.8l-6.9-4-2.6-1.4h-1.1l-.4.6-1.9 1.1-1.2-.7V155l-1.7-1h-.7l-1.3.8v.8h1.2v.6h1v.5h-1.1l1.3 2.2.3-.2v-1l5 2.8v2.1l-.6 1.1h2.5l.5 1.1.8-.1zm6-4.6v1h2.3l1.5-.8v-1.6h-.7l-.6 1.2h-2.5zm2.6-3.1l2.3 1.4.3-.5-2.4-1.4zm4 3.4h.6v1.2h-.6zm-6.2 23.7v3.3l-3.5 6h-.9l-.8 1.2-2 1.2-2 3.6h-1.7l-2.9 1.6-.7-1.2-1.2.7h-1.9l-1.2-.8v-2.9h-.8l.4-.8h-1l1.4-2.4-1.9 1.2-.8 1.3h-.4v-1.6l-1.3-2.2h-4l-1.3.8H274l-3.3 1.9H267l-2.1 1.2h-2.2l-.7-1.2 1.1-1.8v-7.5h.6v-5l3.6-2.1h2.2l.5-.9h2.7l1.1-1.8v-1.2l.7-1.2h2.5V172l2.8-1.6 1 1.6h1.6v-.7l1.6-2.8h1.7l.7-1.2 1.6 1h2.3l-2.1 3.6 5.4 3.1 1.5-2.7v-3l1.3-2.4.8.5v3.6l1.5 1.1v4.8l2.7 1.5v2.3h1.1v1.6l1.6 1v.9h.1zm-17 22.1h2.3l1.6-2.8h-2.6l-.4-.7-1 .6v2.9M267 125.6v.8h-.9v-.5"/><path fill="#FEF8F3" d="M6.4 45.4h307.1v185H6.4z"/><g fill="#FBE0CE" stroke="#FBE0CE" stroke-width=".202"><path d="M312.2 161.5h.5v.8h-.5zm.6 1.9h.6v.6h-.6zm-10-2.4l-6.9-4-2.6-1.4h-1.1l-.4.6-1.9 1.1-1.2-.7V155l-1.7-1h-.7l-1.3.8v.8h1.2v.6h1v.5h-1.1l1.3 2.2.3-.2v-1l5 2.8v2.1l-.6 1.1h2.5l.5 1.1.8-.1h1.9l1.2-1.9h1.2l2 3.3h3l-.9-1.4h-.9l-1.6-2.9h1zm4.8-.7v-1.6h-.7l-.6 1.2h-2.5v1.2h2.3zm1.4-2.4l-2.4-1.4-.2.5 2.3 1.4zm1.4 2.5h.6v1.2h-.6zm-22.2 42.4l-1 .6.2 2.8h-.2 2.3l1.6-2.7h-2.6zm14.4-22.1h-1v-2.3l-2.8-1.6V172l-1.6-1.2v-3.4l-.7-.5-1.4 2.4v3l-1.6 2.7-5.3-3.1 2-3.6h-2.3l-1.6-.9-.7 1h-1.7l-1.6 2.8v.7h-1.7l-.8-1.6-2.9 1.6v1.4h-2.4l-.8 1.3v1.1l-.9 1.9H270l-.5.8h-2.2l-3.6 2.1v5h-.6v7.5l-1 1.8.7 1.2h2.2l2-1.2h3.7l3.3-1.9h1.6l1.4-.8h3.9l1.4 2.2v1.7h.4l.7-1.3 1.9-1.1-1.3 2.4h1.1l-.3.7h.6v2.9l1.3.8h1.9l1.3-.7.6 1.2 2.8-1.7h1.8l2-3.5 2.1-1.2.6-1.2h1l3.4-6.1v-3.9l-1.6-1zM163.5 84h-.7l-.6 1v.4h.5zm-15.6 21.2h.9v.6h-.9zm1.4-.5h.6v.5h-.6zm-2.7 1.4h.9v.6h-.9zM281 94l-.6-1.2-1.9-1-1.7-2.9h-1.3l2.7 4.8 1 .5 2.2 3.9 1.3-.7-1-1.5-1.4-.9v-1zm2.3-24.6h3v1h-3zm-66.1-7.3h2.8v1.1h-2.8zM191.3 70v-.6h-1.5l-.7-1.7 3.7-2.2h2.9l1.9-1.1h-2.5l-.6.4H191l-4.1 2.4v1.6l2 1.2zm18.2-9h2.4v.7h-2.4zm44.1 4.5h3.4v.6h-3.4zm-1.3.4l-1.8-1h-4l.7 1zm-39.8-4.4h3.6v1.2h-3.6zM185 71.4h1.1v.9H185zm-24.9-6.9l.9-1.4.9-.6-1.3-.8h-1.1l-.6.4-1.3-.8H156V63h1.5zm2.8-.9h2.2l-1.4-.7v-1h2.7V61h-5.1l1.6.9zm-3.6 46.3h.7v.5h-.7zm1-2.7h-2.6v.7l2.6 1.4zm-6.4-2.8v1.7h1.2v-2.4h-.9zM139 87l-1.4.9v1l-.7 1.3v.9h1.5l1.3-.8h.9v-1.9l.6-.4v-1h-2.1v1.4zm-8.8-9.3h2.2l1.6-.9h1.5l.7-1.1-.7-1.1h-1.8l-.9.5h-2.6l-.4-.8-2 1v.7h1.2v1.1zm39.2 29.9l1 .6.2-.3-.9-.5zm1.3-.9h.6v.5h-.6zm1.9 2.1h.4v.5h-.4zm-.1 1.1h.7v.6h-.7zm-1.6-1.4h.4v.4h-.4zm-.7-3.6h.3v.3h-.3zm-1.5 5.9h.9l.3.4h2.1v-.6h-1.9l-.3-.4h-1.1zm1.6-2.4h.4v.3h-.4zm-15.2-6.5l-.3-.5-.6 1v.7h.9zm-25.7-30.5v-.7h-1.6v-1.5h1.1l.6 1h1.6v-1.1l-1.3-.8v-1h3.2v-1.7h1.3l-.9-1.5h1.4v-.9l.8-1.3 1.5-.9h2.8l.6-.9H135l-1.8-1.1-1 .7h-2.1l-1-.6h-9.4l-1.2.6h-7.4l-1.1.7h-1.6l-2.3 1.3h-2l-1.6 1h-3.7v.7h3.6v.6h-2.9v1h6.8l.9 1.6v2.6h1.6v1.5l-1.2 2.1H106v1.7h-.8v1.8h1.2l-1.2.8v1.8l.9 1.6h2.4l.4.7 2.6-1.4v-1l2.4-1.4v-1.2l2.5-1.4h1.9l3.9-2.2h5.1z"/><path d="M107.8 70.9v-1h-1.4l-.6 1.1.9.6zm48 16.2l.3.5h.5l.6-.9-.2-.4h-1.2zm24.3 23l-1.2.7h-1.1v.7h1.4zM91.5 215.8h1v.6h-1zm50.8-128.5h1v2h-.9v1l-.7.5 1.2.7-1.7 1h2l1.1-.6h2.7l.5-.5.4-.6v-1.2h-1.4v-1.7l-1.3-.9v-.9h-1.4l1.1-2h-1.7l.7-1.2h-1.6l-.9 1.7v2.1h.6zM90.5 215.7h.7v.7h-.7zm49.7-130.9l1-1.6-.3-.2-1 1.6zm-91.8 69.5h1.1v.6h-1.1zm-1.8-.4h.9v.9h-.9zm27.9 57.4h.8v.8h-.8zm10.5 8.6h2.9l-2.9-1.7zm-12.2-15.4H74v2.2h-1.2zm1.2 2.9h1v3h-1z"/><path d="M103.7 158.8l-1.2-2H97v-1.3l-1.7-1h-2.6l-1.3-.8H90l1.2-2.1-1.1-1.8v-1l-3.1-1.9-.8-.4h-2.6l-.7-1.2h-.7l-1.2-1.9h-.6v2.1-2.4h-.6v-1.2l-2.9-1.7-1.3.7h-3.5v-1.3h-1.9l-1.3.7v1.9h-1l.5-.9v-2.5l-.3.2-2.4 1.4h-1.1l-1.8 3.2h-.1l-.9-.5-.7-1.3h-1.5l-1.8 1.1-1.2-.8-1-1.6v-3.6l.8-.5v-2.1h-4.8l-1.5.8-.6.3 2.1-1.1h-1 .3l.7-1.3v-1.5l2.3-4h-3.2l-2 3.4h-4l-1.2-.7-1.1-1.8v-5.1l1.5-.7v-2.4l4.8-2.8h2.2l1.1.7h1v-1.3h4.1l.4.7 1-.6.9.6v3.3l.6 1.1v1.2h1.4l.5-.8v-4.2l-.6-.2v-1.8l1.4-2.2 4.2-2.5h1.2v-1h.8V107l.9-.5v1.3l1.1-1.9h.7l1.2-.7v-1.5h2.4l1.6-.9v-1.5l4.1-2.4h1.5l2.5-1.5h-.7v-1.7l1.6-1v-.6h-2.2l-1.8.9-.3-.5 3.4-1.9h5.8l2.2-1.3H95v-2.7l-.7-1.4-2.4-1.3V85h.7v-2l-1-1.8-3.6 2.1h-1v-1.8l.4-1-2.6-1.6h-3.2v1l-1.1.6v1.2l-1.6.9v2.8l-4.1 2.4v1.5l-1.4 2.3h-1.7v-3.2l1.3-.8V87h-2.9l-4.3-2.5v-2.8l6.9-4.1h1.7l5.9-3.4h2.2l1.5-2.6-1.5-.9-4.2 2.4v-1.5H77v-2.5l-2.8 1.5v2.1H62.6l-.6 1h-4.9v-1h.9V72h-2.1l-1.8-1.1h-8.6l-1.5 1h-3.7l-1.5-1h-3.2l-1.4-.8h-4.1l-.5-.3h-3.9l-1.6.9h-1.6L20.2 72h-2.6l-.6 1v2h-4.1l-1.6.8v.9h3.4l-.7 1.1h-3.5l-3.8 2.1v.8l-.3.1v1H8l-1.5.8v.4h4.3l-3.5 2h-.8l-.1.5v.7l3.6-2.1v.6h.8v.6l2.9-1.7v-1.1l4.6-2.6h4.2l1 .6v.9h2.3l3.7 6.3v3.6l1.7 2.8-.7 1.1h-2.1l-5.4 9.5v2l.2.5v3.6l.8 1.3h1.4l.4.7v4.6l1 1.7-.3.5h-.6l1 1.5h.8l.6 1.1v.5l-.4.5.6 1.1 1.8 1 .4-.5-1.2-2.2V121l-2.2-3.7v-2.2h1.8v3l3.2 5.5h.7l1.3 2.2v2.6l-.7.4.7 1.3 7.5 4.3h1.6l1.1-.7 1.2.7.9 1.5 1.4.8h1.5v.5h1.2l1 .7.2.1 1.3 2.1v1.4h1.3l1.1.6v1.1l.8.5h1.4l.7 1.1h.7v-1.3l1.4-.7 1.2 2.2v4.6l-1.4.9v1.4l-1.7 1v.8l-.5.9v2.2h.6v.9l-1 .7v2.5l2 1.2 2.1 3.5v1.6l1.7 3.1v1l5.2 3 .7 1.2 1.7 1V192l.9.5v6l-.4.6 1.1 2v2.7h1.4l.7 1.1v1.8l.5.9v5.4l2.1 3.5 5.8 3.4h1.2v-1.8l-2.2-3.7 1.4-2.4v-1.1l-2.4-1.4v-1.1h1.4v-3.5l-1-1.8h2.2V201h2.6l1.4-.9.8-1.2v-1l-1.3-.8v-.5l-1.2-.7h4.1l1.5-2.4 2.8-5v-4l7.1-4.2 1.8-2.9v-7.1l3.8-6.8v-3.6h-1.9z"/><path d="M80 139.6h.5v.4H80zm-1.1.5h.9v1.1h-.9zm.6-2.6h.6v.6h-.6zm.1-1.1h.6v.8h-.6zm-1.6-4.1h.4v.4H78zM62.3 131h1.9v.9h-1.9zm16.6 7.8h.6v.5h-.6zm-6.3-7.5v-.9l-1.9-1.1h-2.6v1.3h-1.6v.7h2.7zm6.7 3.1h.5v.8h-.5zm-12.8-5.9l-5.4-3.1h-2.5l-2.4 1.4h4.3l2.3 1.4.7 1.1h3zm-10.3-1.6v-.1h-.1zm24.9 10.3h.5v.5h-.5zm-17.8-14.1h.5v1.3h-.5zm3.7 2.6h.6v.9H67zm-2.5-4.5h.4v.9h-.4zm1.1 3.9h1v.6h-1zm-2.6-4.2h1v.5h-1zm2.1 1.9h.7v.8h-.7zm3.2 3.3h.5v.3h-.5zm11 5.8h.7v.7h-.7zM15.7 82.3h4.6l1.4-.8v-.8h-3.2zm58.2 48.4h1.7v.8h-1.7zm9.3-62.2l2-1.1h-2.6l-2.3 1.2-.4.9h3.3zm.2 7h2.1v1.2h-2.1zm2.9-2.8h1.8v1h-1.8zm2.7-5.5h2.4v.8H89z"/><path d="M94.3 72.1l.6-.4v-1.3h-1.5l-1.8-.9v-1.2h-1.9v.4h-1.3v-1.4h-1.7l-2.8 1.5v1.1h-3.2l.4.7h6.3l2.8 1.7v.9l-2.3 1.4v1h-1.7v1.2h.9l.7 1.3 1.1.6h1.2l1.5.9.3-.6-1.4-.9.4-.6 2.2 1.4.8-1.3v-1.5h-1.2v-1.5h1.9v1.3h.7l2.8-1.6zm-7-8.5h6v.8h-6zm-5.7 36.3l.6.9 3.2-1.9h1.8l1.6-.9v-1.6h-1.1l-.1 1.2h-2.1zm8.7-34l.7-1.1h-7.3l-.5-.8-1.1 1.9zm3.9 25.8H94l-2.1 1.2-2 3.3h6.2v-2.1l-2-1.1.7-1.3zm-18.7-6.3h1v.8h-1zm11 7.6h1.6v.9h-1.6zm8-32.5v1.4h-.9l-1.1-.7h-1v.9l.8.5h-1.4v.5h4l2-1.1h2.9l1.6-1h2.1l2.3-1.3 2.9-.1-1.2-.7H96.8l-1.2.8h-5.1l.4.8zM30.6 94.2L29 91.5h-1.9l1.6 2.7zm48-17.1l.9.4h1.6l-.9-1.3-.9-.6h-.4l-3.4 1.9 1.2.6zm12-15.5l-2.2-1.2h-.8l-1.1.5-.8 1.6h3.5zm-17.5 4.6l-1.9-1.1h-2.4l-.6-1.1h-4.1l-1.5 1 2.2 1.2zm-15.3 4.5v.7l1.5 1H63l2-1.2 1.3.8h1.9v-1.1H70l-1.7-.9 1.4-2.2h-1.5l-.8 1.2h-.9v-1h-3.1v-.5l-1.6.8h-1.9l-1.5 1v.7h3v.7zm12.7-7.5h1.1v.7h-1.1zM26.1 90.7l1.5-2.6h-1.5zm55.3-28H83v.7h-1.6z"/><path d="M59.9 67.8h1.9l1.5-.9-1.1-.5h-4.7l-3.4 1.9v1.4h2.4zm10.2-.6h1v.6h-1zm4.6-2.6h.8v.8h-.8zm4.4.7h1.7v.7h-1.7zm-2.1-.9h1.5v1.1H77zm.8-2H80v.9h-2.2zm.5 6.2V68h1.4l2.7-1.5h-4.3l-1.2 2.1h1.2zm-5.4 2.6h-1.5l-.6 1.1h2.1zm-.3-1.7h1.8l1.8-1.1-.7-1.1h-2l-1.6.9zm198 54.6v1.9l.5 1h.9v-4.1h-.8zm-40.7 17.8v3.5l.5 1h.8l.9-.5v-1.7l-1.4-2.3zm47.2-3.2l.7 1.2h.7v-.7l-.5-.8h-.9zm-2.8-6.6v-.2l-.6-1h-1.9v3l-.6.9 1.1 1.8h2.1l1 .4.7 1.1h.8l-.9-1.5-1.4-.9h-1.1v-.7l.8-1.3zm1 9.4h1.4v1h-1.4zm-2.7-4.2l.7 1.4h.8v-.7l-.4-.8h-1.1zm7.4 6.2l-1-1.7h-.8l-1 1.7h-.5l-.6-.3-.9.6-.6.9h1.2l1.1-.6.4.5-.1.8.8 1.2h1v-1.3h1zm-9.8 0l1.9-3.4-.6-.3-1.9 3.4zm4.4-2.8h1.1v-1.3h-.5z"/><path d="M248.4 135v1.5l1.2 1.9v5.1l1.4.8.8 1.3.5.9v2.7l4 2.3h-.4v.9h.9v-.8h-.6v-.8l-1.1-1.8v-2.2l-1.3-.8-1.8-1.1v-1.2l-.8-1.2h-.6v-2.8l.5-.8V137h.8v1.2h1.5l1.2 2.2.8.5h.8l.4.6v1.7h.7l1.2-2.2h.8l1.2-2.2v-2.4l-1.9-3.4-1.7-1.1-.9-1.5v-.8l1.3-2.3.4.2h1.9v.8l.9-.3v-.8h1.6l2.7-1.5h1.2v.6h.9v-.8l.4-.2 1.8-3.1v-1.3l1.2-2.2v-1.9l-.8-.5v-1.5l-1.4-.9-1.3-2.4-1.2-.7 1.2-2.2 1.3-.8v-.4h-2.8l-.7.4-2.2-1.2v-.8h1.2l1.2-2.2.9.5v2l2.5-1.4 1.4.9v2.1h1.9l1.1 1.8v2.2h1l1.9-1.2v-1.2l-1.1-1.8-2.1-1.2-.7-.4v-1.2l1.2-.7v-2.5l.5-.9 1.7 1 1.2-.7 1.2-1.9v-5.6l-2.6-4.4-1.8-1h-1.1v.9h-1.1l-2.2-1.3h-1.2l2-3.5v-1.7h5l1.3-.8h1.5l1.3.8h.9v-2.6h2.6l1.5.9.6-1.1-.6-1.2h1.5v5.1h-1v2l1 1.7 3.4 1.9 1.2 2.2h1.4v-2.8l-.6-.3 1.1-.6v-.5l-1.2-.7v-1.2l-3-1.7v-2.1h1.7l1.2-.7h.7l1.2.7 1.1-1.9 1.3-.8h2.2l-3.9-2.3h1.2l-1.9-1.2.5-.8 2.1 1.2h2.4l1.6 1h1.8l-.9-.7v-1.3l-1.2-.8H295l-1.8-1.1h-1.7l-1.3-.8h-2.8l-1.9-1.1h-6l.6 1-1.6-1h-4.6l-1.2.7-3-1.7h-5.9l-1-.6H261l-1.2-.7h-3.5l-1.1-.7H253l.7 1.2h-5.5v1h-1.1l-1.2-.7h-1l-1.2-2.1h-4.6v.6h-3.6v-.6h-4.4l-1-.6-3 1.7-.5-.9 3.3-1.8-1.9-1.1h-4.3l-1.7-1h-1.8l-.5.9v.6h-5v.5h-2.9l-1.1.7.6 1h-3.5v.8l.6 1-2-1.2-1.2 2.1-.9-1.5-1 .6 1.6 2.8h2.4v.5H206v1.6l-1.2.7-.8-.4.8-.5v-1.2l-1.7-3h-.9V68h-1.1l-1.2-.8-1.7 3 3.3 1.9-.4.7-2.1-1.2h-1.1l-1-.6h-2.5l.7.4v.8l-1.1.6-.7-1.1-1.1.6h-1.7l-1.8 1.1v-1.1h-.7l-3.3 1.9h-1l-.5-.8v-1.2H182v1.7l.7.6v.7h-.7l-.4-.7h-.8l-1.5.9.8 1.2h-.9l-1.2-.7h-1v.6h.8v.7h-1.1l-1.3-1v-.8l-1.9-1.2.4-.7 2.2 1.2h2.7l1.3-.8v-.7l-3.5-2h-3.4l-1-.6h-1.6v-.8H166l-1 .6h-1.2l-.9.5h-1.3l-2.4 1.3-1.8 3.2-2 1.2v.7l-1.2.7H153l-1.6 1v1.8l.6 1V83l1.2.7h.6l2.3-1.2h.5v1.2l1.1 1.7v.9h1.4l2-1.2v-1.8l1.3-.8v-1.3h-1v-2.4l3-1.7v-1.5h2.8v1l-2.6 1.5v3.1l1.1.7h1.5l1.2-.7h3v1.1H168l-.9.5v.8l.7.4v1.2h-.7l-.7-1.2h-.4l-.8 1.3V87l-1 .6v.5h-1l-.8-.4h-.4l-1.6 1h-1.5l-1-.6-1 .6h-.9l-.6-1.1v-1.2l.6-.4v-.4l-1-.6-1.1.6V87l.4.8v1.3h-1.7l-.5.3h-1.2l-.9 1.5-.4.7-1.1.6h-.7l-.7 1.2-1.2.7h-1.6v.7h-2.9V96l1.3.8h1.1l.8 1.3v2.7l-.8.4h-6l-.9.5v3l-.7 1.2v3.1h1.7l-.3-.3 1.8 1.1 1.2-.7h2.5l1.5-.9.7-1.2v-2.2l3.4-1.9v-1.6h3.1l1-.6h.8l.5-.9h.9l1.7 3 1.6 1h.8l1.8 1.1v1l.4.7-.4.7.4.7 1.1-1.8-.5-.9.4-.6 1.1.6.3-.5-4.3-2.5v-1l-1.4-.9v-1.5h1.5l1.1 1.8h.7l.6 1.1.5.3h1.4l.6 1.1 1.2-.7-.8.4v2.1l.5.8 1 1.7.1.1h1.2v.5h-1.2l.9 1.2h1.3v-1l1.2-.7-.5-.9-.9-1.5h1.2l.5-.9h2.7l1.2-.7-.6-1-.2-.4v-1.1l.7-.4v-.7h.5l1.5-2.7h1.3v.7h1.6l-.8.5.8 1.2 1.3-.8-.5-.8.8-1.4h2.3l-1.2 2.1 3.6 2 1.4 2.5h-5.3l-1.4-.9h-2.4l-1.9 1.1h-1.6v1.1h-2.5v1.3h.6v2l2.6 1.5h1.2v-.7h1.4l1.2.8h1l1.2-.7h.8v3.2l-.7 1.2v2h-4.9l-.4.6h-.9l-1.2-.7h-2.8l-2.6-1.5h-1l-1.5.9v1.9h-1l-1.4-.9h-2v-1.4l-1.3-.8h-2.6l-1.7-1v-.8l1.2-.7v-1h-.5v-1.6h-1.6l-.6.3h-7.4l-2.8 1.6v.4h-2.4l-1.2-.7h-1l-1.6 2.9H136l-1 1.7v1.9l-1 1.7-2.8 1.6-.9 1.5-.9.5v1.4l-1.2.8v1.5l-1.2.7v.8l.6 1v5.2l-1.2 2.2.6 1v1.9l.4.7 1.5.9 1.4 2.8 1.7 3 3.7 2.2h2l1.5-.9h2.1l1 .8 2.5-1.2h.8l.5-.5.5-.5h3l1.2.7v2h2.7l.6-.5 1.6 1v3.5l-1 1.7v1.6l1.3 2.3.9.5 1.2.8v1.5l1.2 3v2.2l.4.7v1.9l-1.8 2.2v2.6l-.6 1.3v1.2l3 5.1v3l1.2 4.2 2.3 4v2.3l.6 1 1.1.6h.8l1.6-1h3.5l3.9-2.3 1.9-3.3 2-1.2v-2l1-1.6 1.9-1v-5.1l6.2-6.2v-6.2l-.9-.5v-1.8h-.7v-4.9l.6-1h.6l1.4-2.5 1.3-2.4 3.4-1.9 5.3-9.2v-2.9h-1.4l-3 1.7h-2.8l-.6-1.1h-.5l-.6.3.3-.2V138l-1.3-2.3-2.9-1.6-1.3-2.4-1-1.6v-3.3l-.8-1.4h-.9V124l-3.6-6.3.4-.3 1.2 2h.4V118h.6v1.1l2.9 5 1.7 1v2.5l.8 1.2 1.6 1 2.1 3.7v2.4l1.2 1.9h.7l2-1.2h1.5l4.4-2.6v-.7l1.1-.5-1.3-2.3 1.3 2.3.7-.4h1.2l1.8-1.1 1-1.6 2.1-3.6-1-1.7h-.9l-1.8-1.1v-1l-.7-1.2-1.4 2.5h-3l-.5-.1.5-.3v-1.6h-.8v1.3l-1.1-1.8v-1l-1.6-1-.5-.8-.7-1.1.6-1h-1.5 3.4l1.7 3h1.2v1h3.4l.8-.4 1.4 2.5h7.5l1.2-.8 1.4 2.5.2.1 1.4.8h1.2l-1.2.7.7 1.2 1 .6h1.3l.7-1.1.7 1.2v3.3l.8 1.3v.9l1.8 3.2v1.5l1.6 1v2.2l.8.4v1.2l1 .6 2.1-3.6v-1.3l.8-1.3-.6-1.1v-1.7h1l1.2-.7v-1l2-1.2v-1l2.6-1.5v-1.5h1.9l1.9-1.8h.7v2.2l1 .6 1.7 1 .9 1.5v3.2h1.5l1-1.6.8 2.7zm-80.6-45.6l-.9-1.5.3.5.6 1zm-12.9 8.3v-1.6 1.6zm3.9-.6h2.2l.2-.3-.2.4-2.2-.1zm5.7 3.9v-.9.9zm1.2 3.8l2.9-1.6-2.9 1.6zm11.8 45.3l-1.2-1.9.6 1 .6.9zm-8.8-9.5l1.1.6-1.1-.6zM170 167h1.2-1.2v2.3-2.3zm11.6.7zm-32.3-36.9v3.3-3.3l-9.2-7.6-3.8-3.2 13 10.8zm-16.7 13.8l1.2-.7.7-.3-1.9 1zm41.2 34l-1.7-1.2 1.7 1.2zm1.7 2l-1.4-.8 1.4.8zm2.6 4.6v-4.6 5.6-1zm1.4-14.3l-2.5.9v1.2l2.5 1.2-2.5-1.2h-1.1l-2.3 2.3h-4.3l-1.3-1.2v-4.8 4.8l1.3 1.2h4.2l2.3-2.3h1.1v-1.2l2.6-.9v-1.2 1.2h1.9-1.9zm2.1-.5l1 1-1-1zm72.2-44.2h-2.3 2.3l1.5-.9.7.4-.7-.4-1.5.9zm2.7.7v-1 1l.6.4-.6-.4zm-42.9-23.7l2.2-1.2-2.2 1.2zm-23.8 1.9h-1.4 1.4zm6.5 3.7l-2.1-1.2v-2.9h1v-.3l-2.1-1.2-2-3.5v-1.2l1.4-.9 1.4-.8h2.6v1.6h-1.2l-.8 1.3 1 1.6h1.5v3.3h1.4l.6 1v3.1l-2.7.1zm81.3 12h.7v1.4h-.7zm1.2-2h.6v.7h-.6z"/><path d="M287 110.2v-1.6l-.7-1.2v-1.7l-1.7-2.7h-.4l-.7 1.1 1 1.8v1.6l-1.9 1.1v1.5h-3l-1.3 2.1.9.6 1.9-1.2h1.3v1.2h1v-1.7h1.8zm-4.9-9.1v1.1h3.5l.5-.8h1l-.9-1.4h-1.8l-2-1.1h-.7l.9 1.3v.9zm-5.2 12.3l1.4.9v1.4h1.6v-2.1l-1.9-1h-.6z"/><path d="M281.9 112.9v-.8h-.6l-1.4.8.9.5zm-13.3 51h.8v.6h-.8zm-1.1-.3h.6v.5h-.6zm20.7-2.9h.5v.9h-.5zm-36.9-4.6h.3v.6h-.3zm-1-1.2h.4v.6h-.4zm1.6 2.3h.2v.5h-.2zm13.7 6.5l.5.3h.9v-1.2h-2l-.6-1.2h-1.1l-.8.5h-.7l-2.2-1.3h-1.5l-.6 1 2.3 1.4h2.1l1.1.5zm-7.9-4.5l.4-.7v-2.2h-1.2l-1.8-2.9v-1.3l-4.9-2.8-1-1.9h-.9l-1.3-.8h-.7v.6l1.1 2 1.9 1v.7l1.3.8v1.4l1.1.6v.7l1 .6v1.1l1.4 2.4 1.7 1 .5.9h1.4zm12.1 4.7h1.6v.6h-1.6z"/><path d="M248.7 152.1h.9v.7h-.9zm22.2-1.9v-1.5h.7v-1.2h.7l-.5-.9h-1.2v-1.2h-1.4l-1.5 2.7.2-.4h-.7l-.2.4h-.1l-1 1.9H264v1.5h-2.6v1.6l1.4 2.4v1.7h1.5v.6h3l.5.7 1.8-1v-2.3l1.1-.6v-2h1.6zm7.1 3.1l1-1.8h-.9l-.4.9h-4.5v2.1l-1.3 2.1v1.2l1.1.6-.2.7-.7 1.3h1.4v-3.6h.9v1.4l.9 1.5.7-1.2v-1.4l-.8-1.6.8-.5-.4-.7-1.4.9-.5-.9v-1zm-19.3 3.1h.5v.6h-.5zm1.2.6h.9v.5h-.9zm20 .4h.9v.8h-.9zm1.4-3.4h.7v.6h-.7zm1.3-.4v-1.9h-.7v-.5h.8v-.8h-.8l-.6.9v1.8l.8.5zm1.2 4.5h.9v-1.2h-2l-.9.5 1.7.1zm-5.9 7.9v-.4l2.2-1.3.4-.7h-1.6l-2.2 1.3-.5.8v1h.6zm-4.2.1v-.5l-.8-.5h-1.3v.5l1.3.5zm4.5-10.5h1.7v.6h-1.7zm-5.4 8h2.5v.8h-2.5zm-13.7-33.8v1.6h2.2v-2l-1.1-.3zm-57.9 8.3h1.2v.6h-1.2zm-3.6-16.3h.4v.6h-.4zm6.8 36.3h.7v.7h-.7zm-52.5-6h.6v.5h-.6zm-.2 1.1h.8v.8h-.8zm53.4 24.9h.6v.6h-.6zm-9.2-6.9l-2 2h-2.4v5.7l-1.1 1v3l1.3 1.7h2.2l3.2-10.3v-1.1l1-.9v-4.2l-2.2 2.2zm-42.3-22.1h.8v.8h-.8zm36.9 18.6h.5v.8h-.5zm-72.4-35h.6v.8h-.6zm1 2h1.2v.7h-1.2zm1.5-1.7h.3v.9h-.3zm-1.5 0h.6v.4h-.6z"/></g><path fill="#706F6F" d="M155.6 59.5c-.5 0-.8-.1-1.3-.4v2.3c0 .1 0 .1-.1.2l-.8.2c-.1 0-.2 0-.2-.2v-6.3c0-.5 0-.7-.2-1-.1-.2-.2-.3 0-.4l.8-.4c.2-.1.2 0 .3.2.1.1.1.3.2.4.6-.5 1-.7 1.6-.7 1.3 0 1.9 1 1.9 2.9-.2 2.1-.9 3.2-2.2 3.2zm-.2-5.1c-.3 0-.6.1-1.1.5v3.2c.4.3.7.3 1 .3.8 0 1.1-.6 1.1-2.1 0-1.3-.3-1.9-1-1.9zm5.5 5.1c-1.5 0-2.4-1.1-2.4-3s.9-3 2.5-3c1.5 0 2.4 1.1 2.4 3 0 1.8-.9 3-2.5 3zm.1-5.1c-.8 0-1.2.6-1.2 2s.4 2.1 1.2 2.1c.8 0 1.2-.7 1.2-2.1-.1-1.4-.4-2-1.2-2zm6.2 5.1c-.5 0-.8-.1-1.3-.4v2.3c0 .1 0 .1-.1.2l-.8.2c-.1 0-.2 0-.2-.2v-6.3c0-.5 0-.7-.2-1-.1-.2-.2-.3 0-.4l.8-.4c.2-.1.2 0 .3.2.1.1.1.3.2.4.6-.5 1-.7 1.6-.7 1.3 0 1.9 1 1.9 2.9-.1 2.1-.8 3.2-2.2 3.2zm-.1-5.1c-.3 0-.6.1-1.1.5v3.2c.4.3.7.3 1 .3.8 0 1.1-.6 1.1-2.1 0-1.3-.3-1.9-1-1.9zm8 4.7l-.7.3c-.2.1-.2 0-.3-.2-.1-.1-.1-.3-.2-.5-.6.5-1 .7-1.7.7-1.3 0-1.7-.7-1.7-1.9v-3.7c0-.1 0-.2.2-.2l.8-.2c.1 0 .2 0 .2.1v3.7c0 .9.2 1.2.8 1.2.4 0 .8-.2 1.2-.5v-4.1c0-.1 0-.2.2-.2l.8-.2c.1 0 .2-.1.2.1v4.2c0 .6.1.8.3 1.2 0 .1 0 .2-.1.2zm3.9-.1c0 .1.1.2-.1.2-.3.1-.7.2-1 .2-1.1 0-1.3-.6-1.3-1.5v-6.7c0-.1.1-.2.2-.2l.9-.2c.2 0 .2 0 .2.2v6.9c0 .4.1.5.4.5.1 0 .3 0 .4-.1.1 0 .2-.1.2 0l.1.7zm4.7.1l-.7.3c-.2.1-.2 0-.3-.2-.1-.1-.1-.3-.2-.5-.5.5-1 .7-1.6.7-1 0-1.7-.7-1.7-1.7 0-1.7 1.7-2 3-2v-.4c0-.7-.2-1-.9-1-.4 0-.8.1-1.3.3-.1 0-.2 0-.2-.1l-.2-.6c-.1-.2.1-.3.2-.3.6-.2 1.1-.3 1.7-.3 1.3 0 1.9.5 1.9 1.8v2.3c0 .7.1 1 .3 1.4 0 .1.1.2 0 .3zm-1.4-2.5c-.7 0-1.9.1-1.9 1.1 0 .5.3.9.8.9.4 0 .7-.2 1.1-.6v-1.4zm6.1 2.3c0 .1 0 .2-.1.2-.4.2-.9.3-1.4.3-1.2 0-1.5-.7-1.5-1.8v-3.2h-.8c-.2 0-.2 0-.2-.2v-.6c0-.1 0-.2.2-.2h.8v-1.5c0-.1 0-.2.2-.2l.8-.2c.2 0 .2-.1.2.1v1.7h1.5c.2 0 .2.1.1.2l-.1.5c0 .1-.1.2-.2.2h-1.4v3c0 .7.1.8.6.8.3 0 .6-.1.9-.2.2-.1.2 0 .2.1l.2 1zm2.5.2c0 .1 0 .2-.2.2h-.8c-.2 0-.2 0-.2-.2v-4.6h-.9c-.2 0-.2 0-.2-.2v-.6c0-.2 0-.2.2-.2h1.9c.1 0 .2 0 .2.2v5.4zm-.6-6.5c-.5 0-.8-.4-.8-.8 0-.5.4-.8.8-.8.5 0 .8.4.8.8s-.3.8-.8.8zm4.4 6.9c-1.5 0-2.4-1.1-2.4-3s.9-3 2.5-3c1.5 0 2.4 1.1 2.4 3 0 1.8-.9 3-2.5 3zm.1-5.1c-.8 0-1.2.6-1.2 2s.4 2.1 1.2 2.1c.8 0 1.2-.7 1.2-2.1-.1-1.4-.4-2-1.2-2zm8.1 4.7c0 .1 0 .2-.2.2h-.8c-.2 0-.2 0-.2-.2v-3.7c0-.7-.2-1-.7-1-.4 0-.8.2-1.3.6v4.1c0 .1 0 .2-.2.2h-.8c-.1 0-.2 0-.2-.2v-4c0-.5-.1-.8-.2-1.2 0-.1-.1-.2 0-.2l.8-.3c.1-.1.2 0 .2.2.1.2.1.3.2.6.6-.4 1-.8 1.7-.8 1.1 0 1.5.5 1.5 1.8v3.9zm8.6 0l-.7.3c-.2.1-.2 0-.3-.2-.1-.1-.1-.3-.2-.5-.6.5-1 .7-1.7.7-1.3 0-1.7-.7-1.7-1.9v-3.7c0-.1 0-.2.2-.2l.8-.2c.1 0 .2 0 .2.1v3.7c0 .9.2 1.2.8 1.2.4 0 .8-.2 1.2-.5v-4.1c0-.1 0-.2.2-.2l.8-.2c.1 0 .2-.1.2.1v4.2c0 .6.1.8.3 1.2 0 .1 0 .2-.1.2zm5.9 0c0 .1 0 .2-.2.2h-.8c-.2 0-.2 0-.2-.2v-3.7c0-.7-.2-1-.7-1-.4 0-.8.2-1.3.6v4.1c0 .1 0 .2-.2.2h-.8c-.1 0-.2 0-.2-.2v-4c0-.5-.1-.8-.2-1.2 0-.1-.1-.2 0-.2l.8-.3c.1-.1.2 0 .2.2.1.2.1.3.2.6.6-.4 1-.8 1.7-.8 1.1 0 1.5.5 1.5 1.8v3.9zm5.3.3c-.2.1-.2 0-.3-.2-.1-.1-.1-.3-.1-.4-.6.5-1.1.7-1.7.7-1.2 0-1.9-1.1-1.9-2.9 0-1.1.2-1.9.7-2.4.4-.4.8-.7 1.4-.7.4 0 .8.1 1.2.4v-2.6c0-.1 0-.2.1-.2l.8-.2c.2 0 .2 0 .2.2v6.6c0 .6 0 .8.2 1.1.1.1.2.2 0 .3l-.6.3zm-.6-4.7c-.4-.2-.7-.3-1-.3-.8 0-1.1.6-1.1 2 0 1.5.3 2.1 1 2.1.4 0 .8-.2 1.1-.5v-3.3zm7 2.1h-3.2c0 1.1.5 1.7 1.4 1.7.7 0 1.1-.3 1.4-.4.1 0 .1 0 .2.1l.3.6c.1.1 0 .2-.1.3-.5.3-1.2.5-1.8.5-1.6 0-2.5-1.1-2.5-3 0-1.8 1-3 2.4-3s2.2 1 2.2 2.9c-.2.1-.1.3-.3.3zm-1.1-.9c0-1-.3-1.5-1-1.5s-1 .5-1.1 1.5h2.1zm5.3-1.4c0 .1-.1.1-.1.1-.2 0-.2-.1-.4-.1-.3 0-.6.2-1 .7v3.9c0 .2 0 .2-.2.2h-.8c-.1 0-.2 0-.2-.2v-3.5c0-.7-.1-1.1-.2-1.5-.1-.1-.2-.3 0-.3l.7-.3c.2-.1.3.1.4.3.1.2.2.5.2.6.4-.5.8-.9 1.5-.9.2 0 .4 0 .5.1.1.1.1.1.1.2l-.5.7zm7.5 4.6c0 .2 0 .2-.2.2h-3.2c-.2 0-.2 0-.2-.2v-.5c0-.2 0-.2.2-.2h1.1v-5.2l-1.4.8c-.2.1-.2.1-.3-.1l-.2-.4c-.1-.2-.1-.2.1-.3l2.1-1.5h.7c.2 0 .2 0 .2.2v6.5h.9c.2 0 .2 0 .2.2v.5zm2.7.5c-.5 0-1.1-.1-1.6-.3-.2-.1-.2-.1-.1-.2l.1-.7c0-.2.2-.1.3-.1.4.1.9.2 1.3.2 1.1 0 1.7-.6 1.7-1.7 0-.9-.5-1.4-1.2-1.4-.5 0-.9.2-1.3.6-.1.1-.1.1-.2 0l-.6-.2c-.1 0-.1-.1-.1-.2l.4-3.8c0-.2 0-.2.2-.2h3.2c.2 0 .2 0 .2.2v.6c0 .2 0 .2-.2.2h-2.4l-.2 2.1c.1-.1.2-.1.2-.1.3-.2.7-.3 1.1-.3 1.3 0 2.1.9 2.1 2.4 0 1.8-1.1 2.9-2.9 2.9zm8.1-.5c0 .1 0 .2-.2.2h-.8c-.2 0-.2 0-.2-.2v-4.6h-.9c-.2 0-.2 0-.2-.2v-.6c0-.2 0-.2.2-.2h1.9c.1 0 .2 0 .2.2v5.4zm-.7-6.5c-.5 0-.8-.4-.8-.8 0-.5.4-.8.8-.8.5 0 .8.4.8.8.1.4-.3.8-.8.8zm6.9 6.5c0 .1 0 .2-.2.2h-.8c-.2 0-.2 0-.2-.2v-3.7c0-.7-.2-1-.7-1-.4 0-.8.2-1.3.6v4.1c0 .1 0 .2-.2.2h-.8c-.1 0-.2 0-.2-.2v-4c0-.5-.1-.8-.2-1.2 0-.1-.1-.2 0-.2l.8-.3c.1-.1.2 0 .2.2.1.2.1.3.2.6.6-.4 1-.8 1.7-.8 1.1 0 1.5.5 1.5 1.8v3.9zm2.5-3.6c-.5 0-1-.4-1-1 0-.5.4-1 1-1 .5 0 1 .4 1 1s-.4 1-1 1zm0 4c-.5 0-1-.4-1-1 0-.5.4-1 1-1 .5 0 1 .4 1 1 0 .5-.4 1-1 1z"/><path fill="#EE9A56" d="M127.6 161.1h58.1v11.6h-58.1zm-76.4 16.4h14.9v11.6H51.2zM26.9 98.7h9v11.6h-9zM215 95.9h36.5v11.6H215zm17 38.8h52.1v11.6H232zM128.8 86.4h16.8V98h-16.8z"/><path fill="#DB7123" d="M127.6 173.3h99.8v11.6h-99.8zm-76.4 16.4h12.4v11.6H51.2zm-24.3-78.9h10.6v11.6H26.9zm188.1-2.7h29.3v11.6H215zm17 38.8h45.4v11.6H232zM128.8 98.7h15.6v11.6h-15.6z"/><path fill="#706F6F" d="M129.5 73.6h6v1.9h-3.7v1.4h3.1v1.8h-3.1v1.5h3.9v1.9h-6.2v-8.5zm7.2 5.3v-5.2h2.3v5.2c0 1 .5 1.5 1.4 1.5s1.4-.6 1.4-1.5v-5.2h2.3v5.2c0 2.3-1.6 3.4-3.7 3.4s-3.7-1.1-3.7-3.4zm11.1 3.3h-2.3v-8.6h3.5c2.2 0 3.4 1.3 3.4 3 0 1.1-.5 2-1.6 2.5l1.8 3h-2.5l-1.5-2.7h-.8v2.8zm1.1-4.5c.8 0 1.2-.4 1.2-1.1s-.4-1.1-1.2-1.1h-1.1v2.2h1.1zm4.4.2c0-2.6 2.1-4.4 4.6-4.4s4.6 1.8 4.6 4.4c0 2.6-2.1 4.4-4.6 4.4s-4.6-1.8-4.6-4.4zm6.8 0c0-1.3-.8-2.4-2.3-2.4-1.4 0-2.3 1-2.3 2.4 0 1.3.8 2.4 2.3 2.4 1.5 0 2.3-1.1 2.3-2.4zm5.7 4.3h-2.3v-8.6h3.5c2.2 0 3.4 1.3 3.4 3.1s-1.2 3-3.4 3h-1.2v2.5zm1.1-4.4c.8 0 1.2-.4 1.2-1.1 0-.7-.4-1.1-1.2-1.1h-1.1v2.3h1.1zm4.6-4.2h6v1.9h-3.7v1.4h3.1v1.8h-3.1v1.5h3.9v1.9h-6.2v-8.5zm61.3 50.2h2.3v8.6h-2.3v-8.6zm6 4.3v4.3h-2.2v-8.7c0-.1 0-.1.2 0l5.4 4.4v-4.3h2.2v8.7c0 .1 0 .1-.2 0l-5.4-4.4zm7-4.3h3.3c2.5 0 4.3 1.6 4.3 4.3 0 2.7-1.9 4.3-4.3 4.3h-3.3v-8.6zm3.1 6.7c1.4 0 2.2-.9 2.2-2.3s-.9-2.3-2.2-2.3h-.8v4.7h.8zm5.6-6.7h2.3v8.6h-2.3v-8.6zm8.8 7.6h-3l-.4 1h-2.2l4.2-8.7c0-.1.1-.1.2 0l4.2 8.7h-2.4l-.6-1zm-2.2-1.7h1.5l-.8-1.8-.7 1.8zm-41.3-36c-2.4 0-4.5-1.8-4.5-4.4 0-2.6 2-4.4 4.3-4.4 1.8 0 3 .8 3.7 1.8l-1.7 1.2c-.3-.5-.9-1-1.9-1-1.3 0-2 1-2 2.4 0 1.3.8 2.4 2.1 2.4 1.1 0 1.6-.5 2-1.2l1.8 1.1c-.9 1.5-2.1 2.1-3.8 2.1zm9.9-8.7h2.3v8.6h-2.3v-3.3h-3v3.3h-2.3V85h2.3v3.3h3V85zm3.8 0h2.3v8.6h-2.3V85zm6 4.3v4.3h-2.2v-8.7c0-.1 0-.1.2 0l5.4 4.4V85h2.2v8.7c0 .1 0 .1-.2 0l-5.4-4.4zm12 3.3h-3l-.4 1h-2.2l4.2-8.7c0-.1.1-.1.2 0l4.2 8.7H252l-.5-1zm-2.3-1.7h1.5l-.8-1.8-.7 1.8zM27.5 81.1v-5.2h2.3V81c0 1 .5 1.5 1.4 1.5s1.4-.6 1.4-1.5v-5.2H35V81c0 2.3-1.6 3.4-3.7 3.4s-3.8-1-3.8-3.3zm11-1v4.3h-2.2v-8.7c0-.1 0-.1.2 0l5.4 4.4v-4.3h2.2v8.7c0 .1 0 .1-.2 0l-5.4-4.4zm7.1-4.3h2.3v8.6h-2.3v-8.6zm5.7 1.9H49v-1.9h6.8v1.9h-2.3v6.6h-2.3v-6.6zm5.6-1.9h6v1.9h-3.7v1.4h3.1V81h-3.1v1.5H63v1.9h-6.2v-8.6zm7.3 0h3.3c2.5 0 4.3 1.6 4.3 4.3 0 2.7-1.9 4.3-4.3 4.3h-3.3v-8.6zm3 6.6c1.4 0 2.2-.9 2.2-2.3s-.9-2.3-2.2-2.3h-.8v4.7h.8zM26.9 94.5l1.7-1.2c.4.5.9.9 1.8.9.7 0 1.1-.2 1.1-.7 0-.4-.3-.5-.8-.7l-1-.3c-1.2-.4-2.1-1.2-2.1-2.6 0-1.7 1.4-2.6 2.9-2.6s2.4.5 2.9 1.1L32 89.8c-.4-.4-.8-.6-1.5-.6-.6 0-.8.3-.8.6s.2.5.6.6l1.1.4c1.7.6 2.3 1.4 2.3 2.6 0 1.6-1 2.7-3.2 2.7-1.9 0-3-.9-3.6-1.6zm9.4-5.2H34v-1.9h6.8v1.9h-2.3V96h-2.3v-6.7zm9.3 5.7h-3l-.4 1H40l4.2-8.7c0-.1.1-.1.2 0l4.2 8.7H46l-.4-1zm-2.3-1.7h1.5l-.8-1.8-.7 1.8zm6.5-4h-2.3v-1.9h6.8v1.9H52V96h-2.3v-6.7zm5.5-1.9h6v1.9h-3.7v1.4h3.1v1.8h-3.1V94h3.9v2h-6.2v-8.6zm6.6 7.1l1.7-1.2c.4.5.9.9 1.8.9.7 0 1.1-.2 1.1-.7 0-.4-.3-.5-.8-.7l-1-.3c-1.2-.4-2.1-1.2-2.1-2.6 0-1.7 1.4-2.6 2.9-2.6s2.4.5 2.9 1.1L67 89.8c-.4-.4-.8-.6-1.5-.6-.6 0-.8.3-.8.6s.2.5.6.6l1.1.4c1.7.6 2.3 1.4 2.3 2.6 0 1.6-1 2.7-3.2 2.7-1.9 0-3-.9-3.6-1.6zm-10.7 67.2l1.7-1.2c.4.5.9.9 1.8.9.7 0 1.1-.2 1.1-.7 0-.4-.3-.5-.8-.7l-1-.3c-1.2-.4-2.1-1.2-2.1-2.6 0-1.7 1.4-2.6 2.9-2.6s2.4.5 2.9 1.1l-1.3 1.4c-.4-.4-.8-.6-1.5-.6-.6 0-.8.3-.8.6s.2.5.6.6l1.1.4c1.7.6 2.3 1.4 2.3 2.6 0 1.6-1 2.7-3.2 2.7-2 0-3.1-.9-3.7-1.6zm7.5-2.8c0-2.6 2.1-4.4 4.6-4.4 2.5 0 4.6 1.8 4.6 4.4 0 2.6-2.1 4.4-4.6 4.4-2.4 0-4.6-1.8-4.6-4.4zm6.9 0c0-1.3-.8-2.4-2.3-2.4-1.4 0-2.3 1-2.3 2.4 0 1.3.8 2.4 2.3 2.4 1.5 0 2.3-1 2.3-2.4zm3.3 1v-5.2h2.3v5.2c0 1 .5 1.5 1.4 1.5s1.4-.6 1.4-1.5v-5.2h2.3v5.2c0 2.3-1.6 3.4-3.7 3.4s-3.7-1.1-3.7-3.4zm10.7-3.3h-2.3v-1.9h6.8v1.9h-2.3v6.6h-2.3v-6.6zm10.8-2h2.3v8.6h-2.3v-3.3h-3v3.3h-2.3v-8.6h2.3v3.3h3v-3.3zm-33.5 19.2h-3l-.4 1h-2.2l4.2-8.7c0-.1.1-.1.2 0l4.2 8.7h-2.4l-.6-1zm-2.3-1.7h1.5l-.8-1.8-.7 1.8zm6.3-5.9c0-.1.1-.1.1 0l4.1 4.6 4-4.6c.1-.1.1-.1.1 0l.5 8.6h-2.3l-.2-3.7-2.1 2.5H65l-2.2-2.5-.2 3.7h-2.2l.5-8.6zm10.1 0h6v1.9h-3.7v1.4h3.1v1.8h-3.1v1.5h3.9v1.9H71v-8.5zm9.6 8.6h-2.3v-8.6h3.5c2.2 0 3.4 1.3 3.4 3 0 1.1-.5 2-1.6 2.5l1.8 3h-2.5l-1.5-2.7h-.8v2.8zm1-4.4c.8 0 1.2-.4 1.2-1.1s-.4-1.1-1.2-1.1h-1.1v2.2h1.1zm4.9-4.2h2.3v8.6h-2.3v-8.6zm7.9 8.7c-2.4 0-4.5-1.8-4.5-4.4 0-2.6 2-4.4 4.3-4.4 1.9 0 3 .8 3.7 1.8l-1.7 1.2c-.3-.5-.9-1-1.9-1-1.3 0-2 1-2 2.4 0 1.3.8 2.4 2.1 2.4 1.1 0 1.6-.5 2-1.2l1.8 1.1c-.9 1.5-2.1 2.1-3.8 2.1zm9.4-1.1h-3l-.4 1h-2.2l4.2-8.7c0-.1.1-.1.2 0l4.2 8.7h-2.4l-.6-1zm-2.2-1.7h1.5l-.8-1.8-.7 1.8zm26-26.8l1.7-1.2c.4.5.9.9 1.8.9.7 0 1.1-.2 1.1-.7 0-.4-.3-.5-.8-.7l-1-.3c-1.2-.4-2.1-1.2-2.1-2.6 0-1.7 1.4-2.6 2.9-2.6s2.4.5 2.9 1.1l-1.3 1.4c-.4-.4-.8-.6-1.5-.6-.6 0-.8.3-.8.6s.2.5.6.6l1.1.4c1.7.6 2.3 1.4 2.3 2.6 0 1.6-1 2.7-3.2 2.7-2 0-3.1-.8-3.7-1.6zm7.8-1.8v-5.2h2.3v5.2c0 1 .5 1.5 1.4 1.5s1.4-.6 1.4-1.5v-5.2h2.3v5.2c0 2.3-1.6 3.4-3.7 3.4s-3.7-1.1-3.7-3.4zm8.8-5.3h3.7c1.7 0 2.8.8 2.8 2.2 0 1-.5 1.6-1.2 1.8.8.2 1.5.8 1.5 2 0 1.6-1.1 2.5-3.3 2.5h-3.6v-8.5zm3.4 3.4c.6 0 .9-.3.9-.8s-.2-.8-.8-.8h-1.2v1.5h1.1zm.2 3.4c.7 0 1-.3 1-.9 0-.6-.3-.9-1-.9h-1.4v1.8h1.4zm4.3-2.7h3.1v1.8h-3.1v-1.8zm3.4 3l1.7-1.2c.4.5.9.9 1.8.9.7 0 1.1-.2 1.1-.7 0-.4-.3-.5-.8-.7l-1-.3c-1.2-.4-2.1-1.2-2.1-2.6 0-1.7 1.4-2.6 2.9-2.6s2.4.5 2.9 1.1l-1.3 1.4c-.4-.4-.8-.6-1.5-.6-.6 0-.8.3-.8.6s.2.5.6.6l1.1.4c1.7.6 2.3 1.4 2.3 2.6 0 1.6-1 2.7-3.2 2.7-2.1 0-3.2-.8-3.7-1.6zm12.7.5h-3l-.4 1h-2.2l4.2-8.7c0-.1.1-.1.2 0l4.2 8.7h-2.4l-.6-1zm-2.3-1.7h1.5l-.8-1.8-.7 1.8zm11.2-5.9h2.3v8.6h-2.3v-3.3h-3v3.3h-2.3v-8.6h2.3v3.3h3v-3.3zm8.7 7.6h-3l-.4 1h-2.2l4.2-8.7c0-.1.1-.1.2 0l4.2 8.7h-2.4l-.6-1zm-2.3-1.7h1.5l-.8-1.8-.7 1.8zm8.2 2.7h-2.3v-8.6h3.5c2.2 0 3.4 1.3 3.4 3 0 1.1-.5 2-1.6 2.5l1.8 3H194l-1.5-2.7h-.8v2.8zm1.1-4.4c.8 0 1.2-.4 1.2-1.1s-.4-1.1-1.2-1.1h-1.1v2.2h1.1zm9.7 3.4h-3l-.4 1h-2.2l4.2-8.7c0-.1.1-.1.2 0l4.2 8.7H203l-.5-1zm-2.2-1.7h1.5l-.8-1.8-.7 1.8zm8-1.6v4.3h-2.2v-8.7c0-.1 0-.1.2 0l5.4 4.4v-4.3h2.2v8.7c0 .1 0 .1-.2 0l-5.4-4.4zm-75 14.9h-3l-.4 1h-2.2l4.2-8.7c0-.1.1-.1.2 0l4.2 8.7h-2.4l-.6-1zm-2.3-1.7h1.5l-.8-1.8-.7 1.8zm5.9-5.8h5.8v1.9h-3.5v1.7h3.1v1.9h-3.1v3h-2.3v-8.5zm9.2 8.5h-2.3v-8.6h3.5c2.2 0 3.4 1.3 3.4 3 0 1.1-.5 2-1.6 2.5l1.8 3h-2.5l-1.5-2.7h-.8v2.8zm1.1-4.4c.8 0 1.2-.4 1.2-1.1s-.4-1.1-1.2-1.1h-1.1v2.2h1.1zm4.9-4.1h2.3v8.6h-2.3v-8.6zm7.8 8.6c-2.4 0-4.5-1.8-4.5-4.4 0-2.6 2-4.4 4.3-4.4 1.9 0 3 .8 3.7 1.8l-1.7 1.2c-.3-.5-.9-1-1.9-1-1.3 0-2 1-2 2.4 0 1.3.8 2.4 2.1 2.4 1.1 0 1.6-.5 2-1.2l1.8 1.1c-.9 1.5-2 2.1-3.8 2.1zm9.5-1.1h-3l-.4 1h-2.2l4.2-8.7c0-.1.1-.1.2 0l4.2 8.7H170l-.6-1zm-2.3-1.7h1.5l-.8-1.8-.7 1.8z"/><path fill="#FFF" d="M136.4 169.3c0 .2 0 .3-.3.3h-.8v1.8c0 .2 0 .3-.3.3h-1.1c-.3 0-.3 0-.3-.3v-1.8h-3.3c-.3 0-.3 0-.3-.3v-1.4l3.4-5.6c.1-.1.1-.2.2-.2 0 0 .1 0 .2.1l.8.3c.1.1.2.1.2.2 0 0 0 .1-.1.2l-3.2 5.4h2.1l.2-2.2c0-.2.1-.3.3-.3h.9c.3 0 .3 0 .3.3v2.2h.8c.3 0 .3 0 .3.3v.7zm6.5 1.2c-.6.7-1.4 1.1-2.4 1.1-2 0-3.2-1.7-3.2-4.7 0-1.8.3-3.1 1-3.9.5-.6 1.4-1 2.3-1 .8 0 1.6.3 2.1.9.7.8 1 1.9 1 3.7 0 2.1-.2 3.1-.8 3.9zm-1.2-6.2c-.2-.5-.6-.7-1.1-.7-1 0-1.5 1.1-1.5 3.3 0 2.3.4 3.3 1.5 3.3.5 0 .9-.3 1.2-.8.2-.5.3-1.1.3-2.3-.1-1.6-.2-2.3-.4-2.8zm8.1 6.5c-.5.5-1.2.8-2 .8-1.9 0-2.9-1.4-2.9-4 0-3.4 1.6-5.5 4-5.5.7 0 1.4.2 1.4.4v.1l-.3.9c0 .1-.1.1-.1.1h-.1c-.3-.1-.6-.2-.9-.2-1.1 0-1.9.8-2.3 2.2.5-.5.9-.7 1.6-.7.6 0 1.2.2 1.6.6.6.6.9 1.4.9 2.5.1 1.4-.2 2.2-.9 2.8zm-1.8-4.3c-.8 0-1.2.7-1.2 1.8 0 1.2.4 1.8 1.2 1.8.8 0 1.2-.7 1.2-1.9-.1-1.1-.5-1.7-1.2-1.7zm13.1 4.6c0 .2 0 .2-.2.2h-1.2c-.2 0-.2 0-.2-.2v-4.3c0-.8-.2-1-.6-1-.4 0-.7.2-1.2.6v4.7c0 .2 0 .2-.2.2h-1.2c-.2 0-.2 0-.2-.2V167c0-.9-.1-1.2-.6-1.2-.4 0-.7.2-1.2.6v4.7c0 .2 0 .2-.2.2h-1.2c-.2 0-.2 0-.2-.2v-4.6c0-.7-.1-1-.2-1.5v-.1c0-.1.1-.1.1-.2l1.1-.4h.1c.1 0 .3.4.4 1 .7-.7 1.3-.9 2-.9s1.2.3 1.5.9c.8-.7 1.3-.9 2.1-.9.6 0 1.1.2 1.3.7.2.4.2.7.2 1.6v4.4zm-25.8 12c-.5.5-1.2.8-2 .8-1.9 0-2.9-1.4-2.9-4 0-3.4 1.6-5.5 4-5.5.7 0 1.4.2 1.4.4v.1l-.3.9c0 .1-.1.1-.1.1h-.1c-.3-.1-.6-.2-.9-.2-1.1 0-1.9.8-2.3 2.2.5-.5.9-.7 1.6-.7.6 0 1.2.2 1.6.6.6.6.9 1.4.9 2.5 0 1.3-.3 2.1-.9 2.8zm-1.9-4.4c-.8 0-1.2.7-1.2 1.8 0 1.2.4 1.8 1.2 1.8.8 0 1.2-.7 1.2-1.9 0-1.1-.4-1.7-1.2-1.7zm5.9 5.1c-.7 0-1.3-.2-1.3-.4v-.1l.2-.9c0-.1.1-.1.1-.1h.1c.2.1.6.1.9.1 1.1 0 1.9-.8 2.3-2.3-.5.6-.9.8-1.6.8-.6 0-1.2-.2-1.6-.6-.6-.6-.9-1.4-.9-2.6 0-2 1.1-3.3 2.9-3.3 1.9 0 2.9 1.4 2.9 4 .1 3.3-1.5 5.4-4 5.4zm1.1-8c-.7 0-1.2.7-1.2 1.8 0 1.2.4 1.8 1.2 1.8.8 0 1.2-.7 1.2-1.8 0-1.2-.4-1.8-1.2-1.8zm9.9 7c-.6.7-1.4 1-2.6 1-.9 0-1.7-.2-2.2-.6-.6-.5-.9-1.2-.9-2 0-1.1.7-2 1.9-2.4-1.1-.5-1.6-1.2-1.6-2.2 0-1.3 1.2-2.4 2.9-2.4 1.6 0 2.8 1 2.8 2.4 0 .9-.5 1.6-1.5 2.1 1.2.5 1.9 1.3 1.9 2.4 0 .6-.3 1.2-.7 1.7zm-1.8-3l-.8-.4c-1 .5-1.4 1-1.4 1.7 0 .8.6 1.3 1.5 1.3s1.5-.5 1.5-1.3c0-.5-.3-1-.8-1.3zm-.7-4.1c-.7 0-1.1.5-1.1 1.1 0 .6.3 1 1.2 1.4.8-.3 1.1-.7 1.1-1.3-.1-.8-.5-1.2-1.2-1.2zm13.3 7.6c0 .2 0 .2-.2.2h-1.2c-.2 0-.2 0-.2-.2V179c0-.8-.2-1-.6-1-.4 0-.7.2-1.2.6v4.7c0 .2 0 .2-.2.2h-1.2c-.2 0-.2 0-.2-.2v-4.2c0-.9-.1-1.2-.6-1.2-.4 0-.7.2-1.2.6v4.7c0 .2 0 .2-.2.2h-1.2c-.2 0-.2 0-.2-.2v-4.6c0-.7-.1-1-.2-1.5v-.1c0-.1.1-.1.1-.2l1.1-.4h.1c.1 0 .3.4.4 1 .7-.7 1.3-.9 2-.9s1.2.3 1.5.9c.8-.7 1.3-.9 2.1-.9.6 0 1.1.2 1.3.7.2.4.2.7.2 1.6v4.5z"/><path fill="#575756" d="M73.8 187.5c0 .2 0 .2-.2.2h-3.8c-.2 0-.2 0-.2-.2v-.6c0-.2 0-.2.2-.2h1.3v-6.1l-1.6.9c-.2.1-.2.1-.3-.1l-.3-.4c-.1-.2-.1-.2.1-.3l2.5-1.7h.8c.2 0 .2 0 .2.2v7.6h1.1c.2 0 .2 0 .2.2v.5zm6.3-.7c-.5.7-1.3 1.1-2.2 1.1-1.9 0-3-1.7-3-4.6 0-1.7.3-2.9 1-3.7.5-.7 1.3-1 2.1-1s1.5.3 2 1c.6.8.9 1.9.9 3.6 0 1.8-.2 2.9-.8 3.6zm-1-6.2c-.2-.5-.6-.7-1.1-.7-1.1 0-1.6 1.2-1.6 3.5s.5 3.4 1.6 3.4c.6 0 1-.3 1.2-.9.2-.6.3-1.3.3-2.5 0-1.5-.1-2.2-.4-2.8zm9 5.1c0 .2 0 .2-.2.2H87v1.8c0 .2 0 .2-.2.2h-.9c-.2 0-.2 0-.2-.2v-1.8h-3.4c-.2 0-.2 0-.2-.2v-1.1l3.4-5.8c.1-.2.1-.2.3-.1l.8.3c.2.1.2.1.1.3l-3.4 5.5h2.3l.2-2.2c0-.2 0-.2.2-.2h.7c.2 0 .2 0 .2.2v2.2h.9c.2 0 .2 0 .2.2v.7zm9.4 1.9c0 .2 0 .2-.2.2h-1c-.2 0-.2 0-.2-.2v-4.5c0-.7-.2-1-.7-1-.4 0-.7.2-1.3.6v4.9c0 .1 0 .2-.2.2h-1c-.2 0-.2 0-.2-.2v-4.4c0-.8-.2-1.1-.7-1.1-.4 0-.8.2-1.3.6v4.9c0 .2 0 .2-.2.2h-1c-.2 0-.2 0-.2-.2v-4.7c0-.5 0-.8-.2-1.1-.1-.2-.2-.4 0-.4l.8-.3c.3-.1.3.2.4.4 0 .1.1.2.1.4.7-.6 1.3-.9 2-.9s1.1.3 1.4.9c.8-.6 1.3-.9 2-.9 1.3 0 1.5 1 1.5 2.1v4.5zm-26.1 11.7c-.6.6-1.4.9-2.4.9-1.8 0-3-1-3-2.5 0-.5.1-.9.4-1.3.3-.5.8-.8 1.6-1.1-.5-.2-.8-.4-1-.7-.4-.4-.6-.9-.6-1.5 0-1.3 1.1-2.3 2.6-2.3s2.7.9 2.7 2.2c0 .3-.1.6-.2.8-.2.6-.6.9-1.4 1.3 1.1.4 1.9 1.3 1.9 2.4 0 .8-.2 1.3-.6 1.8zm-1-2.4c-.3-.5-.7-.7-1.4-1-.3.1-.6.3-.8.4-.4.3-.8.8-.8 1.4 0 .8.7 1.4 1.6 1.4.9 0 1.5-.6 1.5-1.4.1-.4 0-.6-.1-.8zM69 192c-.8 0-1.3.5-1.3 1.2 0 .8.7 1.2 1.3 1.5.3-.1.5-.2.6-.3.4-.3.6-.7.6-1.2.1-.7-.4-1.2-1.2-1.2zm7.1 8.2c-1.8 0-2.7-1.4-2.7-3.9 0-3.3 1.5-5.5 3.9-5.5.5 0 1 .1 1.2.3l.1.1-.2.8c0 .1-.2.1-.3.1-.3-.1-.5-.1-.8-.1-1.2 0-2.1.9-2.4 2.6.1-.1.2-.3.3-.4.3-.3.8-.5 1.3-.5 1.6 0 2.4 1.4 2.4 3.1 0 2.1-1.2 3.4-2.8 3.4zm.1-5.2c-.9 0-1.3.7-1.3 1.9 0 1.4.4 2.1 1.3 2.1s1.4-.8 1.4-2.1c-.1-1.2-.6-1.9-1.4-1.9zm12.4 4.8c0 .2 0 .2-.2.2h-1c-.2 0-.2 0-.2-.2v-4.5c0-.7-.2-1-.7-1-.4 0-.7.2-1.3.6v4.9c0 .1 0 .2-.2.2h-1c-.2 0-.2 0-.2-.2v-4.4c0-.8-.2-1.1-.7-1.1-.4 0-.8.2-1.3.6v4.9c0 .2 0 .2-.2.2h-1c-.2 0-.2 0-.2-.2V195c0-.5 0-.8-.2-1.1-.1-.2-.2-.4 0-.4l.8-.3c.3-.1.3.2.4.4 0 .1.1.2.1.4.7-.6 1.3-.9 2-.9s1.1.3 1.4.9c.8-.6 1.3-.9 2-.9 1.3 0 1.5 1 1.5 2.1v4.6zm-47.3-90.7c-1.8 0-2.7-1.4-2.7-3.9 0-3.3 1.5-5.5 3.9-5.5.5 0 1 .1 1.2.3l.1.1-.2.8c0 .1-.2.1-.3.1-.3-.1-.5-.1-.8-.1-1.2 0-2.1.9-2.4 2.6.1-.1.2-.3.3-.4.3-.3.8-.5 1.3-.5 1.6 0 2.4 1.4 2.4 3.1 0 2.1-1.2 3.4-2.8 3.4zm.1-5.1c-.9 0-1.3.7-1.3 1.9 0 1.4.4 2.1 1.3 2.1s1.4-.8 1.4-2.1c-.1-1.2-.6-1.9-1.4-1.9zm6 5.1c-.7 0-1.6-.2-2.2-.5-.1-.1-.2-.1-.1-.2l.3-.8c0-.1.1-.1.2-.1s.1 0 .2.1c.5.3 1.1.4 1.6.4 1 0 1.6-.6 1.6-1.6s-.6-1.5-1.8-1.5h-.5c-.2 0-.2 0-.2-.2v-.7c0-.2 0-.2.2-.2h.5c.9 0 1.6-.5 1.6-1.5 0-.7-.5-1.2-1.2-1.2-.6 0-.9.3-1.3.7-.1.1-.2.2-.3.1l-.7-.6c-.1-.1-.1-.2 0-.3.6-.7 1.4-1.1 2.3-1.1 1.5 0 2.5.9 2.5 2.3 0 1-.4 1.6-1.3 2 .4.1.6.3.8.4.5.4.8 1.1.8 1.9 0 1.5-1.3 2.6-3 2.6zm12.9-.4c0 .2 0 .2-.2.2h-1c-.2 0-.2 0-.2-.2v-4.5c0-.7-.2-1-.7-1-.4 0-.7.2-1.3.6v4.9c0 .1 0 .2-.2.2h-1c-.2 0-.2 0-.2-.2v-4.4c0-.8-.2-1.1-.7-1.1-.4 0-.8.2-1.3.6v4.9c0 .2 0 .2-.2.2h-1c-.2 0-.2 0-.2-.2V104c0-.5 0-.8-.2-1.1-.1-.2-.2-.4 0-.4l.8-.3c.3-.1.3.2.4.4 0 .1.1.2.1.4.7-.6 1.3-.9 2-.9s1.1.3 1.4.9c.8-.6 1.3-.9 2-.9 1.3 0 1.5 1 1.5 2.1v4.5zm-14.7 4.2l-3.1 8.3c-.1.2-.1.2-.3.1l-.9-.1c-.2 0-.2-.1-.1-.3l2.8-7.4h-3.4c-.2 0-.2 0-.2-.2v-.8c0-.2 0-.2.2-.2h4.7c.2 0 .2 0 .2.2v.4zm3 8.4c-.7 0-1.6-.2-2.2-.5-.1-.1-.2-.1-.1-.2l.3-.8c0-.1.1-.1.2-.1s.1 0 .2.1c.5.3 1.1.4 1.6.4 1 0 1.6-.6 1.6-1.6s-.6-1.5-1.8-1.5h-.5c-.2 0-.2 0-.2-.2v-.7c0-.2 0-.2.2-.2h.5c.9 0 1.6-.5 1.6-1.5 0-.7-.5-1.2-1.2-1.2-.6 0-.9.3-1.3.7-.1.1-.2.2-.3.1l-.7-.6c-.1-.1-.1-.2 0-.3.6-.7 1.4-1.1 2.3-1.1 1.5 0 2.5.9 2.5 2.3 0 1-.4 1.6-1.3 2 .4.1.6.3.8.4.5.4.8 1.1.8 1.9 0 1.5-1.2 2.6-3 2.6zm13-.4c0 .2 0 .2-.2.2h-1c-.2 0-.2 0-.2-.2v-4.5c0-.7-.2-1-.7-1-.4 0-.7.2-1.3.6v4.9c0 .1 0 .2-.2.2h-1c-.2 0-.2 0-.2-.2v-4.4c0-.8-.2-1.1-.7-1.1-.4 0-.8.2-1.3.6v4.9c0 .2 0 .2-.2.2h-1c-.2 0-.2 0-.2-.2v-4.7c0-.5 0-.8-.2-1.1-.1-.2-.2-.4 0-.4l.8-.3c.3-.1.3.2.4.4 0 .1.1.2.1.4.7-.6 1.3-.9 2-.9s1.1.3 1.4.9c.8-.6 1.3-.9 2-.9 1.3 0 1.5 1 1.5 2.1v4.5z"/><path fill="#FFF" d="M222.7 101.6c-.4.4-.4.5-1.8 1.5-.7.5-.9 1-1 1.5h3.2c.2 0 .3 0 .3.3v.9c0 .2 0 .3-.3.3h-4.9c-.1 0-.2-.1-.2-.2v-.1c0-1.1.1-1.6.4-2.3.4-.7.7-1 2.2-2.2.9-.7 1.2-1.2 1.2-2 0-.7-.4-1.1-1.1-1.1-.7 0-1 .3-1.4 1.2-.1.1-.1.2-.2.2h-.1l-.9-.3c-.1 0-.2-.1-.2-.2 0-.3.4-1 .7-1.4.5-.6 1.2-.9 2.2-.9 1.6 0 2.6.9 2.6 2.6.1.9-.2 1.6-.7 2.2zm4.7 4.8c-.7 0-1.4-.1-2-.4-.2-.1-.2-.1-.2-.3v-.1l.2-1c0-.1.1-.1.1-.1h.1c.5.2 1.3.4 1.7.4 1.2 0 2-.7 2-1.8 0-.9-.5-1.4-1.4-1.4-.6 0-1 .2-1.4.6-.1.1-.1.1-.2.1h-.1l-.8-.3c-.2-.1-.2-.1-.2-.2v-.1l.4-4.5c0-.2 0-.3.3-.3h4c.3 0 .3 0 .3.3v.9c0 .2 0 .3-.3.3h-2.8l-.2 2.1c.4-.3.8-.4 1.4-.4 1.5 0 2.6 1.1 2.6 2.8 0 2.1-1.4 3.4-3.5 3.4zm7.3 0c-.7 0-1.4-.1-2-.4-.2-.1-.2-.1-.2-.3v-.1l.2-1c0-.1.1-.1.1-.1h.1c.5.2 1.3.4 1.7.4 1.2 0 2-.7 2-1.8 0-.9-.5-1.4-1.4-1.4-.6 0-1 .2-1.4.6-.1.1-.1.1-.2.1h-.1l-.8-.3c-.2-.1-.2-.1-.2-.2v-.1l.4-4.5c0-.2 0-.3.3-.3h4c.3 0 .3 0 .3.3v.9c0 .2 0 .3-.3.3h-2.8l-.2 2.1c.4-.3.8-.4 1.4-.4 1.5 0 2.6 1.1 2.6 2.8 0 2.1-1.4 3.4-3.5 3.4zm13.8-.5c0 .2 0 .2-.2.2h-1.2c-.2 0-.2 0-.2-.2v-4.3c0-.8-.2-1-.6-1-.4 0-.7.2-1.2.6v4.7c0 .2 0 .2-.2.2h-1.2c-.2 0-.2 0-.2-.2v-4.2c0-.9-.1-1.2-.6-1.2-.4 0-.7.2-1.2.6v4.7c0 .2 0 .2-.2.2h-1.2c-.2 0-.2 0-.2-.2v-4.6c0-.7-.1-1-.2-1.5v-.1c0-.1.1-.1.1-.2l1.1-.4h.1c.1 0 .3.4.4 1 .7-.7 1.3-.9 2-.9s1.2.3 1.5.9c.8-.7 1.3-.9 2.1-.9.6 0 1.1.2 1.3.7.2.4.2.7.2 1.6v4.5zm-25.8 7.9c-.4.4-.4.5-1.8 1.5-.7.5-.9 1-1 1.5h3.2c.2 0 .3 0 .3.3v.9c0 .2 0 .3-.3.3h-4.9c-.1 0-.2-.1-.2-.2v-.1c0-1.1.1-1.6.4-2.3.4-.7.7-1 2.2-2.2.9-.7 1.2-1.2 1.2-2 0-.7-.4-1.1-1.1-1.1-.7 0-1 .3-1.4 1.2-.1.1-.1.2-.2.2h-.1l-.9-.3c-.1 0-.2-.1-.2-.2 0-.3.4-1 .7-1.4.5-.6 1.2-.9 2.2-.9 1.6 0 2.6.9 2.6 2.6.1.9-.2 1.6-.7 2.2zm7.6 3.7c-.6.7-1.4 1.1-2.4 1.1-2 0-3.2-1.7-3.2-4.7 0-1.8.3-3.1 1-3.9.5-.6 1.4-1 2.3-1 .8 0 1.6.3 2.1.9.7.8 1 1.9 1 3.7.1 2-.2 3.1-.8 3.9zm-1.2-6.3c-.2-.5-.6-.7-1.1-.7-1 0-1.5 1.1-1.5 3.3 0 2.3.4 3.3 1.5 3.3.5 0 .9-.3 1.2-.8.2-.5.3-1.1.3-2.3-.1-1.5-.2-2.2-.4-2.8zm9.4 5.1c0 .2 0 .3-.3.3h-.8v1.8c0 .2 0 .3-.3.3H236c-.3 0-.3 0-.3-.3v-1.8h-3.3c-.3 0-.3 0-.3-.3v-1.4l3.4-5.6c.1-.1.1-.2.2-.2 0 0 .1 0 .2.1l.8.3c.1.1.2.1.2.2 0 0 0 .1-.1.2l-3.2 5.4h2.1l.2-2.2c0-.2.1-.3.3-.3h.9c.3 0 .3 0 .3.3v2.2h.8c.3 0 .3 0 .3.3v.7zm.9 28.2c-.6.5-1.2.7-2.1.7-.7 0-1.5-.1-2.2-.4-.3-.1-.4-.2-.4-.3v-.1l.3-1c0-.1.1-.1.1-.1h.1c.7.4 1.3.5 1.8.5 1 0 1.5-.5 1.5-1.5 0-.9-.5-1.4-1.7-1.4h-.4c-.2 0-.3 0-.3-.3v-.9c0-.2 0-.3.3-.3h.4c.5 0 .8-.1 1-.2.3-.2.5-.6.5-1 0-.7-.4-1.1-1.1-1.1-.5 0-.8.2-1.2.7-.1.1-.1.1-.2.1 0 0-.1 0-.1-.1l-.7-.7-.1-.1c0-.1.1-.2.3-.5.6-.6 1.3-.9 2.1-.9 1.6 0 2.7 1 2.7 2.4 0 1-.4 1.6-1.3 2 1.1.3 1.6 1.1 1.6 2.3 0 1-.3 1.6-.9 2.2zm7.6-.1c-.5.5-1.2.8-2 .8-1.9 0-2.9-1.4-2.9-4 0-3.4 1.6-5.5 4-5.5.7 0 1.4.2 1.4.4v.1l-.3.9c0 .1-.1.1-.1.1h-.1c-.3-.1-.6-.2-.9-.2-1.1 0-1.9.8-2.3 2.2.5-.5.9-.7 1.6-.7.6 0 1.2.2 1.6.6.6.6.9 1.4.9 2.5 0 1.4-.3 2.2-.9 2.8zm-1.9-4.4c-.8 0-1.2.7-1.2 1.8 0 1.2.4 1.8 1.2 1.8.8 0 1.2-.7 1.2-1.9 0-1-.4-1.7-1.2-1.7zm10.3 2.9c0 .2 0 .3-.3.3h-.8v1.8c0 .2 0 .3-.3.3h-1.1c-.3 0-.3 0-.3-.3v-1.8h-3.3c-.3 0-.3 0-.3-.3v-1.4l3.4-5.6c.1-.1.1-.2.2-.2 0 0 .1 0 .2.1l.8.3c.1.1.2.1.2.2 0 0 0 .1-.1.2l-3.2 5.4h2.1l.2-2.2c0-.2.1-.3.3-.3h.9c.3 0 .3 0 .3.3v2.2h.8c.3 0 .3 0 .3.3v.7zm10.1 1.8c0 .2 0 .2-.2.2h-1.2c-.2 0-.2 0-.2-.2v-4.3c0-.8-.2-1-.6-1-.4 0-.7.2-1.2.6v4.7c0 .2 0 .2-.2.2h-1.2c-.2 0-.2 0-.2-.2v-4.2c0-.9-.1-1.2-.6-1.2-.4 0-.7.2-1.2.6v4.7c0 .2 0 .2-.2.2h-1.2c-.2 0-.2 0-.2-.2V140c0-.7-.1-1-.2-1.5v-.1c0-.1.1-.1.1-.2l1.1-.4h.1c.1 0 .3.4.4 1 .7-.7 1.3-.9 2-.9s1.2.3 1.5.9c.8-.7 1.3-.9 2.1-.9.6 0 1.1.2 1.3.7.2.4.2.7.2 1.6v4.5zm-26.1 12c-.6.5-1.2.7-2.1.7-.7 0-1.5-.1-2.2-.4-.3-.1-.4-.2-.4-.3v-.1l.3-1c0-.1.1-.1.1-.1h.1c.7.4 1.3.5 1.8.5 1 0 1.5-.5 1.5-1.5 0-.9-.5-1.4-1.7-1.4h-.4c-.2 0-.3 0-.3-.3v-.8c0-.2 0-.3.3-.3h.4c.5 0 .8-.1 1-.2.3-.2.5-.6.5-1 0-.7-.4-1.1-1.1-1.1-.5 0-.8.2-1.2.7-.1.1-.1.1-.2.1 0 0-.1 0-.1-.1l-.7-.7-.1-.1c0-.1.1-.2.3-.5.6-.6 1.3-.9 2.1-.9 1.6 0 2.7 1 2.7 2.4 0 1-.4 1.6-1.3 2 1.1.3 1.6 1.1 1.6 2.3 0 .9-.3 1.5-.9 2.1zm7.4.2c0 .3 0 .3-.3.3h-4c-.2 0-.3 0-.3-.3v-.7c0-.2 0-.3.3-.3h1.3v-5.7l-1.4.8c-.1.1-.1.1-.2.1s-.1 0-.2-.2l-.4-.6c-.1-.1-.1-.1-.1-.2s0-.1.2-.2l2.5-1.8h.9c.2 0 .3 0 .3.3v7.5h1c.3 0 .3 0 .3.3v.7zm6.7-8l-3.1 8.3c-.1.2-.1.2-.2.2h-.1l-1-.2c-.2 0-.2-.1-.2-.2 0 0 0-.1.1-.2l2.8-7.1h-3.3c-.2 0-.3 0-.3-.3v-1c0-.2 0-.3.3-.3h4.9c.2 0 .3 0 .3.3v.5zm10.6 8c0 .2 0 .2-.2.2h-1.2c-.2 0-.2 0-.2-.2v-4.3c0-.8-.2-1-.6-1-.4 0-.7.2-1.2.6v4.7c0 .2 0 .2-.2.2h-1.2c-.2 0-.2 0-.2-.2v-4.2c0-.9-.1-1.2-.6-1.2-.4 0-.7.2-1.2.6v4.7c0 .2 0 .2-.2.2h-1.2c-.2 0-.2 0-.2-.2v-4.6c0-.7-.1-1-.2-1.5v-.1c0-.1.1-.1.1-.2l1.1-.4h.1c.1 0 .3.4.4 1 .7-.7 1.3-.9 2-.9s1.2.3 1.5.9c.8-.7 1.3-.9 2.1-.9.6 0 1.1.2 1.3.7.2.4.2.7.2 1.6v4.5z"/><path fill="#575756" d="M152.3 96.4c0 .2 0 .2-.2.2h-3.8c-.2 0-.2 0-.2-.2v-.6c0-.2 0-.2.2-.2h1.3v-6.1l-1.6.9c-.2.1-.2.1-.3-.1l-.3-.4c-.1-.2-.1-.2.1-.3l2.5-1.7h.8c.2 0 .2 0 .2.2v7.6h1.1c.2 0 .2 0 .2.2v.5zm5.6 0c0 .2 0 .2-.2.2h-3.8c-.2 0-.2 0-.2-.2v-.6c0-.2 0-.2.2-.2h1.3v-6.1l-1.6.9c-.2.1-.2.1-.3-.1l-.3-.4c-.1-.2-.1-.2.1-.3l2.5-1.7h.8c.2 0 .2 0 .2.2v7.6h1.1c.2 0 .2 0 .2.2v.5zm6.1-8l-3.1 8.3c-.1.2-.1.2-.3.1l-.9-.1c-.2 0-.2-.1-.1-.3l2.8-7.4H159c-.2 0-.2 0-.2-.2V88c0-.2 0-.2.2-.2h4.7c.2 0 .2 0 .2.2v.4zm9.9 8.1c0 .2 0 .2-.2.2h-1c-.2 0-.2 0-.2-.2V92c0-.7-.2-1-.7-1-.4 0-.7.2-1.3.6v4.9c0 .1 0 .2-.2.2h-1c-.2 0-.2 0-.2-.2v-4.4c0-.8-.2-1.1-.7-1.1-.4 0-.8.2-1.3.6v4.9c0 .2 0 .2-.2.2h-1c-.2 0-.2 0-.2-.2v-4.7c0-.5 0-.8-.2-1.1-.1-.2-.2-.4 0-.4l.8-.3c.3-.1.3.2.4.4 0 .1.1.2.1.4.7-.6 1.3-.9 2-.9s1.1.3 1.4.9c.8-.6 1.3-.9 2-.9 1.3 0 1.5 1 1.5 2.1v4.5zm-22.8 12.1c0 .2 0 .2-.2.2h-3.8c-.2 0-.2 0-.2-.2v-.6c0-.2 0-.2.2-.2h1.3v-6.1l-1.6.9c-.2.1-.2.1-.3-.1l-.3-.4c-.1-.2-.1-.2.1-.3l2.5-1.7h.8c.2 0 .2 0 .2.2v7.6h1.1c.2 0 .2 0 .2.2v.5zm6.3-.6c-.5.7-1.3 1.1-2.2 1.1-1.9 0-3-1.7-3-4.6 0-1.7.3-2.9 1-3.7.5-.7 1.3-1 2.1-1s1.5.3 2 1c.6.8.9 1.9.9 3.6 0 1.7-.2 2.8-.8 3.6zm-1-6.3c-.2-.5-.6-.7-1.1-.7-1.1 0-1.6 1.2-1.6 3.5s.5 3.4 1.6 3.4c.6 0 1-.3 1.2-.9.2-.6.3-1.3.3-2.5 0-1.4-.1-2.2-.4-2.8zm4.8 7.4c-.4 0-.9-.1-1.2-.2-.1 0-.1-.1-.1-.2l.1-.8c0-.1.1-.1.2-.1.4.1.6.1.9.1 1.2 0 2-.9 2.3-2.6-.1.1-.2.2-.2.3-.4.4-.9.6-1.4.6-.6 0-1.1-.2-1.5-.6-.6-.6-.9-1.4-.9-2.6 0-1.9 1.1-3.2 2.8-3.2 1.8 0 2.7 1.3 2.7 3.9 0 3.3-1.4 5.4-3.7 5.4zm1-8.1c-.8 0-1.4.7-1.4 2s.5 2 1.3 2c.9 0 1.3-.7 1.3-2 .1-1.3-.4-2-1.2-2zm12.5 7.7c0 .2 0 .2-.2.2h-1c-.2 0-.2 0-.2-.2v-4.5c0-.7-.2-1-.7-1-.4 0-.7.2-1.3.6v4.9c0 .1 0 .2-.2.2h-1c-.2 0-.2 0-.2-.2v-4.4c0-.8-.2-1.1-.7-1.1-.4 0-.8.2-1.3.6v4.9c0 .2 0 .2-.2.2h-1c-.2 0-.2 0-.2-.2V104c0-.5 0-.8-.2-1.1-.1-.2-.2-.4 0-.4l.8-.3c.3-.1.3.2.4.4 0 .1.1.2.1.4.7-.6 1.3-.9 2-.9s1.1.3 1.4.9c.8-.6 1.3-.9 2-.9 1.3 0 1.5 1 1.5 2.1v4.5z"/><path fill="#DB7123" d="M267.1 61.6h5v11.6h-5z"/><path fill="#EE9A56" d="M267.1 49.4h5V61h-5z"/><path fill="#706F6F" d="M278.6 68.1c-.4.3-.9.7-1.1.9-.2.2-.4.4-.5.7-.2.3-.3.6-.3 1h3.4c.2 0 .2 0 .2.2v.8c0 .2 0 .2-.2.2h-4.7c-.2 0-.2 0-.2-.2v-.4c0-.8.1-1.4.4-1.9.4-.9 1.2-1.5 2-2.1 1.1-.8 1.4-1.2 1.4-2s-.5-1.3-1.2-1.3-1.1.3-1.5 1.2c-.1.2-.1.2-.3.1l-.7-.3c-.1 0-.1-.1-.1-.2s.1-.5.3-.7c.5-1 1.3-1.5 2.4-1.5 1.5 0 2.5.9 2.5 2.5-.1 1.4-.6 2.1-1.8 3zM287 71c-.5.7-1.3 1.1-2.2 1.1-1.9 0-3-1.7-3-4.6 0-1.7.3-2.9 1-3.7.5-.7 1.3-1 2.1-1s1.5.3 2 1c.6.8.9 1.9.9 3.6 0 1.7-.3 2.8-.8 3.6zm-1.1-6.3c-.2-.5-.6-.7-1.1-.7-1.1 0-1.6 1.2-1.6 3.5s.5 3.4 1.6 3.4c.6 0 1-.3 1.2-.9.2-.6.3-1.3.3-2.5 0-1.4-.1-2.2-.4-2.8zm5.2 7.5c-.6 0-1.3-.1-1.9-.3-.2-.1-.2-.1-.2-.3l.2-.8c0-.2.2-.1.3-.1.5.2 1.1.3 1.5.3 1.3 0 2-.7 2-2 0-1-.5-1.6-1.4-1.6-.6 0-1 .2-1.5.7-.1.1-.1.1-.2.1l-.7-.2c-.1 0-.1-.1-.1-.3l.4-4.4c0-.2 0-.2.2-.2h3.8c.2 0 .2 0 .2.3v.6c0 .2 0 .2-.2.2h-2.8l-.3 2.4c.1-.1.2-.1.3-.2.4-.2.8-.3 1.2-.3 1.5 0 2.5 1.1 2.5 2.8.1 2-1.2 3.3-3.3 3.3zm9.8-1.2c-.5.7-1.3 1.1-2.2 1.1-1.9 0-3-1.7-3-4.6 0-1.7.3-2.9 1-3.7.5-.7 1.3-1 2.1-1s1.5.3 2 1c.6.8.9 1.9.9 3.6 0 1.7-.2 2.8-.8 3.6zm-1-6.3c-.2-.5-.6-.7-1.1-.7-1.1 0-1.6 1.2-1.6 3.5s.5 3.4 1.6 3.4c.6 0 1-.3 1.2-.9.2-.6.3-1.3.3-2.5 0-1.4-.1-2.2-.4-2.8zm8.1-.2c.1.2.1.3-.1.3l-1.6.3 1.1 1.2c.1.1.1.2 0 .3l-.5.4c-.2.1-.3.2-.4 0l-.8-1.4-.8 1.4c-.1.2-.2.2-.4 0l-.5-.4c-.2-.1-.1-.2 0-.3l1.1-1.2-1.6-.3c-.2 0-.2-.1-.2-.3l.2-.6c.1-.2.2-.2.4-.1l1.4.7-.2-1.6c0-.2 0-.2.2-.2h.7c.3 0 .2.1.2.3l-.2 1.6 1.4-.7c.2-.1.3-.1.4.1l.2.5zm-29.4-8.6c-.4.3-.9.7-1.1.9-.2.2-.4.4-.5.7-.2.3-.3.6-.3 1h3.4c.2 0 .2 0 .2.2v.8c0 .2 0 .2-.2.2h-4.7c-.2 0-.2 0-.2-.2v-.4c0-.8.1-1.4.4-1.9.4-.9 1.2-1.5 2-2.1 1.1-.8 1.4-1.2 1.4-2s-.5-1.3-1.2-1.3-1.1.3-1.5 1.2c-.1.2-.1.2-.3.1l-.7-.3c-.1 0-.1-.1-.1-.2s.1-.5.3-.7c.5-1 1.3-1.5 2.4-1.5 1.5 0 2.5.9 2.5 2.5-.1 1.4-.6 2.1-1.8 3zm8.4 2.9c-.5.7-1.3 1.1-2.2 1.1-1.9 0-3-1.7-3-4.6 0-1.7.3-2.9 1-3.7.5-.7 1.3-1 2.1-1s1.5.3 2 1c.6.8.9 1.9.9 3.6 0 1.7-.3 2.8-.8 3.6zm-1.1-6.3c-.2-.5-.6-.7-1.1-.7-1.1 0-1.6 1.2-1.6 3.5s.5 3.4 1.6 3.4c.6 0 1-.3 1.2-.9.2-.6.3-1.3.3-2.5 0-1.4-.1-2.2-.4-2.8zm7.8 7c0 .2 0 .2-.2.2h-3.8c-.2 0-.2 0-.2-.2v-.6c0-.2 0-.2.2-.2h1.3v-6.1l-1.6.9c-.2.1-.2.1-.3-.1l-.3-.4c-.1-.2-.1-.2.1-.3l2.5-1.7h.8c.2 0 .2 0 .2.2v7.6h1.1c.2 0 .2 0 .2.2v.5zm3.1.5c-.6 0-1.3-.1-1.9-.3-.2-.1-.2-.1-.2-.3l.2-.8c0-.2.2-.1.3-.1.5.2 1.1.3 1.5.3 1.3 0 2-.7 2-2 0-1-.5-1.6-1.4-1.6-.6 0-1 .2-1.5.7-.1.1-.1.1-.2.1l-.7-.2c-.1 0-.1-.1-.1-.3l.4-4.4c0-.2 0-.2.2-.2h3.8c.2 0 .2 0 .2.3v.7c0 .2 0 .2-.2.2h-2.8l-.3 2.4c.1-.1.2-.1.3-.2.4-.2.8-.3 1.2-.3 1.5 0 2.5 1.1 2.5 2.8.1 1.9-1.2 3.2-3.3 3.2z"/><path fill="#DB7123" d="M28 19c.1.2.1.3-.2.4-.8.4-1.7.6-2.5.6-2.1 0-2.6-1.2-2.6-3.1v-5.5h-1.4c-.3-.1-.3-.1-.3-.4v-1c0-.2.1-.3.3-.3h1.4V7.1c0-.2.1-.3.3-.3l1.4-.3c.3 0 .4-.1.4.2v3h2.7c.3 0 .3.1.2.4l-.2 1c0 .2-.1.3-.3.3h-2.4v5.3c0 1.2.2 1.5 1 1.5.6 0 1-.2 1.5-.4.3-.1.3 0 .4.2l.3 1zm9.4.4c0 .2-.1.3-.3.3h-1.5c-.3 0-.3-.1-.3-.3v-6.5c0-1.3-.3-1.7-1.3-1.7-.7 0-1.3.3-2.2 1.1v7.2c0 .2 0 .3-.3.3H30c-.3 0-.3 0-.3-.3V5.6c0-.2.1-.3.3-.3l1.5-.3c.3-.1.4-.1.4.2v5.5c1-.9 1.8-1.3 3-1.3 2.1 0 2.6 1.3 2.6 3.1v6.9zm10.1-4.1h-5.7c.1 2 .9 3 2.5 3 1.2 0 1.9-.4 2.5-.7.1-.1.2 0 .3.1l.5 1c.1.2 0 .4-.2.5-.8.5-2.2.8-3.2.8-2.8 0-4.4-1.9-4.4-5.2 0-3.2 1.7-5.3 4.2-5.3s3.9 1.8 3.9 5c-.1.5-.1.8-.4.8zm-1.9-1.6c0-1.8-.6-2.7-1.8-2.7-1.2 0-1.8.9-2 2.7h3.8zm17 5.9c0 .2-.1.2-.3.2h-1.2c-.2 0-.3 0-.4-.2l-1.3-5.7c-.1-.6-.2-1.3-.3-2-.1.7-.2 1.3-.3 1.9l-1.6 5.7c-.1.2-.1.2-.3.2h-1.3c-.2 0-.2 0-.3-.2L53 10.3c0-.3 0-.4.3-.4l1.4-.3c.2 0 .3-.1.3.2l1.1 5c.1.7.3 2.1.4 2.9.1-.8.1-1.5.3-2.3l1.4-5.4c.1-.2.1-.3.3-.3h1.3c.2 0 .2 0 .3.3l1.3 5.7c.1.7.2 1.3.3 2 .1-.7.2-1.6.4-2.4l1.3-5.5c.1-.3.2-.3.4-.2l1.2.3c.3.1.2.1.2.4l-2.6 9.3zm7.9.4c-2.6 0-4.2-1.9-4.2-5.2 0-3.3 1.6-5.3 4.3-5.3 2.6 0 4.2 1.9 4.2 5.2 0 3.3-1.6 5.3-4.3 5.3zm.1-8.9c-1.4 0-2.1 1.1-2.1 3.5 0 2.5.7 3.7 2.1 3.7s2-1.1 2-3.7c0-2.4-.6-3.5-2-3.5zm11.6.2c-.1.2-.1.2-.2.2-.3-.1-.4-.2-.8-.2-.5 0-1 .3-1.8 1.2v6.8c0 .3 0 .3-.3.3h-1.5c-.2 0-.3 0-.3-.3v-6.2c0-1.3-.1-1.9-.4-2.5-.1-.2-.3-.5 0-.6l1.2-.6c.4-.2.5.2.7.6.2.4.3.8.3 1 .7-.8 1.4-1.6 2.5-1.6.4 0 .7.1 1 .2.2.1.2.2.1.4l-.5 1.3zm6.3 7.9c.1.2.1.3-.1.4-.5.2-1.2.3-1.7.3-1.9 0-2.3-1.1-2.3-2.7V5.5c0-.2.1-.3.3-.3L86 5c.3-.1.3 0 .3.3v12c0 .7.2.9.7.9.2 0 .5 0 .7-.2.2-.1.3-.1.3.1l.5 1.1zm7.5.7c-.3.1-.4-.1-.6-.4-.1-.2-.2-.4-.2-.7-1.1.9-2 1.2-2.9 1.2-2 0-3.3-1.9-3.3-5.1 0-2 .4-3.3 1.2-4.3.7-.7 1.5-1.1 2.5-1.1.7 0 1.3.2 2.1.6V5.6c0-.2 0-.3.2-.3l1.6-.3c.3-.1.4-.1.4.3v11.6c0 1 0 1.4.4 2 .1.2.3.3 0 .5l-1.4.5zm-1.1-8.2c-.7-.4-1.2-.5-1.8-.5-1.4 0-2 1-2 3.5 0 2.6.5 3.6 1.7 3.6.7 0 1.3-.3 2-.9v-5.7zm17.8 7.9c0 .2-.1.2-.3.2h-1.2c-.2 0-.3 0-.4-.2l-1.3-5.7c-.1-.6-.2-1.3-.3-2-.1.7-.2 1.3-.3 1.9l-1.6 5.7c-.1.2-.1.2-.3.2h-1.3c-.2 0-.2 0-.3-.2l-2.4-9.3c-.1-.2 0-.3.2-.4l1.4-.3c.2 0 .3-.1.3.2l1.1 5c.1.7.3 2.1.4 2.9.1-.8.1-1.5.3-2.3l1.4-5.4c.1-.2.1-.3.3-.3h1.3c.2 0 .2 0 .3.3l1.3 5.7c.1.7.2 1.3.3 2 .1-.7.2-1.6.4-2.4l1.3-5.5c.1-.3.2-.3.4-.2l1.2.3c.3.1.2.1.2.4l-2.4 9.4zm11.6-.3l-1.2.6c-.3.1-.4 0-.5-.3-.1-.2-.2-.5-.3-.9-.9.9-1.7 1.2-2.7 1.2-1.7 0-2.9-1.1-2.9-2.9 0-3.1 2.9-3.5 5.3-3.5v-.7c0-1.2-.4-1.7-1.6-1.7-.7 0-1.4.2-2.3.6-.1.1-.3.1-.4-.1l-.3-1c-.1-.4.2-.5.4-.6 1-.4 2-.6 2.9-.6 2.2 0 3.4.9 3.4 3.1v4c0 1.1.1 1.7.5 2.4-.2.2-.1.3-.3.4zm-2.4-4.3c-1.3 0-3.3.1-3.3 1.9 0 .9.6 1.5 1.4 1.5.6 0 1.2-.3 1.9-1V15zm7.7 5c-1.1 0-2.4-.3-3.3-.9-.2-.1-.2-.1-.1-.4l.4-1.1c.1-.2.2-.1.4 0 1 .5 1.9.7 2.6.7.9 0 1.4-.5 1.4-1.3 0-.6-.3-.8-1.4-1.4-.5-.2-1.4-.7-2-1-.9-.5-1.1-1.4-1.1-2.1 0-1.8 1.4-3.1 3.4-3.1.9 0 2 .3 2.7.7.2.1.2.3.1.5l-.4.9c-.1.2-.2.2-.4.1-.7-.3-1.4-.5-1.9-.5-.9 0-1.4.4-1.4 1.2 0 .6.3.9 1.2 1.3.5.3 1.7.9 2 1.1 1 .6 1.3 1.3 1.3 2.2-.1 1.9-1.5 3.1-3.5 3.1zm12.4 0c-1.1 0-2.4-.3-3.3-.9-.2-.1-.2-.1-.1-.4l.4-1.1c.1-.2.2-.1.4 0 1 .5 1.9.7 2.6.7.9 0 1.4-.5 1.4-1.3 0-.6-.3-.8-1.4-1.4-.5-.2-1.4-.7-2-1-.9-.5-1.1-1.4-1.1-2.1 0-1.8 1.4-3.1 3.4-3.1.9 0 2 .3 2.7.7.2.1.2.3.1.5l-.4.9c-.1.2-.2.2-.4.1-.7-.3-1.4-.5-1.9-.5-.9 0-1.4.4-1.4 1.2 0 .6.3.9 1.2 1.3.5.3 1.7.9 2 1.1 1 .6 1.3 1.3 1.3 2.2-.2 1.9-1.5 3.1-3.5 3.1zm12.7-4.7H149c.1 2 .9 3 2.5 3 1.2 0 1.9-.4 2.5-.7.1-.1.2 0 .3.1l.5 1c.1.2 0 .4-.2.5-.8.5-2.2.8-3.2.8-2.8 0-4.4-1.9-4.4-5.2 0-3.2 1.7-5.3 4.2-5.3s3.9 1.8 3.9 5c-.1.5-.1.8-.4.8zm-1.9-1.6c0-1.8-.6-2.7-1.8-2.7-1.2 0-1.8.9-2 2.7h3.8zm11.4 1.6h-5.7c.1 2 .9 3 2.5 3 1.2 0 1.9-.4 2.5-.7.1-.1.2 0 .3.1l.5 1c.1.2 0 .4-.2.5-.8.5-2.2.8-3.2.8-2.8 0-4.4-1.9-4.4-5.2 0-3.2 1.7-5.3 4.2-5.3s3.9 1.8 3.9 5c0 .5 0 .8-.4.8zm-1.8-1.6c0-1.8-.6-2.7-1.8-2.7-1.2 0-1.8.9-2 2.7h3.8zm12 5.7c0 .2-.1.3-.3.3h-1.5c-.3 0-.3 0-.3-.3v-6.5c0-1.2-.4-1.7-1.3-1.7-.8 0-1.4.3-2.2 1.1v7.2c0 .2 0 .3-.3.3H167c-.2 0-.3 0-.3-.3v-6.9c0-.9-.1-1.4-.4-2-.1-.2-.1-.3.1-.4l1.4-.6c.2-.1.3.1.4.3.1.3.2.5.4 1 1-.8 1.7-1.4 3-1.4 1.9 0 2.7.8 2.7 3.1v6.8zm12.8-.4c.1.2.1.3-.2.4-.8.3-1.6.5-2.4.5-2.1 0-2.6-1.2-2.6-3.1v-5.5h-1.4c-.3 0-.3-.1-.3-.3v-1c0-.2.1-.3.3-.3h1.4V7.1c0-.2.1-.3.3-.3l1.4-.3c.3 0 .4-.1.4.2v3h2.7c.3 0 .3.1.2.4l-.2 1c0 .2-.1.3-.3.3H184v5.3c0 1.2.2 1.5 1 1.5.6 0 1-.2 1.5-.4.3-.1.3 0 .4.2l.3 1zm9.5.4c0 .2-.1.3-.3.3h-1.5c-.3 0-.3-.1-.3-.3v-6.5c0-1.3-.3-1.7-1.3-1.7-.7 0-1.3.3-2.2 1.1v7.2c0 .2 0 .3-.3.3h-1.5c-.3 0-.3 0-.3-.3V5.6c0-.2.1-.3.3-.3l1.4-.3c.3-.1.4-.1.4.2v5.5c1-.9 1.8-1.3 3-1.3 2.1 0 2.6 1.3 2.6 3.1v6.9zm8-8.1c-.1.2-.1.2-.2.2-.3-.1-.4-.2-.8-.2-.5 0-1 .3-1.8 1.2v6.8c0 .3 0 .3-.3.3h-1.5c-.2 0-.3 0-.3-.3v-6.2c0-1.3-.1-1.9-.4-2.5-.1-.2-.3-.5 0-.6l1.2-.6c.4-.2.5.2.7.6.2.4.3.8.3 1 .7-.8 1.4-1.6 2.5-1.6.4 0 .7.1 1 .2.2.1.2.2.1.4l-.5 1.3zM210 20c-2.6 0-4.2-1.9-4.2-5.2 0-3.3 1.6-5.3 4.3-5.3 2.6 0 4.2 1.9 4.2 5.2 0 3.3-1.6 5.3-4.3 5.3zm.1-8.9c-1.4 0-2.1 1.1-2.1 3.5 0 2.5.7 3.7 2.1 3.7s2-1.1 2-3.7c0-2.4-.6-3.5-2-3.5zm14.4 8.3l-1.3.5c-.3.1-.4-.1-.5-.3-.1-.2-.2-.5-.3-.8-1 .9-1.8 1.2-2.9 1.2-2.2 0-2.9-1.3-2.9-3.3v-6.5c0-.2.1-.3.3-.3l1.4-.3c.2-.1.4 0 .4.2v6.4c0 1.6.3 2.1 1.3 2.1.7 0 1.4-.3 2.1-.9v-7.2c0-.2.1-.3.3-.3l1.4-.3c.2-.1.4-.1.4.2V17c0 1 .1 1.5.4 2 0 .2.1.3-.1.4zm9.8-6.7v5.7c0 .8.1 1.6 0 2.4-.2 2.1-1.4 3.1-3.7 3.1-1.2 0-2.6-.3-3.6-.8-.3-.1-.3-.2-.2-.4l.4-1.1c.1-.2.2-.2.4-.1 1 .4 2 .7 2.8.7 1.3 0 1.9-.5 1.9-2 0-.5 0-1.2-.1-1.7-.9.7-1.6.9-2.6.9-2 0-3.3-1.8-3.3-4.7 0-3.4 1.4-5.3 3.8-5.3.9 0 1.5.2 2.4.9.1-.2.1-.3.2-.5.2-.3.3-.6.6-.4l1.3.6c.2.1.2.2.1.3-.3.8-.4 1.4-.4 2.4zm-2.1-.9c-.7-.4-1.1-.6-1.7-.6-1.3 0-2 1.2-2 3.3 0 2.2.5 3.3 1.7 3.3.7 0 1.3-.3 2-.9v-5.1zm12.8 7.6c0 .2-.1.3-.3.3h-1.5c-.3 0-.3-.1-.3-.3v-6.5c0-1.3-.3-1.7-1.3-1.7-.7 0-1.3.3-2.2 1.1v7.2c0 .2 0 .3-.3.3h-1.5c-.3 0-.3 0-.3-.3V5.6c0-.2.1-.3.3-.3L239 5c.3-.1.4-.1.4.2v5.5c1-.9 1.8-1.3 3-1.3 2.1 0 2.6 1.3 2.6 3.1v6.9zM24.8 40.7c0 .2 0 .3-.3.3H23c-.3 0-.3 0-.3-.3v-8h-1.6c-.3 0-.3 0-.3-.3v-1c0-.3 0-.3.3-.3h3.3c.2 0 .3 0 .3.3v9.3zm-1.1-11.5c-.8 0-1.4-.6-1.4-1.4 0-.8.7-1.4 1.4-1.4.8 0 1.4.7 1.4 1.4 0 .8-.6 1.4-1.4 1.4zm9.9 11.1c.1.2.1.3-.2.4-.8.3-1.6.5-2.4.5-2.1 0-2.6-1.2-2.6-3.1v-5.5H27c-.3 0-.3-.1-.3-.3v-1c0-.2.1-.3.3-.3h1.4v-2.7c0-.2.1-.3.3-.3l1.4-.3c.3 0 .4-.1.4.2v3h2.7c.3 0 .3.1.2.4l-.2 1c0 .2-.1.3-.3.3h-2.4V38c0 1.2.2 1.5 1 1.5.6 0 1-.2 1.5-.4.3-.1.3 0 .4.2l.2 1zm4.1 1c-1.1 0-2.4-.3-3.3-.9-.2-.1-.2-.1-.1-.4l.4-1.1c.1-.2.2-.1.4 0 1 .5 1.9.7 2.6.7.9 0 1.4-.5 1.4-1.3 0-.6-.3-.8-1.4-1.4-.5-.2-1.4-.7-2-1-.9-.5-1.1-1.4-1.1-2.1 0-1.8 1.4-3.1 3.4-3.1.9 0 2 .3 2.7.7.2.1.2.3.1.5l-.4.9c-.3.2-.4.2-.6.1-.7-.3-1.4-.5-1.9-.5-.9 0-1.4.4-1.4 1.2 0 .6.3.9 1.2 1.3.5.3 1.7.9 2 1.1 1 .6 1.3 1.3 1.3 2.2.1 1.9-1.3 3.1-3.3 3.1zm15.7-8.1c-.1.2-.3.1-.3 0-.8-.6-1.3-.8-1.9-.8-1.5 0-2.2 1.2-2.2 3.6 0 2.4.7 3.5 2.2 3.5.8 0 1.4-.3 2-.8.2-.1.3-.1.3 0l.4 1c.1.2.1.3-.1.5-.8.6-1.9.9-2.9.9-2.6 0-4.1-1.9-4.1-5 0-3.4 1.7-5.5 4.4-5.5 1 0 2 .3 2.7.9.2.1.3.3.2.5l-.7 1.2zm10.1 7.5c0 .2-.1.3-.3.3h-1.5c-.3 0-.3-.1-.3-.3v-6.5c0-1.3-.3-1.7-1.3-1.7-.7 0-1.3.3-2.2 1.1v7.2c0 .2 0 .3-.3.3h-1.5c-.3 0-.3 0-.3-.3V26.9c0-.2.1-.3.3-.3l1.4-.3c.3-.1.4-.1.4.2V32c1-.9 1.8-1.3 3-1.3 2.1 0 2.6 1.3 2.6 3.1v6.9zm5.4 0c0 .2 0 .3-.3.3h-1.5c-.3 0-.3 0-.3-.3v-8h-1.6c-.3 0-.3 0-.3-.3v-1c0-.3 0-.3.3-.3h3.3c.2 0 .3 0 .3.3v9.3zm-1.1-11.5c-.8 0-1.4-.6-1.4-1.4 0-.8.7-1.4 1.4-1.4.8 0 1.4.7 1.4 1.4 0 .8-.6 1.4-1.4 1.4zm8.4 11.3c.1.2.1.3-.1.4-.5.2-1.2.3-1.7.3-1.9 0-2.3-1.1-2.3-2.7V26.8c0-.2.1-.3.3-.3l1.5-.3c.3-.1.3 0 .3.3v12c0 .7.2.9.7.9.2 0 .5 0 .7-.2.2-.1.3-.1.3.1l.3 1.2zm7.6.7c-.3.1-.4-.1-.6-.4-.1-.2-.2-.4-.2-.7-1.1.9-2 1.2-2.9 1.2-2 0-3.3-1.9-3.3-5.1 0-2 .4-3.3 1.2-4.3.7-.7 1.5-1.1 2.5-1.1.7 0 1.3.2 2.1.6v-4.5c0-.2 0-.3.2-.3l1.5-.3c.3-.1.4-.1.4.3v11.6c0 1 0 1.4.4 2 .1.2.3.3 0 .5l-1.3.5zM82.6 33c-.7-.4-1.2-.5-1.8-.5-1.4 0-2 1-2 3.5 0 2.6.5 3.6 1.7 3.6.7 0 1.3-.3 2-.9V33zm10.2-.3c-.1.2-.1.2-.2.2-.3-.1-.4-.2-.8-.2-.5 0-1 .3-1.8 1.2v6.8c0 .3 0 .3-.3.3h-1.5c-.2 0-.2 0-.2-.3v-6.2c0-1.3-.1-1.9-.4-2.5-.1-.2-.3-.5 0-.6l1.2-.6c.4-.2.5.2.7.6.2.4.3.8.3 1 .7-.8 1.4-1.6 2.5-1.6.4 0 .7.1 1 .2.2.1.2.2.1.4l-.6 1.3zm8.9 3.9H96c.1 2 .9 3 2.5 3 1.2 0 1.9-.4 2.5-.7.1-.1.2 0 .3.1l.5 1c.1.2 0 .4-.2.5-.8.5-2.2.8-3.2.8-2.8 0-4.4-1.9-4.4-5.2 0-3.2 1.7-5.3 4.2-5.3s3.9 1.8 3.9 5c-.1.5 0 .8-.4.8zM99.9 35c0-1.8-.6-2.7-1.8-2.7-1.2 0-1.8.9-2 2.7h3.8zm12 5.7c0 .2-.1.3-.3.3h-1.5c-.3 0-.3 0-.3-.3v-6.5c0-1.2-.4-1.7-1.3-1.7-.8 0-1.4.3-2.2 1.1v7.2c0 .2 0 .3-.3.3h-1.5c-.2 0-.3 0-.3-.3v-6.9c0-.9-.1-1.4-.4-2-.1-.2-.1-.3.1-.4l1.4-.6c.2-.1.3.1.4.3.1.3.2.5.4 1 1-.8 1.7-1.4 3-1.4 1.9 0 2.7.8 2.7 3.1v6.8zm6.4-6.9v1.6c0 .3-.1.4-.4.4h-1.1c-.3 0-.4-.1-.4-.4v-2.5c0-.3.1-.3.4-.4 1.9-.5 2.6-1.1 2.6-2.2s-.7-1.6-2-1.6c-.9 0-1.6.3-2.3.6-.2.1-.3.1-.4-.1l-.4-1.1c-.1-.3 0-.4.3-.5 1-.4 2.1-.7 3.1-.7 2.3 0 3.8 1.4 3.8 3.5 0 2-1.4 2.9-3.2 3.4zm-.8 7.6c-.9 0-1.6-.7-1.6-1.6 0-.9.7-1.6 1.6-1.6.9 0 1.6.7 1.6 1.6-.1.9-.7 1.6-1.6 1.6z"/><path fill="#FFF" d="M259.9 447l-1.3.3.9 1 .1.1s0 .1-.1.1l-.4.3c-.1 0-.1.1-.1.1s-.1 0-.1-.1l-.7-1.2-.7 1.2c0 .1-.1.1-.1.1s-.1 0-.1-.1l-.4-.3-.1-.1.1-.1.9-1-1.3-.3c-.1 0-.1 0-.1-.1v-.1l.2-.5c0-.1.1-.1.1-.1h.1l1.2.5-.1-1.3v-.1c0-.1 0-.1.2-.1h.5c.1 0 .1 0 .1.1v.1l-.1 1.3 1.2-.5h.1s.1 0 .1.1l.1.5v.1c-.1 0-.1 0-.2.1zm6.1-1.6l-.2.6c0 .1-.1.1-.2.1H263v2.7h2.3c.1 0 .2 0 .2.2v.4c0 .1 0 .2-.2.2H263v3.5c0 .1 0 .2-.2.2h-.6c-.1 0-.2 0-.2-.2v-7.6c0-.1 0-.2.2-.2h3.5c.2-.1.3-.1.3.1 0-.1 0-.1 0 0zm2.8 7.9c-1.4 0-2.2-1.1-2.2-2.9 0-1.9.9-2.9 2.4-2.9 1.4 0 2.2 1.1 2.2 2.9-.1 1.8-1 2.9-2.4 2.9zm0-5.1c-.9 0-1.3.7-1.3 2.1 0 .7.1 1.4.4 1.8.2.3.6.5 1 .5s.8-.2 1-.5c.2-.4.4-1 .4-1.8-.1-1.4-.6-2.1-1.5-2.1zm6.7-.5l-.3.6h-.1l-.2-.1h-.2c-.3 0-.6.2-1.1.9v3.8c0 .1 0 .1-.1.1h-.6c-.1 0-.1 0-.1-.1v-3.5c0-.9 0-1.1-.3-1.5v-.1s0-.1.1-.1l.5-.3h.1c.1 0 .4.5.4 1 .7-.8.9-1 1.4-1 .2 0 .5.1.5.3 0-.1 0 0 0 0zm4.8 2.9H277c.1 1.3.6 1.9 1.5 1.9.4 0 .8-.1 1.3-.4h.1s.1 0 .1.1l.2.4v.1c0 .1-.1.2-.4.3-.4.2-.9.3-1.4.3-1.5 0-2.4-1.1-2.4-2.9 0-1.8.9-2.9 2.3-2.9.9 0 1.6.5 1.9 1.4.1.4.2.8.2 1.5.1.1 0 .2-.1.2zm-.8-.8c0-1.1-.5-1.7-1.2-1.7-.8 0-1.2.6-1.3 1.7h2.5zm5.9-1.6l-.3.4c0 .1-.1.1-.1.1h-.1c-.6-.4-.8-.5-1.2-.5-.9 0-1.4.7-1.4 2.1 0 1.4.4 2.2 1.3 2.2.5 0 .7-.1 1.4-.6h.1s.1 0 .1.1l.2.4v.1c0 .1-.1.1-.2.2-.5.3-1 .5-1.6.5-1.4 0-2.2-1-2.2-2.8 0-1.9.9-3.1 2.3-3.1.5 0 1 .2 1.4.4.2.3.3.4.3.5zm4.7 4.7l-.5.3h-.1c-.1 0-.3-.3-.4-.7-.5.5-1 .7-1.6.7-.9 0-1.5-.6-1.5-1.6 0-1.3 1-2 3-2v-.4c0-.7-.3-1-1.1-1-.5 0-.8.1-1.4.3h-.1s-.1 0-.1-.1l-.2-.5v-.1c0-.1.1-.1.3-.2.5-.2 1-.3 1.5-.3 1.2 0 1.8.5 1.8 1.6v2.2c0 .8.1 1.1.3 1.5.2.2.2.2.1.3.1 0 .1 0 0 0zm-1.1-2.5c-1.4 0-2.2.4-2.2 1.2 0 .5.3.9.8.9.4 0 .8-.2 1.3-.7v-1.4zm4 2.9c-.6 0-1.2-.2-1.7-.4-.1 0-.1-.1-.1-.1l.2-.5h.2c.5.3 1 .4 1.4.4.6 0 .9-.3.9-.8 0-.4-.2-.6-.7-.9-.8-.4-1-.5-1.3-.7-.4-.3-.5-.6-.5-1.1 0-.9.7-1.6 1.8-1.6.6 0 1.5.3 1.5.5v.1l-.2.4-.1.1h-.1c-.4-.2-.8-.3-1.1-.3-.6 0-.9.3-.9.8 0 .2.1.4.2.6.2.1.2.1 1.2.7.9.4 1.2.8 1.2 1.5 0 .6-.8 1.3-1.9 1.3zm5-.1c-.6 0-1-.2-1.3-.6-.1-.2-.1-.4-.1-1v-3.2h-.8c-.1 0-.1 0-.1-.1v-.4c0-.1 0-.1.1-.1h.8V446c0-.1 0-.1.1-.1l.6-.2h.1c.1 0 .1 0 .1.1v1.8h1.7c.1 0 .1 0 .1.1v.1l-.1.4c0 .1-.1.1-.2.1h-1.5v3.2c0 .5 0 .6.1.7.1.2.3.2.6.2s.5-.1 1-.3h.1s.1 0 .1.1l.1.5v.1c0 .2-.9.4-1.5.4z"/><path fill="#575756" d="M28.6 218.8c-.1.2-.1.3-.3.3h-2.7v11.7c0 .3 0 .3-.3.3h-1.5c-.3 0-.4 0-.4-.3v-11.7h-2.8c-.3 0-.3-.1-.3-.4v-1.2c0-.3 0-.3.3-.3h8.2c.4 0 .4.1.3.5l-.5 1.1zm9.1 12c0 .2-.1.3-.3.3h-1.5c-.3 0-.3-.1-.3-.3v-6.5c0-1.3-.3-1.7-1.3-1.7-.7 0-1.3.3-2.2 1.1v7.2c0 .2 0 .3-.3.3h-1.5c-.3 0-.3 0-.3-.3V217c0-.2.1-.3.3-.3l1.4-.3c.3-.1.4-.1.4.2v5.5c1-.9 1.8-1.3 3-1.3 2.1 0 2.6 1.3 2.6 3.1v6.9zm10-4.1H42c.1 2 .9 3 2.5 3 1.2 0 1.9-.4 2.5-.7.1-.1.2 0 .3.1l.5 1c.1.2 0 .4-.2.5-.8.5-2.2.8-3.2.8-2.8 0-4.4-1.9-4.4-5.2 0-3.2 1.7-5.3 4.2-5.3s3.9 1.8 3.9 5c0 .5 0 .8-.4.8zm-1.8-1.6c0-1.8-.6-2.7-1.8-2.7-1.2 0-1.8.9-2 2.7h3.8zm13.9-6.7c-.1.2-.3.1-.4.1-.5-.2-.9-.3-1.3-.3-1 0-1.2.4-1.2 1.9v1.2h2.7c.2 0 .2.1.2.2l-.3 1.1c-.1.2-.1.2-.2.2H57v8.1c0 .2 0 .3-.3.3h-1.5c-.3 0-.3 0-.3-.3v-8.1h-1.4c-.2 0-.3 0-.3-.2v-1.1c0-.2.1-.3.3-.3h1.4V220c0-1.5.2-2.2.9-2.8.5-.5 1.2-.8 2.2-.8.8 0 1.8.2 2.2.5.2.1.2.2.1.4l-.5 1.1zm8.4 12.5l-1.3.5c-.3.1-.4-.1-.5-.3-.1-.2-.2-.5-.3-.8-1 .9-1.8 1.2-2.9 1.2-2.2 0-2.9-1.3-2.9-3.3v-6.5c0-.2.1-.3.3-.3l1.4-.3c.2-.1.4 0 .4.2v6.4c0 1.6.3 2.1 1.3 2.1.7 0 1.4-.3 2.1-.9v-7.2c0-.2.1-.3.3-.3l1.4-.3c.2-.1.4-.1.4.2v7.3c0 1 .1 1.5.4 2 0 0 .1.2-.1.3zm8.3-.5c.1.2.1.3-.2.4-.8.3-1.6.5-2.4.5-2.1 0-2.6-1.2-2.6-3.1v-5.5h-1.4c-.3 0-.3-.1-.3-.3v-1c0-.2.1-.3.3-.3h1.4v-2.7c0-.2.1-.3.3-.3l1.4-.3c.3 0 .4-.1.4.2v3H76c.3 0 .3.1.2.4l-.2 1c0 .2-.1.3-.3.3h-2.4v5.3c0 1.2.2 1.5 1 1.5.6 0 1-.2 1.5-.4.3-.1.3 0 .4.2l.3 1.1zm9.3.5l-1.3.5c-.3.1-.4-.1-.5-.3-.1-.2-.2-.5-.3-.8-1 .9-1.8 1.2-2.9 1.2-2.2 0-2.9-1.3-2.9-3.3v-6.5c0-.2.1-.3.3-.3l1.4-.3c.2-.1.4 0 .4.2v6.4c0 1.6.3 2.1 1.3 2.1.7 0 1.4-.3 2.1-.9v-7.2c0-.2.1-.3.3-.3l1.4-.3c.2-.1.4-.1.4.2v7.3c0 1 .1 1.5.4 2 .1 0 .1.2-.1.3zm7.7-8.1c-.1.2-.1.2-.2.2-.3-.1-.4-.2-.8-.2-.5 0-1 .3-1.8 1.2v6.8c0 .3 0 .3-.3.3h-1.5c-.2 0-.3 0-.3-.3v-6.2c0-1.3-.1-1.9-.4-2.5-.1-.2-.3-.5 0-.6l1.2-.6c.4-.2.5.2.7.6.2.4.3.8.3 1 .7-.8 1.4-1.6 2.5-1.6.4 0 .7.1 1 .2.2.1.2.2.1.4l-.5 1.3zm8.9 3.9h-5.7c.1 2 .9 3 2.5 3 1.2 0 1.9-.4 2.5-.7.1-.1.2 0 .3.1l.5 1c.1.2 0 .4-.2.5-.8.5-2.2.8-3.2.8-2.8 0-4.4-1.9-4.4-5.2 0-3.2 1.7-5.3 4.2-5.3s3.9 1.8 3.9 5c-.1.5-.1.8-.4.8zm-1.9-1.6c0-1.8-.6-2.7-1.8-2.7-1.2 0-1.8.9-2 2.7h3.8zm12.7 5.6c.1.2.1.3-.1.4-.5.2-1.2.3-1.7.3-1.9 0-2.3-1.1-2.3-2.7V217c0-.2.1-.3.3-.3l1.5-.3c.3-.1.3 0 .3.3v12c0 .7.2.9.7.9.2 0 .5 0 .7-.2.2-.1.3-.1.3.1l.3 1.2zm4.7.7c-2.6 0-4.2-1.9-4.2-5.2 0-3.3 1.6-5.3 4.3-5.3 2.6 0 4.2 1.9 4.2 5.2 0 3.3-1.6 5.3-4.3 5.3zm.1-8.8c-1.4 0-2.1 1.1-2.1 3.5 0 2.5.7 3.7 2.1 3.7s2-1.1 2-3.7c0-2.4-.6-3.5-2-3.5zm10.1 8.8c-2.6 0-4.2-1.9-4.2-5.2 0-3.3 1.6-5.3 4.3-5.3 2.6 0 4.2 1.9 4.2 5.2 0 3.3-1.7 5.3-4.3 5.3zm0-8.8c-1.4 0-2.1 1.1-2.1 3.5 0 2.5.7 3.7 2.1 3.7s2-1.1 2-3.7c.1-2.4-.6-3.5-2-3.5zm13.2 8.7c-.2.1-.2.1-.4 0l-4-5v4.6c0 .2 0 .3-.3.3h-1.5c-.3 0-.3 0-.3-.3V217c0-.2.1-.3.3-.3l1.4-.3c.2 0 .4-.1.4.2v8.7l4-4.3c.2-.2.3-.1.5.1l.8.6c.2.2.2.3 0 .4l-3.4 3.5 3.6 4.4c.1.2.3.3 0 .4l-1.1.9zm6.1.1c-1.1 0-2.4-.3-3.3-.9-.2-.1-.2-.1-.1-.4l.4-1.1c.1-.2.2-.1.4 0 1 .5 1.9.7 2.6.7.9 0 1.4-.5 1.4-1.3 0-.6-.3-.8-1.4-1.4-.5-.2-1.4-.7-2-1-.9-.5-1.1-1.4-1.1-2.1 0-1.8 1.4-3.1 3.4-3.1.9 0 2 .3 2.7.7.2.1.2.3.1.5l-.4.9c-.1.2-.2.2-.4.1-.7-.3-1.4-.5-1.9-.5-.9 0-1.4.4-1.4 1.2 0 .6.3.9 1.2 1.3.5.3 1.7.9 2 1.1 1 .6 1.3 1.3 1.3 2.2-.1 1.9-1.4 3.1-3.5 3.1zm19-.8c.1.3.1.5-.3.5h-1.7c-.2 0-.3 0-.4-.3l-1-3.6h-3.8l-1 3.6c-.1.2-.1.3-.4.3h-1.6c-.4 0-.4-.2-.3-.5l4-13.2c.1-.3.1-.3.4-.3h1.7c.3 0 .3 0 .4.3l4 13.2zm-3.8-5.1l-1-4.1c-.2-.7-.3-1.4-.5-2.2-.1.9-.3 1.6-.4 2.2l-1.1 4.1h3zm11-7.1c-.1.2-.3.1-.4.1-.5-.2-.9-.3-1.3-.3-1 0-1.2.4-1.2 1.9v1.2h2.7c.2 0 .2.1.2.2l-.3 1.1c-.1.2-.1.2-.2.2h-2.3v8.1c0 .2 0 .3-.3.3H169c-.3 0-.3 0-.3-.3v-8.1h-1.4c-.2 0-.3 0-.3-.2v-1.1c0-.2.1-.3.3-.3h1.4V220c0-1.5.2-2.2.9-2.8.5-.5 1.2-.8 2.2-.8.8 0 1.8.2 2.2.5.2.1.2.2.1.4l-.5 1.1zm5.6 4.4c-.1.2-.1.2-.2.2-.3-.1-.4-.2-.8-.2-.5 0-1 .3-1.8 1.2v6.8c0 .3 0 .3-.3.3h-1.5c-.2 0-.3 0-.3-.3v-6.2c0-1.3-.1-1.9-.4-2.5-.1-.2-.3-.5 0-.6l1.2-.6c.4-.2.5.2.7.6.2.4.3.8.3 1 .7-.8 1.4-1.6 2.5-1.6.4 0 .7.1 1 .2.2.1.2.2.1.4l-.5 1.3zm5.4 8c0 .2 0 .3-.3.3h-1.5c-.3 0-.3 0-.3-.3v-8H181c-.3 0-.3 0-.3-.3v-1c0-.3 0-.3.3-.3h3.3c.2 0 .3 0 .3.3v9.3zm-1.1-11.4c-.8 0-1.4-.6-1.4-1.4 0-.8.7-1.4 1.4-1.4.8 0 1.4.7 1.4 1.4s-.6 1.4-1.4 1.4zm10.2 4c-.1.2-.3.1-.3 0-.8-.6-1.3-.8-1.9-.8-1.5 0-2.2 1.2-2.2 3.6 0 2.4.7 3.5 2.2 3.5.8 0 1.4-.3 2-.8.2-.1.3-.1.3 0l.4 1c.1.2.1.3-.1.5-.8.6-1.9.9-2.9.9-2.6 0-4.1-1.9-4.1-5 0-3.4 1.7-5.5 4.4-5.5 1 0 2 .3 2.7.9.2.1.3.3.2.5l-.7 1.2zm9.2 7.3l-1.2.6c-.3.1-.4 0-.5-.3-.1-.2-.2-.5-.3-.9-.9.9-1.7 1.2-2.7 1.2-1.7 0-2.9-1.1-2.9-2.9 0-3.1 2.9-3.5 5.3-3.5v-.7c0-1.2-.4-1.7-1.6-1.7-.7 0-1.4.2-2.3.6-.1.1-.3.1-.4-.1l-.3-1c-.1-.4.2-.5.4-.6 1-.4 2-.6 2.9-.6 2.2 0 3.4.9 3.4 3.1v4c0 1.1.1 1.7.5 2.4-.2.2-.2.4-.3.4zm-2.4-4.3c-1.3 0-3.3.1-3.3 1.9 0 .9.6 1.5 1.4 1.5.6 0 1.2-.3 1.9-1v-2.4zm12.7 4.4c0 .2-.1.3-.3.3h-1.5c-.3 0-.3 0-.3-.3v-6.5c0-1.2-.4-1.7-1.3-1.7-.8 0-1.4.3-2.2 1.1v7.2c0 .2 0 .3-.3.3h-1.5c-.2 0-.3 0-.3-.3V224c0-.9-.1-1.4-.4-2-.1-.2-.1-.3.1-.4l1.4-.6c.2-.1.3.1.4.3.1.3.2.5.4 1 1-.8 1.7-1.4 3-1.4 1.9 0 2.7.8 2.7 3.1v6.8z"/><path fill="#FFF" d="M12.7 358.4l11.3-5.7c5.9 11.5 18 21 35.9 21 21.4 0 34.7-12 34.7-29.8 0-21.9-19-28.3-32-27.8l26.1-35.9H23.3V269h84.4c.8 0 1.2.5.5 1.3l-28.3 38.4c15 2.9 28.6 13.8 28.6 35.9 0 24.1-18.5 40.6-47.7 40.6-23.8 0-40.7-12-48.1-26.8zm13.8-7.1l11.3-5.9c3.5 7.6 9.8 13.8 21 13.8 11.6 0 18.7-6.1 18.7-16 0-10.1-7.1-15.3-20-15.3-7.2 0-12.8.8-17 2.2-1.5.5-2.9-.2-1.7-1.9l23.4-33.5H23.3v-11.5h59.6l-25.6 35.5c17.5-1.3 34.2 4.7 34.2 25.1 0 16.2-12.3 26.8-31.7 26.8-16.6.1-27.9-8.8-33.3-19.3zm96.3 1.7H188v30.5h-13.1v-19.9h-61v-19.9l59.6-74.8h14.8l-65.5 81.2v2.9zm65.2-3h-61.1l61.1-75.4V350zm-13.1-42.3l-25.1 31.7h25.1v-31.7zm42.4 42.3H191v-81h13.1v70.4h13.1V350zm-13.1 33.5H191V353h26.3v10.6h-13.1v19.9zm21.5-100.3c0-7.8 6.5-13.5 13.6-13.5 7 0 13.5 5.7 13.5 13.5 0 7.9-6.5 13.5-13.5 13.5-7.1 0-13.6-5.6-13.6-13.5zm23.6 0c0-6.2-4.5-10.3-10-10.3s-10.1 4.1-10.1 10.3c0 6.2 4.6 10.4 10.1 10.4s10-4.2 10-10.4zm20.8-12.8h3.8l-29.3 47.1h-3.8l29.3-47.1zm-8.3 34.4c0-7.8 6.4-13.5 13.5-13.5s13.5 5.7 13.5 13.5c0 7.9-6.4 13.5-13.5 13.5s-13.5-5.6-13.5-13.5zm23.5 0c0-6.1-4.5-10.3-10-10.3s-10 4.2-10 10.3c0 6.2 4.5 10.4 10 10.4s10-4.2 10-10.4zM28.2 262.4c0 .3-.1.4-.4.4h-5.4c-.3 0-.4 0-.4-.4v-1c0-.3 0-.4.4-.4H24v-11.1h-1.5c-.3 0-.4 0-.4-.4v-1c0-.3 0-.4.4-.4h5.4c.3 0 .4 0 .4.4v1c0 .3-.1.4-.4.4h-1.5V261h1.5c.3 0 .4 0 .4.4v1zm10.3.1c0 .3-.1.3-.3.3h-1.6c-.3 0-.3 0-.3-.3v-6.8c0-1.3-.4-1.8-1.3-1.8-.8 0-1.4.3-2.3 1.1v7.5c0 .3 0 .3-.3.3h-1.6c-.3 0-.3 0-.3-.3v-7.3c0-.9-.1-1.5-.4-2.1-.1-.2-.1-.3.1-.4l1.4-.6c.2-.1.3.1.4.3.1.3.2.5.4 1.1 1-.8 1.8-1.4 3.2-1.4 2 0 2.8.9 2.8 3.3v7.1zm12.8-5.7c-.7.5-1.5 1.2-1.7 1.4-.3.4-.6.7-.8 1-.3.5-.4.9-.5 1.5h5.3c.3 0 .4.1.4.4v1.2c0 .3-.1.4-.4.4h-7.4c-.3 0-.3 0-.3-.3v-.6c0-1.2.2-2.1.6-3 .7-1.4 1.8-2.4 3.2-3.4 1.7-1.3 2.1-1.9 2.1-3.1 0-1.3-.7-2-1.9-2-1.1 0-1.7.5-2.3 1.9-.1.3-.2.3-.4.2L46 252c-.1 0-.2-.1-.2-.3 0-.2.2-.7.4-1.2.8-1.5 2.1-2.3 3.8-2.3 2.4 0 3.9 1.5 3.9 4 .1 2-.6 3.2-2.6 4.6zm13.2 4.5c-.8 1.2-2 1.7-3.5 1.7-3 0-4.7-2.6-4.7-7.2 0-2.6.5-4.6 1.5-5.8.8-1 2-1.6 3.3-1.6 1.3 0 2.4.5 3.2 1.5 1 1.3 1.4 3 1.4 5.6 0 2.9-.3 4.6-1.2 5.8zm-1.7-9.8c-.4-.7-1-1.2-1.7-1.2-1.7 0-2.6 1.9-2.6 5.5 0 3.7.8 5.4 2.5 5.4.9 0 1.6-.5 1.9-1.3.4-.9.5-2.1.5-4 .1-2.3-.1-3.5-.6-4.4zm8.2 11.7c-1 0-2-.2-3-.5-.3-.1-.3-.2-.3-.4l.3-1.3c.1-.3.4-.2.5-.1.8.3 1.7.4 2.4.4 2 0 3.2-1.2 3.2-3.2 0-1.6-.8-2.5-2.2-2.5-.9 0-1.6.4-2.3 1.1-.1.1-.2.1-.4.1l-1.1-.3c-.2-.1-.2-.2-.2-.4l.7-6.9c0-.3.1-.3.4-.3h5.9c.3 0 .4 0 .4.4v1.2c0 .3 0 .4-.4.4h-4.5l-.4 3.8c.2-.1.3-.2.4-.3.6-.3 1.2-.5 1.9-.5 2.3 0 3.9 1.7 3.9 4.3.1 3-2 5-5.2 5zm15.4-1.9c-.8 1.2-2 1.7-3.5 1.7-3 0-4.7-2.6-4.7-7.2 0-2.6.5-4.6 1.5-5.8.8-1 2-1.6 3.3-1.6 1.3 0 2.4.5 3.2 1.5 1 1.3 1.4 3 1.4 5.6 0 2.9-.3 4.6-1.2 5.8zm-1.7-9.8c-.4-.7-1-1.2-1.7-1.2-1.7 0-2.6 1.9-2.6 5.5 0 3.7.8 5.4 2.5 5.4.9 0 1.6-.5 1.9-1.3.4-.9.5-2.1.5-4 .1-2.3-.1-3.5-.6-4.4zM26.1 411c-2.2 0-3.6-1.6-3.6-4.5 0-2.8 1.4-4.5 3.6-4.5s3.6 1.6 3.6 4.5c0 2.8-1.4 4.5-3.6 4.5zm0-7.5c-1.2 0-1.7.9-1.7 3s.6 3.1 1.7 3.1 1.7-1 1.7-3.1-.5-3-1.7-3zm10.2-3.5c-.1.2-.2.1-.4.1-.4-.2-.8-.3-1.1-.3-.8 0-1 .3-1 1.6v1H36c.2 0 .2.1.2.2l-.3 1c-.1.2-.1.2-.2.2h-2v6.9c0 .2 0 .2-.2.2h-1.2c-.2 0-.2 0-.2-.2v-6.8h-1.2c-.2 0-.3 0-.3-.2v-.9c0-.2.1-.2.3-.2h1.2v-1c0-1.3.2-1.9.7-2.4.5-.4 1.1-.6 1.8-.6s1.5.2 1.9.4c.2.1.1.2.1.3l-.3.7zm8.8 10.2c.1.2.1.3-.2.4-.6.3-1.4.4-2.1.4-1.8 0-2.2-1.1-2.2-2.6v-4.7h-1.2c-.2 0-.3-.1-.3-.3v-.8c0-.2.1-.3.3-.3h1.2V400c0-.2.1-.2.2-.3l1.2-.2c.2 0 .3-.1.3.2v2.5h2.3c.3 0 .2.1.2.3l-.2.8c0 .2-.1.2-.3.2h-2v4.5c0 1 .2 1.3.8 1.3.5 0 .9-.2 1.3-.3.2-.1.3 0 .3.2l.4 1zm8 .3c0 .2-.1.2-.3.2h-1.3c-.2 0-.2-.1-.2-.3V405c0-1.1-.3-1.5-1.1-1.5-.6 0-1.1.2-1.9.9v6.1c0 .2 0 .2-.2.2h-1.2c-.2 0-.3 0-.3-.2v-11.7c0-.2.1-.2.2-.3l1.2-.2c.2-.1.3-.1.3.2v4.7c.8-.8 1.6-1.1 2.5-1.1 1.8 0 2.2 1.1 2.2 2.7v5.7zm8.6-3.5h-4.8c.1 1.7.8 2.5 2.1 2.5 1 0 1.6-.4 2.1-.6.1-.1.2 0 .2.1l.4.9c.1.2 0 .3-.2.4-.7.4-1.8.7-2.7.7-2.3 0-3.7-1.6-3.7-4.4 0-2.7 1.4-4.5 3.6-4.5 2.1 0 3.3 1.5 3.3 4.3-.1.4 0 .6-.3.6zm-1.6-1.3c0-1.5-.5-2.3-1.5-2.3s-1.6.7-1.7 2.3h3.2zM71 411c-.7 0-1.2-.2-1.9-.6v3.4c0 .2 0 .2-.2.3l-1.3.3c-.2.1-.3 0-.3-.2v-9.4c0-.7-.1-1-.3-1.5-.1-.3-.2-.4 0-.5l1.1-.6c.3-.1.3.1.4.3l.3.6c.8-.7 1.5-1 2.3-1 1.9 0 2.9 1.5 2.9 4.3.1 3-1 4.6-3 4.6zm-.2-7.5c-.5 0-1 .2-1.7.7v4.8c.6.4 1 .5 1.6.5 1.2 0 1.6-.8 1.6-3.1 0-2-.4-2.9-1.5-2.9zM79 411c-2.2 0-3.6-1.6-3.6-4.5 0-2.8 1.4-4.5 3.6-4.5s3.6 1.6 3.6 4.5c.1 2.8-1.3 4.5-3.6 4.5zm.1-7.5c-1.2 0-1.7.9-1.7 3s.6 3.1 1.7 3.1 1.7-1 1.7-3.1-.5-3-1.7-3zm9.3 7.5c-.7 0-1.2-.2-1.9-.6v3.4c0 .2 0 .2-.2.3l-1.3.3c-.2.1-.3 0-.3-.2v-9.4c0-.7-.1-1-.3-1.5-.1-.3-.2-.4 0-.5l1.1-.6c.3-.1.3.1.4.3l.3.6c.8-.7 1.5-1 2.3-1 1.9 0 2.9 1.5 2.9 4.3 0 3-1 4.6-3 4.6zm-.2-7.5c-.5 0-1 .2-1.7.7v4.8c.6.4 1 .5 1.6.5 1.2 0 1.6-.8 1.6-3.1-.1-2-.5-2.9-1.5-2.9zm11.9 7l-1.1.5c-.2.1-.4-.1-.5-.2-.1-.2-.2-.4-.3-.7-.9.8-1.5 1-2.5 1-1.9 0-2.5-1.1-2.5-2.8v-5.5c0-.2.1-.2.2-.3l1.2-.3c.2-.1.3 0 .3.2v5.5c0 1.3.3 1.8 1.1 1.8.6 0 1.2-.3 1.8-.8v-6.1c0-.2.1-.2.2-.3l1.2-.3c.2-.1.3-.1.3.2v6.2c0 .8.1 1.3.4 1.7.3.1.3.2.2.2zm5.8-.1c.1.2.1.2-.1.3-.4.2-1 .3-1.5.3-1.6 0-2-.9-2-2.3v-10c0-.1.1-.2.2-.3l1.3-.3c.2-.1.3 0 .3.2v10.2c0 .6.2.7.6.7.2 0 .4 0 .6-.1.1-.1.2-.1.3.1l.3 1.2zm6.9 0l-1.1.5c-.2.1-.3 0-.5-.2-.1-.2-.2-.4-.3-.8-.7.7-1.4 1-2.3 1-1.5 0-2.5-1-2.5-2.5 0-2.6 2.5-3 4.5-3v-.4c0-1.1-.3-1.4-1.4-1.4-.6 0-1.2.2-2 .5-.1.1-.3.1-.3-.1l-.3-.8c-.1-.3.2-.4.3-.5.8-.3 1.7-.5 2.5-.5 1.9 0 2.9.8 2.9 2.6v3.4c0 1 .1 1.5.4 2 .2 0 .2.2.1.2zm-2.1-3.6c-1.1 0-2.8.1-2.8 1.6 0 .7.5 1.3 1.2 1.3.5 0 1.1-.3 1.6-.8v-2.1zm9.1 3.4c.1.2.1.3-.2.4-.6.3-1.4.4-2.1.4-1.8 0-2.2-1.1-2.2-2.6v-4.7h-1.2c-.2 0-.3-.1-.3-.3v-.8c0-.2.1-.3.3-.3h1.2V400c0-.2.1-.2.2-.3l1.2-.2c.2 0 .3-.1.3.2v2.5h2.3c.3 0 .2.1.2.3l-.2.8c0 .2-.1.2-.3.2h-2v4.5c0 1 .2 1.3.8 1.3.5 0 .9-.2 1.3-.3.2-.1.3 0 .3.2l.4 1zm3.8.3c0 .2 0 .2-.2.2h-1.3c-.2 0-.2 0-.2-.3v-6.8h-1.3c-.2 0-.3 0-.3-.3v-.8c0-.2 0-.3.3-.3h2.8c.2 0 .2 0 .2.3v8zm-1-9.7c-.7 0-1.2-.5-1.2-1.2s.6-1.2 1.2-1.2 1.2.6 1.2 1.2c.1.6-.5 1.2-1.2 1.2zm6.6 10.2c-2.2 0-3.6-1.6-3.6-4.5 0-2.8 1.4-4.5 3.6-4.5s3.6 1.6 3.6 4.5c.1 2.8-1.3 4.5-3.6 4.5zm.1-7.5c-1.2 0-1.7.9-1.7 3s.6 3.1 1.7 3.1 1.7-1 1.7-3.1-.5-3-1.7-3zm12.1 7c0 .2-.1.2-.3.2h-1.3c-.2 0-.2 0-.2-.2V405c0-1-.3-1.5-1.1-1.5-.7 0-1.2.2-1.9.9v6.1c0 .2 0 .2-.2.2h-1.3c-.2 0-.2 0-.2-.2v-5.9c0-.7-.1-1.2-.3-1.7-.1-.2-.1-.2.1-.3l1.2-.5c.2-.1.3.1.4.3.1.2.2.4.3.9.8-.7 1.5-1.2 2.6-1.2 1.6 0 2.3.7 2.3 2.6v5.8zm12.7 0l-1.1.5c-.2.1-.4-.1-.5-.2-.1-.2-.2-.4-.3-.7-.9.8-1.5 1-2.5 1-1.9 0-2.5-1.1-2.5-2.8v-5.5c0-.2.1-.2.2-.3l1.2-.3c.2-.1.3 0 .3.2v5.5c0 1.3.3 1.8 1.1 1.8.6 0 1.2-.3 1.8-.8v-6.1c0-.2.1-.2.2-.3l1.2-.3c.2-.1.3-.1.3.2v6.2c0 .8.1 1.3.4 1.7.4.1.4.2.2.2zm8.8 0c0 .2-.1.2-.3.2h-1.3c-.2 0-.2 0-.2-.2V405c0-1-.3-1.5-1.1-1.5-.7 0-1.2.2-1.9.9v6.1c0 .2 0 .2-.2.2h-1.3c-.2 0-.2 0-.2-.2v-5.9c0-.7-.1-1.2-.3-1.7-.1-.2-.1-.2.1-.3l1.2-.5c.2-.1.3.1.4.3.1.2.2.4.3.9.8-.7 1.5-1.2 2.6-1.2 1.6 0 2.3.7 2.3 2.6v5.8zm7.9.4c-.3.1-.4-.1-.5-.3-.1-.2-.1-.4-.2-.6-1 .7-1.7 1-2.5 1-1.7 0-2.8-1.6-2.8-4.4 0-1.7.3-2.8 1-3.6.6-.6 1.3-1 2.1-1 .6 0 1.1.2 1.8.5v-3.8c0-.2 0-.2.2-.3l1.2-.3c.2-.1.3-.1.3.2v9.8c0 .9 0 1.2.3 1.7.1.2.3.3 0 .4l-.9.7zm-.9-6.9c-.6-.3-1-.4-1.5-.4-1.2 0-1.7.8-1.7 3s.4 3.1 1.5 3.1c.6 0 1.1-.2 1.7-.8V404zm10.4 3h-4.8c.1 1.7.8 2.5 2.1 2.5 1 0 1.6-.4 2.1-.6.1-.1.2 0 .2.1l.4.9c.1.2 0 .3-.2.4-.7.4-1.8.7-2.7.7-2.3 0-3.7-1.6-3.7-4.4 0-2.7 1.4-4.5 3.6-4.5 2.1 0 3.3 1.5 3.3 4.3-.1.4 0 .6-.3.6zm-1.6-1.3c0-1.5-.5-2.3-1.5-2.3s-1.6.7-1.7 2.3h3.2zm7.9-2c-.1.2-.1.2-.2.2-.2-.1-.4-.1-.6-.1-.4 0-.8.3-1.5 1.1v5.8c0 .2 0 .2-.2.2h-1.2c-.2 0-.3 0-.3-.2v-5.2c0-1.1-.1-1.6-.3-2.2-.1-.2-.3-.4 0-.5l1.1-.5c.3-.2.4.2.6.5.2.3.2.7.3.8.6-.7 1.2-1.4 2.2-1.4.3 0 .6.1.8.2.2.1.1.2.1.3l-.8 1zm11.2 6.8c0 .3-.1.3-.3.3h-4.8c-.3 0-.3 0-.3-.3v-.8c0-.3 0-.3.3-.3h1.7v-7.8l-2.1 1.1c-.2.1-.3.1-.4-.1l-.3-.6c-.1-.2-.1-.3.1-.4l3.2-2.2h1.1c.3 0 .3 0 .3.3v9.6h1.3c.3 0 .3 0 .3.3v.9zm4 .7c-.8 0-1.7-.2-2.4-.4-.2-.1-.2-.1-.2-.3l.2-1.1c.1-.2.3-.1.4-.1.7.2 1.4.3 2 .3 1.6 0 2.6-1 2.6-2.6 0-1.3-.7-2.1-1.8-2.1-.7 0-1.3.3-1.9.9-.1.1-.2.1-.3.1l-.9-.3c-.2-.1-.2-.1-.2-.4l.5-5.6c0-.2.1-.3.3-.3h4.8c.3 0 .3 0 .3.3v.9c0 .2 0 .3-.3.3h-3.6l-.3 3.1c.1-.1.2-.2.3-.2.5-.3 1-.4 1.6-.4 1.9 0 3.1 1.4 3.1 3.5 0 2.7-1.7 4.4-4.2 4.4zm17-.5c0 .1-.1.2-.2.2h-1c-.2 0-.3 0-.3-.2l-1.1-4.8c-.1-.5-.2-1.1-.2-1.7-.1.6-.1 1.1-.3 1.6l-1.3 4.8c-.1.2-.1.2-.2.2H213c-.2 0-.2 0-.3-.2l-2-7.9c-.1-.2 0-.3.2-.3l1.2-.2c.2 0 .2-.1.3.2l.9 4.2c.1.6.3 1.8.4 2.5.1-.7.1-1.3.3-1.9l1.2-4.6c.1-.2.1-.2.2-.2h1.1c.2 0 .2 0 .2.2l1.1 4.9c.1.6.2 1.1.2 1.7.1-.6.2-1.4.3-2l1.1-4.6c.1-.3.2-.2.4-.2l1 .2c.2.1.2.1.1.3l-2.1 7.8zm6.2-.2c0 .2 0 .2-.2.2h-1.3c-.2 0-.2 0-.2-.3v-6.8H222c-.2 0-.3 0-.3-.3v-.8c0-.2 0-.3.3-.3h2.8c.2 0 .2 0 .2.3v8zm-.9-9.7c-.7 0-1.2-.5-1.2-1.2s.6-1.2 1.2-1.2 1.2.6 1.2 1.2-.6 1.2-1.2 1.2zm7.1 9.6c.1.2.1.2-.1.3-.4.2-1 .3-1.5.3-1.6 0-2-.9-2-2.3v-10c0-.1.1-.2.2-.3l1.3-.3c.2-.1.3 0 .3.2v10.2c0 .6.2.7.6.7.2 0 .4 0 .6-.1.1-.1.2-.1.3.1l.3 1.2zm4.6 0c.1.2.1.2-.1.3-.4.2-1 .3-1.5.3-1.6 0-2-.9-2-2.3v-10c0-.1.1-.2.2-.3l1.3-.3c.2-.1.3 0 .3.2v10.2c0 .6.2.7.6.7.2 0 .4 0 .6-.1.1-.1.2-.1.3.1l.3 1.2zm8.1 0c.1.2.1.2-.1.3-.4.2-1 .3-1.5.3-1.6 0-2-.9-2-2.3v-10c0-.1.1-.2.2-.3l1.3-.3c.2-.1.3 0 .3.2v10.2c0 .6.2.7.6.7.2 0 .4 0 .6-.1.1-.1.2-.1.3.1l.3 1.2zm3.2.1c0 .2 0 .2-.2.2h-1.3c-.2 0-.2 0-.2-.3v-6.8H244c-.2 0-.3 0-.3-.3v-.8c0-.2 0-.3.3-.3h2.8c.2 0 .2 0 .2.3v8zm-1-9.7c-.7 0-1.2-.5-1.2-1.2s.6-1.2 1.2-1.2 1.2.6 1.2 1.2c.1.6-.5 1.2-1.2 1.2zm6.8 10c-.1.2-.1.2-.3.2h-1c-.2 0-.2 0-.3-.2l-2.9-8c-.1-.2-.1-.3.2-.3l1.3-.2c.2 0 .3 0 .3.2l1.5 4.8c.2.6.3 1.2.4 1.8.2-.8.3-1.2.5-1.8l1.6-4.8c.1-.2.2-.2.4-.2l1.1.2c.2.1.2.1.1.3l-2.9 8zm10.2-3.8h-4.8c.1 1.7.8 2.5 2.1 2.5 1 0 1.6-.4 2.1-.6.1-.1.2 0 .2.1l.4.9c.1.2 0 .3-.2.4-.7.4-1.8.7-2.7.7-2.3 0-3.7-1.6-3.7-4.4 0-2.7 1.4-4.5 3.6-4.5 2.1 0 3.3 1.5 3.3 4.3 0 .4 0 .6-.3.6zm-1.5-1.3c0-1.5-.5-2.3-1.5-2.3s-1.6.7-1.7 2.3h3.2zm9.2 4.8c0 .2 0 .2-.2.2h-1.3c-.2 0-.2 0-.2-.3v-6.8h-1.3c-.2 0-.3 0-.3-.3v-.8c0-.2 0-.3.3-.3h2.8c.2 0 .2 0 .2.3v8zm-.9-9.7c-.7 0-1.2-.5-1.2-1.2s.6-1.2 1.2-1.2 1.2.6 1.2 1.2-.5 1.2-1.2 1.2zm10.2 9.7c0 .2-.1.2-.3.2h-1.3c-.2 0-.2 0-.2-.2V405c0-1-.3-1.5-1.1-1.5-.7 0-1.2.2-1.9.9v6.1c0 .2 0 .2-.2.2h-1.3c-.2 0-.2 0-.2-.2v-5.9c0-.7-.1-1.2-.3-1.7-.1-.2-.1-.2.1-.3l1.2-.5c.2-.1.3.1.4.3.1.2.2.4.3.9.8-.7 1.5-1.2 2.6-1.2 1.6 0 2.3.7 2.3 2.6v5.8zM25.3 430.2c-1 0-2-.3-2.8-.7-.2-.1-.2-.1-.1-.3l.4-.9c.1-.2.2-.1.3 0 .8.4 1.6.6 2.2.6.7 0 1.2-.4 1.2-1.1 0-.5-.3-.7-1.2-1.2-.4-.2-1.2-.6-1.7-.9-.7-.4-1-1.2-1-1.8 0-1.5 1.2-2.6 2.9-2.6.7 0 1.7.2 2.3.6.2.1.2.2.1.4l-.4.8c-.1.2-.2.2-.3.1-.6-.3-1.2-.4-1.6-.4-.8 0-1.2.4-1.2 1 0 .5.3.7 1.1 1.1.4.2 1.4.7 1.7.9.9.5 1.1 1.1 1.1 1.9-.1 1.5-1.3 2.5-3 2.5zm11.4-.5l-1.1.4c-.2.1-.4-.1-.5-.2-.1-.2-.2-.4-.3-.7-.9.8-1.5 1-2.5 1-1.9 0-2.5-1.1-2.5-2.8v-5.5c0-.2.1-.2.2-.3l1.2-.3c.2-.1.3 0 .3.2v5.5c0 1.3.3 1.8 1.1 1.8.6 0 1.2-.3 1.8-.8v-6.1c0-.2.1-.2.2-.3l1.2-.3c.2-.1.3-.1.3.2v6.2c0 .8.1 1.3.4 1.7.4.1.4.3.2.3zm8.2-.7c-.6.8-1.4 1.3-2.4 1.3-.8 0-1.3-.2-2-.8-.1.2-.2.3-.2.4-.2.3-.2.4-.5.3l-1-.4c-.2-.1-.2-.2-.1-.3.3-.5.4-1 .4-1.8V418c0-.2.1-.2.2-.3l1.2-.3c.2-.1.3 0 .3.2v4.4c.8-.6 1.5-.8 2.2-.8 1.8 0 2.8 1.5 2.8 4.1 0 1.7-.3 2.8-.9 3.7zm-2.4-6.3c-.5 0-.9.2-1.7.7v4.9c.4.3.9.5 1.4.5 1.2 0 1.8-1.1 1.8-3.3 0-1.9-.5-2.8-1.5-2.8zm9.5 3.4c0 .3 0 .3-.3.3h-4.3c-.3 0-.3 0-.3-.3V425c0-.2.1-.3.3-.3h4.3c.3 0 .3 0 .3.3v1.1zm4.6 4.1c-1 0-2.4-.3-3.2-.8-.2-.1-.2-.2-.2-.4l.4-1.1c.1-.2.3 0 .5.1.9.5 1.7.7 2.5.7 1.1 0 1.8-.6 1.8-1.7s-.4-1.4-2.2-2.4c-1.5-.8-2.8-1.5-2.8-3.4s1.5-3.2 3.6-3.2c1 0 2.1.3 2.9.8.2.1.2.2.1.3l-.4 1c-.1.2-.2.2-.5 0-.7-.4-1.3-.6-2.1-.6-1.1 0-1.7.6-1.7 1.5 0 .8.3 1.1 1.6 1.8 1.8 1 3.4 1.7 3.4 4 0 2-1.4 3.4-3.7 3.4zm11.5-.6l-1.1.5c-.2.1-.3 0-.5-.2-.1-.2-.2-.4-.3-.8-.7.7-1.4 1-2.3 1-1.5 0-2.5-1-2.5-2.5 0-2.6 2.5-3 4.5-3v-.6c0-1.1-.3-1.4-1.4-1.4-.6 0-1.2.2-2 .5-.1.1-.3.1-.3-.1l-.3-.8c-.1-.3.2-.4.3-.5.8-.3 1.7-.5 2.5-.5 1.9 0 2.9.8 2.9 2.6v3.4c0 1 .1 1.5.4 2 .2.2.2.4.1.4zm-2-3.6c-1.1 0-2.8.1-2.8 1.6 0 .7.5 1.3 1.2 1.3.5 0 1.1-.3 1.6-.8V426zm10.8 3.7c0 .2-.1.2-.3.2h-1.3c-.2 0-.2-.1-.2-.3v-5.5c0-1.1-.3-1.5-1.1-1.5-.6 0-1.1.2-1.9.9v6.1c0 .2 0 .2-.2.2h-1.2c-.2 0-.3 0-.3-.2V418c0-.2.1-.2.2-.3l1.2-.2c.2-.1.3-.1.3.2v4.7c.8-.8 1.6-1.1 2.5-1.1 1.8 0 2.2 1.1 2.2 2.7v5.7zm8.4-.1l-1.1.5c-.2.1-.3 0-.5-.2-.1-.2-.2-.4-.3-.8-.7.7-1.4 1-2.3 1-1.5 0-2.5-1-2.5-2.5 0-2.6 2.5-3 4.5-3v-.6c0-1.1-.3-1.4-1.4-1.4-.6 0-1.2.2-2 .5-.1.1-.3.1-.3-.1l-.3-.8c-.1-.3.2-.4.3-.5.8-.3 1.7-.5 2.5-.5 1.9 0 2.9.8 2.9 2.6v3.4c0 1 .1 1.5.4 2 .2.2.3.4.1.4zm-2-3.6c-1.1 0-2.8.1-2.8 1.6 0 .7.5 1.3 1.2 1.3.5 0 1.1-.3 1.6-.8V426zm8.5-3.1c-.1.2-.1.2-.2.2-.2-.1-.4-.1-.6-.1-.4 0-.8.3-1.5 1.1v5.8c0 .2 0 .2-.2.2H88c-.2 0-.3 0-.3-.2v-5.2c0-1.1-.1-1.6-.3-2.2-.1-.2-.3-.4 0-.5l1.1-.5c.3-.2.4.2.6.5.2.3.2.7.3.8.6-.7 1.2-1.4 2.2-1.4.3 0 .6.1.8.2.2.1.1.2.1.3l-.7 1zm7.7 6.7l-1.1.5c-.2.1-.3 0-.5-.2-.1-.2-.2-.4-.3-.8-.7.7-1.4 1-2.3 1-1.5 0-2.5-1-2.5-2.5 0-2.6 2.5-3 4.5-3v-.6c0-1.1-.3-1.4-1.4-1.4-.6 0-1.2.2-2 .5-.1.1-.3.1-.3-.1l-.3-.8c-.1-.3.2-.4.3-.5.8-.3 1.7-.5 2.5-.5 1.9 0 2.9.8 2.9 2.6v3.4c0 1 .1 1.5.4 2 .2.2.2.4.1.4zm-2.1-3.6c-1.1 0-2.8.1-2.8 1.6 0 .7.5 1.3 1.2 1.3.5 0 1.1-.3 1.6-.8V426zm10.9 3.7c0 .2-.1.2-.3.2h-1.3c-.2 0-.2 0-.2-.2v-5.5c0-1-.3-1.5-1.1-1.5-.7 0-1.2.2-1.9.9v6.1c0 .2 0 .2-.2.2H102c-.2 0-.2 0-.2-.2v-5.9c0-.7-.1-1.2-.3-1.7-.1-.2-.1-.2.1-.3l1.2-.5c.2-.1.3.1.4.3.1.2.2.4.3.9.8-.7 1.5-1.2 2.6-1.2 1.6 0 2.3.7 2.3 2.6v5.8zm13.9-.2c.1.2.1.4-.2.4h-1.5c-.2 0-.3 0-.3-.2l-.8-3.1h-3.2l-.8 3.1c-.1.2-.1.2-.3.2h-1.4c-.4 0-.3-.2-.2-.4l3.4-11.2c.1-.2.1-.2.3-.2h1.4c.2 0 .2 0 .3.2l3.3 11.2zm-3.3-4.3l-.9-3.5c-.1-.6-.3-1.2-.4-1.9-.1.7-.2 1.3-.4 1.9l-.9 3.5h2.6zm9.4-6c-.1.2-.2.1-.4.1-.4-.2-.8-.3-1.1-.3-.8 0-1 .3-1 1.6v1h2.3c.2 0 .2.1.2.2l-.3 1c-.1.2-.1.2-.2.2h-2v6.9c0 .2 0 .2-.2.2h-1.2c-.2 0-.2 0-.2-.2v-6.8H123c-.2 0-.3 0-.3-.2v-.9c0-.2.1-.2.3-.2h1.2v-1c0-1.3.2-1.9.7-2.4.5-.4 1.1-.6 1.8-.6s1.5.2 1.9.4c.2.1.1.2.1.3l-.4.7zm4.7 3.7c-.1.2-.1.2-.2.2-.2-.1-.4-.1-.6-.1-.4 0-.8.3-1.5 1.1v5.8c0 .2 0 .2-.2.2h-1.2c-.2 0-.3 0-.3-.2v-5.2c0-1.1-.1-1.6-.3-2.2-.1-.2-.3-.4 0-.5l1.1-.5c.3-.2.4.2.6.5.2.3.2.7.3.8.6-.7 1.2-1.4 2.2-1.4.3 0 .6.1.8.2.2.1.1.2.1.3l-.8 1zm4.6 6.8c0 .2 0 .2-.2.2h-1.3c-.2 0-.2 0-.2-.3v-6.8h-1.3c-.2 0-.3 0-.3-.3v-.8c0-.2 0-.3.3-.3h2.8c.2 0 .2 0 .2.3v8zm-1-9.7c-.7 0-1.2-.5-1.2-1.2s.6-1.2 1.2-1.2 1.2.6 1.2 1.2-.5 1.2-1.2 1.2zm8.7 3.4c-.1.1-.2.1-.3 0-.7-.5-1.1-.7-1.6-.7-1.3 0-1.9 1-1.9 3s.6 3 1.8 3c.7 0 1.2-.3 1.7-.7.2-.1.2-.1.3 0l.3.8c.1.2.1.3-.1.4-.6.5-1.6.8-2.4.8-2.2 0-3.5-1.6-3.5-4.3 0-2.9 1.4-4.7 3.7-4.7.8 0 1.7.3 2.3.8.1.1.3.3.2.4l-.5 1.2zm7.8 6.2l-1.1.5c-.2.1-.3 0-.5-.2-.1-.2-.2-.4-.3-.8-.7.7-1.4 1-2.3 1-1.5 0-2.5-1-2.5-2.5 0-2.6 2.5-3 4.5-3v-.6c0-1.1-.3-1.4-1.4-1.4-.6 0-1.2.2-2 .5-.1.1-.3.1-.3-.1l-.3-.8c-.1-.3.2-.4.3-.5.8-.3 1.7-.5 2.5-.5 1.9 0 2.9.8 2.9 2.6v3.4c0 1 .1 1.5.4 2 .2.2.3.4.1.4zm-2-3.6c-1.1 0-2.8.1-2.8 1.6 0 .7.5 1.3 1.2 1.3.5 0 1.1-.3 1.6-.8V426z"/></svg>
