<svg xmlns="http://www.w3.org/2000/svg" viewBox="0 0 160 237.7"><g fill="#CCC"><path d="M154.7 18.4c-.1-.2-.2-.3-.4-.3H153c-.8-4.5-4.8-7.9-9.5-7.9-5.3 0-9.7 4.3-9.7 9.7 0 5.3 4.3 9.7 9.7 9.7 3.4 0 6.6-1.8 8.4-4.8.2-.4.1-1-.3-1.2-.4-.2-1-.1-1.2.3-1.4 2.4-4 3.9-6.8 3.9-4.4 0-7.9-3.5-7.9-7.9s3.5-7.9 7.9-7.9c3.8 0 6.9 2.6 7.7 6.1H150c-.2 0-.3.1-.4.3-.1.2 0 .3.1.5l2.2 2.6c.1.1.2.2.3.2.1 0 .3-.1.3-.2l2.2-2.6c.1-.1.1-.3 0-.5zm-4.9 14.9"/><path d="M143.5 12.5c-.5 0-.9.4-.9.9v5.3c-.4.3-.7.7-.7 1.3 0 .8.7 1.5 1.5 1.5.2 0 .4-.1.6-.1l3.1 1.8c.1.1.3.1.4.1.3 0 .6-.2.8-.4.2-.4.1-1-.3-1.2l-3.1-1.8c0-.5-.3-.9-.6-1.1v-5.3c.1-.6-.3-1-.8-1zm0 8.1c-.4 0-.7-.3-.7-.7 0-.4.3-.7.7-.7.4 0 .7.3.7.7 0 .4-.3.7-.7.7zm0 0"/></g><path fill="#E8E8E8" d="M0 100.5h160v130.2H0z"/><path fill="#176A65" d="M14.3 119.6c0 .1 0 .2-.1.2-.4.3-1.1.4-1.7.4-1.6 0-2.4-1.1-2.4-3.2s.8-3.2 2.4-3.2c.6 0 1.1.1 1.5.4.1.1.2.1.2.2v.1l-.3.7h-.2c-.5-.3-.8-.4-1.1-.4-.4 0-.7.2-.8.4-.3.4-.4 1-.4 1.8s.1 1.4.3 1.8c.2.3.5.5.9.5.2 0 .4 0 .6-.1v-1.3h-.7c-.2 0-.2 0-.2-.2v-.6c0-.2 0-.2.2-.2h1.6c.2 0 .2 0 .2.2v2.5zm4.3.3c-.4.2-.6.2-1.5.2h-1.4c-.2 0-.2 0-.2-.2v-5.8c0-.2 0-.2.2-.2h1.4c.6 0 .7 0 .9.1 1.1.2 1.7 1.2 1.7 3 0 1.6-.4 2.5-1.1 2.9zm-.8-4.8c-.2-.1-.4-.2-.8-.2h-.3v4.2h.3c.5 0 .7-.1.9-.2.3-.3.4-.8.4-1.8.1-1.1 0-1.7-.5-2zm4.7 2.6H22v2.3c0 .2 0 .2-.2.2H21c-.2 0-.2 0-.2-.2v-5.8c0-.2 0-.2.2-.2h1.5c.7 0 1.1.1 1.4.3.4.3.7.8.7 1.4 0 1.2-.8 2-2.1 2zm-.1-2.8H22v1.8h.3c.8 0 1.1-.2 1.1-.9s-.2-.9-1-.9zm4.8-.5l-.7.1.5.5v.1l-.1.1-.3.2h-.1l-.1-.1-.3-.6-.3.6c0 .1 0 .1-.1.1h-.1l-.3-.2s-.1 0-.1-.1v-.1l.5-.5-.7-.1c-.1 0-.1 0-.1-.1v-.1l.1-.3c0-.1 0-.1.1-.1h.1l.6.3-.1-.7s0-.1.1-.1h.4c.1 0 .1 0 .1.1v.1l-.1.7.6-.3h.1l.1.1.1.3v.1h.1zm4.2 5.9c-.4 0-.6-.1-.9-.2v1.6c0 .1 0 .1-.1.2l-.8.2h-.1c-.1 0-.1 0-.1-.1v-5c0-.4 0-.6-.2-.9v-.1s0-.1.1-.1l.8-.3h.1c.1 0 .2.2.3.5.4-.3.7-.5 1.1-.5 1 0 1.6.8 1.6 2.3-.2 1.6-.7 2.4-1.8 2.4zm-.2-3.8c-.3 0-.4.1-.7.3v2.5c.2.1.4.2.6.2.6 0 .8-.4.8-1.5s-.2-1.5-.7-1.5zm6 1.7h-2.4c0 .8.3 1.1 1 1.1.3 0 .7-.1 1-.3h.1s.1 0 .1.1l.2.5v.1c0 .1-.1.2-.4.3-.4.2-.8.3-1.2.3-.6 0-1-.2-1.3-.4-.4-.4-.7-1.1-.7-1.9 0-1.5.8-2.4 2-2.4s1.8.8 1.8 2.5c0 .1-.1.1-.2.1zm-1-.8c0-.7-.2-1-.7-1s-.7.3-.7 1h1.4zm4.7-1.5l-.3.7c0 .1 0 .1-.1.1h-.1c-.1 0-.3-.1-.4-.1-.2 0-.4.1-.7.4v3c0 .1 0 .2-.2.2h-.8c-.1 0-.2 0-.2-.2v-2.7c0-.5-.1-.8-.3-1.3v-.1s0-.1.1-.1l.7-.3h.1c.1 0 .2.3.3.7.2-.2.2-.3.3-.4.2-.2.5-.4.8-.4.6.2.8.3.8.5 0-.1 0-.1 0 0zm4.5 4.4c-.4 0-.6-.1-.9-.2v1.6c0 .1 0 .1-.1.2l-.8.2h-.1c-.1 0-.1 0-.1-.1v-5c0-.4 0-.6-.2-.9v-.1s0-.1.1-.1l.8-.3h.1c.1 0 .2.2.3.5.4-.3.7-.5 1.1-.5 1 0 1.6.8 1.6 2.3-.2 1.6-.7 2.4-1.8 2.4zm-.2-3.8c-.3 0-.4.1-.7.3v2.5c.2.1.4.2.6.2.6 0 .8-.4.8-1.5s-.2-1.5-.7-1.5zm6 1.7h-2.4c0 .8.3 1.1 1 1.1.3 0 .7-.1 1-.3h.1s.1 0 .1.1l.2.5v.1c0 .1-.1.2-.4.3-.4.2-.8.3-1.2.3-.6 0-1-.2-1.3-.4-.4-.4-.7-1.1-.7-1.9 0-1.5.8-2.4 2-2.4s1.8.8 1.8 2.5c0 .1 0 .1-.2.1zm-1-.8c0-.7-.2-1-.7-1-.5 0-.7.3-.7 1h1.4zm4.7-1.5l-.3.7c0 .1 0 .1-.1.1h-.1c-.1 0-.3-.1-.4-.1-.2 0-.4.1-.7.4v3c0 .1 0 .2-.2.2h-.8c-.1 0-.2 0-.2-.2v-2.7c0-.5-.1-.8-.3-1.3v-.1s0-.1.1-.1l.7-.3h.1c.1 0 .2.3.3.7.2-.2.2-.3.3-.4.2-.2.5-.4.8-.4.6.2.9.3.8.5.1-.1 0-.1 0 0zm3 4c-.3.3-.6.4-1.1.4-.5 0-1.1-.1-1.5-.4-.2-.1-.2-.1-.2-.2v-.1l.2-.5c0-.1.1-.1.1-.1h.1c.5.3.9.4 1.2.4.3 0 .5-.2.5-.5s-.1-.3-.7-.6c-.6-.2-.8-.3-.9-.5-.2-.2-.4-.5-.4-.9 0-.9.7-1.5 1.6-1.5.6 0 1.4.2 1.4.4v.1l-.2.5c0 .1-.1.1-.1.1h-.1c-.3-.2-.7-.2-.9-.2-.4 0-.6.2-.6.5 0 .2.1.3.6.5.7.3.9.4 1 .5.2.2.4.6.4.9 0 .5-.1.9-.4 1.2zm3 .4c-1.2 0-2-.9-2-2.4 0-.7.2-1.3.5-1.7.4-.5.8-.7 1.5-.7 1.2 0 1.9.9 1.9 2.4s-.7 2.4-1.9 2.4zm0-3.8c-.5 0-.7.4-.7 1.5 0 1 .2 1.5.7 1.5.5 0 .7-.4.7-1.5s-.2-1.5-.7-1.5zm6.5 3.5c0 .1 0 .2-.2.2h-.8c-.1 0-.2 0-.2-.2v-2.8c0-.5-.2-.8-.5-.8s-.5.1-.8.4v3.2c0 .1 0 .2-.2.2h-.8c-.1 0-.2 0-.2-.2v-3c0-.4-.1-.7-.2-1v-.1s0-.1.1-.1l.8-.3h.1c.1 0 .2.2.3.6.5-.4.8-.6 1.4-.6.8 0 1.2.4 1.2 1.4v3.1zm2.8-.7l-1.1 2-.1.1h-.1l-.3-.1c-.1 0-.1-.1-.1-.1v-.1l.6-1.8c0-.1.1-.2.2-.2h.7c.1 0 .2 0 .2.1v.1zm5.1-2.2l-.2.4h-.2c-.3-.2-.4-.2-.6-.2-.5 0-.7.4-.7 1.2 0 .8.2 1.1.7 1.1.2 0 .4-.1.6-.2h.2l.2.4v.1c0 .2-.5.4-1 .4-1 0-1.5-.7-1.5-1.8 0-1.2.6-1.9 1.6-1.9.4 0 .9.2.9.5 0-.1 0-.1 0 0zm3.4 3l-.6.1H78c-.1 0-.2-.1-.2-.4-.3.3-.6.4-1 .4s-.6-.1-.8-.3c-.2-.2-.2-.4-.2-1.1v-2.1c0-.1 0-.1.1-.1l.7-.1h.1c.1 0 .1 0 .1.1v2.2c0 .3 0 .4.1.5.1.1.2.2.4.2s.4-.1.6-.3v-2.5c0-.1 0-.1.1-.1l.7-.1h.1s.1 0 .1.1v2.6c0 .3 0 .5.1.7-.3.1-.3.1-.3.2zm2.9-3.3l-.2.6s0 .1-.1.1-.2-.1-.3-.1c-.1 0-.3.1-.5.3v2.3c0 .1 0 .1-.1.1h-.7c-.1 0-.1 0-.1-.1v-2.1c0-.4 0-.6-.2-1v-.1s0-.1.1-.1l.6-.2h.1c.1 0 .2.2.3.5.1-.2.2-.2.2-.3.2-.2.4-.3.6-.3.2.2.3.3.3.4zm2.6 0l-.2.6s0 .1-.1.1-.2-.1-.3-.1c-.1 0-.3.1-.5.3v2.3c0 .1 0 .1-.1.1h-.7c-.1 0-.1 0-.1-.1v-2.1c0-.4 0-.6-.2-1v-.1s0-.1.1-.1l.6-.2h.1c.1 0 .2.2.3.5.1-.2.2-.2.2-.3.2-.2.4-.3.6-.3.1.2.3.3.3.4zm2.9 1.9h-1.9c0 .6.3.9.8.9.3 0 .5-.1.8-.2h.1s.1 0 .1.1l.2.4v.1c0 .1-.1.1-.3.2-.3.1-.6.2-1 .2s-.8-.1-1-.3c-.3-.3-.5-.8-.5-1.5 0-1.1.6-1.9 1.5-1.9s1.4.6 1.4 1.9c-.1 0-.1.1-.2.1zm-.8-.7c0-.6-.2-.8-.5-.8s-.5.2-.6.8h1.1zm4.4 2c0 .1 0 .1-.1.1H90c-.1 0-.1 0-.1-.1v-2.2c0-.4-.1-.6-.4-.6-.2 0-.4.1-.6.3v2.5c0 .1 0 .1-.1.1h-.7c-.1 0-.1 0-.1-.1v-2.4c0-.3 0-.6-.1-.8v-.1l.1-.1.6-.2h.1c.1 0 .2.2.3.5.4-.3.7-.4 1.1-.4.6 0 .9.3.9 1.1v2.4zm2.8.2c-.2.1-.5.1-.7.1-.4 0-.6-.1-.8-.4-.1-.2-.2-.4-.2-.7v-1.8h-.5c-.1 0-.1 0-.1-.1v-.4c0-.1 0-.1.1-.1h.5v-.9c0-.1 0-.1.1-.1l.6-.1h.1s.1 0 .1.1v1h.8c.1 0 .1 0 .1.1v.1l-.1.4c0 .1 0 .1-.1.1h-.7v1.7c0 .4 0 .4.3.4.1 0 .2 0 .5-.1h.1s.1 0 .1.1l.1.5v.1c0-.1-.1-.1-.3 0zm3.8.1c-.3 0-.5 0-.7-.2v1.3c0 .1 0 .1-.1.1l-.7.1h-.1s-.1 0-.1-.1v-3.9c0-.3 0-.4-.1-.7v-.1l.1-.1.6-.3h.1c.1 0 .1.1.2.4.3-.3.5-.4.9-.4.8 0 1.2.6 1.2 1.8 0 1.4-.4 2.1-1.3 2.1zm-.1-3c-.2 0-.3.1-.5.3v1.9c.2.1.3.1.5.1.5 0 .6-.3.6-1.2-.1-.8-.2-1.1-.6-1.1zm4.2-.5l-.2.6s0 .1-.1.1-.2-.1-.3-.1c-.1 0-.3.1-.5.3v2.3c0 .1 0 .1-.1.1h-.7c-.1 0-.1 0-.1-.1v-2.1c0-.4 0-.6-.2-1v-.1s0-.1.1-.1l.6-.2h.1c.1 0 .2.2.3.5.1-.2.2-.2.2-.3.2-.2.4-.3.6-.3.1.2.3.3.3.4zm1.7 3.2c0 .1 0 .1-.1.1h-.7c-.1 0-.1 0-.1-.1v-2.7h-.5c-.1 0-.1 0-.1-.1v-.4c0-.1 0-.1.1-.1h1.3c.1 0 .1 0 .1.1v3.2zm-.4-3.8c-.3 0-.6-.3-.6-.6s.3-.6.6-.6.6.3.6.6c-.1.4-.3.6-.6.6zm3.8.9l-.2.4h-.2c-.3-.2-.4-.2-.6-.2-.5 0-.7.4-.7 1.2 0 .8.2 1.1.7 1.1.2 0 .4-.1.6-.2h.2l.2.4v.1c0 .2-.5.4-1 .4-1 0-1.5-.7-1.5-1.8 0-1.2.6-1.9 1.6-1.9.3 0 .9.2.9.5 0-.1 0-.1 0 0zm3 1.6h-1.9c0 .6.3.9.8.9.3 0 .5-.1.8-.2h.1s.1 0 .1.1l.2.4v.1c0 .1-.1.1-.3.2-.3.1-.6.2-1 .2s-.8-.1-1-.3c-.3-.3-.5-.8-.5-1.5 0-1.1.6-1.9 1.5-1.9s1.4.6 1.4 1.9c0 0-.1.1-.2.1zm-.8-.7c0-.6-.2-.8-.5-.8-.4 0-.5.2-.6.8h1.1zm3.6 2c-.2.2-.5.3-.9.3s-.8-.1-1.2-.3c-.1-.1-.2-.1-.2-.1v-.1l.2-.4s0-.1.1-.1h.1c.4.2.7.3 1 .3.2 0 .4-.1.4-.4 0-.2-.1-.3-.5-.4-.4-.2-.6-.3-.7-.4-.2-.2-.3-.4-.3-.7 0-.7.5-1.1 1.2-1.1.4 0 1.1.2 1.1.3v.1l-.2.4s0 .1-.1.1h-.1c-.3-.1-.5-.2-.7-.2-.3 0-.4.1-.4.4 0 .2.1.3.5.4.5.2.7.3.8.4.2.2.3.4.3.7-.1.2-.2.5-.4.8zm2.3-.5l-.8 1.6c0 .1-.1.1-.1.1h-.1l-.3-.1c-.1 0-.1 0-.1-.1v-.1l.4-1.4c0-.1.1-.1.2-.1h.7c.1-.1.1-.1.1.1 0-.1 0-.1 0 0zm4.7-1.7c-.2.2-.2.2-.9.8-.4.3-.5.5-.5.8h1.6c.1 0 .1 0 .1.1v.5c0 .1 0 .1-.1.1H117c-.1 0-.1 0-.1-.1 0-.6 0-.8.2-1.2.2-.4.4-.5 1.1-1.1.5-.4.6-.6.6-1s-.2-.6-.6-.6c-.3 0-.5.2-.7.6 0 .1-.1.1-.1.1h-.1l-.4-.2c-.1 0-.1-.1-.1-.1 0-.2.2-.5.4-.7.3-.3.6-.5 1.1-.5.8 0 1.3.5 1.3 1.3.1.5 0 .9-.3 1.2zm3.9 1.9c-.3.4-.7.6-1.2.6-1.1 0-1.6-.9-1.6-2.4 0-.9.2-1.6.5-2 .3-.3.7-.5 1.2-.5.4 0 .8.2 1.1.5.4.4.5 1 .5 1.9 0 1-.2 1.5-.5 1.9zm-.6-3.2c-.1-.2-.3-.4-.6-.4-.5 0-.8.5-.8 1.7s.2 1.7.8 1.7c.3 0 .5-.1.6-.4.1-.2.1-.5.1-1.2.1-.8 0-1.1-.1-1.4zm4.3 3.5c0 .1 0 .1-.1.1h-2.1c-.1 0-.1 0-.1-.1v-.4c0-.1 0-.1.1-.1h.7v-2.9l-.7.4h-.1l-.1-.1-.2-.3v-.1l.1-.1 1.3-.9h.5c.1 0 .1 0 .1.1v3.9h.5c.1 0 .1 0 .1.1v.4zm3.8-.9c0 .1 0 .1-.1.1h-.4v.9c0 .1 0 .1-.1.1h-.6c-.1 0-.1 0-.1-.1v-.9h-1.7c-.1 0-.1 0-.1-.1v-.7l1.7-2.9c0-.1.1-.1.1-.1h.1l.4.2c.1 0 .1.1.1.1v.1l-1.6 2.8h1.1l.1-1.1c0-.1 0-.1.1-.1h.5c.1 0 .1 0 .1.1v1.1h.4c.1 0 .1 0 .1.2v.3zm2 .4l-.8 1.6c0 .1-.1.1-.1.1h-.1l-.3-.1c-.1 0-.1 0-.1-.1v-.1l.4-1.4c0-.1.1-.1.2-.1h.7c.1-.1.2-.1.1.1.1-.1.1-.1 0 0zm3.9.7v.3c0 .1 0 .1-.1.1h-.1c-.1 0-.1 0-.1-.1v-.3c-.6 0-1.2-.2-1.2-.4v-.1l.2-.6s0-.1.1-.1c0 0 .1 0 .1.1.3.2.6.2.8.3V118c-.5-.2-.7-.3-.8-.4-.3-.2-.4-.5-.4-.9 0-.7.4-1.2 1.2-1.3v-.4c0-.1 0-.1.1-.1h.1c.1 0 .1 0 .1.1v.3c.5 0 1.1.2 1.1.4v.1l-.2.5s0 .1-.1.1l-.1-.1c-.2-.1-.4-.2-.7-.2v1.3c.5.2.7.4.9.5.2.2.3.5.3.9.1.8-.4 1.3-1.2 1.4zm-.4-4.1c-.3.1-.5.3-.5.6s.1.5.5.6v-1.2zm.4 2.1v1.3c.3-.1.5-.3.5-.6s-.2-.5-.5-.7zm3.3-2.9l-.8 1.6c0 .1-.1.1-.1.1h-.1l-.3-.1c-.1 0-.1 0-.1-.1v-.1l.4-1.4c0-.1.1-.1.2-.1h.7c.1 0 .1 0 .1.1zm3.4 4.4c-.3.4-.7.6-1.2.6-1.1 0-1.6-.9-1.6-2.4 0-.9.2-1.6.5-2 .3-.3.7-.5 1.2-.5.4 0 .8.2 1.1.5.4.4.5 1 .5 1.9 0 1-.2 1.5-.5 1.9zm-.6-3.2c-.1-.2-.3-.4-.6-.4-.5 0-.8.5-.8 1.7s.2 1.7.8 1.7c.3 0 .5-.1.6-.4.1-.2.1-.5.1-1.2.1-.8 0-1.1-.1-1.4zm4.4 3.2c-.3.4-.7.6-1.2.6-1.1 0-1.6-.9-1.6-2.4 0-.9.2-1.6.5-2 .3-.3.7-.5 1.2-.5.4 0 .8.2 1.1.5.4.4.5 1 .5 1.9-.1 1-.2 1.5-.5 1.9zm-.6-3.2c-.1-.2-.3-.4-.6-.4-.5 0-.8.5-.8 1.7s.2 1.7.8 1.7c.3 0 .5-.1.6-.4.1-.2.1-.5.1-1.2 0-.8 0-1.1-.1-1.4zm4.3 3.2c-.3.4-.7.6-1.2.6-1.1 0-1.6-.9-1.6-2.4 0-.9.2-1.6.5-2 .3-.3.7-.5 1.2-.5.4 0 .8.2 1.1.5.4.4.5 1 .5 1.9 0 1-.1 1.5-.5 1.9zm-.6-3.2c-.1-.2-.3-.4-.6-.4-.5 0-.8.5-.8 1.7s.2 1.7.8 1.7c.3 0 .5-.1.6-.4.1-.2.1-.5.1-1.2.1-.8 0-1.1-.1-1.4z"/><path fill="#878787" fill-rule="evenodd" d="M0 220.9h159.9v16.8H0z" clip-rule="evenodd"/><path fill="#3CB6AB" d="M15.7 10.4l-.3.7c0 .1-.1.1-.2.1h-2l-.4 1.8h1.7c.1 0 .1 0 .1.1v.1l-.1.8c0 .1 0 .2-.2.2h-1.8l-.6 3c0 .1 0 .1-.2.1h-1c-.1 0-.1 0-.1-.1v-.1l1.4-6.8c0-.1 0-.1.2-.1h3.4c.1 0 .1 0 .1.1v.1zm2.7 1.8l-.4 1.1s0 .1-.1.1h-.1c-.1 0-.2-.1-.3-.1-.6 0-1.1.7-1.3 1.8l-.4 2.1c0 .1 0 .1-.1.1h-.9c-.1 0-.1 0-.1-.1v-.1l.6-3.1c.1-.5.1-.7.1-.9v-.5c0-.1 0-.1.1-.1l.8-.4h.1c.1 0 .2.4.2.9v.3c.2-.4.4-.6.5-.7.2-.3.6-.4.9-.4.3-.2.5-.1.4 0 .1 0 .1 0 0 0zm4.4.2l-.7 3.3c-.1.3-.1.5-.1.7 0 .2 0 .3.1.5v.1s0 .1-.1.1l-.8.3h-.1c-.1 0-.2-.4-.2-1-.5.6-1 1-1.6 1-.7 0-1.1-.6-1.1-1.7 0-2.1 1.1-3.8 2.4-3.8.5 0 .8.2 1.1.6l.1-.3c0-.1.1-.1.1-.1h.8c.1 0 .1 0 .1.1v.2zm-1.4.9c-.3-.3-.5-.4-.7-.4-.3 0-.6.2-.8.6-.3.5-.5 1.7-.5 2.3 0 .4.1.6.4.6.3 0 .7-.2.9-.6.1-.2.3-.5.3-.9l.4-1.6zm6.3.6l-.7 3.3c0 .1 0 .1-.1.1H26c-.1 0-.1 0-.1-.1v-.1l.6-3c.1-.3.1-.6.1-.7 0-.2-.1-.3-.3-.3-.6 0-1.1.7-1.4 2l-.4 2.1c0 .1 0 .1-.1.1h-.9c-.1 0-.1 0-.1-.1v-.1l.7-3.3c.1-.3.1-.6.1-.8v-.6c0-.1 0-.1.1-.1l.8-.3h.1c.1 0 .2.4.2.8v.3c.5-.7 1-1.1 1.6-1.1.6 0 1 .4 1 1.1-.2.2-.3.4-.3.8zm4.7-1.4l-.4.7c0 .1-.1.1-.1.1h-.1c-.2-.3-.4-.3-.7-.3-.4 0-.7.2-.9.4-.4.5-.6 1.3-.6 2.1 0 .6.2.8.7.8.2 0 .4-.1.7-.2.1-.1.1-.1.2-.1l.1.1.2.7v.1c0 .2-.8.5-1.4.5-1.2 0-1.8-.8-1.8-2 0-1.1.4-2.2 1.1-2.9.4-.4 1-.6 1.7-.6.5 0 .8.1 1.2.3.1.2.2.2.1.3.1 0 .1 0 0 0zm2.6 2.7c-.4.1-.8.1-1.5.1v.2c0 .6.3.9.9.9.3 0 .6-.1 1.1-.4.1 0 .1-.1.2-.1s.1 0 .1.1l.2.7v.1s0 .1-.2.1c-.5.3-1.1.5-1.8.5-1.1 0-1.7-.7-1.7-1.9 0-1 .4-2.1 1-2.8.5-.5 1.2-.8 1.8-.8.9 0 1.5.5 1.5 1.4.1.9-.5 1.6-1.6 1.9zm0-2.3c-.3 0-.7.2-1 .6-.1.2-.2.5-.3.9.6 0 1-.1 1.3-.2.3-.2.5-.4.5-.8 0-.3-.2-.5-.5-.5zm8.6-.5l-.7 3.3c-.1.3-.1.5-.1.7 0 .2 0 .3.1.5v.1s0 .1-.1.1l-.8.4h-.1c-.1 0-.2-.4-.2-1-.5.6-1 1-1.6 1-.7 0-1.1-.6-1.1-1.7 0-2.1 1.1-3.8 2.4-3.8.5 0 .8.2 1.1.6l.1-.3c0-.1.1-.1.1-.1h.8c.1 0 .1 0 .1.1v.1zm-1.4.9c-.3-.3-.5-.4-.7-.4-.3 0-.6.2-.8.6-.3.5-.5 1.7-.5 2.3 0 .4.1.6.4.6.3 0 .7-.2.9-.6.1-.2.3-.5.3-.9l.4-1.6zm6.3.6l-.7 3.3c0 .1 0 .1-.1.1h-.9c-.1 0-.1 0-.1-.1v-.1l.6-3c.1-.3.1-.6.1-.7 0-.2-.1-.3-.3-.3-.6 0-1.1.7-1.4 2l-.4 2.1c0 .1 0 .1-.1.1h-.9c-.1 0-.1 0-.1-.1v-.1l.7-3.3c.1-.3.1-.6.1-.8v-.6c0-.1 0-.1.1-.1l.8-.3h.1c.1 0 .2.4.2.8v.3c.5-.7 1-1.1 1.6-1.1.6 0 1 .4 1 1.1-.2.2-.2.4-.3.8zm5.8-4l-1.2 5.9c0 .2-.1.3-.1.5s0 .3.1.6v.1s0 .1-.1.1l-.8.3h-.1c-.1 0-.2-.4-.2-1-.5.7-.9 1-1.6 1-.7 0-1.1-.5-1.1-1.6s.3-2.2.8-3c.5-.7 1-1 1.7-1 .4 0 .6.1.9.3L53 10c0-.1 0-.1.2-.2l.9-.2h.1c.1 0 .1 0 .1.1v.2zm-1.8 3.2c-.2-.1-.4-.2-.6-.2-.4 0-.7.2-.9.7-.2.5-.4 1.5-.4 2.1 0 .5.2.7.5.7.5 0 1-.6 1.2-1.6l.2-1.7zm8.4 4.1c0 .1 0 .1-.2.1h-1c-.1 0-.2 0-.2-.2l-.1-1.7h-1.7l-.7 1.8c0 .1-.1.1-.2.1h-1c-.1 0-.2 0-.2-.1v-.1l3.3-6.8c0-.1.1-.1.2-.1h1c.1 0 .2 0 .2.2l.6 6.8zm-1.5-2.7l-.1-1.8v-1c-.2.5-.3.7-.4 1l-.8 1.8h1.3zm9.1-.6l-.7 3.3c0 .1 0 .1-.1.1h-.9c-.1 0-.1 0-.1-.1v-.1l.6-3c0-.2.1-.6.1-.7 0-.2-.1-.4-.3-.4-.6 0-1.1.7-1.3 2l-.4 2.1c0 .1 0 .1-.1.1h-.9c-.1 0-.1 0-.1-.1V17l.6-3c0-.2.1-.6.1-.7 0-.2-.1-.3-.3-.3-.6 0-1.1.7-1.4 2l-.4 2.1c0 .1 0 .1-.1.1h-.9c-.1 0-.1 0-.1-.1V17l.7-3.3c0-.2.1-.7.1-.8v-.6c0-.1 0-.1.1-.1l.8-.3h.1c.1 0 .2.4.2.8v.3c.6-.8 1.1-1.1 1.6-1.1s.9.4.9.9v.2c.6-.8 1-1.1 1.6-1.1.6 0 1 .4 1 1.1-.3.3-.4.6-.4.9zm3.3 1.3c-.4.1-.8.1-1.5.1v.2c0 .6.3.9.9.9.3 0 .6-.1 1.1-.4.1 0 .1-.1.2-.1s.1 0 .1.1l.2.7v.1s0 .1-.2.1c-.5.3-1.1.5-1.8.5-1.1 0-1.7-.7-1.7-1.9 0-1 .4-2.1 1-2.8.5-.5 1.2-.8 1.8-.8.9 0 1.5.5 1.5 1.4 0 .9-.6 1.6-1.6 1.9zm0-2.3c-.3 0-.7.2-1 .6-.1.2-.2.5-.3.9.6 0 1-.1 1.3-.2.3-.2.5-.4.5-.8 0-.3-.2-.5-.5-.5zm5.7-.7l-.5 1.1s0 .1-.1.1h-.1c-.1 0-.2-.1-.3-.1-.6 0-1.1.7-1.3 1.8l-.4 2.1c0 .1 0 .1-.1.1h-.9c-.1 0-.1 0-.1-.1v-.1l.6-3.1c.1-.5.1-.7.1-.9v-.5c0-.1 0-.1.1-.1l.8-.4h.1c.1 0 .2.4.2.9v.3c.2-.4.4-.6.5-.7.2-.3.6-.4.9-.4.3-.2.5-.1.5 0zm2.4.2l-1 4.9c0 .1 0 .1-.1.1h-.9c-.1 0-.1 0-.1-.1v-.1l.8-4.1h-.8c-.1 0-.1 0-.1-.1v-.1l.1-.6c0-.1 0-.1.1-.1h1.8c.1 0 .1 0 .1.1l.1.1zm-.3-1c-.5 0-.8-.4-.8-.9s.4-.9.8-.9.8.4.8.9-.4.9-.8.9zm4.8 1.1l-.4.7c0 .1-.1.1-.1.1h-.1c-.3-.3-.5-.3-.8-.3-.4 0-.7.2-.9.4-.4.5-.6 1.3-.6 2.1 0 .6.2.8.7.8.2 0 .4-.1.7-.2.1-.1.1-.1.2-.1l.1.1.2.7v.1c0 .2-.8.5-1.4.5-1.2 0-1.8-.8-1.8-2 0-1.1.4-2.2 1.1-2.9.4-.4 1-.6 1.7-.6.5 0 .8.1 1.2.3.2.2.2.2.2.3zm4.5-.1l-.7 3.3c-.1.3-.1.5-.1.7 0 .2 0 .3.1.5v.1s0 .1-.1.1l-.8.3h-.1c-.1 0-.2-.4-.2-1-.5.6-1 1-1.6 1-.7 0-1.1-.6-1.1-1.7 0-2.1 1.1-3.8 2.4-3.8.5 0 .8.2 1.1.6l.1-.3c0-.1.1-.1.1-.1h.8c.1 0 .1 0 .1.1.1.1.1.1 0 .2zm-1.3.9c-.3-.3-.5-.4-.7-.4-.3 0-.6.2-.8.6-.3.5-.5 1.7-.5 2.3 0 .4.2.6.4.6.3 0 .7-.2.9-.6.1-.2.3-.5.3-.9l.4-1.6zm7.3-.7l-.2.5c0 .1-.1.1-.1.1s-.1 0-.1-.1c-.2-.1-.6-.2-.8-.2-.4 0-.7.3-.7.6 0 .1 0 .3.1.4.1.1.1.1.6.3.8.4 1 .7 1 1.4 0 1.1-.7 1.9-1.9 1.9-.5 0-.9-.1-1.5-.3-.2-.1-.3-.1-.3-.2v-.1l.2-.7c0-.1 0-.1.1-.1s0 0 .4.2c.3.1.6.2.8.2.5 0 .8-.3.8-.7 0-.3-.1-.4-.6-.6-1-.5-1.2-.7-1.2-1.4 0-1.1.8-1.8 1.9-1.8.6 0 1.3.2 1.3.5.2-.1.2-.1.2.1zm6.9-.2l-2.3 4.9c0 .1-.1.1-.2.1h-.9c-.1 0-.1 0-.1-.2l.1-2.8c0-.3 0-.6.1-1-.1.3-.2.7-.3 1L97 17.3c0 .1-.1.1-.2.1H96c-.1 0-.1 0-.1-.1l-.3-4.9v-.1c0-.1 0-.1.1-.1l.8-.1h.1c.1 0 .1 0 .1.1V16c.1-.4.2-.7.4-1.1l1.1-2.7c0-.1 0-.1.1-.1h.9c.1 0 .1 0 .1.1v2.6c0 .6 0 1-.1 1.3.1-.4.2-.6.5-1.3l1.1-2.6c0-.1 0-.1.1-.1h.1l.8.1c.1 0 .1 0 .1.1 0 0 0 .1-.1.1zm4.4 0l-.7 3.3c-.1.3-.1.5-.1.7 0 .2 0 .3.1.5v.1s0 .1-.1.1l-.8.3h-.1c-.1 0-.2-.4-.2-1-.5.6-1 1-1.6 1-.7 0-1.1-.6-1.1-1.7 0-2.1 1.1-3.8 2.4-3.8.5 0 .8.2 1.1.6l.1-.3c0-.1.1-.1.1-.1h.8c.1 0 .1 0 .1.1v.2zm-1.4.9c-.3-.3-.5-.4-.7-.4-.3 0-.6.2-.8.6-.3.5-.5 1.7-.5 2.3 0 .4.2.6.4.6.3 0 .7-.2.9-.6.1-.2.3-.5.3-.9l.4-1.6zm5.5 3.3c-.5.6-1 .9-1.6.9-.4 0-.6-.1-.9-.3l-.4 1.9c0 .1 0 .1-.2.2l-.9.2h-.1s-.1 0-.1-.1v-.1l1.1-5.7c0-.2.1-.4.1-.5v-.6c0-.1 0-.1.1-.1l.8-.3h.1c.1 0 .2.4.2.8v.1c.5-.7.9-1 1.5-1 .8 0 1.2.5 1.2 1.5 0 1.1-.4 2.4-.9 3.1zm-.7-3.6c-.6 0-1 .6-1.2 1.6l-.3 1.7c.2.1.4.2.6.2.5 0 .8-.2 1-.8.2-.5.4-1.5.4-2.1-.1-.3-.3-.6-.5-.6zm5.8 3.6c-.5.6-1 .9-1.6.9-.4 0-.6-.1-.9-.3l-.4 1.9c0 .1 0 .1-.2.2l-.9.2h-.1s-.1 0-.1-.1v-.1l1.1-5.7c0-.2.1-.4.1-.5v-.6c0-.1 0-.1.1-.1l.8-.3h.1c.1 0 .2.4.2.8v.1c.5-.7.9-1 1.5-1 .8 0 1.2.5 1.2 1.5.1 1.1-.3 2.4-.9 3.1zm-.7-3.6c-.6 0-1 .6-1.2 1.6l-.3 1.7c.2.1.4.2.6.2.5 0 .8-.2 1-.8.2-.5.4-1.5.4-2.1 0-.3-.2-.6-.5-.6zm4.9 2.2c-.4.1-.8.1-1.5.1v.2c0 .6.3.9.9.9.3 0 .6-.1 1.1-.4.1 0 .1-.1.2-.1s.1 0 .1.1l.2.7v.1s0 .1-.2.1c-.5.3-1.1.5-1.8.5-1.1 0-1.7-.7-1.7-1.9 0-1 .4-2.1 1-2.8.5-.5 1.2-.8 1.8-.8.9 0 1.5.5 1.5 1.4 0 .9-.6 1.6-1.6 1.9zm-.1-2.3c-.3 0-.7.2-1 .6-.2.2-.2.5-.3.9.6 0 1-.1 1.3-.2.3-.2.5-.4.5-.8 0-.3-.2-.5-.5-.5zm7.1-3l-1.2 5.9c0 .2-.1.3-.1.5s0 .3.1.6v.1s0 .1-.1.1l-.8.3h-.1c-.1 0-.2-.4-.2-1-.5.7-.9 1-1.6 1-.7 0-1.1-.5-1.1-1.6s.3-2.2.8-3c.5-.7 1-1 1.7-1 .4 0 .6.1.9.3l.4-2.1c0-.1 0-.1.2-.2l.9-.2h.1c.1 0 .1 0 .1.1v.2zm-1.9 3.2c-.2-.1-.4-.2-.6-.2-.4 0-.7.2-.9.7-.2.5-.4 1.5-.4 2.1 0 .5.2.7.5.7.5 0 1-.6 1.2-1.6l.2-1.7zM17.2 23.4l-2.3 4.9c0 .1-.1.1-.2.1h-.9c-.1 0-.1 0-.1-.2l.1-2.8c0-.3 0-.6.1-1-.1.3-.2.7-.3 1l-1.2 2.9c0 .1-.1.1-.2.1h-.8c-.1 0-.1 0-.1-.1l-.3-4.9v-.1c0-.1 0-.1.1-.1l.8-.1h.1c.1 0 .1 0 .1.1V27c.1-.4.2-.7.4-1.1l1.1-2.7c0-.1 0-.1.1-.1h.9c.1 0 .1 0 .1.1v2.6c0 .6 0 1-.1 1.3.1-.4.2-.6.5-1.3l1.1-2.6c0-.1 0-.1.1-.1h.1l.8.1c.1 0 .1 0 .1.1-.1 0-.1.1-.1.1zm3.1 4.3c-.4.5-1.1.8-1.8.8-1.1 0-1.7-.7-1.7-1.8 0-1 .4-2.1 1-2.8.5-.6 1.1-.9 1.9-.9 1 0 1.6.7 1.6 1.9 0 1-.3 2-1 2.8zm-.9-3.7c-.3 0-.6.2-.8.7-.2.5-.5 1.5-.5 2.1 0 .5.2.8.6.8.4 0 .7-.2.9-.7.2-.5.4-1.5.4-2.1.1-.6-.1-.8-.6-.8zm6.2-.8l-.4 1.1s0 .1-.1.1H25c-.1 0-.2-.1-.3-.1-.6 0-1.1.7-1.3 1.8l-.4 2.1c0 .1 0 .1-.1.1H22c-.1 0-.1 0-.1-.1v-.1l.6-3.1c.1-.5.1-.7.1-.9v-.5c0-.1 0-.1.1-.1l.8-.4h.1c.1 0 .2.4.2.9v.3c.2-.4.4-.6.5-.7.2-.3.6-.4.9-.4.2-.2.4-.1.4 0zm4.5.7l-1.9 1.6 1.2 2.2v.1s0 .1-.1.1l-.8.5h-.1s-.1 0-.1-.1l-1.4-2.6-.5 2.4c0 .1 0 .1-.1.1h-.9c-.1 0-.1 0-.1-.1V28l1.4-7c0-.1 0-.1.2-.2l.9-.2h.1c.1 0 .1 0 .1.1v.1l-1 4.4 2.4-2.2.1-.1.1.1.5.6c0 .1.1.1.1.1s-.1.1-.1.2zm2.3-.5l-1 4.9c0 .1 0 .1-.1.1h-.9c-.1 0-.1 0-.1-.1v-.1l.8-4.1h-.8c-.1 0-.1 0-.1-.1v-.1l.1-.6c0-.1 0-.1.1-.1h1.8c.1 0 .1 0 .1.1l.1.1zm-.3-1c-.5 0-.8-.4-.8-.9s.4-.9.8-.9.8.4.8.9-.4.9-.8.9zm5.1 2.5l-.7 3.3c0 .1 0 .1-.1.1h-.9c-.1 0-.1 0-.1-.1v-.1l.6-3c.1-.3.1-.6.1-.7 0-.2-.1-.3-.3-.3-.6 0-1.1.7-1.4 2l-.4 2.1c0 .1 0 .1-.1.1H33c-.1 0-.1 0-.1-.1v-.1l.7-3.3c.1-.3.1-.6.1-.8v-.6c0-.1 0-.1.1-.1l.8-.3h.1c.1 0 .2.4.2.8v.3c.5-.7 1-1.1 1.6-1.1.6 0 1 .4 1 1.1-.2.2-.2.4-.3.8zm5.5-1.2c-.3.4-.4.7-.5 1.2l-.3 1.6c0 .2-.2 1.4-.3 1.7-.2 1.1-.4 1.6-.8 2-.3.3-.9.4-1.5.4-.8 0-1.8-.3-1.8-.5V30l.3-.8c0-.1 0-.1.1-.1 0 0 .1 0 .2.1.4.2.9.4 1.3.4.3 0 .6-.1.8-.3.1-.1.2-.4.3-.8.1-.5.1-.7.2-1-.5.6-.9.9-1.5.9-.8 0-1.2-.7-1.2-1.7s.3-2.1.9-2.8c.4-.6.9-.8 1.4-.8.5 0 .7.1 1.2.6.2-.3.4-.6.5-.6l.1.1.6.3.1.1c0-.1 0-.1-.1.1zm-1.5.6c-.3-.3-.5-.4-.7-.4-.3 0-.5.2-.8.7-.2.5-.4 1.5-.4 2.1 0 .5.2.7.5.7.2 0 .5-.2.8-.4.2-.2.3-.5.4-.9l.2-1.8zm8.3.6l-.7 3.3c0 .1 0 .1-.1.1h-.9c-.1 0-.1 0-.1-.1v-.1l.6-3c.1-.3.1-.6.1-.7 0-.2-.1-.3-.3-.3-.6 0-1.2.7-1.4 2.1l-.4 2.1c0 .1 0 .1-.1.1h-.9c-.1 0-.1 0-.1-.1v-.1l1.4-7c0-.1 0-.1.2-.2l.9-.2h.1c.1 0 .1 0 .1.1v.1l-.4 2.2c-.1.5-.1.5-.2.7.6-.7 1-.9 1.5-.9.7 0 1.1.4 1.1 1.1-.3.2-.3.4-.4.8zm4.1 2.8c-.4.5-1.1.8-1.8.8-1.1 0-1.7-.7-1.7-1.8 0-1 .4-2.1 1-2.8.5-.6 1.1-.9 1.9-.9 1 0 1.6.7 1.6 1.9 0 1-.4 2-1 2.8zm-.9-3.7c-.3 0-.6.2-.8.7-.2.5-.5 1.5-.5 2.1 0 .5.2.8.6.8.4 0 .7-.2.9-.7.2-.5.4-1.5.4-2.1.1-.6-.2-.8-.6-.8zm7.1-.8l-.7 3.4c-.1.5-.1.5-.1.8 0 .2 0 .3.1.6v.1s0 .1-.1.1l-.8.3h-.1c-.1 0-.2-.3-.2-.8v-.3c-.5.7-1 1.1-1.7 1.1-.6 0-1-.4-1-1.1 0-.2 0-.5.1-.8l.7-3.2c0-.1 0-.1.2-.2l.9-.2h.1c.1 0 .1 0 .1.1v.1l-.7 3c-.1.3-.1.5-.1.6 0 .3.2.4.4.4.6 0 1.1-.7 1.3-2l.4-1.9c0-.1 0-.1.2-.2l.9-.2h.1c.1 0 .1 0 .1.1l-.1.2zm4.2 0l-.4 1.1s0 .1-.1.1h-.1c-.1 0-.2-.1-.3-.1-.6 0-1.1.7-1.3 1.8l-.4 2.1c0 .1 0 .1-.1.1h-.9c-.1 0-.1 0-.1-.1v-.1l.6-3.1c.1-.5.1-.7.1-1v-.5c0-.1 0-.1.1-.1l.8-.4h.1c.1 0 .2.4.2.9v.3c.2-.4.4-.6.5-.7.2-.3.6-.4.9-.4.2-.1.4 0 .4.1zm3.2.4l-.2.5c0 .1-.1.1-.1.1s-.1 0-.1-.1c-.2-.1-.6-.2-.8-.2-.4 0-.7.3-.7.6 0 .1.1.3.2.4.1.1.1.1.6.3.8.4 1 .7 1 1.4 0 1.1-.7 1.9-1.9 1.9-.5 0-.9-.1-1.5-.3-.2-.1-.2-.1-.2-.2v-.1l.2-.7c0-.1 0-.1.1-.1s0 0 .4.2c.3.1.6.2.8.2.5 0 .8-.3.8-.7 0-.3-.1-.4-.6-.6-1-.5-1.2-.7-1.2-1.4 0-1.1.8-1.8 1.9-1.8.6 0 1.3.2 1.3.5.1-.1.1-.1 0 .1zm1.9 4.9c-.4 0-.8-.4-.8-.8 0-.5.4-.8.8-.8s.8.4.8.8-.4.8-.8.8zm1.1-3.7l-.2.8c0 .1 0 .1-.2.1H69c-.1 0-.1 0-.1-.1v-.2l.2-1.3c0-.1.1-.2.2-.2.7-.2.9-.3 1.2-.5.2-.2.3-.4.3-.7 0-.4-.2-.6-.7-.6-.3 0-.5 0-1.1.3h-.2l-.1-.1-.3-.7v-.1c0-.1.1-.1.2-.2.6-.3 1.2-.4 1.7-.4 1 0 1.7.6 1.7 1.6.2 1.2-.6 2.1-1.8 2.3z"/><path fill="#FFF" d="M11 235.5c-.5 0-1.2-.2-1.2-.4v-.1l.1-.3h.1c.3.2.7.3 1 .3.5 0 .8-.3.8-.7 0-.4-.2-.6-.8-1-.6-.3-.7-.4-.8-.6-.2-.2-.3-.5-.3-.7 0-.7.5-1.2 1.3-1.2.4 0 1.1.2 1.1.4v.1l-.1.3h-.1l-.3-.1c-.2-.1-.4-.1-.6-.1-.5 0-.7.2-.7.6 0 .2.1.4.3.6.1.1.1.1.8.5.4.2.5.3.6.5.1.2.2.4.2.7 0 .7-.6 1.2-1.4 1.2zm3.3 0c-.8 0-1.3-.6-1.3-1.7s.5-1.7 1.3-1.7 1.3.6 1.3 1.6c0 1.1-.5 1.8-1.3 1.8zm0-3c-.5 0-.8.4-.8 1.2 0 .4.1.8.2 1 .1.2.3.3.6.3.2 0 .5-.1.6-.3.1-.2.2-.6.2-1 0-.7-.3-1.2-.8-1.2zm4.6 2.8l-.3.2c-.1 0-.2-.2-.2-.4-.4.3-.6.4-1 .4-.6 0-.9-.3-.9-.9v-2.3s0-.1.1-.1l.3-.1v2.1c0 .6.1.8.5.8.3 0 .6-.1.8-.3v-2.4s0-.1.1-.1l.3-.1v2.4c.1.3.1.5.3.8 0-.1 0-.1 0 0 0-.1 0-.1 0 0zm2.5-3l-.2.4H21c-.2 0-.3.1-.6.5v2.2c0 .1 0 .1-.1.1H20c-.1 0-.1 0-.1-.1v-2c0-.5 0-.6-.2-.9v-.2l.3-.2h.1c.1 0 .2.3.2.5.4-.5.5-.5.8-.5.1 0 .3.1.3.2zm2.6.3l-.1.3h-.2c-.3-.2-.5-.3-.7-.3-.5 0-.8.4-.8 1.2 0 .8.2 1.2.7 1.2.3 0 .4-.1.8-.3l.1.2v.1s0 .1-.1.1c-.3.2-.6.3-.9.3-.8 0-1.2-.6-1.2-1.6 0-1.1.5-1.7 1.3-1.7.3 0 .6.1.8.3.2.1.3.1.3.2zm2.8 1.3h-1.9c0 .7.3 1.1.9 1.1.2 0 .5-.1.8-.2h.1l.1.3c0 .1-.1.1-.2.2-.3.1-.5.2-.8.2-.8 0-1.4-.6-1.4-1.7 0-1 .5-1.7 1.3-1.7.5 0 .9.3 1.1.8.1.2.1.5.1.9 0 .1 0 .1-.1.1zm-.5-.4c0-.6-.3-1-.7-1-.4 0-.7.3-.7 1h1.4zm1.8-.3c-.3 0-.5-.2-.5-.5s.2-.5.5-.5c.2 0 .5.2.5.5s-.3.5-.5.5zm0 2.3c-.3 0-.5-.2-.5-.5s.2-.5.5-.5c.2 0 .5.2.5.5-.1.3-.3.5-.5.5zm4.1 0c-.9 0-1.4-.8-1.4-2.3 0-1.6.5-2.4 1.5-2.4.9 0 1.4.8 1.4 2.3 0 1.6-.6 2.4-1.5 2.4zm.6-3.9c-.1-.3-.3-.4-.6-.4s-.6.2-.7.4c-.2.3-.2.8-.2 1.5s.1 1.2.3 1.5c.1.3.3.4.6.4s.6-.2.7-.4c.1-.3.2-.8.2-1.5 0-.6-.1-1.2-.3-1.5zm4-.6l-.1.3-.1.1h-1.5v1.5h1.3c.1 0 .1 0 .1.1v.3c0 .1 0 .1-.1.1h-1.3v1.7h1.6c.1 0 .1 0 .1.1v.3c0 .1 0 .1-.1.1h-2c-.1 0-.1 0-.1-.1V231c0-.1 0-.1.1-.1h2c.1 0 .2 0 .1.1.1-.1.1-.1 0 0zm3 4.2c-.2.2-.6.3-.9.3-1 0-1.5-.8-1.5-2.4 0-.8.1-1.3.4-1.7.2-.3.6-.6 1.1-.6.3 0 .7.1 1 .4l.1.1v.1l-.2.2h-.1l-.2-.2c-.2-.2-.4-.2-.6-.2-.6 0-.9.5-.9 1.8s.3 2 .9 2c.2 0 .5-.1.7-.3h.2l.2.2v.1c-.1 0-.1.1-.2.2zm1.8.2h-.7c-.1 0-.1 0-.1-.1V231c0-.1 0-.1.1-.1h.7c.6 0 .9.1 1.2.3.5.3.7 1 .7 1.9-.1 1.5-.7 2.3-1.9 2.3zm.7-3.9c-.2-.1-.4-.1-.7-.1h-.3v3.6h.3c.5 0 .7-.1.9-.4.2-.3.3-.8.3-1.5 0-.9-.2-1.4-.5-1.6zm37.5-6.9l-.7.2.5.6v.1l-.1.1-.2.2h-.1l-.1-.1-.4-.7-.4.7s0 .1-.1.1h-.1l-.2-.2s-.1 0-.1-.1v-.1l.5-.6-.7-.2c-.1 0-.1 0-.1-.1v-.1l.1-.3c0-.1 0-.1.1-.1h.1l.7.3-.1-.8s0-.1.1-.1h.3c.1 0 .1 0 .1.1l-.1.8.7-.3.1.1.1.3c.1.1.1.1.1.2zm3.9 3.5h-.4c-.1 0-.1 0-.1-.1l-.4-1.3h-1.3l-.4 1.3s0 .1-.1.1h-.5v-.1l1.3-4.3c0-.1 0-.1.1-.1h.4c.1 0 .1 0 .1.1l1.3 4.3c.1 0 .1 0 0 .1.1 0 0 0 0 0zm-1-1.8l-.4-1.4c-.1-.2-.1-.4-.2-.6 0 .2-.1.4-.2.6l-.4 1.4h1.2zm2.5 1.9c-.3 0-.6-.1-.7-.4-.1-.1-.1-.2-.1-.6v-1.8H84c-.1 0-.1 0-.1-.1v-.3c0-.1 0-.1.1-.1h.5v-.9s0-.1.1-.1l.3-.1v1.1H86l-.1.3s0 .1-.1.1h-.9v1.8c0 .3 0 .3.1.4.1.1.2.1.3.1.2 0 .3 0 .6-.2l.1.3c.1.3-.4.5-.8.5zm4 0c-.3 0-.5-.1-.8-.3v1.4s0 .1-.1.1l-.3.1v-3.7c0-.3 0-.5-.1-.6l-.1-.1.3-.2h.1c.1 0 .2.2.2.4.4-.3.6-.4.9-.4.4 0 .6.2.8.5.1.3.2.7.2 1.1 0 1-.4 1.7-1.1 1.7zm.5-2.6c-.1-.2-.3-.3-.5-.3s-.4.1-.8.3v1.9c.3.2.5.3.7.3.4 0 .6-.4.6-1.3.1-.4 0-.7 0-.9zm3.9 2.4l-.3.2c-.1 0-.2-.2-.2-.4-.4.3-.6.4-1 .4-.6 0-.9-.3-.9-.9V225s0-.1.1-.1l.3-.1v2.1c0 .6.1.8.5.8.3 0 .6-.1.8-.3V225s0-.1.1-.1l.3-.1v2.4c.1.4.2.5.3.8 0-.1 0-.1 0 0zm2.5-3l-.2.4h-.2c-.2 0-.3.1-.6.5v2.2c0 .1 0 .1-.1.1h-.3c-.1 0-.1 0-.1-.1v-2c0-.5 0-.6-.2-.9v-.2l.3-.2h.1c.1 0 .2.3.2.5.4-.5.5-.5.8-.5.1.1.3.1.3.2zm2.6.3l-.1.3h-.2c-.3-.2-.5-.3-.7-.3-.5 0-.8.4-.8 1.2 0 .8.2 1.2.7 1.2.3 0 .4-.1.8-.3l.1.2v.1s0 .1-.1.1c-.3.2-.6.3-.9.3-.8 0-1.2-.6-1.2-1.6 0-1.1.5-1.7 1.3-1.7.3 0 .6.1.8.3.2.1.3.1.3.2zm2.9 2.7c0 .1 0 .1 0 0l-.4.1c-.1 0-.1 0-.1-.1v-2.2c0-.4-.1-.6-.5-.6-.3 0-.5.1-.9.4v2.3c0 .1 0 .1-.1.1h-.3c-.1 0-.1 0-.1-.1v-4.5s0-.1.1-.1l.3-.1v2c.4-.3.6-.4 1-.4.3 0 .5.1.6.3.1.2.2.3.2.7v2.2zm3.2 0l-.3.2h-.1c-.1 0-.2-.2-.2-.4-.3.3-.6.4-.9.4-.5 0-.9-.3-.9-.9 0-.7.6-1.1 1.7-1.1v-.2c0-.4-.2-.6-.6-.6-.3 0-.4 0-.8.2l-.1-.3v-.1s0-.1.2-.1c.3-.1.6-.2.9-.2.7 0 1 .3 1 .9v1.2c-.1.5 0 .6.1 1 0-.1 0-.1 0 0 0-.1 0 0 0 0zm-.7-1.5c-.8 0-1.2.2-1.2.7 0 .3.2.5.5.5.2 0 .5-.1.7-.4v-.8zm2.3 1.7c-.3 0-.7-.1-1-.3v-.1l.1-.3h.1c.3.1.6.2.8.2.3 0 .5-.2.5-.5 0-.2-.1-.4-.4-.5-.4-.2-.6-.3-.7-.4-.2-.2-.3-.4-.3-.6 0-.5.4-.9 1-.9.3 0 .8.2.8.3l-.1.2h-.2c-.2-.1-.4-.2-.6-.2-.3 0-.5.2-.5.4 0 .1 0 .2.1.3.1.1.1.1.7.4.5.2.7.5.7.8.1.8-.3 1.2-1 1.2zm2.5-.2c0 .1 0 .1 0 0l-.4.1c-.1 0-.1 0-.1-.1v-2.7h-.5c-.1 0-.1 0-.1-.1v-.2c0-.1 0-.1.1-.1h.9c.1 0 .1 0 .1.1v3zm-.3-3.8c-.2 0-.4-.2-.4-.4s.2-.4.4-.4.4.2.4.4-.2.4-.4.4zm3.7 3.8c0 .1 0 .1 0 0l-.4.1c-.1 0-.1 0-.1-.1v-2.2c0-.4-.1-.5-.4-.5-.3 0-.5.1-.9.4v2.3c0 .1 0 .1-.1.1h-.3c-.1 0-.1 0-.1-.1v-2.2c0-.3 0-.4-.1-.6l.3-.2h.1c.1 0 .2.2.2.4.4-.3.7-.4 1.1-.4.3 0 .6.1.7.3.1.2.1.3.1.7v2zm3.5-2.8c-.1.2-.2.4-.2.7v2.5c0 .8-.4 1.2-1.2 1.2-.3 0-.7-.1-1-.2l-.1-.1.1-.3h.1c.3.1.6.2.9.2.3 0 .5-.1.6-.2.1-.1.1-.2.1-.5v-.7c-.3.2-.6.4-.9.4-.6 0-1-.6-1-1.5 0-1.1.4-1.7 1.2-1.7.3 0 .5.1.8.3.1-.2.1-.3.2-.3h.1l.3.2c0-.2 0-.2 0 0 0-.1 0-.1 0 0zm-.7.3c-.3-.1-.4-.2-.6-.2-.5 0-.7.4-.7 1.1 0 .8.2 1.1.6 1.1.2 0 .5-.1.8-.3v-1.7zm3.1 1.1c0 .1 0 .1 0 0l-1.7.1c-.1 0-.1 0-.1-.1v-.3c0-.1 0-.1.1-.1h1.6c.1 0 .1 0 .1.1v.3zm2.1 1.6c-.3 0-.5-.1-.8-.3v1.4s0 .1-.1.1l-.3.1v-3.7c0-.3 0-.5-.1-.6l-.1-.1.3-.2h.1c.1 0 .2.2.2.4.4-.3.6-.4.9-.4.4 0 .6.2.8.5.1.3.2.7.2 1.1 0 1-.4 1.7-1.1 1.7zm.5-2.6c-.1-.2-.3-.3-.5-.3s-.4.1-.8.3v1.9c.3.2.5.3.7.3.4 0 .6-.4.6-1.3.1-.4 0-.7 0-.9zm2.5 2.6c-.8 0-1.3-.6-1.3-1.7s.5-1.7 1.3-1.7 1.3.6 1.3 1.6c.1 1.2-.4 1.8-1.3 1.8zm.1-2.9c-.5 0-.8.4-.8 1.2 0 .4.1.8.2 1 .1.2.3.3.6.3.2 0 .5-.1.6-.3.1-.2.2-.6.2-1-.1-.8-.3-1.2-.8-1.2zm5.5-.3l-.9 3c0 .1 0 .1-.1.1h-.3c-.1 0-.1 0-.1-.1l-.5-2c0-.1 0-.2-.1-.3v-.2c0 .2 0 .3-.1.5l-.6 2c0 .1 0 .1-.1.1h-.1c-.1 0-.1 0-.1-.1l-.8-3 .1-.1.3-.1.1.1.4 2.2v.4c0-.1 0-.1.1-.4l.6-2.1c0-.1 0-.1.1-.1h.3c.1 0 .1 0 .1.1l.5 2.2v.3-.3l.6-2.3s0-.1.1-.1l.5.2zm2.8 1.6h-1.9c0 .7.3 1.1.9 1.1.2 0 .5-.1.8-.2h.1l.1.3c0 .1-.1.1-.2.2-.3.1-.5.2-.8.2-.8 0-1.4-.6-1.4-1.7 0-1 .5-1.7 1.3-1.7.5 0 .9.3 1.1.8.1.2.1.5.1.9 0 .1 0 .1-.1.1zm-.4-.4c0-.6-.3-1-.7-1-.4 0-.7.3-.7 1h1.4zm2.9-1.2l-.2.4h-.2c-.2 0-.3.1-.6.5v2.2c0 .1 0 .1-.1.1h-.3c-.1 0-.1 0-.1-.1v-2c0-.5 0-.6-.2-.9v-.2l.3-.2h.1c.1 0 .2.3.2.5.4-.5.5-.5.8-.5.1.1.3.1.3.2zm3.2 3.2c-.3 0-.5-.1-.8-.3v1.4s0 .1-.1.1l-.3.1v-3.7c0-.3 0-.5-.1-.6l-.1-.1.3-.2h.1c.1 0 .2.2.2.4.4-.3.6-.4.9-.4.4 0 .6.2.8.5.1.3.2.7.2 1.1 0 1-.4 1.7-1.1 1.7zm.5-2.6c-.1-.2-.3-.3-.5-.3s-.4.1-.8.3v1.9c.3.2.5.3.7.3.4 0 .6-.4.6-1.3v-.9zm3.5 2.4l-.3.2h-.1c-.1 0-.2-.2-.2-.4-.3.3-.6.4-.9.4-.5 0-.9-.3-.9-.9 0-.7.6-1.1 1.7-1.1v-.2c0-.4-.2-.6-.6-.6-.3 0-.4 0-.8.2l-.1-.3v-.1s0-.1.2-.1c.3-.1.6-.2.9-.2.7 0 1 .3 1 .9v1.2c0 .5 0 .6.1 1 .1-.1.1-.1 0 0 .1-.1.1 0 0 0zm-.6-1.5c-.8 0-1.2.2-1.2.7 0 .3.2.5.5.5.2 0 .5-.1.7-.4v-.8zm3.2-1.5l-.2.4h-.2c-.2 0-.3.1-.6.5v2.2c0 .1 0 .1-.1.1h-.3c-.1 0-.1 0-.1-.1v-2c0-.5 0-.6-.2-.9v-.2l.3-.2h.1c.1 0 .2.3.2.5.4-.5.5-.5.8-.5.2.1.3.1.3.2zm1.5 3c0 .1 0 .1 0 0l-.4.1c-.1 0-.1 0-.1-.1v-2.7h-.5c-.1 0-.1 0-.1-.1v-.2c0-.1 0-.1.1-.1h.9c.1 0 .1 0 .1.1v3zm-.3-3.8c-.2 0-.4-.2-.4-.4s.2-.4.4-.4.4.2.4.4-.2.4-.4.4zm2.2 4c-.3 0-.6-.1-.7-.4-.1-.1-.1-.2-.1-.6v-1.8h-.5c-.1 0-.1 0-.1-.1v-.3c0-.1 0-.1.1-.1h.5v-.9s0-.1.1-.1l.3-.1v1.1h1.1l-.1.3s0 .1-.1.1h-.9v1.8c0 .3 0 .3.1.4.1.1.2.1.3.1.2 0 .3 0 .6-.2l.1.3c.2.3-.3.5-.7.5zm3.6-3.1l-.7 2.6c-.1.5-.3 1-.4 1.3-.2.4-.4.5-.8.5-.3 0-.8-.2-.8-.3l.1-.3c.2.2.4.2.6.2.2 0 .4-.2.5-.6l.1-.4h-.3c-.1 0-.1 0-.1-.1l-1-2.9.1-.1.4-.1h.1v.1l.8 2.5c.1.2.1.2.1.5 0-.2.1-.3.1-.5l.6-2.5s0-.1.1-.1l.5.2c0-.1 0-.1 0 0zm-82.4 5.5s0 .1 0 0l-.7.1v2.9c0 .1 0 .1-.1.1h-.2c-.1 0-.1 0-.1-.1v-2.9H67c-.1 0-.1 0-.1-.1v-.2c0-.1 0-.1.1-.1h.6v-1.1c0-.1 0-.1.1-.1h.2c.1 0 .1 0 .1.1v1.1h.6c.1 0 .1 0 .1.1v.2zm3.7 4h-.4c-.1 0-.1 0-.1-.1l-.4-1.3h-1.3l-.4 1.3s0 .1-.1.1h-.5v-.1l1.3-4.3c0-.1 0-.1.1-.1h.4c.1 0 .1 0 .1.1l1.3 4.3c.1 0 .1 0 0 .1.1 0 0 0 0 0zm-1-1.8l-.4-1.4c-.1-.2-.1-.4-.2-.6 0 .2-.1.4-.2.6l-.4 1.4h1.2zm2.4 1.9c-.3 0-.7-.1-1-.3v-.1l.1-.3h.1c.3.1.6.2.8.2.3 0 .5-.2.5-.5 0-.2-.1-.4-.4-.5-.4-.2-.6-.3-.7-.4-.2-.2-.3-.4-.3-.6 0-.5.4-.9 1-.9.3 0 .8.2.8.3l-.1.2h-.2c-.2-.1-.4-.2-.6-.2-.3 0-.5.2-.5.4 0 .1 0 .2.1.3.1.1.1.1.7.4.5.2.7.5.7.8.1.8-.3 1.2-1 1.2zm2.6 0c-.3 0-.7-.1-1-.3v-.1l.1-.3h.1c.3.1.6.2.8.2.3 0 .5-.2.5-.5 0-.2-.1-.4-.4-.5-.4-.2-.6-.3-.7-.4-.2-.2-.3-.4-.3-.6 0-.5.4-.9 1-.9.3 0 .8.2.8.3l-.1.2h-.2c-.2-.1-.4-.2-.6-.2-.3 0-.5.2-.5.4 0 .1 0 .2.1.3.1.1.1.1.7.4.5.2.7.5.7.8 0 .8-.4 1.2-1 1.2zm4.2-.2l-.3.2c-.1 0-.2-.2-.2-.4-.4.3-.6.4-1 .4-.6 0-.9-.3-.9-.9v-2.3s0-.1.1-.1l.3-.1v2.1c0 .6.1.8.5.8.3 0 .6-.1.8-.3v-2.4s0-.1.1-.1l.3-.1v2.4c.2.4.2.5.3.8.1-.1.1-.1 0 0 .1 0 .1 0 0 0zm4.6 0c0 .1 0 .1 0 0l-.4.1c-.1 0-.1 0-.1-.1v-2.3c0-.3-.1-.5-.4-.5-.2 0-.4.1-.7.3v2.5c0 .1 0 .1-.1.1h-.3c-.1 0-.1 0-.1-.1v-2.2c0-.3-.1-.5-.4-.5-.2 0-.4.1-.7.3v2.5c0 .1 0 .1-.1.1h-.3c-.1 0-.1 0-.1-.1v-2.4c0-.2 0-.3-.1-.6l.3-.2h.1c.1 0 .1.2.2.4.4-.3.6-.4.9-.4.3 0 .5.1.6.4.4-.3.7-.4 1-.4.3 0 .5.1.6.3.1.1.1.3.1.6v2.2zm1.7 0c0 .1 0 .1 0 0l-.4.1c-.1 0-.1 0-.1-.1v-2.7h-.5c-.1 0-.1 0-.1-.1v-.3c0-.1 0-.1.1-.1h.9c.1 0 .1 0 .1.1v3.1zm-.3-3.8c-.2 0-.4-.2-.4-.4s.2-.4.4-.4.4.2.4.4-.2.4-.4.4zm3.7 3.8c0 .1 0 .1 0 0l-.4.1c-.1 0-.1 0-.1-.1v-2.2c0-.4-.1-.5-.4-.5-.3 0-.5.1-.9.4v2.3c0 .1 0 .1-.1.1H88c-.1 0-.1 0-.1-.1v-2.2c0-.3 0-.4-.1-.6l.3-.2h.1c.1 0 .2.2.2.4.4-.3.7-.4 1.1-.4.3 0 .6.1.7.3.1.2.1.3.1.7v2zm3.4-2.8c-.1.2-.2.4-.2.7v2.5c0 .8-.4 1.2-1.2 1.2-.3 0-.7-.1-1-.2l-.1-.1.1-.3h.1c.3.1.6.2.9.2.3 0 .5-.1.6-.2.1-.1.1-.2.1-.5v-.7c-.3.2-.6.4-.9.4-.6 0-1-.6-1-1.5 0-1.1.4-1.7 1.2-1.7.3 0 .5.1.8.3.1-.2.1-.3.2-.3h.1l.3.2c0-.2.1-.2 0 0 .1-.1 0-.1 0 0zm-.6.3c-.3-.1-.4-.2-.6-.2-.5 0-.7.4-.7 1.1 0 .8.2 1.1.6 1.1.2 0 .5-.1.8-.3V232zm5-.2l-.1.3h-.2c-.3-.2-.5-.3-.7-.3-.5 0-.8.4-.8 1.2 0 .8.2 1.2.7 1.2.3 0 .4-.1.8-.3l.1.2v.1s0 .1-.1.1c-.3.2-.6.3-.9.3-.8 0-1.2-.6-1.2-1.6 0-1.1.5-1.7 1.3-1.7.3 0 .6.1.8.3.2.1.3.1.3.2zm1.6 2.9c-.8 0-1.3-.6-1.3-1.7s.5-1.7 1.3-1.7 1.3.6 1.3 1.6c.1 1.2-.4 1.8-1.3 1.8zm.1-2.9c-.5 0-.8.4-.8 1.2 0 .4.1.8.2 1 .1.2.3.3.6.3.2 0 .5-.1.6-.3.1-.2.2-.6.2-1-.1-.8-.3-1.2-.8-1.2zm4.5 2.7c0 .1 0 .1 0 0l-.4.1c-.1 0-.1 0-.1-.1v-2.2c0-.4-.1-.5-.4-.5-.3 0-.5.1-.9.4v2.3c0 .1 0 .1-.1.1h-.3c-.1 0-.1 0-.1-.1v-2.2c0-.3 0-.4-.1-.6l.3-.2h.1c.1 0 .2.2.2.4.4-.3.7-.4 1.1-.4.3 0 .6.1.7.3.1.2.1.3.1.7v2zm1.7.2c-.3 0-.7-.1-1-.3v-.1l.1-.3h.1c.3.1.6.2.8.2.3 0 .5-.2.5-.5 0-.2-.1-.4-.4-.5-.4-.2-.6-.3-.7-.4-.2-.2-.3-.4-.3-.6 0-.5.4-.9 1-.9.3 0 .8.2.8.3l-.1.2h-.2c-.2-.1-.4-.2-.6-.2-.3 0-.5.2-.5.4 0 .1 0 .2.1.3.1.1.1.1.7.4.5.2.7.5.7.8.1.8-.3 1.2-1 1.2zm2.9 0c-.3 0-.6-.1-.7-.4-.1-.1-.1-.2-.1-.6v-1.8h-.5c-.1 0-.1 0-.1-.1v-.3c0-.1 0-.1.1-.1h.5v-.9s0-.1.1-.1l.3-.1v1.1h1.1l-.1.3s0 .1-.1.1h-.9v1.8c0 .3 0 .3.1.4.1.1.2.1.3.1.2 0 .3 0 .6-.2l.1.3c.1.3-.4.5-.7.5zm3.6-.2l-.3.2h-.1c-.1 0-.2-.2-.2-.4-.3.3-.6.4-.9.4-.5 0-.9-.3-.9-.9 0-.7.6-1.1 1.7-1.1v-.2c0-.4-.2-.6-.6-.6-.3 0-.4 0-.8.2l-.1-.3v-.1s0-.1.2-.1c.3-.1.6-.2.9-.2.7 0 1 .3 1 .9v1.2c-.1.5-.1.6.1 1 0-.1 0-.1 0 0 0-.1 0 0 0 0zm-.7-1.5c-.8 0-1.2.2-1.2.7 0 .3.2.5.5.5.2 0 .5-.1.7-.4v-.8zm3.9 1.5c0 .1 0 .1 0 0l-.4.1c-.1 0-.1 0-.1-.1v-2.2c0-.4-.1-.5-.4-.5-.3 0-.5.1-.9.4v2.3c0 .1 0 .1-.1.1h-.3c-.1 0-.1 0-.1-.1v-2.2c0-.3 0-.4-.1-.6l.3-.2h.1c.1 0 .2.2.2.4.4-.3.7-.4 1.1-.4.3 0 .6.1.7.3.1.2.1.3.1.7v2zm2 .2c-.3 0-.6-.1-.7-.4-.1-.1-.1-.2-.1-.6v-1.8h-.5c-.1 0-.1 0-.1-.1v-.3c0-.1 0-.1.1-.1h.5v-.9s0-.1.1-.1l.3-.1v1.1h1.1l-.1.3s0 .1-.1.1h-.9v1.8c0 .3 0 .3.1.4.1.1.2.1.3.1.2 0 .3 0 .6-.2l.1.3c.1.3-.4.5-.7.5zm4 0c-.3 0-.5-.1-.8-.3v1.4s0 .1-.1.1l-.3.1v-3.7c0-.3 0-.5-.1-.6l-.1-.1.3-.2h.1c.1 0 .2.2.2.4.4-.3.6-.4.9-.4.4 0 .6.2.8.5.1.3.2.7.2 1.1 0 1-.5 1.7-1.1 1.7zm.4-2.6c-.1-.2-.3-.3-.5-.3s-.4.1-.8.3v1.9c.3.2.5.3.7.3.4 0 .6-.4.6-1.3.1-.4.1-.7 0-.9zm3.2-.6l-.2.4h-.2c-.2 0-.3.1-.6.5v2.2c0 .1 0 .1-.1.1h-.3c-.1 0-.1 0-.1-.1v-2c0-.5 0-.6-.2-.9v-.2l.3-.2h.1c.1 0 .2.3.2.5.4-.5.5-.5.8-.5.1.1.3.1.3.2zm1.5 3.2c-.8 0-1.3-.6-1.3-1.7s.5-1.7 1.3-1.7 1.3.6 1.3 1.6c.1 1.2-.4 1.8-1.3 1.8zm.1-2.9c-.5 0-.8.4-.8 1.2 0 .4.1.8.2 1 .1.2.3.3.6.3.2 0 .5-.1.6-.3.1-.2.2-.6.2-1 0-.8-.3-1.2-.8-1.2zm4.5 2.7l-.3.2h-.1c-.1 0-.2-.2-.2-.4-.4.3-.7.4-1 .4-.6 0-1-.6-1-1.7 0-1 .4-1.6 1.2-1.6.2 0 .4.1.7.2V230s0-.1.1-.1l.3-.1v3.7c0 .4 0 .6.2.8.2.1.2.1.1.2.1 0 .1 0 0 0zm-.6-2.5c-.3-.2-.4-.2-.7-.2-.5 0-.7.3-.7 1.2 0 .9.2 1.3.6 1.3.2 0 .5-.1.8-.4V232zm3.9 2.5l-.3.2c-.1 0-.2-.2-.2-.4-.4.3-.6.4-1 .4-.6 0-.9-.3-.9-.9v-2.3s0-.1.1-.1l.3-.1v2.1c0 .6.1.8.5.8.3 0 .6-.1.8-.3v-2.4s0-.1.1-.1l.3-.1v2.4c.2.4.2.5.3.8.1-.1.1-.1 0 0 .1 0 .1 0 0 0zm3-2.7l-.1.3h-.2c-.3-.2-.5-.3-.7-.3-.5 0-.8.4-.8 1.2 0 .8.2 1.2.7 1.2.3 0 .4-.1.8-.3l.1.2v.1s0 .1-.1.1c-.3.2-.6.3-.9.3-.8 0-1.2-.6-1.2-1.6 0-1.1.5-1.7 1.3-1.7.3 0 .6.1.8.3.3.1.3.1.3.2zm1.5 2.9c-.3 0-.6-.1-.7-.4-.1-.1-.1-.2-.1-.6v-1.8h-.5c-.1 0-.1 0-.1-.1v-.3c0-.1 0-.1.1-.1h.5v-.9s0-.1.1-.1l.3-.1v1.1h1.1l-.1.3s0 .1-.1.1h-.9v1.8c0 .3 0 .3.1.4.1.1.2.1.3.1.2 0 .3 0 .6-.2l.1.3c.1.3-.4.5-.7.5zm1.9-.2c0 .1 0 .1 0 0l-.4.1c-.1 0-.1 0-.1-.1v-2.7h-.5c-.1 0-.1 0-.1-.1v-.3c0-.1 0-.1.1-.1h.9c.1 0 .1 0 .1.1v3.1zm-.3-3.8c-.2 0-.4-.2-.4-.4s.2-.4.4-.4.4.2.4.4-.2.4-.4.4zm3.6.9l-1.2 3c0 .1 0 .1-.1.1h-.2c-.1 0-.1 0-.1-.1l-1.1-3 .1-.1.4-.1.1.1.7 2.1v.4c0-.2.1-.2.1-.4l.8-2.2s0-.1.1-.1l.4.3c0-.1 0-.1 0 0 0-.1 0-.1 0 0zm1.2 2.9c0 .1 0 .1 0 0l-.4.1c-.1 0-.1 0-.1-.1v-2.7h-.5c-.1 0-.1 0-.1-.1v-.3c0-.1 0-.1.1-.1h.9c.1 0 .1 0 .1.1v3.1zm-.3-3.8c-.2 0-.4-.2-.4-.4s.2-.4.4-.4.4.2.4.4-.2.4-.4.4zm2.2 4c-.3 0-.6-.1-.7-.4-.1-.1-.1-.2-.1-.6v-1.8h-.5c-.1 0-.1 0-.1-.1v-.3c0-.1 0-.1.1-.1h.5v-.9s0-.1.1-.1l.3-.1v1.1h1.1l-.1.3s0 .1-.1.1h-.9v1.8c0 .3 0 .3.1.4.1.1.2.1.3.1.2 0 .3 0 .6-.2l.1.3c.2.3-.3.5-.7.5zm3.6-3.1l-.7 2.6c-.1.5-.3 1-.4 1.3-.2.4-.4.5-.8.5-.3 0-.8-.2-.8-.3l.1-.3c.2.2.4.2.6.2.2 0 .4-.2.5-.6l.1-.4h-.3c-.1 0-.1 0-.1-.1l-1-2.9.1-.1.4-.1h.1v.1l.8 2.5c.1.2.1.2.1.5 0-.2.1-.3.1-.5l.6-2.5s0-.1.1-.1l.5.2c0-.1 0-.1 0 0z"/><path fill="none" stroke="#FFF" stroke-miterlimit="6" d="M10.2 146h132.3"/><path fill="#706F6F" d="M146 213.4c-.5 0-1.1-.2-1.1-.3v-.1l.1-.3h.1c.3.2.6.2.9.2.6 0 .9-.3.9-.9 0-.6-.3-.9-1-.9h-.2c-.1 0-.1 0-.1-.1v-.3c0-.1 0-.1.1-.1h.2c.6 0 .9-.3.9-.8 0-.4-.3-.7-.7-.7-.2 0-.5.1-.7.3-.1.1-.1.1-.2.1l-.3-.2c0-.1.2-.2.3-.4.3-.2.5-.3.8-.3.7 0 1.2.5 1.2 1.1 0 .5-.2.8-.7 1 .2.1.3.1.4.2.3.2.4.6.4 1 .2 1-.4 1.5-1.3 1.5zm3.4 0c-.3 0-.6 0-.9-.1-.1 0-.1 0-.1-.1v-.1l.1-.3h.2c.2.1.4.1.7.1.4 0 .7-.1.8-.3.2-.2.3-.5.3-.8 0-.6-.3-.9-.7-.9-.3 0-.6.1-.8.4h-.2l-.2-.1c-.1 0-.1 0-.1-.1l.2-2.2c0-.1 0-.1.1-.1h1.8c.1 0 .1 0 .1.1v.3c0 .1 0 .1-.1.1h-1.5l-.2 1.4c.3-.2.5-.3.8-.3.7 0 1.2.6 1.2 1.4.1 1-.5 1.6-1.5 1.6zm-1.7-17.4s0 .1 0 0l-.7.1v1c0 .1 0 .1-.1.1h-.3c-.1 0-.1 0-.1-.1v-1h-1.8c-.1 0-.1 0-.1-.1v-.4l1.8-3s0-.1.1-.1l.3.1c.1 0 .1 0 .1.1v.1l-1.8 2.9h1.3l.1-1.1c0-.1 0-.1.1-.1h.3c.1 0 .1 0 .1.1v1.1h.6c.1 0 .1 0 .1.1v.2zm2 1.1c-.4 0-.7-.1-.9-.5-.3-.4-.5-1-.5-1.8 0-1.5.6-2.4 1.5-2.4s1.4.8 1.4 2.3c-.1 1.6-.6 2.4-1.5 2.4zm0-4.2c-.6 0-.9.7-.9 1.9 0 .6.1 1.1.3 1.4.1.3.3.4.6.4s.5-.2.7-.5c.1-.3.2-.8.2-1.4 0-1.1-.3-1.8-.9-1.8zm-2-12.8c0 .1 0 .1 0 0l-.7.1v1c0 .1 0 .1-.1.1h-.3c-.1 0-.1 0-.1-.1v-1h-1.8c-.1 0-.1 0-.1-.1v-.4l1.8-3s0-.1.1-.1l.3.1c.1 0 .1 0 .1.1v.1l-1.8 2.9h1.3l.1-1.1c0-.1 0-.1.1-.1h.3c.1 0 .1 0 .1.1v1.1h.6c.1 0 .1 0 .1.1v.2zm1.7 1.2c-.3 0-.6 0-.9-.1-.1 0-.1 0-.1-.1v-.1l.1-.3h.2c.2.1.4.1.7.1.4 0 .7-.1.8-.3.2-.2.3-.5.3-.8 0-.6-.3-.9-.7-.9-.3 0-.6.1-.8.4h-.2l-.2-.1c-.1 0-.1 0-.1-.1l.2-2.2c0-.1 0-.1.1-.1h1.8c.1 0 .1 0 .1.1v.3c0 .1 0 .1-.1.1h-1.5l-.2 1.4c.3-.2.5-.3.8-.3.7 0 1.2.6 1.2 1.4.1.9-.5 1.6-1.5 1.6zm-3.5-16.6c-.3 0-.6 0-.9-.1-.1 0-.1 0-.1-.1v-.1l.1-.3h.2c.2.1.4.1.7.1.4 0 .7-.1.8-.3.2-.2.3-.5.3-.8 0-.6-.3-.9-.7-.9-.3 0-.6.1-.8.4h-.2l-.2-.1c-.1 0-.1 0-.1-.1l.2-2.2c0-.1 0-.1.1-.1h1.8c.1 0 .1 0 .1.1v.3c0 .1 0 .1-.1.1h-1.5l-.2 1.4c.3-.2.5-.3.8-.3.7 0 1.2.6 1.2 1.4.1.9-.5 1.6-1.5 1.6zm3.8 0c-.4 0-.7-.1-.9-.5-.3-.4-.5-1-.5-1.8 0-1.5.6-2.4 1.5-2.4s1.4.8 1.4 2.3c-.1 1.5-.6 2.4-1.5 2.4zm0-4.2c-.6 0-.9.7-.9 1.9 0 .6.1 1.1.3 1.4.1.3.3.4.6.4s.5-.2.7-.5c.1-.3.2-.8.2-1.4 0-1.2-.3-1.8-.9-1.8z"/><path fill="none" stroke="#FFF" stroke-miterlimit="6" d="M10.2 211h132m-132-16.2h132m-132-16.3h133.2M10.2 162.2h132"/><path fill="none" stroke="#CCC" stroke-width="1.5" stroke-miterlimit="6" d="M26.1 142l.1 71.1 2 1.3-4 1.1 2 1.1v2.4" stroke-linecap="round" stroke-linejoin="round"/><path fill="#706F6F" d="M145.9 148.4c-.3 0-.6 0-.9-.1-.1 0-.1 0-.1-.1v-.1l.1-.3h.2c.2.1.4.1.7.1.4 0 .7-.1.8-.3.2-.2.3-.5.3-.8 0-.6-.3-.9-.7-.9-.3 0-.6.1-.8.4h-.2l-.2-.1c-.1 0-.1 0-.1-.1l.2-2.2c0-.1 0-.1.1-.1h1.8c.1 0 .1 0 .1.1v.3c0 .1 0 .1-.1.1h-1.5l-.2 1.4c.3-.2.5-.3.8-.3.7 0 1.2.6 1.2 1.4.1 1-.5 1.6-1.5 1.6zm3.5 0c-.3 0-.6 0-.9-.1-.1 0-.1 0-.1-.1v-.1l.1-.3h.2c.2.1.4.1.7.1.4 0 .7-.1.8-.3.2-.2.3-.5.3-.8 0-.6-.3-.9-.7-.9-.3 0-.6.1-.8.4h-.2l-.2-.1c-.1 0-.1 0-.1-.1l.2-2.2c0-.1 0-.1.1-.1h1.8c.1 0 .1 0 .1.1v.3c0 .1 0 .1-.1.1h-1.5l-.2 1.4c.3-.2.5-.3.8-.3.7 0 1.2.6 1.2 1.4.1 1-.5 1.6-1.5 1.6z"/><circle cx="26.2" cy="148.7" r="4.5" fill="#3CB6AB"/><path fill="none" stroke="#3CB6AB" stroke-width="1.5" stroke-miterlimit="6" d="M26.1 149.2l103 27.5"/><path fill="none" stroke="#CCC" stroke-width="1.5" stroke-miterlimit="6" d="M129 142v71.1l2 1.3-4 1.1 2 1.1v2.4" stroke-linecap="round" stroke-linejoin="round"/><path fill="none" stroke="#026865" stroke-width="1.5" stroke-miterlimit="6" d="M26.1 200.3l103-26.6"/><path fill="#706F6F" d="M116.7 130.4c0 .1 0 .1-.1.1h-.4c-.1 0-.1 0-.1-.1l-.5-2.1c-.1-.2-.1-.5-.1-.7 0 .3-.1.5-.1.7l-.6 2.1c0 .1 0 .1-.1.1h-.5c-.1 0-.1 0-.1-.1l-.9-3.4c0-.1 0-.1.1-.1l.5-.1c.1 0 .1 0 .1.1l.4 1.8c.1.2.1.8.2 1.1 0-.3.1-.6.1-.8l.5-2c0-.1 0-.1.1-.1h.5c.1 0 .1 0 .1.1l.5 2.1c.1.2.1.5.1.7 0-.3.1-.6.1-.9l.5-2c0-.1.1-.1.2-.1l.4.1c.1 0 .1 0 .1.1l-1 3.4zm2.6-.1c0 .1 0 .1-.1.1h-.5c-.1 0-.1 0-.1-.1v-3h-.6c-.1 0-.1 0-.1-.1v-.4c0-.1 0-.1.1-.1h1.2c.1 0 .1 0 .1.1v3.5zm-.4-4.2c-.3 0-.5-.2-.5-.5s.2-.5.5-.5.5.2.5.5-.2.5-.5.5zm3.5 4.1c0 .1 0 .1-.1.2-.3.1-.6.2-.9.2-.8 0-.9-.5-.9-1.1v-2h-.5c-.1 0-.1 0-.1-.1v-.4c0-.1 0-.1.1-.1h.5v-1c0-.1 0-.1.1-.1l.5-.1c.1 0 .1 0 .1.1v1.1h1c.1 0 .1.1.1.1l-.1.4c0 .1 0 .1-.1.1h-.9v2c0 .4.1.5.4.5.2 0 .4-.1.6-.1.1 0 .1 0 .1.1l.1.2zm3.3.1c0 .1 0 .1-.1.1h-.5c-.1 0-.1 0-.1-.1v-2.4c0-.5-.1-.6-.5-.6-.3 0-.5.1-.8.4v2.6c0 .1 0 .1-.1.1h-.5c-.1 0-.1 0-.1-.1v-5.1c0-.1 0-.1.1-.1l.5-.1c.1 0 .1 0 .1.1v2c.3-.3.7-.5 1.1-.5.8 0 .9.5.9 1.2v2.5zm5.5.1c0 .1 0 .1-.1.1h-.4c-.1 0-.1 0-.1-.1l-.5-2.1c-.1-.2-.1-.5-.1-.7 0 .3-.1.5-.1.7l-.6 2.1c0 .1 0 .1-.1.1h-.5c-.1 0-.1 0-.1-.1l-.9-3.4c0-.1 0-.1.1-.1l.5-.1c.1 0 .1 0 .1.1l.4 1.8c.1.2.1.8.2 1.1 0-.3.1-.6.1-.8l.5-2c0-.1 0-.1.1-.1h.5c.1 0 .1 0 .1.1l.5 2.1c.1.2.1.5.1.7 0-.3.1-.6.1-.9l.5-2c0-.1.1-.1.2-.1l.4.1c.1 0 .1 0 .1.1l-1 3.4zm2.9.2c-.9 0-1.5-.7-1.5-1.9s.6-2 1.5-2 1.5.7 1.5 1.9-.6 2-1.5 2zm0-3.3c-.5 0-.7.4-.7 1.3s.2 1.4.7 1.4.7-.4.7-1.4c0-.9-.2-1.3-.7-1.3zm4.1.1s-.1 0 0 0h-.4c-.2 0-.3.1-.6.5v2.5c0 .1 0 .1-.1.1h-.5c-.1 0-.1 0-.1-.1v-2.3c0-.5 0-.7-.1-.9 0-.1-.1-.2 0-.2l.4-.2c.1-.1.2.1.2.2.1.1.1.3.1.4.3-.3.5-.6.9-.6.1 0 .3 0 .3.1.1 0 .1.1 0 .1l-.1.4zm3 3.1c-.1 0-.1.1-.1 0l-1.4-1.8v1.7c0 .1 0 .1-.1.1h-.6c-.1 0-.1 0-.1-.1v-5.1c0-.1 0-.1.1-.1l.5-.1c.1 0 .1 0 .1.1v3.2l1.4-1.6c.1-.1.1 0 .2 0l.3.2c.1.1.1.1 0 .2l-1.2 1.3 1.3 1.6c.1.1.1.1 0 .2l-.4.2zm2-.2c0 .1 0 .1-.1.1h-.5c-.1 0-.1 0-.1-.1v-3h-.6c-.1 0-.1 0-.1-.1v-.4c0-.1 0-.1.1-.1h1.2c.1 0 .1 0 .1.1v3.5zm-.4-4.2c-.3 0-.5-.2-.5-.5s.2-.5.5-.5.5.2.5.5-.3.5-.5.5zm4.2 4.2c0 .1 0 .1-.1.1h-.5c-.1 0-.1 0-.1-.1v-2.4c0-.4-.1-.6-.5-.6-.3 0-.5.1-.8.4v2.6c0 .1 0 .1-.1.1h-.5c-.1 0-.1 0-.1-.1v-2.6c0-.3 0-.5-.1-.7v-.1l.5-.2c.1 0 .1 0 .2.1 0 .1.1.2.1.4.4-.3.6-.5 1.1-.5.7 0 1 .3 1 1.1v2.5zm3.6-2.5v3c-.1.8-.5 1.2-1.3 1.2-.4 0-.9-.1-1.3-.3-.1-.1-.1-.1-.1-.2l.1-.4c0-.1.1-.1.2 0 .4.2.7.3 1 .3.5 0 .7-.2.7-.7v-.6c-.3.2-.6.3-.9.3-.7 0-1.2-.7-1.2-1.7 0-1.2.5-2 1.4-2 .3 0 .6.1.9.3 0-.1 0-.1.1-.2s.1-.2.2-.2l.5.2c.1 0 .1.1 0 .1-.3.4-.3.6-.3.9zm-.7-.3c-.2-.2-.4-.2-.6-.2-.5 0-.7.4-.7 1.2 0 .8.2 1.2.6 1.2.2 0 .5-.1.7-.3v-1.9zm-38.1 9.8c0 .1 0 .1-.1.1h-.5c-.1 0-.1 0-.1-.1v-2.4c0-.5-.1-.6-.5-.6-.3 0-.5.1-.8.4v2.6c0 .1 0 .1-.1.1h-.5c-.1 0-.1 0-.1-.1v-5.1c0-.1 0-.1.1-.1l.5-.1c.1 0 .1 0 .1.1v2c.3-.3.7-.5 1.1-.5.8 0 .9.5.9 1.2v2.5zm2.3.3c-.9 0-1.5-.7-1.5-1.9s.6-2 1.5-2 1.5.7 1.5 1.9c.1 1.2-.5 2-1.5 2zm0-3.3c-.5 0-.7.4-.7 1.3s.2 1.4.7 1.4.7-.4.7-1.4c.1-.9-.2-1.3-.7-1.3zm5.2 3l-.5.2c-.1 0-.2 0-.2-.1s-.1-.2-.1-.3c-.4.3-.6.4-1 .4-.8 0-1-.5-1-1.2v-2.4c0-.1 0-.1.1-.1l.5-.1c.1 0 .1 0 .1.1v2.4c0 .6.1.8.5.8.2 0 .5-.1.8-.3V134c0-.1 0-.1.1-.1l.5-.1c.1 0 .1 0 .1.1v2.7c0 .4 0 .5.2.8l-.1-.1zm2.7-2.9c-.1 0-.1 0 0 0h-.4c-.2 0-.3.1-.6.5v2.5c0 .1 0 .1-.1.1h-.5c-.1 0-.1 0-.1-.1v-2.3c0-.5 0-.7-.1-.9 0-.1-.1-.2 0-.2l.4-.2c.1-.1.2.1.2.2.1.1.1.3.1.4.3-.3.5-.6.9-.6.1 0 .3 0 .3.1.1 0 .1.1 0 .1l-.1.4zm1.6 3.2c-.4 0-.9-.1-1.2-.3-.1-.1-.1-.1 0-.2l.2-.4c0-.1.1 0 .1 0 .3.2.7.3.9.3.3 0 .5-.2.5-.5 0-.2-.1-.3-.5-.5-.2-.1-.5-.3-.7-.4-.3-.2-.4-.5-.4-.8 0-.7.5-1.1 1.2-1.1.3 0 .7.1 1 .2.1 0 .1.1 0 .2l-.2.3c0 .1-.1.1-.1 0-.3-.1-.5-.2-.7-.2-.3 0-.5.2-.5.4s.1.3.4.5c.2.1.6.3.7.4.4.2.5.5.5.8 0 .8-.4 1.3-1.2 1.3zm5.2-3.2h-.4c-.2 0-.3.1-.6.5v2.5c0 .1 0 .1-.1.1h-.5c-.1 0-.1 0-.1-.1v-2.3c0-.5 0-.7-.1-.9 0-.1-.1-.2 0-.2l.4-.2c.1-.1.2.1.2.2.1.1.1.3.1.4.3-.3.5-.6.9-.6.1 0 .3 0 .3.1.1 0 .1.1 0 .1l-.1.4zm3.2 1.4h-2c0 .7.3 1.1.9 1.1.4 0 .7-.2.9-.3h.1l.2.4c0 .1 0 .1-.1.2-.3.2-.8.3-1.2.3-1 0-1.6-.7-1.6-1.9s.6-2 1.5-2 1.4.7 1.4 1.9c0 .2 0 .3-.1.3zm-.7-.6c0-.7-.2-1-.6-1-.4 0-.7.3-.7 1h1.3zm2.9 2.3c0 .1 0 .1-.1.1h-.4c-.1 0-.1 0-.1-.1l-1.2-3.5c0-.1 0-.1.1-.2l.6-.1c.1 0 .1 0 .1.1l.6 2.1c.1.2.1.5.2.8.1-.3.1-.5.2-.8l.7-2.1c0-.1.1-.1.2-.1l.5.1c.1 0 .1 0 .1.1l-1.5 3.6zm4.3-1.7h-2c0 .7.3 1.1.9 1.1.4 0 .7-.2.9-.3h.1l.2.4c0 .1 0 .1-.1.2-.3.2-.8.3-1.2.3-1 0-1.6-.7-1.6-1.9s.6-2 1.5-2 1.4.7 1.4 1.9c0 .2 0 .3-.1.3zm-.7-.6c0-.7-.2-1-.6-1-.4 0-.7.3-.7 1h1.3zm3.3-.8h-.4c-.2 0-.3.1-.6.5v2.5c0 .1 0 .1-.1.1h-.5c-.1 0-.1 0-.1-.1v-2.3c0-.5 0-.7-.1-.9 0-.1-.1-.2 0-.2l.4-.2c.1-.1.2.1.2.2.1.1.1.3.1.4.3-.3.5-.6.9-.6.1 0 .3 0 .3.1.1 0 .1.1 0 .1l-.1.4zm1.7 3.2c-.4 0-.9-.1-1.2-.3-.1-.1-.1-.1 0-.2l.2-.4c0-.1.1 0 .1 0 .3.2.7.3.9.3.3 0 .5-.2.5-.5 0-.2-.1-.3-.5-.5-.2-.1-.5-.3-.7-.4-.3-.2-.4-.5-.4-.8 0-.7.5-1.1 1.2-1.1.3 0 .7.1 1 .2.1 0 .1.1 0 .2l-.2.3c0 .1-.1.1-.1 0-.3-.1-.5-.2-.7-.2-.3 0-.5.2-.5.4s.1.3.4.5c.2.1.6.3.7.4.4.2.5.5.5.8 0 .8-.5 1.3-1.2 1.3zm4.5-1.8h-2c0 .7.3 1.1.9 1.1.4 0 .7-.2.9-.3h.1l.2.4c0 .1 0 .1-.1.2-.3.2-.8.3-1.1.3-1 0-1.6-.7-1.6-1.9s.6-2 1.5-2 1.4.7 1.4 1.9c-.1.2-.1.3-.2.3zm-.7-.6c0-.7-.2-1-.6-1-.4 0-.7.3-.7 1h1.3zm3.8 2.3c-.1.1-.2 0-.2-.1s-.1-.2-.1-.3c-.4.3-.7.4-1 .4-.7 0-1.2-.7-1.2-1.9 0-.7.1-1.2.4-1.6.2-.3.5-.4.9-.4.3 0 .5.1.8.2v-1.7c0-.1 0-.1.1-.1l.5-.1c.1 0 .1 0 .1.1v4.3c0 .4 0 .5.1.7 0 .1.1.1 0 .2l-.4.3zm-.4-3c-.2-.1-.4-.2-.6-.2-.5 0-.7.4-.7 1.3 0 1 .2 1.3.6 1.3.2 0 .5-.1.7-.3v-2.1zm3.6-1.3c0 .1 0 .1 0 0l-.7.1v3.2c0 .1 0 .1-.1.1h-.3c-.1 0-.1 0-.1-.1v-3.2h-.6c-.1 0-.1 0-.1-.1v-.2c0-.1 0-.1.1-.1h.6v-1.1c0-.1 0-.1.1-.1h.3c.1 0 .1 0 .1.1v1.1h.6c.1 0 .1 0 .1.1v.2z"/><g fill="#706F6F"><path d="M13.2 130.5l-.4.2c-.1.1-.1 0-.2-.1 0-.1-.1-.2-.1-.3-.3.3-.6.5-1 .5-.6 0-1-.4-1-1.1 0-1.1 1-1.3 1.9-1.3v-.2c0-.5-.1-.6-.6-.6-.2 0-.5.1-.8.2h-.1l-.1-.4c-.1-.2.1-.2.1-.2.3-.2.7-.2 1-.2.8 0 1.2.3 1.2 1.1v1.5c0 .4 0 .6.2.9 0-.1 0-.1-.1 0zm-.8-1.6c-.5 0-1.2 0-1.2.7 0 .3.2.6.5.6.2 0 .4-.1.7-.4v-.9zm3.7 1.5c0 .1 0 .1-.1.2-.3.1-.6.2-.9.2-.8 0-.9-.5-.9-1.1v-2h-.5c-.1 0-.1 0-.1-.1v-.4c0-.1 0-.1.1-.1h.5v-1c0-.1 0-.1.1-.1l.5-.1c.1 0 .1 0 .1.1v1.1h1c.1 0 .1.1.1.1l-.1.4c0 .1 0 .1-.1.1H15v2c0 .4.1.5.4.5.2 0 .4-.1.6-.1.1 0 .1 0 .1.1v.2zm4.1-2.6c0 .1-.1 0-.1 0-.3-.2-.5-.3-.7-.3-.5 0-.8.4-.8 1.3s.2 1.3.8 1.3c.3 0 .5-.1.7-.3.1-.1.1 0 .1 0l.1.4v.2c-.3.2-.7.3-1 .3-.9 0-1.5-.7-1.5-1.9 0-1.3.6-2 1.6-2 .4 0 .7.1 1 .3.1.1.1.1.1.2l-.3.5zm3.6 2.7l-.5.2c-.1 0-.2 0-.2-.1s-.1-.2-.1-.3c-.4.3-.6.4-1 .4-.8 0-1-.5-1-1.2v-2.4c0-.1 0-.1.1-.1l.5-.1c.1 0 .1 0 .1.1v2.4c0 .6.1.8.5.8.2 0 .5-.1.8-.3v-2.7c0-.1 0-.1.1-.1l.5-.1c.1 0 .1 0 .1.1v2.7c0 .4 0 .5.2.8-.1-.2 0-.1-.1-.1zm2.7-3c0 .1-.1.1 0 0h-.4c-.2 0-.3.1-.6.5v2.5c0 .1 0 .1-.1.1h-.5c-.1 0-.1 0-.1-.1v-2.3c0-.5 0-.7-.1-.9 0-.1-.1-.2 0-.2l.4-.2c.1-.1.2.1.2.2.1.1.1.3.1.4.3-.3.5-.6.9-.6.1 0 .3 0 .3.1.1 0 .1.1 0 .1l-.1.4zm2.6 0c-.1.1-.1.1 0 0h-.4c-.2 0-.3.1-.6.5v2.5c0 .1 0 .1-.1.1h-.5c-.1 0-.1 0-.1-.1v-2.3c0-.5 0-.7-.1-.9 0-.1-.1-.2 0-.2l.4-.2c.1-.1.2.1.2.2.1.1.1.3.1.4.3-.3.5-.6.9-.6.1 0 .3 0 .3.1.1 0 .1.1 0 .1l-.1.4zm3.1 1.5h-2c0 .7.3 1.1.9 1.1.4 0 .7-.2.9-.3h.1l.2.4c0 .1 0 .1-.1.2-.3.2-.8.3-1.2.3-1 0-1.6-.7-1.6-1.9s.6-2 1.5-2 1.4.7 1.4 1.9c0 .2 0 .3-.1.3zm-.7-.6c0-.7-.2-1-.6-1-.4 0-.7.3-.7 1h1.3zm4.3 2.1c0 .1 0 .1-.1.1h-.5c-.1 0-.1 0-.1-.1v-2.4c0-.4-.1-.6-.5-.6-.3 0-.5.1-.8.4v2.6c0 .1 0 .1-.1.1h-.5c-.1 0-.1 0-.1-.1v-2.6c0-.3 0-.5-.1-.7v-.1l.5-.2c.1 0 .1 0 .2.1 0 .1.1.2.1.4.4-.3.6-.5 1.1-.5.7 0 1 .3 1 1.1v2.5zm3.1-.1c0 .1 0 .1-.1.2-.3.1-.6.2-.9.2-.8 0-.9-.5-.9-1.1v-2h-.5c-.1 0-.1 0-.1-.1v-.4c0-.1 0-.1.1-.1h.5v-1c0-.1 0-.1.1-.1l.5-.1c.1 0 .1 0 .1.1v1.1h1c.1 0 .1.1.1.1l-.1.4c0 .1 0 .1-.1.1h-.9v2c0 .4.1.5.4.5.2 0 .4-.1.6-.1.1 0 .1 0 .1.1l.1.2zm-25.1 7.2c0 .1 0 .1-.1.1h-.4c-.1 0-.1 0-.1-.1l-.5-2.1c-.1-.2-.1-.5-.1-.7 0 .3-.1.5-.1.7l-.6 2.1c0 .1 0 .1-.1.1h-.5c-.1 0-.1 0-.1-.1l-.9-3.4c0-.1 0-.1.1-.1l.5-.1c.1 0 .1 0 .1.1l.4 1.8c.1.2.1.8.2 1.1 0-.3.1-.6.1-.8l.5-2c0-.1 0-.1.1-.1h.5c.1 0 .1 0 .1.1l.5 2.1c.1.2.1.5.1.7 0-.3.1-.6.1-.9l.5-2c0-.1.1-.1.2-.1l.4.1c.1 0 .1 0 .1.1l-1 3.4zm2.8.1c-.9 0-1.5-.7-1.5-1.9s.6-2 1.5-2 1.5.7 1.5 1.9c0 1.3-.6 2-1.5 2zm0-3.2c-.5 0-.7.4-.7 1.3s.2 1.4.7 1.4.7-.4.7-1.4c0-.9-.2-1.3-.7-1.3zm4.1 0c0 .1 0 .1 0 0h-.4c-.2 0-.3.1-.6.5v2.5c0 .1 0 .1-.1.1h-.5c-.1 0-.1 0-.1-.1v-2.3c0-.5 0-.7-.1-.9 0-.1-.1-.2 0-.2l.4-.2c.1-.1.2.1.2.2.1.1.1.3.1.4.3-.3.5-.6.9-.6.1 0 .3 0 .3.1.1 0 .1.1 0 .1l-.1.4zm3.1 3.2c-.1 0-.1.1-.1 0l-1.4-1.8v1.7c0 .1 0 .1-.1.1h-.5c-.1 0-.1 0-.1-.1v-5.1c0-.1 0-.1.1-.1l.5-.1c.1 0 .1 0 .1.1v3.2l1.4-1.6c.1-.1.1 0 .2 0l.3.2c.1.1.1.1 0 .2l-1.2 1.3 1.3 1.6c.1.1.1.1 0 .2l-.5.2z"/><path d="M25.7 137.5c0 .1 0 .1-.1.1h-.5c-.1 0-.1 0-.1-.1v-3h-.6c-.1 0-.1 0-.1-.1v-.4c0-.1 0-.1.1-.1h1.2c.1 0 .1 0 .1.1v3.5zm-.4-4.2c-.3 0-.5-.2-.5-.5s.2-.5.5-.5.5.2.5.5c0 .2-.2.5-.5.5zm4.2 4.2c0 .1 0 .1-.1.1h-.5c-.1 0-.1 0-.1-.1v-2.4c0-.4-.1-.6-.5-.6-.3 0-.5.1-.8.4v2.6c0 .1 0 .1-.1.1h-.5c-.1 0-.1 0-.1-.1v-2.6c0-.3 0-.5-.1-.7v-.1l.5-.2c.1 0 .1 0 .2.1 0 .1.1.2.1.4.4-.3.6-.5 1.1-.5.7 0 1 .3 1 1.1v2.5zm3.6-2.5v3c-.1.8-.5 1.2-1.3 1.2-.4 0-.9-.1-1.3-.3-.1-.1-.1-.1-.1-.2l.1-.4c0-.1.1-.1.2 0 .4.2.7.3 1 .3.5 0 .7-.2.7-.7v-.6c-.3.2-.6.3-.9.3-.7 0-1.2-.7-1.2-1.7 0-1.2.5-2 1.4-2 .3 0 .6.1.9.3 0-.1 0-.1.1-.2s.1-.2.2-.2l.5.2c.1 0 .1.1 0 .1-.2.4-.3.6-.3.9zm-.7-.3c-.2-.2-.4-.2-.6-.2-.5 0-.7.4-.7 1.2 0 .8.2 1.2.6 1.2.2 0 .5-.1.7-.3v-1.9zm6 2.8c0 .1 0 .1-.1.1h-.5c-.1 0-.1 0-.1-.1v-2.4c0-.5-.1-.6-.5-.6-.3 0-.5.1-.8.4v2.6c0 .1 0 .1-.1.1h-.5c-.1 0-.1 0-.1-.1v-5.1c0-.1 0-.1.1-.1l.5-.1c.1 0 .1 0 .1.1v2c.3-.3.7-.5 1.1-.5.8 0 .9.5.9 1.2v2.5zm2.2.2c-.9 0-1.5-.7-1.5-1.9s.6-2 1.5-2 1.5.7 1.5 1.9c.1 1.3-.5 2-1.5 2zm.1-3.2c-.5 0-.7.4-.7 1.3s.2 1.4.7 1.4.7-.4.7-1.4c0-.9-.2-1.3-.7-1.3zm5.1 3l-.5.2c-.1 0-.2 0-.2-.1s-.1-.2-.1-.3c-.4.3-.6.4-1 .4-.8 0-1-.5-1-1.2v-2.4c0-.1 0-.1.1-.1l.5-.1c.1 0 .1 0 .1.1v2.4c0 .6.1.8.5.8.2 0 .5-.1.8-.3v-2.7c0-.1 0-.1.1-.1l.5-.1c.1 0 .1 0 .1.1v2.7c0 .4 0 .5.2.8-.1-.2-.1-.1-.1-.1zm2.7-3c-.1.1-.1.1 0 0h-.4c-.2 0-.3.1-.6.5v2.5c0 .1 0 .1-.1.1h-.5c-.1 0-.1 0-.1-.1v-2.3c0-.5 0-.7-.1-.9 0-.1-.1-.2 0-.2l.4-.2c.1-.1.2.1.2.2.1.1.1.3.1.4.3-.3.5-.6.9-.6.1 0 .3 0 .3.1.1 0 .1.1 0 .1l-.1.4zm1.7 3.2c-.4 0-.9-.1-1.2-.3-.1-.1-.1-.1 0-.2l.2-.4c0-.1.1 0 .1 0 .3.2.7.3.9.3.3 0 .5-.2.5-.5 0-.2-.1-.3-.5-.5-.2-.1-.5-.3-.7-.4-.3-.2-.4-.5-.4-.8 0-.7.5-1.1 1.2-1.1.3 0 .7.1 1 .2.1 0 .1.1 0 .2l-.2.3c0 .1-.1.1-.1 0-.3-.1-.5-.2-.7-.2-.3 0-.5.2-.5.4s.1.3.4.5c.2.1.6.3.7.4.4.2.5.5.5.8 0 .9-.5 1.3-1.2 1.3z"/></g><path fill="#176A65" d="M78.6 85.2c0 .1 0 .1-.1.1h-.7c-.1 0-.1 0-.1-.1v-3.1H77c-.1 0-.1 0-.1-.1v-.5c0-.1 0-.1.1-.1h1.4c.1 0 .1 0 .1.1v3.7zm-.5-4.3c-.3 0-.6-.3-.6-.7 0-.4.3-.6.6-.6s.6.3.6.6c0 .4-.3.7-.6.7zm4.8 4.3c0 .1 0 .1-.1.1H82c-.1 0-.1 0-.1-.1v-2.5c0-.5-.1-.7-.4-.7-.2 0-.4.1-.7.3v2.8c0 .1 0 .1-.1.1H80c-.1 0-.1 0-.1-.1v-2.7c0-.3-.1-.6-.2-.9v-.1s0-.1.1-.1l.7-.3h.1c.1 0 .2.2.3.6.4-.4.7-.5 1.2-.5.7 0 1 .4 1 1.3v2.8z"/><path fill="#43B7AC" fill-rule="evenodd" d="M0 33.7h160v63H0z" clip-rule="evenodd"/><path fill="#FFF" d="M6.8 53.2v-1.5h6.4v15.6h-1.9V53.2H6.8zm2.2 2H6.8v-1.6h4.1v13.7H9V55.2zm7.7 12c-.6-.3-1.1-1-1.1-1.8 0-1.2 1-2 2-2 1.2 0 2.1.8 2.1 2 0 .7-.3 1.4-.8 2.2l-1.3 2.2h-1.7l.8-2.6zm1-1.5c.2 0 .3-.1.3-.3 0-.2-.2-.3-.3-.3-.2 0-.3.1-.3.3-.1.2.1.3.3.3zm2.4-12.5v-1.5h12.6c.1 0 .2 0 .1.3l-7.1 15.4h-2l6.5-14.1H20.1zm6.9 2h-6.9v-1.6h9.5l-6.3 13.7h-2L27 55.2zm12.1 7.5c-3.8.1-6-2.5-6-5.4 0-3.3 2.8-5.8 6.5-5.8S46 54 46 57.2c0 1.9-.5 3-2.3 5.4l-3.5 4.8h-2.1l4.1-5.6c1-1.4 1.9-2.9 1.9-4.5 0-2.3-1.9-4.3-4.6-4.3-2.7 0-4.6 1.9-4.6 4.3 0 2.2 1.6 4.1 4.6 4.1 1.6 0 2.7-.6 3.4-1.4-.3.5-.7 1-1 1.5l-4.3 5.8h-2l3.5-4.6zm4.7-5.5c0 1.4-.9 3.8-4.2 3.8-2.7 0-4.2-1.7-4.2-3.7 0-2.1 1.7-3.9 4.2-3.9 2.5-.1 4.2 1.7 4.2 3.8zm-6.5 0c0 1.3.9 2.3 2.4 2.3s2.4-1 2.4-2.3c0-1.2-.9-2.3-2.4-2.3-1.6-.1-2.4 1-2.4 2.3zm10 2.3c0-5.2 3.3-8 7.3-8s7.3 2.7 7.3 8-3.3 8-7.3 8-7.3-2.8-7.3-8zm12.6 0c0-4.1-2.3-6.4-5.3-6.4s-5.3 2.3-5.3 6.4c0 4.1 2.3 6.4 5.3 6.4s5.3-2.3 5.3-6.4zm-10.3 0c0-3.8 2.1-6 4.9-6 2.8 0 4.9 2.1 4.9 6s-2.1 6-4.9 6c-2.8 0-4.9-2.2-4.9-6zm7.9 0c0-2.7-1.1-4.4-3-4.4s-3 1.6-3 4.4 1.1 4.4 3 4.4 3-1.7 3-4.4zm38.9-6.9V51h6.4v15.6H101v-14h-4.6zm2.3 1.9h-2.2V53h4.1v13.7h-1.9V54.5zm7.6 12c-.6-.3-1.1-1-1.1-1.8 0-1.2 1-2 2-2 1.2 0 2.1.8 2.1 2 0 .7-.3 1.4-.8 2.2l-1.3 2.2h-1.7l.8-2.6zm1-1.4c.2 0 .3-.1.3-.3 0-.2-.2-.3-.3-.3-.2 0-.3.1-.3.3 0 .2.2.3.3.3zm3.8-2.6h8.9v4.2h-1.8V64h-8.3v-2.7l8.1-10.2h2l-8.9 11.1v.3zm8.9-.4h-8.3l8.3-10.3v10.3zm-1.8-5.8l-3.4 4.3h3.4v-4.3zm5.8 5.8h-3.6V51h1.8v9.6h1.8v1.5zm-1.8 4.6h-1.8v-4.2h3.6v1.4h-1.8v2.8zm8.7-4.7c-3.8.1-6-2.5-6-5.4 0-3.3 2.8-5.8 6.5-5.8s6.4 2.5 6.4 5.7c0 1.9-.5 3-2.3 5.4l-3.5 4.8h-2.1l4.1-5.6c1-1.4 1.9-2.9 1.9-4.5 0-2.3-1.9-4.3-4.6-4.3-2.7 0-4.6 1.9-4.6 4.3 0 2.2 1.6 4.1 4.6 4.1 1.6 0 2.7-.6 3.4-1.4-.3.5-.7 1-1 1.5l-4.3 5.8h-2l3.5-4.6zm4.7-5.5c0 1.4-.9 3.8-4.2 3.8-2.7 0-4.2-1.7-4.2-3.7 0-2.1 1.7-3.9 4.2-3.9s4.2 1.7 4.2 3.8zm-6.5 0c0 1.3.9 2.3 2.4 2.3s2.4-1 2.4-2.3c0-1.2-.9-2.3-2.4-2.3-1.6 0-2.4 1.1-2.4 2.3zm10 2.3c0-5.2 3.3-8 7.3-8s7.3 2.7 7.3 8-3.3 8-7.3 8-7.3-2.7-7.3-8zm12.6 0c0-4.1-2.3-6.4-5.3-6.4s-5.3 2.3-5.3 6.4c0 4.1 2.3 6.4 5.3 6.4 3 .1 5.3-2.2 5.3-6.4zm-10.3 0c0-3.8 2.1-6 4.9-6 2.8 0 4.9 2.1 4.9 6s-2.1 6-4.9 6c-2.8 0-4.9-2.1-4.9-6zm7.9 0c0-2.7-1.1-4.4-3-4.4s-3 1.6-3 4.4 1.1 4.4 3 4.4 3-1.6 3-4.4z"/><path fill="#176A65" d="M14.1 84.1h-2.6l-.4.9h-2l3.6-7.6c0-.1.1-.1.1 0l3.6 7.6h-2.1l-.2-.9zm-2-1.5h1.4l-.7-1.6-.7 1.6zm5.5-5.2c0-.1 0 0 0 0l3.7 4 3.5-4c0-.1.1-.1.1 0l.4 7.6h-2l-.2-3.2-1.8 2.2h-.1l-1.9-2.2-.2 3.2h-2l.5-7.6zm8.8.1h5.2v1.7h-3.2v1.2h2.7V82h-2.7v1.3h3.4V85h-5.4v-7.5zm8.4 7.5h-2v-7.5h3c1.9 0 3 1.1 3 2.7 0 1-.5 1.8-1.4 2.2L39 85h-2.2l-1.3-2.3h-.7V85zm.9-3.9c.7 0 1-.3 1-1s-.4-1-1-1h-.9V81h.9zm4.3-3.6h2V85h-2v-7.5zm6.8 7.6c-2.1 0-3.9-1.6-3.9-3.8s1.8-3.8 3.8-3.8c1.6 0 2.6.7 3.2 1.6l-1.5 1c-.3-.4-.7-.9-1.7-.9-1.1 0-1.8.9-1.8 2.1 0 1.2.7 2.1 1.8 2.1 1 0 1.4-.4 1.8-1l1.5 1c-.6 1.1-1.7 1.7-3.2 1.7zm8.3-1h-2.6l-.4.9h-2l3.6-7.6c0-.1.1-.1.1 0l3.6 7.6h-2.1l-.2-.9zm-2-1.5h1.4l-.7-1.6-.7 1.6zm51.3-5.1h5.1v1.7h-3.1v1.5h2.7v1.7h-2.7V85h-2v-7.5zm8.1 7.5h-2v-7.5h3c1.9 0 3 1.1 3 2.7 0 1-.5 1.8-1.4 2.2l1.6 2.7h-2.2l-1.3-2.3h-.7V85zm.9-3.9c.7 0 1-.3 1-1s-.4-1-1-1h-.9V81h.9zm8.5 3h-2.6l-.3.9h-2l3.6-7.6c0-.1.1-.1.1 0l3.6 7.6h-2.1l-.3-.9zm-2-1.5h1.4l-.7-1.6-.7 1.6zm7.1-1.4V85h-1.9v-7.6c0-.1 0-.1.2 0l4.7 3.9v-3.8h1.9v7.6c0 .1 0 .1-.2 0l-4.7-3.9zm9.7 3.9c-2.1 0-3.9-1.6-3.9-3.8s1.8-3.8 3.8-3.8c1.6 0 2.6.7 3.2 1.6l-1.5 1c-.3-.4-.7-.9-1.7-.9-1.1 0-1.8.9-1.8 2.1 0 1.2.7 2.1 1.8 2.1 1 0 1.4-.4 1.8-1l1.5 1c-.7 1.1-1.7 1.7-3.2 1.7zm4-7.6h5.2v1.7h-3.2v1.2h2.7V82h-2.7v1.3h3.4V85h-5.4v-7.5zM18.6 44h-1c-.1 0-.2 0-.2-.2l-.4-1.5h-1.5l-.4 1.5c0 .1 0 .2-.2.2H14v-.2l1.7-5.8c0-.1.1-.2.2-.2h.9c.1 0 .1 0 .2.2l1.7 5.8v.1c.1.1 0 .1-.1.1zm-1.8-2.5l-.3-1.5c-.1-.4-.1-.5-.2-1.2-.1.5-.1.7-.2 1.2l-.3 1.5h1zm5.8-1.7l-1.4 4.3c0 .1-.1.1-.2.1h-.7c-.1 0-.1 0-.2-.1l-1.4-4.3v-.1c0-.1 0-.1.1-.1l.9-.1h.1c.1 0 .1 0 .1.1l.6 2.1c.1.3.2.8.3 1.3.1-.5.2-1 .3-1.3l.6-2.1c0-.1.1-.1.1-.1h.1l.7.1v.2c0-.1 0-.1 0 0zm3.6 2.3h-2.3c0 .8.3 1.1 1 1.1.3 0 .7-.1 1-.3h.1s.1 0 .1.1l.2.5v.1c0 .1-.1.2-.4.3-.4.2-.8.3-1.2.3-.6 0-1-.2-1.3-.4-.4-.4-.7-1.1-.7-1.9 0-1.4.8-2.4 1.9-2.4 1.2 0 1.7.8 1.7 2.5.1 0 .1.1-.1.1zm-1-.9c0-.7-.2-1-.6-1s-.6.3-.7 1h1.3zm4.6-1.5l-.3.7c0 .1 0 .1-.1.1h-.1c-.1 0-.2-.1-.3-.1-.2 0-.4.1-.7.4v3c0 .1 0 .2-.1.2h-.8c-.1 0-.1 0-.1-.2v-2.7c0-.5-.1-.8-.3-1.3v-.1s0-.1.1-.1l.7-.3h.1c.1 0 .2.3.3.7.2-.2.2-.3.3-.4.2-.2.5-.4.8-.4.3.2.6.3.5.5.1-.1.1 0 0 0zm3.7 4.1l-.7.3h-.1c-.1 0-.2-.2-.3-.5-.3.4-.7.5-1.1.5-.8 0-1.3-.5-1.3-1.4 0-.8.4-1.3 1.3-1.4.2 0 .5-.1 1-.1V41c0-.5-.1-.7-.6-.7-.3 0-.6.1-1 .2h-.1s-.1 0-.1-.1l-.2-.5v-.1c0-.2.8-.4 1.5-.4s1.2.2 1.4.7c.1.2.1.4.1.7v1.8c0 .4.1.7.2 1 .1.1.1.1 0 .2.1 0 .1 0 0 0zM32.3 42c-.9 0-1.2.2-1.2.7 0 .4.2.6.6.6.2 0 .5-.1.7-.4V42zm5.7-2.1c-.1.3-.2.6-.2 1v3.4c0 1-.6 1.6-1.6 1.6-.7 0-1.8-.3-1.8-.5v-.1l.2-.6c0-.1.1-.1.1-.1h.1c.5.2.9.3 1.3.3.5 0 .7-.2.7-.7v-.6c-.3.2-.6.3-1 .3-.9 0-1.4-.8-1.4-2.2 0-1.4.6-2.4 1.6-2.4.4 0 .7.1 1 .4.1-.3.2-.4.3-.4h.1l.7.3c.1 0 .1.1.1.1-.2.1-.2.1-.2.2zm-1.3.7c-.2-.2-.4-.3-.6-.3-.5 0-.7.5-.7 1.4 0 .9.2 1.3.6 1.3.3 0 .5-.1.7-.3v-2.1zm5.3 1.5h-2.3c0 .8.3 1.1 1 1.1.3 0 .7-.1 1-.3h.1s.1 0 .1.1l.2.5v.1c0 .1-.1.2-.4.3-.4.2-.8.3-1.2.3-.6 0-1-.2-1.3-.4-.4-.4-.7-1.1-.7-1.9 0-1.4.8-2.4 1.9-2.4 1.2 0 1.7.8 1.7 2.5.1 0 .1.1-.1.1zm-.9-.9c0-.7-.2-1-.6-1s-.6.3-.7 1h1.3zm6.9 2.6l-.7.3h-.1c-.1 0-.2-.2-.3-.5-.3.4-.7.5-1.1.5-.8 0-1.3-.5-1.3-1.4 0-.8.4-1.3 1.3-1.4.2 0 .5-.1 1-.1V41c0-.5-.1-.7-.6-.7-.3 0-.6.1-1 .2h-.1s-.1 0-.1-.1l-.2-.5v-.1c0-.2.8-.4 1.5-.4s1.2.2 1.4.7c.1.2.1.4.1.7v1.8c0 .4.1.7.2 1 .1.1.1.1 0 .2.1 0 .1 0 0 0zM46.8 42c-.9 0-1.2.2-1.2.7 0 .4.2.6.6.6.2 0 .5-.1.7-.4V42zm5.8 1.8c0 .1 0 .2-.1.2h-.8c-.1 0-.1 0-.1-.2V41c0-.5-.1-.8-.5-.8-.3 0-.5.1-.8.4v3.2c0 .1 0 .2-.1.2h-.8c-.1 0-.1 0-.1-.2v-3c0-.4-.1-.7-.2-1v-.1s0-.1.1-.1l.8-.3h.1c.1 0 .2.2.3.6.4-.4.8-.6 1.3-.6.8 0 1.1.4 1.1 1.4v3.1zm4.7 0c0 .1 0 .2-.1.2h-.8c-.1 0-.1 0-.1-.2V41c0-.5-.1-.8-.5-.8-.3 0-.5.1-.8.4v3.2c0 .1 0 .2-.1.2H54c-.1 0-.1 0-.1-.2v-3c0-.4-.1-.7-.2-1v-.1s0-.1.1-.1l.8-.3h.1c.1 0 .2.2.3.6.4-.4.8-.6 1.3-.6.8 0 1.1.4 1.1 1.4v3.1zm4.7.1l-.7.2h-.1c-.1 0-.2-.2-.3-.5-.4.4-.7.5-1.2.5-.4 0-.8-.1-1-.4-.2-.3-.3-.5-.3-1.4v-2.6c0-.1 0-.1.1-.2l.8-.2h.1c.1 0 .1 0 .1.1v2.8c0 .4 0 .5.1.7.1.2.3.2.5.2s.5-.1.7-.3v-3.2c0-.1 0-.1.1-.2l.8-.2h.1c.1 0 .1 0 .1.1v3.3c0 .4 0 .6.2.9 0 .3 0 .3-.1.4.1 0 .1 0 0 0zm4.3-.1l-.7.3h-.1c-.1 0-.2-.2-.3-.5-.3.4-.7.5-1.1.5-.8 0-1.3-.5-1.3-1.4 0-.8.4-1.3 1.3-1.4.2 0 .5-.1 1-.1V41c0-.5-.1-.7-.6-.7-.3 0-.6.1-1 .2h-.1s-.1 0-.1-.1l-.2-.5v-.1c0-.2.8-.4 1.5-.4s1.2.2 1.4.7c.1.2.1.4.1.7v1.8c0 .4.1.7.2 1 .1.1.1.1 0 .2.1 0 .1 0 0 0zM65.1 42c-.9 0-1.2.2-1.2.7 0 .4.2.6.6.6.2 0 .5-.1.7-.4V42zm3.3 2.2c-.5 0-.9-.2-1-.6-.1-.2-.1-.3-.1-1.1v-4.6c0-.1 0-.2.1-.2l.8-.2h.1c.1 0 .1 0 .1.2V43c0 .1.1.2.2.2s.2 0 .3-.1h.1s.1 0 .1.1l.2.7c0 .1-.5.3-.9.3zm6.7-.4c0 .1 0 .2-.1.2h-.8c-.2 0-.2 0-.2-.2V41c0-.5-.1-.8-.5-.8-.3 0-.5.1-.8.4v3.2c0 .1 0 .2-.1.2h-.8c-.1 0-.1 0-.1-.2v-6c0-.1 0-.1.1-.2l.8-.2h.1c.1 0 .1 0 .1.2v2.3c.4-.4.7-.5 1.2-.5.4 0 .8.2 1 .5.1.2.2.5.2.9v3zm2.8.4c-1.2 0-1.9-.9-1.9-2.4 0-.7.2-1.3.5-1.7.4-.5.8-.7 1.4-.7 1.1 0 1.9.9 1.9 2.4 0 1.4-.8 2.4-1.9 2.4zm-.1-3.9c-.5 0-.7.4-.7 1.5 0 1 .2 1.5.7 1.5.5 0 .7-.4.7-1.5.1-1.1-.1-1.5-.7-1.5zm6.4 3.6l-.7.2h-.1c-.1 0-.2-.2-.3-.5-.4.4-.7.5-1.2.5-.4 0-.8-.1-1-.4-.2-.3-.3-.5-.3-1.4v-2.6c0-.1 0-.1.1-.2l.8-.2h.1c.1 0 .1 0 .1.1v2.8c0 .4 0 .5.1.7.1.2.3.2.5.2s.5-.1.7-.3v-3.2c0-.1 0-.1.1-.2l.8-.2h.1c.1 0 .1 0 .1.1v3.3c0 .4 0 .6.2.9 0 .3 0 .3-.1.4.1 0 0 0 0 0zm3.7-4.2l-.3.7c0 .1 0 .1-.1.1h-.1c-.1 0-.2-.1-.3-.1-.2 0-.4.1-.7.4v3c0 .1 0 .2-.1.2h-.8c-.1 0-.1 0-.1-.2v-2.7c0-.5-.1-.8-.3-1.3v-.1s0-.1.1-.1l.7-.3h.1c.1 0 .2.3.3.7.2-.2.2-.3.3-.4.2-.2.5-.4.8-.4.3.2.5.3.5.5 0-.1 0 0 0 0zm2.9 4c-.3.3-.6.4-1.1.4-.5 0-1-.1-1.5-.4-.2-.1-.2-.1-.2-.2v-.1l.2-.5c0-.1.1-.1.1-.1h.1c.5.3.9.4 1.2.4.3 0 .5-.2.5-.5s-.1-.3-.7-.6c-.6-.2-.8-.3-.9-.5-.2-.2-.3-.5-.3-.9 0-.9.6-1.5 1.6-1.5.5 0 1.3.2 1.3.4v.1l-.2.5c0 .1-.1.1-.1.1h-.1c-.3-.2-.6-.2-.9-.2-.4 0-.6.2-.6.5 0 .2.1.3.6.5l1 .5c.2.2.4.6.4.9 0 .6-.2 1-.4 1.2zm8.2-3.9l-1.2 4.1c0 .1 0 .1-.2.1h-.7c-.1 0-.1 0-.2-.1l-.4-2.3c0-.1 0-.1-.1-.5v-.5c-.1.5-.1.6-.2 1l-.5 2.3c0 .1 0 .1-.2.1h-.7c-.1 0-.1 0-.2-.1l-1.1-4.1v-.1c0-.1 0-.1.1-.1l.8-.1h.1c.1 0 .1 0 .1.1l.4 2.1c0 .2.1.5.2 1.4.1-.6.1-1.1.2-1.3l.4-2.1c0-.1 0-.1.2-.1h.8c.1 0 .1 0 .2.1l.4 2c0 .2.1.9.2 1.4.1-.9.1-1.2.2-1.5l.4-2c0-.1 0-.1.1-.1h.1l.7.1c.1 0 .1.1.1.2 0-.1 0-.1 0 0zm2.2 4.4c-1.2 0-1.9-.9-1.9-2.4 0-.7.2-1.3.5-1.7.4-.5.8-.7 1.4-.7 1.1 0 1.9.9 1.9 2.4 0 1.4-.7 2.4-1.9 2.4zm0-3.9c-.5 0-.7.4-.7 1.5 0 1 .2 1.5.7 1.5.5 0 .7-.4.7-1.5s-.2-1.5-.7-1.5zm5.3-.6l-.3.7c0 .1 0 .1-.1.1h-.1c-.1 0-.2-.1-.3-.1-.2 0-.4.1-.7.4v3c0 .1 0 .2-.1.2h-.8c-.1 0-.1 0-.1-.2v-2.7c0-.5-.1-.8-.3-1.3v-.1s0-.1.1-.1l.7-.3h.1c.1 0 .2.3.3.7.2-.2.2-.3.3-.4.2-.2.5-.4.8-.4.3.2.5.3.5.5 0-.1 0 0 0 0zm4.2 4l-.7.4h-.1s-.1 0-.1-.1l-1.6-2.2v1.9c0 .1 0 .2-.1.2h-.8c-.1 0-.1 0-.1-.2v-6c0-.1 0-.1.1-.2l.8-.2h.1c.1 0 .1 0 .1.2v3.6l1.7-1.8.1-.1.1.1.5.4.1.1s0 .1-.1.1l-1.4 1.4 1.6 2 .1.1c-.2.2-.2.3-.3.3zm3.8-1.6h-2.3c0 .8.3 1.1 1 1.1.3 0 .7-.1 1-.3h.1s.1 0 .1.1l.2.5v.1c0 .1-.1.2-.4.3-.4.2-.8.3-1.2.3-.6 0-1-.2-1.3-.4-.4-.4-.7-1.1-.7-1.9 0-1.4.8-2.4 1.9-2.4 1.2 0 1.7.8 1.7 2.5.1 0 0 .1-.1.1zm-1-.9c0-.7-.2-1-.6-1s-.6.3-.7 1h1.3zm5.4 2.6l-.7.3h-.1c-.1 0-.2-.2-.2-.5-.4.3-.8.5-1.2.5-.9 0-1.4-.8-1.4-2.3 0-.9.2-1.5.5-1.9.3-.4.7-.5 1.1-.5.3 0 .5.1.9.3v-1.8c0-.1 0-.1.1-.2l.8-.2h.1c.1 0 .1 0 .1.2V43c0 .4 0 .5.2.8-.1-.1-.1-.1-.2 0 .1 0 .1 0 0 0zm-1.2-3.3c-.2-.1-.4-.2-.6-.2-.5 0-.8.4-.8 1.5 0 1 .2 1.5.7 1.5.3 0 .5-.1.7-.3v-2.5zm5.5 3.3c0 .1 0 .2-.1.2h-.8c-.1 0-.1 0-.1-.2v-3.5h-.7c-.1 0-.1 0-.1-.2v-.5c0-.1 0-.2.1-.2h1.6c.1 0 .1 0 .1.2v4.2zm-.6-4.8c-.4 0-.7-.3-.7-.7 0-.4.3-.7.7-.7.4 0 .7.3.7.7 0 .3-.3.7-.7.7zm5.4 4.8c0 .1 0 .2-.1.2h-.9c-.1 0-.1 0-.1-.2V41c0-.5-.1-.8-.5-.8-.3 0-.5.1-.8.4v3.2c0 .1 0 .2-.1.2h-.8c-.1 0-.1 0-.1-.2v-3c0-.4-.1-.7-.2-1v-.1s0-.1.1-.1l.8-.3h.1c.1 0 .2.2.3.6.4-.4.8-.6 1.3-.6.8 0 1.1.4 1.1 1.4v3.1zm5.9-2.8c-.3.3-.3.3-1.1 1-.5.4-.6.6-.6 1h2c.2 0 .2 0 .2.2v.6c0 .2 0 .2-.2.2h-3.1c-.1 0-.1 0-.1-.1v-.1c0-.7.1-1.1.3-1.5.3-.5.5-.7 1.4-1.4.6-.5.8-.8.8-1.3s-.3-.8-.7-.8c-.4 0-.6.2-.9.8 0 .1-.1.1-.1.1h-.1l-.6-.2c-.1 0-.1-.1-.1-.1 0-.2.2-.7.5-.9.3-.4.8-.6 1.4-.6 1 0 1.7.6 1.7 1.7-.1.5-.3 1-.7 1.4zm5 2.4c-.4.5-.9.7-1.5.7-1.3 0-2-1.1-2-3.1 0-1.2.2-2 .7-2.6.3-.4.9-.7 1.5-.7.5 0 1 .2 1.3.6.5.5.6 1.3.6 2.5-.1 1.4-.2 2.1-.6 2.6zm-.8-4.1c-.1-.3-.4-.5-.7-.5-.7 0-1 .7-1 2.2 0 1.5.3 2.2 1 2.2.3 0 .6-.2.8-.5.1-.3.2-.7.2-1.5-.1-1.1-.1-1.6-.3-1.9zm5.4 4.5c0 .2 0 .2-.2.2h-2.6c-.2 0-.2 0-.2-.2v-.5c0-.2 0-.2.2-.2h.8v-3.8l-.9.5-.1.1s-.1 0-.1-.1l-.2-.4c0-.1-.1-.1-.1-.1s0-.1.1-.1l1.6-1.2h.6c.1 0 .2 0 .2.2v5h.6c.2 0 .2 0 .2.2v.4zm3.9-.1c-.4.3-.8.5-1.4.5-.5 0-1-.1-1.4-.3-.2-.1-.3-.1-.3-.2v-.1l.2-.6.1-.1h.1c.5.2.8.3 1.2.3.6 0 1-.4 1-1s-.3-.9-1.1-.9h-.3c-.2 0-.2 0-.2-.2v-.6c0-.2 0-.2.2-.2h.3c.3 0 .5 0 .6-.2.2-.1.3-.4.3-.7 0-.5-.3-.7-.7-.7-.3 0-.5.1-.8.5l-.1.1h-.1l-.5-.5v-.1c0-.1.1-.2.2-.3.4-.4.8-.6 1.4-.6 1 0 1.7.6 1.7 1.6 0 .6-.3 1.1-.8 1.3.7.2 1 .7 1 1.5.1.7-.1 1.1-.6 1.5zM0 86.8h160v20.4H0z"/><path fill="#FFF" d="M62.6 102.4l2-1c1 2 3.2 3.8 6.4 3.8 3.8 0 6.2-2.1 6.2-5.3 0-3.9-3.4-5-5.7-4.9l4.7-6.4H64.5v-2h15c.1 0 .2.1.1.2l-5 6.8c2.7.5 5.1 2.5 5.1 6.4 0 4.3-3.3 7.2-8.5 7.2-4.2 0-7.2-2.2-8.6-4.8zm2.5-1.3l2-1c.6 1.4 1.7 2.5 3.7 2.5 2.1 0 3.3-1.1 3.3-2.9 0-1.8-1.3-2.7-3.6-2.7-1.3 0-2.3.1-3 .4-.3.1-.5 0-.3-.3l4.2-6h-6.9v-2h10.6l-4.6 6.3c3.1-.2 6.1.8 6.1 4.5 0 2.9-2.2 4.8-5.6 4.8-2.9-.1-4.9-1.7-5.9-3.6zm16-12.6v-2h16.5c.1 0 .2.1.1.3l-9.2 20.1h-2.6l8.5-18.4H81.1zm8.9 2.6h-8.9v-2h12.4l-8.2 17.8h-2.6L90 91.1zM9.9 94.8l-.3.6c0 .1-.1.1-.2.1H8l-.3 1.4H9c.1 0 .1 0 .1.1v.1l-.1.4c0 .1 0 .1-.1.1H7.5l-.3 1.6h1.6c.1 0 .1 0 .1.1v.1l-.1.6c0 .1 0 .1-.1.1H6.2c-.1 0-.1 0-.1-.1v-.1l1-5.2c0-.1 0-.1.1-.1h2.5c.1 0 .1 0 .1.1.1 0 .1 0 .1.1zm3.4 1.8c-.1.2-.3.5-.3.8l-.8 4c0 .1 0 .1-.1.1l-.7.1h-.1s-.1 0-.1-.1v-.1l.3-1.4c0-.2.1-.3.2-.6-.3.4-.7.7-1.1.7-.5 0-.8-.5-.8-1.3 0-.9.3-1.8.8-2.4.3-.4.7-.6 1-.6.3 0 .6.1.9.5.1-.3.3-.5.4-.5h.1l.5.3s.1 0 .1.1c-.2.2-.2.2-.3.4zm-1.2.4c-.3-.2-.4-.3-.6-.3-.2 0-.4.1-.6.5-.2.4-.4 1.2-.4 1.8 0 .3.1.5.3.5.2 0 .5-.2.7-.4.1-.2.2-.4.3-.7l.3-1.4zm4.9-.8l-.5 2.6c-.1.3-.1.4-.1.6 0 .2 0 .3.1.4v.1s0 .1-.1.1l-.6.3h-.1c-.1 0-.2-.2-.2-.6v-.2c-.4.6-.8.8-1.3.8s-.8-.3-.8-.8c0-.2 0-.4.1-.6l.5-2.4c0-.1 0-.1.1-.1l.7-.1h.1s.1 0 .1.1v.1l-.5 2.3c0 .2-.1.4-.1.5 0 .2.1.3.3.3.4 0 .8-.6 1-1.5l.3-1.5c0-.1 0-.1.1-.1l.7-.2h.1c.1-.2.1-.2.1-.1zm2.1.1l-.8 3.7c0 .1 0 .1-.1.1h-.7c-.1 0-.1 0-.1-.1v-.1l.6-3.1h-.6c-.1 0-.1 0-.1-.1v-.1l.1-.4c0-.1 0-.1.1-.1H19c.1 0 .1.1.1.2zm-.2-.7c-.3 0-.6-.3-.6-.7 0-.4.3-.7.6-.7s.6.3.6.7c0 .4-.3.7-.6.7zm3.9.7l-2 3.8c0 .1-.1.1-.1.1h-.6c-.1 0-.1 0-.1-.1l-.4-3.8v-.1s0-.1.1-.1l.7-.1s.1 0 .1.1l.1 1.9v1.1c.3-.7.3-.8.5-1.1l.9-1.9c0-.1 0-.1.1-.1l.7.1c0 .1.1.1 0 .2.1 0 .1 0 0 0zm3.4 0l-.5 2.5c-.1.3-.1.4-.1.6v.5s0 .1-.1.1l-.6.3h-.1c-.1 0-.1-.3-.2-.7-.4.5-.8.7-1.2.7-.6 0-.9-.5-.9-1.3 0-1.6.8-2.9 1.8-2.9.3 0 .6.1.8.4l.1-.2c0-.1 0-.1.1-.1h.6c.3-.1.3 0 .3.1 0-.1 0-.1 0 0zm-1.1.7c-.2-.2-.4-.3-.6-.3-.2 0-.4.1-.6.5-.2.4-.4 1.3-.4 1.8 0 .3.1.5.3.5.2 0 .5-.2.7-.4.1-.2.2-.4.3-.7l.3-1.4zm3.4-2.5l-.8 4.2c-.1.4-.1.4-.1.5 0 .1.1.2.2.2h.3v.1l.1.6c0 .1-.4.2-.8.2-.5 0-.8-.2-.8-.7 0-.2 0-.5.1-.9l.8-4.1c0-.1 0-.1.1-.1l.7-.2h.1c.1 0 .1 0 .1.2 0-.1 0-.1 0 0zm2.2 4c-.3.1-.6.1-1.1.1v.2c0 .5.2.7.7.7.2 0 .5-.1.9-.3h.1l.1.1.2.5v.1l-.1.1c-.4.2-.9.4-1.4.4-.8 0-1.3-.5-1.3-1.5 0-.8.3-1.6.7-2.1.3-.4.9-.6 1.4-.6.7 0 1.1.4 1.1 1.1-.1.4-.6 1-1.3 1.2zm-.1-1.8c-.3 0-.6.2-.7.4-.1.2-.2.4-.3.7.5 0 .7 0 1-.2.3-.1.4-.3.4-.6 0-.1-.2-.3-.4-.3zm4.9.8L35 100c0 .1 0 .1-.1.1h-.7c-.1 0-.1 0-.1-.1v-.1l.5-2.3c0-.2.1-.4.1-.5 0-.2-.1-.3-.3-.3-.5 0-.9.6-1.1 1.5L33 100c0 .1 0 .1-.1.1h-.7c-.1 0-.1 0-.1-.1v-.1l.5-2.5c0-.2.1-.5.1-.6v-.5s0-.1.1-.1l.6-.3h.1c.1 0 .2.3.2.6v.2c.4-.6.8-.8 1.3-.8s.8.3.8.8c-.3.3-.3.5-.3.8zm3.4-1.2l-.1.4c0 .1 0 .1-.1.1h-1l-.4 1.9v.4c0 .2.1.3.3.3.2 0 .4-.1.6-.1h.1l.1.1.1.5c0 .1-.8.4-1.2.4-.6 0-.9-.3-.9-.8 0-.2 0-.3.1-.5l.4-2.1h-.5c-.1 0-.1 0-.1-.1v-.1l.1-.4c0-.1 0-.1.1-.1h.5l.2-1c0-.1 0-.1.1-.1l.7-.1h.1s.1 0 .1.1v.1l-.2 1h1c.1 0 .1 0 .1.1-.2-.1-.2-.1-.2 0zm4.3 0l-.2.5c0 .1 0 .1-.1.1h-1l-.4 1.9v.4c0 .2.1.3.3.3.2 0 .4-.1.6-.1h.1l.1.1.1.5c0 .1-.8.4-1.2.4-.6 0-.9-.3-.9-.8 0-.2 0-.3.1-.5l.4-2.1h-.5c-.1 0-.1 0-.1-.1v-.1l.1-.4c0-.1 0-.1.1-.1h.5l.2-1c0-.1 0-.1.1-.1l.7-.1h.1s.1 0 .1.1v.1l-.2 1h1c.1 0 .1 0 .1.1-.1-.2-.1-.2-.1-.1zm2.5 3.3c-.3.4-.8.6-1.4.6-.8 0-1.3-.5-1.3-1.4 0-.8.3-1.6.7-2.2.4-.4.8-.7 1.4-.7.8 0 1.2.5 1.2 1.4.1.9-.2 1.7-.6 2.3zm-.7-2.8c-.3 0-.5.2-.6.5-.2.4-.3 1.1-.3 1.6 0 .4.2.6.5.6s.5-.2.7-.5c.2-.4.3-1.1.3-1.6-.1-.4-.3-.6-.6-.6zm6 2.8c-.3.4-.8.6-1.4.6-.8 0-1.3-.5-1.3-1.4 0-.8.3-1.6.7-2.2.4-.4.8-.7 1.4-.7.8 0 1.2.5 1.2 1.4.1.9-.2 1.7-.6 2.3zm-.7-2.8c-.3 0-.5.2-.6.5-.2.4-.3 1.1-.3 1.6 0 .4.2.6.5.6s.5-.2.7-.5c.2-.4.3-1.1.3-1.6-.1-.4-.3-.6-.6-.6zm5.2-.5l-2 3.8c0 .1-.1.1-.1.1h-.6c-.1 0-.1 0-.1-.1l-.4-3.8v-.1s0-.1.1-.1l.7-.1s.1 0 .1.1l.1 1.9v1.1c.3-.7.3-.8.5-1.1l.9-1.9c0-.1 0-.1.1-.1l.7.1v.2zm1.8 2.2c-.3.1-.6.1-1.1.1v.2c0 .5.2.7.7.7.2 0 .5-.1.9-.3h.1l.1.1.2.5v.1l-.1.1c-.4.2-.9.4-1.4.4-.8 0-1.3-.5-1.3-1.5 0-.8.3-1.6.7-2.1.3-.4.9-.6 1.4-.6.7 0 1.1.4 1.1 1.1 0 .4-.5 1-1.3 1.2zm0-1.8c-.3 0-.6.2-.7.4-.1.2-.2.4-.3.7.5 0 .7 0 1-.2.3-.1.4-.3.4-.6 0-.1-.2-.3-.4-.3zm4.3-.5l-.3.8H61c-.5 0-.9.5-1 1.4l-.3 1.6c0 .1 0 .1-.1.1h-.7c-.1 0-.1 0-.1-.1v-.1l.5-2.4c.1-.4.1-.5.1-.7v-.4s0-.1.1-.1l.5-.3h.1c.1 0 .2.3.2.6v.2c.2-.3.3-.4.4-.6.2-.2.5-.3.7-.3.1.1.2.2.2.3zm41.4-1.7l-.9 4.5v.4c0 .2 0 .3.1.5 0 0 0 .1-.1.1l-.6.2h-.1c-.1 0-.1-.3-.2-.7-.4.5-.7.7-1.2.7-.6 0-.8-.4-.8-1.2 0-.8.2-1.7.6-2.3.4-.5.8-.8 1.3-.8.3 0 .4.1.7.2l.3-1.6c0-.1 0-.1.1-.1l.7-.2h.1c0 .1.1.1 0 .3.1-.1.1-.1 0 0zm-1.4 2.4c-.2-.1-.3-.1-.5-.1-.3 0-.5.2-.7.5-.2.4-.3 1.1-.3 1.6 0 .3.1.6.4.6.4 0 .8-.5.9-1.2l.2-1.4zm5-.6l-.5 2.5c-.1.3-.1.4-.1.6v.5s0 .1-.1.1l-.6.3h-.1c-.1 0-.1-.3-.2-.7-.4.5-.8.7-1.2.7-.6 0-.9-.5-.9-1.3 0-1.6.8-2.9 1.8-2.9.3 0 .6.1.8.4l.1-.2c0-.1 0-.1.1-.1h.6c.3-.1.3 0 .3.1 0-.1 0-.1 0 0zm-1.1.7c-.2-.2-.4-.3-.6-.3-.2 0-.4.1-.6.5-.2.4-.4 1.3-.4 1.8 0 .3.1.5.3.5.2 0 .5-.2.7-.4.1-.2.2-.4.3-.7l.3-1.4zm4.9-.7l-1.5 3.3c-.5 1-.7 1.4-.9 1.7-.3.4-.6.6-1.1.6-.3 0-.9-.2-.9-.3v-.1l.3-.5s0-.1.1-.1h.1c.2.1.3.1.5.1.3 0 .5-.1.6-.5l.2-.5h-.3c-.1 0-.1 0-.1-.1l-.4-3.7v-.1c0-.1 0-.1.1-.1l.7-.1h.1s.1 0 .1.1l.1 1.9c0 .3 0 .8.1 1.3 0-.1.1-.2.1-.3l.2-.5.2-.5.9-2c0-.1 0-.1.1-.1h.1l.7.1c-.1.3-.1.3-.1.4zm2.5.2l-.1.4c0 .1 0 .1-.1.1h-.1c-.2-.1-.4-.2-.6-.2-.3 0-.6.2-.6.5 0 .1 0 .2.1.3.1.1.1.1.4.2.6.3.8.5.8 1.1 0 .9-.6 1.4-1.5 1.4-.4 0-.7-.1-1.1-.2-.1-.1-.2-.1-.2-.1v-.1l.2-.5s0-.1.1-.1 0 0 .3.1c.2.1.5.2.6.2.4 0 .6-.2.6-.5 0-.2-.1-.3-.4-.5-.7-.4-.9-.6-.9-1.1 0-.8.6-1.4 1.4-1.4.5 0 1 .2 1 .3.1 0 .1 0 .1.1zm2.7-2l-1.3 1.9-.1.1h-.1l-.3-.2c-.1 0-.1-.1-.1-.1v-.1l.8-1.6c0-.1.1-.1.1-.1h.8c.1 0 .1 0 .1.1.1-.1.1-.1.1 0zm5.2 0l-.9 4.5v.4c0 .2 0 .3.1.5 0 0 0 .1-.1.1l-.6.2h-.1c-.1 0-.1-.3-.2-.7-.4.5-.7.7-1.2.7-.6 0-.8-.4-.8-1.2 0-.8.2-1.7.6-2.3.4-.5.8-.8 1.3-.8.3 0 .4.1.7.2l.3-1.6c0-.1 0-.1.1-.1l.7-.2h.1v.3c0-.1 0-.1 0 0zm-1.4 2.4c-.2-.1-.3-.1-.5-.1-.3 0-.5.2-.7.5-.2.4-.3 1.1-.3 1.6 0 .3.1.6.4.6.4 0 .8-.5.9-1.2l.2-1.4zm3.2-.6l-.8 3.7c0 .1 0 .1-.1.1h-.7c-.1 0-.1 0-.1-.1v-.1l.6-3.1h-.5c-.1 0-.1 0-.1-.1v-.1l.1-.4c0-.1 0-.1.1-.1h1.4s.1.1.1.2zm-.3-.7c-.3 0-.6-.3-.6-.7 0-.4.3-.7.6-.7s.6.3.6.7c.1.4-.2.7-.6.7zm3.7-1l-.2.6h-.2c-.1 0-.2-.1-.3-.1-.3 0-.4.1-.5.7l-.1.3h.9c.1 0 .1 0 .1.1v.1l-.1.5c0 .1 0 .1-.1.1h-.8l-.6 3.3c-.1.6-.3.9-.5 1.2-.2.3-.6.4-1 .4s-.7-.1-.7-.1v-.1l.2-.6s0-.1.1-.1h.3c.4 0 .6-.2.7-.9l.6-3.2h-.5c-.1 0-.1 0-.1-.1v-.1l.1-.4c0-.1 0-.1.1-.1h.6l.1-.5c.1-.6.2-.8.4-1 .2-.2.5-.3.9-.3.2 0 .6.1.6.3zm2.8 0l-.2.6h-.2c-.1 0-.2-.1-.3-.1-.3 0-.4.1-.5.7l-.1.3h.9c.1 0 .1 0 .1.1v.1l-.1.5c0 .1 0 .1-.1.1h-.8l-.6 3.3c-.1.6-.3.9-.5 1.2-.2.3-.6.4-1 .4s-.7-.1-.7-.1v-.1l.2-.6s0-.1.1-.1h.3c.4 0 .6-.2.7-.9l.6-3.2h-.6c-.1 0-.1 0-.1-.1v-.1l.1-.4c0-.1 0-.1.1-.1h.6l.1-.5c.1-.6.2-.8.4-1 .2-.2.5-.3.9-.3.3 0 .7.1.7.3zm1.4 3.9c-.3.1-.6.1-1.1.1v.2c0 .5.2.7.7.7.2 0 .5-.1.9-.3h.1l.1.1.2.5v.1l-.1.1c-.4.2-.9.4-1.4.4-.8 0-1.3-.5-1.3-1.5 0-.8.3-1.6.7-2.1.3-.4.9-.6 1.4-.6.7 0 1.1.4 1.1 1.1 0 .4-.5 1-1.3 1.2zm0-1.8c-.3 0-.6.2-.7.4-.1.2-.2.4-.3.7.5 0 .7 0 1-.2.3-.1.4-.3.4-.6 0-.1-.2-.3-.4-.3zm4.3-.5l-.3.8h-.3c-.5 0-.9.5-1 1.4l-.3 1.6c0 .1 0 .1-.1.1h-.7c-.1 0-.1 0-.1-.1v-.1l.5-2.4c.1-.4.1-.5.1-.7v-.4s0-.1.1-.1l.6-.3h.1c.1 0 .2.3.2.6v.2c.2-.3.3-.4.4-.6.2-.2.5-.3.7-.3 0 .1.2.2.1.3.1 0 .1 0 0 0zm1.8 2.3c-.3.1-.6.1-1.1.1v.2c0 .5.2.7.7.7.2 0 .5-.1.9-.3h.1l.1.1.2.5v.1l-.1.1c-.4.2-.9.4-1.4.4-.8 0-1.3-.5-1.3-1.5 0-.8.3-1.6.7-2.1.3-.4.9-.6 1.4-.6.7 0 1.1.4 1.1 1.1-.1.4-.5 1-1.3 1.2zm0-1.8c-.3 0-.6.2-.7.4-.1.2-.2.4-.3.7.5 0 .7 0 1-.2.3-.1.4-.3.4-.6 0-.1-.2-.3-.4-.3zm4.8.8l-.5 2.5c0 .1 0 .1-.1.1h-.7c-.1 0-.1 0-.1-.1v-.1l.5-2.3c0-.2.1-.4.1-.5 0-.2-.1-.3-.3-.3-.5 0-.9.6-1.1 1.5l-.3 1.6c0 .1 0 .1-.1.1h-.7c-.1 0-.1 0-.1-.1v-.1l.5-2.5c0-.2.1-.5.1-.6v-.5s0-.1.1-.1l.6-.1h.1c.1 0 .2.3.2.6v.2c.4-.6.8-.8 1.3-.8s.8.3.8.8c-.2.2-.2.4-.3.7zm3.7-1.1l-.3.5h-.2c-.2-.1-.3-.2-.6-.2s-.5.1-.7.3c-.3.4-.4 1-.4 1.6 0 .4.2.6.6.6.2 0 .3 0 .5-.1h.2l.2.5v.1c0 .2-.6.4-1 .4-.9 0-1.4-.6-1.4-1.6 0-.9.3-1.7.8-2.2.3-.3.8-.5 1.3-.5.4 0 .6.1.9.3.1.2.1.2.1.3zm2 2.1c-.3.1-.6.1-1.1.1v.2c0 .5.2.7.7.7.2 0 .5-.1.9-.3h.1l.1.1.2.5v.1l-.1.1c-.4.2-.9.4-1.4.4-.8 0-1.3-.5-1.3-1.5 0-.8.3-1.6.7-2.1.3-.4.9-.6 1.4-.6.7 0 1.1.4 1.1 1.1-.1.4-.6 1-1.3 1.2zm-.1-1.8c-.3 0-.6.2-.7.4-.1.2-.2.4-.3.7.5 0 .7 0 1-.2.3-.1.4-.3.4-.6 0-.1-.1-.3-.4-.3z"/><path fill="none" stroke="#FFF" stroke-miterlimit="6" d="M80 47.7v33.2" stroke-linecap="round" stroke-linejoin="round" stroke-dasharray="1.000000e-02,2,0,0"/><circle cx="26.2" cy="148.8" r="6" fill="#43B7AC"/><circle cx="129.1" cy="176.7" r="6" fill="#43B7AC"/><circle cx="26.2" cy="199.8" r="6" fill="#176A65"/><path fill="#FFF" d="M128.9 178.5c0 .6-.1.9-.4 1.1-.3.2-.6.3-1 .3-1 0-1.4-.5-1.4-1.4v-3c0-.1 0-.1.1-.1h.5c.1 0 .1 0 .1.1v3c0 .7.2.9.7.9.5 0 .8-.3.8-.9v-3c0-.1 0-.1.1-.1h.4c.1 0 .1 0 .1.1v3zm1.9 1.5c-.4 0-.9-.1-1.2-.3-.1 0-.1-.1-.1-.2l.2-.4c0-.1.1 0 .2 0 .3.2.6.3.9.3.4 0 .7-.2.7-.6 0-.4-.1-.5-.8-.9-.5-.3-1-.6-1-1.3 0-.7.5-1.2 1.3-1.2.4 0 .8.1 1.1.3.1 0 .1.1 0 .1l-.2.4c0 .1-.1.1-.2 0-.3-.1-.5-.2-.8-.2-.4 0-.6.2-.6.6 0 .3.1.4.6.7.7.4 1.2.6 1.2 1.5.1.7-.5 1.2-1.3 1.2z"/><circle cx="129.1" cy="174.7" r="6" fill="#176A65"/><path fill="#FFF" d="M26.1 149.9c0 .6-.1.9-.4 1.1-.3.2-.6.3-1 .3-1 0-1.4-.5-1.4-1.4v-3c0-.1 0-.1.1-.1h.5c.1 0 .1 0 .1.1v3c0 .7.2.9.7.9.5 0 .8-.3.8-.9v-3c0-.1 0-.1.1-.1h.4c.1 0 .1 0 .1.1v3zm1.8 1.4c-.4 0-.9-.1-1.2-.3-.1 0-.1-.1-.1-.2l.2-.4c0-.1.1 0 .2 0 .3.2.6.3.9.3.4 0 .7-.2.7-.6 0-.4-.1-.5-.8-.9-.5-.3-1-.6-1-1.3 0-.7.5-1.2 1.3-1.2.4 0 .8.1 1.1.3.1 0 .1.1 0 .1l-.2.4c0 .1-.1.1-.2 0-.3-.1-.5-.2-.8-.2-.4 0-.6.2-.6.6 0 .3.1.4.6.7.7.4 1.2.6 1.2 1.5.1.7-.4 1.2-1.3 1.2zm-1.5 46.6c0 .1-.1.1-.1.1h-1.4v1.4h1.3c.1 0 .1 0 .1.1v.4c0 .1 0 .1-.1.1h-1.3v2.1c0 .1 0 .1-.1.1h-.5c-.1 0-.1 0-.1-.1v-4.6c0-.1 0-.1.1-.1h2.3c.1 0 .1 0 .1.1l-.3.4zm2.3 1.4c-.1.1-.1.1 0 0h-.3c-.2 0-.3.1-.6.4v2.3c0 .1 0 .1-.1.1h-.5c-.1 0-.1 0-.1-.1v-2c0-.4 0-.6-.1-.9 0-.1-.1-.2 0-.2l.4-.2c.1-.1.2.1.2.2.1.1.1.3.1.3.3-.3.5-.6.9-.6.1 0 .3 0 .3.1.1 0 .1.1 0 .1l-.2.5zm100.9-26.7c0 .1-.1.1-.1.1h-1.4v1.4h1.3c.1 0 .1 0 .1.1v.4c0 .1 0 .1-.1.1h-1.3v2.1c0 .1 0 .1-.1.1h-.5c-.1 0-.1 0-.1-.1v-4.6c0-.1 0-.1.1-.1h2.3c.1 0 .1 0 .1.1l-.3.4zm2.3 1.4c-.1 0-.1.1 0 0h-.3c-.2 0-.3.1-.6.4v2.3c0 .1 0 .1-.1.1h-.5c-.1 0-.1 0-.1-.1v-2.1c0-.4 0-.6-.1-.9 0-.1-.1-.2 0-.2l.4-.2c.1-.1.2.1.2.2.1.1.1.3.1.3.3-.3.5-.6.9-.6.1 0 .3 0 .3.1.1 0 .1.1 0 .1l-.2.6z"/><path fill="none" d="M117.2 139.2h13.7l3.3 6.5"/><path fill="#FFF" d="M96.5 102.2c-1 1.1-1.5 2.2-1.5 3.5 0 .6.2 1.2.4 1.7v.1s0 .1-.1.1l-.2.1H95s-.1 0-.1-.1c-.3-.6-.5-1.3-.5-1.9 0-1.2.6-2.5 1.6-3.5l.3-.3h.1l.2.1v.1c0 .1 0 .1-.1.1zm1.9 3.8c-.2.3-.4.4-.8.4-.3 0-.5-.1-.9-.3l-.1-.1.8-3.8s0-.1.1-.1l.3-.1-.3 1.5c0 .2-.1.2-.1.3.2-.3.5-.5.9-.5s.7.3.7.8c.1.7-.2 1.5-.6 1.9zm-.1-2.3c-.4 0-.8.4-.9.9l-.3 1.2c.2.1.4.2.6.2.2 0 .4-.1.6-.5.2-.4.3-1 .3-1.3 0-.3-.1-.5-.3-.5zm3.7-.2l-.4 2v.7l-.3.1c-.1 0-.1-.2-.1-.4v-.2c-.3.4-.6.6-1 .6s-.6-.3-.6-.9c0-.5.2-1.2.4-1.6.3-.4.5-.6.9-.6.3 0 .4.1.6.3l.1-.2h.1l.3.2c0-.1 0 0 0 0zm-.6.5c-.2-.2-.4-.3-.6-.3-.3 0-.5.2-.7.6-.1.3-.2.8-.2 1.1 0 .3.1.5.3.5.2 0 .5-.2.6-.4.1-.2.3-.5.3-.8l.3-.7zm2.9-.4l-.1.2h-.2c-.2-.1-.3-.1-.5-.1-.3 0-.5.2-.5.4 0 .1 0 .2.1.3.1.1.1.1.4.3.3.2.4.4.4.7s-.1.6-.4.8c-.2.1-.4.2-.7.2-.3 0-.7-.1-.8-.2l.1-.3h.2c.2.1.5.2.7.2.3 0 .5-.2.5-.5 0-.1-.1-.3-.2-.3-.1-.1-.1-.1-.4-.3-.3-.2-.4-.4-.4-.6 0-.5.4-.9 1-.9.4-.1.8 0 .8.1zm2 1.4c-.3.1-.6.2-1.3.2v.1c0 .5.2.7.6.7.3 0 .5-.1.8-.3h.1l.1.2-.1.1c-.3.2-.7.4-1 .4-.6 0-1-.4-1-1.1 0-.6.2-1.2.6-1.6.3-.3.6-.4.9-.4.5 0 .8.3.8.8.1.4-.1.7-.5.9zm-.2-1.3c-.5 0-.8.4-.9 1.1.9 0 1.4-.2 1.4-.7-.1-.2-.3-.4-.5-.4zm4-1.6l-.7 3.4v.3c0 .1 0 .3.1.4l-.3.2h-.1c-.1 0-.1-.2-.1-.5v-.1c-.3.4-.6.6-.9.6-.4 0-.7-.3-.7-.9 0-.6.2-1.3.5-1.7.2-.3.5-.5.9-.5.2 0 .4 0 .6.2l.3-1.4s0-.1.1-.1l.3.1c-.1-.1-.1-.1 0 0 0-.1 0-.1 0 0 0-.1 0-.1 0 0zm-.9 1.8c-.2-.2-.3-.2-.5-.2-.3 0-.5.1-.7.5-.1.3-.3.9-.3 1.2 0 .3.1.5.3.5.2 0 .5-.1.7-.3.2-.2.2-.4.3-.7l.2-1zm4.2 1.9c-.3.4-.6.6-1.1.6-.6 0-.9-.3-.9-1 0-.5.2-1.1.5-1.5.2-.4.6-.5 1.1-.5.6 0 .9.4.9 1 0 .5-.2 1.1-.5 1.4zm-.6-2.1c-.3 0-.6.2-.8.6-.1.3-.2.7-.2 1.1 0 .4.2.6.5.6s.6-.2.8-.5c.2-.3.3-.8.3-1.1 0-.4-.2-.7-.6-.7zm3.9.6l-.4 2s0 .1-.1.1h-.3l.4-2v-.2c0-.2-.1-.3-.3-.3-.5 0-.9.5-1.1 1.2l-.3 1.3s0 .1-.1.1h-.3l.4-2v-.6l.3-.1h.1c.1 0 .1.2.1.4v.2c.3-.4.7-.6 1.1-.6.3 0 .5.2.5.5.1-.3.1-.3 0 0zm3.6 0c.4.2.7.5.7.9 0 .3-.1.6-.4.9-.3.2-.6.4-1 .4-.7 0-1.1-.3-1.1-.9 0-.4.2-.7.5-.9.2-.1.3-.2.6-.3-.4-.2-.5-.5-.5-.8 0-.6.5-1.1 1.2-1.1.6 0 1 .3 1 .8-.1.3-.4.7-1 1zm0 .4c-.1-.1-.1-.1-.4-.2-.7.2-1 .5-1 .9s.3.6.7.6c.5 0 .9-.3.9-.8 0-.2-.1-.4-.2-.5zm-.1-1.9c-.4 0-.7.2-.7.6 0 .3.1.4.5.7.6-.2.8-.5.8-.8 0-.4-.2-.5-.6-.5zm2.7 1.9l-.1.3c0 .1 0 .1-.1.1h-1.2s-.1 0-.1-.1l.1-.3c0-.1 0-.1.1-.1l1.3.1c0-.1 0-.1 0 0 0-.1 0-.1 0 0zm2.9-.4l-.4 2s0 .1-.1.1h-.3l.4-2v-.3c0-.2-.1-.3-.3-.3-.5 0-.9.5-1.1 1.2l-.3 1.3s0 .1-.1.1h-.3l.9-4.1s0-.1.1-.1l.3-.1-.3 1.6c0 .1-.1.3-.1.4.3-.4.7-.6 1.1-.6.3 0 .6.2.6.5-.1 0-.1.1-.1.3zm2.5 1.5c-.3.4-.6.6-1.1.6-.6 0-.9-.3-.9-1 0-.5.2-1.1.5-1.5.2-.4.6-.5 1.1-.5.6 0 .9.4.9 1 0 .5-.2 1.1-.5 1.4zm-.5-2.1c-.3 0-.6.2-.8.6-.1.3-.2.7-.2 1.1 0 .4.2.6.5.6s.6-.2.8-.5c.1-.3.3-.8.3-1.1-.1-.4-.3-.7-.6-.7zm4-.3l-.4 2.1v.3c0 .1 0 .2.1.3l-.3.1h-.1c-.1 0-.1-.2-.1-.4v-.2c-.4.4-.6.6-1 .6s-.6-.2-.6-.6v-.4l.4-1.9s0-.1.1-.1l.3-.1-.4 1.9v.4c0 .2.1.3.3.3.2 0 .5-.1.7-.3.2-.2.2-.3.3-.7l.3-1.5s0-.1.1-.1h.3c-.1.3-.1.3 0 .3zm2.3.1l-.1.3h-.2c-.1 0-.3.1-.4.3-.2.3-.3.4-.4.9l-.3 1.3s0 .1-.1.1h-.3l.4-1.8c.1-.3.1-.3.1-.5 0-.1 0-.2-.1-.3v-.1l.3-.1h.1c.1 0 .1.2.1.4v.1c.1-.2.2-.2.3-.3.2-.2.4-.3.6-.3-.1-.1 0-.1 0 0 0-.1 0-.1 0 0zm3.9-1.4l-.7 3.4v.3c0 .1 0 .3.1.4l-.3.2h-.1c-.1 0-.1-.2-.1-.5v-.1c-.3.4-.6.6-.9.6-.4 0-.7-.3-.7-.9 0-.6.2-1.3.5-1.7.2-.3.5-.5.9-.5.2 0 .4 0 .6.2l.3-1.4s0-.1.1-.1l.3.1c-.1-.1 0-.1 0 0 0-.1 0-.1 0 0 0-.1 0-.1 0 0zm-.8 1.8c-.2-.2-.3-.2-.5-.2-.3 0-.5.1-.7.5-.2.3-.3.9-.3 1.2 0 .3.1.5.3.5.2 0 .5-.1.7-.3.2-.2.2-.4.3-.7l.2-1zm3.4-.4l-.4 2v.7l-.3.1c-.1 0-.1-.2-.1-.4v-.2c-.3.4-.6.6-1 .6s-.6-.3-.6-.9c0-.5.2-1.2.4-1.6.3-.4.5-.6.9-.6.3 0 .4.1.6.3l.1-.2h.1l.3.2c0-.1 0 0 0 0zm-.6.5c-.2-.2-.4-.3-.6-.3-.3 0-.5.2-.7.6-.1.3-.2.8-.2 1.1 0 .3.1.5.3.5.2 0 .5-.2.6-.4.1-.2.3-.5.3-.8l.3-.7zm3.4-.4l-1.1 2.4c-.2.4-.4.9-.6 1.1-.2.3-.5.5-.9.5-.3 0-.6-.2-.6-.3v-.1l.1-.2.1.1c.1.1.2.1.4.1s.4-.2.6-.5l.2-.4h-.2s-.1 0-.1-.1l-.4-2.7.3-.1.3 2.7 1.2-2.7.7.2c0-.1 0-.1 0 0zm1.9 0l-.1.2h-.2c-.2-.1-.3-.1-.5-.1-.3 0-.5.2-.5.4 0 .1 0 .2.1.3.1.1.1.1.4.3.3.2.4.4.4.7s-.1.6-.4.8c-.2.1-.4.2-.7.2-.3 0-.7-.1-.8-.2l.1-.3h.2c.2.1.5.2.7.2.3 0 .5-.2.5-.5 0-.1-.1-.3-.2-.3-.1-.1-.1-.1-.4-.3-.3-.2-.4-.4-.4-.6 0-.5.4-.9 1-.9.5-.1.8 0 .8.1zm.5 3.8l-.3.3-.2-.1v-.1l.1-.1c1-1.1 1.5-2.2 1.5-3.5 0-.6-.1-1.2-.4-1.7v-.1s0-.1.1-.1l.2-.1h.1l.1.1c.1.1.2.4.3.6.2.4.2.8.2 1.3-.2 1.3-.7 2.5-1.7 3.5zM34.3 75.7l-3.8-5.8h7.7m86.9 5.8l-3.9-5.8h7.8"/></svg>
