<svg xmlns="http://www.w3.org/2000/svg" viewBox="0 0 320 471"><path fill="#706F6F" d="M0 449.9h320V471H0z"/><path fill="#DB7123" d="M32.4 32.6c0 .3 0 .3-.3.3h-1.8c-.3 0-.3 0-.3-.3v-6.3c0-1.1-.2-1.5-.9-1.5-.5 0-1 .2-1.7.9v6.9c0 .3 0 .3-.3.3h-1.8c-.3 0-.3 0-.3-.3v-6.1c0-1.3-.2-1.7-.9-1.7-.5 0-1 .3-1.7.9v6.9c0 .3 0 .3-.3.3H20c-.3 0-.3 0-.3-.3v-6.7c0-1-.1-1.4-.4-2.2 0-.1-.1-.2-.1-.2 0-.1.1-.2.2-.2l1.6-.5h.2c.2 0 .5.6.6 1.4 1.1-1 1.9-1.4 3-1.4 1 0 1.7.4 2.2 1.4 1.1-1 2-1.4 3.1-1.4.9 0 1.6.4 1.9 1 .3.6.4 1.1.4 2.3v6.5zm9.8 0l-1.6.6c-.1 0-.2.1-.2.1-.2 0-.4-.4-.6-1.2-.8.8-1.5 1.1-2.5 1.1-1.8 0-3-1.2-3-3s1-2.8 3-3.2c.5-.1 1.1-.2 2.2-.2v-.6c0-1.1-.3-1.5-1.3-1.5-.6 0-1.4.2-2.2.5-.1 0-.2.1-.2.1-.1 0-.2-.1-.2-.2l-.4-1.2v-.2c0-.4 1.8-.9 3.4-.9 1.6 0 2.6.5 3.1 1.5.2.4.3.9.3 1.7v4c0 .9.1 1.5.5 2.2 0 .1.1.2.1.2-.2.1-.3.2-.4.2zm-2.7-4.1c-2 0-2.8.4-2.8 1.6 0 .8.6 1.4 1.3 1.4.5 0 1-.3 1.5-.8v-2.2zm7.5 4.8c-1.2 0-2-.5-2.3-1.4-.2-.5-.2-.7-.2-2.4V19.3c0-.2.1-.3.3-.4l1.8-.4h.2c.1 0 .2.1.2.3v11.7c.1.3.2.4.5.4.2 0 .4 0 .7-.1h.1c.1 0 .1 0 .2.1l.4 1.6v.2c.1.3-.9.6-1.9.6zm10.4-.7l-1.6.6c-.1 0-.2.1-.2.1-.2 0-.4-.4-.6-1.2-.8.8-1.5 1.1-2.5 1.1-1.8 0-3-1.2-3-3s1-2.8 3-3.2c.5-.1 1.1-.2 2.2-.2v-.6c0-1.1-.3-1.5-1.3-1.5-.6 0-1.4.2-2.2.5-.1 0-.2.1-.2.1-.1 0-.2-.1-.2-.2l-.4-1.2v-.2c0-.4 1.8-.9 3.4-.9 1.6 0 2.6.5 3.1 1.5.2.4.3.9.3 1.7v4c0 .9.1 1.5.5 2.2 0 .1.1.2.1.2-.3.1-.3.2-.4.2zm-2.7-4.1c-2 0-2.8.4-2.8 1.6 0 .8.6 1.4 1.3 1.4.5 0 1-.3 1.5-.8v-2.2zm10.9-5.1l-.6 1.7c0 .1-.1.2-.2.2h-.1c-.3-.1-.6-.2-.8-.2-.4 0-.9.3-1.5 1v6.6c0 .3 0 .3-.3.3h-1.9c-.3 0-.3 0-.3-.3v-6.1c0-1.1-.1-1.7-.6-2.8v-.2c0-.1.1-.2.2-.2l1.6-.6.2-.1c.2 0 .5.6.8 1.6.4-.5.5-.6.7-.8.5-.5 1.1-.8 1.8-.8.6 0 1.1.2 1.1.4s-.1.3-.1.3zm5 9.2c0 .3 0 .3-.3.3h-1.9c-.3 0-.3 0-.3-.3V25h-1.5c-.3 0-.3 0-.3-.3v-1.2c0-.3 0-.3.3-.3h3.7c.3 0 .3 0 .3.3v9.1zm-1.4-10.8c-.9 0-1.6-.7-1.6-1.6 0-.9.7-1.6 1.6-1.6.9 0 1.6.7 1.6 1.6 0 .9-.7 1.6-1.6 1.6zm11.4 10.8l-1.6.6c-.1 0-.2.1-.2.1-.2 0-.4-.4-.6-1.2-.8.8-1.5 1.1-2.5 1.1-1.8 0-3-1.2-3-3s1-2.8 3-3.2c.5-.1 1.1-.2 2.2-.2v-.6c0-1.1-.3-1.5-1.3-1.5-.6 0-1.4.2-2.2.5-.1 0-.2.1-.2.1-.1 0-.2-.1-.2-.2l-.4-1.2v-.2c0-.4 1.8-.9 3.4-.9 1.6 0 2.6.5 3.1 1.5.2.4.3.9.3 1.7v4c0 .9.1 1.5.5 2.2 0 .1.1.2.1.2-.2.1-.3.2-.4.2zm-2.7-4.1c-2 0-2.8.4-2.8 1.6 0 .8.6 1.4 1.3 1.4.5 0 1-.3 1.5-.8v-2.2zm20.9-4.8l-2.7 9.2c-.1.3-.1.3-.4.3H94c-.3 0-.3 0-.4-.3l-.9-5c0-.2-.1-.3-.1-1l-.1-.9-.1-.5c-.2 1.1-.2 1.4-.4 2.2l-1.2 5.1c-.1.3-.1.3-.4.3h-1.6c-.3 0-.3 0-.4-.3L86 23.6v-.2c0-.1.1-.2.3-.2l1.8-.3h.2c.1 0 .2.1.2.3l.9 4.6c.1.5.2 1.2.4 3.1.1-1.3.2-2.3.4-2.9l1-4.7c.1-.3.1-.3.4-.3h1.8c.3 0 .3 0 .4.3l.9 4.5c.1.5.3 2 .4 3 .2-2 .3-2.7.4-3.3l1-4.4c.1-.2.1-.3.2-.3h.2l1.6.3c.2 0 .3.1.3.2.1.2.1.2 0 .4zm8.7 8.9l-1.6.6c-.1 0-.2.1-.2.1-.2 0-.4-.4-.6-1.2-.8.8-1.5 1.1-2.5 1.1-1.8 0-3-1.2-3-3s1-2.8 3-3.2c.5-.1 1.1-.2 2.2-.2v-.6c0-1.1-.3-1.5-1.3-1.5-.6 0-1.4.2-2.2.5-.1 0-.2.1-.2.1-.1 0-.2-.1-.2-.2l-.4-1.2v-.2c0-.4 1.8-.9 3.4-.9 1.6 0 2.6.5 3.1 1.5.2.4.3.9.3 1.7v4c0 .9.1 1.5.5 2.2 0 .1.1.2.1.2-.3.1-.3.2-.4.2zm-2.7-4.1c-2 0-2.8.4-2.8 1.6 0 .8.6 1.4 1.3 1.4.5 0 1-.3 1.5-.8v-2.2zm10.6 3.9c-.6.6-1.4.9-2.4.9-1.1 0-2.3-.3-3.4-.8-.4-.2-.4-.2-.4-.4 0-.1 0-.1.1-.2l.5-1.2c.1-.1.1-.2.2-.2 0 0 .1 0 .2.1 1.1.6 2 .9 2.7.9.7 0 1.2-.4 1.2-1s-.2-.8-1.5-1.3-1.7-.7-2.1-1.1c-.5-.5-.8-1.2-.8-2 0-1.9 1.5-3.2 3.5-3.2 1.3 0 3 .5 3 .9 0 .1 0 .1-.1.2l-.5 1.1c-.1.1-.1.2-.2.2h-.2c-.8-.3-1.5-.5-2-.5-.8 0-1.3.4-1.3 1 0 .5.2.7 1.3 1.2 1.5.6 1.9.8 2.3 1.2.5.5.8 1.2.8 2 0 .7-.3 1.6-.9 2.2zm14.2-3.7h-5.4c0 1.7.7 2.5 2.2 2.5.7 0 1.5-.2 2.3-.6.1-.1.2-.1.3-.1.1 0 .2.1.2.2l.5 1.2c.1.1.1.1.1.2 0 .2-.2.3-.8.6-.9.4-1.8.6-2.7.6-1.3 0-2.3-.3-3-1-1-.9-1.5-2.4-1.5-4.2 0-3.2 1.7-5.3 4.4-5.3s3.9 1.8 3.9 5.4c-.1.4-.1.5-.5.5zm-2.2-1.8c0-1.7-.4-2.3-1.5-2.3-1 0-1.5.6-1.7 2.3h3.2zm10.5-3.5l-.6 1.6c0 .1-.1.2-.2.2h-.1c-.3-.1-.6-.2-.8-.2-.4 0-.9.3-1.5 1v6.6c0 .3 0 .3-.3.3h-1.9c-.3 0-.3 0-.3-.3v-6.1c0-1.1-.1-1.7-.6-2.8v-.2c0-.1.1-.2.2-.2l1.6-.6.2-.1c.2 0 .5.6.8 1.6.4-.5.5-.6.7-.8.5-.5 1.1-.8 1.8-.8.6 0 1.1.2 1.1.4-.1.3-.1.4-.1.4zm8.4 9.2l-1.6.6c-.1 0-.2.1-.2.1-.2 0-.4-.4-.6-1.2-.8.8-1.5 1.1-2.5 1.1-1.8 0-3-1.2-3-3s1-2.8 3-3.2c.5-.1 1.1-.2 2.2-.2v-.6c0-1.1-.3-1.5-1.3-1.5-.6 0-1.4.2-2.2.5-.1 0-.2.1-.2.1-.1 0-.2-.1-.2-.2l-.4-1.2v-.2c0-.4 1.8-.9 3.4-.9 1.6 0 2.6.5 3.1 1.5.2.4.3.9.3 1.7v4c0 .9.1 1.5.5 2.2 0 .1.1.2.1.2-.2.1-.3.2-.4.2zm-2.7-4.1c-2 0-2.8.4-2.8 1.6 0 .8.6 1.4 1.3 1.4.5 0 1-.3 1.5-.8v-2.2zm12.8 4l-1.7.7c-.1 0-.1.1-.2.1-.2 0-.4-.4-.5-1-.9.7-1.8 1.1-2.8 1.1-2.1 0-3.2-1.9-3.2-5.1 0-2 .4-3.3 1.2-4.2.7-.8 1.5-1.2 2.5-1.2.7 0 1.3.2 2 .6v-4c0-.3 0-.3.3-.4l1.9-.4h.2c.1 0 .2.1.2.3v11.6c0 .8 0 1 .4 1.7v.1c-.1 0-.2.1-.3.1zm-2.7-7.3c-.5-.2-.9-.4-1.4-.4-1.3 0-1.7.9-1.7 3.3 0 2.3.5 3.3 1.6 3.3.6 0 1.2-.2 1.6-.7v-5.5zm8.4 7.4c0 .3 0 .3-.3.3h-1.9c-.3 0-.3 0-.3-.3V25H158c-.3 0-.3 0-.3-.3v-1.2c0-.3 0-.3.3-.3h3.7c.3 0 .3 0 .3.3v9.1zm-1.4-10.8c-.9 0-1.6-.7-1.6-1.6 0-.9.7-1.6 1.6-1.6.9 0 1.6.7 1.6 1.6 0 .9-.7 1.6-1.6 1.6zm10.9 2.3l-.7 1.3c0 .1-.1.1-.2.1s-.1 0-.2-.1c-.7-.5-1.1-.7-1.7-.7-1.4 0-2 1-2 3.3 0 2.2.6 3.1 2 3.1.6 0 1.1-.2 1.6-.6.1-.1.2-.1.2-.1.1 0 .1.1.2.1l.5 1.2.1.2c0 .5-1.5 1.1-2.9 1.1-2.7 0-4.3-1.9-4.3-5.1 0-3.4 1.8-5.5 4.6-5.5 1.2 0 2.8.6 2.8 1.1v.6zm8.6 8.5l-1.6.6c-.1 0-.2.1-.2.1-.2 0-.4-.4-.6-1.2-.8.8-1.5 1.1-2.5 1.1-1.8 0-3-1.2-3-3s1-2.8 3-3.2c.5-.1 1.1-.2 2.2-.2v-.6c0-1.1-.3-1.5-1.3-1.5-.6 0-1.4.2-2.2.5-.1 0-.2.1-.2.1-.1 0-.2-.1-.2-.2l-.4-1.2v-.2c0-.4 1.8-.9 3.4-.9 1.6 0 2.6.5 3.1 1.5.2.4.3.9.3 1.7v4c0 .9.1 1.5.5 2.2 0 .1.1.2.1.2-.2.1-.3.2-.4.2zm-2.7-4.1c-2 0-2.8.4-2.8 1.6 0 .8.6 1.4 1.3 1.4.5 0 1-.3 1.5-.8v-2.2zm10.4 4.5c-.7.2-1.4.3-2 .3-1 0-1.8-.3-2.2-1-.3-.5-.4-1-.4-2.1V25h-1.4c-.3 0-.3 0-.3-.3v-1.2c0-.3 0-.3.3-.3h1.4v-2.5c0-.3 0-.3.3-.4l1.8-.3h.2c.1 0 .2.1.2.3v2.8h2.3c.3 0 .3 0 .3.2v.2l-.3 1.2c-.1.2-.1.3-.4.3h-2v4.8c0 1.1.1 1.3.7 1.3.4 0 .6 0 1.3-.3h.2c.1 0 .2.1.2.2l.3 1.4v.2c.2.1 0 .2-.5.4zm9.1-4.3h-5.4c0 1.7.7 2.5 2.2 2.5.7 0 1.5-.2 2.3-.6.1-.1.2-.1.3-.1.1 0 .2.1.2.2l.5 1.2c.1.1.1.1.1.2 0 .2-.2.3-.8.6-.9.4-1.8.6-2.7.6-1.3 0-2.3-.3-3-1-1-.9-1.5-2.4-1.5-4.2 0-3.2 1.7-5.3 4.4-5.3 2.6 0 3.9 1.8 3.9 5.4 0 .4-.1.5-.5.5zm-2.2-1.8c0-1.7-.4-2.3-1.5-2.3s-1.5.6-1.7 2.3h3.2zm12.4 5.6l-1.7.7c-.1 0-.1.1-.2.1-.2 0-.4-.4-.5-1-.9.7-1.8 1.1-2.8 1.1-2.1 0-3.2-1.9-3.2-5.1 0-2 .4-3.3 1.2-4.2.7-.8 1.5-1.2 2.5-1.2.7 0 1.3.2 2 .6v-4c0-.3 0-.3.3-.4l1.9-.4h.2c.1 0 .2.1.2.3v11.6c0 .8 0 1 .4 1.7v.1c-.1 0-.2.1-.3.1zm-2.8-7.3c-.5-.2-.9-.4-1.4-.4-1.3 0-1.7.9-1.7 3.3 0 2.3.5 3.3 1.6 3.3.6 0 1.2-.2 1.6-.7v-5.5zm11.3.3c-.4.3-.9.5-1.8.8v1.4c0 .4-.1.4-.4.4h-1.4c-.4 0-.4-.1-.4-.4v-2.5c0-.3.1-.4.5-.5 1.7-.4 2.6-1.1 2.6-2.1 0-.9-.7-1.4-1.9-1.4-.7 0-1.2.1-2.2.6-.2.1-.3.1-.3.1-.1 0-.2-.1-.2-.2l-.5-1.4v-.2c0-.5 2.2-1.2 3.7-1.2 2.4 0 3.9 1.5 3.9 3.7-.1 1.2-.6 2.2-1.6 2.9zm-2.8 8c-.9 0-1.7-.8-1.7-1.7 0-.9.8-1.7 1.7-1.7.9 0 1.7.8 1.7 1.7 0 .9-.8 1.7-1.7 1.7z"/><path fill="#72706F" d="M26.3 45.6c-.1.2-.1.3-.3.3h-2.7v11.4c0 .3 0 .3-.3.3h-1.5c-.3 0-.4 0-.4-.3V45.9h-2.7c-.3 0-.3-.1-.3-.4v-1.2c0-.3 0-.3.3-.3h8c.4 0 .4.1.3.5l-.4 1.1zm9 11.7c0 .2-.1.3-.3.3h-1.5c-.3 0-.3-.1-.3-.3V51c0-1.2-.3-1.7-1.2-1.7-.7 0-1.3.3-2.2 1v7c0 .2 0 .3-.3.3h-1.4c-.3 0-.3 0-.3-.3V43.8c0-.2.1-.3.3-.3l1.4-.3c.3-.1.4-.1.4.2v5.4c.9-.9 1.8-1.3 2.9-1.3 2.1 0 2.5 1.3 2.5 3.1v6.7zm9.8-4h-5.5c.1 1.9.9 2.9 2.4 2.9 1.2 0 1.8-.4 2.4-.7.1-.1.2 0 .3.1l.5 1c.1.2 0 .4-.2.5-.8.5-2.1.8-3.1.8-2.7 0-4.3-1.9-4.3-5.1 0-3.1 1.6-5.2 4.1-5.2 2.4 0 3.8 1.8 3.8 4.9-.1.5 0 .8-.4.8zm-1.8-1.5c0-1.8-.6-2.6-1.8-2.6-1.2 0-1.8.8-1.9 2.6h3.7zm6.9 6.1c-1.1 0-2.3-.3-3.3-.9-.2-.1-.2-.1-.1-.4l.4-1c.1-.2.2-.1.4 0 .9.5 1.8.7 2.5.7.8 0 1.4-.5 1.4-1.3 0-.6-.3-.8-1.4-1.4-.5-.2-1.4-.7-1.9-1-.8-.5-1.1-1.3-1.1-2.1 0-1.8 1.4-3 3.3-3 .9 0 1.9.3 2.6.7.2.1.2.3.1.5l-.4.9c-.1.2-.2.2-.4.1-.7-.3-1.4-.5-1.9-.5-.9 0-1.4.4-1.4 1.2 0 .6.3.8 1.2 1.3.5.3 1.7.9 2 1 1 .6 1.3 1.2 1.3 2.2-.1 1.8-1.4 3-3.3 3zm12.4-4.6H57c.1 1.9.9 2.9 2.4 2.9 1.2 0 1.8-.4 2.4-.7.1-.1.2 0 .3.1l.5 1c.1.2 0 .4-.2.5-.8.5-2.1.8-3.1.8-2.7 0-4.3-1.9-4.3-5.1 0-3.1 1.6-5.2 4.1-5.2 2.4 0 3.8 1.8 3.8 4.9 0 .5 0 .8-.3.8zm-1.9-1.5c0-1.8-.6-2.6-1.8-2.6-1.2 0-1.8.8-1.9 2.6h3.7zm16.6 5.7c0 .2-.1.2-.3.2h-1.2c-.2 0-.3 0-.4-.2L74.3 52c-.1-.6-.2-1.3-.3-1.9-.1.7-.2 1.3-.3 1.9l-1.6 5.6c-.1.2-.1.2-.3.2h-1.2c-.2 0-.2 0-.3-.2L68 48.4c-.1-.2 0-.3.2-.4l1.4-.3c.2 0 .3-.1.3.2l1 4.9c.1.6.3 2.1.4 2.8.1-.8.1-1.5.3-2.2l1.4-5.3c.1-.2.1-.3.3-.3h1.3c.2 0 .2 0 .3.3l1.3 5.6c.1.6.2 1.3.3 1.9.1-.7.2-1.6.4-2.3l1.3-5.4c.1-.3.2-.3.4-.2l1.2.3c.3.1.2.1.2.4l-2.7 9.1zm7.8.4c-2.6 0-4.1-1.9-4.1-5.1 0-3.2 1.6-5.2 4.2-5.2s4.1 1.9 4.1 5.1c0 3.3-1.6 5.2-4.2 5.2zm.1-8.7c-1.4 0-2 1.1-2 3.5 0 2.5.6 3.6 2 3.6s2-1.1 2-3.6c0-2.4-.7-3.5-2-3.5zm14.1 8.2l-1.3.4c-.3.1-.4-.1-.5-.3-.1-.2-.2-.5-.3-.8-1 .9-1.8 1.2-2.8 1.2-2.2 0-2.8-1.3-2.8-3.3v-6.4c0-.2.1-.3.3-.3l1.4-.3c.2-.1.4 0 .4.2v6.3c0 1.5.3 2.1 1.3 2.1.7 0 1.4-.3 2.1-.9v-7.1c0-.2.1-.3.3-.3l1.4-.3c.2-.1.4-.1.4.2V55c0 1 .1 1.5.4 2-.2.1-.1.3-.3.4zm6.7-.2c.1.2.1.3-.1.4-.5.2-1.1.3-1.7.3-1.8 0-2.3-1-2.3-2.6V43.8c0-.2.1-.3.3-.3l1.5-.3c.3-.1.3 0 .3.3v11.8c0 .6.2.9.7.9.2 0 .5 0 .7-.2.2-.1.3-.1.3.1l.3 1.1zm7.4.6c-.3.1-.4-.1-.6-.4-.1-.2-.2-.4-.2-.7-1.1.9-1.9 1.2-2.9 1.2-2 0-3.2-1.9-3.2-5 0-2 .4-3.3 1.2-4.2.6-.7 1.5-1.1 2.4-1.1.7 0 1.3.2 2.1.6v-4.4c0-.2 0-.3.2-.3l1.4-.3c.3-.1.4-.1.4.3v11.3c0 1 0 1.4.4 1.9.1.2.3.3 0 .5l-1.2.6zm-1.2-8c-.7-.4-1.2-.5-1.7-.5-1.4 0-1.9 1-1.9 3.4 0 2.5.5 3.6 1.7 3.6.7 0 1.3-.3 2-.9v-5.6zm16 6.7c-.7 1-1.6 1.5-2.8 1.5-.9 0-1.5-.2-2.3-.9-.1.2-.2.4-.3.5-.2.3-.3.4-.6.3l-1.1-.4c-.3-.1-.2-.3-.1-.4.3-.5.4-1.1.4-2V43.8c0-.2.1-.3.3-.3l1.4-.3c.2-.1.3 0 .3.2v5.1c1-.7 1.7-.9 2.5-.9 2.1 0 3.2 1.7 3.2 4.7.1 1.9-.2 3.2-.9 4.2zm-2.8-7.2c-.6 0-1.1.2-2 .8v5.6c.5.4 1 .6 1.6.6 1.3 0 2.1-1.3 2.1-3.8 0-2.2-.6-3.2-1.7-3.2zm13 4h-5.5c.1 1.9.9 2.9 2.4 2.9 1.2 0 1.8-.4 2.4-.7.1-.1.2 0 .3.1l.5 1c.1.2 0 .4-.2.5-.8.5-2.1.8-3.1.8-2.7 0-4.3-1.9-4.3-5.1 0-3.1 1.6-5.2 4.1-5.2 2.4 0 3.8 1.8 3.8 4.9-.1.5-.1.8-.4.8zm-1.8-1.5c0-1.8-.6-2.6-1.8-2.6-1.2 0-1.8.8-1.9 2.6h3.7zm15.1 5.4l-1.2.6c-.3.1-.4 0-.5-.3-.1-.2-.2-.5-.3-.9-.9.9-1.6 1.2-2.7 1.2-1.7 0-2.8-1.1-2.8-2.9 0-3 2.9-3.4 5.2-3.4v-.6c0-1.2-.4-1.7-1.6-1.7-.7 0-1.4.2-2.3.6-.1.1-.3.1-.4-.1l-.3-1c-.1-.4.2-.5.4-.6 1-.4 1.9-.6 2.8-.6 2.2 0 3.3.9 3.3 3v3.9c0 1.1.1 1.7.5 2.3 0 .3 0 .5-.1.5zm-2.4-4.2c-1.3 0-3.2.1-3.2 1.8 0 .9.6 1.5 1.4 1.5.6 0 1.2-.3 1.9-1V53zm8.4 4.7c-.1.2-.1.2-.3.2h-1.2c-.2 0-.2 0-.3-.2l-3.3-9.3c-.1-.2-.1-.4.2-.4l1.5-.2c.2 0 .3 0 .4.2l1.7 5.5c.2.7.4 1.3.5 2.1.2-.9.3-1.4.5-2.1l1.9-5.5c.1-.2.2-.2.4-.2l1.3.2c.3.1.3.1.2.4l-3.5 9.3zm8.3.2c-2.6 0-4.1-1.9-4.1-5.1 0-3.2 1.6-5.2 4.2-5.2s4.1 1.9 4.1 5.1c0 3.3-1.6 5.2-4.2 5.2zm.1-8.7c-1.4 0-2 1.1-2 3.5 0 2.5.6 3.6 2 3.6s2-1.1 2-3.6c0-2.4-.7-3.5-2-3.5zm8.8 8.1c0 .2 0 .3-.3.3h-1.5c-.3 0-.3 0-.3-.3v-7.9h-1.5c-.3 0-.3 0-.3-.3v-1c0-.3 0-.3.3-.3h3.2c.2 0 .3 0 .3.3v9.2zm-1.1-11.2c-.8 0-1.4-.6-1.4-1.4 0-.8.6-1.4 1.4-1.4s1.4.6 1.4 1.4c0 .8-.6 1.4-1.4 1.4zm10.4 11.7c-.3.1-.4-.1-.6-.4-.1-.2-.2-.4-.2-.7-1.1.9-1.9 1.2-2.9 1.2-2 0-3.2-1.9-3.2-5 0-2 .4-3.3 1.2-4.2.6-.7 1.5-1.1 2.4-1.1.7 0 1.3.2 2.1.6v-4.4c0-.2 0-.3.2-.3l1.4-.3c.3-.1.4-.1.4.3v11.3c0 1 0 1.4.4 1.9.1.2.3.3 0 .5l-1.2.6zm-1.2-8c-.7-.4-1.2-.5-1.7-.5-1.4 0-1.9 1-1.9 3.4 0 2.5.5 3.6 1.7 3.6.7 0 1.3-.3 2-.9v-5.6zm12 3.5h-5.5c.1 1.9.9 2.9 2.4 2.9 1.2 0 1.8-.4 2.4-.7.1-.1.2 0 .3.1l.5 1c.1.2 0 .4-.2.5-.8.5-2.1.8-3.1.8-2.7 0-4.3-1.9-4.3-5.1 0-3.1 1.6-5.2 4.1-5.2 2.4 0 3.8 1.8 3.8 4.9-.1.5 0 .8-.4.8zm-1.8-1.5c0-1.8-.6-2.6-1.8-2.6-1.2 0-1.8.8-1.9 2.6h3.7zm10.4 6c-.3.1-.4-.1-.6-.4-.1-.2-.2-.4-.2-.7-1.1.9-1.9 1.2-2.9 1.2-2 0-3.2-1.9-3.2-5 0-2 .4-3.3 1.2-4.2.6-.7 1.5-1.1 2.5-1.1.7 0 1.3.2 2.1.6v-4.4c0-.2 0-.3.2-.3l1.4-.3c.3-.1.4-.1.4.3v11.3c0 1 0 1.4.4 1.9.1.2.3.3 0 .5l-1.3.6zm-1.1-8c-.7-.4-1.2-.5-1.7-.5-1.4 0-1.9 1-1.9 3.4 0 2.5.5 3.6 1.7 3.6.7 0 1.3-.3 2-.9v-5.6zM26.6 72.3H21c.1 1.9.9 2.9 2.4 2.9 1.2 0 1.8-.4 2.4-.7.1-.1.2 0 .3.1l.5 1c.1.2 0 .4-.2.5-.8.5-2.1.8-3.1.8-2.7 0-4.3-1.9-4.3-5.1 0-3.1 1.6-5.2 4.1-5.2 2.4 0 3.8 1.8 3.8 4.9 0 .5 0 .8-.3.8zm-1.8-1.6c0-1.8-.6-2.6-1.8-2.6-1.2 0-1.8.8-1.9 2.6h3.7zm11 5.5l-1.2.6c-.3.1-.4 0-.5-.3-.1-.2-.2-.5-.3-.9-.9.9-1.6 1.2-2.7 1.2-1.7 0-2.8-1.1-2.8-2.9 0-3 2.9-3.4 5.2-3.4v-.6c0-1.2-.4-1.7-1.6-1.7-.7 0-1.4.2-2.3.6-.1.1-.3.1-.4-.1l-.3-1c-.1-.4.2-.5.4-.6 1-.4 1.9-.6 2.8-.6 2.2 0 3.3.9 3.3 3v3.9c0 1.1.1 1.7.5 2.3 0 .3 0 .4-.1.5zM33.4 72c-1.3 0-3.2.1-3.2 1.8 0 .9.6 1.5 1.4 1.5.6 0 1.2-.3 1.9-1V72zm10.8-3c-.1.2-.3.1-.3 0-.8-.6-1.2-.8-1.8-.8-1.5 0-2.2 1.1-2.2 3.5 0 2.3.7 3.5 2.1 3.5.8 0 1.3-.3 2-.8.2-.1.3-.1.3 0l.4 1c.1.2.1.3-.1.5-.7.6-1.9.9-2.8.9-2.5 0-4-1.8-4-4.9 0-3.3 1.7-5.4 4.3-5.4 1 0 2 .3 2.6.9.2.1.3.3.2.5l-.7 1.1zm9.9 7.3c0 .2-.1.3-.3.3h-1.5c-.3 0-.3-.1-.3-.3v-6.4c0-1.2-.3-1.7-1.2-1.7-.7 0-1.3.3-2.2 1v7c0 .2 0 .3-.3.3h-1.4c-.3 0-.3 0-.3-.3V62.8c0-.2.1-.3.3-.3l1.4-.3c.3-.1.4-.1.4.2v5.4c.9-.9 1.8-1.3 2.9-1.3 2.1 0 2.5 1.3 2.5 3.1v6.7zm11.8-.7c-.3 1.2-.6 2.2-1.1 3.5-.5 1.2-1.4 1.8-2.7 1.8-.8 0-1.8-.3-2.4-.7-.2-.1-.2-.2-.1-.3l.6-1.1c.1-.2.2-.1.3 0 .6.4 1.2.6 1.6.6.8 0 1.2-.5 1.6-1.6l.3-1h-1c-.2 0-.3 0-.3-.2l-3.1-8.9c-.1-.2-.1-.4.2-.4l1.5-.3c.2 0 .4 0 .4.2l1.9 6.2.6 2.4c.1-.7.2-1.4.4-2l1.6-6.7c.1-.3.1-.3.3-.2l1.5.4c.1 0 .2.1.1.3l-2.2 8zm10.7-3.3h-5.5c.1 1.9.9 2.9 2.4 2.9 1.2 0 1.8-.4 2.4-.7.1-.1.2 0 .3.1l.5 1c.1.2 0 .4-.2.5-.8.5-2.1.8-3.1.8-2.7 0-4.3-1.9-4.3-5.1 0-3.1 1.6-5.2 4.1-5.2 2.4 0 3.8 1.8 3.8 4.9-.1.5 0 .8-.4.8zm-1.8-1.6c0-1.8-.6-2.6-1.8-2.6-1.2 0-1.8.8-1.9 2.6h3.7zm11 5.5l-1.2.6c-.3.1-.4 0-.5-.3-.1-.2-.2-.5-.3-.9-.9.9-1.6 1.2-2.7 1.2-1.7 0-2.8-1.1-2.8-2.9 0-3 2.9-3.4 5.2-3.4v-.6c0-1.2-.4-1.7-1.6-1.7-.7 0-1.4.2-2.3.6-.1.1-.3.1-.4-.1l-.3-1c-.1-.4.2-.5.4-.6 1-.4 1.9-.6 2.8-.6 2.2 0 3.3.9 3.3 3v3.9c0 1.1.1 1.7.5 2.3 0 .3.1.4-.1.5zM83.5 72c-1.3 0-3.2.1-3.2 1.8 0 .9.6 1.5 1.4 1.5.6 0 1.2-.3 1.9-1V72zm9.8-3.6c-.1.2-.1.2-.2.2-.3-.1-.4-.2-.7-.2-.5 0-1 .3-1.8 1.2v6.6c0 .3 0 .3-.3.3h-1.4c-.2 0-.3 0-.3-.3v-6c0-1.3-.1-1.8-.4-2.5-.1-.2-.3-.5 0-.6l1.2-.6c.4-.2.5.2.7.6.2.4.3.8.3 1 .7-.8 1.3-1.6 2.5-1.6.4 0 .7.1.9.2.2.1.2.2.1.4l-.6 1.3zm3.4 1.7c-.9 0-1.6-.7-1.6-1.6s.7-1.7 1.6-1.7 1.6.7 1.6 1.7-.7 1.6-1.6 1.6zm0 6.8c-.9 0-1.6-.7-1.6-1.6 0-.9.7-1.6 1.6-1.6s1.6.7 1.6 1.6c0 .9-.7 1.6-1.6 1.6z"/><path fill="#5A5958" fill-rule="evenodd" d="M0 164.7h320v51.4H0z" clip-rule="evenodd"/><path fill="#DB7123" fill-rule="evenodd" d="M0 207.7h319.5v81.4H0z" clip-rule="evenodd"/><path fill="#EC9046" fill-rule="evenodd" d="M0 288.6h319.5v81.3H0z" clip-rule="evenodd"/><path fill="#F1A375" fill-rule="evenodd" d="M0 368.6h319.5V450H0z" clip-rule="evenodd"/><path fill="#FFF" d="M186.1 200.5c-.6.3-.8-.1-1.1-.7-.2-.3-.3-.8-.4-1.3-2 1.6-3.6 2.2-5.3 2.2-3.7 0-5.9-3.5-5.9-9.3 0-3.6.7-6.1 2.2-7.8 1.2-1.3 2.7-2.1 4.6-2.1 1.3 0 2.4.3 3.9 1.1v-8.2c0-.4.1-.5.4-.6l2.7-.6c.5-.1.7-.1.7.5V195c0 1.9.1 2.6.7 3.6.2.3.6.6.1.9l-2.6 1zm-2.1-14.9c-1.2-.7-2.2-.9-3.2-.9-2.6 0-3.6 1.8-3.6 6.4 0 4.7.9 6.6 3.2 6.6 1.3 0 2.4-.5 3.6-1.7v-10.4zm22.3 6.5H196c.1 3.6 1.6 5.5 4.5 5.5 2.2 0 3.4-.8 4.5-1.3.2-.1.3-.1.5.2l.9 1.9c.2.4.1.7-.4.9-1.5.9-3.9 1.5-5.9 1.5-5 0-8-3.5-8-9.5 0-5.9 3-9.7 7.7-9.7 4.6 0 7 3.3 7 9.2.1.8.1 1.3-.5 1.3zm-3.4-2.9c-.1-3.3-1.1-4.9-3.3-4.9-2.2 0-3.3 1.6-3.6 4.9h6.9zm20.6 10.2l-2.3 1.1c-.5.3-.7 0-1-.5-.2-.4-.4-1-.6-1.7-1.6 1.6-3 2.2-5 2.2-3.2 0-5.3-2.1-5.3-5.3 0-5.6 5.3-6.3 9.7-6.4v-1.2c0-2.3-.7-3.1-2.9-3.1-1.3 0-2.5.3-4.3 1.1-.3.1-.6.1-.7-.2l-.6-1.8c-.3-.7.3-.9.7-1.1 1.8-.7 3.6-1.1 5.3-1.1 4.1 0 6.1 1.7 6.1 5.6v7.3c0 2.1.2 3.1.9 4.4.2.3.2.6 0 .7zm-4.5-7.8c-2.3 0-6 .2-6 3.4 0 1.6 1.1 2.8 2.5 2.8 1.1 0 2.3-.6 3.5-1.8v-4.4zm19.5 7.3c.1.4.1.6-.3.8-1.4.6-3 1-4.5 1-3.9 0-4.8-2.3-4.8-5.6V185h-2.6c-.5 0-.6-.1-.6-.6v-1.8c0-.4.1-.6.6-.6h2.6v-4.9c0-.4.1-.5.5-.6l2.5-.5c.5-.1.7-.2.7.4v5.5h4.9c.6 0 .5.3.4.7l-.4 1.7c-.1.4-.2.5-.6.5h-4.3v9.7c0 2.2.3 2.7 1.8 2.7 1.1 0 1.9-.3 2.8-.7.5-.2.6 0 .7.4l.6 2zm17.3.8c0 .4-.1.5-.6.5h-2.7c-.5 0-.5-.1-.5-.6v-11.8c0-2.3-.6-3.1-2.3-3.1-1.3 0-2.4.5-4 1.9v13.1c0 .4-.1.5-.5.5h-2.7c-.5 0-.6-.1-.6-.5v-25.1c0-.4.1-.5.5-.6l2.6-.5c.5-.1.7-.1.7.4v10c1.7-1.6 3.3-2.3 5.4-2.3 3.9 0 4.7 2.4 4.7 5.7v12.4zm10.2 1c-2 0-4.4-.6-6.1-1.6-.4-.3-.4-.3-.2-.7l.8-1.9c.1-.4.4-.2.7-.1 1.7.9 3.4 1.3 4.7 1.3 1.6 0 2.6-.9 2.6-2.3 0-1.1-.6-1.5-2.6-2.5-.9-.4-2.6-1.3-3.6-1.9-1.6-1-2.1-2.5-2.1-3.9 0-3.3 2.6-5.6 6.2-5.6 1.6 0 3.6.5 4.9 1.2.4.2.4.5.2.9l-.8 1.6c-.2.4-.4.3-.7.2-1.3-.6-2.5-.9-3.5-.9-1.7 0-2.6.8-2.6 2.2 0 1.1.6 1.6 2.3 2.4.9.5 3.1 1.6 3.7 1.9 1.9 1.1 2.4 2.3 2.4 4-.1 3.5-2.6 5.7-6.3 5.7zM184.7 347c0 .3-.1.3-.3.3h-1.6c-.3 0-.3 0-.3-.3v-7.1c0-1.3-.4-1.8-1.4-1.8-.8 0-1.5.3-2.4 1.1v7.8c0 .3 0 .3-.3.3h-1.6c-.3 0-.3 0-.3-.3v-7.5c0-.9-.1-1.5-.4-2.2-.1-.2-.1-.3.1-.4l1.5-.7c.2-.1.3.1.5.4.1.3.2.5.4 1.1 1.1-.8 1.9-1.5 3.3-1.5 2 0 2.9.9 2.9 3.4v7.4zm10.9-4.5h-6.1c.1 2.1 1 3.2 2.7 3.2 1.3 0 2-.5 2.7-.8.1-.1.2 0 .3.1l.5 1.1c.1.3 0 .4-.2.5-.9.5-2.3.9-3.5.9-3 0-4.7-2.1-4.7-5.7 0-3.5 1.8-5.7 4.6-5.7 2.7 0 4.2 1.9 4.2 5.5-.1.6-.1.9-.5.9zm-2-1.7c0-2-.7-2.9-2-2.9s-2 .9-2.1 2.9h4.1zm13.9 6.4c0 .2-.1.2-.3.2h-1.3c-.3 0-.4 0-.4-.3l-1.4-6.1c-.2-.7-.2-1.4-.3-2.1-.1.7-.2 1.5-.4 2.1l-1.7 6.2c-.1.2-.1.3-.3.3H200c-.2 0-.3 0-.3-.3l-2.6-10.1c-.1-.3 0-.3.2-.4l1.5-.3c.3 0 .3-.1.4.3l1.1 5.4c.2.7.4 2.3.5 3.1.1-.8.2-1.6.4-2.4l1.6-5.9c.1-.2.1-.3.3-.3h1.5c.2 0 .2 0 .3.3l1.4 6.2c.2.7.2 1.4.3 2.1.1-.8.2-1.8.4-2.6l1.4-5.9c.1-.4.2-.3.5-.2l1.3.3c.3.1.3.1.2.4l-2.9 10zm15.8-8.3c-.1.2-.3.1-.4 0-.9-.6-1.4-.8-2-.8-1.6 0-2.4 1.3-2.4 3.9 0 2.6.7 3.8 2.3 3.8.9 0 1.5-.4 2.2-.8.2-.2.3-.1.4 0l.4 1.1c.1.3.1.4-.1.5-.8.6-2 1-3.1 1-2.8 0-4.4-2-4.4-5.5 0-3.7 1.8-5.9 4.8-5.9 1.1 0 2.2.4 2.9 1 .2.2.3.4.2.5l-.8 1.2zm10 8l-1.3.7c-.3.2-.4 0-.6-.3-.1-.2-.3-.6-.4-1-.9.9-1.8 1.3-3 1.3-1.9 0-3.1-1.2-3.1-3.2 0-3.3 3.2-3.8 5.8-3.8v-.7c0-1.3-.4-1.8-1.7-1.8-.7 0-1.5.2-2.5.6-.2.1-.3.1-.4-.1l-.4-1.1c-.2-.4.2-.5.4-.6 1.1-.4 2.1-.6 3.1-.6 2.4 0 3.6 1 3.6 3.3v4.3c0 1.2.1 1.8.5 2.6.1.1.1.3 0 .4zm-2.7-4.7c-1.4 0-3.6.1-3.6 2 0 .9.6 1.6 1.5 1.6.7 0 1.3-.3 2.1-1.1v-2.5zm8.4 5.4c-1.2 0-2.6-.3-3.6-.9-.3-.2-.2-.2-.1-.4l.5-1.1c.1-.2.3-.1.4 0 1 .5 2 .8 2.8.8.9 0 1.5-.5 1.5-1.4 0-.7-.4-.9-1.5-1.5-.5-.3-1.6-.8-2.1-1.1-.9-.6-1.2-1.5-1.2-2.3 0-1.9 1.5-3.3 3.6-3.3.9 0 2.1.3 2.9.7.2.1.2.3.1.5l-.5 1c-.1.2-.2.2-.4.1-.8-.4-1.5-.5-2.1-.5-1 0-1.5.5-1.5 1.3 0 .7.4.9 1.3 1.5.5.3 1.8.9 2.2 1.1 1.1.6 1.4 1.4 1.4 2.4-.1 1.8-1.6 3.1-3.7 3.1zm13.7-5.1h-6.1c.1 2.1 1 3.2 2.7 3.2 1.3 0 2-.5 2.7-.8.1-.1.2 0 .3.1l.5 1.1c.1.3 0 .4-.2.5-.9.5-2.3.9-3.5.9-3 0-4.7-2.1-4.7-5.7 0-3.5 1.8-5.7 4.6-5.7 2.7 0 4.2 1.9 4.2 5.5-.2.6-.2.9-.5.9zm-2-1.7c0-2-.7-2.9-2-2.9s-2 .9-2.1 2.9h4.1zm7.5 6.8c-1.2 0-2.6-.3-3.6-.9-.3-.2-.2-.2-.1-.4l.5-1.1c.1-.2.3-.1.4 0 1 .5 2 .8 2.8.8.9 0 1.5-.5 1.5-1.4 0-.7-.4-.9-1.5-1.5-.5-.3-1.6-.8-2.1-1.1-.9-.6-1.2-1.5-1.2-2.3 0-1.9 1.5-3.3 3.6-3.3.9 0 2.1.3 2.9.7.2.1.2.3.1.5l-.5 1c-.1.2-.2.2-.4.1-.8-.4-1.5-.5-2.1-.5-1 0-1.5.5-1.5 1.3 0 .7.4.9 1.3 1.5.5.3 1.8.9 2.2 1.1 1.1.6 1.4 1.4 1.4 2.4-.1 1.8-1.5 3.1-3.7 3.1zM183.8 244l-1.3.7c-.3.2-.4 0-.6-.3-.1-.2-.3-.6-.4-1-.9.9-1.8 1.3-3 1.3-1.9 0-3.1-1.2-3.1-3.2 0-3.3 3.2-3.8 5.8-3.8v-.7c0-1.3-.4-1.8-1.7-1.8-.7 0-1.5.2-2.5.6-.2.1-.3.1-.4-.1l-.4-1.1c-.2-.4.2-.5.4-.6 1.1-.4 2.1-.6 3.1-.6 2.4 0 3.6 1 3.6 3.3v4.3c0 1.2.1 1.8.5 2.6.1.2.1.3 0 .4zm-2.7-4.6c-1.4 0-3.6.1-3.6 2 0 .9.6 1.6 1.5 1.6.7 0 1.3-.3 2.1-1.1v-2.5zm10.9-4c-.1.2-.2.2-.3.2-.3-.1-.5-.2-.8-.2-.5 0-1.1.3-1.9 1.3v7.3c0 .3 0 .3-.3.3h-1.6c-.3 0-.3 0-.3-.3v-6.7c0-1.4-.1-2-.4-2.7-.1-.2-.4-.5 0-.7l1.3-.6c.4-.2.5.3.7.7.2.4.3.9.3 1.1.8-.9 1.5-1.8 2.7-1.8.4 0 .8.1 1 .2.2.1.2.2.1.4l-.5 1.5zm9.7 4.2h-6.1c.1 2.1 1 3.2 2.7 3.2 1.3 0 2-.5 2.7-.8.1-.1.2 0 .3.1l.5 1.1c.1.3 0 .4-.2.5-.9.5-2.3.9-3.5.9-3 0-4.7-2.1-4.7-5.7 0-3.5 1.8-5.7 4.6-5.7 2.7 0 4.2 1.9 4.2 5.5-.2.6-.2.9-.5.9zm-2-1.6c0-2-.7-2.9-2-2.9s-2 .9-2.1 2.9h4.1zm15.5-1.9c-.1.2-.3.1-.4 0-.9-.6-1.4-.8-2-.8-1.6 0-2.4 1.3-2.4 3.9 0 2.6.7 3.8 2.3 3.8.9 0 1.5-.4 2.2-.8.2-.2.3-.1.4 0l.4 1.1c.1.3.1.4-.1.5-.8.6-2 1-3.1 1-2.8 0-4.4-2-4.4-5.5 0-3.7 1.8-5.9 4.8-5.9 1.1 0 2.2.4 2.9 1 .2.2.3.4.2.5l-.8 1.2zm10.9 8c0 .3-.1.3-.3.3h-1.6c-.3 0-.3-.1-.3-.4v-7c0-1.4-.4-1.8-1.4-1.8-.8 0-1.4.3-2.4 1.1v7.8c0 .3 0 .3-.3.3h-1.6c-.3 0-.4 0-.4-.3v-14.9c0-.2.1-.3.3-.4l1.5-.3c.3-.1.4-.1.4.3v5.9c1-1 2-1.4 3.2-1.4 2.3 0 2.8 1.4 2.8 3.4v7.4zm5.9 0c0 .3 0 .3-.3.3h-1.6c-.3 0-.3 0-.3-.3v-8.7h-1.7c-.3 0-.3 0-.3-.3V234c0-.3 0-.3.3-.3h3.6c.3 0 .3 0 .3.3v10.1zm-1.2-12.4c-.9 0-1.6-.7-1.6-1.6 0-.9.7-1.6 1.6-1.6s1.6.7 1.6 1.6c0 .9-.7 1.6-1.6 1.6zm9.1 12.3c.1.2.1.3-.1.4-.5.2-1.3.4-1.9.4-2 0-2.5-1.1-2.5-2.9v-12.6c0-.2.1-.3.3-.4l1.6-.4c.3-.1.3 0 .3.3v13c0 .7.2.9.7.9.2 0 .5 0 .8-.2.2-.1.3-.1.4.1l.4 1.4zm8.2.6c-.3.2-.5-.1-.6-.4-.1-.2-.2-.5-.2-.8-1.2.9-2.1 1.3-3.2 1.3-2.2 0-3.5-2.1-3.5-5.5 0-2.2.4-3.6 1.3-4.6.7-.8 1.6-1.2 2.7-1.2.8 0 1.4.2 2.3.7v-4.8c0-.2 0-.3.2-.4l1.6-.3c.3-.1.4-.1.4.3v12.5c0 1.1 0 1.5.4 2.1.1.2.3.4 0 .5l-1.4.6zm-1.3-8.8c-.7-.4-1.3-.5-1.9-.5-1.5 0-2.1 1.1-2.1 3.8 0 2.8.5 3.9 1.9 3.9.7 0 1.4-.3 2.2-1v-6.2zm11-.4c-.1.2-.2.2-.3.2-.3-.1-.5-.2-.8-.2-.5 0-1.1.3-1.9 1.3v7.3c0 .3 0 .3-.3.3h-1.6c-.3 0-.3 0-.3-.3v-6.7c0-1.4-.1-2-.4-2.7-.1-.2-.4-.5 0-.7l1.3-.6c.4-.2.5.3.7.7.2.4.3.9.3 1.1.8-.9 1.5-1.8 2.7-1.8.4 0 .8.1 1 .2.2.1.2.2.1.4l-.5 1.5zm9.7 4.2h-6.1c.1 2.1 1 3.2 2.7 3.2 1.3 0 2-.5 2.7-.8.1-.1.2 0 .3.1l.5 1.1c.1.3 0 .4-.2.5-.9.5-2.3.9-3.5.9-3 0-4.7-2.1-4.7-5.7 0-3.5 1.8-5.7 4.6-5.7 2.7 0 4.2 1.9 4.2 5.5-.2.6-.2.9-.5.9zm-2-1.6c0-2-.7-2.9-2-2.9s-2 .9-2.1 2.9h4.1zm13 6.1c0 .3-.1.3-.3.3h-1.6c-.3 0-.3 0-.3-.3V237c0-1.3-.4-1.8-1.4-1.8-.8 0-1.5.3-2.4 1.1v7.8c0 .3 0 .3-.3.3h-1.6c-.3 0-.3 0-.3-.3v-7.5c0-.9-.1-1.5-.4-2.2-.1-.2-.1-.3.1-.4l1.5-.7c.2-.1.3.1.5.4.1.3.2.5.4 1.1 1.1-.8 1.9-1.5 3.3-1.5 2 0 2.9.9 2.9 3.4v7.4zm-93.8 24l-1.4.5c-.3.1-.5-.1-.6-.3-.1-.2-.2-.5-.3-.9-1.1 1-1.9 1.3-3.1 1.3-2.4 0-3.1-1.4-3.1-3.6v-7c0-.2.1-.3.3-.3l1.5-.4c.3-.1.4 0 .4.3v6.9c0 1.7.4 2.3 1.5 2.3.7 0 1.5-.3 2.3-1v-7.8c0-.2.1-.3.3-.3l1.5-.4c.3-.1.4-.1.4.3v7.9c0 1.1.1 1.6.5 2.2 0 .1.1.3-.2.3zm11.3 0c0 .3-.1.3-.3.3H194c-.3 0-.3 0-.3-.3V261c0-1.3-.4-1.8-1.4-1.8-.8 0-1.5.3-2.4 1.1v7.8c0 .3 0 .3-.3.3H188c-.3 0-.3 0-.3-.3v-7.5c0-.9-.1-1.5-.4-2.2-.1-.2-.1-.3.1-.4l1.5-.7c.2-.1.3.1.5.4.1.3.2.5.4 1.1 1.1-.8 1.9-1.5 3.3-1.5 2 0 2.9.9 2.9 3.4v7.4zm10 .5c-.3.2-.5-.1-.6-.4-.1-.2-.2-.5-.2-.8-1.2.9-2.1 1.3-3.2 1.3-2.2 0-3.5-2.1-3.5-5.5 0-2.2.4-3.6 1.3-4.6.7-.8 1.6-1.2 2.7-1.2.8 0 1.4.2 2.3.7v-4.8c0-.2 0-.3.2-.4l1.6-.3c.3-.1.4-.1.4.3v12.5c0 1.1 0 1.5.4 2.1.1.2.3.4 0 .5l-1.4.6zm-1.2-8.8c-.7-.4-1.3-.5-1.9-.5-1.5 0-2.1 1.1-2.1 3.8 0 2.8.5 3.9 1.9 3.9.7 0 1.4-.3 2.2-1v-6.2zm13.2 3.8h-6.1c.1 2.1 1 3.2 2.7 3.2 1.3 0 2-.5 2.7-.8.1-.1.2 0 .3.1l.5 1.1c.1.3 0 .4-.2.5-.9.5-2.3.9-3.5.9-3 0-4.7-2.1-4.7-5.7 0-3.5 1.8-5.7 4.6-5.7 2.7 0 4.2 1.9 4.2 5.5-.2.6-.1.9-.5.9zm-2-1.7c0-2-.7-2.9-2-2.9s-2 .9-2.1 2.9h4.1zm10.1-2.5c-.1.2-.2.2-.3.2-.3-.1-.5-.2-.8-.2-.5 0-1.1.3-1.9 1.3v7.3c0 .3 0 .3-.3.3h-1.6c-.3 0-.3 0-.3-.3v-6.7c0-1.4-.1-2-.4-2.7-.1-.2-.4-.5 0-.7l1.3-.6c.4-.2.5.3.7.7.2.4.3.9.3 1.1.8-.9 1.5-1.8 2.7-1.8.4 0 .8.1 1 .2.2.1.2.2.1.4l-.5 1.5zm12.4-4.7c-.1.2-.3.1-.5.1-.5-.2-1-.4-1.4-.4-1 0-1.3.4-1.3 2v1.3h2.9c.2 0 .3.1.2.2l-.4 1.2c-.1.2-.1.2-.2.2h-2.5v8.7c0 .2 0 .3-.3.3h-1.6c-.3 0-.3 0-.3-.3v-8.7h-1.6c-.2 0-.3 0-.3-.2V258c0-.3.1-.3.4-.3h1.5v-1.3c0-1.7.2-2.4.9-3.1.6-.5 1.3-.8 2.3-.8.9 0 1.9.2 2.4.5.2.2.2.2.1.4l-.3 1.3zm4.6 13.4c0 .3 0 .3-.3.3h-1.6c-.3 0-.3 0-.3-.3v-8.7h-1.7c-.3 0-.3 0-.3-.3V258c0-.3 0-.3.3-.3h3.6c.3 0 .3 0 .3.3v10.1zm-1.2-12.4c-.9 0-1.6-.7-1.6-1.6 0-.9.7-1.6 1.6-1.6s1.6.7 1.6 1.6c0 .9-.7 1.6-1.6 1.6zm8.7 12.8c-.1.2-.1.2-.4.2h-1.3c-.2 0-.2 0-.3-.2l-3.7-10.2c-.1-.3-.1-.4.2-.4l1.7-.3c.2 0 .3 0 .4.2l1.9 6.1c.2.7.4 1.5.6 2.3.2-1 .4-1.6.6-2.3l2.1-6.1c.1-.3.2-.3.5-.2l1.4.3c.3.1.3.1.2.4l-3.9 10.2zm12.9-4.9h-6.1c.1 2.1 1 3.2 2.7 3.2 1.3 0 2-.5 2.7-.8.1-.1.2 0 .3.1l.5 1.1c.1.3 0 .4-.2.5-.9.5-2.3.9-3.5.9-3 0-4.7-2.1-4.7-5.7 0-3.5 1.8-5.7 4.6-5.7 2.7 0 4.2 1.9 4.2 5.5-.1.6-.1.9-.5.9zm-2-1.7c0-2-.7-2.9-2-2.9s-2 .9-2.1 2.9h4.1z"/><g fill="#FFF"><path d="M180.8 404.2c.1.2.1.3-.1.4-.5.2-1.3.4-1.9.4-2 0-2.5-1.1-2.5-2.9v-12.6c0-.2.1-.3.3-.4l1.6-.4c.3-.1.3 0 .3.3v13c0 .7.2.9.7.9.2 0 .5 0 .8-.2.2-.1.3-.1.4.1l.4 1.4zm5.1.8c-2.9 0-4.5-2.1-4.5-5.7s1.7-5.7 4.6-5.7c2.8 0 4.5 2.1 4.5 5.7 0 3.5-1.7 5.7-4.6 5.7zm.1-9.6c-1.5 0-2.2 1.2-2.2 3.8 0 2.7.7 4 2.2 4 1.5 0 2.2-1.2 2.2-4 0-2.6-.7-3.8-2.2-3.8zm9.9 9.6c-1.2 0-2.6-.3-3.6-.9-.3-.2-.2-.2-.1-.4l.5-1.1c.1-.2.3-.1.4 0 1 .5 2 .8 2.8.8.9 0 1.5-.5 1.5-1.4 0-.7-.4-.9-1.5-1.5-.5-.3-1.6-.8-2.1-1.1-.9-.6-1.2-1.5-1.2-2.3 0-1.9 1.5-3.3 3.6-3.3.9 0 2.1.3 2.9.7.2.1.2.3.1.5l-.5 1c-.1.2-.2.2-.4.1-.8-.4-1.5-.5-2.1-.5-1 0-1.5.5-1.5 1.3 0 .7.4.9 1.3 1.5.5.3 1.8.9 2.2 1.1 1.1.6 1.4 1.4 1.4 2.4 0 1.8-1.5 3.1-3.7 3.1zm12.2-1.1c.1.3.1.3-.2.5-.8.4-1.8.6-2.6.6-2.3 0-2.8-1.3-2.8-3.3v-6H201c-.3 0-.4-.1-.4-.3v-1.1c0-.3.1-.3.4-.3h1.5v-2.9c0-.2.1-.3.3-.3l1.5-.3c.3 0 .4-.1.4.3v3.2h2.9c.3 0 .3.2.2.4l-.2 1c0 .2-.1.3-.3.3h-2.6v5.8c0 1.3.2 1.6 1.1 1.6.6 0 1.1-.2 1.7-.4.3-.1.3 0 .4.2l.2 1zm8.7.5c0 .3 0 .3-.3.3H215c-.3 0-.3 0-.3-.3v-8.7H213c-.3 0-.3 0-.3-.3v-1.1c0-.3 0-.3.3-.3h3.6c.3 0 .3 0 .3.3v10.1zm-1.2-12.4c-.9 0-1.6-.7-1.6-1.6 0-.9.7-1.6 1.6-1.6s1.6.7 1.6 1.6c0 .9-.7 1.6-1.6 1.6zm13 12.4c0 .3-.1.3-.3.3h-1.6c-.3 0-.3 0-.3-.3v-7.1c0-1.3-.4-1.8-1.4-1.8-.8 0-1.5.3-2.4 1.1v7.8c0 .3 0 .3-.3.3h-1.6c-.3 0-.3 0-.3-.3v-7.5c0-.9-.1-1.5-.4-2.2-.1-.2-.1-.3.1-.4l1.5-.7c.2-.1.3.1.5.4.1.3.2.5.4 1.1 1.1-.8 1.9-1.5 3.3-1.5 2 0 2.9.9 2.9 3.4v7.4zm17.7-.3c.1.3.2.5-.3.5h-1.9c-.3 0-.4 0-.4-.3l-1.1-3.9h-4.1l-1.1 3.9c-.1.3-.2.3-.4.3h-1.8c-.5 0-.4-.2-.3-.5l4.4-14.2c.1-.3.1-.3.4-.3h1.8c.3 0 .3 0 .4.3l4.4 14.2zm-4.2-5.5l-1.1-4.4c-.2-.7-.3-1.5-.5-2.4-.2.9-.3 1.7-.5 2.4l-1.1 4.4h3.2zm12-7.7c-.1.2-.3.1-.5.1-.5-.2-1-.4-1.4-.4-1 0-1.3.4-1.3 2v1.3h2.9c.2 0 .3.1.2.2l-.4 1.2c-.1.2-.1.2-.2.2h-2.5v8.7c0 .2 0 .3-.3.3H249c-.3 0-.3 0-.3-.3v-8.7h-1.6c-.2 0-.3 0-.3-.2v-1.2c0-.3.1-.3.4-.3h1.5v-1.3c0-1.7.2-2.4.9-3.1.6-.5 1.3-.8 2.3-.8.9 0 1.9.2 2.4.5.2.2.2.2.1.4l-.3 1.4zm6 4.8c-.1.2-.2.2-.3.2-.3-.1-.5-.2-.8-.2-.5 0-1.1.3-1.9 1.3v7.3c0 .3 0 .3-.3.3h-1.6c-.3 0-.3 0-.3-.3v-6.7c0-1.4-.1-2-.4-2.7-.1-.2-.4-.5 0-.7l1.3-.6c.4-.2.5.3.7.7.2.4.3.9.3 1.1.8-.9 1.5-1.8 2.7-1.8.4 0 .8.1 1 .2.2.1.2.2.1.4l-.5 1.5zm5.8 8.7c0 .3 0 .3-.3.3H264c-.3 0-.3 0-.3-.3v-8.7H262c-.3 0-.3 0-.3-.3v-1.1c0-.3 0-.3.3-.3h3.6c.3 0 .3 0 .3.3v10.1zm-1.2-12.4c-.9 0-1.6-.7-1.6-1.6 0-.9.7-1.6 1.6-1.6s1.6.7 1.6 1.6c-.1.9-.7 1.6-1.6 1.6zm11 4.3c-.1.2-.3.1-.4 0-.9-.6-1.4-.8-2-.8-1.6 0-2.4 1.3-2.4 3.9 0 2.6.7 3.8 2.3 3.8.9 0 1.5-.4 2.2-.8.2-.2.3-.1.4 0l.4 1.1c.1.3.1.4-.1.5-.8.6-2 1-3.1 1-2.8 0-4.4-2-4.4-5.5 0-3.7 1.8-5.9 4.8-5.9 1.1 0 2.2.4 2.9 1 .2.2.3.4.2.5l-.8 1.2zm10 7.9l-1.3.7c-.3.2-.4 0-.6-.3-.1-.2-.3-.6-.4-1-.9.9-1.8 1.3-3 1.3-1.9 0-3.1-1.2-3.1-3.2 0-3.3 3.2-3.8 5.8-3.8v-.7c0-1.3-.4-1.8-1.7-1.8-.7 0-1.5.2-2.5.6-.2.1-.3.1-.4-.1l-.4-1.1c-.2-.4.2-.5.4-.6 1.1-.4 2.1-.6 3.1-.6 2.4 0 3.6 1 3.6 3.3v4.3c0 1.2.1 1.8.5 2.6.1.2.2.4 0 .4zm-2.6-4.6c-1.4 0-3.6.1-3.6 2 0 .9.6 1.6 1.5 1.6.7 0 1.3-.3 2.1-1.1v-2.5zm6.1-5.3c-.2.3-.2.3-.5.2l-.7-.2c-.3-.1-.3-.2-.2-.5l1.3-4.4c.1-.2.2-.3.4-.3h2c.4 0 .4.2.3.5l-2.6 4.7zm6.6 10.7c-1.2 0-2.6-.3-3.6-.9-.3-.2-.2-.2-.1-.4l.5-1.1c.1-.2.3-.1.4 0 1 .5 2 .8 2.8.8.9 0 1.5-.5 1.5-1.4 0-.7-.4-.9-1.5-1.5-.5-.3-1.6-.8-2.1-1.1-.9-.6-1.2-1.5-1.2-2.3 0-1.9 1.5-3.3 3.6-3.3.9 0 2.1.3 2.9.7.2.1.2.3.1.5l-.5 1c-.1.2-.2.2-.4.1-.8-.4-1.5-.5-2.1-.5-1 0-1.5.5-1.5 1.3 0 .7.4.9 1.3 1.5.5.3 1.8.9 2.2 1.1 1.1.6 1.4 1.4 1.4 2.4 0 1.8-1.5 3.1-3.7 3.1zm-114.7 24c-.9 0-1.5-.2-2.4-.8v4.4c0 .2 0 .3-.3.3l-1.6.4c-.2.1-.4 0-.4-.3v-12c0-.9-.1-1.3-.4-1.9-.2-.4-.3-.5 0-.7l1.4-.7c.3-.2.4.1.6.4.1.2.2.5.3.8 1.1-.9 1.9-1.2 2.9-1.2 2.4 0 3.6 1.9 3.6 5.5.1 3.7-1.3 5.8-3.7 5.8zm-.3-9.5c-.7 0-1.2.2-2.1.9v6.1c.8.5 1.3.7 2 .7 1.5 0 2-1.1 2-4-.1-2.6-.6-3.7-1.9-3.7zm12 .2c-.1.2-.2.2-.3.2-.3-.1-.5-.2-.8-.2-.5 0-1.1.3-1.9 1.3v7.3c0 .3 0 .3-.3.3h-1.6c-.3 0-.3 0-.3-.3v-6.7c0-1.4-.1-2-.4-2.7-.1-.2-.4-.5 0-.7l1.3-.6c.4-.2.5.3.7.7.2.4.3.9.3 1.1.8-.9 1.5-1.8 2.7-1.8.4 0 .8.1 1 .2.2.1.2.2.1.4l-.5 1.5zm5.8 9.3c-2.9 0-4.5-2.1-4.5-5.7s1.7-5.7 4.6-5.7c2.8 0 4.5 2.1 4.5 5.7.1 3.5-1.7 5.7-4.6 5.7zm.1-9.6c-1.5 0-2.2 1.2-2.2 3.8 0 2.7.7 4 2.2 4 1.5 0 2.2-1.2 2.2-4 0-2.6-.7-3.8-2.2-3.8zm13.9 9.5c-.3.2-.5-.1-.6-.4-.1-.2-.2-.5-.2-.8-1.2.9-2.1 1.3-3.2 1.3-2.2 0-3.5-2.1-3.5-5.5 0-2.2.4-3.6 1.3-4.6.7-.8 1.6-1.2 2.7-1.2.8 0 1.4.2 2.3.7v-4.8c0-.2 0-.3.2-.4l1.6-.3c.3-.1.4-.1.4.3v12.5c0 1.1 0 1.5.4 2.1.1.2.3.4 0 .5l-1.4.6zm-1.3-8.9c-.7-.4-1.3-.5-1.9-.5-1.5 0-2.1 1.1-2.1 3.8 0 2.8.5 3.9 1.9 3.9.7 0 1.4-.3 2.2-1V420zm14.1 8.4l-1.4.5c-.3.1-.5-.1-.6-.3-.1-.2-.2-.5-.3-.9-1.1 1-1.9 1.3-3.1 1.3-2.4 0-3.1-1.4-3.1-3.6v-7c0-.2.1-.3.3-.3l1.5-.4c.3-.1.4 0 .4.3v6.9c0 1.7.4 2.3 1.5 2.3.7 0 1.5-.3 2.3-1v-7.8c0-.2.1-.3.3-.3l1.5-.4c.3-.1.4-.1.4.3v7.9c0 1.1.1 1.6.5 2.2 0 0 0 .2-.2.3zm9.3-8.1c-.1.2-.3.1-.4 0-.9-.6-1.4-.8-2-.8-1.6 0-2.4 1.3-2.4 3.9 0 2.6.7 3.8 2.3 3.8.9 0 1.5-.4 2.2-.8.2-.2.3-.1.4 0l.4 1.1c.1.3.1.4-.1.5-.8.6-2 1-3.1 1-2.8 0-4.4-2-4.4-5.5 0-3.7 1.8-5.9 4.8-5.9 1.1 0 2.2.4 2.9 1 .2.2.3.4.2.5l-.8 1.2zm8.9 7.6c.1.3.1.3-.2.5-.8.4-1.8.6-2.6.6-2.3 0-2.8-1.3-2.8-3.3v-6h-1.5c-.3 0-.4-.1-.4-.3v-1.1c0-.3.1-.3.4-.3h1.5v-2.9c0-.2.1-.3.3-.3l1.5-.3c.3 0 .4-.1.4.3v3.2h2.9c.3 0 .3.2.2.4l-.2 1c0 .2-.1.3-.3.3h-2.6v5.8c0 1.3.2 1.6 1.1 1.6.6 0 1.1-.2 1.7-.4.3-.1.3 0 .4.2l.2 1zm4.8.5c0 .3 0 .3-.3.3h-1.6c-.3 0-.3 0-.3-.3v-8.7h-1.7c-.3 0-.3 0-.3-.3v-1.1c0-.3 0-.3.3-.3h3.6c.3 0 .3 0 .3.3v10.1zm-1.2-12.4c-.9 0-1.6-.7-1.6-1.6 0-.9.7-1.6 1.6-1.6s1.6.7 1.6 1.6c0 .9-.7 1.6-1.6 1.6zm8.7 12.7c-.1.2-.1.2-.4.2h-1.3c-.2 0-.2 0-.3-.2l-3.7-10.2c-.1-.3-.1-.4.2-.4l1.7-.3c.2 0 .3 0 .4.2l1.9 6.1c.2.7.4 1.5.6 2.3.2-1 .4-1.6.6-2.3l2.1-6.1c.1-.3.2-.3.5-.2l1.4.3c.3.1.3.1.2.4l-3.9 10.2zm8.8-.3c0 .3 0 .3-.3.3h-1.6c-.3 0-.3 0-.3-.3v-8.7h-1.7c-.3 0-.3 0-.3-.3v-1.1c0-.3 0-.3.3-.3h3.6c.3 0 .3 0 .3.3v10.1zm-1.2-12.4c-.9 0-1.6-.7-1.6-1.6 0-.9.7-1.6 1.6-1.6s1.6.7 1.6 1.6c0 .9-.7 1.6-1.6 1.6zm10.7 11.9c.1.3.1.3-.2.5-.8.4-1.8.6-2.6.6-2.3 0-2.8-1.3-2.8-3.3v-6H267c-.3 0-.4-.1-.4-.3v-1.1c0-.3.1-.3.4-.3h1.5v-2.9c0-.2.1-.3.3-.3l1.5-.3c.3 0 .4-.1.4.3v3.2h2.9c.3 0 .3.2.2.4l-.2 1c0 .2-.1.3-.3.3h-2.6v5.8c0 1.3.2 1.6 1.1 1.6.6 0 1.1-.2 1.7-.4.3-.1.3 0 .4.2l.3 1z"/><path d="M281.1 427.6c-.4 1.3-.6 2.5-1.2 3.8-.6 1.3-1.6 2-3 2-.9 0-2-.3-2.7-.8-.2-.1-.2-.2-.2-.4l.6-1.3c.1-.2.2-.1.3 0 .6.4 1.3.6 1.8.6.9 0 1.3-.5 1.7-1.8l.4-1.1h-.8c-.2 0-.3 0-.4-.2l-3.4-9.8c-.1-.3-.1-.4.2-.5l1.6-.3c.3 0 .4 0 .5.2l2.1 6.9c.3.9.5 1.8.7 2.7.2-.8.2-1.5.4-2.2l1.8-7.3c.1-.3.2-.3.3-.3l1.7.4c.2 0 .2.2.1.3l-2.5 9.1z"/></g><path fill="#FFF" d="M84.4 240.9H68.6v-8.1h29.2c.3 0 .4.1.2.6l-16.3 35.5H71.4l13-28zm31.6 0h-15.8v-8.1h29.2c.3 0 .4.1.2.6l-16.3 35.5H103l13-28zm15.2 12.6c0-3.5 2.9-6 6.1-6 3.2 0 6 2.6 6 6 0 3.5-2.9 6-6 6-3.2 0-6.1-2.5-6.1-6zm10.6 0c0-2.8-2-4.6-4.5-4.6s-4.5 1.8-4.5 4.6 2 4.6 4.5 4.6 4.5-1.8 4.5-4.6zm9.2-5.7h1.7l-13.1 21.1h-1.7l13.1-21.1zm-3.7 15.3c0-3.5 2.9-6 6-6s6 2.6 6 6c0 3.5-2.9 6-6 6s-6-2.4-6-6zm10.5 0c0-2.7-2-4.6-4.5-4.6s-4.5 1.9-4.5 4.6c0 2.8 2 4.6 4.5 4.6s4.5-1.8 4.5-4.6zM31.9 424l6.8-5.1c1.5 2.1 3.5 3.7 6.4 4.1v-7l-2.4-.8c-5.5-1.9-9-4.9-9-10.7 0-6.8 5.8-10 11.5-10.4v-4.6H49v4.7c4.9.6 7.9 2.8 9.6 5l-5.4 5.5c-1-1.1-2.1-2.2-4.2-2.7v6.3l1.8.6c8 2.8 10.4 6.3 10.4 11.7 0 6-4.5 9.8-12.1 10.3v5.7h-3.9v-5.7c-6.7-.4-11.1-3.8-13.3-6.9zm10.7-19.7c0 1.3.7 1.9 2.5 2.6v-5c-1.7.3-2.5 1.1-2.5 2.4zM49 423c2-.4 3-1.3 3-2.8 0-1.4-.8-2.1-3-2.9v5.7zm18.5-20.5h-5.1v-8.1h14.8v36.1h-9.7v-28zm13.7 27.2L96.8 413c2-2.2 3.7-4.2 3.7-6.8 0-2.3-1.6-4-4.3-4-2.7 0-4.9 2.1-5.5 5.6l-8.6-2.5c1.6-7.1 6.8-11.2 14.4-11.2 7.7 0 13.4 4.4 13.4 11.5 0 4.6-2.4 8.1-5.9 11.8l-5 5.4h10.7v7.9H81.4c-.5-.3-.6-.6-.2-1zm40.7-3.6l.1 4.3h-1.7v-30.7h1.7v17.5c1.3-2.6 3.8-4.5 7.4-4.5 5 0 8.6 3.9 8.6 9s-3.6 9.1-8.6 9.1c-3.4 0-6.2-2-7.5-4.7zm14.3-4.4c0-4.3-2.8-7.5-7.1-7.5-4.4 0-7.3 3.2-7.3 7.5s2.9 7.6 7.3 7.6 7.1-3.3 7.1-7.6zm7.6-8.6h1.7v3.9c1.1-2.6 3.6-4.3 6.6-4.3 3.9 0 6.5 2.6 6.5 6.9v10.9h-1.7v-10.6c0-3.6-1.7-5.7-5-5.7-3.7 0-6.4 2.5-6.4 6.5v9.7h-1.7v-17.3zM32.5 346.6L48.1 330c2-2.2 3.7-4.2 3.7-6.8 0-2.3-1.6-4-4.3-4-2.7 0-4.9 2.1-5.5 5.6l-8.6-2.5c1.6-7.1 6.8-11.2 14.4-11.2 7.7 0 13.4 4.4 13.4 11.5 0 4.6-2.4 8.1-5.9 11.8l-5 5.4H61v7.9H32.6c-.4-.3-.5-.6-.1-1.1zm31.7-17.3c0-12.1 7.5-18.4 16.8-18.4 9.2 0 16.8 6.3 16.8 18.4 0 12.1-7.5 18.6-16.8 18.6-9.3-.1-16.8-6.5-16.8-18.6zm23.6 0c0-6.3-2.6-10.2-6.9-10.2S74 323 74 329.3s2.6 10.2 6.9 10.2 6.9-3.8 6.9-10.2zm27.4-9.9H99.4v-8.1h29.2c.3 0 .4.1.2.6l-16.3 35.5h-10.2l12.9-28zm17.6 10.6h1.7v3.5c1.1-2.4 3.1-3.9 5.7-3.9 3 0 4.8 1.7 5.4 4 1.3-2.6 3.6-4 6.1-4 3.5 0 5.8 2.3 5.8 6.1v11.6h-1.7V336c0-3.2-1.3-4.9-4.3-4.9-3.1 0-5.5 2.3-5.5 6.3v10h-1.7V336c0-3.2-1.3-4.9-4.3-4.9-3.1 0-5.5 2.3-5.5 6.3v10h-1.7V330z"/><path fill="none" stroke="#FFF" stroke-width="3.998" stroke-miterlimit="10" d="M138.5 166c-2.8-.9-4.5-3.5-4.5-6.6 0-4.3 3.5-7.2 7.4-7.2 4.1 0 7.7 2.9 7.7 7.2 0 2.6-1.2 4.9-2.9 7.8l-4.5 7.6H136l2.5-8.8z"/><path fill="#5A5958" d="M35.9 129.5c13-1.1 20.6 8.1 20.6 17.7 0 10.9-9.1 19.2-21.5 19.2-12.2 0-21.2-8.3-21.2-18.9 0-6.2 1.4-9.9 6.9-17.9l11-15.7h6.8l-13 18.6c-3.3 4.7-5.8 9.7-5.8 14.9 0 7.7 6.3 14.1 15.2 14.1 9 0 15.4-6.4 15.4-14.2 0-7.3-5.2-13.8-15.2-13.8-5.4 0-9.6 2.3-11.9 5.1.9-1.7 2.4-3.7 3.4-5.2l13.5-19.3h6.8l-11 15.4zm-14.8 17.9c0-4.7 3-12.6 14-12.6 9.1 0 13.8 5.9 13.8 12.5 0 7.1-5.7 12.9-14 12.9-8.1-.1-13.8-5.9-13.8-12.8zm21.6 0c0-4.2-2.8-7.8-7.8-7.8-4.9 0-7.8 3.4-7.8 7.8 0 4.1 3 7.8 7.8 7.8 4.9 0 7.8-3.7 7.8-7.8zm12.5 17.2l22.4-23.9c2.8-3.1 5.2-6.1 5.2-9.8 0-3.3-2.4-5.8-6.2-5.8-3.9 0-7.1 3-7.8 8l-5.6-1.6c1.6-7.5 6.6-11.6 13.6-11.6s12 4.1 12 10.4c0 4.9-2.8 8.8-6.7 12.9l-16.4 17.4H96v5H55.4c-.6.1-.8-.4-.2-1zm6.7-33.5l-5.5-1.7c2.4-10.2 9.8-16.1 20.6-16.1 11 0 19.2 6.3 19.2 16.4 0 6.5-3.4 11.6-8.4 16.9l-7.2 7.7H96v4.9H69l14.3-15.1c4-4.3 7-8.4 7-13.8 0-7.1-5.6-11.8-13.4-11.8-7.6 0-13.2 4.6-15 12.6zm38.6-12.1v-5.1h41.8c.4 0 .5.2.2.8l-23.3 50.9h-6.5l21.4-46.6h-33.6zm22.6 6.6h-22.7v-5.2h31.5l-20.8 45.2h-6.5l18.5-40zm15 39.7c-2.1-.8-3.7-3.3-3.7-6.1 0-4 3.2-6.5 6.8-6.5 3.8 0 7.1 2.6 7.1 6.5 0 2.4-1.1 4.6-2.7 7.1l-4.4 7.1h-5.6l2.5-8.1zm3.3-4.8c.5 0 1.1-.5 1.1-1.1s-.5-1.1-1.1-1.1c-.5 0-1.1.5-1.1 1.1s.5 1.1 1.1 1.1zm9.5-20.8c0-17.3 10.8-26.4 24-26.4s24 9 24 26.4-10.8 26.6-24 26.6-24-9.2-24-26.6zm41.7 0c0-13.6-7.5-21.1-17.6-21.1-10 0-17.6 7.5-17.6 21.1 0 13.7 7.6 21.3 17.6 21.3 10 0 17.6-7.6 17.6-21.3zm-34 0c0-12.7 7-19.7 16.3-19.7 9.4 0 16.3 7 16.3 19.7 0 12.8-6.9 19.9-16.3 19.9-9.3 0-16.3-7.1-16.3-19.9zm26.2.1c0-9-3.7-14.4-9.9-14.4s-9.9 5.4-9.9 14.4 3.7 14.5 9.9 14.5 9.9-5.5 9.9-14.5zm18.4-.1c0-17.3 10.8-26.4 24-26.4s24 9 24 26.4-10.8 26.6-24 26.6-24-9.2-24-26.6zm41.7 0c0-13.6-7.5-21.1-17.6-21.1-10 0-17.6 7.5-17.6 21.1 0 13.7 7.6 21.3 17.6 21.3 10 0 17.6-7.6 17.6-21.3zm-33.9 0c0-12.7 7-19.7 16.3-19.7 9.4 0 16.3 7 16.3 19.7 0 12.8-6.9 19.9-16.3 19.9s-16.3-7.1-16.3-19.9zm26.1.1c0-9-3.7-14.4-9.9-14.4s-9.9 5.4-9.9 14.4 3.7 14.5 9.9 14.5 9.9-5.5 9.9-14.5zm18.4-.1c0-17.3 10.8-26.4 24-26.4s24 9 24 26.4-10.8 26.6-24 26.6-24-9.2-24-26.6zm41.7 0c0-13.6-7.5-21.1-17.6-21.1-10 0-17.6 7.5-17.6 21.1 0 13.7 7.6 21.3 17.6 21.3 10.1 0 17.6-7.6 17.6-21.3zm-33.9 0c0-12.7 7-19.7 16.3-19.7 9.4 0 16.3 7 16.3 19.7 0 12.8-6.9 19.9-16.3 19.9-9.3 0-16.3-7.1-16.3-19.9zm26.1.1c0-9-3.7-14.4-9.9-14.4s-9.9 5.4-9.9 14.4 3.7 14.5 9.9 14.5 9.9-5.5 9.9-14.5z"/><path fill="#E96813" fill-rule="evenodd" d="M302.7 139.3c-3.8-2.1-10.8-5.9-12.5-8.5-1.6-2.6-7.7-5.4-10.3-19.9 0 0 5.9 6.4 11.3 8.7 5.4 2.3 12.4 4.1 13.5 3.9 1.1-.2 2.7-1.4.1-2.8-2.6-1.3-5.3-2.5-9.6-3.9-4.2-1.4-7.3-3.2-8.6-3.8-1.2-.6-7.8-5.9-7.8-8.1-.3-5.1-2.5-11.3-3.3-12.6-.4-.5-1.1-1.1-1.9-1.5-1.2-.6-2.5-1-3.2-1-1.2-1.5-1.8-2.6-1.8-2.6s2.1 1 5 2.7c2.9 1.8 6.5 4.5 9.3 7.7 5.4 6.4 2 1.3 3.9 2.1s2.6.7 3.7.8c1.1.1 2 .6 2.3-1.6.4-2.2-1.4-4.5-2.2-5.5-.5-1.8-2.4-3.9-2.8-4.5-.5-2-5.6-5.1-5.6-5.1-.8-1-3.9-3.6-8.6-6.2-4.2-2.3-9.7-4.6-15.9-5.7-3.9-.7-8.1-1-12.5-.5 0 0-.5-2.4-.8-3.1 4-.1 8.5 1.6 11.8 2.2.4.1.9.2 1.4.3 3.4.9 8.3 2.6 11.8 3.1 1.2.2 2.5.4 4.1.8 3.7.8 8.4 1.9 12.9 3.5 6.3 2.2 11 3.5 13.6 4 2.6.5 4.7.8 5.6.7.7-.2-.9-2.2-4.4-3-.5-.1-1-.2-1.5-.2.5.1 1 .1 1.5.2 6.1.9 7.2.2 5-.6-2.4-.8-22.7-5.7-27.9-6.8-1-.2-2.7-.6-4.7-1-4.3-.9-10.3-2.1-15.9-3.2-5.8-1.1-11.1-1.9-13.4-2-1.7-.1-2.9-.4-3.9-2.5s-5.8-5.5-8.9-5.2c-3.1.3-7.8 1.4-10.6 6.8-.4.9.1 3.2.1 3.2s-1.2 1.1-.9 2.7c-.1 0-.2-.1-.4-.3-.7-.6-2.1-1.9-3.3-3.1-.7-.7-1.6-1-2.4-.9-1.1.1-2.2.7-2.7 1.5-1 1.4-2.6 1.8-1.9 4 0 0-1.5-.4-2-.1-.5-.3-1.1-.7-1.3-.4-1.6-1.1-5-1.9-5.6-1.6 1.2.4 3.8 1.8 3.8 1.8-2.2.4-2.9 1-2.9 1 1.7-.5 3 0 3.7.4.7.4 1-.2 1-.2.5.4 1 0 1 0 .7.3 2.3.1 2.5 0 0 1.2.3 1.6.3 1.9-.4 1.8 0 2.3.8 3-.2 1.2.3 1.6 1.1 2 .8.4 1.5.4 1.8 1.3.2.9.4 5.7.4 5.7s-.8.7-1.2 2.6c-.4 1.9-1.9 6.8-1.9 6.8s-3.4 4.8-4.7 6.4c-1.3 1.5-4.4 5.9-5.2 7-.8 1.2-1.5 2.1-1.7 2.7-.2.6-.1.8-.9.9-.8.1-4.6 3.4-5.7 4.2-1.1.8-7.3 5.1-8.2 5.7-.9.6-7.6 4.5-8.2 5-.7.5-.9 2.1-.9 2.6 0 .4 1.4-.2 1.4-.9s-.1-1 .6-1.3c.7-.3 4.4-2.4 5.2-2.8.9-.4 3.5-2.1 4.5-2.8.9-.7 7.2-4.9 8.5-6 1.2-1.1 3-2 3.8-2.8.8-.8 2.4-3 3.3-4.1.9-1.1 7.5-9.7 7.5-9.7s-1.9 8-1.8 8.8c.1.8.2.9-.2 1.7-.4.8-3.5 8.8-6 11.9-2.5 3.1-6.7 7.3-7.8 7.7-1.1.4-2.2.8-2.3 1.1-.1.4-.1.7-.6.4-.4-.2-1.1-.1-1.2.7-.1.7 1.1.9 1.7.4.6-.5 1.8-1.1 2.2-1.4.4-.4.5-.6 1-.8.5-.2 1.4-1.2 1.8-1.3.3-.2 1-.2 1.6-.9.5-.7 3-2.6 3.6-3.6.6-1 4-5.1 4.5-6.7.5-1.6 3.9-8.3 4.1-9.2.2-1 1.4-6.8 1.6-7.8.2-1 1.2-5.5 1.2-5.5s.3-.4.7-.7c.3-.3.7-.6.8-.6-.1 1.4.2 4.9.8 6.2.6 1.3 1.3 2.1 1.9 2.1.6 0 .3-1 .3-2 .1-1-.8-4.2-.9-5.2-.1-1-.1-1.9-.1-1.9s1.3-.5 2.9-1c2.3-.8 5.4-1.8 6.6-2 2-.3 4-2 4-2s2-.1 2.2-1.9c.2-1.8-.5-2.2-.8-2.8-.3-.5-1.6-3.3-1.6-3.3s1.9 1.7 2.7 4.5c.8 2.8 2.6 5.3 2.9 7 .3 1.7 2 8.5 2.1 9.6.1 1.1.7 9.3 2.7 10.7 2 1.4 2.2-.3 1.8-1.4-.4-1.2-2.4-3.3-2.5-6.1 0-2.8-.5-4.1-1.1-6.4-.6-2.3-1.7-6.6-1.7-6.6s3 2.6 5.1 3.5c2.1.9 6.1 2.8 6.9 3.5.9.7 2.6 2.8 3.2 5.5.4 1.7 3.1 7.7 5.3 12 1.2 2.3 2.2 4.2 2.7 4.7 1.3 1.6 5.4 7.1 8.2 9 1.5 1 3.3 2.1 5 3 1.6.9 3 1.7 4 2.2 1.9 1.1 3.6 2.7 3.6 1.9 0-.8-1.6-2-2.6-2.7-.6-.4-2.9-1.4-5-2.4-1.2-.6-2.3-1.2-2.8-1.6-1.4-1.1-4.3-3.7-5.3-5.5-1.1-1.8-4.4-4.6-4.8-6.1-.2-.9-1.6-4.2-2.9-7.2-.8-2-1.6-3.8-2-4.8-1-2.5-3.5-7-4.9-8.9-1.4-1.9-4.2-3.2-5.9-4 3.6.3 8.5 0 12.8-.5 4.1-.4 7.6-1 8.8-1.2 2.4-.5 2.9-.3 2.9-.3s2.3 4.4 4.2 7.8c.9 1.7 1.8 3 2.2 3.5.6 5 4 16.4 5 18.5 1 2.1 7.5 11.7 16.5 15.9 9 4.2 10.4 4.5 10.4 4.5s-1.4-1.4-5.2-3.5zm-88.4-45.8l-.4.2c-.2.1-.4.3-.4.6.2-1.5.2-2.7.4-3.5.1-.4.2-.6.4-.7v3.4zm5.4-2.6l-3.1 1.4-.4-3.2 3.6.2 3.6.2-3.7 1.4zm8-4.1c-1.2-.1-5.8 0-6.4 0h-1.7c-1.4 0-3.2.1-3.5.2.3-2.1.1-6.1.1-6.1s.7-.7.8-2c0-1.3.3-1.5 1.2-1.9.8-.3.9-.6 1.3-1l.3-.3c.7-.5.8-.8 1.1-.4 0 0 2.3 2.1 3.3 3.9 1.1 1.8 1.5 1.2 2.1 2.6.6 1.4 1.5 3 1.9 3.6.4.6.4 1.3.4 1.3s.3.2-.9.1zm17.2 4.4c-.5.3-1.8.7-1.6-.8.3-1.5-.3-3.3-.4-4.1-.2-.8-2.2-3.5-.3-3.7 1.8-.2 8.7-.2 11-.2.9 0 2.5.2 4.1.6 2.6.5 5.4 1.3 5.9 1.8 0 0-2 .1-5.9 1.2-3.1.9-7.4 2.5-12.8 5.2zm12.8-.9c-2.8.3-5.2.5-5.9.8 1.6-.5 3.7-1.3 5.9-2 3.7-1.2 7.4-2.4 8.5-2.4l2.2 2.9c0-.1-5.9.2-10.7.7zm15.9 4.8l-1.3-2.5c.6-.1 1-.1 1.3.2.2.2.3.5.5 1 .4 1.3.8 3.7.8 3.7l-1.3-2.4z" clip-rule="evenodd"/><path fill="#72706F" d="M320.3-9.5L.5-10.1l-.9-45.4 319.8.6"/><path fill="#FFF" d="M16.1-45.3h4.7L27-27.1l8.1-18.8h.3l8.1 18.8 6-18.2h4.4l-10 28.9h-.3l-8.4-19.9-8.6 19.9h-.2L16.1-45.3zm59.9 0h4.5v28.5H76v-11.9H62.4v11.9h-4.5v-28.5h4.5v12.6H76v-12.6zm26.9 23.2H91.3l-2.2 5.3h-4.5L97-45.9h.3l12.6 29.1h-4.7l-2.3-5.3zm-10-3.9h8.3l-4.1-10-4.2 10zm23.5-15.3h-8.5v-4h21.5v4h-8.5v24.6h-4.5v-24.6z"/><path fill="#DB7123" d="M139.6-55.1h51.2v45.5h-51.2z"/><path fill="#FFF" d="M149.2-47.1h8v29.9h-8v-29.9zm13.3 0h20.3v6.7h-12.3v6.1h10.9v6.7h-10.9v10.4h-8v-29.9z"/><path fill="none" stroke="#000" stroke-width="1.499" stroke-miterlimit="10" d="M1.5-222.7v157.5m317.8-157.2v157.8" stroke-linecap="round" stroke-linejoin="round" stroke-dasharray="0,4.3975,0,4.3975"/><path fill="#FFF" d="M31.9 224.4c0 2.5-1.7 3.6-3.4 3.6-1.8 0-3.2-1.3-3.2-3.5 0-2.3 1.5-3.6 3.4-3.6s3.2 1.4 3.2 3.5zm-5.3.1c0 1.5.9 2.6 2.1 2.6 1.2 0 2.1-1.1 2.1-2.6 0-1.1-.6-2.6-2-2.6s-2.2 1.3-2.2 2.6zm7 3.3V222h-1v-.9h1v-.3c0-1 .2-1.8.8-2.4.5-.4 1.1-.6 1.7-.6.4 0 .8.1 1 .2l-.2 1c-.2-.1-.4-.2-.8-.2-1 0-1.3.9-1.3 2v.4h1.6v.9h-1.6v5.8h-1.2zm7.4-6.7l.9 3.4c.2.8.4 1.5.5 2.2l.6-2.1 1.1-3.5h1l1 3.4c.3.8.4 1.5.6 2.2.1-.7.3-1.4.5-2.2l1-3.4h1.2l-2.2 6.8h-1.1l-1-3.2c-.2-.8-.4-1.4-.6-2.2-.2.8-.4 1.5-.6 2.2l-1.1 3.2h-1.1l-2-6.8H41zm9.8-3.2H52v4.2c.2-.3.5-.7.9-.9.4-.2.8-.4 1.3-.4.9 0 2.4.6 2.4 2.9v4h-1.2v-3.9c0-1.1-.4-2-1.6-2-.8 0-1.4.6-1.7 1.2-.1.2-.1.4-.1.6v4.1h-1.2v-9.8zm9.2 1.3c0 .4-.3.8-.8.8-.4 0-.7-.3-.7-.8 0-.4.3-.8.8-.8.4 0 .7.3.7.8zm-1.4 8.6V221h1.2v6.8h-1.2zm8.1-.2c-.3.2-1 .4-1.9.4-2 0-3.4-1.4-3.4-3.5s1.4-3.6 3.6-3.6c.7 0 1.4.2 1.7.3l-.3 1c-.3-.2-.8-.3-1.4-.3-1.6 0-2.4 1.1-2.4 2.6 0 1.6 1 2.5 2.4 2.5.7 0 1.2-.2 1.5-.3l.2.9zm1.4-9.7h1.2v4.2c.2-.3.5-.7.9-.9.4-.2.8-.4 1.3-.4.9 0 2.4.6 2.4 2.9v4h-1.2v-3.9c0-1.1-.4-2-1.6-2-.8 0-1.4.6-1.7 1.2-.1.2-.1.4-.1.6v4.1h-1.2v-9.8zm8.8 5.4c-.6 0-1.1-.5-1.1-1.1 0-.6.5-1.2 1.1-1.2.6 0 1.1.5 1.1 1.2.1.6-.4 1.1-1.1 1.1zm0 4.7c-.6 0-1.1-.5-1.1-1.1 0-.6.5-1.1 1.1-1.1.6 0 1.1.5 1.1 1.1.1.6-.4 1.1-1.1 1.1zM16.5 465.2c-1 0-2.5-.5-2.5-.8v-.1l.2-.6.1-.1s.1 0 .2.1c.6.4 1.3.6 1.9.6 1 0 1.6-.6 1.6-1.5 0-.8-.3-1.2-1.6-2-1.1-.6-1.3-.8-1.7-1.2-.3-.4-.5-.9-.5-1.5 0-1.4 1.1-2.4 2.6-2.4.9 0 2.2.4 2.2.7v.1l-.2.6c0 .1-.1.1-.1.1l-.6-.3c-.4-.2-.9-.3-1.3-.3-.9 0-1.4.5-1.4 1.3 0 .5.2.9.5 1.1.3.2.3.2 1.6 1 .8.5 1 .7 1.3 1 .3.4.4.9.4 1.4.1 1.8-1 2.8-2.7 2.8zm6.6 0c-1.6 0-2.5-1.2-2.5-3.3 0-2.1 1-3.4 2.7-3.4 1.6 0 2.5 1.2 2.5 3.3 0 2.2-1 3.4-2.7 3.4zm0-5.8c-1 0-1.5.8-1.5 2.4 0 .8.1 1.6.4 2 .2.4.7.6 1.2.6s.9-.2 1.1-.5c.3-.4.4-1.2.4-2 0-1.7-.5-2.5-1.6-2.5zm9.2 5.4l-.6.4h-.1c-.1 0-.3-.4-.5-.8-.7.6-1.3.8-2 .8-1.2 0-1.8-.6-1.8-1.8v-4.5c0-.1.1-.1.1-.2l.7-.2h.1c.1 0 .1 0 .1.1v4.1c0 1.2.2 1.5.9 1.5.5 0 1.2-.2 1.7-.7v-4.7c0-.1.1-.1.1-.2l.7-.2h.1c.1 0 .1 0 .1.1v4.6c0 .7.1 1 .3 1.3.1.3.1.3.1.4 0-.1 0 0 0 0zm5-6l-.3.7h-.1l-.2-.1h-.2c-.3 0-.6.2-1.3 1v4.3c0 .1 0 .2-.1.2h-.7c-.1 0-.1 0-.1-.2v-3.9c0-1 0-1.3-.3-1.8 0-.1-.1-.1-.1-.1 0-.1 0-.1.1-.1l.6-.3h.1c.2 0 .4.5.5 1.1.8-.9 1.1-1.1 1.6-1.1.2 0 .5.2.5.3zm5.2.7l-.3.5c0 .1-.1.1-.1.1s-.1 0-.1-.1c-.6-.5-.9-.6-1.4-.6-1 0-1.6.8-1.6 2.4 0 1.6.5 2.5 1.5 2.5.5 0 .8-.1 1.5-.6h.1s.1 0 .1.1l.2.5v.1c0 .1-.1.1-.2.2-.5.4-1.2.6-1.8.6-1.6 0-2.5-1.2-2.5-3.2 0-2.1 1-3.5 2.7-3.5.6 0 1.1.2 1.6.5.2.2.3.3.3.5zm5.6 2.6h-3.8c.1 1.4.7 2.2 1.7 2.2.5 0 .9-.1 1.5-.5h.1s.1 0 .1.1l.2.5v.1c0 .1-.1.2-.5.4-.5.2-1.1.4-1.6.4-1.7 0-2.7-1.3-2.7-3.3 0-2 1-3.3 2.6-3.3 1.1 0 1.8.6 2.2 1.6.1.4.2.9.2 1.7.2 0 .2.1 0 .1zm-.9-.8c0-1.3-.5-1.9-1.4-1.9s-1.4.7-1.4 1.9h2.8zm4 3.9c-.7 0-1.4-.2-1.9-.5-.1 0-.1-.1-.1-.1v-.1l.2-.6.1-.1h.1c.6.3 1.2.4 1.6.4.6 0 1-.4 1-.9 0-.4-.2-.7-.8-1-.9-.4-1.2-.5-1.5-.8-.4-.3-.6-.7-.6-1.2 0-1.1.8-1.8 2-1.8.7 0 1.7.3 1.7.5v.1l-.2.5-.1.1h-.1c-.5-.2-.9-.3-1.2-.3-.6 0-1 .3-1 .9 0 .2.1.5.3.6.2.2.2.2 1.4.7 1 .5 1.3.9 1.3 1.7-.1 1.1-1 1.9-2.2 1.9zm4.5-4.6c-.5 0-.9-.4-.9-.9s.4-.9.9-.9.9.4.9.9-.3.9-.9.9zm0 4.6c-.5 0-.9-.4-.9-.9s.4-.9.9-.9.9.4.9.9c.1.5-.4.9-.9.9zm10.8-.7c0 .1 0 .1-.1.2-.5.3-1.4.5-2.2.5-2.1 0-3.2-1.6-3.2-4.6 0-3.1 1.1-4.7 3.2-4.7.7 0 1.3.2 1.9.5.2.1.3.2.3.3v.1l-.3.6-.1.1c-.1 0-.1 0-.4-.2-.4-.3-.9-.4-1.4-.4-1.4 0-2 1.1-2 3.7 0 2.8.6 3.9 2.2 3.9.4 0 .7-.1 1-.2v-2.7h-1c-.2 0-.2 0-.2-.2v-.5c0-.2 0-.2.2-.2h1.9c.2 0 .2 0 .2.2v3.6zm6.2.3l-.6.4H72c-.1 0-.4-.4-.5-.8-.6.6-1.2.8-1.9.8-1.1 0-1.7-.7-1.7-1.8 0-1.5 1.1-2.2 3.5-2.3v-.4c0-.8-.3-1.2-1.2-1.2-.5 0-.9.1-1.6.4h-.1s-.1 0-.1-.1l-.2-.5v-.1c0-.1.1-.1.4-.2.5-.2 1.1-.4 1.7-.4 1.4 0 2 .6 2 1.8v2.5c0 .9.1 1.2.4 1.7v.2c0-.1 0-.1 0 0zm-1.3-2.9c-1.6 0-2.5.5-2.5 1.4 0 .6.4 1 1 1 .5 0 .9-.2 1.5-.7v-1.7zm4.9 3.2c-.7 0-1.2-.3-1.4-.7-.1-.3-.2-.5-.2-1.2v-3.7h-.9c-.1 0-.2 0-.2-.1v-.5c0-.1 0-.2.2-.2h.9v-1.8c0-.1.1-.1.1-.2l.7-.2h.1c.1 0 .1 0 .1.2v2h2c.1 0 .1 0 .1.1v.1l-.1.5c0 .1-.1.1-.2.1h-1.7v3.7c0 .5 0 .6.1.8.1.2.4.3.7.3.3 0 .6-.1 1.2-.3h.1s.1 0 .1.1l.1.5v.1c-.1.1-1.2.4-1.8.4zm7.1-3h-3.8c.1 1.4.7 2.2 1.7 2.2.5 0 .9-.1 1.5-.5h.1s.1 0 .1.1l.2.5v.1c0 .1-.1.2-.5.4-.5.2-1.1.4-1.6.4-1.7 0-2.7-1.3-2.7-3.3 0-2 1-3.3 2.6-3.3 1.1 0 1.8.6 2.2 1.6.1.4.2.9.2 1.7.2 0 .1.1 0 .1zm-.9-.8c0-1.3-.5-1.9-1.4-1.9-.9 0-1.4.7-1.4 1.9h2.8zm3.9 3.9c-.7 0-1.4-.2-1.9-.5-.1 0-.1-.1-.1-.1v-.1l.2-.6.1-.1h.1c.6.3 1.2.4 1.6.4.6 0 1-.4 1-.9 0-.4-.2-.7-.8-1-.9-.4-1.2-.5-1.5-.8-.4-.3-.6-.7-.6-1.2 0-1.1.8-1.8 2-1.8.7 0 1.7.3 1.7.5v.1l-.2.5-.1.1h-.1c-.5-.2-.9-.3-1.2-.3-.6 0-1 .3-1 .9 0 .2.1.5.3.6.2.2.2.2 1.4.7 1 .5 1.3.9 1.3 1.7-.1 1.1-.9 1.9-2.2 1.9zm11-9l-.2.6c0 .1-.1.1-.2.1h-2.9v3h2.6c.2 0 .2 0 .2.2v.5c0 .2 0 .2-.2.2h-2.6v4c0 .2 0 .2-.2.2h-.7c-.2 0-.2 0-.2-.2v-8.6c0-.2 0-.2.2-.2h4c.2 0 .2 0 .2.2 0-.1 0 0 0 0zm3.2 9c-1.6 0-2.5-1.2-2.5-3.3 0-2.1 1-3.4 2.7-3.4 1.6 0 2.5 1.2 2.5 3.3 0 2.2-1 3.4-2.7 3.4zm.1-5.8c-1 0-1.5.8-1.5 2.4 0 .8.1 1.6.4 2 .2.4.7.6 1.2.6s.9-.2 1.1-.5c.3-.4.4-1.2.4-2-.1-1.7-.6-2.5-1.6-2.5zm9.1 5.4l-.6.4h-.1c-.1 0-.3-.4-.5-.8-.7.6-1.3.8-2 .8-1.2 0-1.8-.6-1.8-1.8v-4.5c0-.1.1-.1.1-.2l.7-.2h.1c.1 0 .1 0 .1.1v4.1c0 1.2.2 1.5.9 1.5.5 0 1.2-.2 1.7-.7v-4.7c0-.1.1-.1.1-.2l.7-.2h.1c.1 0 .1 0 .1.1v4.6c0 .7.1 1 .3 1.3.1.3.2.3.1.4.1-.1 0 0 0 0zm6.4.1c0 .1 0 .2-.1.2h-.7c-.1 0-.1 0-.1-.2v-4.4c0-.8-.2-1.1-.9-1.1-.6 0-1.1.2-1.7.8v4.6c0 .1 0 .2-.1.2h-.7c-.1 0-.1 0-.1-.2v-4.5c0-.6-.1-.8-.2-1.3v-.1s0-.1.1-.1l.6-.3h.1c.1 0 .3.4.4.9.8-.6 1.4-.9 2.1-.9.6 0 1.1.2 1.3.6.2.3.2.6.2 1.3v4.5zm6.9-.1l-.6.3h-.1c-.1 0-.3-.4-.4-.8-.9.6-1.3.8-2 .8-1.3 0-2.1-1.3-2.1-3.4 0-2 .9-3.3 2.3-3.3.5 0 .9.1 1.4.4v-3.1c0-.1.1-.1.1-.2l.7-.2h.1c.1 0 .1 0 .1.1v7.3c0 .8.1 1.1.3 1.5.3.5.3.5.2.6.1-.1.1 0 0 0zm-1.3-5c-.6-.3-.9-.4-1.3-.4-1 0-1.4.7-1.4 2.3 0 1.8.4 2.6 1.2 2.6.5 0 .9-.2 1.5-.8v-3.7zm7.3 5l-.6.4h-.1c-.1 0-.4-.4-.5-.8-.6.6-1.2.8-1.9.8-1.1 0-1.7-.7-1.7-1.8 0-1.5 1.1-2.2 3.5-2.3v-.4c0-.8-.3-1.2-1.2-1.2-.5 0-.9.1-1.6.4h-.1s-.1 0-.1-.1l-.2-.5v-.1c0-.1.1-.1.4-.2.5-.2 1.1-.4 1.7-.4 1.4 0 2 .6 2 1.8v2.5c0 .9.1 1.2.4 1.7.1 0 .1.1 0 .2.1-.1 0-.1 0 0zm-1.3-2.9c-1.6 0-2.5.5-2.5 1.4 0 .6.4 1 1 1 .5 0 .9-.2 1.5-.7v-1.7zm4.9 3.2c-.7 0-1.2-.3-1.4-.7-.1-.3-.2-.5-.2-1.2v-3.7h-.9c-.1 0-.2 0-.2-.1v-.5c0-.1 0-.2.2-.2h.9v-1.8c0-.1.1-.1.1-.2l.7-.2h.1c.1 0 .1 0 .1.2v2h2c.1 0 .1 0 .1.1v.1l-.1.5c0 .1-.1.1-.2.1h-1.7v3.7c0 .5 0 .6.1.8.1.2.4.3.7.3.3 0 .6-.1 1.2-.3h.1s.1 0 .1.1l.1.5v.1c-.1.1-1.1.4-1.8.4zm3.9-.2c0 .1 0 .2-.1.2h-.7c-.1 0-.1 0-.1-.2v-5.3h-1c-.1 0-.2 0-.2-.1v-.5c0-.1 0-.2.2-.2h1.9c.1 0 .1 0 .1.2v5.9zm-.6-7.7c-.4 0-.8-.4-.8-.8s.4-.8.8-.8.8.4.8.8-.4.8-.8.8zm4.9 8c-1.6 0-2.5-1.2-2.5-3.3 0-2.1 1-3.4 2.7-3.4 1.6 0 2.5 1.2 2.5 3.3 0 2.2-1 3.4-2.7 3.4zm0-5.8c-1 0-1.5.8-1.5 2.4 0 .8.1 1.6.4 2 .2.4.7.6 1.2.6s.9-.2 1.1-.5c.3-.4.4-1.2.4-2 0-1.7-.5-2.5-1.6-2.5zm9.1 5.5c0 .1 0 .2-.1.2h-.7c-.1 0-.1 0-.1-.2v-4.4c0-.8-.2-1.1-.9-1.1-.6 0-1.1.2-1.7.8v4.6c0 .1 0 .2-.1.2h-.7c-.1 0-.1 0-.1-.2v-4.5c0-.6-.1-.8-.2-1.3v-.1s0-.1.1-.1l.6-.3h.1c.1 0 .3.4.4.9.8-.6 1.4-.9 2.1-.9.6 0 1.1.2 1.3.6.2.3.2.6.2 1.3v4.5zm4-1.2l-1.5 2.8-.1.1h-.1l-.3-.1c-.1 0-.1-.1-.1-.1v-.1l.8-2.6c0-.1.1-.1.2-.1h1.1c.1 0 .2 0 .2.1-.1-.1-.1-.1-.2 0zm-.8-3.1c-.5 0-.9-.4-.9-.9s.4-.9.9-.9.9.4.9.9-.4.9-.9.9zm10.9 4.2c0 .2 0 .2-.2.2h-.7c-.1 0-.2 0-.2-.1l-3-6.5c-.2-.4-.2-.6-.4-1.2.1.7.1.9.1 1.3v6.4c0 .2 0 .2-.2.2h-.6c-.2 0-.2 0-.2-.2v-8.6c0-.2 0-.2.2-.2h.8c.1 0 .2 0 .2.1l2.9 6.1c.2.3.3.7.4 1.1-.1-.5-.1-.8-.1-1.1v-6c0-.2 0-.2.2-.2h.6c.2 0 .2 0 .2.2v8.5zm6.5-2.7h-3.8c.1 1.4.7 2.2 1.7 2.2.5 0 .9-.1 1.5-.5h.1s.1 0 .1.1l.2.5v.1c0 .1-.1.2-.5.4-.5.2-1.1.4-1.6.4-1.7 0-2.7-1.3-2.7-3.3 0-2 1-3.3 2.6-3.3 1.1 0 1.8.6 2.2 1.6.1.4.2.9.2 1.7.1 0 .1.1 0 .1zm-.9-.8c0-1.3-.5-1.9-1.4-1.9-.9 0-1.4.7-1.4 1.9h2.8zm4.4 3.8c-.7 0-1.2-.3-1.4-.7-.1-.3-.2-.5-.2-1.2v-3.7h-.9c-.1 0-.2 0-.2-.1v-.5c0-.1 0-.2.2-.2h.9v-1.8c0-.1.1-.1.1-.2l.7-.2h.1c.1 0 .1 0 .1.2v2h2c.1 0 .1 0 .1.1v.1l-.1.5c0 .1-.1.1-.2.1h-1.7v3.7c0 .5 0 .6.1.8.1.2.4.3.7.3.3 0 .6-.1 1.2-.3h.1s.1 0 .1.1l.1.5v.1c-.1.1-1.1.4-1.8.4zm4.1.1c-.7 0-1.4-.2-1.9-.5-.1 0-.1-.1-.1-.1v-.1l.2-.6.1-.1h.1c.6.3 1.2.4 1.6.4.6 0 1-.4 1-.9 0-.4-.2-.7-.8-1-.9-.4-1.2-.5-1.5-.8-.4-.3-.6-.7-.6-1.2 0-1.1.8-1.8 2-1.8.7 0 1.7.3 1.7.5v.1l-.2.5-.1.1h-.1c-.5-.2-.9-.3-1.2-.3-.6 0-1 .3-1 .9 0 .2.1.5.3.6.2.2.2.2 1.4.7 1 .5 1.3.9 1.3 1.7-.2 1.1-1 1.9-2.2 1.9zm8.2-9l-.2.6c0 .1-.1.1-.2.1h-2.9v3h2.6c.2 0 .2 0 .2.2v.5c0 .2 0 .2-.2.2h-2.6v4c0 .2 0 .2-.2.2h-.7c-.2 0-.2 0-.2-.2v-8.6c0-.2 0-.2.2-.2h4c.2 0 .2 0 .2.2 0-.1 0 0 0 0zm3.2 9c-1.6 0-2.5-1.2-2.5-3.3 0-2.1 1-3.4 2.7-3.4 1.6 0 2.5 1.2 2.5 3.3 0 2.2-1 3.4-2.7 3.4zm.1-5.8c-1 0-1.5.8-1.5 2.4 0 .8.1 1.6.4 2 .2.4.7.6 1.2.6s.9-.2 1.1-.5c.3-.4.4-1.2.4-2-.1-1.7-.6-2.5-1.6-2.5zm7.6-.6l-.3.7h-.1l-.2-.1h-.2c-.3 0-.6.2-1.3 1v4.3c0 .1 0 .2-.1.2h-.7c-.1 0-.1 0-.1-.2v-3.9c0-1 0-1.3-.3-1.8 0-.1-.1-.1-.1-.1 0-.1 0-.1.1-.1l.6-.3h.1c.2 0 .4.5.5 1.1.8-.9 1.1-1.1 1.6-1.1.2 0 .5.2.5.3zm5.8 5.5l-.2.6c0 .1-.1.1-.2.1h-4c-.2 0-.2 0-.2-.2v-8.6c0-.2 0-.2.2-.2h.7c.2 0 .2 0 .2.2v7.9h3.3c.1 0 .2 0 .2.1.1 0 0 0 0 .1zm2.3.6c0 .1 0 .2-.1.2h-.7c-.1 0-.1 0-.1-.2v-5.3h-1c-.1 0-.2 0-.2-.1v-.5c0-.1 0-.2.2-.2h1.9c.1 0 .1 0 .1.2v5.9zm-.5-7.7c-.4 0-.8-.4-.8-.8s.4-.8.8-.8.8.4.8.8c-.1.4-.4.8-.8.8zm6.1-1.1l-.2.5c0 .1-.1.1-.1.1h-.1c-.4-.2-.7-.3-1-.3-.3 0-.5.1-.6.3-.1.2-.2.4-.2 1.1v1h1.9c.1 0 .1 0 .1.1v.1l-.2.5c0 .1-.1.1-.2.1h-1.7v5.3c0 .1 0 .2-.1.2h-.7c-.1 0-.1 0-.1-.2v-5.3h-.9c-.1 0-.2 0-.2-.1v-.5c0-.1 0-.2.2-.2h.9v-1c0-.8.1-1.2.3-1.5.3-.4.8-.7 1.5-.7.6-.1 1.4.2 1.4.5 0-.1 0-.1 0 0zm5 6h-3.8c.1 1.4.7 2.2 1.7 2.2.5 0 .9-.1 1.5-.5h.1s.1 0 .1.1l.2.5v.1c0 .1-.1.2-.5.4-.5.2-1.1.4-1.6.4-1.7 0-2.7-1.3-2.7-3.3 0-2 1-3.3 2.6-3.3 1.1 0 1.8.6 2.2 1.6.1.4.2.9.2 1.7.2 0 .1.1 0 .1zm-.9-.8c0-1.3-.5-1.9-1.4-1.9-.9 0-1.4.7-1.4 1.9h2.8z"/></svg>
