<svg xmlns="http://www.w3.org/2000/svg" viewBox="0 0 532.1 356.9"><path fill="#FFF" d="M47.7 218.5c-.5 1.1-1.4 1.1-1.9 0L0 108.5h13.8l34.7 84.8 26.2-57.8 26.7 57.8 33.9-84.9 13.1.6-45.1 109.6c-.5 1.3-1.3 1.3-1.9 0l-27-57.9-26.7 57.8zm-31.1-110H30l20 51 23.7-53.7c.3-.8 1.5-.2 1.8.6l25.3 53.1 18.5-51.1 13.1.6-31 77.8-26.7-57.4-26.1 57.4-32-78.3zm120.6 54.3c0-32.8 27-55.7 58.4-55.7S254 130 254 162.8c0 32.8-27 55.8-58.4 55.8s-58.4-23-58.4-55.8zm103.4 0c0-25.8-19.4-44.5-45-44.5s-45 18.7-45 44.5 19.4 44.6 45 44.6 45-18.8 45-44.6zm-87 0c0-24.2 18.1-41.6 42.1-41.6s42.1 17.4 42.1 41.6c0 24.2-18.1 41.8-42.1 41.8s-42.1-17.6-42.1-41.8zm70.7 0c0-17.1-10.4-30.4-28.6-30.4-18.2 0-28.6 13.3-28.6 30.4 0 17.1 10.4 30.6 28.6 30.6 18.2 0 28.6-13.5 28.6-30.6zm49.5 54.4h-13.1V108.4h44c27.7 0 43 16.3 43 38.6 0 14.4-6.9 25.8-19.8 31.7l22.6 38.6h-14.2L311 173c15.4-2.2 23.7-11.8 23.7-25.9 0-16.5-10.9-27.7-30.6-27.7h-30.2v97.8zm2.8-46.7v-48.3H304c17.8 0 27.7 9.9 27.7 24.8 0 14.4-9.9 23.5-27.7 23.5h-27.4zm13.2 46.7h-13.1v-43.8H304c1.3 0 2.1 0 3.8-.2l25.1 44h-14.1l-19.2-34.1h-9.9v34.1zm13.4-56.3c9.9 0 15.2-5 15.2-13.9 0-9-5.3-13.9-15.2-13.9h-13.4v27.8h13.4zm50.9-52.5h13.1v98.1h62.2v10.7H354V108.4zm75.3 95.2H370v-95.2h13.1v84.3h46.2v10.9zm5.6-95.2h42c31.4 0 55 20.6 55 54.4s-23.7 54.4-55 54.4h-42V108.4zm13.1 97.9h27.4c25.3 0 43.2-16.6 43.2-43.5s-17.9-43.5-43.2-43.5h-27.4v87zm2.9-84.1h24.5c23.7 0 40.3 15.7 40.3 40.6 0 25-16.6 40.6-40.3 40.6H451v-81.2zm22.8 70.4c17.6 0 28.5-11.7 28.5-29.8S491.4 133 473.8 133H464v59.5h9.8z"/><path fill="#FFF" d="M114.2 10.9H27.5V.1h86.7v10.8zM56.3 24.5H27.5V13.8h41.9v95H56.3V24.5zm16 84.4v-95h41.9v10.7H85.4v84.3H72.3zm47 0V0h13.2v108.9M186.2.1h13.2v52.6h-64.1V.1h13.2v41.7h37.7m-50.9 67.1V55.6h64.1v53.3h-13.2V66.3h-37.7v42.6m53.7 0V.1h13.2v113.2M221.3.1h76.3V11h-63.2v87.2h65.4v10.7h-78.6V.1zm68.5 52.6h-52.5V13.8h60.3v10.7h-47.2v17.9h39.4v10.3zm10.1 42.6h-62.6V55.6h52.5v10.1h-39.4v18.7h49.4v10.9z"/><path fill="#31BCEA" d="M354.1 216.9h140v140h-140z"/><path fill="#FFF" d="M371.1 232.9h13.1v108.8h-13.1V232.9zm16 108.8V232.9h13.1v108.8h-13.1zm18.8-108.8l72.2-.1v11h-59v97.9H406V232.9zm68.7 57.5H422v-43.7h56.2v10.7h-43v22.1h39.5v10.9zm-52.7 51.3v-48.5h52.6V304H435v37.8h-13.1z"/><path fill="#228095" d="M354.1 356.9v-35h-29"/></svg>
