<svg xmlns="http://www.w3.org/2000/svg" viewBox="0 0 160 175"><path fill="#E8E8E8" d="M0 0h160v175H0z"/><path fill="#E30613" d="M0 0h5v15H0z"/><path fill="#E30613" d="M0 0h160v.5H0z"/><path d="M16.8 9.1L15.2 15c0 .1-.1.2-.2.2h-1.1c-.2 0-.2 0-.2-.2l-1.6-5.9V9c0-.1 0-.1.2-.1l.9-.2h.1c.1 0 .1 0 .1.2l.8 3.7c0 .1.1.4.1.6 0 .3.1.5.1.8.1-.6.2-.8.3-1.3l.8-3.6c0-.1.1-.2.1-.2h.1l.9.1c.1 0 .2 0 .2.1.1-.1.1-.1 0 0zm3.2 1.6l-.3.7c0 .1 0 .1-.1.1h-.1c-.1 0-.3-.1-.4-.1-.2 0-.4.1-.7.4v3c0 .1 0 .2-.2.2h-.8c-.1 0-.2 0-.2-.2v-2.7c0-.5-.1-.8-.3-1.3v-.1s0-.1.1-.1l.7-.3h.1c.1 0 .2.3.3.7.2-.2.2-.3.3-.4.2-.2.5-.4.8-.4.6.2.8.3.8.5 0-.1 0 0 0 0zm2.1 4.5c-1.2 0-2-.9-2-2.4 0-.7.2-1.3.5-1.7.4-.5.8-.7 1.5-.7 1.2 0 1.9.9 1.9 2.4 0 1.4-.7 2.4-1.9 2.4zm0-3.9c-.5 0-.7.4-.7 1.5 0 1 .2 1.5.7 1.5.5 0 .7-.4.7-1.5s-.2-1.5-.7-1.5zm4.5 3.9c-1.2 0-2-.9-2-2.4 0-.7.2-1.3.5-1.7.4-.5.8-.7 1.5-.7 1.2 0 1.9.9 1.9 2.4 0 1.4-.7 2.4-1.9 2.4zm0-3.9c-.5 0-.7.4-.7 1.5 0 1 .2 1.5.7 1.5.5 0 .7-.4.7-1.5s-.2-1.5-.7-1.5zm8.6 3.5c0 .1 0 .2-.2.2h-.8c-.1 0-.2 0-.2-.2V12c0-.5-.1-.7-.4-.7-.2 0-.5.1-.8.4v3.1c0 .1 0 .2-.2.2H32c-.1 0-.2 0-.2-.2V12c0-.6-.1-.8-.4-.8-.2 0-.5.1-.8.4v3.1c0 .1 0 .2-.2.2h-.8c-.1 0-.2 0-.2-.2v-3c0-.5 0-.6-.2-1v-.1s0-.1.1-.1l.7-.2h.1c.1 0 .2.3.3.6.5-.5.9-.6 1.3-.6.5 0 .8.2 1 .6.5-.5.9-.6 1.4-.6.4 0 .7.2.9.5.1.3.2.5.2 1v3zm6.4 0l-.7.3h-.1c-.1 0-.2-.2-.3-.5-.4.4-.7.5-1.2.5-.8 0-1.4-.5-1.4-1.4 0-.8.4-1.3 1.3-1.4.2 0 .5-.1 1-.1V12c0-.5-.1-.7-.6-.7-.3 0-.6.1-1 .2h-.1s-.1 0-.1-.1l-.2-.5v-.1c0-.2.8-.4 1.5-.4s1.2.2 1.4.7c.1.2.1.4.1.7v1.8c0 .4.1.7.2 1 .2.1.2.1.2.2zM40.3 13c-.9 0-1.3.2-1.3.7 0 .4.3.6.6.6.2 0 .5-.1.7-.4V13zm4.7 2c-.3.1-.6.2-.9.2-.5 0-.8-.2-1-.5-.2-.2-.2-.5-.2-1v-2.3h-.6c-.1 0-.2 0-.2-.2v-.5c0-.1 0-.2.2-.2h.6V9.4c0-.1 0-.1.1-.2l.8-.1h.2c.1 0 .1 0 .1.1v1.3h1c.1 0 .2 0 .2.1v.1l-.1.5c0 .1-.1.1-.2.1h-.9v2.2c0 .5.1.6.3.6.2 0 .3 0 .6-.2h.1s.1 0 .1.1l.1.6v.1c0 .2 0 .2-.3.3zm5.2 0c-.3.1-.6.2-.9.2-.5 0-.8-.2-1-.5-.2-.2-.2-.5-.2-1v-2.3h-.6c-.1 0-.2 0-.2-.2v-.5c0-.1 0-.2.2-.2h.6V9.4c0-.1 0-.1.1-.2l.8-.1h.1c.1 0 .1 0 .1.1v1.3h1c.1 0 .2 0 .2.1v.1l-.1.5c0 .1-.1.1-.2.1h-.9v2.2c0 .5.1.6.3.6.2 0 .3 0 .6-.2h.1s.1 0 .1.1l.1.6v.1c.1.2 0 .2-.2.3zm4.5-.2c0 .1 0 .2-.2.2h-.8c-.1 0-.2 0-.2-.2V12c0-.5-.1-.8-.5-.8-.3 0-.5.1-.8.4v3.2c0 .1 0 .2-.2.2h-.8c-.1 0-.2 0-.2-.2v-6c0-.1 0-.1.1-.2l.8-.2h.1c.1 0 .1 0 .1.2v2.3c.4-.4.8-.5 1.2-.5.4 0 .8.2 1 .5.1.2.2.5.2.9v3zm4.5-1.7h-2.4c0 .8.3 1.1 1 1.1.3 0 .7-.1 1-.3h.1s.1 0 .1.1l.2.5v.1c0 .1-.1.2-.4.3-.4.2-.8.3-1.2.3-.6 0-1-.2-1.3-.4-.4-.4-.7-1.1-.7-1.9 0-1.4.8-2.4 2-2.4s1.8.8 1.8 2.5c0 0-.1.1-.2.1zm-1-.9c0-.7-.2-1-.7-1-.5 0-.7.3-.7 1h1.4zm6.3 2.8c-.3.1-.6.2-.9.2-.5 0-.8-.2-1-.5-.2-.2-.2-.5-.2-1v-2.3h-.6c-.1 0-.2 0-.2-.2v-.5c0-.1 0-.2.2-.2h.6V9.4c0-.1 0-.1.1-.2l.8-.1h.1c.1 0 .1 0 .1.1v1.3h1c.1 0 .2 0 .2.1v.1l-.1.5c0 .1-.1.1-.2.1h-.9v2.2c0 .5.1.6.3.6.2 0 .3 0 .6-.2h.1s.1 0 .1.1l.1.6v.1c.1.2 0 .2-.2.3zm2.5.2c-1.2 0-2-.9-2-2.4 0-.7.2-1.3.5-1.7.4-.5.8-.7 1.5-.7 1.2 0 1.9.9 1.9 2.4.1 1.4-.7 2.4-1.9 2.4zm0-3.9c-.5 0-.7.4-.7 1.5 0 1 .2 1.5.7 1.5.5 0 .7-.4.7-1.5.1-1.1-.2-1.5-.7-1.5zm5 3.9c-.4 0-.6-.1-.9-.2v1.6c0 .1 0 .1-.1.2l-.8.2h-.1c-.1 0-.1 0-.1-.1v-5c0-.4 0-.6-.2-.9v-.1s0-.1.1-.1l.8-.3h.1c.1 0 .2.2.3.5.4-.3.7-.5 1.1-.5 1 0 1.6.8 1.6 2.3-.2 1.5-.7 2.4-1.8 2.4zm-.2-3.9c-.3 0-.4.1-.7.3v2.5c.2.1.4.2.6.2.6 0 .8-.4.8-1.5s-.2-1.5-.7-1.5zM13.4 170.1c-.4 0-1.1-.2-1.1-.4l.1-.3h.1c.3.2.6.3.9.3.4 0 .7-.3.7-.7 0-.4-.2-.6-.7-.9-.5-.3-.6-.4-.8-.5-.2-.2-.2-.4-.2-.7 0-.6.5-1.1 1.2-1.1.4 0 1 .2 1 .3l-.1.3-.3-.1c-.2-.1-.4-.1-.6-.1-.4 0-.7.2-.7.6 0 .2.1.4.2.5.1.1.1.1.7.4.4.2.5.3.6.5.1.2.2.4.2.6 0 .8-.5 1.3-1.2 1.3zm3 0c-.7 0-1.2-.6-1.2-1.5 0-1 .5-1.5 1.2-1.5s1.2.6 1.2 1.5-.5 1.5-1.2 1.5zm0-2.7c-.5 0-.7.4-.7 1.1 0 .4.1.7.2.9.1.2.3.3.5.3s.4-.1.5-.3c.1-.2.2-.5.2-.9 0-.7-.2-1.1-.7-1.1zm4.2 2.5l-.3.2-.2-.4c-.3.3-.6.4-.9.4-.5 0-.8-.3-.8-.8v-2.1s0-.1.1-.1l.3-.1v2c0 .5.1.7.4.7.2 0 .5-.1.8-.3v-2.2s0-.1.1-.1l.3-.1v2.2c0 .3.1.4.2.7 0-.1 0 0 0 0zm2.3-2.7l-.1.3h-.2c-.2 0-.3.1-.6.5v2c0 .1 0 .1-.1.1h-.3c-.1 0-.1 0-.1-.1v-1.8c0-.5 0-.6-.1-.8v-.2l.3-.2c.1 0 .2.3.2.5.4-.4.5-.5.7-.5.1 0 .3.1.3.2 0-.1 0 0 0 0zm2.3.3l-.1.2c-.3-.2-.4-.3-.6-.3-.5 0-.7.4-.7 1.1 0 .7.2 1.1.7 1.1.2 0 .4-.1.7-.3l.1.2v.1s0 .1-.1.1c-.2.2-.5.3-.8.3-.7 0-1.1-.5-1.1-1.5s.5-1.6 1.2-1.6c.3 0 .5.1.7.2v.4zm2.6 1.2h-1.7c0 .7.3 1 .8 1 .2 0 .4-.1.7-.2h.1l.1.2-.2.2c-.2.1-.5.2-.7.2-.8 0-1.2-.6-1.2-1.5s.5-1.5 1.2-1.5c.5 0 .8.3 1 .7.1.2.1.4.1.8-.1 0-.1.1-.2.1zm-.4-.4c0-.6-.2-.9-.6-.9s-.6.3-.7.9h1.3zm1.6-.3c-.2 0-.4-.2-.4-.4s.2-.4.4-.4.4.2.4.4-.2.4-.4.4zm0 2.1c-.2 0-.4-.2-.4-.4s.2-.4.4-.4.4.2.4.4-.2.4-.4.4zm4.6-4.1l-.1.3s0 .1-.1.1h-.9v3.6c0 .1 0 .1-.1.1h-.3c-.1 0-.1 0-.1-.1v-3.6h-.9c-.1 0-.1 0-.1-.1v-.3c0-.1 0-.1.1-.1l2.5.1c0-.1 0-.1 0 0 0-.1 0 0 0 0zm2.6 3.9c0 .1-.1.1 0 0l-.4.1c-.1 0-.1 0-.1-.1v-2c0-.4-.1-.5-.4-.5-.2 0-.5.1-.8.4v2.1c0 .1 0 .1-.1.1h-.3c-.1 0-.1 0-.1-.1v-4.1s0-.1.1-.1l.3-.1v1.8c.3-.3.6-.4.9-.4.3 0 .5.1.6.2.1.1.1.3.1.7v2zm1.9.2c-.7 0-1.2-.6-1.2-1.5 0-1 .5-1.5 1.2-1.5s1.2.6 1.2 1.5-.4 1.5-1.2 1.5zm0-2.7c-.5 0-.7.4-.7 1.1 0 .4.1.7.2.9.1.2.3.3.5.3s.4-.1.5-.3c.1-.2.2-.5.2-.9.1-.7-.2-1.1-.7-1.1zm5.4 2.5c0 .1 0 .1 0 0l-.4.1c-.1 0-.1 0-.1-.1v-2.1c0-.3-.1-.4-.4-.4-.2 0-.3.1-.6.2v2.3c0 .1 0 .1-.1.1h-.3c-.1 0-.1 0-.1-.1v-2.1c0-.3-.1-.4-.4-.4-.2 0-.4.1-.6.3v2.2c0 .1 0 .1-.1.1h-.3c-.1 0-.1 0-.1-.1v-2.2c0-.2 0-.3-.1-.5l.2-.1h.1s.1.1.2.3c.3-.3.6-.4.8-.4.3 0 .5.1.6.4.4-.3.6-.4.9-.4.2 0 .4.1.5.3.1.1.1.3.1.6v2zm2.9 0l-.3.2c-.1 0-.2-.2-.2-.4-.3.3-.5.4-.9.4-.5 0-.8-.3-.8-.8 0-.7.5-1 1.6-1v-.3c0-.4-.2-.5-.6-.5-.2 0-.4 0-.7.2l-.1-.2s0-.1.2-.1c.2-.1.5-.2.8-.2.6 0 .9.3.9.8v1.1c-.1.3 0 .5.1.8 0-.1 0-.1 0 0zm-.6-1.3c-.7 0-1.1.2-1.1.6 0 .3.2.5.4.5s.4-.1.7-.3v-.8zm2.1 1.5c-.3 0-.6-.1-.9-.2v-.1l.1-.3c.3.1.5.2.7.2.3 0 .5-.2.5-.4s-.1-.3-.4-.5c-.4-.2-.5-.3-.7-.4-.2-.1-.3-.3-.3-.6 0-.5.4-.8.9-.8.3 0 .8.1.8.3l-.1.2h-.1c-.2-.1-.4-.2-.6-.2-.3 0-.5.1-.5.4 0 .1 0 .2.1.3.1.1.1.1.6.3.4.2.6.4.6.8.3.6-.1 1-.7 1zm4.6-2c-.2.1-.4.1-.7.1h-.4v1.7c0 .1 0 .1-.1.1H51c-.1 0-.1 0-.1-.1V166c0-.1 0-.1.1-.1h.9c.4 0 .6 0 .8.1.3.2.4.5.4 1s-.2.9-.6 1.1zm-.2-1.8h-.9v1.5h.4c.3 0 .4 0 .6-.1.2-.1.3-.4.3-.7-.1-.3-.2-.6-.4-.7zm2 3.6c0 .1 0 .1 0 0l-.4.1c-.1 0-.1 0-.1-.1v-2.4h-.5c-.1 0-.1 0-.1-.1v-.2c0-.1 0-.1.1-.1h.9c.1 0 .1 0 .1.1v2.7zm-.3-3.5c-.2 0-.4-.2-.4-.4s.2-.4.4-.4.4.2.4.4c0 .3-.2.4-.4.4zm3.3 3.4l-.2.2-1.3-1.5v1.4c0 .1 0 .1-.1.1h-.3c-.1 0-.1 0-.1-.1v-4.1s0-.1.1-.1l.3-.1v2.8l1.2-1.4h.2l.2.1v.2l-1 1.1 1 1.4c0-.1.1 0 0 0 .1 0 0 0 0 0zm2.6-1.1h-1.7c0 .7.3 1 .8 1 .2 0 .4-.1.7-.2h.1l.1.2-.2.2c-.2.1-.5.2-.7.2-.8 0-1.2-.6-1.2-1.5s.5-1.5 1.2-1.5c.5 0 .8.3 1 .7.1.2.1.4.1.8-.1 0-.1.1-.2.1zm-.4-.4c0-.6-.2-.9-.6-.9-.4 0-.6.3-.7.9h1.3zm2 1.8c-.3 0-.5-.1-.7-.3-.1-.1-.1-.2-.1-.5v-1.7h-.4c-.1 0-.1 0-.1-.1v-.2c0-.1 0-.1.1-.1h.4v-.8s0-.1.1-.1l.3-.1v1h1l-.1.2s0 .1-.1.1h-.8v1.7c0 .2 0 .3.1.4.1.1.2.1.3.1.1 0 .3 0 .5-.1l.1.2c.2.1-.3.3-.6.3zm2 0c-.3 0-.5-.1-.7-.3-.1-.1-.1-.2-.1-.5v-1.7h-.4c-.1 0-.1 0-.1-.1v-.2c0-.1 0-.1.1-.1h.4v-.8s0-.1.1-.1l.3-.1v1h1l-.1.2s0 .1-.1.1h-.8v1.7c0 .2 0 .3.1.4.1.1.2.1.3.1.1 0 .3 0 .5-.1l.1.2c.2.1-.3.3-.6.3z"/><path d="M66.7 167.3l-.7 2.4c-.1.4-.3.9-.4 1.2-.2.3-.4.5-.7.5-.3 0-.8-.2-.8-.3l.1-.2c.2.1.4.2.5.2.2 0 .3-.2.5-.5l.1-.4h-.2s-.1 0-.1-.1l-.9-2.7h.1l.3-.1v.1l.8 2.3c.1.2.1.2.1.4 0-.2.1-.3.1-.4l.6-2.3h.1l.5-.1c0-.1.1-.1 0 0 .1-.1.1-.1 0 0z"/><path fill="#FFF" d="M11.7 21.6h65.2v139H11.7zm68.7 0H148v139H80.4z"/><path d="M72.1 150.4c-.4 0-.7-.1-.9-.5-.3-.4-.5-1-.5-1.8 0-1.5.5-2.4 1.4-2.4.8 0 1.3.8 1.3 2.3.1 1.6-.4 2.4-1.3 2.4zm0-4.2c-.5 0-.8.7-.8 1.9 0 .6.1 1.1.2 1.4.1.3.3.4.6.4s.5-.2.6-.5c.1-.3.2-.8.2-1.4 0-1.2-.3-1.8-.8-1.8zm-.5-17.8c-.3 0-.6 0-.8-.1-.1 0-.1 0-.1-.1v-.1l.1-.3h.2c.2.1.4.1.7.1.4 0 .6-.1.8-.3.2-.2.3-.5.3-.8 0-.6-.3-.9-.7-.9-.3 0-.5.1-.8.4h-.2l-.2-.1c-.1 0-.1 0-.1-.1l.2-2.2c0-.1 0-.1.1-.1h1.7c.1 0 .1 0 .1.1v.3c0 .1 0 .1-.1.1h-1.4l-.1 1.4c.3-.2.5-.3.8-.3.7 0 1.1.6 1.1 1.4-.1 1-.7 1.6-1.6 1.6zm1.4-22.1s0 .1 0 0l-1.9.1c-.1 0-.1 0-.1-.1v-.3c0-.1 0-.1.1-.1h.7v-3.4l-.9.6h-.1l-.1-.1-.1-.2v-.1l.1-.1 1.2-.9h.3c.1 0 .1 0 .1.1v4h.6c.1 0 .1 0 .1.1v.4zm1.9.2c-.4 0-.7-.1-.9-.5-.3-.4-.5-1-.5-1.8 0-1.5.5-2.4 1.4-2.4.8 0 1.3.8 1.3 2.3 0 1.5-.4 2.4-1.3 2.4zm0-4.2c-.5 0-.8.7-.8 1.9 0 .6.1 1.1.2 1.4.1.3.3.4.6.4s.5-.2.6-.5c.1-.3.2-.8.2-1.4 0-1.2-.3-1.8-.8-1.8zm-1.9-18c0 .1 0 .1 0 0l-1.9.1c-.1 0-.1 0-.1-.1V84c0-.1 0-.1.1-.1h.7v-3.4l-.9.6h-.1l-.1-.1-.1-.2v-.1l.1-.1 1.2-.9h.3c.1 0 .1 0 .1.1v4h.6c.1 0 .1 0 .1.1v.4zm1.7.2c-.3 0-.6 0-.8-.1-.1 0-.1 0-.1-.1v-.1l.1-.3h.2c.2.1.4.1.7.1.4 0 .6-.1.8-.3.2-.2.3-.5.3-.8 0-.6-.3-.9-.7-.9-.3 0-.5.1-.8.4h-.2l-.2-.1c-.1 0-.1 0-.1-.1L74 80c0-.1 0-.1.1-.1h1.7c.1 0 .1 0 .1.1v.3c0 .1 0 .1-.1.1h-1.4l-.1 1.4c.3-.2.5-.3.8-.3.7 0 1.1.6 1.1 1.4 0 .9-.6 1.6-1.5 1.6zm-1.6-22.2c0 .1 0 .1 0 0l-2.3.1c-.1 0-.1 0-.1-.1 0-1 .3-1.6 1.1-2.2.4-.3.5-.3.6-.5.1-.1.2-.3.2-.6 0-.5-.3-.7-.7-.7-.4 0-.6.2-.8.7 0 0 0 .1-.1.1h-.1l-.1-.1s-.1 0-.1-.1.1-.4.3-.6c.2-.3.6-.5 1-.5.7 0 1.2.5 1.2 1.3 0 .5-.2.9-.8 1.3-.7.5-1 .9-1 1.5H73c.1 0 .1 0 .1.1v.3zm2.1.2c-.4 0-.7-.1-.9-.5-.3-.4-.5-1-.5-1.8 0-1.5.5-2.4 1.4-2.4.8 0 1.3.8 1.3 2.3 0 1.6-.4 2.4-1.3 2.4zm0-4.2c-.5 0-.8.7-.8 1.9 0 .6.1 1.1.2 1.4.1.3.3.4.6.4s.5-.2.6-.5c.1-.3.2-.8.2-1.4 0-1.2-.3-1.8-.8-1.8zm-2.1-17.9s0 .1 0 0l-2.3.1c-.1 0-.1 0-.1-.1 0-1 .3-1.6 1.1-2.2.4-.3.5-.3.6-.5.1-.1.2-.3.2-.6 0-.5-.3-.7-.7-.7-.4 0-.6.2-.8.7 0 0 0 .1-.1.1h-.1l-.1-.2s-.1 0-.1-.1.1-.4.3-.6c.2-.3.6-.5 1-.5.7 0 1.2.5 1.2 1.3 0 .5-.2.9-.8 1.3-.7.5-1 .9-1 1.5H73c.1 0 .1 0 .1.1v.4zm1.8.2c-.3 0-.6 0-.8-.1-.1 0-.1 0-.1-.1V40h.2c.2.1.4.1.7.1.4 0 .6-.1.8-.3.2-.2.3-.5.3-.8 0-.6-.3-.9-.7-.9-.3 0-.5.1-.8.4h-.2l-.3-.1c-.1 0-.1 0-.1-.1l.2-2.2c0-.1 0-.1.1-.1H76c.1 0 .1 0 .1.1v.3c0 .1 0 .1-.1.1h-1.4l-.1 1.4c.3-.2.5-.3.8-.3.7 0 1.1.6 1.1 1.4 0 .9-.6 1.6-1.5 1.6z"/><path fill="none" stroke="#000" stroke-width=".3" stroke-miterlimit="6" d="M11.8 148h57.9"/><path fill="none" stroke="#C6C6C6" stroke-width=".7" stroke-miterlimit="6" d="M11.8 126.2h57.9m-57.9-21.9h57.9M11.8 82.4h57.9m-57.9-22h57.9M11.8 38.5h57.9"/><g fill="none"><path stroke="#000" stroke-width=".3" stroke-miterlimit="6" d="M17.7 148v3.8"/><path d="M18.1 148v1.7m.5-1.7v1.7m.4-1.7v1.7m.5-1.7v1.7m.4-1.7v1.7m.4-1.7v1.7m.5-1.7v1.7m.4-1.7v1.7m.5-1.7v1.7"/><path stroke="#000" stroke-width=".3" stroke-miterlimit="6" d="M22.1 148v2.8"/><path d="M22.6 148v1.7m.4-1.7v1.7m.5-1.7v1.7m.4-1.7v1.7m.4-1.7v1.7m.5-1.7v1.7m.4-1.7v1.7m.5-1.7v1.7m.4-1.7v1.7"/><path stroke="#000" stroke-width=".3" stroke-miterlimit="6" d="M26.6 148v3.8"/><path d="M27 148v1.7m.5-1.7v1.7m.4-1.7v1.7m.4-1.7v1.7m.5-1.7v1.7m.4-1.7v1.7m.5-1.7v1.7m.4-1.7v1.7m.5-1.7v1.7"/><path stroke="#000" stroke-width=".3" stroke-miterlimit="6" d="M31 148v2.8"/><path d="M31.4 148v1.7m.5-1.7v1.7m.4-1.7v1.7m.5-1.7v1.7m.4-1.7v1.7m.5-1.7v1.7m.4-1.7v1.7m.5-1.7v1.7m.4-1.7v1.7"/><path stroke="#000" stroke-width=".3" stroke-miterlimit="6" d="M35.4 148v3.8"/><path d="M35.9 148v1.7m.4-1.7v1.7m.5-1.7v1.7m.4-1.7v1.7m.5-1.7v1.7m.4-1.7v1.7m.5-1.7v1.7m.4-1.7v1.7m.4-1.7v1.7"/><path stroke="#000" stroke-width=".3" stroke-miterlimit="6" d="M39.9 148v2.8"/><path d="M40.3 148v1.7m.5-1.7v1.7m.4-1.7v1.7m.5-1.7v1.7m.4-1.7v1.7m.4-1.7v1.7m.5-1.7v1.7m.4-1.7v1.7m.5-1.7v1.7"/><path stroke="#000" stroke-width=".3" stroke-miterlimit="6" d="M44.3 148v3.8"/><path d="M44.8 148v1.7m.4-1.7v1.7m.5-1.7v1.7m.4-1.7v1.7m.4-1.7v1.7m.5-1.7v1.7m.4-1.7v1.7m.5-1.7v1.7m.4-1.7v1.7"/><path stroke="#000" stroke-width=".3" stroke-miterlimit="6" d="M48.8 148v2.8"/><path d="M49.2 148v1.7m.5-1.7v1.7m.4-1.7v1.7m.4-1.7v1.7m.5-1.7v1.7m.4-1.7v1.7m.5-1.7v1.7m.4-1.7v1.7m.5-1.7v1.7"/><path stroke="#000" stroke-width=".3" stroke-miterlimit="6" d="M53.2 148v3.8"/><path d="M53.6 148v1.7m.5-1.7v1.7m.4-1.7v1.7m.5-1.7v1.7m.4-1.7v1.7m.5-1.7v1.7m.4-1.7v1.7m.5-1.7v1.7m.4-1.7v1.7"/><path stroke="#000" stroke-width=".3" stroke-miterlimit="6" d="M57.6 148v2.8"/><path d="M58.1 148v1.7m.4-1.7v1.7m.5-1.7v1.7m.4-1.7v1.7m.5-1.7v1.7m.4-1.7v1.7m.5-1.7v1.7m.4-1.7v1.7m.4-1.7v1.7"/><path stroke="#000" stroke-width=".3" stroke-miterlimit="6" d="M62.1 148v3.8"/><path d="M62.5 148v1.7m.5-1.7v1.7m.4-1.7v1.7m.5-1.7v1.7m.4-1.7v1.7m.5-1.7v1.7m.4-1.7v1.7m.4-1.7v1.7m.5-1.7v1.7"/><path stroke="#000" stroke-width=".3" stroke-miterlimit="6" d="M66.5 148v2.8"/><path d="M67 148v1.7m.4-1.7v1.7"/><path stroke="#000" stroke-width=".3" stroke-miterlimit="6" d="M67.9 148v1.7"/></g><path d="M14.1 160.5c0 .1-.1.1 0 0l-1.9.1c-.1 0-.1 0-.1-.1v-.3c0-.1 0-.1.1-.1h.7v-3.4l-.9.6h-.1l-.1-.1-.1-.2v-.1l.1-.1 1.2-.9h.3c.1 0 .1 0 .1.1v4h.6c.1 0 .1 0 .1.1v.4zm1.4.2c-.4 0-.6-.1-.6-.2v-.3s0-.1.1-.1h.1c.1 0 .3.1.4.1.7 0 1.1-.5 1.2-1.6-.2.4-.5.5-.9.5-.7 0-1.1-.6-1.1-1.6s.5-1.6 1.3-1.6 1.2.6 1.2 1.9c0 1.8-.7 2.9-1.7 2.9zm.4-4.2c-.5 0-.7.4-.7 1.1 0 .7.3 1.1.7 1.1.5 0 .7-.4.7-1.1 0-.7-.2-1.1-.7-1.1zm3.3 4.2c-.4 0-.7-.1-.9-.5-.3-.4-.5-1-.5-1.8 0-1.5.5-2.4 1.4-2.4.8 0 1.3.8 1.3 2.3.1 1.5-.4 2.4-1.3 2.4zm0-4.2c-.5 0-.8.7-.8 1.9 0 .6.1 1.1.2 1.4.1.3.3.4.6.4s.5-.2.6-.5c.1-.3.2-.8.2-1.4.1-1.2-.2-1.8-.8-1.8zm3.3 4.2c-.4 0-.7-.1-.9-.5-.3-.4-.5-1-.5-1.8 0-1.5.5-2.4 1.4-2.4.8 0 1.3.8 1.3 2.3 0 1.5-.4 2.4-1.3 2.4zm0-4.2c-.5 0-.8.7-.8 1.9 0 .6.1 1.1.2 1.4.1.3.3.4.6.4s.5-.2.6-.5c.1-.3.2-.8.2-1.4 0-1.2-.3-1.8-.8-1.8zm12.8 3c0 .1 0 .1 0 0l-.6.1v1c0 .1 0 .1-.1.1h-.3c-.1 0-.1 0-.1-.1v-1h-1.7c-.1 0-.1 0-.1-.1v-.4l1.7-3s0-.1.1-.1l.3.1c.1 0 .1 0 .1.1v.1l-1.7 2.9h1.3l.1-1.1c0-.1 0-.1.1-.1h.2c.1 0 .1 0 .1.1v1.1h.5c.1 0 .1 0 .1.1v.2zm1.8 1.2c-.4 0-.7-.1-.9-.5-.3-.4-.5-1-.5-1.8 0-1.5.5-2.4 1.4-2.4.8 0 1.3.8 1.3 2.3 0 1.5-.4 2.4-1.3 2.4zm0-4.2c-.5 0-.8.7-.8 1.9 0 .6.1 1.1.2 1.4.1.3.3.4.6.4s.5-.2.6-.5c.1-.3.2-.8.2-1.4 0-1.2-.3-1.8-.8-1.8zm15.6 3.7c-.3.3-.6.5-1.1.5-.8 0-1.4-.5-1.4-1.3 0-.3.1-.7.4-.9.1-.1.3-.2.6-.3-.5-.2-.8-.6-.8-1.1 0-.3.1-.6.3-.8.2-.2.5-.4.9-.4.7 0 1.2.4 1.2 1.1 0 .5-.2.9-.8 1.1.6.3.9.7.9 1.2.1.4 0 .7-.2.9zm-1.1-1.7c-.2.1-.3.1-.4.2-.3.2-.4.5-.4.8 0 .5.3.8.9.8.5 0 .8-.3.8-.8-.1-.5-.3-.8-.9-1zm0-2.1c-.4 0-.7.3-.7.7 0 .4.2.6.7.9.5-.2.7-.5.7-.9s-.3-.7-.7-.7zm3.2 4.3c-.4 0-.7-.1-.9-.5-.3-.4-.5-1-.5-1.8 0-1.5.5-2.4 1.4-2.4.8 0 1.3.8 1.3 2.3.1 1.5-.4 2.4-1.3 2.4zm.1-4.2c-.5 0-.8.7-.8 1.9 0 .6.1 1.1.2 1.4.1.3.3.4.6.4s.5-.2.6-.5c.1-.3.2-.8.2-1.4 0-1.2-.3-1.8-.8-1.8zm9.4 4c0 .1 0 .1 0 0l-2.3.1c-.1 0-.1 0-.1-.1 0-1 .3-1.6 1.1-2.2.4-.3.5-.3.6-.5.1-.1.2-.3.2-.6 0-.5-.3-.7-.7-.7-.4 0-.6.2-.8.7 0 0 0 .1-.1.1h-.1l-.3-.1s-.1 0-.1-.1.1-.4.3-.6c.2-.3.6-.5 1-.5.7 0 1.2.5 1.2 1.3 0 .5-.2.9-.8 1.3-.7.5-1 .9-1 1.5h1.7c.1 0 .1 0 .1.1v.3zm2 .2c-.4 0-.7-.1-.9-.5-.3-.4-.5-1-.5-1.8 0-1.5.5-2.4 1.4-2.4.8 0 1.3.8 1.3 2.3.1 1.5-.4 2.4-1.3 2.4zm0-4.2c-.5 0-.8.7-.8 1.9 0 .6.1 1.1.2 1.4.1.3.3.4.6.4s.5-.2.6-.5c.1-.3.2-.8.2-1.4.1-1.2-.2-1.8-.8-1.8zm4.3 4c0 .1 0 .1 0 0l-1.9.1c-.1 0-.1 0-.1-.1v-.3c0-.1 0-.1.1-.1h.7v-3.4l-.9.6h-.1l-.1-.1-.1-.2v-.1l.1-.1 1.2-.9h.3c.1 0 .1 0 .1.1v4h.6c.1 0 .1 0 .1.1v.4zm1.8.2c-.5 0-1.1-.2-1.1-.3v-.1l.1-.3h.1c.3.2.6.2.9.2.6 0 .9-.3.9-.9 0-.6-.3-.9-1-.9h-.2c-.1 0-.1 0-.1-.1v-.3c0-.1 0-.1.1-.1h.2c.5 0 .9-.3.9-.8 0-.4-.3-.7-.6-.7-.2 0-.5.1-.7.3l-.1.1-.2-.2c0-.1.2-.2.3-.4.2-.2.5-.3.8-.3.7 0 1.1.5 1.1 1.1 0 .5-.2.8-.7 1 .2.1.3.1.4.2.3.2.4.6.4 1 0 .9-.6 1.5-1.5 1.5z"/><path fill="#00AEA1" d="M22 49.2c-.2.1-.4.1-.9.1H20v-4.8h1.2c.5 0 .7 0 1 .2.3.2.4.5.4 1s-.2.9-.7 1.1c.3.1.4.1.5.2.2.2.4.6.4.9 0 .7-.3 1.2-.8 1.3zm-.8-4.2h-.7v1.7h.5c.3 0 .4 0 .6-.1.2-.2.3-.4.3-.8.1-.6-.1-.8-.7-.8zm.6 2.2c-.1-.1-.3-.1-.6-.1h-.7v1.7h.7c.3 0 .5 0 .6-.2.2-.1.3-.4.3-.7.1-.3 0-.5-.3-.7zm3.3-.8h-.2c-.2 0-.5.4-.6.5v2.4h-.5v-2.4c0-.2 0-.7-.1-.9l.5-.1c.1.1.1.4.1.5.2-.3.4-.6.7-.6.1 0 .2 0 .3.1l-.2.5zm.9-1.3c-.2 0-.4-.2-.4-.4s.2-.4.4-.4.4.2.4.4c-.1.2-.2.4-.4.4zm.2 4.2h-.5V46h.5v3.3zm2.4 0c-.1 0-.3.1-.5.1-.6 0-.8-.4-.8-1v-2h-.5V46h.5v-1.1l.5-.1V46h.7l-.1.4h-.6v2c0 .3.1.5.4.5.1 0 .3 0 .4-.1v.5zm2.7 0h-.5V49c-.2.2-.5.4-.9.4-.6 0-.9-.4-.9-1 0-.8.6-1.2 1.8-1.2V47c0-.4-.2-.6-.6-.6-.4 0-.8.2-.9.2l-.1-.4c.2-.1.5-.3 1.1-.3.7 0 1.1.3 1.1 1v2.4zm-.5-1.6c-.9 0-1.3.3-1.3.7 0 .3.2.6.5.6.2 0 .5-.1.8-.4v-.9zm1.9-2.6c-.2 0-.4-.2-.4-.4s.2-.4.4-.4.4.2.4.4-.2.4-.4.4zm.3 4.2h-.5V46h.5v3.3zm3.6 0H36v-2.4c0-.4-.1-.6-.5-.6-.3 0-.5.1-.9.4v2.6h-.5v-2.4c0-.2 0-.7-.1-.9l.5-.1c.1.1.1.3.1.5.3-.3.6-.5 1.1-.5.3 0 .5.1.7.3.1.2.2.3.2.8v2.3z"/><path d="M14.2 22.4c0 .1 0 .1-.1.1h-.9v4c0 .1 0 .1-.1.1h-.5c-.1 0-.1 0-.1-.1v-4h-1c-.1 0-.1 0-.1-.1V22c0-.1 0-.1.1-.1h2.8c.1 0 .1 0 .1.2l-.2.3zm1.4 4.3c-.9 0-1.4-.7-1.4-1.8s.6-1.8 1.5-1.8 1.4.7 1.4 1.8-.6 1.8-1.5 1.8zm0-3c-.5 0-.7.4-.7 1.2 0 .9.2 1.3.7 1.3s.7-.4.7-1.3c0-.8-.2-1.2-.7-1.2zm3.8 3c-.3 0-.5-.1-.8-.2v1.4c0 .1 0 .1-.1.1l-.5.1c-.1 0-.1 0-.1-.1v-3.8c0-.3 0-.4-.1-.6-.1-.1-.1-.2 0-.2l.5-.2c.1-.1.1 0 .2.1 0 .1.1.2.1.3.3-.3.6-.4.9-.4.8 0 1.2.6 1.2 1.7-.1 1.2-.5 1.8-1.3 1.8zm-.1-3c-.2 0-.4.1-.7.3v2c.3.2.4.2.6.2.5 0 .6-.3.6-1.3.1-.9-.1-1.2-.5-1.2zm6 2.8c0 .1 0 .1-.1.1h-1.9c-.1 0-.1 0-.1-.1v-.3c0-.1 0-.1.1-.1h.7v-3.2l-1 .5h-.2l-.1-.2c0-.1-.1-.1 0-.2l1.3-1h.4c.1 0 .1 0 .1.1V26h.5c.1 0 .1 0 .1.1v.4zm1.8-2c-.6 0-1-.4-1-1.2 0-.8.4-1.3 1-1.3s1 .4 1 1.2c0 .8-.3 1.3-1 1.3zm0-2c-.3 0-.4.3-.4.8s.1.8.4.8c.3 0 .5-.3.5-.8 0-.6-.2-.8-.5-.8zm.8 4.2c0 .1-.1.1-.1.1h-.3c-.1 0-.1 0-.1-.2l1.9-4.7c0-.1 0-.1.1-.1h.3c.1 0 .1 0 .1.1l-1.9 4.8zm2.3 0c-.6 0-1-.4-1-1.2 0-.8.4-1.3 1-1.3s1 .4 1 1.2c0 .8-.4 1.3-1 1.3zm0-2c-.3 0-.4.3-.4.8s.1.8.4.8c.3 0 .5-.3.5-.8-.1-.5-.2-.8-.5-.8zm4 1.8c0 .1 0 .1 0 0l-.6.1c-.1 0-.1 0-.1-.1v-2.8H33c-.1 0-.1 0-.1-.1v-.3c0-.1 0-.1.1-.1h1.1c.1 0 .1 0 .1.1v3.2zm-.4-3.9c-.3 0-.5-.2-.5-.5s.2-.5.5-.5.5.2.5.5-.2.5-.5.5zm4.2 3.9c0 .1 0 .1-.1.1h-.5c-.1 0-.1 0-.1-.1v-2.2c0-.4-.1-.6-.4-.6-.3 0-.5.1-.8.4v2.5c0 .1 0 .1-.1.1h-.5c-.1 0-.1 0-.1-.1v-2.4c0-.3 0-.5-.1-.7v-.1l.5-.2c.1 0 .1 0 .1.1s.1.2.1.4c.3-.3.6-.5 1-.5.7 0 .9.3.9 1.1v2.2zm3-2.5c0 .1-.1 0-.1 0-.3-.2-.4-.3-.6-.3-.5 0-.8.4-.8 1.2 0 .8.2 1.2.7 1.2.3 0 .5-.1.7-.3h.1l.1.3v.2c-.3.2-.7.3-1 .3-.9 0-1.4-.6-1.4-1.7 0-1.2.6-1.9 1.5-1.9.3 0 .7.1.9.3.1 0 .1.1.1.2l-.2.5zm2 2.7c-.9 0-1.4-.7-1.4-1.8s.6-1.8 1.5-1.8 1.4.7 1.4 1.8-.6 1.8-1.5 1.8zm.1-3c-.5 0-.7.4-.7 1.2 0 .9.2 1.3.7 1.3s.7-.4.7-1.3c0-.8-.3-1.2-.7-1.2zm6.4 2.8c0 .1 0 .1-.1.1h-.5c-.1 0-.1 0-.1-.1v-2.3c0-.4-.1-.5-.4-.5-.2 0-.4.1-.7.3v2.5c0 .1 0 .1-.1.1h-.5c-.1 0-.1 0-.1-.1v-2.3c0-.4-.1-.6-.4-.6-.2 0-.4.1-.7.3v2.5c0 .1 0 .1-.1.1h-.5c-.1 0-.1 0-.1-.1V24c0-.3 0-.4-.1-.6 0-.1-.1-.2 0-.2l.4-.2c.1-.1.2.1.2.2s0 .1.1.2c.4-.3.7-.5 1-.5.4 0 .6.1.7.5.4-.3.7-.5 1.1-.5.7 0 .8.5.8 1.1v2.5zm3.5-1.4h-2c0 .7.3 1 .8 1 .4 0 .6-.2.9-.3h.1l.2.3c0 .1 0 .1-.1.2-.3.2-.7.3-1.1.3-1 0-1.5-.7-1.5-1.8s.6-1.8 1.5-1.8 1.3.6 1.3 1.7c0 .3 0 .4-.1.4zm-.7-.5c0-.6-.2-.9-.6-.9-.4 0-.6.3-.7.9h1.3zm3.9 2.1c-.4 0-.8-.1-1.1-.3-.1 0-.1 0 0-.1l.1-.4c0-.1.1 0 .1 0 .3.2.6.3.9.3.3 0 .5-.2.5-.4s-.1-.3-.5-.5c-.2-.1-.5-.3-.7-.4-.3-.2-.4-.5-.4-.7 0-.6.5-1.1 1.2-1.1.3 0 .7.1.9.2.1 0 .1.1 0 .2l-.1.3c0 .1-.1.1-.1 0-.2-.1-.5-.2-.7-.2-.3 0-.5.2-.5.4s.1.3.4.5c.2.1.6.3.7.4.4.2.4.4.4.8 0 .6-.4 1-1.1 1zm4.6-.2c0 .1 0 .1-.1.1h-.5c-.1 0-.1 0-.1-.1v-2.2c0-.4-.1-.6-.4-.6-.2 0-.5.1-.8.4v2.5c0 .1 0 .1-.1.1h-.5c-.1 0-.1 0-.1-.1v-4.7c0-.1 0-.1.1-.1l.5-.1c.1 0 .1 0 .1.1v1.9c.3-.3.6-.4 1-.4.7 0 .9.5.9 1.1v2.1zm3.4 0l-.4.2c-.1 0-.1 0-.2-.1 0-.1-.1-.2-.1-.3-.3.3-.6.4-.9.4-.6 0-1-.4-1-1 0-1 1-1.2 1.8-1.2v-.2c0-.4-.1-.6-.6-.6-.2 0-.5.1-.8.2h-.1l-.1-.3c0-.1.1-.2.1-.2.3-.1.7-.2 1-.2.8 0 1.2.3 1.2 1.1v1.4c0 .4 0 .6.2.8-.1-.1-.1 0-.1 0zm-.9-1.5c-.4 0-1.1 0-1.1.6 0 .3.2.5.5.5.2 0 .4-.1.7-.3V25zm3.5-1.2s-.1 0 0 0h-.3c-.2 0-.3.1-.6.4v2.3c0 .1 0 .1-.1.1h-.5c-.1 0-.1 0-.1-.1v-2.1c0-.4 0-.6-.1-.9 0-.1-.1-.2 0-.2l.4-.2c.1-.1.2.1.2.2.1.1.1.3.1.3.3-.3.5-.6.9-.6.1 0 .3 0 .3.1.1 0 .1.1 0 .1l-.2.6zm3.1 1.3H68c0 .7.3 1 .8 1 .4 0 .6-.2.9-.3h.1l.2.3c0 .1 0 .1-.1.2-.3.2-.7.3-1.1.3-1 0-1.5-.7-1.5-1.8s.6-1.8 1.5-1.8 1.3.6 1.3 1.7c-.1.3-.1.4-.2.4zm-.7-.5c0-.6-.2-.9-.6-.9-.4 0-.6.3-.7.9h1.3zm-56.8 7.2c-.5 0-.8-.4-.8-1 0-.7.3-1.1.9-1.1.5 0 .8.4.8 1 0 .7-.3 1.1-.9 1.1zm0-1.7c-.2 0-.4.2-.4.7 0 .4.1.7.4.7.3 0 .4-.2.4-.7 0-.5-.1-.7-.4-.7zm.7 3.6c0 .1-.1.1-.1.1h-.3c-.1 0-.1 0-.1-.1l1.7-4s0-.1.1-.1h.3c.1 0 .1 0 .1.1l-1.7 4zm1.9 0c-.5 0-.8-.4-.8-1 0-.7.3-1.1.9-1.1.5 0 .8.4.8 1 0 .7-.3 1.1-.9 1.1zm0-1.7c-.2 0-.4.2-.4.7 0 .4.1.7.4.7.3 0 .4-.2.4-.7 0-.5-.1-.7-.4-.7zm68.1-9.6c0 .1 0 .1-.1.1h-1v4c0 .1 0 .1-.1.1h-.5c-.1 0-.1 0-.1-.1v-4h-1c-.1 0-.1 0-.1-.1V22c0-.1 0-.1.1-.1h2.8c.1 0 .1 0 .1.2l-.1.3zm1.3 4.3c-.9 0-1.4-.7-1.4-1.8s.6-1.8 1.5-1.8 1.4.7 1.4 1.8-.6 1.8-1.5 1.8zm0-3c-.5 0-.7.4-.7 1.2 0 .9.2 1.3.7 1.3s.7-.4.7-1.3c0-.8-.2-1.2-.7-1.2zm3.8 3c-.3 0-.5-.1-.8-.2v1.4c0 .1 0 .1-.1.1l-.5.1c-.1 0-.1 0-.1-.1v-3.8c0-.3 0-.4-.1-.6-.1-.1-.1-.2 0-.2l.5-.2c.1-.1.1 0 .2.1 0 .1.1.2.1.3.3-.3.6-.4.9-.4.8 0 1.2.6 1.2 1.7 0 1.2-.5 1.8-1.3 1.8zm-.1-3c-.2 0-.4.1-.7.3v2c.3.2.4.2.6.2.5 0 .6-.3.6-1.3.1-.9 0-1.2-.5-1.2zm5.5 2.7c0 .1 0 .1-.1.1-.3.1-.6.2-.8.2-.7 0-.9-.4-.9-1.1v-1.9h-.5c-.1 0-.1 0-.1-.1v-.3c0-.1 0-.1.1-.1h.5v-.9c0-.1 0-.1.1-.1l.5-.1c.1 0 .1 0 .1.1v1h.9c.1 0 .1 0 .1.1l-.1.3c0 .1 0 .1-.1.1h-.8v1.8c0 .4.1.5.3.5.2 0 .4-.1.5-.1.1 0 .1 0 .1.1l.2.4zm3.1.1l-.4.2c-.1 0-.1 0-.2-.1 0-.1-.1-.2-.1-.3-.3.3-.6.4-.9.4-.6 0-1-.4-1-1 0-1 1-1.2 1.8-1.2v-.2c0-.4-.1-.6-.6-.6-.2 0-.5.1-.8.2h-.1l-.1-.3c0-.1.1-.2.1-.2.3-.1.7-.2 1-.2.8 0 1.2.3 1.2 1.1v1.4c0 .4 0 .6.2.8 0-.1 0 0-.1 0zm-.8-1.5c-.4 0-1.1 0-1.1.6 0 .3.2.5.5.5.2 0 .4-.1.7-.3V25zm4.3 1.4c0 .1 0 .1-.1.1l-.5.1h-.1l-.6-.9c-.1-.1-.2-.2-.2-.3-.1.1-.1.2-.2.3l-.6.9c-.1.1-.1.1-.1 0l-.4-.2c-.1 0-.1-.1-.1-.1l1.1-1.5-1-1.4c0-.1-.1-.1 0-.2l.5-.2h.1l.5.8c.1.1.1.3.2.4.1-.2.2-.2.3-.4l.5-.8c.1-.1.1-.1.2 0l.4.2c.1 0 .1.1 0 .2l-1 1.3 1.1 1.7zm3.7-2.6h-.3c-.2 0-.3.1-.6.4v2.3c0 .1 0 .1-.1.1h-.5c-.1 0-.1 0-.1-.1v-2.1c0-.4 0-.6-.1-.9 0-.1-.1-.2 0-.2l.4-.2c.1-.1.2.1.2.2.1.1.1.3.1.3.3-.3.5-.6.9-.6.1 0 .3 0 .3.1.1 0 .1.1 0 .1l-.2.6zm3.1 2.7l-.4.2c-.1 0-.1 0-.2-.1 0-.1-.1-.2-.1-.3-.3.3-.6.4-.9.4-.6 0-1-.4-1-1 0-1 1-1.2 1.8-1.2v-.2c0-.4-.1-.6-.6-.6-.2 0-.5.1-.8.2h-.1l-.1-.3c0-.1.1-.2.1-.2.3-.1.7-.2 1-.2.8 0 1.2.3 1.2 1.1v1.4c0 .4 0 .6.2.8 0-.1 0 0-.1 0zm-.8-1.5c-.4 0-1.1 0-1.1.6 0 .3.2.5.5.5.2 0 .4-.1.7-.3V25zm3.7 1.4c0 .1 0 .1-.1.1-.3.1-.6.2-.8.2-.7 0-.9-.4-.9-1.1v-1.9h-.5c-.1 0-.1 0-.1-.1v-.3c0-.1 0-.1.1-.1h.5v-.9c0-.1 0-.1.1-.1l.5-.1c.1 0 .1 0 .1.1v1h.9c.1 0 .1 0 .1.1l-.1.3c0 .1 0 .1-.1.1h-.8v1.8c0 .4.1.5.3.5.2 0 .4-.1.5-.1.1 0 .1 0 .1.1l.2.4zm3-1.3H111c0 .7.3 1 .8 1 .4 0 .6-.2.9-.3h.1l.2.3c0 .1 0 .1-.1.2-.3.2-.7.3-1.1.3-1 0-1.5-.7-1.5-1.8s.6-1.8 1.5-1.8 1.3.6 1.3 1.7c-.1.3-.1.4-.2.4zm-.7-.5c0-.6-.2-.9-.6-.9-.4 0-.6.3-.7.9h1.3zm-30.9 7.2c-.5 0-.8-.4-.8-1 0-.7.3-1.1.9-1.1.5 0 .8.4.8 1-.1.7-.4 1.1-.9 1.1zm0-1.7c-.2 0-.4.2-.4.7 0 .4.1.7.4.7.3 0 .4-.2.4-.7-.1-.5-.2-.7-.4-.7zm.7 3.6c0 .1-.1.1-.1.1h-.3c-.1 0-.1 0-.1-.1l1.7-4s0-.1.1-.1h.3c.1 0 .1 0 .1.1l-1.7 4zm1.9 0c-.5 0-.8-.4-.8-1 0-.7.3-1.1.9-1.1.5 0 .8.4.8 1-.1.7-.4 1.1-.9 1.1zm0-1.7c-.2 0-.4.2-.4.7 0 .4.1.7.4.7.3 0 .4-.2.4-.7-.1-.5-.2-.7-.4-.7z"/><path fill="#0F6967" d="M45.3 70.9c0 1-.6 1.4-1.5 1.4s-1.4-.5-1.4-1.4v-3.5h.6v3.5c0 .7.3 1 .9 1 .6 0 .9-.3.9-1v-3.5h.6v3.5zm3.6 1.3h-.5v-2.4c0-.4-.1-.6-.5-.6-.3 0-.5.1-.9.4v2.6h-.5v-2.4c0-.2 0-.7-.1-.9l.5-.1c.1.1.1.3.1.5.3-.3.6-.5 1.1-.5.3 0 .5.1.7.3.1.2.2.3.2.8v2.3zm1.4-4.2c-.2 0-.4-.2-.4-.4s.2-.4.4-.4.4.2.4.4c-.1.2-.2.4-.4.4zm.2 4.2H50v-3.4h.5v3.4zm2.4 0c-.1 0-.3.1-.5.1-.6 0-.8-.4-.8-1v-2h-.5v-.4h.5v-1.1l.5-.1v1.1h.7l-.1.4h-.6v2c0 .3.1.5.4.5.1 0 .3 0 .4-.1v.6zm.9-1.5c0 .8.4 1.2.9 1.2.4 0 .7-.2.9-.3l.2.4c-.2.1-.6.4-1.1.4-.9 0-1.5-.7-1.5-1.8s.5-1.8 1.4-1.8c.6 0 1 .3 1.2.8.1.2.1.5.1 1.1h-2.1zm1.5-.5c0-.7-.3-1-.7-1s-.7.4-.8 1h1.5zm3.7 2h-.4l-.1-.3c-.3.2-.6.4-1 .4-.7 0-1.1-.7-1.1-1.8s.5-1.7 1.3-1.7c.3 0 .5.1.8.2v-1.8l.5-.1v5.1zm-.5-2.8c-.3-.2-.5-.2-.7-.2-.5 0-.7.4-.7 1.2 0 1 .2 1.4.7 1.4.3 0 .5-.1.8-.4v-2zm-13.3 9.4c-.6 0-1-.2-1.4-.4l.2-.5c.4.2.7.4 1.2.4s.9-.3.9-.8c0-.4-.2-.6-.9-1-.6-.3-1.2-.6-1.2-1.4 0-.7.6-1.3 1.4-1.3.6 0 1 .2 1.2.3l-.2.5c-.3-.2-.6-.3-1-.3-.5 0-.8.3-.8.7 0 .5.4.7.8 1 .6.4 1.2.7 1.2 1.5s-.6 1.3-1.4 1.3zm3.5-.1c-.1 0-.3.1-.5.1-.6 0-.8-.4-.8-1v-2h-.5v-.4h.5v-1.1l.5-.1v1.1h.7l-.1.4H48v2c0 .3.1.5.4.5.1 0 .3 0 .4-.1l-.1.6zm2.7 0H51l-.1-.3c-.2.2-.5.4-.9.4-.6 0-.9-.4-.9-1 0-.8.6-1.2 1.8-1.2v-.2c0-.4-.2-.6-.6-.6-.4 0-.8.2-.9.2l-.1-.4c.2-.1.5-.3 1.1-.3.7 0 1.1.3 1.1 1v2.4zm-.5-1.7c-.9 0-1.3.3-1.3.7 0 .3.2.6.5.6.2 0 .5-.1.8-.4V77zm2.9 1.7c-.1 0-.3.1-.5.1-.6 0-.8-.4-.8-1v-2H52v-.4h.5v-1.1l.5-.1v1.1h.7l-.1.4H53v2c0 .3.1.5.4.5.1 0 .3 0 .4-.1v.6zm.9-1.5c0 .8.4 1.2.9 1.2.4 0 .7-.2.9-.3l.2.4c-.2.1-.6.4-1.1.4-.9 0-1.5-.7-1.5-1.8s.5-1.8 1.4-1.8c.6 0 1 .3 1.2.8.1.2.1.5.1 1.1h-2.1zm1.5-.5c0-.7-.3-1-.7-1s-.7.4-.8 1h1.5zm2.1 2.1c-.5 0-.8-.1-1.1-.3l.2-.4c.3.1.6.3.9.3.3 0 .6-.2.6-.5 0-.4-.4-.5-.7-.6-.4-.2-.9-.4-.9-1s.4-1 1.1-1c.5 0 .7.1.9.3l-.2.4c-.2-.1-.4-.2-.7-.2-.3 0-.5.2-.5.5 0 .4.3.5.6.6.5.2 1 .4 1 1-.1.5-.6.9-1.2.9z"/><path d="M139.8 150.4c-.4 0-.7-.1-.9-.5-.3-.4-.5-1-.5-1.8 0-1.5.5-2.4 1.5-2.4.9 0 1.3.8 1.3 2.3 0 1.6-.5 2.4-1.4 2.4zm0-4.2c-.5 0-.9.7-.9 1.9 0 .6.1 1.1.2 1.4.1.3.3.4.6.4s.5-.2.6-.5c.1-.3.2-.8.2-1.4.2-1.1-.1-1.8-.7-1.8zm1.4-17.7c0 .1 0 .1-.1.1h-2.4c-.1 0-.1 0-.1-.1 0-1.1.4-1.7 1.2-2.4.5-.3.5-.4.6-.5.1-.2.2-.4.2-.6 0-.5-.3-.8-.7-.8-.4 0-.6.2-.8.7 0 0 0 .1-.1.1h-.1l-.3-.1s-.1 0-.1-.1.2-.5.3-.6c.2-.3.6-.5 1-.5.8 0 1.2.5 1.2 1.3 0 .6-.2.9-.8 1.4-.7.5-1 .9-1.1 1.6h1.9c.1 0 .1 0 .1.1v.4zm2.2.2c-.4 0-.7-.2-1-.5-.3-.5-.5-1.1-.5-1.9 0-1.6.6-2.5 1.5-2.5s1.4.9 1.4 2.4c.1 1.6-.4 2.5-1.4 2.5zm.1-4.4c-.6 0-.9.7-.9 2 0 .6.1 1.2.3 1.5.1.3.3.4.6.4s.6-.2.7-.5c.1-.4.2-.9.2-1.5-.1-1.3-.4-1.9-.9-1.9zm-2-18.7c0 .1 0 .1-.1.1h-.6v1.1c0 .1 0 .1-.1.1h-.3c-.1 0-.1 0-.1-.1v-1.1h-1.8c-.1 0-.1 0-.1-.1v-.4l1.9-3.2.1-.1.4.1c.1 0 .1 0 .1.1v.1l-1.8 3.1h1.4l.1-1.2c0-.1 0-.1.1-.1h.3c.1 0 .1 0 .1.1v1.2h.6c.1 0 .1 0 .1.1v.2zm1.9 1.3c-.4 0-.7-.2-1-.5-.3-.5-.5-1.1-.5-1.9 0-1.6.6-2.5 1.5-2.5s1.4.9 1.4 2.4c.1 1.6-.4 2.5-1.4 2.5zm.1-4.5c-.6 0-.9.7-.9 2 0 .6.1 1.2.3 1.5.1.3.3.4.6.4s.6-.2.7-.5c.1-.4.2-.9.2-1.5-.1-1.2-.4-1.9-.9-1.9zM139.9 85c-.5 0-.9-.3-1.1-.7-.2-.4-.3-.8-.3-1.3 0-1.8.8-2.9 2-2.9.3 0 .6.1.6.2l-.1.3h-.1c-.1-.1-.3-.1-.5-.1-.4 0-.7.2-.9.5-.2.3-.3.6-.4 1.1.3-.3.5-.5.9-.5.7 0 1.2.6 1.2 1.6.1 1.1-.5 1.8-1.3 1.8zm0-2.9c-.5 0-.8.4-.8 1.1 0 .8.3 1.2.8 1.2s.8-.4.8-1.2c0-.7-.3-1.1-.8-1.1zm3.5 2.9c-.4 0-.7-.2-1-.5-.3-.5-.5-1.1-.5-1.9 0-1.6.6-2.5 1.5-2.5s1.4.9 1.4 2.4c.1 1.6-.4 2.5-1.4 2.5zm.1-4.5c-.6 0-.9.7-.9 2 0 .6.1 1.2.3 1.5.1.3.3.4.6.4s.6-.2.7-.5c.1-.4.2-.9.2-1.5-.1-1.2-.4-1.9-.9-1.9zm-2.4-17.9c-.3.3-.7.5-1.2.5-.9 0-1.5-.5-1.5-1.3 0-.4.2-.7.4-.9.2-.1.3-.2.6-.4-.6-.2-.8-.6-.8-1.1 0-.3.1-.6.3-.8.3-.3.6-.4 1-.4.8 0 1.3.5 1.3 1.1 0 .5-.2.9-.8 1.2.7.3 1 .7 1 1.3 0 .3-.1.6-.3.8zm-1.2-1.8c-.3.1-.3.2-.5.2-.3.2-.4.5-.4.8 0 .5.4.8.9.8s.9-.3.9-.8c0-.4-.2-.7-.9-1zm0-2.2c-.4 0-.7.3-.7.7 0 .4.2.7.8.9.5-.2.7-.5.7-.9s-.3-.7-.8-.7zm3.5 4.5c-.4 0-.7-.2-1-.5-.3-.5-.5-1.1-.5-1.9 0-1.6.6-2.5 1.5-2.5s1.4.9 1.4 2.4c.1 1.6-.4 2.5-1.4 2.5zm.1-4.4c-.6 0-.9.7-.9 2 0 .6.1 1.2.3 1.5.1.3.3.4.6.4s.6-.2.7-.5c.1-.4.2-.9.2-1.5-.1-1.3-.4-1.9-.9-1.9zm-2.3-18.1c0 .1 0 .1-.1.1h-1.9c-.1 0-.1 0-.1-.1v-.3c0-.1 0-.1.1-.1h.7v-3.6l-1 .6h-.1l-.1-.1-.1-.2v-.1l.1-.1 1.3-.7h.4c.1 0 .1 0 .1.1v4.2h.6c.1 0 .1 0 .1.1v.2zm2 .3c-.4 0-.7-.2-1-.5-.3-.5-.5-1.1-.5-1.9 0-1.6.6-2.5 1.5-2.5s1.4.9 1.4 2.4c0 1.6-.5 2.5-1.4 2.5zm0-4.5c-.6 0-.9.7-.9 2 0 .6.1 1.2.3 1.5.1.3.3.4.6.4s.6-.2.7-.5c.1-.4.2-.9.2-1.5 0-1.2-.3-1.9-.9-1.9zm3.5 4.5c-.4 0-.7-.2-1-.5-.3-.5-.5-1.1-.5-1.9 0-1.6.6-2.5 1.5-2.5s1.4.9 1.4 2.4c.1 1.6-.5 2.5-1.4 2.5zm0-4.5c-.6 0-.9.7-.9 2 0 .6.1 1.2.3 1.5.1.3.3.4.6.4s.6-.2.7-.5c.1-.4.2-.9.2-1.5 0-1.2-.3-1.9-.9-1.9z"/><g fill="none" stroke-miterlimit="6"><path stroke="#000" stroke-width=".3" d="M80.4 148h56.8"/><path stroke="#C6C6C6" stroke-width=".7" d="M80.4 126.3h56.8m-56.8-22.1h56.8M80.4 82.3h56.8M80.4 60.4h56.8m-56.8-22h56.8"/></g><g fill="none"><path stroke="#000" stroke-width=".3" stroke-miterlimit="6" d="M87.1 148.1v3.3"/><path d="M87.6 148.1v1.5m.4-1.5v1.5m.4-1.5v1.5m.4-1.5v1.5m.5-1.5v1.5m.4-1.5v1.5m.4-1.5v1.5m.5-1.5v1.5m.4-1.5v1.5"/><path stroke="#000" stroke-width=".3" stroke-miterlimit="6" d="M91.4 148.1v2.3"/><path d="M91.8 148.1v1.5m.5-1.5v1.5m.4-1.5v1.5m.4-1.5v1.5m.4-1.5v1.5m.5-1.5v1.5m.4-1.5v1.5m.4-1.5v1.5m.4-1.5v1.5"/><path stroke="#000" stroke-width=".3" stroke-miterlimit="6" d="M95.7 148.1v3.3"/><path d="M96.1 148.1v1.5m.4-1.5v1.5m.4-1.5v1.5m.5-1.5v1.5m.4-1.5v1.5m.4-1.5v1.5m.5-1.5v1.5m.4-1.5v1.5m.4-1.5v1.5"/><path stroke="#000" stroke-width=".3" stroke-miterlimit="6" d="M99.9 148.1v2.3"/><path d="M100.4 148.1v1.5m.4-1.5v1.5m.4-1.5v1.5m.4-1.5v1.5m.5-1.5v1.5m.4-1.5v1.5m.4-1.5v1.5m.4-1.5v1.5m.5-1.5v1.5"/><path stroke="#000" stroke-width=".3" stroke-miterlimit="6" d="M104.2 148.1v3.3"/><path d="M104.6 148.1v1.5m.4-1.5v1.5m.5-1.5v1.5m.4-1.5v1.5m.4-1.5v1.5m.5-1.5v1.5m.4-1.5v1.5m.4-1.5v1.5m.4-1.5v1.5"/><path stroke="#000" stroke-width=".3" stroke-miterlimit="6" d="M108.5 148.1v2.3"/><path d="M108.9 148.1v1.5m.4-1.5v1.5m.4-1.5v1.5m.5-1.5v1.5m.4-1.5v1.5m.4-1.5v1.5m.4-1.5v1.5m.5-1.5v1.5m.4-1.5v1.5"/><path stroke="#000" stroke-width=".3" stroke-miterlimit="6" d="M112.7 148.1v3.3"/><path d="M113.1 148.1v1.5m.5-1.5v1.5m.4-1.5v1.5m.4-1.5v1.5m.5-1.5v1.5m.4-1.5v1.5m.4-1.5v1.5m.4-1.5v1.5m.5-1.5v1.5"/><path stroke="#000" stroke-width=".3" stroke-miterlimit="6" d="M117 148.1v2.3"/><path d="M117.4 148.1v1.5m.4-1.5v1.5m.5-1.5v1.5m.4-1.5v1.5m.4-1.5v1.5m.4-1.5v1.5m.5-1.5v1.5m.4-1.5v1.5m.4-1.5v1.5"/><path stroke="#000" stroke-width=".3" stroke-miterlimit="6" d="M121.2 148.1v3.3"/><path d="M121.7 148.1v1.5m.4-1.5v1.5m.4-1.5v1.5m.4-1.5v1.5m.5-1.5v1.5m.4-1.5v1.5m.4-1.5v1.5m.5-1.5v1.5m.4-1.5v1.5"/><path stroke="#000" stroke-width=".3" stroke-miterlimit="6" d="M125.5 148.1v2.3"/><path d="M125.9 148.1v1.5m.5-1.5v1.5m.4-1.5v1.5m.4-1.5v1.5m.4-1.5v1.5m.5-1.5v1.5m.4-1.5v1.5m.4-1.5v1.5m.4-1.5v1.5"/><path stroke="#000" stroke-width=".3" stroke-miterlimit="6" d="M129.8 148.1v3.3"/><path d="M130.2 148.1v1.5m.4-1.5v1.5m.4-1.5v1.5m.5-1.5v1.5m.4-1.5v1.5m.4-1.5v1.5m.5-1.5v1.5m.4-1.5v1.5m.4-1.5v1.5"/><path stroke="#000" stroke-width=".3" stroke-miterlimit="6" d="M134 148.1v2.3"/><path d="M134.5 148.1v1.5m.4-1.5v1.5"/><path stroke="#000" stroke-width=".3" stroke-miterlimit="6" d="M135.3 148.1v1.5"/></g><path d="M83.3 160.5c0 .1 0 .1 0 0l-1.9.1c-.1 0-.1 0-.1-.1v-.3c0-.1 0-.1.1-.1h.7v-3.4l-.9.6h-.1l-.1-.1-.1-.2v-.1l.1-.1 1.2-.9h.3c.1 0 .1 0 .1.1v4h.6c.1 0 .1 0 .1.1v.4zm1.4.2c-.4 0-.6-.1-.6-.2v-.3s0-.1.1-.1h.1c.1 0 .3.1.4.1.7 0 1.1-.5 1.2-1.6-.2.4-.5.5-.9.5-.7 0-1.1-.6-1.1-1.6s.5-1.6 1.3-1.6 1.2.6 1.2 1.9c0 1.8-.6 2.9-1.7 2.9zm.4-4.2c-.5 0-.7.4-.7 1.1 0 .7.3 1.1.7 1.1.5 0 .7-.4.7-1.1.1-.7-.2-1.1-.7-1.1zm3.3 4.2c-.4 0-.7-.1-.9-.5-.3-.4-.5-1-.5-1.8 0-1.5.5-2.4 1.4-2.4.8 0 1.3.8 1.3 2.3.1 1.5-.4 2.4-1.3 2.4zm.1-4.2c-.5 0-.8.7-.8 1.9 0 .6.1 1.1.2 1.4.1.3.3.4.6.4s.5-.2.6-.5c.1-.3.2-.8.2-1.4 0-1.2-.3-1.8-.8-1.8zm3.2 4.2c-.4 0-.7-.1-.9-.5-.3-.4-.5-1-.5-1.8 0-1.5.5-2.4 1.4-2.4.8 0 1.3.8 1.3 2.3.1 1.5-.4 2.4-1.3 2.4zm0-4.2c-.5 0-.8.7-.8 1.9 0 .6.1 1.1.2 1.4.1.3.3.4.6.4s.5-.2.6-.5c.1-.3.2-.8.2-1.4 0-1.2-.3-1.8-.8-1.8zm12.3 3c0 .1 0 .1 0 0l-.6.1v1c0 .1 0 .1-.1.1h-.3c-.1 0-.1 0-.1-.1v-1h-1.7c-.1 0-.1 0-.1-.1v-.4l1.7-3s0-.1.1-.1l.3.1c.1 0 .1 0 .1.1v.1l-1.7 2.9h1.3l.1-1.1c0-.1 0-.1.1-.1h.2c.1 0 .1 0 .1.1v1.1h.5c.1 0 .1 0 .1.1v.2zm1.8 1.2c-.4 0-.7-.1-.9-.5-.3-.4-.5-1-.5-1.8 0-1.5.5-2.4 1.4-2.4.8 0 1.3.8 1.3 2.3.1 1.5-.4 2.4-1.3 2.4zm0-4.2c-.5 0-.8.7-.8 1.9 0 .6.1 1.1.2 1.4.1.3.3.4.6.4s.5-.2.6-.5c.1-.3.2-.8.2-1.4.1-1.2-.2-1.8-.8-1.8zm14.9 3.7c-.3.3-.6.5-1.1.5-.8 0-1.4-.5-1.4-1.3 0-.3.1-.7.4-.9.1-.1.3-.2.6-.3-.5-.2-.8-.6-.8-1.1 0-.3.1-.6.3-.8.2-.2.5-.4.9-.4.7 0 1.2.4 1.2 1.1 0 .5-.2.9-.8 1.1.6.3.9.7.9 1.2.1.4 0 .7-.2.9zm-1.1-1.7c-.2.1-.3.1-.4.2-.3.2-.4.5-.4.8 0 .5.3.8.9.8.5 0 .8-.3.8-.8s-.3-.8-.9-1zm0-2.1c-.4 0-.7.3-.7.7 0 .4.2.6.7.9.5-.2.7-.5.7-.9s-.3-.7-.7-.7zm3.3 4.3c-.4 0-.7-.1-.9-.5-.3-.4-.5-1-.5-1.8 0-1.5.5-2.4 1.4-2.4.8 0 1.3.8 1.3 2.3 0 1.5-.4 2.4-1.3 2.4zm0-4.2c-.5 0-.8.7-.8 1.9 0 .6.1 1.1.2 1.4.1.3.3.4.6.4s.5-.2.6-.5c.1-.3.2-.8.2-1.4 0-1.2-.3-1.8-.8-1.8zm8.8 4c0 .1 0 .1 0 0l-2.3.1c-.1 0-.1 0-.1-.1 0-1 .3-1.6 1.1-2.2.4-.3.5-.3.6-.5.1-.1.2-.3.2-.6 0-.5-.3-.7-.7-.7-.4 0-.6.2-.8.7 0 0 0 .1-.1.1h-.1l-.3-.1s-.1 0-.1-.1.1-.4.3-.6c.2-.3.6-.5 1-.5.7 0 1.2.5 1.2 1.3 0 .5-.2.9-.8 1.3-.7.5-1 .9-1 1.5h1.7c.1 0 .1 0 .1.1v.3zm2.1.2c-.4 0-.7-.1-.9-.5-.3-.4-.5-1-.5-1.8 0-1.5.5-2.4 1.4-2.4.8 0 1.3.8 1.3 2.3.1 1.5-.4 2.4-1.3 2.4zm0-4.2c-.5 0-.8.7-.8 1.9 0 .6.1 1.1.2 1.4.1.3.3.4.6.4s.5-.2.6-.5c.1-.3.2-.8.2-1.4 0-1.2-.3-1.8-.8-1.8zm4.3 4c0 .1 0 .1 0 0l-1.9.1c-.1 0-.1 0-.1-.1v-.3c0-.1 0-.1.1-.1h.7v-3.4l-.9.6h-.1l-.1-.1-.1-.2v-.1l.1-.1 1.2-.9h.3c.1 0 .1 0 .1.1v4h.6c.1 0 .1 0 .1.1v.4zm1.8.2c-.5 0-1.1-.2-1.1-.3v-.1l.1-.3h.1c.3.2.6.2.9.2.6 0 .9-.3.9-.9 0-.6-.3-.9-1-.9h-.2c-.1 0-.1 0-.1-.1v-.3c0-.1 0-.1.1-.1h.2c.5 0 .9-.3.9-.8 0-.4-.3-.7-.6-.7-.2 0-.5.1-.7.3l-.1.1-.2-.2c0-.1.2-.2.3-.4.2-.2.5-.3.8-.3.7 0 1.1.5 1.1 1.1 0 .5-.2.8-.7 1 .2.1.3.1.4.2.3.2.4.6.4 1-.1.9-.7 1.5-1.5 1.5z"/><path fill="none" stroke="#43B7AC" stroke-width="1.5" stroke-miterlimit="10" d="M87.1 148.1h3.5l.4-9.1h1.7l.4-9.8.4-16.7.5-11h.4l.4-11h.4l.5-8.2h.4l.4 5.5.4 2.7h.5l.4 2.8h1.3l.4-8.2.4-6.9.5-2.7h.8l.4 2.7h.5l.4-1.4.4-1.3.4-9.6.5-8.3.4-8.2.4-8.2h4.7l.4 2.7h.5l.4 2.8h1.3l.4 4.1h2.1l.5-2.8h2.1l.4 2.8h.4l.5-1.4.4-8.8h1.7l.4 25.3h1.7l.4 16.4h1.3l.5 21.9h8.9l.4-10.9h.9l.4 5.5" stroke-linejoin="bevel"/><path fill="#00AEA1" d="M125.5 52.8c-.2.1-.4.1-.9.1h-1.1v-4.8h1.2c.5 0 .7 0 1 .2.3.2.4.5.4 1s-.2.9-.7 1.1c.3.1.4.1.5.2.2.2.4.6.4.9 0 .6-.3 1.1-.8 1.3zm-.8-4.3h-.7v1.7h.5c.3 0 .4 0 .6-.1.2-.2.3-.4.3-.8.1-.6-.1-.8-.7-.8zm.6 2.3c-.1-.1-.3-.1-.6-.1h-.7v1.7h.7c.3 0 .5 0 .6-.2.2-.1.3-.4.3-.7.1-.3 0-.6-.3-.7zm3.3-.8h-.2c-.2 0-.5.4-.6.5v2.4h-.5v-2.4c0-.2 0-.7-.1-.9l.5-.1c.1.1.1.4.1.5.2-.3.4-.6.7-.6.1 0 .2 0 .3.1l-.2.5zm.9-1.4c-.2 0-.4-.2-.4-.4s.2-.4.4-.4.4.2.4.4c-.1.2-.2.4-.4.4zm.2 4.3h-.5v-3.4h.5v3.4zm2.4 0c-.1 0-.3.1-.5.1-.6 0-.8-.4-.8-1v-2h-.5v-.4h.5v-1.1l.5-.1v1.1h.7l-.1.4h-.6v2c0 .3.1.5.4.5.1 0 .3 0 .4-.1v.6zm2.7 0h-.5l-.1-.3c-.2.2-.5.4-.9.4-.6 0-.9-.4-.9-1 0-.8.6-1.2 1.8-1.2v-.2c0-.4-.2-.6-.6-.6-.4 0-.8.2-.9.2l-.1-.4c.2-.1.5-.3 1.1-.3.7 0 1.1.3 1.1 1v2.4zm-.5-1.7c-.9 0-1.3.3-1.3.7 0 .3.2.6.5.6.2 0 .5-.1.8-.4v-.9zm1.9-2.6c-.2 0-.4-.2-.4-.4s.2-.4.4-.4.4.2.4.4-.2.4-.4.4zm.3 4.3h-.5v-3.4h.5v3.4zm3.6 0h-.5v-2.4c0-.4-.1-.6-.5-.6-.3 0-.5.1-.9.4v2.6h-.5v-2.4c0-.2 0-.7-.1-.9l.5-.1c.1.1.1.3.1.5.3-.3.6-.5 1.1-.5.3 0 .5.1.7.3.1.2.2.3.2.8v2.3z"/><path fill="#0F6967" d="M106.7 114c0 1-.6 1.4-1.5 1.4s-1.4-.5-1.4-1.4v-3.5h.6v3.5c0 .7.3 1 .9 1 .6 0 .9-.3.9-1v-3.5h.6v3.5zm3.6 1.3h-.5v-2.4c0-.4-.1-.6-.5-.6-.3 0-.5.1-.9.4v2.6h-.5v-2.4c0-.2 0-.7-.1-.9l.5-.1c.1.1.1.3.1.5.3-.3.6-.5 1.1-.5.3 0 .5.1.7.3.1.2.2.3.2.8v2.3zm1.3-4.2c-.2 0-.4-.2-.4-.4s.2-.4.4-.4.4.2.4.4-.2.4-.4.4zm.3 4.2h-.5V112h.5v3.3zm2.4 0c-.1 0-.3.1-.5.1-.6 0-.8-.4-.8-1v-2h-.5v-.4h.5v-1.1l.5-.1v1.1h.7l-.1.4h-.6v2c0 .3.1.5.4.5.1 0 .3 0 .4-.1v.6zm.9-1.5c0 .8.4 1.2.9 1.2.4 0 .7-.2.9-.3l.2.4c-.2.1-.6.4-1.1.4-.9 0-1.5-.7-1.5-1.8s.5-1.8 1.4-1.8c.6 0 1 .3 1.2.8.1.2.1.5.1 1.1h-2.1zm1.5-.5c0-.7-.3-1-.7-1s-.7.4-.8 1h1.5zm3.7 2h-.4v-.3c-.3.2-.6.4-1 .4-.7 0-1.1-.7-1.1-1.8s.5-1.7 1.3-1.7c.3 0 .5.1.8.2v-1.8l.5-.1v5.1zm-.5-2.7c-.3-.2-.5-.2-.7-.2-.5 0-.7.4-.7 1.2 0 1 .2 1.4.7 1.4.3 0 .5-.1.8-.4v-2zm-15.2 9.3c-.6 0-1-.2-1.4-.4l.2-.5c.4.2.7.4 1.2.4s.9-.3.9-.8c0-.4-.2-.6-.9-1-.6-.3-1.2-.6-1.2-1.4 0-.7.6-1.3 1.4-1.3.6 0 1 .2 1.2.3l-.2.5c-.3-.2-.6-.3-1-.3-.5 0-.8.3-.8.7 0 .5.4.7.8 1 .6.4 1.2.7 1.2 1.5.1.8-.5 1.3-1.4 1.3zm3.6-.1c-.1 0-.3.1-.5.1-.6 0-.8-.4-.8-1v-2h-.5v-.4h.5v-1.1l.5-.1v1.1h.7l-.1.4h-.6v2c0 .3.1.5.4.5.1 0 .3 0 .4-.1v.6zm2.7 0h-.5l-.1-.3c-.2.2-.5.4-.9.4-.6 0-.9-.4-.9-1 0-.8.6-1.2 1.8-1.2v-.2c0-.4-.2-.6-.6-.6-.4 0-.8.2-.9.2l-.1-.4c.2-.1.5-.3 1.1-.3.7 0 1.1.3 1.1 1v2.4zm-.5-1.6c-.9 0-1.3.3-1.3.7 0 .3.2.6.5.6.2 0 .5-.1.8-.4v-.9zm2.9 1.6c-.1 0-.3.1-.5.1-.6 0-.8-.4-.8-1v-2h-.5v-.4h.5v-1.1l.5-.1v1.1h.7l-.1.4h-.6v2c0 .3.1.5.4.5.1 0 .3 0 .4-.1v.6zm.8-1.5c0 .8.4 1.2.9 1.2.4 0 .7-.2.9-.3l.2.4c-.2.1-.6.4-1.1.4-.9 0-1.5-.7-1.5-1.8s.5-1.8 1.4-1.8c.6 0 1 .3 1.2.8.1.2.1.5.1 1.1h-2.1zm1.6-.5c0-.7-.3-1-.7-1s-.7.4-.8 1h1.5zm2 2.1c-.5 0-.8-.1-1.1-.3l.2-.4c.3.1.6.3.9.3.3 0 .6-.2.6-.5 0-.4-.4-.5-.7-.6-.4-.2-.9-.4-.9-1s.4-1 1.1-1c.5 0 .7.1.9.3l-.2.4c-.2-.1-.4-.2-.7-.2-.3 0-.5.2-.5.5 0 .4.3.5.6.6.5.2 1 .4 1 1 0 .5-.5.9-1.2.9z"/><path fill="#B2B2B2" d="M145.7 4.1h10v10h-10z"/><path fill="#FFF" d="M151.9 11.3c0 .1 0 .1-.1.1h-2.1c-.1 0-.1 0-.1-.1v-.4c0-.1 0-.1.1-.1h.7V7.9l-.7.4h-.1l-.1-.1-.2-.3v-.1l.1-.1 1.3-.9h.5c.1 0 .1 0 .1.1v3.9h.5c.1 0 .1 0 .1.1v.4z"/><path fill="none" stroke="#0F6967" stroke-width="1.5" stroke-miterlimit="10" d="M87.1 148.1h5.2l.4-7.7h.8l.5-8.7.4-57.1.4-10.9.4 4.4h.9l.4 16.4.4 15.9.5-2.7.4 23h1.3l.4 1.1.4-1.1h.5l.4-41.7h1.3l.4-17.5h1.3l.4-2.3.4.1.4-7.7h.5l.4-6.6h.4l.5 8.3h.4l.4 4.7h.4l.5-2.4.4-7.3.4-1.1h.4l.5 1.1h3.8l.4 15.4.5 7.6h.8l.4-5.7.5-1.9.4 5.7.4 1.9h3.8l.5 1 .4 21h1.7l.4 12.6.5 11.5h.8l.4-3.3h.5l.4-9.4h3l.4 1.1h.4l.4 3.9h3.9l.4-5" stroke-linejoin="bevel"/><g fill="none" stroke-width="1.5" stroke-miterlimit="10" stroke-linejoin="bevel"><path stroke="#43B7AC" d="M17.7 52.2l3.5.6.5-.3.4-.3.5-.1h.4l.4-.6.5 2.5.4-.3.5 1.5.4 5.8.5 2.8.4-1.5.5 4.5.4-.2.4-4.7.5-1.1.4 1.2.5 1.2.4.6.5.8.4-.2.4 1 .5 2.5.4 3 .5 1.5.4.6.5-.2.4-.9.5-.3.4 2.1.4.2.5 1.7.4 5.2.5 5.1.4 4.3.5 1.6.4.8.5-.8.4-1.9.4 2.9.5 1.9.4 3.1.9 2.6.5 3 .4 2.1.5.2.4 1.6.4 2.4.5.3.4-.3.5.7.4-1.2.9 1.9.4-.2h.5l.4-.3.5 2.8.4 1 .5.6.4.4.5 1.8.4.1.4.4.5-.3.4 2 .5 1.9.4 1 .5-.2.4.9.5-.9.8-3.2.5-.8.4.1.5-1.5.4-1 .5-.7.4-1 .5-3.7.4-.2.4-5 .5-2.2.4 2 .5-2.2.4-1.1.5-.6.4-5 .5-.8.4-2 .4.1.5-.7.4-.2.5 1.9.4.7.5-3.4.4-5.9.4-2.5.5-2.7.4 3.1.5 3.7.4-3.5"/><path stroke="#0F6967" d="M22.1 70.3l.5-.5.4-.6.4.2.5-.8.4 2.5.5-4.3.4 4.2.5 7.5.4.1.5 6.1.4-4.4.4-3.6.5 5.7.4-5.8.5-5.6.4-1.8.5-2.9.4-4.1.4 5.2.5 8.8.4 5 .5-.9.4-1.3.5-.4.4 1 .5-8.8.4 5.2.4 7.6.5-2.9.4-1.5.5 3.1.4 9.2.5 6.3.4 4.1.5-2.3.4-3 .4 3.5.5-1.4.4 1.4.5-1.8.4 3.7.5 3.3.4 3 .5-1.4.4 1 .4.4.5.4.4.7.5.3.4 1.8h.5l.4.3.4.5.5.6.4-.2.5-1.3.4-.3.5.4.4 1.4.5 1h.4l.4.2.5.1.4-1.7.5.5.4.5h.5l.4-.3.5-.3.4-.7.4.7.5-1.6.4-.9.5-1.3.4-.8.5-.2.4-7.1.5-10.6.4 2.4.4-1.6.5 3.6.4-5.8.5 2.9.4-.1.5-3 .4-2.5.5-2.9.4-2.3.4-2.5.5-2.7.4 4.9.5 1.6.4-.9.5-5 .4-5.8.4-1.7.5-1.2.4 1.9.5 5.3.4-3.2"/></g></svg>
